<?xml version="1.0" standalone="no"?>
<!DOCTYPE svg PUBLIC "-//W3C//DTD SVG 20010904//EN"
 "http://www.w3.org/TR/2001/REC-SVG-20010904/DTD/svg10.dtd">
<svg version="1.0" xmlns="http://www.w3.org/2000/svg"
 width="1024.000000pt" height="1024.000000pt" viewBox="0 0 1024.000000 1024.000000"
 preserveAspectRatio="xMidYMid meet">
<metadata>
Created by potrace 1.16, written by Peter Selinger 2001-2019
</metadata>
<g transform="translate(0.000000,1024.000000) scale(0.100000,-0.100000)"
fill="#000000" stroke="none">
<path d="M4775 8070 c-29 -5 -13 -8 63 -9 62 0 102 3 102 9 0 11 -102 11 -165
0z"/>
<path d="M5320 8070 c0 -6 38 -10 98 -9 78 1 89 3 57 10 -57 11 -155 11 -155
-1z"/>
<path d="M4615 8060 c-24 -6 -17 -8 33 -9 35 0 62 3 62 9 0 11 -50 11 -95 0z"/>
<path d="M5550 8060 c0 -6 27 -9 63 -9 49 1 56 3 32 9 -45 11 -95 11 -95 0z"/>
<path d="M4495 8050 c-15 -6 -8 -9 28 -9 26 -1 47 4 47 9 0 12 -47 12 -75 0z"/>
<path d="M5680 8050 c0 -6 24 -10 53 -9 41 1 47 3 27 9 -36 12 -80 12 -80 0z"/>
<path d="M4395 8040 c-16 -7 -11 -9 22 -9 23 -1 45 4 48 9 8 12 -42 12 -70 0z"/>
<path d="M5795 8040 c3 -5 25 -10 48 -9 33 0 38 2 22 9 -28 12 -78 12 -70 0z"/>
<path d="M4305 8030 c-15 -7 -10 -9 23 -9 23 -1 42 4 42 9 0 12 -37 12 -65 0z"/>
<path d="M5890 8030 c0 -5 19 -10 43 -9 36 1 38 2 17 9 -36 12 -60 12 -60 0z"/>
<path d="M4167 8015 c-43 -7 -82 -17 -85 -21 -4 -3 9 -4 28 -1 19 4 65 9 103
13 37 4 67 11 67 15 0 11 -15 10 -113 -6z"/>
<path d="M5980 8020 c0 -5 15 -10 33 -9 27 0 29 2 12 9 -28 12 -45 12 -45 0z"/>
<path d="M6055 8011 c6 -5 37 -11 70 -15 36 -3 52 -2 40 3 -30 12 -121 23
-110 12z"/>
<path d="M4048 7993 c7 -3 16 -2 19 1 4 3 -2 6 -13 5 -11 0 -14 -3 -6 -6z"/>
<path d="M6198 7993 c7 -3 16 -2 19 1 4 3 -2 6 -13 5 -11 0 -14 -3 -6 -6z"/>
<path d="M3988 7983 c6 -2 18 -2 25 0 6 3 1 5 -13 5 -14 0 -19 -2 -12 -5z"/>
<path d="M6248 7983 c6 -2 18 -2 25 0 6 3 1 5 -13 5 -14 0 -19 -2 -12 -5z"/>
<path d="M3928 7973 c6 -2 18 -2 25 0 6 3 1 5 -13 5 -14 0 -19 -2 -12 -5z"/>
<path d="M6308 7973 c7 -3 16 -2 19 1 4 3 -2 6 -13 5 -11 0 -14 -3 -6 -6z"/>
<path d="M3878 7963 c7 -3 16 -2 19 1 4 3 -2 6 -13 5 -11 0 -14 -3 -6 -6z"/>
<path d="M6368 7963 c7 -3 16 -2 19 1 4 3 -2 6 -13 5 -11 0 -14 -3 -6 -6z"/>
<path d="M3818 7953 c6 -2 18 -2 25 0 6 3 1 5 -13 5 -14 0 -19 -2 -12 -5z"/>
<path d="M3778 7943 c7 -3 16 -2 19 1 4 3 -2 6 -13 5 -11 0 -14 -3 -6 -6z"/>
<path d="M6458 7943 c7 -3 16 -2 19 1 4 3 -2 6 -13 5 -11 0 -14 -3 -6 -6z"/>
<path d="M6498 7938 c5 -5 16 -8 23 -6 8 3 3 7 -10 11 -17 4 -21 3 -13 -5z"/>
<path d="M3728 7933 c7 -3 16 -2 19 1 4 3 -2 6 -13 5 -11 0 -14 -3 -6 -6z"/>
<path d="M6548 7928 c5 -5 16 -8 23 -6 8 3 3 7 -10 11 -17 4 -21 3 -13 -5z"/>
<path d="M3678 7923 c6 -2 18 -2 25 0 6 3 1 5 -13 5 -14 0 -19 -2 -12 -5z"/>
<path d="M3638 7913 c7 -3 16 -2 19 1 4 3 -2 6 -13 5 -11 0 -14 -3 -6 -6z"/>
<path d="M6601 7916 c2 -3 65 -20 139 -39 74 -20 182 -49 240 -66 102 -30 128
-36 119 -26 -11 11 -245 79 -362 106 -133 30 -143 32 -136 25z"/>
<path d="M3455 7875 c-149 -39 -318 -93 -294 -94 9 -1 70 15 135 35 66 20 166
49 224 64 58 16 96 29 85 29 -11 0 -78 -16 -150 -34z"/>
<path d="M5008 7779 c-109 -17 -227 -77 -293 -149 -23 -25 -14 -21 38 19 146
110 206 125 466 123 107 -1 191 1 187 5 -9 9 -340 12 -398 2z"/>
<path d="M5495 7770 c52 -12 108 -12 101 -2 -3 5 -36 9 -73 10 -61 0 -64 -1
-28 -8z"/>
<path d="M5645 7760 c45 -12 97 -12 90 0 -3 6 -32 9 -63 9 -47 -1 -52 -3 -27
-9z"/>
<path d="M5770 7750 c36 -12 70 -12 70 0 0 6 -21 10 -47 9 -39 -1 -43 -2 -23
-9z"/>
<path d="M3020 7740 c-8 -5 -10 -10 -5 -10 6 0 17 5 25 10 8 5 11 10 5 10 -5
0 -17 -5 -25 -10z"/>
<path d="M5865 7740 c28 -12 67 -12 60 0 -3 6 -23 10 -43 9 -30 0 -33 -2 -17
-9z"/>
<path d="M5941 7736 c4 -4 100 -20 215 -37 115 -16 251 -38 301 -49 51 -11
101 -20 110 -19 47 3 -426 91 -562 104 -38 4 -67 4 -64 1z"/>
<path d="M7230 7736 c0 -2 39 -18 88 -36 48 -18 125 -51 172 -72 92 -43 161
-70 166 -65 6 6 -218 105 -320 142 -99 36 -106 38 -106 31z"/>
<path d="M2870 7687 c-94 -36 -290 -131 -250 -121 14 4 59 22 100 41 41 19
114 51 163 70 78 32 101 44 80 43 -5 -1 -46 -16 -93 -33z"/>
<path d="M3750 7644 c-30 -7 -39 -11 -20 -9 141 18 166 18 183 1 22 -23 22
-26 -8 -72 l-26 -39 31 33 c76 82 -3 125 -160 86z"/>
<path d="M3668 7623 c7 -3 16 -2 19 1 4 3 -2 6 -13 5 -11 0 -14 -3 -6 -6z"/>
<path d="M3628 7613 c7 -3 16 -2 19 1 4 3 -2 6 -13 5 -11 0 -14 -3 -6 -6z"/>
<path d="M6638 7613 c7 -3 16 -2 19 1 4 3 -2 6 -13 5 -11 0 -14 -3 -6 -6z"/>
<path d="M3588 7603 c7 -3 16 -2 19 1 4 3 -2 6 -13 5 -11 0 -14 -3 -6 -6z"/>
<path d="M6678 7603 c7 -3 16 -2 19 1 4 3 -2 6 -13 5 -11 0 -14 -3 -6 -6z"/>
<path d="M3548 7593 c7 -3 16 -2 19 1 4 3 -2 6 -13 5 -11 0 -14 -3 -6 -6z"/>
<path d="M6718 7593 c7 -3 16 -2 19 1 4 3 -2 6 -13 5 -11 0 -14 -3 -6 -6z"/>
<path d="M6758 7583 c7 -3 16 -2 19 1 4 3 -2 6 -13 5 -11 0 -14 -3 -6 -6z"/>
<path d="M3370 7556 c-132 -36 -408 -134 -380 -136 3 0 66 21 140 46 74 25
187 60 250 79 129 38 121 46 -10 11z"/>
<path d="M4658 7568 c-23 -19 -91 -124 -130 -203 -61 -121 -52 -125 12 -5 33
64 78 139 100 168 41 54 44 60 18 40z"/>
<path d="M6798 7573 c7 -3 16 -2 19 1 4 3 -2 6 -13 5 -11 0 -14 -3 -6 -6z"/>
<path d="M6852 7564 c5 -4 47 -20 94 -35 47 -15 97 -38 110 -50 13 -12 24 -18
24 -11 0 19 -50 50 -113 70 -78 25 -124 36 -115 26z"/>
<path d="M7670 7556 c0 -2 48 -30 108 -61 59 -32 114 -63 122 -70 21 -18 130
-78 130 -72 0 10 -175 115 -267 161 -51 25 -93 44 -93 42z"/>
<path d="M2465 7499 c-83 -42 -255 -147 -255 -156 0 -6 109 54 130 72 8 7 59
36 113 65 53 28 97 54 97 56 0 6 2 7 -85 -37z"/>
<path d="M3819 7456 c-90 -107 -114 -137 -118 -149 -6 -20 70 68 157 183 41
53 16 32 -39 -34z"/>
<path d="M7051 7398 c-13 -16 -49 -48 -80 -71 -31 -22 -60 -45 -66 -50 -5 -4
-52 -36 -103 -69 -51 -33 -91 -63 -88 -66 12 -12 339 226 357 261 16 30 6 27
-20 -5z"/>
<path d="M2950 7410 c-8 -5 -10 -10 -5 -10 6 0 17 5 25 10 8 5 11 10 5 10 -5
0 -17 -5 -25 -10z"/>
<path d="M2850 7370 c-8 -5 -10 -10 -5 -10 6 0 17 5 25 10 8 5 11 10 5 10 -5
0 -17 -5 -25 -10z"/>
<path d="M2672 7290 c-76 -38 -147 -77 -157 -85 -11 -9 54 21 145 66 174 86
180 89 162 89 -6 0 -74 -31 -150 -70z"/>
<path d="M8126 7283 c17 -15 68 -57 114 -93 156 -121 292 -271 405 -445 47
-74 63 -91 40 -45 -64 126 -202 293 -363 436 -93 83 -272 218 -196 147z"/>
<path d="M2071 7250 c-91 -67 -234 -197 -297 -267 -82 -93 -47 -68 55 40 70
73 125 120 300 254 2 2 2 5 -1 8 -2 3 -28 -13 -57 -35z"/>
<path d="M3652 7243 c-162 -237 -209 -309 -205 -313 2 -3 8 2 13 10 5 8 60 90
123 183 64 92 112 167 109 167 -4 0 -22 -21 -40 -47z"/>
<path d="M2464 7175 c-10 -8 -14 -15 -8 -15 6 0 17 7 24 15 16 19 9 19 -16 0z"/>
<path d="M4422 7118 c-66 -160 -86 -245 -87 -363 0 -103 2 -114 30 -169 18
-35 44 -70 65 -85 l35 -25 -33 32 c-39 38 -77 119 -85 185 -12 89 27 288 84
421 16 39 27 71 25 73 -2 2 -17 -29 -34 -69z"/>
<path d="M7712 7164 c-12 -8 -29 -28 -37 -44 -24 -47 -17 -49 11 -3 16 28 34
45 52 49 44 9 49 12 22 13 -14 1 -36 -6 -48 -15z"/>
<path d="M7814 7153 c37 -20 234 -159 263 -186 13 -11 25 -18 29 -15 12 12
-282 219 -310 218 -6 -1 2 -8 18 -17z"/>
<path d="M2406 7143 c-46 -25 -164 -110 -248 -180 -156 -129 -260 -258 -346
-428 -48 -96 -69 -164 -76 -248 -6 -68 -3 -60 29 82 17 72 96 245 146 318 82
120 291 310 457 417 39 26 72 49 72 51 0 7 -1 6 -34 -12z"/>
<path d="M6674 7124 c-18 -14 -18 -15 4 -4 12 6 22 13 22 15 0 8 -5 6 -26 -11z"/>
<path d="M6472 7017 c-84 -44 -150 -82 -148 -84 6 -6 260 124 288 147 13 11
21 19 18 18 -3 0 -74 -37 -158 -81z"/>
<path d="M7650 7068 c0 -3 -7 -22 -15 -42 -8 -20 -13 -36 -10 -36 8 0 36 73
30 78 -3 3 -5 3 -5 0z"/>
<path d="M7547 6838 c-118 -258 -137 -301 -134 -305 4 -4 102 199 164 341 66
152 44 125 -30 -36z"/>
<path d="M8202 6853 c47 -50 106 -118 131 -151 61 -83 133 -233 157 -328 20
-79 30 -101 30 -70 0 62 -58 214 -123 319 -68 113 -188 254 -252 300 -16 11 9
-20 57 -70z"/>
<path d="M1668 6853 c-45 -61 -148 -241 -148 -258 0 -5 17 22 38 60 20 39 58
99 82 135 58 84 81 120 75 120 -2 0 -24 -26 -47 -57z"/>
<path d="M3347 6783 c-42 -65 -78 -127 -82 -138 -6 -19 -5 -19 7 -1 83 118
166 256 154 256 -2 0 -38 -53 -79 -117z"/>
<path d="M6200 6880 c-8 -5 -10 -10 -5 -10 6 0 17 5 25 10 8 5 11 10 5 10 -5
0 -17 -5 -25 -10z"/>
<path d="M6130 6850 c-25 -10 -101 -42 -170 -71 -131 -54 -154 -66 -106 -55
37 9 308 124 321 137 13 13 7 11 -45 -11z"/>
<path d="M5740 6690 c-9 -6 -10 -10 -3 -10 6 0 15 5 18 10 8 12 4 12 -15 0z"/>
<path d="M5670 6664 l-25 -15 25 7 c14 3 32 10 40 15 13 7 13 8 0 8 -8 0 -26
-6 -40 -15z"/>
<path d="M5575 6630 c-22 -11 -29 -17 -16 -14 38 10 88 33 71 33 -8 0 -33 -8
-55 -19z"/>
<path d="M8710 6633 c0 -4 5 -15 10 -23 8 -13 10 -13 10 2 0 9 -4 20 -10 23
-5 3 -10 3 -10 -2z"/>
<path d="M3242 6608 c-7 -7 -12 -15 -12 -19 0 -4 -27 -53 -61 -110 -34 -56
-64 -110 -67 -118 -3 -9 -25 -51 -49 -94 -25 -44 -42 -81 -40 -84 3 -2 20 24
39 59 19 35 55 99 80 143 77 139 129 235 125 235 -2 0 -8 -5 -15 -12z"/>
<path d="M5340 6554 c-85 -30 -148 -54 -139 -54 22 0 243 68 293 90 79 35 0
17 -154 -36z"/>
<path d="M1506 6565 c-9 -26 -7 -32 5 -12 6 10 9 21 6 23 -2 3 -7 -2 -11 -11z"/>
<path d="M8744 6553 c22 -71 56 -212 56 -230 0 -13 5 -23 10 -23 7 0 9 14 5
38 -9 49 -64 232 -71 232 -3 0 -3 -8 0 -17z"/>
<path d="M1478 6477 c-36 -117 -43 -166 -43 -292 0 -129 22 -265 48 -290 6 -7
8 -2 3 15 -45 166 -49 338 -11 504 27 119 28 147 3 63z"/>
<path d="M7300 6320 c-50 -99 -88 -180 -86 -180 6 0 139 253 165 313 42 98 8
41 -79 -133z"/>
<path d="M4480 6467 c8 -8 26 -18 40 -22 32 -9 25 -2 -20 20 -27 13 -32 14
-20 2z"/>
<path d="M5088 6473 c7 -3 16 -2 19 1 4 3 -2 6 -13 5 -11 0 -14 -3 -6 -6z"/>
<path d="M5048 6463 c7 -3 16 -2 19 1 4 3 -2 6 -13 5 -11 0 -14 -3 -6 -6z"/>
<path d="M4965 6450 c-16 -7 -17 -9 -3 -9 9 -1 20 4 23 9 7 11 7 11 -20 0z"/>
<path d="M5008 6453 c7 -3 16 -2 19 1 4 3 -2 6 -13 5 -11 0 -14 -3 -6 -6z"/>
<path d="M4570 6430 c25 -8 87 -13 79 -6 -2 2 -26 6 -54 9 -34 4 -42 3 -25 -3z"/>
<path d="M4908 6433 c6 -2 18 -2 25 0 6 3 1 5 -13 5 -14 0 -19 -2 -12 -5z"/>
<path d="M4828 6423 c12 -2 32 -2 45 0 12 2 2 4 -23 4 -25 0 -35 -2 -22 -4z"/>
<path d="M4693 6413 c20 -2 54 -2 75 0 20 2 3 4 -38 4 -41 0 -58 -2 -37 -4z"/>
<path d="M8808 6165 c-4 -95 -12 -155 -31 -225 -37 -136 -40 -151 -21 -110 46
100 85 351 66 430 -7 27 -10 5 -14 -95z"/>
<path d="M8513 6185 c0 -52 4 -92 8 -89 5 3 9 43 9 89 0 46 -4 86 -9 89 -4 3
-8 -37 -8 -89z"/>
<path d="M1731 6115 c-1 -54 38 -193 75 -267 83 -166 188 -299 330 -420 116
-99 294 -222 294 -204 0 2 -26 20 -57 41 -191 126 -375 295 -466 429 -77 113
-155 306 -158 386 0 14 -4 34 -9 45 -7 17 -9 16 -9 -10z"/>
<path d="M2915 6000 c-36 -73 -64 -134 -61 -137 3 -3 35 54 71 127 36 73 64
134 61 137 -3 3 -35 -54 -71 -127z"/>
<path d="M8505 6055 c-31 -132 -103 -290 -180 -394 -74 -101 -220 -238 -351
-331 -171 -121 -174 -124 -119 -94 143 78 376 283 477 418 96 130 203 371 185
419 -3 7 -8 -1 -12 -18z"/>
<path d="M7157 6048 c-41 -65 -118 -211 -114 -214 2 -3 11 6 19 18 29 45 120
218 114 218 -3 0 -12 -10 -19 -22z"/>
<path d="M5433 5953 c15 -2 37 -2 50 0 12 2 0 4 -28 4 -27 0 -38 -2 -22 -4z"/>
<path d="M5640 5949 c35 -5 83 -18 107 -29 24 -10 43 -17 43 -14 0 14 -96 45
-152 49 l-63 4 65 -10z"/>
<path d="M5358 5943 c7 -3 16 -2 19 1 4 3 -2 6 -13 5 -11 0 -14 -3 -6 -6z"/>
<path d="M5308 5933 c7 -3 16 -2 19 1 4 3 -2 6 -13 5 -11 0 -14 -3 -6 -6z"/>
<path d="M5250 5920 c0 -5 7 -7 15 -4 8 4 15 8 15 10 0 2 -7 4 -15 4 -8 0 -15
-4 -15 -10z"/>
<path d="M5218 5913 c7 -3 16 -2 19 1 4 3 -2 6 -13 5 -11 0 -14 -3 -6 -6z"/>
<path d="M5178 5903 c7 -3 16 -2 19 1 4 3 -2 6 -13 5 -11 0 -14 -3 -6 -6z"/>
<path d="M5138 5893 c7 -3 16 -2 19 1 4 3 -2 6 -13 5 -11 0 -14 -3 -6 -6z"/>
<path d="M1487 5859 c4 -13 8 -18 11 -10 2 7 -1 18 -6 23 -8 8 -9 4 -5 -13z"/>
<path d="M5068 5873 c7 -3 16 -2 19 1 4 3 -2 6 -13 5 -11 0 -14 -3 -6 -6z"/>
<path d="M5858 5843 c41 -52 62 -120 62 -203 0 -40 4 -70 10 -70 15 0 12 98
-5 165 -17 64 -46 115 -78 134 -13 9 -9 0 11 -26z"/>
<path d="M4870 5821 c-132 -45 -294 -109 -245 -97 59 14 427 144 410 145 -11
0 -85 -21 -165 -48z"/>
<path d="M1506 5810 c3 -14 10 -29 15 -34 14 -16 10 6 -7 34 l-15 25 7 -25z"/>
<path d="M7015 5788 l-16 -33 20 25 c20 24 26 40 16 40 -2 0 -12 -15 -20 -32z"/>
<path d="M2796 5758 c-13 -29 -46 -101 -74 -160 -53 -113 -67 -148 -57 -148 6
0 55 104 105 220 15 36 35 82 44 103 9 20 14 37 11 37 -4 0 -17 -24 -29 -52z"/>
<path d="M8702 5725 c-12 -25 -20 -45 -17 -45 7 0 47 81 43 86 -3 2 -14 -17
-26 -41z"/>
<path d="M1530 5756 c0 -11 40 -86 45 -86 3 0 -4 19 -16 43 -23 45 -29 54 -29
43z"/>
<path d="M6980 5728 c-12 -22 -12 -22 6 -6 10 10 15 20 12 24 -4 3 -12 -5 -18
-18z"/>
<path d="M4555 5705 c-16 -7 -23 -14 -15 -14 8 0 26 6 40 14 32 18 14 18 -25
0z"/>
<path d="M6902 5608 c-64 -100 -82 -132 -82 -145 0 -4 19 21 43 57 47 71 110
180 103 180 -2 0 -31 -42 -64 -92z"/>
<path d="M4490 5680 c-8 -5 -10 -10 -5 -10 6 0 17 5 25 10 8 5 11 10 5 10 -5
0 -17 -5 -25 -10z"/>
<path d="M8614 5583 c-32 -47 -69 -100 -80 -117 -38 -55 -236 -240 -346 -325
-60 -45 -108 -85 -108 -87 0 -3 34 18 75 47 176 121 421 375 495 512 17 31 29
57 27 57 -2 0 -31 -39 -63 -87z"/>
<path d="M1607 5610 c42 -73 141 -194 237 -290 48 -46 86 -82 86 -80 0 3 -45
52 -101 110 -55 58 -132 151 -170 208 -74 109 -100 134 -52 52z"/>
<path d="M4240 5584 c-167 -72 -265 -123 -130 -68 125 51 325 135 329 140 16
16 -47 -7 -199 -72z"/>
<path d="M5911 5505 c-7 -33 -30 -111 -51 -172 -20 -62 -35 -113 -33 -113 17
0 107 286 101 322 -3 15 -9 2 -17 -37z"/>
<path d="M3840 5397 c-154 -77 -250 -133 -250 -144 0 -3 10 1 23 9 12 9 108
59 212 113 204 105 203 105 189 105 -5 0 -84 -37 -174 -83z"/>
<path d="M6761 5382 c-99 -151 -221 -319 -306 -422 -46 -55 -70 -90 -61 -90 5
0 182 221 216 271 122 177 203 300 199 303 -2 2 -24 -26 -48 -62z"/>
<path d="M2642 5415 c-17 -37 -14 -45 4 -12 9 16 14 31 11 33 -2 2 -9 -7 -15
-21z"/>
<path d="M2589 5300 c-18 -39 -42 -78 -53 -86 -11 -8 -16 -14 -10 -14 6 0 18
8 26 18 21 23 81 143 75 149 -3 2 -20 -28 -38 -67z"/>
<path d="M3513 5215 c-55 -30 -183 -123 -183 -132 0 -10 18 0 42 22 15 14 32
25 38 25 5 0 10 3 10 8 0 4 36 29 80 56 69 41 89 56 78 56 -2 0 -31 -16 -65
-35z"/>
<path d="M1989 5191 c54 -50 178 -141 166 -121 -6 10 -139 115 -194 153 -14
10 -2 -4 28 -32z"/>
<path d="M7765 5193 c-11 -8 -101 -55 -200 -104 -99 -49 -178 -89 -175 -89 34
-1 410 187 410 206 0 8 -16 3 -35 -13z"/>
<path d="M5787 5153 c-4 -3 -7 -13 -7 -22 1 -13 3 -13 11 2 11 19 8 33 -4 20z"/>
<path d="M5750 5060 c-19 -46 -119 -212 -142 -237 -12 -13 -16 -23 -10 -23 24
0 185 271 169 286 -2 3 -10 -9 -17 -26z"/>
<path d="M3262 5036 c-54 -41 -81 -78 -81 -106 0 -8 6 -1 13 15 12 29 55 72
106 108 13 9 22 18 19 21 -2 2 -28 -15 -57 -38z"/>
<path d="M7974 4994 c-124 -76 -159 -96 -226 -130 -37 -19 -68 -36 -68 -38 0
-13 221 100 228 116 2 4 8 8 13 8 10 0 119 70 119 76 0 7 -6 4 -66 -32z"/>
<path d="M2250 5000 c34 -27 159 -99 250 -145 105 -52 75 -28 -48 39 -57 31
-126 72 -155 91 -55 37 -89 48 -47 15z"/>
<path d="M7053 4886 c-176 -57 -254 -88 -178 -71 42 10 356 115 375 125 29 18
-7 8 -197 -54z"/>
<path d="M3192 4900 c2 -8 19 -23 36 -33 35 -20 208 -70 224 -65 6 2 -20 12
-58 23 -98 26 -171 54 -191 73 -13 13 -15 13 -11 2z"/>
<path d="M6354 4828 l-19 -23 23 19 c12 11 22 21 22 23 0 8 -8 2 -26 -19z"/>
<path d="M2680 4769 c106 -50 319 -133 326 -126 2 2 -35 18 -84 37 -48 18
-119 48 -159 66 -80 38 -170 74 -181 74 -4 -1 40 -23 98 -51z"/>
<path d="M6810 4810 l-25 -8 28 -1 c15 -1 27 4 27 9 0 6 -1 10 -2 9 -2 -1 -14
-5 -28 -9z"/>
<path d="M7555 4774 c-44 -20 -131 -57 -192 -82 -62 -25 -111 -47 -109 -49 6
-7 237 84 321 126 100 50 87 53 -20 5z"/>
<path d="M6327 4793 c-12 -11 -7 -50 7 -62 8 -7 31 -14 53 -16 37 -5 37 -4 6
4 -46 12 -65 31 -60 58 5 25 4 27 -6 16z"/>
<path d="M6758 4793 c7 -3 16 -2 19 1 4 3 -2 6 -13 5 -11 0 -14 -3 -6 -6z"/>
<path d="M6678 4773 c7 -3 16 -2 19 1 4 3 -2 6 -13 5 -11 0 -14 -3 -6 -6z"/>
<path d="M5525 4735 c-63 -54 -171 -104 -264 -122 -100 -20 -92 -30 10 -13 89
15 210 75 264 129 48 50 44 52 -10 6z"/>
<path d="M6638 4763 c7 -3 16 -2 19 1 4 3 -2 6 -13 5 -11 0 -14 -3 -6 -6z"/>
<path d="M3680 4745 c30 -8 73 -16 95 -19 31 -4 27 -2 -15 9 -30 8 -73 16 -95
19 -31 4 -27 2 15 -9z"/>
<path d="M6598 4753 c7 -3 16 -2 19 1 4 3 -2 6 -13 5 -11 0 -14 -3 -6 -6z"/>
<path d="M6515 4740 l-20 -9 20 1 c11 0 31 4 45 8 l25 8 -25 0 c-14 0 -34 -3
-45 -8z"/>
<path d="M6455 4730 l-30 -8 33 -1 c17 0 32 4 32 9 0 6 -1 9 -2 9 -2 -1 -16
-5 -33 -9z"/>
<path d="M3821 4717 c6 -7 283 -57 314 -57 50 1 -18 18 -135 34 -69 10 -138
20 -155 23 -16 3 -28 3 -24 0z"/>
<path d="M4160 4662 c0 -8 158 -32 211 -32 44 0 11 10 -67 20 -43 6 -94 13
-111 16 -18 3 -33 1 -33 -4z"/>
<path d="M4400 4630 c0 -5 19 -10 43 -9 36 1 38 2 17 9 -36 12 -60 12 -60 0z"/>
<path d="M4495 4620 c3 -5 30 -10 58 -9 41 1 47 3 27 9 -37 12 -92 12 -85 0z"/>
<path d="M4624 4612 c3 -5 31 -9 63 -9 46 -1 52 0 28 7 -41 11 -97 12 -91 2z"/>
<path d="M4784 4602 c3 -5 58 -9 123 -9 106 -1 111 0 48 7 -99 11 -177 11
-171 2z"/>
<path d="M3245 4558 c122 -40 374 -103 382 -95 2 3 -38 15 -89 27 -51 12 -158
42 -238 66 -180 54 -217 56 -55 2z"/>
<path d="M6980 4564 c-63 -20 -180 -53 -260 -74 -174 -46 -171 -51 6 -11 108
25 197 51 384 111 20 7 21 8 5 8 -11 0 -72 -15 -135 -34z"/>
<path d="M3648 4453 c6 -2 18 -2 25 0 6 3 1 5 -13 5 -14 0 -19 -2 -12 -5z"/>
<path d="M3690 4446 c0 -2 9 -6 20 -9 11 -3 18 -1 14 4 -5 9 -34 13 -34 5z"/>
<path d="M6536 4441 c-4 -5 3 -7 14 -4 23 6 26 13 6 13 -8 0 -17 -4 -20 -9z"/>
<path d="M3748 4433 c7 -3 16 -2 19 1 4 3 -2 6 -13 5 -11 0 -14 -3 -6 -6z"/>
<path d="M6498 4433 c7 -3 16 -2 19 1 4 3 -2 6 -13 5 -11 0 -14 -3 -6 -6z"/>
<path d="M3798 4423 c7 -3 16 -2 19 1 4 3 -2 6 -13 5 -11 0 -14 -3 -6 -6z"/>
<path d="M6448 4423 c7 -3 16 -2 19 1 4 3 -2 6 -13 5 -11 0 -14 -3 -6 -6z"/>
<path d="M3838 4413 c7 -3 16 -2 19 1 4 3 -2 6 -13 5 -11 0 -14 -3 -6 -6z"/>
<path d="M6398 4413 c7 -3 16 -2 19 1 4 3 -2 6 -13 5 -11 0 -14 -3 -6 -6z"/>
<path d="M3888 4403 c6 -2 18 -2 25 0 6 3 1 5 -13 5 -14 0 -19 -2 -12 -5z"/>
<path d="M6348 4403 c7 -3 16 -2 19 1 4 3 -2 6 -13 5 -11 0 -14 -3 -6 -6z"/>
<path d="M3948 4393 c7 -3 16 -2 19 1 4 3 -2 6 -13 5 -11 0 -14 -3 -6 -6z"/>
<path d="M6288 4393 c6 -2 18 -2 25 0 6 3 1 5 -13 5 -14 0 -19 -2 -12 -5z"/>
<path d="M4001 4386 c2 -2 24 -6 49 -10 31 -4 40 -3 30 4 -13 9 -89 15 -79 6z"/>
<path d="M6185 4380 c-13 -6 -5 -7 25 -3 25 3 47 7 49 9 9 8 -55 2 -74 -6z"/>
<path d="M4115 4371 c32 -13 122 -24 110 -13 -5 5 -37 12 -70 16 -36 3 -52 2
-40 -3z"/>
<path d="M6105 4370 c-8 -13 15 -13 35 0 12 8 11 10 -7 10 -12 0 -25 -4 -28
-10z"/>
<path d="M5993 4363 c-24 -2 -43 -8 -43 -14 0 -11 107 -1 130 12 16 9 -4 9
-87 2z"/>
<path d="M4255 4352 c33 -15 145 -24 145 -12 0 5 -12 10 -27 10 -16 0 -53 2
-83 5 -36 4 -48 2 -35 -3z"/>
<path d="M5860 4340 c0 -12 24 -12 60 0 21 7 19 8 -17 9 -24 1 -43 -3 -43 -9z"/>
<path d="M4425 4330 c28 -12 65 -12 65 0 0 6 -19 10 -42 9 -33 0 -38 -2 -23
-9z"/>
<path d="M5765 4330 c-8 -12 42 -12 70 0 16 7 11 9 -22 9 -23 1 -45 -3 -48 -9z"/>
<path d="M4525 4320 c45 -11 85 -11 85 0 0 6 -25 9 -57 9 -48 -1 -53 -3 -28
-9z"/>
<path d="M5640 4320 c0 -12 54 -12 90 0 19 6 11 8 -32 9 -33 1 -58 -3 -58 -9z"/>
<path d="M4655 4310 c45 -11 115 -11 115 0 0 6 -30 10 -72 9 -55 -1 -66 -3
-43 -9z"/>
<path d="M5490 4310 c0 -12 74 -12 110 0 18 6 7 8 -42 9 -39 1 -68 -3 -68 -9z"/>
<path d="M4850 4299 c25 -4 151 -8 280 -8 129 0 255 4 280 8 27 5 -86 8 -280
8 -194 0 -307 -3 -280 -8z"/>
<path d="M340 3550 c0 -6 57 -10 160 -10 l160 0 0 -260 0 -260 308 2 307 3 3
258 2 257 155 0 155 0 3 -687 2 -688 3 698 2 697 -165 0 -165 0 0 -265 0 -265
-295 0 -295 0 -2 263 -3 262 -167 3 c-110 2 -168 -1 -168 -8z"/>
<path d="M1730 3555 c0 -5 79 -135 154 -253 15 -24 30 -41 33 -38 3 3 -10 29
-29 58 -20 29 -58 90 -87 136 l-51 82 184 0 185 0 55 -92 c31 -51 67 -106 82
-123 32 -36 27 -27 -70 128 l-68 107 -194 0 c-107 0 -194 -2 -194 -5z"/>
<path d="M2802 3548 c-8 -10 30 -12 189 -10 118 2 199 7 199 12 0 16 -375 13
-388 -2z"/>
<path d="M3327 3553 c-12 -11 -8 -1371 3 -1378 7 -4 10 225 10 679 l0 686 150
0 150 0 0 -535 c0 -294 3 -536 8 -537 4 0 124 -2 267 -4 268 -2 317 3 335 36
17 31 11 34 -11 6 l-20 -26 -280 0 -279 0 0 540 0 540 -163 0 c-90 0 -167 -3
-170 -7z"/>
<path d="M4250 3550 c0 -8 51 -10 160 -8 l160 3 -2 -590 -3 -591 -25 -49 c-30
-58 -101 -112 -161 -121 -22 -4 -39 -11 -39 -16 0 -13 56 0 100 22 20 10 55
39 77 63 74 80 74 75 71 722 l-3 570 -167 3 c-115 2 -168 -1 -168 -8z"/>
<path d="M4887 3553 c-12 -11 -8 -1383 3 -1383 7 0 10 235 10 685 l0 685 519
0 c365 0 528 -3 552 -12 52 -17 89 -47 120 -96 16 -25 29 -39 29 -31 0 22 -44
78 -83 104 -77 53 -101 55 -642 55 -276 0 -505 -3 -508 -7z"/>
<path d="M6450 3550 c0 -7 167 -10 523 -10 287 0 533 -3 547 -6 24 -5 24 -5 5
8 -26 17 -1075 25 -1075 8z"/>
<path d="M8205 3553 c-11 -3 -23 -8 -27 -11 -4 -4 233 -6 527 -4 l535 3 3
-688 2 -688 3 698 2 697 -512 -1 c-282 -1 -522 -3 -533 -6z"/>
<path d="M9567 3553 c-12 -11 -8 -1371 3 -1378 7 -4 10 225 10 679 l0 686 160
0 c100 0 160 4 160 10 0 11 -322 14 -333 3z"/>
<path d="M8140 3530 c-9 -6 -10 -10 -3 -10 6 0 15 5 18 10 8 12 4 12 -15 0z"/>
<path d="M3152 3503 c-64 -93 -216 -347 -177 -298 19 25 44 63 119 185 33 52
66 105 74 118 21 32 7 27 -16 -5z"/>
<path d="M8082 3494 c-39 -31 -82 -102 -81 -135 0 -18 4 -14 16 18 8 23 35 65
60 93 25 27 43 50 41 50 -1 0 -18 -12 -36 -26z"/>
<path d="M2725 3433 c-27 -42 -56 -88 -63 -102 -7 -14 -24 -40 -38 -58 -13
-17 -24 -34 -24 -37 0 -3 -31 -54 -69 -112 l-69 -107 -57 89 c-64 99 -86 127
-60 74 31 -60 107 -170 119 -170 6 0 33 37 60 83 28 45 86 138 131 207 104
161 128 200 124 205 -3 2 -27 -31 -54 -72z"/>
<path d="M7626 3468 c21 -25 41 -44 44 -42 2 3 -16 24 -40 47 l-43 42 39 -47z"/>
<path d="M7678 3365 c2 -14 8 -28 13 -31 10 -6 11 2 3 34 -9 30 -22 28 -16 -3z"/>
<path d="M6132 3330 c0 -14 2 -19 5 -12 2 6 2 18 0 25 -3 6 -5 1 -5 -13z"/>
<path d="M7995 2750 c0 -322 1 -453 2 -292 2 160 2 424 0 585 -1 160 -2 29 -2
-293z"/>
<path d="M7689 2840 c-2 -267 -7 -494 -12 -505 -4 -11 1 -4 10 15 16 31 18 79
21 471 2 256 -1 450 -6 470 -7 23 -11 -121 -13 -451z"/>
<path d="M2289 3275 c5 -11 17 -29 26 -40 l16 -20 -10 20 c-5 11 -17 29 -26
40 l-16 20 10 -20z"/>
<path d="M5210 3260 c0 -7 91 -10 278 -10 241 0 281 -2 302 -16 l25 -17 -23
24 -23 24 -279 3 c-190 2 -280 0 -280 -8z"/>
<path d="M6770 2871 c0 -310 3 -400 13 -404 6 -2 135 -4 285 -3 l274 1 19 24
c18 22 19 44 19 373 0 209 -4 357 -10 368 -18 34 -65 40 -336 40 l-264 0 0
-399z m576 365 c18 -14 19 -30 19 -369 0 -285 -3 -357 -14 -370 -12 -15 -45
-17 -292 -17 l-279 0 0 385 0 385 273 0 c220 0 277 -3 293 -14z"/>
<path d="M8339 3241 l-29 -29 2 -154 2 -153 5 158 c5 142 8 160 25 173 16 11
73 14 293 14 l273 0 0 -175 0 -175 -297 -3 -298 -2 305 0 305 0 0 185 0 185
-278 3 -278 2 -30 -29z"/>
<path d="M1941 3215 c0 -5 11 -23 25 -40 14 -16 21 -21 16 -10 -16 30 -41 61
-41 50z"/>
<path d="M5815 2690 c0 -289 1 -407 2 -262 2 144 2 380 0 525 -1 144 -2 26 -2
-263z"/>
<path d="M2935 3154 c-9 -15 -12 -23 -6 -20 11 7 35 46 28 46 -3 0 -12 -12
-22 -26z"/>
<path d="M2011 3103 c39 -67 121 -193 126 -193 7 0 -30 66 -84 148 -55 84 -83
112 -42 45z"/>
<path d="M2857 3038 c-29 -46 -66 -105 -82 -133 -16 -27 -57 -94 -92 -148 -65
-100 -74 -118 -48 -97 8 7 15 18 15 25 0 8 4 15 9 17 4 2 19 22 32 45 13 23
67 111 120 195 114 182 112 178 104 178 -3 0 -29 -37 -58 -82z"/>
<path d="M2183 2830 c24 -41 58 -98 75 -126 l32 -51 0 -236 c0 -146 4 -238 10
-242 7 -4 10 76 10 234 l0 239 -71 114 c-83 132 -121 177 -56 68z"/>
<path d="M660 2449 c0 -184 3 -278 10 -274 6 4 10 108 10 281 0 176 -4 274
-10 274 -6 0 -10 -100 -10 -281z"/>
<path d="M1274 2450 c0 -157 2 -221 3 -142 2 78 2 206 0 285 -1 78 -3 14 -3
-143z"/>
<path d="M8325 2600 c4 -6 113 -10 296 -10 l289 0 0 -204 c0 -126 4 -207 10
-211 7 -4 10 70 10 214 l0 221 -306 0 c-201 0 -303 -3 -299 -10z"/>
<path d="M8311 2574 c0 -11 3 -14 6 -6 3 7 2 16 -1 19 -3 4 -6 -2 -5 -13z"/>
<path d="M8312 2525 c0 -16 2 -22 5 -12 2 9 2 23 0 30 -3 6 -5 -1 -5 -18z"/>
<path d="M8312 2465 c0 -16 2 -22 5 -12 2 9 2 23 0 30 -3 6 -5 -1 -5 -18z"/>
<path d="M8312 2405 c0 -16 2 -22 5 -12 2 9 2 23 0 30 -3 6 -5 -1 -5 -18z"/>
<path d="M8312 2345 c0 -16 2 -22 5 -12 2 9 2 23 0 30 -3 6 -5 -1 -5 -18z"/>
<path d="M8312 2285 c0 -16 2 -22 5 -12 2 9 2 23 0 30 -3 6 -5 -1 -5 -18z"/>
<path d="M7630 2265 c-29 -31 -116 -75 -147 -75 -13 0 -23 -5 -23 -11 0 -14
53 -3 100 21 31 16 112 90 99 90 -3 0 -16 -11 -29 -25z"/>
<path d="M8312 2225 c0 -16 2 -22 5 -12 2 9 2 23 0 30 -3 6 -5 -1 -5 -18z"/>
</g>
</svg>
