<?xml version="1.0" standalone="no"?>
<!DOCTYPE svg PUBLIC "-//W3C//DTD SVG 20010904//EN"
 "http://www.w3.org/TR/2001/REC-SVG-20010904/DTD/svg10.dtd">
<svg version="1.0" xmlns="http://www.w3.org/2000/svg"
 width="315.000000pt" height="315.000000pt" viewBox="0 0 315.000000 315.000000"
 preserveAspectRatio="xMidYMid meet">
<metadata>
Created by potrace 1.16, written by Peter Selinger 2001-2019
</metadata>
<g transform="translate(0.000000,315.000000) scale(0.100000,-0.100000)"
fill="#000000" stroke="none">
<path d="M1301 2540 c-204 -20 -455 -76 -645 -144 -55 -20 -101 -36 -103 -36
-1 0 9 -24 24 -54 l27 -55 35 16 c120 51 364 120 506 142 417 65 866 22 1230
-118 44 -17 86 -31 93 -31 16 0 57 89 45 100 -16 16 -261 92 -388 121 -71 17
-177 37 -235 45 -129 18 -462 26 -589 14z"/>
<path d="M1216 2350 c-203 -25 -566 -130 -566 -164 0 -21 108 -114 175 -151
34 -19 65 -35 68 -35 3 0 8 13 12 29 16 74 94 106 254 106 l104 0 18 -95 c10
-52 48 -261 84 -465 36 -203 88 -494 115 -645 28 -151 50 -284 50 -294 0 -33
12 -10 21 41 10 51 138 770 194 1088 19 105 41 228 49 275 9 47 16 89 16 94 0
5 53 7 119 4 148 -6 204 -28 237 -95 l21 -42 49 26 c79 41 194 137 194 161 0
13 -186 81 -307 111 -109 27 -182 40 -320 56 l-51 5 -44 -51 c-42 -50 -84
-101 -141 -168 l-28 -33 -39 45 c-22 25 -68 81 -103 124 -69 86 -68 86 -181
73z"/>
</g>
</svg>
