<?xml version="1.0" standalone="no"?>
<!DOCTYPE svg PUBLIC "-//W3C//DTD SVG 20010904//EN"
 "http://www.w3.org/TR/2001/REC-SVG-20010904/DTD/svg10.dtd">
<svg version="1.0" xmlns="http://www.w3.org/2000/svg"
 width="1024.000000pt" height="1024.000000pt" viewBox="0 0 1024.000000 1024.000000"
 preserveAspectRatio="xMidYMid meet">
<metadata>
Created by potrace 1.16, written by Peter Selinger 2001-2019
</metadata>
<g transform="translate(0.000000,1024.000000) scale(0.100000,-0.100000)"
fill="#000000" stroke="none">
<path d="M1470 6880 c-192 -16 -330 -79 -455 -204 -146 -147 -190 -266 -205
-551 -12 -235 -12 -1789 0 -2015 15 -279 60 -400 205 -546 66 -67 96 -89 175
-127 172 -84 109 -80 1290 -84 1099 -5 1240 -1 1366 38 272 83 450 301 484
594 14 124 14 2161 -1 2275 -22 176 -85 309 -204 426 -122 119 -261 177 -464
194 -133 11 -2061 11 -2191 0z m2045 -124 c291 -8 388 -40 521 -171 126 -125
160 -219 174 -490 12 -226 12 -1616 1 -1905 -13 -300 -41 -394 -156 -518 -106
-115 -214 -164 -403 -184 -165 -17 -1989 -17 -2154 0 -223 23 -359 98 -463
254 -61 93 -84 176 -94 345 -26 415 -19 2013 9 2182 41 240 195 408 430 467
48 13 133 18 325 23 291 7 1517 5 1810 -3z"/>
<path d="M2150 6023 c-92 -16 -198 -50 -280 -91 -80 -39 -109 -60 -186 -137
-138 -137 -197 -267 -196 -434 0 -193 85 -363 245 -491 31 -25 56 -51 57 -59
0 -8 -20 -72 -45 -143 l-45 -129 141 96 c86 59 147 94 157 91 54 -17 158 -35
231 -41 l84 -7 -7 33 c-29 134 -25 226 14 336 85 241 374 423 672 423 l70 0
-7 33 c-4 17 -25 69 -46 115 -92 193 -305 346 -551 396 -71 15 -246 20 -308 9z
m-96 -328 c18 -9 40 -28 49 -44 59 -100 -54 -213 -154 -154 -63 38 -74 126
-21 175 44 41 75 47 126 23z m572 -16 c33 -31 47 -79 34 -115 -17 -43 -49 -73
-87 -80 -93 -18 -162 80 -117 167 30 59 121 74 170 28z"/>
<path d="M2824 5406 c-256 -58 -454 -254 -487 -480 -37 -259 151 -512 443
-596 104 -30 271 -37 370 -16 41 9 84 16 95 16 12 0 72 -23 134 -50 63 -28
116 -49 118 -47 2 2 -17 40 -42 84 -25 45 -45 83 -45 87 0 3 37 42 83 88 45
46 95 106 110 134 103 196 64 438 -99 599 -72 72 -147 118 -257 158 -74 27
-96 30 -222 33 -94 2 -160 -1 -201 -10z m37 -302 c35 -37 31 -89 -9 -125 -41
-37 -73 -37 -114 0 -25 22 -32 37 -32 64 0 84 98 122 155 61z m404 22 c18 -8
38 -23 44 -34 43 -80 -39 -168 -118 -128 -69 36 -68 125 3 160 38 19 30 19 71
2z"/>
<path d="M6510 6880 c-285 -38 -515 -239 -585 -510 -30 -116 -35 -283 -35
-1255 0 -965 5 -1128 35 -1246 61 -237 243 -419 490 -491 l80 -23 1170 0 1170
0 80 23 c259 75 422 241 497 508 l23 79 0 1145 c0 1082 -1 1149 -19 1225 -61
265 -232 446 -496 527 l-75 22 -1140 2 c-627 1 -1165 -2 -1195 -6z m1960 -130
c282 -6 367 -12 415 -25 191 -53 340 -206 390 -400 32 -122 45 -1153 25 -1985
-9 -404 -17 -454 -83 -570 -64 -113 -195 -215 -327 -254 -92 -28 -363 -36
-1215 -35 -912 0 -1133 7 -1240 39 -141 44 -259 138 -323 258 -62 116 -72 181
-82 542 -12 420 -12 1165 0 1590 11 372 20 436 82 552 47 88 139 176 229 220
97 47 157 60 319 68 195 10 1393 10 1810 0z"/>
<path d="M7290 6028 c-332 -28 -612 -237 -694 -517 -20 -69 -21 -227 -1 -301
33 -126 118 -252 228 -340 31 -25 56 -51 57 -59 0 -8 -20 -72 -45 -142 -24
-71 -43 -129 -41 -129 2 0 63 41 136 90 73 50 142 90 154 90 11 -1 48 -7 81
-15 33 -8 102 -18 154 -21 89 -7 93 -6 88 12 -43 141 -32 276 36 413 39 82
155 200 247 254 110 64 274 106 412 107 l57 0 -15 53 c-23 76 -82 180 -137
243 -99 110 -272 208 -430 243 -111 24 -175 29 -287 19z m-134 -339 c27 -14
54 -60 54 -94 0 -41 -26 -81 -66 -100 -73 -34 -154 17 -154 97 0 90 82 137
166 97z m552 -5 c36 -24 55 -78 42 -118 -17 -52 -54 -81 -105 -81 -51 0 -88
29 -106 82 -9 27 -7 40 8 71 32 66 100 85 161 46z"/>
<path d="M7985 5419 c-105 -15 -218 -56 -296 -107 -314 -206 -357 -565 -99
-823 79 -79 208 -147 327 -173 92 -21 246 -20 349 0 l81 16 126 -55 c70 -31
127 -54 127 -53 0 2 -22 43 -49 92 l-50 88 83 80 c178 174 220 380 122 591
-112 240 -420 387 -721 344z m-39 -313 c21 -18 28 -32 28 -60 0 -79 -93 -118
-149 -61 -79 78 37 194 121 121z m439 -1 c80 -79 -40 -199 -122 -122 -32 29
-31 90 2 122 33 34 87 34 120 0z"/>
</g>
</svg>
