<?xml version="1.0" standalone="no"?>
<!DOCTYPE svg PUBLIC "-//W3C//DTD SVG 20010904//EN"
 "http://www.w3.org/TR/2001/REC-SVG-20010904/DTD/svg10.dtd">
<svg version="1.0" xmlns="http://www.w3.org/2000/svg"
 width="240.000000pt" height="240.000000pt" viewBox="0 0 240.000000 240.000000"
 preserveAspectRatio="xMidYMid meet">
<metadata>
Created by potrace 1.16, written by Peter Selinger 2001-2019
</metadata>
<g transform="translate(0.000000,240.000000) scale(0.100000,-0.100000)"
fill="#000000" stroke="none">
<path d="M1260 1578 c0 -466 -4 -828 -10 -862 -12 -76 -42 -135 -93 -186 -138
-138 -355 -137 -484 3 -66 72 -86 119 -91 218 -5 93 9 141 64 221 62 88 212
151 315 131 37 -8 52 -7 55 1 2 6 3 99 2 206 l-3 195 -125 -1 c-109 0 -135 -4
-205 -28 -116 -39 -209 -98 -295 -185 -155 -158 -230 -354 -217 -566 18 -281
166 -502 422 -629 115 -57 190 -76 303 -76 317 0 594 180 707 459 51 123 55
177 55 656 0 316 3 445 11 445 6 0 24 -9 40 -21 95 -67 292 -134 434 -146 l75
-6 0 201 0 201 -37 6 c-90 15 -142 30 -198 58 -117 58 -211 149 -264 255 -25
50 -61 181 -61 224 l0 28 -200 0 -200 0 0 -802z"/>
</g>
</svg>
