<?xml version="1.0" standalone="no"?>
<!DOCTYPE svg PUBLIC "-//W3C//DTD SVG 20010904//EN"
 "http://www.w3.org/TR/2001/REC-SVG-20010904/DTD/svg10.dtd">
<svg version="1.0" xmlns="http://www.w3.org/2000/svg"
 width="735.000000pt" height="735.000000pt" viewBox="0 0 735.000000 735.000000"
 preserveAspectRatio="xMidYMid meet">
<metadata>
Created by potrace 1.16, written by Peter Selinger 2001-2019
</metadata>
<g transform="translate(0.000000,735.000000) scale(0.100000,-0.100000)"
fill="#000000" stroke="none">
<path d="M3565 6008 c-510 -34 -994 -321 -1277 -758 -112 -171 -189 -356 -234
-561 -26 -114 -28 -141 -28 -344 -1 -191 2 -235 22 -332 68 -338 220 -623 462
-863 243 -243 525 -394 864 -463 150 -30 468 -32 621 -3 691 128 1226 666
1351 1360 35 192 28 452 -16 659 -123 568 -556 1045 -1113 1226 -214 69 -420
94 -652 79z m410 -593 c308 -81 572 -296 714 -581 142 -286 157 -609 39 -909
-134 -343 -441 -603 -808 -682 -129 -27 -354 -25 -480 6 -270 67 -501 223
-659 445 -65 91 -137 249 -168 367 -25 95 -27 119 -27 279 1 156 4 186 27 275
50 188 171 394 311 528 161 153 383 262 602 297 32 5 124 7 204 5 116 -3 165
-9 245 -30z"/>
<path d="M3625 4920 c-226 -24 -432 -204 -490 -426 -17 -66 -20 -217 -4 -284
21 -94 78 -191 158 -271 124 -124 256 -175 430 -167 115 6 199 32 289 90 209
135 305 386 242 632 -70 275 -337 457 -625 426z"/>
<path d="M4005 2485 c-184 -34 -301 -122 -381 -289 -50 -103 -68 -199 -61
-320 10 -186 59 -308 166 -416 147 -149 333 -178 530 -83 l74 35 20 -26 c18
-25 23 -26 108 -26 l89 0 0 305 0 305 -235 0 -235 0 0 -105 0 -104 108 -3 107
-3 3 -35 c1 -22 -6 -50 -21 -75 -62 -108 -225 -135 -336 -54 -99 71 -154 241
-131 397 29 187 130 296 275 297 105 0 166 -42 210 -147 l15 -38 119 0 119 0
-10 42 c-29 132 -138 264 -261 318 -39 17 -152 41 -187 39 -8 0 -46 -7 -85
-14z"/>
<path d="M1020 2340 l0 -110 150 0 150 0 0 -435 0 -435 135 0 135 0 0 435 0
435 145 0 145 0 0 110 0 110 -430 0 -430 0 0 -110z"/>
<path d="M2006 2442 c-10 -16 -346 -1056 -346 -1071 0 -8 41 -11 133 -11 l133
0 35 108 35 107 161 3 160 2 16 -42 c9 -24 26 -73 39 -110 l23 -68 137 0 137
0 -35 103 c-42 120 -322 919 -336 960 l-10 27 -138 0 c-77 0 -141 -4 -144 -8z
m197 -525 l45 -127 -89 0 c-49 0 -89 3 -89 7 0 14 82 254 86 251 1 -2 23 -61
47 -131z"/>
<path d="M2680 1905 l0 -545 130 0 130 0 0 200 0 200 126 0 c125 0 126 0 155
-29 l29 -29 0 -139 c0 -131 1 -140 24 -168 l24 -30 126 -3 c69 -2 126 0 126 4
0 4 -10 18 -22 32 -21 22 -23 35 -28 185 -6 184 -17 220 -80 266 l-37 27 49
47 c90 86 118 198 79 325 -29 97 -83 153 -176 181 -61 19 -92 21 -361 21
l-294 0 0 -545z m573 297 c32 -30 40 -74 23 -117 -23 -55 -62 -68 -208 -73
l-128 -4 0 112 0 111 144 -3 c135 -3 146 -5 169 -26z"/>
<path d="M4640 1905 l0 -545 390 0 391 0 -3 113 -3 112 -257 3 -258 2 0 120 0
120 222 2 222 3 -1 80 c-1 44 -2 90 -3 103 l0 22 -225 0 -226 0 3 93 3 92 263
3 262 2 0 110 0 110 -390 0 -390 0 0 -545z"/>
<path d="M5457 2443 c-2 -5 -3 -42 -1 -83 1 -41 3 -87 3 -102 l1 -27 153 -3
152 -3 3 -432 2 -433 130 0 130 0 0 435 0 435 155 0 155 0 0 110 0 110 -439 0
c-242 0 -442 -3 -444 -7z"/>
<path d="M6101 1474 c-27 -34 -27 -64 -1 -92 26 -28 80 -29 103 -4 24 26 21
77 -5 102 -31 28 -72 26 -97 -6z m97 -12 c29 -37 0 -92 -48 -92 -33 0 -52 21
-52 57 0 54 66 77 100 35z"/>
<path d="M6120 1431 c0 -23 5 -41 10 -41 6 0 10 7 10 17 0 15 1 15 19 -1 17
-16 18 -15 17 21 -1 34 -4 38 -28 41 -27 3 -28 1 -28 -37z m42 14 c0 -5 -5
-11 -11 -13 -6 -2 -11 4 -11 13 0 9 5 15 11 13 6 -2 11 -8 11 -13z"/>
</g>
</svg>
