<?xml version="1.0" standalone="no"?>
<!DOCTYPE svg PUBLIC "-//W3C//DTD SVG 20010904//EN"
 "http://www.w3.org/TR/2001/REC-SVG-20010904/DTD/svg10.dtd">
<svg version="1.0" xmlns="http://www.w3.org/2000/svg"
 width="1024.000000pt" height="1024.000000pt" viewBox="0 0 1024.000000 1024.000000"
 preserveAspectRatio="xMidYMid meet">
<metadata>
Created by potrace 1.16, written by Peter Selinger 2001-2019
</metadata>
<g transform="translate(0.000000,1024.000000) scale(0.100000,-0.100000)"
fill="#000000" stroke="none">
<path d="M1 8088 c0 -1882 2 -2139 15 -2113 8 17 93 212 188 435 l174 405 335
3 334 2 106 -242 106 -243 1 243 0 242 414 0 414 0 32 -87 c17 -49 45 -128 63
-176 17 -49 33 -85 34 -80 2 4 29 82 61 173 l58 165 1852 3 1851 2 3 -84 3
-85 68 44 c82 53 205 99 307 114 53 9 261 11 703 9 l628 -3 104 -240 105 -240
0 243 0 242 348 0 347 0 90 -137 90 -136 3 136 3 137 349 0 350 0 0 -805 0
-805 -352 0 -353 1 -85 135 -85 134 -3 -135 -3 -135 -508 0 -508 0 -49 125
-49 125 -136 0 -136 0 -49 -125 -49 -125 -381 0 c-348 0 -388 2 -460 20 -92
23 -182 65 -247 115 l-47 36 0 -86 0 -85 -522 1 -523 0 -95 119 -95 119 -3
-119 -3 -120 -1928 0 -1928 0 -49 125 -49 125 -135 0 -135 0 -49 -125 -49
-125 -239 0 -238 0 0 -2595 0 -2595 5105 0 5105 0 0 1595 c0 877 -2 1595 -5
1595 -3 0 -16 -7 -29 -15 -12 -8 -61 -30 -107 -48 l-84 -32 -1767 -3 -1767 -2
-98 121 -98 121 -3 -121 -3 -121 -339 0 -340 0 0 210 c0 116 -1 210 -2 210 -2
0 -32 -10 -68 -22 -54 -18 -96 -22 -252 -26 l-188 -4 0 -184 0 -184 -513 0
-513 0 -79 107 c-44 59 -84 113 -90 120 -8 10 -32 -16 -100 -107 l-90 -120
-847 0 -848 0 0 805 0 805 853 0 852 -1 85 -114 c47 -63 88 -114 92 -115 3 0
47 52 98 115 l91 115 3079 0 3080 0 0 2755 0 2755 -5105 0 -5105 0 1 -2142z"/>
<path d="M270 6032 c-139 -323 -255 -592 -257 -599 -4 -10 31 -13 158 -13
l164 0 46 118 47 117 283 0 283 0 45 -117 46 -118 168 0 c93 0 166 3 164 8 -2
4 -118 274 -257 600 l-254 593 -192 -1 -192 -2 -252 -586z m525 107 c44 -111
81 -205 83 -210 2 -5 -72 -9 -168 -9 -160 0 -172 1 -166 18 26 72 162 402 166
402 3 0 41 -91 85 -201z"/>
<path d="M1470 6018 l0 -598 145 0 145 0 2 443 3 442 160 -443 159 -443 129 3
129 3 155 430 c85 237 158 434 164 439 5 6 9 -157 9 -432 l0 -442 145 0 145 0
0 600 0 601 -234 -1 -235 -1 -14 -42 c-59 -172 -251 -723 -254 -726 -8 -10
-22 27 -149 380 -74 205 -135 373 -136 374 -2 2 -108 5 -235 7 l-233 4 0 -598z"/>
<path d="M3170 6020 l0 -600 485 0 485 0 0 130 0 130 -335 0 -335 0 0 110 0
110 330 0 330 0 0 120 0 120 -330 0 -331 0 3 108 3 107 333 0 332 0 0 133 0
132 -485 0 -485 0 0 -600z"/>
<path d="M4329 6616 c-2 -2 -3 -272 -1 -600 l2 -596 145 0 145 0 0 215 0 215
64 0 64 0 182 -215 181 -215 175 0 c96 0 174 2 174 5 0 3 -85 101 -190 218
-104 116 -190 215 -190 219 0 5 12 8 28 8 43 0 143 53 191 101 24 24 56 69 70
99 23 49 26 67 26 165 0 100 -2 115 -28 167 -36 74 -119 150 -194 178 -32 12
-94 26 -138 31 -78 9 -697 13 -706 5z m718 -287 c90 -56 80 -174 -20 -219 -36
-17 -66 -20 -224 -20 l-183 0 0 130 0 130 196 0 c182 0 199 -2 231 -21z"/>
<path d="M5540 6020 l0 -600 145 0 145 0 0 600 0 600 -145 0 -145 0 0 -600z"/>
<path d="M6499 6610 c-156 -15 -293 -78 -374 -173 -84 -98 -135 -258 -135
-422 0 -359 209 -594 528 -595 l43 0 59 123 c33 67 60 125 60 128 0 4 -42 8
-92 11 -74 4 -104 10 -144 31 -107 54 -158 153 -157 302 1 107 29 182 93 246
70 70 111 79 342 79 l188 0 0 140 0 140 -167 -1 c-93 -1 -202 -5 -244 -9z"/>
<path d="M6972 6037 c-138 -320 -254 -590 -257 -599 -7 -17 5 -18 156 -18
l164 0 46 118 47 117 282 0 282 0 47 -117 46 -118 168 0 167 0 -15 38 c-88
211 -491 1140 -498 1150 -8 10 -56 12 -198 12 l-187 -2 -250 -581z m523 102
c44 -111 82 -205 83 -210 2 -5 -72 -9 -168 -9 -160 0 -172 1 -166 18 29 81
162 402 166 402 3 0 41 -91 85 -201z"/>
<path d="M8167 6614 c-4 -4 -7 -274 -7 -601 l0 -593 150 0 150 0 2 387 3 387
249 -387 250 -387 183 0 183 0 -2 598 -3 597 -145 0 -145 0 -5 -375 -5 -374
-243 376 -243 376 -183 2 c-100 0 -185 -2 -189 -6z"/>
<path d="M2190 3915 l0 -595 485 0 485 0 0 125 0 125 -335 0 -336 0 3 113 3
112 328 3 327 2 0 120 0 120 -330 0 -330 0 0 105 0 105 335 0 335 0 0 130 0
130 -485 0 -485 0 0 -595z"/>
<path d="M3217 4498 c5 -7 112 -140 236 -296 125 -155 227 -286 227 -291 0 -5
-103 -138 -230 -296 -126 -157 -230 -288 -230 -290 0 -3 80 -5 178 -5 l177 0
139 185 c76 102 141 183 145 180 3 -4 67 -86 141 -183 l135 -177 183 -3 c100
-1 182 0 182 3 0 3 -104 136 -231 295 -148 187 -229 296 -225 306 3 8 107 140
231 294 124 153 225 281 225 284 0 4 -78 6 -173 6 l-174 0 -143 -185 c-78
-101 -146 -183 -149 -180 -4 2 -69 85 -146 184 l-140 181 -184 0 c-145 0 -181
-3 -174 -12z"/>
<path d="M4550 3915 l0 -595 150 0 150 0 2 188 3 187 220 6 c184 5 230 9 282
26 128 42 213 116 255 222 32 82 32 242 0 323 -44 109 -153 200 -273 227 -25
6 -202 11 -416 11 l-373 0 0 -595z m720 315 c22 -11 46 -33 55 -50 21 -41 19
-108 -5 -147 -35 -58 -57 -63 -275 -63 l-195 0 0 133 c0 74 3 137 7 140 3 4
89 7 190 7 164 0 188 -2 223 -20z"/>
<path d="M5780 3915 l0 -595 145 0 145 0 0 215 0 216 67 -3 67 -3 180 -212
180 -213 179 0 180 0 -39 43 c-155 169 -345 387 -343 394 2 4 26 14 53 21 107
27 197 107 238 211 33 85 31 216 -5 294 -49 107 -124 173 -235 207 -59 18 -94
20 -438 20 l-374 0 0 -595z m710 320 c72 -37 92 -127 43 -186 -45 -53 -72 -59
-278 -59 l-185 0 0 130 0 130 195 0 c154 0 202 -3 225 -15z"/>
<path d="M6990 3915 l0 -595 485 0 485 0 0 125 0 125 -335 0 -335 0 0 115 0
115 329 0 330 0 0 120 0 120 -330 0 -329 0 0 105 0 105 335 0 335 0 0 130 0
130 -485 0 -485 0 0 -595z"/>
<path d="M8400 4503 c-14 -2 -52 -13 -85 -25 -161 -56 -239 -168 -239 -343 0
-145 53 -245 162 -303 76 -41 153 -51 371 -52 l163 0 34 -34 c36 -36 42 -67
22 -111 -26 -57 -43 -60 -395 -63 l-323 -3 0 -125 0 -125 373 3 c358 3 374 4
428 26 143 57 219 180 219 353 0 98 -23 168 -73 225 -81 92 -163 114 -423 114
-206 0 -231 6 -260 61 -20 40 -12 88 22 120 l26 24 287 3 287 3 57 123 c31 68
57 126 57 130 0 6 -667 6 -710 -1z"/>
<path d="M9468 4494 c-210 -50 -313 -201 -287 -418 15 -124 91 -222 205 -266
53 -20 82 -23 274 -28 l215 -5 32 -32 c35 -35 41 -66 21 -110 -26 -57 -43 -60
-395 -63 l-323 -3 0 -125 0 -125 373 3 c364 3 373 4 431 27 112 45 185 135
212 262 27 127 -3 251 -77 326 -82 84 -160 103 -415 103 -209 0 -230 5 -258
65 -21 44 -14 84 20 116 26 24 26 24 313 27 l288 3 61 129 61 130 -347 -1
c-259 0 -361 -4 -404 -15z"/>
</g>
</svg>
