<?xml version="1.0" standalone="no"?>
<!DOCTYPE svg PUBLIC "-//W3C//DTD SVG 20010904//EN"
 "http://www.w3.org/TR/2001/REC-SVG-20010904/DTD/svg10.dtd">
<svg version="1.0" xmlns="http://www.w3.org/2000/svg"
 width="1024.000000pt" height="1024.000000pt" viewBox="0 0 1024.000000 1024.000000"
 preserveAspectRatio="xMidYMid meet">
<metadata>
Created by potrace 1.16, written by Peter Selinger 2001-2019
</metadata>
<g transform="translate(0.000000,1024.000000) scale(0.100000,-0.100000)"
fill="#000000" stroke="none">
<path d="M0 5120 l0 -2110 5120 0 5120 0 0 2110 0 2110 -5120 0 -5120 0 0
-2110z m2275 1290 c130 -11 287 -39 381 -68 57 -18 59 -19 58 -53 0 -36 -8
-97 -24 -179 -5 -27 -12 -71 -16 -97 -3 -26 -10 -66 -15 -88 -17 -77 -14 -78
54 -31 138 97 286 159 470 197 131 27 391 30 507 5 96 -21 192 -52 255 -84 75
-37 183 -120 225 -173 l37 -47 54 55 c109 111 247 185 439 235 105 27 130 30
280 30 145 1 178 -3 273 -26 59 -14 116 -30 127 -36 15 -8 20 -5 29 20 l10 30
710 0 c391 0 711 -1 711 -2 0 -2 -11 -39 -25 -83 -14 -44 -25 -81 -25 -82 0
-1 37 18 83 42 104 55 187 86 307 115 78 19 124 23 255 23 164 0 240 -10 408
-55 88 -24 84 -15 63 -140 -7 -43 -11 -78 -9 -78 2 0 30 20 62 44 228 167 553
253 866 227 247 -21 429 -96 570 -236 117 -116 175 -254 175 -413 0 -183 -60
-342 -187 -499 -36 -45 -40 -53 -27 -64 53 -44 62 -149 19 -213 -29 -43 -30
-46 -10 -46 11 0 14 -7 11 -22 -3 -13 -19 -94 -36 -181 -17 -90 -37 -165 -45
-174 -19 -18 -19 -32 -1 -39 11 -4 11 -15 1 -67 -7 -34 -23 -117 -35 -184
l-23 -123 -703 0 -704 0 -6 28 c-11 52 -13 55 -28 43 -8 -7 -19 -25 -26 -41
l-12 -30 -257 -2 c-141 -2 -285 -2 -321 -2 -36 1 -354 2 -707 2 l-643 1 0 25
c0 24 -1 25 -32 11 -47 -19 -180 -45 -233 -45 -64 0 -191 28 -238 52 -42 21
-57 15 -57 -24 0 -17 -27 -18 -431 -18 l-431 0 7 30 c8 38 0 38 -20 0 l-16
-30 -1759 0 -1760 0 0 395 0 395 293 2 292 3 -55 19 c-79 27 -205 92 -265 136
-83 61 -169 163 -214 253 -62 123 -74 185 -69 346 4 122 8 146 37 226 150 416
580 722 1096 780 143 16 158 17 300 5z"/>
<path d="M2010 6303 c-234 -36 -340 -66 -483 -138 -279 -141 -465 -339 -547
-582 -121 -362 57 -684 450 -818 129 -44 255 -59 445 -52 250 9 429 39 439 75
20 72 127 544 124 547 -2 2 -48 -18 -102 -45 -125 -63 -216 -84 -344 -78 -79
3 -108 9 -159 32 -72 33 -134 94 -153 151 -29 88 13 211 100 287 186 164 468
169 674 12 26 -20 49 -34 51 -32 6 6 98 578 93 583 -10 10 -185 44 -280 54
-93 11 -255 13 -308 4z"/>
<path d="M3255 5994 c-473 -72 -810 -393 -808 -769 2 -246 172 -432 463 -506
121 -30 371 -38 506 -15 412 70 707 314 772 638 l18 88 12 -34 c17 -47 46 -81
99 -117 62 -43 134 -66 276 -90 141 -23 174 -34 182 -60 15 -47 -45 -89 -140
-96 -101 -8 -232 33 -340 106 -16 12 -32 21 -36 21 -3 0 -59 -79 -124 -175
-74 -109 -115 -179 -109 -185 20 -19 198 -71 316 -91 102 -18 150 -20 283 -16
194 6 283 26 434 98 83 40 116 64 170 117 161 163 186 376 56 490 -66 59 -150
91 -319 123 -127 24 -176 42 -176 63 0 100 207 108 392 15 l58 -29 105 160
c58 88 105 163 105 166 0 12 -136 66 -218 86 -126 32 -369 32 -495 0 -236 -59
-409 -177 -488 -334 -16 -31 -31 -75 -35 -98 -8 -49 -14 -46 -25 15 -21 113
-123 250 -240 321 -175 106 -440 147 -694 108z m252 -437 c29 -14 60 -40 78
-66 26 -37 30 -51 30 -109 0 -55 -5 -76 -30 -121 -60 -109 -168 -166 -315
-166 -69 0 -94 5 -133 24 -72 35 -101 79 -105 161 -5 78 15 133 68 193 94 108
283 146 407 84z"/>
<path d="M3278 5464 c-96 -30 -171 -141 -136 -204 30 -55 126 -75 221 -46 57
17 95 46 124 94 75 122 -41 208 -209 156z"/>
<path d="M7276 6000 c-301 -48 -574 -221 -714 -453 -107 -177 -119 -402 -30
-557 71 -125 222 -233 388 -277 127 -35 601 -16 642 25 7 7 108 437 108 460 0
5 -35 -8 -77 -29 -94 -47 -176 -69 -258 -69 -119 0 -224 51 -260 126 -71 148
64 326 275 364 106 19 215 -7 319 -78 l57 -40 39 240 c31 195 35 242 24 248
-53 33 -390 59 -513 40z"/>
<path d="M8525 5995 c-130 -20 -233 -52 -350 -110 -309 -151 -478 -403 -463
-690 4 -76 11 -104 35 -156 82 -174 237 -280 483 -331 138 -29 403 -21 541 15
213 56 351 130 479 257 94 93 138 161 178 272 24 65 27 87 27 204 l0 130 -39
78 c-66 134 -187 233 -355 292 -145 50 -363 67 -536 39z m232 -430 c86 -36
128 -107 120 -202 -12 -157 -149 -265 -337 -267 -74 -1 -92 3 -143 27 -80 40
-111 93 -105 180 2 34 13 80 23 102 40 82 137 154 239 175 55 12 156 4 203
-15z"/>
<path d="M8560 5471 c-106 -32 -179 -124 -160 -200 22 -92 228 -93 319 -2 74
74 69 171 -9 198 -39 13 -112 15 -150 4z"/>
<path d="M5436 5792 c-32 -108 -61 -202 -63 -209 -3 -8 35 -10 152 -6 l157 6
-6 -29 c-4 -16 -62 -211 -130 -434 l-123 -405 280 -3 c155 -1 284 1 288 5 3 5
64 201 135 437 l129 428 156 -5 156 -5 62 202 c33 111 61 205 61 209 0 4 -269
7 -597 7 l-598 0 -59 -198z"/>
<path d="M1995 5683 c-116 -42 -192 -109 -214 -191 -27 -96 77 -175 230 -174
108 0 173 16 270 65 l84 42 23 64 c12 36 27 70 33 77 13 16 -35 53 -126 96
-60 28 -83 33 -160 35 -67 3 -103 -1 -140 -14z"/>
<path d="M7317 5473 c-85 -32 -157 -106 -157 -164 0 -14 10 -36 21 -48 68 -73
239 -68 378 11 44 25 51 37 54 107 l2 45 -57 29 c-73 38 -170 46 -241 20z"/>
<path d="M5380 5461 c0 -5 7 -14 16 -22 20 -16 54 -82 69 -134 l12 -40 27 88
c15 48 29 94 32 102 5 13 -7 15 -75 15 -45 0 -81 -4 -81 -9z"/>
<path d="M6212 5066 c-67 -222 -122 -408 -122 -415 0 -8 51 -11 175 -11 148 0
175 -2 175 -15 0 -8 -16 -95 -35 -192 -19 -98 -35 -179 -35 -180 0 -2 9 -3 19
-3 22 0 20 -7 67 247 l26 142 152 3 151 3 -65 32 c-194 95 -328 277 -350 473
-10 90 0 211 24 278 l15 42 -37 0 -37 0 -123 -404z"/>
<path d="M2426 4796 c-10 -46 -22 -89 -27 -97 -4 -8 -36 -24 -71 -36 l-63 -21
260 -1 260 0 -75 37 c-100 50 -155 89 -213 151 -26 28 -49 51 -50 51 -1 0 -11
-38 -21 -84z"/>
<path d="M5319 4844 c-52 -55 -148 -120 -240 -164 l-84 -39 148 -1 c81 0 147
2 147 4 0 2 16 54 35 117 19 62 33 114 32 116 -2 1 -19 -13 -38 -33z"/>
<path d="M7696 4820 c-8 -30 -18 -73 -22 -95 -10 -61 -20 -73 -72 -88 l-47
-14 50 -23 c28 -13 53 -25 56 -27 3 -2 14 12 24 32 l19 35 170 2 169 3 -97 48
c-71 36 -114 65 -166 115 l-69 67 -15 -55z"/>
<path d="M9153 4830 c-84 -51 -61 -140 36 -140 36 0 49 6 77 34 40 40 43 68 9
101 -30 31 -77 33 -122 5z m101 -16 c52 -52 -36 -131 -105 -94 -12 7 -19 21
-19 40 0 55 86 93 124 54z"/>
<path d="M9166 4798 c-19 -62 -11 -91 14 -50 10 16 10 16 20 0 12 -20 34 -24
27 -5 -2 6 2 20 10 29 8 9 12 22 8 27 -9 15 -75 14 -79 -1z m60 -11 c4 -4 -5
-7 -20 -7 -15 0 -25 4 -22 9 7 10 31 9 42 -2z"/>
<path d="M3810 4720 c-30 -16 -82 -39 -115 -52 l-60 -23 156 -5 c85 -3 195 -3
245 0 l89 5 -40 14 c-22 8 -80 31 -128 52 -48 22 -89 39 -90 39 -1 -1 -27 -14
-57 -30z"/>
<path d="M8950 4666 l-55 -21 64 -3 c35 -2 66 -1 68 2 3 3 -1 13 -8 24 -14 19
-15 19 -69 -2z"/>
<path d="M8147 4586 c7 -38 23 -58 23 -29 0 12 3 28 6 36 3 9 -2 16 -15 20
-18 4 -19 1 -14 -27z"/>
<path d="M5930 4596 c0 -2 7 -6 15 -10 8 -3 15 -1 15 4 0 6 -7 10 -15 10 -8 0
-15 -2 -15 -4z"/>
<path d="M8660 4592 c-22 -4 -83 -332 -63 -339 8 -3 16 -3 18 -1 8 8 66 311
63 328 -2 8 -10 14 -18 12z"/>
<path d="M5595 4540 c-138 -19 -261 -95 -324 -200 -11 -19 -21 -33 -21 -30 0
3 9 52 20 110 11 58 20 108 20 112 0 5 -54 8 -120 8 -136 0 -119 13 -140 -105
-19 -102 -12 -95 -96 -95 -84 0 -80 -5 -59 90 8 36 14 75 15 88 l0 22 -240 0
-239 0 -59 -124 c-33 -67 -67 -144 -77 -170 -10 -25 -19 -45 -20 -44 -2 2 -8
64 -14 138 -6 74 -14 150 -17 168 l-5 32 -95 0 -94 0 -68 -137 c-38 -76 -74
-154 -82 -173 -13 -33 -14 -26 -26 130 -6 91 -12 168 -13 173 -1 4 -57 7 -125
7 -69 0 -127 -3 -129 -7 -2 -5 26 -135 62 -290 l65 -283 108 0 109 0 62 128
c34 70 67 141 73 157 9 26 12 15 18 -80 4 -60 9 -131 12 -157 l6 -48 108 0
109 0 161 263 c127 207 160 254 154 222 -4 -22 -26 -140 -49 -262 l-42 -223
123 0 122 0 17 100 18 100 77 0 78 0 -14 -72 c-8 -40 -16 -86 -20 -101 l-6
-28 123 3 124 3 20 110 21 110 11 -45 c48 -180 331 -247 568 -134 63 29 135
95 164 150 11 22 20 37 21 34 0 -3 -9 -51 -20 -108 -11 -56 -20 -107 -20 -112
0 -6 89 -10 229 -10 l229 0 12 53 c6 28 14 71 17 95 l6 42 -102 0 c-90 0 -101
2 -101 18 1 9 16 94 34 187 18 94 30 174 26 178 -4 4 -60 6 -126 5 l-119 -3
-19 -107 c-11 -60 -23 -108 -28 -108 -4 0 -8 10 -8 23 0 36 -42 98 -88 134
-71 54 -197 79 -317 63z m77 -190 c44 -13 78 -52 78 -90 0 -43 -40 -92 -92
-114 -111 -46 -204 35 -154 133 19 35 37 50 83 67 47 16 41 16 85 4z"/>
<path d="M7286 4539 c-151 -22 -269 -123 -269 -231 0 -72 49 -110 166 -130 34
-6 69 -17 77 -25 13 -13 13 -16 -4 -29 -32 -23 -114 -18 -165 11 -23 14 -46
25 -51 25 -4 0 -24 -27 -44 -60 -36 -57 -60 -85 -52 -58 2 7 7 28 10 46 l6 32
-111 0 c-97 0 -110 2 -105 16 3 9 6 20 6 24 0 5 44 11 97 12 l97 3 13 60 c7
33 12 66 13 73 0 9 -25 12 -95 12 -99 0 -105 3 -89 44 5 13 25 16 110 16 99 0
104 1 109 23 17 74 25 114 25 125 0 10 -50 12 -232 10 l-233 -3 -52 -270 c-29
-148 -52 -278 -52 -287 -1 -17 17 -18 233 -18 222 0 234 1 239 19 5 19 6 19
68 -1 48 -16 91 -21 174 -22 119 -1 183 14 250 59 41 28 43 25 14 -21 l-21
-34 134 0 134 0 17 35 17 35 94 0 95 0 3 -32 3 -33 356 -3 355 -2 12 65 c7 36
15 78 18 95 l7 30 -107 0 c-105 0 -106 0 -101 23 10 42 65 342 65 355 0 9 -31
12 -124 12 l-123 0 -33 -172 c-52 -280 -67 -344 -73 -328 -4 8 -31 121 -62
250 -30 129 -59 238 -64 243 -4 4 -67 6 -141 5 l-133 -3 -116 -192 -116 -191
-7 45 c-11 75 -45 100 -171 128 -42 9 -79 21 -82 25 -3 5 2 16 12 25 21 21
103 16 153 -10 17 -9 33 -15 34 -13 2 2 24 34 49 73 52 77 52 77 -28 99 -70
20 -140 25 -209 15z m613 -336 c1 -33 0 -33 -45 -33 -53 0 -53 -2 -1 108 l31
67 7 -55 c4 -30 7 -70 8 -87z"/>
<path d="M997 4533 c-4 -3 -7 -39 -7 -80 l0 -73 1285 0 c1022 0 1285 3 1284
13 -1 6 -8 41 -17 77 l-17 65 -1261 3 c-693 1 -1264 -1 -1267 -5z"/>
<path d="M8780 4533 c0 -10 -100 -536 -106 -555 -5 -17 11 -18 234 -18 l239 0
11 64 c19 103 26 96 -93 96 l-105 0 0 25 c0 25 0 25 99 25 l100 0 11 58 c6 31
14 65 16 75 5 15 -4 17 -91 17 l-96 0 3 28 3 27 106 3 106 3 15 74 c8 41 13
77 10 80 -8 8 -462 6 -462 -2z"/>
<path d="M997 4313 c-4 -3 -7 -37 -7 -75 l0 -68 1310 0 1310 0 -7 33 c-3 17
-11 50 -17 72 l-12 40 -1285 3 c-707 1 -1289 -1 -1292 -5z"/>
<path d="M997 4103 c-4 -3 -7 -37 -7 -75 l0 -68 1335 0 1335 0 -7 28 c-3 15
-12 47 -18 72 l-11 45 -1310 3 c-721 1 -1314 -1 -1317 -5z"/>
</g>
</svg>
