<?xml version="1.0" standalone="no"?>
<!DOCTYPE svg PUBLIC "-//W3C//DTD SVG 20010904//EN"
 "http://www.w3.org/TR/2001/REC-SVG-20010904/DTD/svg10.dtd">
<svg version="1.0" xmlns="http://www.w3.org/2000/svg"
 width="1024.000000pt" height="1024.000000pt" viewBox="0 0 1024.000000 1024.000000"
 preserveAspectRatio="xMidYMid meet">
<metadata>
Created by potrace 1.16, written by Peter Selinger 2001-2019
</metadata>
<g transform="translate(0.000000,1024.000000) scale(0.100000,-0.100000)"
fill="#000000" stroke="none">
<path d="M150 5120 l0 -350 80 0 80 0 0 105 0 105 493 0 494 0 44 23 c68 36
99 104 99 216 0 47 -5 103 -11 124 -14 51 -63 104 -107 117 -23 6 -250 10
-604 10 l-568 0 0 -350z m1100 197 c23 -12 25 -19 28 -92 2 -66 0 -82 -14 -92
-14 -10 -123 -13 -486 -13 l-468 0 0 105 0 105 458 0 c348 0 463 -3 482 -13z"/>
<path d="M1731 5460 c-49 -12 -83 -40 -108 -90 -22 -42 -23 -56 -23 -250 0
-194 1 -208 23 -250 28 -56 73 -87 140 -95 29 -3 266 -5 527 -3 441 3 478 4
513 22 20 10 47 33 60 50 21 30 22 39 22 276 0 237 -1 246 -22 276 -13 17 -40
40 -60 50 -35 18 -71 19 -538 21 -275 1 -515 -2 -534 -7z m988 -154 c20 -18
21 -29 21 -186 0 -157 -1 -168 -21 -186 -20 -18 -45 -19 -443 -22 -273 -2
-434 1 -457 7 -23 7 -40 20 -47 36 -13 27 -17 282 -5 324 13 49 34 51 499 48
409 -2 433 -3 453 -21z"/>
<path d="M3070 5120 l0 -350 75 0 74 0 3 103 3 102 395 3 c217 2 414 0 437 -3
73 -10 126 -71 141 -158 l7 -42 78 -3 78 -3 -6 48 c-10 68 -48 147 -83 173
l-31 23 41 20 c66 33 78 63 78 200 0 138 -12 174 -69 209 l-36 23 -592 3 -593
3 0 -351z m1114 197 c14 -10 16 -26 14 -102 l-3 -90 -487 -3 -488 -2 0 98 c0
54 3 102 7 105 3 4 216 7 473 7 361 0 470 -3 484 -13z"/>
<path d="M4676 5459 c-105 -25 -150 -92 -145 -218 4 -67 8 -83 33 -115 58 -76
51 -76 588 -76 462 0 478 -1 488 -19 16 -31 12 -79 -10 -101 -19 -19 -33 -20
-550 -20 l-530 0 0 -70 0 -71 568 3 c630 3 602 0 656 71 45 59 53 187 16 256
-16 31 -68 70 -108 81 -23 6 -214 10 -504 10 l-467 0 -15 22 c-22 31 -20 74 4
98 20 20 33 20 555 20 l535 0 0 70 0 70 -537 -1 c-296 -1 -556 -5 -577 -10z"/>
<path d="M6111 5460 c-44 -10 -81 -39 -106 -81 -18 -30 -20 -56 -23 -230 -4
-213 3 -259 44 -309 57 -67 32 -65 637 -68 l547 -3 0 71 0 70 -523 0 c-393 0
-526 3 -535 12 -8 8 -12 67 -12 198 0 131 4 190 12 198 9 9 142 12 535 12
l523 0 0 70 0 70 -532 -1 c-293 -1 -548 -5 -567 -9z"/>
<path d="M7380 5120 l0 -350 80 0 80 0 0 145 0 145 460 0 460 0 0 -145 0 -145
80 0 80 0 0 350 0 350 -80 0 -80 0 0 -135 0 -135 -460 0 -460 0 0 135 0 135
-80 0 -80 0 0 -350z"/>
<path d="M8790 5120 l0 -350 650 0 650 0 0 70 0 70 -570 0 -570 0 0 75 0 75
570 0 570 0 0 65 0 65 -570 0 -570 0 0 70 0 70 570 0 570 0 0 70 0 70 -650 0
-650 0 0 -350z"/>
</g>
</svg>
