<?xml version="1.0" standalone="no"?>
<!DOCTYPE svg PUBLIC "-//W3C//DTD SVG 20010904//EN"
 "http://www.w3.org/TR/2001/REC-SVG-20010904/DTD/svg10.dtd">
<svg version="1.0" xmlns="http://www.w3.org/2000/svg"
 width="1024.000000pt" height="1024.000000pt" viewBox="0 0 1024.000000 1024.000000"
 preserveAspectRatio="xMidYMid meet">
<metadata>
Created by potrace 1.16, written by Peter Selinger 2001-2019
</metadata>
<g transform="translate(0.000000,1024.000000) scale(0.100000,-0.100000)"
fill="#000000" stroke="none">
<path d="M888 8455 l2 -1715 295 0 295 0 0 169 c0 815 308 1532 852 1983 460
382 1052 578 1744 578 l134 0 0 -3807 c0 -3340 -2 -3820 -15 -3908 -66 -438
-282 -739 -637 -886 -91 -38 -236 -75 -348 -89 -47 -5 -227 -11 -400 -13
l-315 -2 -3 -352 -2 -353 2625 0 2625 0 0 354 0 355 -321 1 c-339 1 -416 7
-569 45 -445 111 -718 419 -801 903 -19 112 -19 196 -19 3933 l0 3819 134 0
c832 0 1532 -290 1994 -825 389 -452 601 -1064 602 -1742 l0 -163 295 0 295 0
0 1715 0 1715 -4232 0 -4233 0 3 -1715z"/>
<path d="M888 4510 l2 -1010 1000 0 1000 0 0 1010 0 1010 -1002 0 -1003 0 3
-1010z"/>
<path d="M7350 4510 l0 -1010 1000 0 1000 0 0 1010 0 1010 -1000 0 -1000 0 0
-1010z"/>
</g>
</svg>
