<?xml version="1.0" standalone="no"?>
<!DOCTYPE svg PUBLIC "-//W3C//DTD SVG 20010904//EN"
 "http://www.w3.org/TR/2001/REC-SVG-20010904/DTD/svg10.dtd">
<svg version="1.0" xmlns="http://www.w3.org/2000/svg"
 width="1024.000000pt" height="1024.000000pt" viewBox="0 0 1024.000000 1024.000000"
 preserveAspectRatio="xMidYMid meet">
<metadata>
Created by potrace 1.16, written by Peter Selinger 2001-2019
</metadata>
<g transform="translate(0.000000,1024.000000) scale(0.100000,-0.100000)"
fill="#000000" stroke="none">
<path d="M2010 6303 c-234 -36 -340 -66 -483 -138 -279 -141 -465 -339 -547
-582 -121 -362 57 -684 450 -818 129 -44 255 -59 445 -52 250 9 429 39 439 75
20 72 127 544 124 547 -2 2 -48 -18 -102 -45 -125 -63 -216 -84 -344 -78 -79
3 -108 9 -159 32 -72 33 -134 94 -153 151 -29 88 13 211 100 287 186 164 468
169 674 12 26 -20 49 -34 51 -32 6 6 98 578 93 583 -10 10 -185 44 -280 54
-93 11 -255 13 -308 4z"/>
<path d="M3255 5994 c-473 -72 -810 -393 -808 -769 2 -246 172 -432 463 -506
121 -30 371 -38 506 -15 412 70 707 314 772 638 l18 88 12 -34 c17 -47 46 -81
99 -117 62 -43 134 -66 276 -90 141 -23 174 -34 182 -60 15 -47 -45 -89 -140
-96 -101 -8 -232 33 -340 106 -16 12 -32 21 -36 21 -3 0 -59 -79 -124 -175
-74 -109 -115 -179 -109 -185 20 -19 198 -71 316 -91 102 -18 150 -20 283 -16
194 6 283 26 434 98 83 40 116 64 170 117 161 163 186 376 56 490 -66 59 -150
91 -319 123 -127 24 -176 42 -176 63 0 100 207 108 392 15 l58 -29 105 160
c58 88 105 163 105 166 0 12 -136 66 -218 86 -126 32 -369 32 -495 0 -236 -59
-409 -177 -488 -334 -16 -31 -31 -75 -35 -98 -8 -49 -14 -46 -25 15 -21 113
-123 250 -240 321 -175 106 -440 147 -694 108z m252 -437 c29 -14 60 -40 78
-66 26 -37 30 -51 30 -109 0 -55 -5 -76 -30 -121 -60 -109 -168 -166 -315
-166 -69 0 -94 5 -133 24 -72 35 -101 79 -105 161 -5 78 15 133 68 193 94 108
283 146 407 84z"/>
<path d="M7276 6000 c-301 -48 -574 -221 -714 -453 -107 -177 -119 -402 -30
-557 71 -125 222 -233 388 -277 127 -35 601 -16 642 25 7 7 108 437 108 460 0
5 -35 -8 -77 -29 -94 -47 -176 -69 -258 -69 -119 0 -224 51 -260 126 -71 148
64 326 275 364 106 19 215 -7 319 -78 l57 -40 39 240 c31 195 35 242 24 248
-53 33 -390 59 -513 40z"/>
<path d="M8525 5995 c-130 -20 -233 -52 -350 -110 -309 -151 -478 -403 -463
-690 4 -76 11 -104 35 -156 82 -174 237 -280 483 -331 138 -29 403 -21 541 15
213 56 351 130 479 257 94 93 138 161 178 272 24 65 27 87 27 204 l0 130 -39
78 c-66 134 -187 233 -355 292 -145 50 -363 67 -536 39z m232 -430 c86 -36
128 -107 120 -202 -12 -157 -149 -265 -337 -267 -74 -1 -92 3 -143 27 -80 40
-111 93 -105 180 2 34 13 80 23 102 40 82 137 154 239 175 55 12 156 4 203
-15z"/>
<path d="M5436 5792 c-32 -108 -61 -202 -63 -209 -3 -8 35 -10 152 -6 l157 6
-6 -29 c-4 -16 -62 -211 -130 -434 l-123 -405 280 -3 c155 -1 284 1 288 5 3 5
64 201 135 437 l129 428 156 -5 156 -5 62 202 c33 111 61 205 61 209 0 4 -269
7 -597 7 l-598 0 -59 -198z"/>
<path d="M9153 4830 c-84 -51 -61 -140 36 -140 36 0 49 6 77 34 40 40 43 68 9
101 -30 31 -77 33 -122 5z m101 -16 c52 -52 -36 -131 -105 -94 -12 7 -19 21
-19 40 0 55 86 93 124 54z"/>
<path d="M9166 4798 c-19 -62 -11 -91 14 -50 10 16 10 16 20 0 12 -20 34 -24
27 -5 -2 6 2 20 10 29 8 9 12 22 8 27 -9 15 -75 14 -79 -1z m60 -11 c4 -4 -5
-7 -20 -7 -15 0 -25 4 -22 9 7 10 31 9 42 -2z"/>
<path d="M5595 4540 c-138 -19 -261 -95 -324 -200 -11 -19 -21 -33 -21 -30 0
3 9 52 20 110 11 58 20 108 20 112 0 5 -54 8 -120 8 -136 0 -119 13 -140 -105
-19 -102 -12 -95 -96 -95 -84 0 -80 -5 -59 90 8 36 14 75 15 88 l0 22 -240 0
-239 0 -59 -124 c-33 -67 -67 -144 -77 -170 -10 -25 -19 -45 -20 -44 -2 2 -8
64 -14 138 -6 74 -14 150 -17 168 l-5 32 -95 0 -94 0 -68 -137 c-38 -76 -74
-154 -82 -173 -13 -33 -14 -26 -26 130 -6 91 -12 168 -13 173 -1 4 -57 7 -125
7 -69 0 -127 -3 -129 -7 -2 -5 26 -135 62 -290 l65 -283 108 0 109 0 62 128
c34 70 67 141 73 157 9 26 12 15 18 -80 4 -60 9 -131 12 -157 l6 -48 108 0
109 0 161 263 c127 207 160 254 154 222 -4 -22 -26 -140 -49 -262 l-42 -223
123 0 122 0 17 100 18 100 77 0 78 0 -14 -72 c-8 -40 -16 -86 -20 -101 l-6
-28 123 3 124 3 20 110 21 110 11 -45 c48 -180 331 -247 568 -134 63 29 135
95 164 150 11 22 20 37 21 34 0 -3 -9 -51 -20 -108 -11 -56 -20 -107 -20 -112
0 -6 89 -10 229 -10 l229 0 12 53 c6 28 14 71 17 95 l6 42 -102 0 c-90 0 -101
2 -101 18 1 9 16 94 34 187 18 94 30 174 26 178 -4 4 -60 6 -126 5 l-119 -3
-19 -107 c-11 -60 -23 -108 -28 -108 -4 0 -8 10 -8 23 0 36 -42 98 -88 134
-71 54 -197 79 -317 63z m77 -190 c44 -13 78 -52 78 -90 0 -43 -40 -92 -92
-114 -111 -46 -204 35 -154 133 19 35 37 50 83 67 47 16 41 16 85 4z"/>
<path d="M7286 4539 c-151 -22 -269 -123 -269 -231 0 -72 49 -110 166 -130 34
-6 69 -17 77 -25 13 -13 13 -16 -4 -29 -32 -23 -114 -18 -165 11 -23 14 -46
25 -51 25 -4 0 -24 -27 -44 -60 -36 -57 -60 -85 -52 -58 2 7 7 28 10 46 l6 32
-111 0 c-97 0 -110 2 -105 16 3 9 6 20 6 24 0 5 44 11 97 12 l97 3 13 60 c7
33 12 66 13 73 0 9 -25 12 -95 12 -99 0 -105 3 -89 44 5 13 25 16 110 16 99 0
104 1 109 23 17 74 25 114 25 125 0 10 -50 12 -232 10 l-233 -3 -52 -270 c-29
-148 -52 -278 -52 -287 -1 -17 17 -18 233 -18 222 0 234 1 239 19 5 19 6 19
68 -1 48 -16 91 -21 174 -22 119 -1 183 14 250 59 41 28 43 25 14 -21 l-21
-34 134 0 134 0 17 35 17 35 94 0 95 0 3 -32 3 -33 356 -3 355 -2 12 65 c7 36
15 78 18 95 l7 30 -107 0 c-105 0 -106 0 -101 23 10 42 65 342 65 355 0 9 -31
12 -124 12 l-123 0 -33 -172 c-52 -280 -67 -344 -73 -328 -4 8 -31 121 -62
250 -30 129 -59 238 -64 243 -4 4 -67 6 -141 5 l-133 -3 -116 -192 -116 -191
-7 45 c-11 75 -45 100 -171 128 -42 9 -79 21 -82 25 -3 5 2 16 12 25 21 21
103 16 153 -10 17 -9 33 -15 34 -13 2 2 24 34 49 73 52 77 52 77 -28 99 -70
20 -140 25 -209 15z m613 -336 c1 -33 0 -33 -45 -33 -53 0 -53 -2 -1 108 l31
67 7 -55 c4 -30 7 -70 8 -87z"/>
<path d="M997 4533 c-4 -3 -7 -39 -7 -80 l0 -73 1285 0 c1022 0 1285 3 1284
13 -1 6 -8 41 -17 77 l-17 65 -1261 3 c-693 1 -1264 -1 -1267 -5z"/>
<path d="M8780 4533 c0 -10 -100 -536 -106 -555 -5 -17 11 -18 234 -18 l239 0
11 64 c19 103 26 96 -93 96 l-105 0 0 25 c0 25 0 25 99 25 l100 0 11 58 c6 31
14 65 16 75 5 15 -4 17 -91 17 l-96 0 3 28 3 27 106 3 106 3 15 74 c8 41 13
77 10 80 -8 8 -462 6 -462 -2z"/>
<path d="M997 4313 c-4 -3 -7 -37 -7 -75 l0 -68 1310 0 1310 0 -7 33 c-3 17
-11 50 -17 72 l-12 40 -1285 3 c-707 1 -1289 -1 -1292 -5z"/>
<path d="M997 4103 c-4 -3 -7 -37 -7 -75 l0 -68 1335 0 1335 0 -7 28 c-3 15
-12 47 -18 72 l-11 45 -1310 3 c-721 1 -1314 -1 -1317 -5z"/>
</g>
</svg>
