<?xml version="1.0" standalone="no"?>
<!DOCTYPE svg PUBLIC "-//W3C//DTD SVG 20010904//EN"
 "http://www.w3.org/TR/2001/REC-SVG-20010904/DTD/svg10.dtd">
<svg version="1.0" xmlns="http://www.w3.org/2000/svg"
 width="800.000000pt" height="800.000000pt" viewBox="0 0 800.000000 800.000000"
 preserveAspectRatio="xMidYMid meet">
<metadata>
Created by potrace 1.16, written by Peter Selinger 2001-2019
</metadata>
<g transform="translate(0.000000,800.000000) scale(0.100000,-0.100000)"
fill="#000000" stroke="none">
<path d="M1477 4554 c-14 -15 7 -24 54 -24 l49 0 0 -290 c0 -398 -11 -438
-122 -448 -72 -6 -98 16 -98 81 0 58 -17 79 -60 75 -64 -6 -79 -92 -25 -150
61 -66 268 -58 350 13 59 52 65 91 65 426 l0 293 55 0 c42 0 55 3 55 15 0 13
-24 15 -158 15 -87 0 -162 -3 -165 -6z"/>
<path d="M2020 4545 c0 -11 12 -15 45 -15 l45 0 0 -338 c0 -380 1 -377 -71
-388 -23 -4 -39 -12 -39 -20 0 -11 33 -14 170 -14 137 0 170 3 170 14 0 8 -16
16 -39 20 -63 10 -71 30 -71 172 l0 121 99 6 c125 9 195 31 242 78 82 82 75
263 -11 327 -55 41 -129 52 -342 52 -169 0 -198 -2 -198 -15z m377 -30 c67
-20 99 -54 114 -122 19 -86 1 -157 -51 -205 -41 -37 -53 -40 -172 -54 l-58 -6
0 201 0 201 58 0 c32 0 81 -7 109 -15z"/>
<path d="M2780 4545 c0 -11 12 -15 50 -15 l50 0 0 -340 0 -341 -25 -24 c-13
-14 -36 -25 -50 -25 -16 0 -25 -6 -25 -15 0 -12 19 -15 109 -15 61 0 113 4
116 10 3 5 -9 16 -27 23 -64 27 -63 21 -66 349 -1 170 1 298 7 298 8 0 291
-651 291 -671 0 -6 7 -9 16 -7 15 3 60 107 224 516 27 67 54 130 59 140 7 12
10 -78 11 -281 l0 -298 -25 -24 c-13 -14 -36 -25 -50 -25 -16 0 -25 -6 -25
-15 0 -13 24 -15 155 -15 126 0 155 3 155 14 0 8 -15 17 -35 20 -21 4 -40 16
-47 29 -10 16 -14 111 -16 360 l-3 337 45 0 c34 0 46 4 46 15 0 12 -18 15
-100 15 -88 0 -100 -2 -110 -19 -11 -22 -130 -314 -193 -473 -23 -60 -44 -108
-47 -108 -4 0 -64 135 -135 300 l-129 300 -113 0 c-94 0 -113 -3 -113 -15z"/>
<path d="M5409 4343 c-5 -16 -12 -34 -14 -40 -6 -18 -60 -16 -75 2 -16 20
-103 45 -154 45 -126 0 -213 -71 -232 -188 -8 -50 10 -129 37 -161 11 -13 41
-34 67 -47 l47 -22 -30 -7 c-90 -20 -135 -58 -135 -115 0 -48 30 -86 78 -100
20 -6 98 -15 173 -19 138 -9 190 -23 203 -56 20 -54 -12 -113 -76 -139 -58
-24 -151 -29 -211 -12 -68 20 -85 39 -89 101 -3 46 -5 50 -31 53 -41 5 -57
-14 -57 -64 0 -95 99 -142 277 -131 108 6 170 32 216 90 42 52 50 137 17 195
-34 60 -71 73 -245 84 -82 5 -156 14 -162 20 -20 16 -15 46 10 62 12 8 63 22
112 31 116 21 184 52 221 101 27 35 29 43 29 128 l-1 91 36 2 c83 5 112 123
29 123 -23 0 -32 -6 -40 -27z m-174 -56 c26 -26 33 -43 39 -90 9 -67 0 -150
-20 -188 -17 -35 -64 -53 -111 -44 -56 10 -71 22 -83 63 -14 53 -12 177 4 216
33 79 114 100 171 43z"/>
<path d="M3970 4338 c-80 -23 -147 -98 -171 -191 -6 -27 -10 -82 -7 -126 8
-130 62 -212 165 -251 104 -39 207 -17 283 59 65 65 84 124 78 245 -3 80 -8
99 -34 145 -61 109 -186 156 -314 119z m168 -44 c43 -30 55 -71 60 -202 6
-156 -9 -230 -51 -272 -28 -27 -37 -30 -97 -30 -113 0 -134 40 -135 255 0 215
26 264 145 265 35 0 64 -6 78 -16z"/>
<path d="M5665 4335 c-110 -29 -163 -165 -64 -165 32 0 44 13 57 64 17 61 37
76 99 76 72 0 98 -25 108 -102 12 -96 9 -102 -61 -110 -143 -15 -232 -62 -260
-135 -65 -168 136 -273 284 -148 l33 28 29 -35 c18 -21 42 -38 61 -42 44 -8
106 10 124 37 20 31 31 87 16 87 -6 0 -11 -6 -11 -13 0 -18 -32 -47 -52 -47
-37 0 -42 27 -48 235 l-5 204 -29 30 c-47 49 -173 65 -281 36z m205 -353 c0
-79 -2 -91 -22 -109 -95 -86 -201 -64 -201 42 0 38 5 51 33 80 36 37 116 74
163 74 l27 1 0 -88z"/>
<path d="M4380 4325 c0 -11 12 -15 50 -15 l50 0 0 -230 c0 -217 -1 -231 -20
-250 -11 -11 -33 -20 -50 -20 -23 0 -30 -4 -30 -20 0 -19 7 -20 160 -20 153 0
160 1 160 20 0 16 -7 20 -30 20 -17 0 -39 9 -50 20 -18 18 -20 33 -20 176 0
163 3 179 48 227 36 37 79 37 117 -3 67 -70 144 3 82 76 -20 23 -34 28 -83 31
-71 5 -115 -18 -141 -72 -9 -19 -20 -35 -24 -35 -7 0 -15 32 -22 90 -3 23
-197 28 -197 5z"/>
<path d="M6127 4333 c-16 -16 -4 -23 38 -23 l45 0 0 -226 c0 -133 -4 -233 -10
-244 -6 -11 -26 -22 -46 -26 -25 -5 -34 -11 -32 -23 3 -14 23 -16 141 -19 132
-2 137 -2 137 18 0 11 -7 20 -15 20 -8 0 -24 9 -35 20 -18 18 -20 33 -19 178
0 94 5 171 12 192 27 78 146 108 191 47 19 -26 21 -45 24 -206 4 -192 0 -216
-43 -227 -16 -4 -25 -13 -25 -25 0 -18 9 -19 135 -19 125 0 135 1 135 19 0 13
-10 20 -30 25 -51 10 -60 48 -60 252 0 191 -4 209 -58 249 -32 23 -125 32
-175 16 -20 -7 -52 -30 -72 -52 -19 -22 -39 -37 -44 -35 -5 3 -12 26 -15 51
l-7 45 -83 0 c-45 0 -86 -3 -89 -7z"/>
<path d="M1800 3860 c-26 -26 -25 -64 2 -90 29 -27 54 -25 83 5 30 29 31 45 4
79 -25 31 -61 34 -89 6z"/>
<path d="M2520 3860 c-50 -50 9 -132 72 -99 45 24 50 58 13 94 -29 30 -58 32
-85 5z"/>
</g>
</svg>
