<?xml version="1.0" standalone="no"?>
<!DOCTYPE svg PUBLIC "-//W3C//DTD SVG 20010904//EN"
 "http://www.w3.org/TR/2001/REC-SVG-20010904/DTD/svg10.dtd">
<svg version="1.0" xmlns="http://www.w3.org/2000/svg"
 width="800.000000pt" height="800.000000pt" viewBox="0 0 800.000000 800.000000"
 preserveAspectRatio="xMidYMid meet">
<metadata>
Created by potrace 1.16, written by Peter Selinger 2001-2019
</metadata>
<g transform="translate(0.000000,800.000000) scale(0.100000,-0.100000)"
fill="#000000" stroke="none">
<path d="M5650 5284 c-19 -8 -60 -24 -90 -34 -119 -41 -370 -130 -460 -163
-122 -46 -401 -147 -555 -202 -66 -23 -187 -68 -270 -98 -160 -59 -457 -167
-810 -295 -60 -22 -155 -56 -210 -77 -55 -20 -136 -49 -180 -65 -44 -15 -123
-44 -175 -63 -52 -20 -178 -66 -280 -102 -262 -95 -349 -127 -480 -175 -63
-23 -140 -51 -170 -62 -113 -40 -526 -190 -563 -204 -20 -8 -41 -14 -46 -14
-9 0 -29 49 -98 240 -117 327 -416 1141 -438 1193 -8 20 -18 37 -21 37 -3 0
-2 -5 1 -11 13 -21 -5 -59 -28 -59 -12 0 -30 -7 -40 -15 -11 -7 -25 -11 -33
-8 -8 3 -14 -1 -14 -8 0 -8 -9 -3 -20 11 -20 25 -16 11 33 -120 3 -8 35 -98
70 -200 36 -102 91 -252 121 -334 31 -82 60 -163 65 -180 5 -17 37 -105 71
-196 60 -163 122 -333 182 -503 36 -99 21 -94 148 -46 41 16 143 53 225 83 83
30 263 96 400 146 307 112 400 146 490 178 39 13 86 30 105 38 19 7 105 38
190 69 85 31 171 62 190 70 37 14 113 42 565 206 154 56 341 124 415 151 211
77 347 126 450 162 52 19 201 73 330 120 288 107 331 122 495 180 72 26 139
51 150 56 11 6 52 21 90 34 125 43 281 107 245 100 -19 -3 -53 -12 -75 -20
-21 -7 -41 -11 -44 -9 -2 3 1 5 8 5 7 0 9 5 5 12 -4 6 -3 8 3 5 5 -3 26 -2 46
4 34 9 37 13 37 48 0 43 -12 53 -58 47 -15 -2 -21 -1 -13 1 8 3 28 14 45 24
21 13 25 19 14 19 -29 0 -20 16 15 28 17 5 25 10 17 11 -8 0 -31 -7 -50 -15z
m-5 -33 c-6 -5 -21 -12 -35 -15 -24 -7 -24 -6 -6 8 21 17 57 23 41 7z m-4944
-184 c-8 -8 -11 -7 -11 4 0 20 13 34 18 19 3 -7 -1 -17 -7 -23z"/>
<path d="M5783 5163 c-13 -2 -23 -8 -23 -13 0 -5 14 -4 30 1 27 10 42 21 23
18 -5 -1 -18 -4 -30 -6z"/>
<path d="M3676 3498 c-10 -57 -20 -116 -22 -133 l-5 -30 184 3 184 3 17 102
c10 56 20 114 23 130 l6 27 -185 0 -185 0 -17 -102z"/>
<path d="M2099 3229 c-277 -65 -469 -303 -469 -581 0 -109 24 -178 85 -246 42
-47 132 -103 186 -116 181 -42 403 -14 546 69 26 16 66 46 90 68 41 37 103
121 103 139 0 4 -77 8 -171 8 l-172 0 -38 -34 c-98 -89 -255 -40 -267 83 l-5
51 354 2 354 3 7 65 c24 244 -90 431 -297 484 -64 17 -244 20 -306 5z m184
-225 c53 -28 77 -65 77 -120 l0 -24 -165 0 c-185 0 -184 -1 -144 70 42 75 158
112 232 74z"/>
<path d="M3362 3221 c-56 -22 -139 -94 -160 -137 -8 -19 -19 -34 -24 -34 -10
0 -11 -9 7 83 8 43 15 81 15 83 0 2 -74 4 -165 4 -123 0 -167 -3 -170 -12 -3
-7 -25 -128 -50 -268 -24 -140 -49 -280 -55 -310 -15 -81 -60 -333 -60 -337 0
-1 83 -3 185 -3 102 0 185 3 185 8 0 45 76 399 94 438 47 103 133 151 252 141
57 -4 64 -3 64 13 0 10 13 92 30 182 16 89 30 164 30 166 0 10 -143 -3 -178
-17z"/>
<path d="M5343 3220 c-97 -25 -177 -68 -251 -135 -52 -46 -118 -153 -149 -240
-24 -70 -28 -95 -28 -195 0 -99 3 -122 23 -165 74 -160 267 -242 505 -214 269
32 449 183 518 433 31 115 25 249 -15 329 -52 101 -152 174 -276 197 -85 16
-246 11 -327 -10z m238 -245 c21 -14 49 -90 49 -135 0 -111 -54 -249 -116
-297 -30 -22 -47 -27 -91 -27 -51 0 -58 3 -89 37 -23 25 -34 47 -35 69 -3 81
3 138 23 203 28 91 94 162 154 167 39 3 83 -4 105 -17z"/>
<path d="M6655 3222 c-63 -22 -123 -60 -170 -109 l-38 -38 7 38 c3 20 9 53 12
72 l6 35 -169 0 -168 0 -24 -132 c-12 -73 -33 -191 -46 -263 -13 -71 -37 -211
-54 -310 -18 -99 -34 -190 -36 -202 l-5 -23 185 0 c102 0 185 2 185 4 0 3 21
121 46 263 62 355 83 393 213 393 74 0 101 -28 101 -105 0 -44 -54 -379 -86
-527 l-6 -28 185 0 185 0 6 28 c3 15 29 158 57 317 41 234 50 303 46 358 -10
122 -68 202 -169 232 -70 20 -200 19 -263 -3z"/>
<path d="M720 3213 c0 -12 81 -488 148 -873 l8 -45 207 0 208 0 234 458 c129
252 235 460 235 463 0 2 -79 3 -176 2 l-176 -3 -69 -155 c-39 -85 -96 -212
-127 -282 -31 -70 -59 -128 -62 -128 -3 0 -16 105 -29 233 -13 127 -26 255
-30 282 l-6 50 -182 3 c-101 1 -183 -1 -183 -5z"/>
<path d="M3625 3208 c-2 -7 -36 -197 -75 -423 -40 -225 -75 -429 -80 -452 l-7
-43 183 0 c182 0 184 0 188 23 3 12 21 112 41 222 19 110 54 309 78 443 l43
242 -183 0 c-138 0 -185 -3 -188 -12z"/>
<path d="M4103 3211 c-5 -3 -17 -53 -27 -111 -10 -58 -20 -115 -23 -127 l-5
-23 231 0 232 0 -109 -142 c-59 -79 -150 -199 -202 -268 -52 -69 -97 -127
-100 -130 -3 -3 -45 -57 -93 -121 l-86 -116 -21 -113 c-11 -62 -20 -115 -20
-117 0 -7 1868 -1 1915 7 48 7 47 7 -35 10 l-85 4 70 6 c57 5 62 7 25 9 -40 1
-43 3 -27 15 11 9 17 27 17 55 0 30 4 41 15 41 11 0 15 11 15 39 0 36 3 40 28
44 16 2 6 5 -28 7 -46 3 -39 5 40 10 110 7 -172 11 -968 14 -281 1 -513 4
-515 7 -2 7 557 748 574 759 5 4 49 220 49 244 0 8 -855 5 -867 -3z"/>
</g>
</svg>
