<?xml version="1.0" standalone="no"?>
<!DOCTYPE svg PUBLIC "-//W3C//DTD SVG 20010904//EN"
 "http://www.w3.org/TR/2001/REC-SVG-20010904/DTD/svg10.dtd">
<svg version="1.0" xmlns="http://www.w3.org/2000/svg"
 width="800.000000pt" height="800.000000pt" viewBox="0 0 800.000000 800.000000"
 preserveAspectRatio="xMidYMid meet">
<metadata>
Created by potrace 1.16, written by Peter Selinger 2001-2019
</metadata>
<g transform="translate(0.000000,800.000000) scale(0.100000,-0.100000)"
fill="#000000" stroke="none">
<path d="M1477 4554 c-14 -15 7 -24 54 -24 l49 0 0 -290 c0 -398 -11 -438
-122 -448 -72 -6 -98 16 -98 81 0 58 -17 79 -60 75 -64 -6 -79 -94 -26 -151
31 -33 117 -51 199 -42 75 9 123 27 160 63 51 48 57 96 57 419 l0 293 55 0
c42 0 55 3 55 15 0 13 -24 15 -158 15 -87 0 -162 -3 -165 -6z"/>
<path d="M2020 4545 c0 -11 12 -15 45 -15 l45 0 0 -338 c0 -380 1 -377 -71
-388 -23 -4 -39 -12 -39 -20 0 -11 33 -14 170 -14 137 0 170 3 170 14 0 8 -16
16 -39 20 -63 10 -71 30 -71 172 l0 121 99 6 c183 12 267 61 291 170 15 65 6
152 -18 189 -53 80 -122 98 -384 98 -169 0 -198 -2 -198 -15z m411 -43 c53
-26 75 -60 85 -129 9 -73 -10 -143 -49 -181 -37 -35 -76 -48 -169 -57 l-68 -7
0 202 0 203 78 -5 c52 -3 93 -12 123 -26z"/>
<path d="M2780 4545 c0 -11 12 -15 50 -15 l50 0 0 -340 0 -341 -25 -24 c-13
-14 -36 -25 -50 -25 -16 0 -25 -6 -25 -15 0 -12 19 -15 109 -15 61 0 113 4
116 10 3 5 -9 16 -27 23 -64 27 -63 21 -66 349 -1 177 1 298 7 298 5 0 20 -28
35 -62 109 -268 265 -613 275 -613 12 0 68 130 221 513 27 67 54 130 59 140 7
12 10 -78 11 -281 l0 -298 -25 -24 c-13 -14 -36 -25 -50 -25 -16 0 -25 -6 -25
-15 0 -13 24 -15 155 -15 131 0 155 2 155 15 0 9 -9 15 -23 15 -37 0 -58 23
-68 71 -4 24 -8 182 -9 351 l0 307 42 3 c23 2 43 9 46 16 3 9 -21 12 -98 12
l-101 0 -27 -62 c-16 -35 -70 -170 -122 -300 -52 -131 -98 -238 -101 -238 -3
0 -63 135 -134 300 l-129 300 -113 0 c-94 0 -113 -3 -113 -15z"/>
<path d="M5404 4330 c-13 -33 -21 -40 -44 -40 -15 0 -33 7 -40 15 -17 21 -104
45 -161 45 -57 0 -125 -23 -157 -53 -57 -52 -82 -144 -62 -226 14 -61 36 -87
96 -116 l47 -23 -55 -16 c-71 -20 -108 -56 -108 -106 0 -48 30 -86 78 -100 20
-6 98 -15 173 -19 177 -11 209 -27 209 -101 0 -83 -166 -143 -292 -106 -69 20
-86 39 -90 101 -3 46 -5 50 -31 53 -41 5 -57 -14 -57 -64 0 -95 99 -142 277
-131 108 6 170 32 217 91 28 34 31 44 31 109 0 130 -39 155 -259 169 -83 5
-156 14 -163 20 -20 16 -15 46 10 62 12 8 63 22 112 31 116 21 184 52 221 100
26 34 29 47 29 109 0 39 -2 79 -5 89 -4 16 2 20 35 23 41 3 85 40 85 70 0 32
-21 54 -50 54 -26 0 -33 -6 -46 -40z m-169 -43 c27 -27 34 -43 40 -94 12 -108
-8 -189 -54 -216 -34 -20 -52 -21 -104 -6 -51 14 -67 52 -67 159 0 91 15 137
55 168 42 33 90 29 130 -11z"/>
<path d="M3970 4338 c-76 -22 -145 -96 -169 -183 -15 -57 -14 -163 4 -222 55
-185 296 -243 435 -104 65 65 84 124 78 245 -3 80 -8 99 -34 145 -61 109 -186
156 -314 119z m168 -44 c43 -30 55 -71 60 -202 9 -232 -25 -302 -148 -302
-113 0 -135 43 -135 260 0 131 2 150 23 191 12 25 32 51 45 57 34 17 129 14
155 -4z"/>
<path d="M5665 4336 c-110 -31 -163 -166 -64 -166 32 0 44 13 57 64 17 61 37
76 99 76 72 0 98 -25 108 -102 12 -96 9 -102 -61 -110 -143 -15 -232 -62 -260
-135 -65 -168 136 -273 284 -148 l33 28 29 -35 c34 -41 75 -53 131 -38 42 12
65 38 75 88 7 36 -6 43 -21 10 -15 -32 -41 -45 -62 -32 -25 16 -32 66 -32 247
-1 183 -10 215 -68 242 -49 23 -183 29 -248 11z m205 -354 c0 -79 -2 -91 -22
-109 -61 -55 -140 -69 -175 -30 -43 47 -35 115 19 165 30 27 112 61 151 62
l27 0 0 -88z"/>
<path d="M4380 4325 c0 -11 12 -15 50 -15 l50 0 0 -230 c0 -217 -1 -231 -20
-250 -11 -11 -33 -20 -50 -20 -23 0 -30 -4 -30 -20 0 -19 7 -20 160 -20 153 0
160 1 160 20 0 16 -7 20 -30 20 -17 0 -39 9 -50 20 -18 18 -20 33 -20 176 0
163 3 179 48 227 36 37 79 37 117 -3 68 -71 146 2 82 76 -20 23 -34 28 -83 32
-50 3 -64 0 -93 -20 -19 -12 -41 -38 -50 -55 -21 -42 -29 -41 -36 5 -13 76 -7
72 -111 72 -77 0 -94 -3 -94 -15z"/>
<path d="M6127 4333 c-16 -16 -4 -23 38 -23 l45 0 0 -226 c0 -133 -4 -233 -10
-244 -6 -11 -26 -22 -46 -26 -25 -5 -34 -11 -32 -23 3 -14 23 -16 141 -19 132
-2 137 -2 137 18 0 11 -7 20 -15 20 -8 0 -24 9 -35 20 -18 18 -20 33 -19 178
0 94 5 171 12 192 27 78 146 108 191 47 19 -26 21 -45 24 -206 4 -192 0 -216
-43 -227 -16 -4 -25 -13 -25 -25 0 -18 9 -19 135 -19 125 0 135 1 135 19 0 13
-10 20 -30 25 -51 10 -60 48 -60 252 0 191 -4 209 -58 249 -32 24 -126 32
-176 15 -20 -6 -53 -31 -75 -56 -43 -49 -43 -49 -57 29 l-6 37 -82 0 c-46 0
-86 -3 -89 -7z"/>
<path d="M1800 3858 c-36 -39 -20 -91 32 -103 21 -5 33 -1 52 19 32 31 33 50
1 81 -30 31 -58 32 -85 3z"/>
<path d="M2520 3860 c-50 -50 9 -132 72 -99 45 24 50 58 13 94 -29 30 -58 32
-85 5z"/>
</g>
</svg>
