<?xml version="1.0" standalone="no"?>
<!DOCTYPE svg PUBLIC "-//W3C//DTD SVG 20010904//EN"
 "http://www.w3.org/TR/2001/REC-SVG-20010904/DTD/svg10.dtd">
<svg version="1.0" xmlns="http://www.w3.org/2000/svg"
 width="492.000000pt" height="492.000000pt" viewBox="0 0 492.000000 492.000000"
 preserveAspectRatio="xMidYMid meet">
<metadata>
Created by potrace 1.16, written by Peter Selinger 2001-2019
</metadata>
<g transform="translate(0.000000,492.000000) scale(0.100000,-0.100000)"
fill="#000000" stroke="none">
<path d="M2275 3696 c-293 -49 -525 -172 -724 -381 -454 -480 -454 -1230 1
-1710 108 -114 217 -194 363 -266 469 -230 1021 -145 1402 215 112 106 193
216 264 361 171 348 171 742 0 1090 -175 357 -486 598 -876 680 -107 23 -327
28 -430 11z m430 -47 c480 -95 866 -492 950 -978 19 -107 19 -315 0 -422 -86
-495 -487 -898 -979 -984 -112 -19 -318 -19 -427 0 -487 85 -880 468 -979 954
-44 215 -22 472 55 673 216 558 791 873 1380 757z"/>
<path d="M2834 3463 c-23 -4 -49 -52 -59 -104 -5 -32 -2 -36 43 -66 60 -41 76
-42 69 -5 -10 51 -13 61 -20 68 -15 15 -6 32 21 37 36 7 39 2 16 -25 l-19 -22
26 20 c15 10 25 22 23 26 -2 4 0 9 6 13 17 11 11 24 -15 31 -13 3 -29 12 -36
20 -12 14 -17 15 -55 7z"/>
<path d="M2770 3435 c-7 -8 -14 -36 -16 -63 l-4 -47 13 47 c8 26 19 54 27 62
7 9 8 16 2 16 -5 0 -15 -7 -22 -15z"/>
<path d="M2747 3280 c-18 -30 -23 -90 -8 -90 5 0 7 -9 4 -20 -3 -11 0 -28 7
-38 7 -9 2 -6 -11 8 l-24 26 -53 -20 -54 -20 49 -13 c26 -7 64 -10 84 -7 21 3
40 1 43 -5 4 -5 23 -8 44 -5 31 3 33 2 12 -5 -14 -5 -19 -9 -12 -10 7 -1 23
-24 34 -51 25 -61 34 -61 13 0 -24 68 -11 58 16 -12 30 -79 39 -108 33 -108
-3 0 -12 15 -20 33 l-15 32 6 -32 7 -33 -161 0 -161 0 0 34 c0 18 -7 39 -15
46 -30 25 -29 51 4 81 29 26 40 49 24 49 -5 -1 -27 -20 -51 -44 l-43 -43 37
-37 c26 -26 34 -40 26 -48 -6 -6 -8 -16 -5 -24 3 -9 -7 -14 -34 -17 -21 -2 72
-4 206 -5 l244 -2 -20 23 c-11 12 -28 57 -38 99 -19 84 -11 132 23 141 16 4
16 5 0 6 -15 1 -35 37 -26 46 2 3 16 -7 31 -20 14 -14 34 -25 44 -25 12 0 8 5
-12 16 -16 8 -40 25 -53 37 -29 27 -62 24 -114 -10 -21 -14 -41 -23 -44 -20
-3 3 13 15 35 28 l41 23 -22 24 c-40 42 -53 44 -71 12z"/>
<path d="M2502 3260 c-42 -26 -68 -87 -63 -147 2 -22 31 -14 41 10 7 17 9 18
9 5 1 -19 18 -23 39 -9 7 4 26 35 41 68 16 33 34 64 40 67 23 15 9 26 -31 26
-25 0 -57 -8 -76 -20z m-10 -67 c-2 -24 -8 -43 -13 -43 -12 0 -11 20 2 59 14
41 17 37 11 -16z"/>
<path d="M1840 3252 c0 -9 14 -29 31 -43 27 -22 30 -30 25 -56 -4 -18 -17 -35
-31 -41 -13 -6 -25 -21 -27 -34 -2 -12 -19 -33 -38 -47 -19 -13 -27 -21 -17
-18 14 5 17 0 17 -32 0 -50 34 -83 86 -83 50 0 84 37 84 92 0 47 -35 80 -86
80 -22 0 -34 5 -34 14 0 16 20 26 58 27 17 1 21 3 10 6 -18 4 -26 33 -10 33
13 0 43 -36 36 -42 -8 -9 91 -28 145 -28 33 0 51 -5 54 -14 3 -8 18 -16 32
-18 25 -3 25 -4 -17 -32 -24 -16 -35 -26 -25 -23 13 5 17 1 17 -18 0 -38 39
-76 79 -77 45 -1 84 40 79 86 -1 17 -7 34 -13 38 -18 14 15 9 44 -6 31 -16 47
-10 52 19 3 12 18 25 39 32 59 20 -4 16 -90 -7 -81 -21 -98 -20 -53 3 19 10
40 39 67 94 21 43 46 87 55 98 l16 20 -24 -20 c-13 -11 -39 -51 -58 -88 -27
-55 -41 -71 -69 -83 -55 -23 -95 -5 -139 61 -37 57 -69 85 -95 85 -8 -1 -2 -6
13 -13 25 -10 15 -12 -67 -10 -98 2 -136 13 -136 39 0 13 4 13 31 -1 18 -10
46 -15 72 -12 l42 4 -47 1 c-25 1 -48 7 -50 13 -2 7 -16 13 -31 15 -20 2 -27
-2 -27 -14z m60 -202 c0 -5 -4 -10 -10 -10 -5 0 -10 5 -10 10 0 6 5 10 10 10
6 0 10 -4 10 -10z m484 -4 c-7 -19 -35 -29 -47 -17 -7 7 -6 12 4 15 13 4 41
14 46 15 1 1 0 -5 -3 -13z m-459 -25 c-2 -5 3 -8 13 -7 13 1 17 -6 15 -32 -2
-49 -51 -98 -54 -54 -1 16 -2 16 -6 0 -6 -25 -27 -22 -60 6 l-28 25 25 10 c24
9 24 10 3 10 -13 1 -23 6 -23 11 0 24 42 6 53 -22 5 -15 10 -16 32 -6 25 11
34 28 15 28 -5 0 -9 5 -7 12 1 8 -12 12 -40 11 -24 -1 -43 1 -43 5 0 5 25 9
55 10 31 0 53 -3 50 -7z m345 -1 c12 -8 12 -10 -5 -10 -18 0 -17 -2 4 -13 33
-16 35 -29 11 -60 -25 -31 -40 -34 -41 -9 -1 16 -2 16 -6 0 -2 -10 -10 -18
-18 -18 -18 0 -38 27 -29 41 4 8 3 9 -4 5 -7 -4 -12 -1 -12 8 0 9 9 16 21 16
11 0 18 -4 15 -9 -8 -13 23 -23 47 -15 16 5 17 8 6 15 -12 7 -11 9 1 9 13 0
13 1 0 10 -8 6 -32 8 -52 4 -23 -3 -38 -2 -38 4 0 8 43 24 80 31 3 0 12 -4 20
-9z"/>
<path d="M2610 3241 c-26 -38 -53 -101 -45 -109 10 -10 143 39 149 55 4 8 6
31 6 51 0 27 -3 33 -9 22 -6 -8 -8 -28 -5 -45 4 -28 3 -27 -7 5 -18 59 -55 67
-89 21z"/>
<path d="M3100 3253 c-24 -12 -24 -14 3 -17 18 -2 15 -51 -3 -51 -8 0 -20 -11
-26 -25 -15 -32 -27 -111 -14 -90 5 8 12 11 16 7 4 -4 13 -2 20 4 10 8 13 6
14 -8 1 -50 5 -61 18 -55 10 3 13 15 9 36 -3 18 1 39 8 49 13 18 10 52 -7 73
-5 7 -4 23 2 38 5 15 10 31 10 36 0 15 -25 17 -50 3z"/>
<path d="M2509 3097 c-31 -8 -39 -17 -50 -51 -8 -23 -14 -62 -14 -88 0 -25 -4
-44 -9 -41 -4 3 -6 33 -3 67 4 40 3 50 -3 31 -4 -16 -8 -47 -9 -67 l-1 -37
-67 -4 c-61 -3 -58 -3 24 -5 l92 -2 -6 34 c-8 54 3 82 54 131 50 47 50 49 -8
32z"/>
<path d="M3066 3035 c-4 -11 -2 -22 6 -26 17 -11 20 -6 10 21 -8 21 -9 22 -16
5z"/>
<path d="M3031 3023 c-1 -19 10 -43 19 -38 4 2 7 -12 6 -33 -1 -35 -3 -37 -41
-43 -38 -7 -38 -7 10 -5 l50 1 -1 39 c-1 22 -8 44 -16 50 -8 6 -17 18 -21 26
-3 8 -6 10 -6 3z"/>
<path d="M3097 2993 c-11 -10 -8 -25 3 -18 13 8 13 1 -4 -38 l-13 -33 36 0
c20 -1 28 1 19 3 -13 3 -18 14 -18 36 0 35 -12 61 -23 50z"/>
<path d="M1788 2903 c6 -2 18 -2 25 0 6 3 1 5 -13 5 -14 0 -19 -2 -12 -5z"/>
<path d="M2003 2903 c31 -2 83 -2 115 0 31 2 5 3 -58 3 -63 0 -89 -1 -57 -3z"/>
<path d="M1780 2874 c0 -12 106 -14 685 -14 608 0 685 2 685 15 0 14 -76 15
-685 14 -578 -1 -685 -3 -685 -15z"/>
<path d="M1715 2810 c-18 -20 -17 -20 38 -20 l55 0 -11 -30 c-9 -24 -22 -33
-62 -46 -70 -23 -95 -40 -95 -68 0 -13 10 -30 23 -39 17 -12 20 -19 12 -32
-15 -24 -28 -21 -46 11 -21 38 -72 42 -77 6 -5 -33 15 -52 54 -52 28 0 34 -4
34 -20 0 -26 -22 -35 -48 -21 -16 8 -25 7 -43 -8 -21 -16 -22 -22 -12 -62 l11
-44 -2 50 -1 50 49 0 c39 0 50 4 57 20 5 13 8 14 8 5 0 -8 -6 -24 -14 -34 -8
-11 -15 -16 -15 -10 0 5 -5 1 -11 -8 -5 -10 -16 -15 -24 -12 -8 4 -15 1 -15
-6 0 -6 -4 -8 -10 -5 -13 8 -13 8 5 -40 8 -22 14 -34 15 -27 0 6 5 12 10 12
16 0 12 -56 -5 -70 -8 -7 -15 -19 -15 -27 0 -8 -4 -11 -10 -8 -5 3 -10 -3 -10
-14 0 -30 5 -27 38 22 23 33 28 50 25 78 -3 23 0 40 8 44 9 6 11 -1 6 -29 -7
-46 6 -39 34 17 12 26 14 34 4 23 -8 -11 -15 -25 -16 -30 -1 -6 -5 5 -9 24 -5
20 -4 41 1 50 7 11 8 9 3 -9 -4 -17 -3 -22 7 -19 9 3 14 19 13 44 -1 21 1 30
3 20 4 -15 7 -16 14 -5 6 9 7 2 4 -21 -5 -32 -4 -33 6 -12 16 29 24 28 84 -10
l50 -31 -30 -13 c-25 -11 -32 -10 -41 2 -10 13 -13 12 -18 -2 -4 -10 -1 -21 6
-26 7 -4 10 -8 6 -8 -3 0 -13 -3 -21 -6 -11 -4 -17 2 -20 18 -4 23 -4 23 -6 1
-2 -32 32 -47 71 -34 44 16 56 14 63 -9 4 -13 19 -23 37 -27 19 -4 33 -14 39
-31 11 -27 9 -30 -23 -46 -12 -6 -23 -18 -25 -26 -3 -10 -1 -9 7 3 13 20 39
22 65 4 12 -10 14 -16 7 -21 -7 -4 -12 -18 -12 -32 0 -24 -14 -32 -25 -14 -3
6 -18 -3 -32 -20 -13 -16 -32 -30 -41 -30 -13 1 -9 8 14 29 18 16 29 34 25 40
-5 7 -12 2 -21 -15 -8 -14 -28 -33 -45 -42 l-30 -17 38 -3 c25 -2 45 2 57 13
12 10 24 13 39 7 21 -7 20 -9 -15 -42 l-37 -35 22 40 c21 37 22 38 2 15 -27
-32 -37 -68 -22 -83 8 -8 11 -7 11 4 0 8 18 33 41 54 36 36 40 44 35 76 -4 26
-1 40 9 49 13 11 15 4 15 -52 0 -76 20 -159 56 -229 14 -28 24 -52 22 -52 -30
-15 -44 -28 -48 -48 -4 -18 -14 -25 -35 -27 -31 -4 -55 -18 -55 -33 0 -5 11
-2 24 7 17 10 30 13 41 7 13 -8 9 -14 -22 -36 -45 -32 -35 -36 13 -6 38 23 46
10 17 -30 -12 -18 -13 -23 -2 -19 8 2 21 17 29 34 13 24 20 28 47 26 23 -2 35
3 46 18 15 21 15 21 83 -24 37 -25 71 -46 75 -46 3 0 24 -8 45 -17 43 -19 65
-22 139 -23 l51 0 -5 -42 c-5 -41 -6 -42 -9 -9 -3 29 -6 32 -28 28 -14 -2 -24
1 -24 7 0 6 -4 5 -9 -3 -6 -9 -11 -10 -15 -2 -4 6 -18 11 -32 11 -23 0 -28 -9
-25 -37 1 -6 -7 -11 -18 -10 -18 1 -18 3 -5 32 l15 30 -20 -25 c-11 -14 -21
-19 -21 -12 0 7 -4 11 -9 7 -6 -3 -15 4 -21 15 -8 15 -8 20 1 20 29 0 -3 12
-42 15 -30 3 -39 2 -29 -5 12 -8 12 -10 -4 -16 -14 -5 -17 -14 -12 -36 4 -21
2 -28 -7 -26 -17 6 -21 46 -5 66 12 15 11 16 -5 3 -12 -10 -17 -25 -15 -45 2
-25 8 -32 31 -34 21 -3 27 1 27 17 0 10 -6 21 -12 23 -8 3 -5 9 9 16 12 7 29
9 37 6 13 -5 12 -9 -7 -24 -18 -15 -20 -21 -9 -31 9 -10 15 -10 24 -1 9 9 20
4 49 -24 46 -45 83 -48 116 -10 28 33 31 24 3 -11 -24 -31 -25 -43 -4 -43 9 0
24 -10 34 -22 l17 -22 12 22 c6 12 18 22 26 22 20 0 19 19 -2 44 -18 21 -18
21 3 4 35 -30 80 -23 118 18 21 23 36 32 40 25 10 -16 23 -14 30 5 4 10 -1 22
-11 30 -17 12 -17 13 0 19 21 9 54 -14 36 -26 -18 -11 -3 -39 21 -39 28 0 46
40 31 69 -7 11 -16 21 -22 21 -5 0 -3 -10 6 -23 13 -20 13 -26 1 -43 -8 -10
-18 -16 -22 -12 -4 4 -1 15 7 24 11 14 10 19 -9 34 -15 13 -18 20 -10 24 7 3
-7 3 -32 1 -54 -5 -47 -2 -54 -21 -5 -14 -4 -15 9 -4 19 16 19 1 0 -24 -11
-14 -15 -16 -15 -5 0 10 -2 11 -8 2 -5 -8 -13 -2 -24 18 -12 20 -13 29 -5 29
23 0 122 51 162 84 l40 33 19 -24 c15 -20 25 -24 51 -20 29 5 33 2 44 -29 9
-24 18 -34 34 -34 l21 0 -22 16 c-12 8 -22 24 -22 35 0 20 0 20 38 -1 l37 -22
-35 30 c-30 26 -33 32 -17 37 10 4 28 0 42 -9 14 -9 25 -12 25 -6 0 17 -48 42
-68 36 -16 -5 -21 0 -26 25 -4 20 -13 33 -27 36 -23 6 -23 8 17 103 21 49 29
87 32 153 2 48 8 87 13 87 10 0 12 -12 9 -53 -1 -20 10 -40 40 -73 22 -24 38
-49 34 -56 -4 -6 -1 -9 7 -6 19 6 24 38 6 38 -14 0 -53 36 -59 55 -8 25 14 17
37 -14 14 -19 25 -31 25 -25 0 5 -9 20 -20 34 -27 34 -25 48 3 22 16 -15 35
-22 63 -21 34 0 37 2 20 12 -46 30 -59 46 -65 83 -5 29 -13 42 -34 52 -15 7
-27 18 -27 25 0 6 -7 1 -16 -11 -19 -28 -41 -28 -49 -1 -9 27 -2 32 40 33 19
1 37 7 40 14 2 6 13 12 24 12 11 0 30 14 43 30 22 28 26 30 56 19 32 -11 82
-6 82 9 0 9 -42 8 -57 -1 -7 -4 -14 -3 -18 3 -3 5 -5 10 -3 11 2 0 11 2 21 4
24 5 24 5 16 40 l-7 30 -1 -29 c-1 -26 -3 -28 -28 -21 -47 11 -46 21 3 49 57
32 58 32 73 4 11 -22 11 -22 6 5 -7 36 3 35 16 -3 6 -16 15 -30 20 -30 5 0 9
-12 9 -27 l-1 -28 -15 28 c-9 16 -18 26 -21 23 -5 -5 45 -86 53 -86 1 0 0 16
-3 37 -5 27 -3 34 6 28 8 -4 11 -21 8 -44 -3 -28 2 -45 25 -78 16 -24 31 -43
33 -43 8 0 -21 66 -32 73 -7 4 -13 24 -13 44 0 33 1 35 14 18 12 -17 13 -17
19 7 4 15 10 34 14 44 4 12 3 15 -5 10 -7 -4 -12 -3 -12 3 0 6 -7 8 -15 5 -8
-4 -15 -1 -15 5 0 6 -5 11 -11 11 -15 0 -38 30 -39 49 0 10 4 9 14 -5 11 -14
27 -19 58 -19 39 0 43 -2 49 -30 7 -30 7 -30 8 -3 1 32 -25 62 -48 52 -38 -16
-51 -16 -57 0 -9 25 15 46 52 46 43 0 60 27 38 58 -20 30 -40 28 -61 -5 -25
-42 -44 -55 -60 -42 -19 16 -16 29 13 56 24 22 25 26 11 46 -13 20 -104 63
-114 54 -2 -2 20 -13 49 -23 60 -22 73 -48 38 -79 -11 -10 -20 -24 -20 -32 0
-8 -4 -12 -9 -8 -5 3 -8 28 -7 55 3 47 2 50 -21 50 -26 0 -78 23 -105 48 -30
26 -20 32 17 10 20 -11 39 -18 42 -14 4 3 2 6 -4 6 -6 0 -16 14 -22 30 l-10
30 62 0 62 1 -24 19 c-23 19 -42 20 -751 20 -714 0 -727 0 -745 -20z m50 0
c-3 -5 -13 -10 -21 -10 -8 0 -12 5 -9 10 3 6 13 10 21 10 8 0 12 -4 9 -10z
m60 0 c-3 -5 -13 -10 -21 -10 -8 0 -12 5 -9 10 3 6 13 10 21 10 8 0 12 -4 9
-10z m60 0 c-3 -5 -13 -10 -21 -10 -8 0 -12 5 -9 10 3 6 13 10 21 10 8 0 12
-4 9 -10z m60 0 c-3 -5 -13 -10 -21 -10 -8 0 -12 5 -9 10 3 6 13 10 21 10 8 0
12 -4 9 -10z m60 0 c-3 -5 -10 -10 -16 -10 -5 0 -9 5 -9 10 0 6 7 10 16 10 8
0 12 -4 9 -10z m60 0 c-3 -5 -10 -10 -16 -10 -5 0 -9 5 -9 10 0 6 7 10 16 10
8 0 12 -4 9 -10z m60 0 c-3 -5 -10 -10 -16 -10 -5 0 -9 5 -9 10 0 6 7 10 16
10 8 0 12 -4 9 -10z m60 0 c-3 -5 -10 -10 -16 -10 -5 0 -9 5 -9 10 0 6 7 10
16 10 8 0 12 -4 9 -10z m60 0 c-3 -5 -13 -10 -21 -10 -8 0 -12 5 -9 10 3 6 13
10 21 10 8 0 12 -4 9 -10z m60 0 c-3 -5 -13 -10 -21 -10 -8 0 -12 5 -9 10 3 6
13 10 21 10 8 0 12 -4 9 -10z m60 0 c-3 -5 -13 -10 -21 -10 -8 0 -12 5 -9 10
3 6 13 10 21 10 8 0 12 -4 9 -10z m65 6 c0 -2 -7 -6 -15 -10 -8 -3 -15 -1 -15
4 0 6 7 10 15 10 8 0 15 -2 15 -4z m50 -22 c0 -8 -7 -14 -15 -14 -15 0 -21 21
-9 33 10 9 24 -2 24 -19z m50 16 c0 -5 -4 -10 -9 -10 -6 0 -13 5 -16 10 -3 6
1 10 9 10 9 0 16 -4 16 -10z m55 0 c8 -13 -5 -13 -25 0 -13 8 -13 10 2 10 9 0
20 -4 23 -10z m65 0 c0 -13 -11 -13 -30 0 -12 8 -11 10 8 10 12 0 22 -4 22
-10z m60 0 c0 -13 -11 -13 -30 0 -12 8 -11 10 8 10 12 0 22 -4 22 -10z m60 0
c0 -13 -11 -13 -30 0 -12 8 -11 10 8 10 12 0 22 -4 22 -10z m60 0 c0 -13 -11
-13 -30 0 -12 8 -11 10 8 10 12 0 22 -4 22 -10z m60 0 c0 -13 -11 -13 -30 0
-12 8 -11 10 8 10 12 0 22 -4 22 -10z m60 0 c0 -13 -11 -13 -30 0 -12 8 -11
10 8 10 12 0 22 -4 22 -10z m60 0 c0 -13 -11 -13 -30 0 -12 8 -11 10 8 10 12
0 22 -4 22 -10z m60 0 c0 -5 -4 -10 -9 -10 -6 0 -13 5 -16 10 -3 6 1 10 9 10
9 0 16 -4 16 -10z m60 0 c0 -5 -4 -10 -9 -10 -6 0 -13 5 -16 10 -3 6 1 10 9
10 9 0 16 -4 16 -10z m60 0 c0 -5 -4 -10 -9 -10 -6 0 -13 5 -16 10 -3 6 1 10
9 10 9 0 16 -4 16 -10z m-1213 -39 c-1 -8 4 -16 11 -18 7 -3 11 0 10 7 -6 23
28 35 59 20 46 -24 49 -24 34 -7 -12 15 -11 17 3 17 11 0 15 -8 14 -25 -3 -30
0 -30 -40 -5 -40 24 -48 25 -48 5 0 -8 -5 -15 -11 -15 -6 0 8 -18 32 -39 53
-47 66 -44 19 4 -18 19 -31 37 -28 40 9 9 93 -59 96 -78 6 -28 -40 -17 -82 21
-73 64 -154 91 -201 66 -33 -17 -49 -9 -21 11 26 20 157 16 153 -4z m196 12
c3 8 14 2 29 -17 15 -17 30 -26 36 -22 7 4 12 3 12 -2 0 -5 3 -24 6 -41 5 -24
3 -31 -9 -31 -10 0 -18 12 -23 34 -5 30 -21 47 -46 50 -3 1 -10 4 -14 8 -4 4
-13 3 -20 -3 -8 -7 -14 -7 -19 1 -11 18 4 31 25 20 13 -7 20 -6 23 3z m59 -8
c0 -5 -5 -11 -11 -13 -6 -2 -11 4 -11 13 0 9 5 15 11 13 6 -2 11 -8 11 -13z
m184 -9 c-3 -12 -6 -32 -7 -46 -1 -23 -2 -23 -10 5 -8 29 -8 29 -6 -7 2 -20
-1 -34 -6 -31 -5 3 -7 26 -4 51 3 27 1 39 -4 31 -5 -8 -9 -26 -9 -41 0 -16 -6
-28 -13 -28 -19 0 -85 48 -97 71 -11 20 -9 20 75 18 82 -3 86 -4 81 -23z m254
12 c0 -9 3 -9 12 0 16 16 28 15 28 -3 0 -10 -8 -14 -22 -11 -15 2 -36 -8 -61
-30 -45 -41 -67 -44 -67 -8 0 14 -5 34 -10 45 -10 18 -7 19 55 19 44 0 65 -4
65 -12z m80 2 c0 -7 6 -7 19 0 13 7 22 7 26 0 9 -15 -4 -32 -18 -23 -7 4 -16
8 -22 8 -16 2 -45 -27 -45 -45 0 -21 -26 -57 -35 -48 -13 12 4 78 19 72 7 -3
18 7 24 21 11 25 32 34 32 15z m85 0 c-3 -5 -10 -10 -16 -10 -5 0 -9 5 -9 10
0 6 7 10 16 10 8 0 12 -4 9 -10z m84 1 c8 -5 10 -14 6 -21 -5 -8 -3 -11 6 -8
8 3 13 12 12 19 -4 22 140 25 157 4 19 -23 7 -27 -26 -10 -36 19 -72 12 -144
-27 -35 -18 -46 -22 -30 -9 14 11 19 21 13 21 -7 0 -13 7 -13 15 0 8 -2 15 -5
15 -13 0 -61 -29 -77 -47 -10 -10 -32 -20 -49 -21 -28 -2 -30 -1 -19 14 8 9
23 14 37 11 13 -2 23 -1 23 3 0 11 62 50 80 50 8 0 21 -4 29 -9z m-389 -39 c0
-21 -2 -24 -10 -12 -13 20 -13 53 0 45 6 -3 10 -18 10 -33z m-646 5 c43 7 110
-23 165 -72 33 -30 39 -40 31 -55 -6 -10 -7 -26 -4 -34 5 -12 -1 -16 -24 -16
-26 0 -34 -6 -48 -35 -13 -28 -14 -38 -4 -50 10 -12 3 -14 -49 -12 -56 1 -61
3 -61 23 0 44 -18 74 -44 74 -14 0 -27 -4 -30 -9 -3 -4 6 -6 19 -3 18 3 25 0
25 -11 0 -9 -5 -19 -12 -23 -7 -5 -8 -3 -3 5 4 7 -5 5 -21 -5 -27 -18 -28 -18
-21 -1 4 11 3 16 -3 12 -6 -3 -10 -13 -10 -21 0 -10 7 -13 25 -8 23 6 25 3 25
-25 0 -17 -3 -31 -7 -31 -10 0 -97 52 -113 69 -13 13 -13 14 2 8 13 -5 25 5
47 36 28 41 85 166 79 172 -2 2 -16 -8 -33 -22 -27 -22 -27 -24 -5 -13 24 11
24 11 -3 -14 -32 -29 -57 -36 -36 -9 12 15 12 16 -4 10 -10 -4 -29 -7 -41 -7
-20 0 -22 -5 -20 -47 1 -27 -2 -56 -7 -65 -8 -14 -6 -17 8 -15 10 2 29 9 43
16 24 13 24 12 8 -4 -9 -10 -32 -19 -52 -20 -33 -3 -34 -2 -24 21 10 20 8 28
-11 48 -37 39 -24 57 57 87 40 15 83 34 95 42 12 8 23 11 25 7 2 -5 18 -6 36
-3z m618 -12 c11 -14 -1 -25 -28 -25 -20 0 -24 -5 -24 -32 0 -18 -5 -40 -11
-48 -8 -11 -9 -3 -6 33 3 26 1 50 -4 52 -4 3 -6 11 -3 18 5 14 66 16 76 2z
m358 -30 c-49 -50 -60 -54 -60 -26 0 24 55 71 83 71 18 0 15 -6 -23 -45z m195
37 c6 -4 24 -33 40 -64 17 -35 35 -58 44 -58 14 1 14 2 -1 14 -10 7 -18 16
-18 20 0 10 18 7 32 -6 7 -7 19 -13 27 -13 8 0 16 -7 19 -15 3 -12 2 -12 -8
-3 -18 17 -44 5 -29 -13 14 -17 -2 -19 -19 -2 -21 21 -13 -6 13 -44 18 -27 30
-36 43 -31 15 6 15 5 2 -8 -16 -17 -96 -69 -105 -69 -3 0 -5 16 -5 36 0 29 3
35 16 30 14 -5 15 -4 4 9 -11 13 -14 13 -29 -3 -9 -10 -13 -13 -8 -8 11 15 9
28 -4 20 -8 -5 -8 -1 0 14 6 11 16 23 23 25 9 4 7 6 -3 6 -24 1 -40 -22 -46
-66 l-5 -38 -59 -1 c-53 -2 -58 0 -49 16 7 12 5 27 -6 49 -12 24 -22 31 -45
31 -16 0 -29 5 -29 12 0 6 -8 4 -20 -7 -11 -10 -26 -15 -36 -11 -15 6 -14 9 7
32 12 13 28 23 35 20 7 -3 10 2 7 13 -9 35 117 120 177 121 14 0 30 -4 35 -8z
m-885 -17 c10 -12 9 -15 -8 -15 -11 0 -25 7 -32 15 -10 12 -9 15 8 15 11 0 25
-7 32 -15z m710 -18 c0 -2 -12 -14 -27 -28 l-28 -24 24 28 c23 25 31 32 31 24z
m273 -34 c3 -5 -5 -8 -18 -8 -13 0 -21 2 -19 4 2 2 -4 13 -13 24 -18 19 -18
20 14 3 17 -9 34 -19 36 -23z m-674 20 c0 -5 -4 -17 -9 -28 -8 -18 -9 -17 -9
8 -1 15 4 27 9 27 6 0 10 -3 9 -7z m-296 -37 c15 -18 23 -36 20 -39 -10 -11
-63 34 -63 54 0 28 14 23 43 -15z m598 -3 c-15 -30 -40 -48 -51 -37 -6 6 1 22
17 42 27 36 54 31 34 -5z m-1036 7 c-3 -5 -10 -10 -16 -10 -5 0 -9 5 -9 10 0
6 7 10 16 10 8 0 12 -4 9 -10z m55 -10 c-6 -11 -16 -21 -23 -22 -7 0 -16 -2
-22 -2 -5 -1 -16 -5 -24 -10 -9 -6 -12 -5 -9 5 3 8 11 14 19 14 8 0 25 8 39
18 31 22 33 21 20 -3z m1400 10 c0 -5 -4 -10 -9 -10 -6 0 -13 5 -16 10 -3 6 1
10 9 10 9 0 16 -4 16 -10z m-907 -20 c24 -12 32 -11 63 3 19 10 40 15 45 11
17 -10 0 -21 -42 -28 -23 -4 -66 -18 -96 -32 -30 -14 -56 -24 -59 -21 -7 7 7
37 17 37 5 0 14 12 19 26 6 14 13 24 18 22 4 -2 19 -10 35 -18z m282 3 c34
-16 37 -16 67 2 24 14 33 15 36 5 3 -7 13 -21 23 -31 11 -11 19 -26 19 -34 0
-13 -6 -13 -37 3 -38 19 -84 35 -136 46 -15 4 -25 11 -22 16 8 13 8 13 50 -7z
m-415 -56 c0 -6 -11 0 -25 13 -14 13 -25 28 -25 33 0 6 11 0 25 -13 14 -13 25
-28 25 -33z m637 15 c-15 -15 -27 -21 -27 -13 0 14 42 52 49 45 3 -3 -7 -17
-22 -32z m-1007 9 c0 -5 -7 -12 -16 -15 -24 -9 -28 -7 -14 9 14 17 30 20 30 6z
m339 -14 c18 -20 19 -26 8 -35 -11 -9 -19 -6 -36 12 -13 14 -20 29 -16 35 9
16 19 13 44 -12z m489 -8 c191 -65 312 -242 312 -454 -1 -233 -166 -429 -395
-467 -300 -50 -576 233 -528 542 27 176 158 332 320 385 29 9 62 15 74 13 33
-5 34 -26 2 -31 -15 -2 13 -4 62 -4 50 0 77 2 60 6 -16 3 -31 14 -33 23 -3 14
3 16 35 11 21 -3 62 -14 91 -24z m-1018 1 c0 -5 -5 -12 -11 -16 -14 -8 -33 11
-25 25 7 11 36 4 36 -9z m1768 3 c-4 -22 -22 -20 -26 1 -2 10 3 16 13 16 10 0
15 -7 13 -17z m-1191 -50 c-27 -27 -41 -4 -15 24 20 21 23 22 26 8 2 -10 -3
-24 -11 -32z m593 25 c10 -13 16 -26 13 -30 -8 -14 -43 12 -43 32 0 26 8 25
30 -2z m409 -2 c12 -15 28 -16 47 -3 7 4 14 1 17 -7 8 -20 -60 -14 -81 8 -9 9
-11 16 -5 16 6 0 16 -6 22 -14z m-1109 -21 c9 -11 10 -19 3 -26 -13 -13 -53 9
-53 28 0 18 35 16 50 -2z m840 7 c0 -5 -9 -17 -20 -27 -26 -23 -52 -6 -30 20
13 16 50 21 50 7z m-866 -47 c14 -11 17 -18 9 -26 -13 -13 -53 9 -53 28 0 17
20 16 44 -2z m886 6 c0 -6 -10 -17 -22 -25 -29 -21 -51 -3 -22 19 22 16 44 19
44 6z m-820 -31 c-23 -33 -40 -39 -40 -15 0 8 5 15 10 15 6 0 10 7 10 15 0 8
9 15 21 15 l20 0 -21 -30z m730 16 c0 -8 5 -16 12 -18 6 -2 9 -10 7 -16 -3 -8
-15 -2 -34 18 -27 29 -28 30 -7 30 12 0 22 -6 22 -14z m237 -21 c0 -8 -4 -12
-9 -9 -5 3 -6 10 -3 15 9 13 12 11 12 -6z m203 -26 c0 -6 -4 -7 -10 -4 -5 3
-10 11 -10 16 0 6 5 7 10 4 6 -3 10 -11 10 -16z m-1268 -3 c15 -11 15 -16 4
-31 -11 -15 -17 -16 -49 -6 -35 12 -46 29 -30 44 11 11 57 7 75 -7z m986 -8
c2 -12 -8 -20 -35 -27 -32 -9 -40 -8 -50 6 -10 13 -9 19 5 30 24 18 76 12 80
-9z m-1377 -21 c-8 -8 -11 -7 -11 4 0 9 3 19 7 23 4 4 9 2 11 -4 3 -7 -1 -17
-7 -23z m1689 7 c0 -8 -4 -12 -10 -9 -5 3 -10 13 -10 21 0 8 5 12 10 9 6 -3
10 -13 10 -21z m-1714 -21 c-10 -10 -19 5 -10 18 6 11 8 11 12 0 2 -7 1 -15
-2 -18z m1427 2 c-21 -16 -28 -12 -20 9 4 9 13 13 22 10 14 -6 13 -8 -2 -19z
m-1095 -3 c2 -7 -2 -10 -12 -6 -9 3 -16 11 -16 16 0 13 23 5 28 -10z m121 -3
c-7 -14 -14 -18 -21 -11 -13 13 -2 32 18 32 12 0 13 -4 3 -21z m851 -1 c0 -19
-2 -20 -10 -8 -13 19 -13 30 0 30 6 0 10 -10 10 -22z m440 12 c0 -5 -4 -10
-10 -10 -5 0 -10 5 -10 10 0 6 5 10 10 10 6 0 10 -4 10 -10z m-288 -42 c-6 -6
-19 -7 -29 -4 -16 7 -16 9 7 21 26 14 41 2 22 -17z m-1158 16 c9 -3 16 -12 16
-20 0 -17 -12 -18 -28 -2 -22 22 -16 33 12 22z m72 -22 c6 -4 14 -22 17 -40 6
-31 6 -32 -21 -26 -42 10 -56 27 -43 53 12 22 28 26 47 13z m1045 -13 c13 -25
-1 -43 -42 -53 -25 -5 -27 -4 -25 27 2 50 45 67 67 26z m-996 -19 c-5 -16 -10
-19 -18 -11 -7 7 -6 15 3 26 17 20 24 13 15 -15z m917 -12 c-8 -8 -12 -9 -12
-1 0 6 -3 20 -6 30 -7 17 -6 17 12 1 14 -14 16 -20 6 -30z m-934 -42 c2 -3 1
-14 -3 -26 -5 -16 -12 -19 -28 -14 -27 8 -23 4 -32 33 -7 23 -6 24 26 17 18
-3 34 -8 37 -10z m1050 -74 c2 -13 -2 -30 -8 -38 -10 -11 -9 -14 2 -14 8 0 24
-11 36 -25 15 -18 18 -25 8 -25 -8 0 -28 16 -45 35 -19 22 -31 30 -31 20 0 -8
-4 -15 -10 -15 -5 0 -10 11 -10 24 0 14 -5 28 -12 32 -7 5 -5 11 8 21 27 20
58 12 62 -15z m-981 -402 c-14 -11 -28 -20 -31 -20 -4 0 -2 9 4 20 6 11 20 20
32 20 20 0 19 -1 -5 -20z m830 5 c9 -24 0 -25 -27 -5 l-25 20 23 0 c12 0 25
-7 29 -15z m-17 -37 c0 -12 -14 -10 -28 4 -19 19 -14 29 8 16 11 -7 20 -16 20
-20z m-790 7 c-7 -8 -19 -15 -27 -15 -13 0 -13 3 -3 15 7 8 19 15 27 15 13 0
13 -3 3 -15z m501 -143 c14 -12 20 -25 16 -35 -9 -25 -24 -21 -23 6 1 29 -42
37 -61 11 -7 -10 -13 -13 -13 -6 0 11 38 42 51 42 4 0 17 -8 30 -18z m-186
-52 c0 -20 -6 -26 -29 -28 -16 -2 -33 1 -39 7 -8 8 -3 11 17 11 23 0 26 3 21
21 -6 17 -3 20 12 17 12 -2 18 -12 18 -28z m163 13 c-2 -12 4 -19 20 -21 32
-5 17 -22 -19 -22 -31 0 -46 19 -35 45 8 21 38 19 34 -2z m-88 -17 c0 -13 10
-36 22 -52 21 -26 21 -27 3 -20 -25 11 -35 11 -63 2 l-22 -7 25 37 c27 39 32
60 13 48 -7 -4 -8 -3 -4 4 12 20 26 13 26 -12z"/>
<path d="M3125 2536 c10 -14 19 -26 22 -26 7 0 -17 39 -28 46 -6 3 -3 -5 6
-20z"/>
<path d="M2348 2563 c7 -3 16 -2 19 1 4 3 -2 6 -13 5 -11 0 -14 -3 -6 -6z"/>
<path d="M2568 2563 c7 -3 16 -2 19 1 4 3 -2 6 -13 5 -11 0 -14 -3 -6 -6z"/>
<path d="M2274 2537 c-74 -40 -121 -81 -157 -137 -38 -58 -67 -121 -67 -142 0
-7 11 12 24 43 12 31 33 71 46 89 23 32 24 32 31 11 6 -15 17 -21 39 -21 l30
0 0 -245 0 -245 -31 0 c-22 0 -32 -5 -36 -20 -5 -19 -6 -19 -24 3 -11 12 -7 1
8 -25 16 -25 35 -49 43 -52 8 -2 31 -14 50 -27 l35 -22 -30 26 -30 26 88 1 87
0 0 45 c0 45 0 45 -35 45 l-35 0 0 110 0 110 155 0 155 0 0 -110 0 -110 -35 0
c-35 0 -35 0 -35 -45 l0 -45 91 0 91 0 -23 -21 -24 -21 25 16 c14 9 35 21 48
26 12 5 22 16 22 24 0 7 7 20 16 27 18 15 74 109 74 124 0 6 -14 -14 -30 -44
-44 -79 -52 -87 -62 -62 -5 15 -16 21 -38 21 l-30 0 0 245 0 245 35 0 c32 0
35 3 35 28 l0 27 26 -30 c19 -22 18 -19 -5 15 -28 40 -141 130 -164 130 -5 0
16 -17 47 -37 31 -21 56 -41 56 -45 0 -4 -43 -8 -95 -8 l-95 0 0 -40 c0 -39 1
-40 35 -40 l35 0 0 -90 0 -90 -155 0 -155 0 0 90 0 90 35 0 c34 0 35 1 35 40
l0 40 -95 0 c-52 0 -95 3 -95 8 0 9 50 42 105 71 22 11 36 20 30 20 -5 0 -28
-10 -51 -22z"/>
<path d="M2847 2335 c9 -19 18 -33 21 -31 4 5 -26 66 -33 66 -3 0 3 -16 12
-35z"/>
<path d="M2881 2244 c0 -11 3 -14 6 -6 3 7 2 16 -1 19 -3 4 -6 -2 -5 -13z"/>
<path d="M2042 2220 c0 -14 2 -19 5 -12 2 6 2 18 0 25 -3 6 -5 1 -5 -13z"/>
<path d="M2893 2140 c0 -41 2 -58 4 -37 2 20 2 54 0 75 -2 20 -4 3 -4 -38z"/>
<path d="M2033 2140 c0 -25 2 -35 4 -22 2 12 2 32 0 45 -2 12 -4 2 -4 -23z"/>
<path d="M2042 2060 c0 -14 2 -19 5 -12 2 6 2 18 0 25 -3 6 -5 1 -5 -13z"/>
<path d="M2882 2040 c0 -14 2 -19 5 -12 2 6 2 18 0 25 -3 6 -5 1 -5 -13z"/>
<path d="M2051 2020 c-1 -17 45 -120 54 -120 3 0 -2 14 -11 32 -9 17 -22 47
-29 67 -8 20 -14 29 -14 21z"/>
<path d="M2650 1745 c-14 -8 -20 -14 -14 -15 5 0 19 7 30 15 24 18 16 19 -16
0z"/>
<path d="M2585 1720 c-13 -6 -15 -9 -5 -9 8 0 22 4 30 9 18 12 2 12 -25 0z"/>
<path d="M2355 1710 c19 -8 73 -14 64 -6 -2 2 -22 6 -44 9 -28 5 -34 4 -20 -3z"/>
<path d="M2523 1703 c9 -2 23 -2 30 0 6 3 -1 5 -18 5 -16 0 -22 -2 -12 -5z"/>
<path d="M1729 2423 c-13 -17 -13 -17 6 -3 11 8 22 16 24 17 2 2 0 3 -6 3 -6
0 -17 -8 -24 -17z"/>
<path d="M3372 2400 c0 -14 2 -19 5 -12 2 6 2 18 0 25 -3 6 -5 1 -5 -13z"/>
<path d="M1552 2350 c0 -19 2 -27 5 -17 2 9 2 25 0 35 -3 9 -5 1 -5 -18z"/>
<path d="M3362 2340 c0 -19 2 -27 5 -17 2 9 2 25 0 35 -3 9 -5 1 -5 -18z"/>
</g>
</svg>
