<?xml version="1.0" standalone="no"?>
<!DOCTYPE svg PUBLIC "-//W3C//DTD SVG 20010904//EN"
 "http://www.w3.org/TR/2001/REC-SVG-20010904/DTD/svg10.dtd">
<svg version="1.0" xmlns="http://www.w3.org/2000/svg"
 width="800.000000pt" height="800.000000pt" viewBox="0 0 800.000000 800.000000"
 preserveAspectRatio="xMidYMid meet">
<metadata>
Created by potrace 1.16, written by Peter Selinger 2001-2019
</metadata>
<g transform="translate(0.000000,800.000000) scale(0.100000,-0.100000)"
fill="#000000" stroke="none">
<path d="M2320 4519 l0 -1151 38 22 c20 12 141 86 267 165 127 78 304 188 395
243 91 55 197 120 235 145 94 59 460 285 616 380 l126 77 84 -51 c46 -27 122
-74 169 -102 191 -118 275 -170 480 -297 118 -73 235 -145 260 -160 25 -15 81
-50 125 -77 233 -145 557 -343 561 -343 2 0 4 518 4 1150 l0 1150 -1680 0
-1680 0 0 -1151z"/>
<path d="M3800 3435 c0 -28 4 -35 20 -35 20 0 20 -7 20 -505 0 -503 0 -505
-21 -505 -18 0 -20 -5 -17 -42 l3 -43 120 0 120 0 3 43 c3 39 1 42 -22 42
l-26 0 0 540 0 540 -100 0 -100 0 0 -35z"/>
<path d="M4030 3435 c0 -32 2 -35 30 -35 l30 0 0 -505 c0 -451 -2 -505 -16
-505 -12 0 -14 -9 -12 -41 l3 -41 70 -2 c39 -2 95 -6 126 -10 67 -10 101 4
148 61 100 120 102 433 4 561 -36 48 -80 72 -132 72 l-43 0 4 240 3 240 -107
0 -108 0 0 -35z m299 -546 c14 -40 15 -447 2 -482 -14 -37 -50 -45 -73 -17
-18 22 -19 42 -16 267 3 261 4 262 55 263 15 0 24 -9 32 -31z"/>
<path d="M2340 3165 c0 -31 3 -35 25 -35 l25 0 0 -370 0 -370 -25 0 c-22 0
-25 -4 -25 -39 0 -45 4 -47 88 -50 l62 -2 0 45 c0 39 -3 46 -20 46 -20 0 -20
6 -19 353 0 193 2 348 4 342 2 -5 27 -174 55 -375 28 -201 55 -374 59 -386 8
-18 17 -21 59 -20 28 1 53 4 55 6 3 3 28 167 55 365 28 198 53 371 55 385 2
14 5 -131 6 -322 l1 -348 -31 0 c-29 0 -30 -1 -27 -42 l3 -43 132 0 133 0 0
43 c0 40 -1 42 -30 42 l-30 0 0 370 0 370 30 0 c28 0 30 3 30 35 l0 35 -130 0
c-71 0 -130 -3 -130 -7 0 -5 -13 -91 -29 -193 -16 -102 -33 -212 -37 -245 -10
-83 -17 -58 -49 165 -15 102 -30 205 -34 230 l-6 45 -128 3 -127 3 0 -36z"/>
<path d="M3160 2979 c-44 -13 -86 -53 -100 -93 -11 -33 -1 -86 21 -112 16 -19
84 -18 103 2 20 19 20 23 1 69 -18 40 -8 65 25 65 31 0 41 -26 46 -128 l6 -99
-66 -5 c-118 -10 -168 -58 -174 -167 -5 -84 9 -130 53 -176 27 -29 39 -35 74
-35 53 0 77 13 101 52 l19 31 6 -26 c9 -33 63 -59 113 -55 36 3 37 4 37 43 0
34 -3 40 -22 43 -23 3 -23 4 -23 201 0 216 -10 277 -57 339 -37 50 -100 69
-163 51z m97 -441 c-7 -91 -21 -144 -42 -152 -28 -10 -40 25 -40 114 0 98 10
120 58 120 l30 0 -6 -82z"/>
<path d="M4648 2970 c-71 -38 -110 -115 -128 -252 -21 -154 16 -311 90 -383
33 -33 47 -39 92 -43 44 -3 59 0 88 20 78 53 120 164 120 320 0 145 -26 238
-87 305 -50 56 -110 67 -175 33z m103 -67 c11 -12 15 -67 17 -232 4 -248 -4
-294 -50 -299 -48 -6 -53 18 -53 273 0 248 5 275 49 275 13 0 30 -7 37 -17z"/>
<path d="M5424 2976 c-102 -45 -164 -246 -135 -435 33 -208 160 -308 280 -220
73 52 111 164 111 323 0 236 -119 391 -256 332z m96 -75 c6 -12 10 -113 10
-260 0 -204 -2 -242 -16 -255 -20 -21 -48 -20 -65 1 -22 26 -26 447 -5 496 12
29 21 37 40 37 15 0 30 -8 36 -19z"/>
<path d="M3460 2935 c0 -38 3 -45 20 -45 19 0 20 -7 20 -250 0 -243 -1 -250
-20 -250 -17 0 -20 -7 -20 -42 l0 -43 128 0 127 0 0 40 c-1 36 -4 40 -28 43
l-27 3 0 232 c0 214 2 235 20 265 11 17 21 32 24 32 2 0 3 -17 2 -38 -2 -79
64 -122 100 -67 12 18 15 39 12 75 -7 66 -29 90 -82 90 -43 -1 -65 -12 -84
-45 -10 -18 -11 -17 -12 13 l0 32 -90 0 -90 0 0 -45z"/>
<path d="M4920 2935 c0 -38 3 -45 20 -45 19 0 20 -7 20 -250 0 -243 -1 -250
-20 -250 -17 0 -20 -7 -20 -42 l0 -43 130 -1 130 -1 0 44 c0 41 -1 43 -31 43
l-30 0 3 238 c3 217 5 239 23 267 l20 29 6 -53 c7 -56 27 -80 66 -81 29 0 43
28 43 85 0 46 -13 83 -34 97 -6 4 -30 8 -53 8 -34 0 -46 -5 -67 -31 l-26 -31
0 31 0 31 -90 0 -90 0 0 -45z"/>
</g>
</svg>
