<?xml version="1.0" standalone="no"?>
<!DOCTYPE svg PUBLIC "-//W3C//DTD SVG 20010904//EN"
 "http://www.w3.org/TR/2001/REC-SVG-20010904/DTD/svg10.dtd">
<svg version="1.0" xmlns="http://www.w3.org/2000/svg"
 width="600.000000pt" height="600.000000pt" viewBox="0 0 600.000000 600.000000"
 preserveAspectRatio="xMidYMid meet">
<metadata>
Created by potrace 1.16, written by Peter Selinger 2001-2019
</metadata>
<g transform="translate(0.000000,600.000000) scale(0.100000,-0.100000)"
fill="#000000" stroke="none">
<path d="M2715 5720 c-347 -40 -643 -128 -943 -279 -275 -138 -478 -286 -702
-511 -225 -224 -373 -427 -511 -702 -154 -307 -238 -594 -279 -953 -25 -214
-25 -336 0 -550 41 -359 125 -646 279 -953 138 -275 286 -478 511 -702 224
-225 427 -373 702 -511 307 -154 594 -238 953 -279 214 -25 336 -25 550 0 359
41 646 125 953 279 275 138 478 286 702 511 225 224 373 427 511 702 154 307
238 594 279 953 25 214 25 336 0 550 -41 359 -125 646 -279 953 -138 275 -286
478 -511 702 -224 225 -427 373 -702 511 -307 154 -594 238 -953 279 -204 24
-359 24 -560 0z m1391 -624 c6 -15 -12 -80 -121 -446 -37 -124 -84 -283 -105
-355 -21 -71 -83 -284 -139 -472 -55 -189 -101 -347 -101 -353 0 -6 307 -11
898 -12 875 -3 897 -3 897 -22 0 -15 -106 -69 -545 -278 -300 -142 -769 -365
-1042 -494 l-496 -237 -112 -451 c-61 -248 -145 -590 -187 -761 -41 -170 -80
-316 -86 -323 -8 -11 -13 -11 -24 1 -11 11 -5 58 41 298 51 265 104 540 211
1104 24 127 71 374 105 550 34 176 82 426 106 555 25 129 63 330 85 445 23
116 47 241 54 278 7 37 9 67 5 65 -5 -2 -186 -165 -404 -363 l-396 -360 258
-5 257 -5 -2 -25 c-1 -14 -4 -51 -8 -84 l-7 -59 -71 7 c-177 15 -728 46 -992
56 -967 34 -1663 62 -1683 66 -15 3 -22 11 -20 22 3 16 70 17 1035 20 l1031 2
184 198 c102 108 364 391 583 627 662 714 766 825 776 825 5 0 12 -6 15 -14z
m-1593 -1845 c32 -2 102 65 -657 -634 -159 -147 -295 -266 -301 -264 -5 2 -11
10 -13 18 -1 8 189 213 422 455 l425 441 53 -8 c29 -4 61 -8 71 -8z m602 -768
c-3 -16 -9 -62 -15 -103 -6 -41 -12 -75 -13 -76 -4 -4 -392 -201 -1101 -558
-356 -180 -654 -325 -662 -322 -8 3 -14 11 -14 18 0 8 107 76 238 152 130 77
257 151 282 166 25 15 270 159 545 320 275 161 552 324 615 361 63 38 118 68
122 69 4 0 5 -12 3 -27z"/>
<path d="M3546 3138 c-21 -73 -55 -199 -76 -279 -22 -80 -43 -155 -47 -165 -5
-16 -4 -17 8 -8 8 7 210 127 449 269 428 253 464 275 444 275 -5 0 -164 9
-354 20 -190 11 -354 20 -366 20 -19 0 -26 -16 -58 -132z"/>
</g>
</svg>
