<?xml version="1.0" standalone="no"?>
<!DOCTYPE svg PUBLIC "-//W3C//DTD SVG 20010904//EN"
 "http://www.w3.org/TR/2001/REC-SVG-20010904/DTD/svg10.dtd">
<svg version="1.0" xmlns="http://www.w3.org/2000/svg"
 width="1024.000000pt" height="1024.000000pt" viewBox="0 0 1024.000000 1024.000000"
 preserveAspectRatio="xMidYMid meet">
<metadata>
Created by potrace 1.16, written by Peter Selinger 2001-2019
</metadata>
<g transform="translate(0.000000,1024.000000) scale(0.100000,-0.100000)"
fill="#000000" stroke="none">
<path d="M0 5120 l0 -5120 5120 0 5120 0 0 5120 0 5120 -5120 0 -5120 0 0
-5120z m5800 1510 c978 -47 1816 -193 2573 -449 528 -180 827 -334 1035 -535
106 -103 171 -195 216 -305 30 -73 31 -82 31 -221 0 -139 -1 -148 -31 -221
-45 -112 -111 -204 -219 -307 -209 -200 -504 -353 -1017 -527 -704 -240 -1394
-370 -2328 -441 -278 -21 -1243 -30 -1575 -15 -1020 47 -1828 185 -2590 445
-664 226 -1056 471 -1234 774 -62 106 -84 192 -79 315 5 120 26 185 92 291
183 294 571 532 1236 757 763 260 1544 392 2615 442 166 8 1087 6 1275 -3z"/>
<path d="M1779 5744 c21 -26 21 -35 21 -604 0 -569 0 -578 -21 -604 l-20 -26
440 0 441 0 -20 37 c-19 36 -20 57 -20 598 0 541 1 561 20 593 l20 32 -441 0
-440 0 20 -26z"/>
<path d="M2990 5738 c19 -32 20 -52 20 -598 0 -546 -1 -566 -20 -597 l-20 -33
430 0 431 0 -21 28 c-19 26 -20 39 -18 225 l3 198 114 -193 c80 -136 114 -203
115 -225 l0 -33 496 0 c476 0 494 1 468 18 -38 25 -43 32 -272 395 l-207 327
152 223 c84 122 170 239 191 260 l39 37 -423 0 -423 0 0 -37 c0 -32 -20 -68
-125 -224 l-125 -186 -3 196 c-2 184 -1 197 18 223 l21 28 -431 0 -430 0 20
-32z"/>
<path d="M5171 5732 c19 -37 19 -66 17 -604 -3 -523 -4 -567 -20 -585 -10 -11
-18 -23 -18 -26 0 -4 324 -7 720 -7 l720 0 0 216 c0 202 -1 216 -17 208 -10
-5 -156 -10 -325 -12 l-308 -3 0 36 0 35 220 0 c170 0 229 -3 255 -14 l35 -15
0 195 c0 189 -1 194 -19 184 -12 -6 -112 -10 -255 -10 l-236 0 0 40 0 41 303
-4 c166 -1 312 -7 325 -11 l22 -8 0 191 0 191 -719 0 -718 0 18 -38z"/>
<path d="M7160 5738 c5 -17 7 -43 3 -57 -11 -50 -405 -1106 -423 -1138 l-19
-33 365 0 366 0 -6 23 c-3 15 8 64 28 123 l33 99 163 0 163 0 33 -85 c18 -47
33 -102 34 -122 l0 -38 457 0 c433 0 455 1 441 18 -17 19 -455 1085 -471 1144
-6 25 -6 47 1 68 l11 30 -594 0 -594 0 9 -32z m570 -710 c0 -5 -31 -8 -69 -8
l-68 0 29 83 c16 45 31 89 34 97 5 13 74 -148 74 -172z"/>
</g>
</svg>
