<?xml version="1.0" standalone="no"?>
<!DOCTYPE svg PUBLIC "-//W3C//DTD SVG 20010904//EN"
 "http://www.w3.org/TR/2001/REC-SVG-20010904/DTD/svg10.dtd">
<svg version="1.0" xmlns="http://www.w3.org/2000/svg"
 width="238.000000pt" height="238.000000pt" viewBox="0 0 238.000000 238.000000"
 preserveAspectRatio="xMidYMid meet">
<metadata>
Created by potrace 1.16, written by Peter Selinger 2001-2019
</metadata>
<g transform="translate(0.000000,238.000000) scale(0.100000,-0.100000)"
fill="#000000" stroke="none">
<path d="M991 1874 c-228 -38 -430 -152 -520 -292 -45 -71 -67 -167 -53 -236
38 -187 211 -338 468 -406 421 -112 895 27 1043 305 23 44 26 61 26 150 0 111
-13 147 -83 234 -159 196 -540 302 -881 245z m104 -99 c-28 -36 -68 -142 -80
-212 -6 -41 -8 -42 -38 -37 -18 3 -59 14 -92 25 -198 63 -189 158 20 223 47
15 142 32 193 35 l23 1 -26 -35z m340 10 c63 -14 139 -45 166 -67 73 -60 21
-132 -121 -171 -116 -32 -107 -34 -120 30 -16 77 -45 153 -76 198 l-24 36 57
-6 c32 -4 85 -13 118 -20z m-205 -83 c29 -29 60 -114 60 -164 l0 -28 -105 0
-104 0 5 33 c17 97 65 187 101 187 8 0 27 -13 43 -28z m-564 -181 c58 -52 164
-93 294 -115 l36 -6 11 -108 c14 -131 42 -224 88 -293 l35 -52 -59 7 c-224 25
-440 154 -508 302 -45 98 -33 212 34 313 15 24 16 24 23 5 5 -11 25 -35 46
-53z m1145 7 c31 -57 34 -71 34 -143 0 -67 -4 -89 -27 -135 -33 -66 -112 -146
-192 -194 -90 -54 -269 -107 -360 -106 -26 1 -28 2 -14 11 51 29 102 170 120
331 l11 108 36 5 c73 12 232 68 272 97 22 16 48 43 57 59 10 16 20 29 23 29 3
0 21 -28 40 -62z m-515 -195 c-15 -125 -61 -223 -105 -223 -45 0 -95 101 -107
214 l-7 66 113 0 112 0 -6 -57z"/>
<path d="M701 763 c-65 -33 -93 -112 -66 -181 55 -137 252 -110 272 37 15 108
-108 194 -206 144z m99 -48 c89 -46 31 -203 -61 -164 -37 15 -49 37 -49 86 0
41 12 64 45 81 26 15 31 15 65 -3z"/>
<path d="M1270 763 c-48 -25 -80 -76 -80 -128 0 -82 75 -151 154 -141 75 9
128 68 128 141 0 104 -112 175 -202 128z m111 -62 c21 -22 29 -39 29 -66 0
-42 -44 -95 -80 -95 -36 0 -80 53 -80 95 0 27 8 44 29 66 37 37 65 37 102 0z"/>
<path d="M380 745 c0 -22 4 -25 40 -25 l40 0 0 -110 0 -110 30 0 30 0 0 110 0
110 45 0 c41 0 45 2 45 25 l0 25 -115 0 -115 0 0 -25z"/>
<path d="M916 758 c5 -7 30 -47 56 -88 40 -63 48 -83 48 -122 0 -47 1 -48 30
-48 30 0 30 1 30 53 0 46 6 63 39 114 67 104 67 103 29 103 -29 0 -36 -6 -61
-50 -15 -27 -32 -52 -36 -55 -5 -3 -23 20 -40 50 -29 51 -34 55 -67 55 -25 0
-33 -3 -28 -12z"/>
<path d="M1490 745 c0 -23 4 -25 45 -25 l45 0 0 -110 0 -110 30 0 30 0 0 110
0 110 40 0 c36 0 40 3 40 25 l0 25 -115 0 -115 0 0 -25z"/>
<path d="M1792 718 c-11 -29 -36 -90 -56 -135 l-35 -83 35 0 c30 0 37 4 47 30
11 28 14 30 67 30 53 0 56 -2 67 -30 10 -26 17 -30 47 -30 l35 0 -55 131 c-29
72 -54 133 -54 135 0 2 -17 4 -39 4 -37 0 -39 -2 -59 -52z m98 -115 c0 -2 -16
-3 -35 -3 -40 0 -43 9 -19 66 l16 39 19 -50 c10 -28 19 -51 19 -52z"/>
</g>
</svg>
