<?xml version="1.0" standalone="no"?>
<!DOCTYPE svg PUBLIC "-//W3C//DTD SVG 20010904//EN"
 "http://www.w3.org/TR/2001/REC-SVG-20010904/DTD/svg10.dtd">
<svg version="1.0" xmlns="http://www.w3.org/2000/svg"
 width="1024.000000pt" height="1024.000000pt" viewBox="0 0 1024.000000 1024.000000"
 preserveAspectRatio="xMidYMid meet">
<metadata>
Created by potrace 1.16, written by Peter Selinger 2001-2019
</metadata>
<g transform="translate(0.000000,1024.000000) scale(0.100000,-0.100000)"
fill="#000000" stroke="none">
<path d="M390 4315 l0 -95 60 0 60 0 0 -1025 0 -1025 -60 0 -60 0 0 -95 0 -95
245 0 245 0 0 95 0 95 -55 0 -55 0 0 617 c0 339 2 614 4 612 5 -4 28 -144 41
-239 3 -25 10 -67 15 -95 5 -27 12 -70 15 -95 4 -25 17 -115 30 -200 13 -85
45 -288 70 -450 25 -162 48 -305 50 -317 5 -23 7 -23 179 -23 l173 0 11 68
c15 86 92 558 97 597 7 46 23 141 39 240 9 50 17 104 20 120 2 17 16 100 30
185 14 85 27 166 29 180 2 14 5 -251 6 -587 l1 -613 -55 0 -55 0 0 -95 0 -95
360 0 360 0 0 95 0 95 -62 0 -63 0 0 1025 0 1025 63 0 62 0 0 95 0 95 -359 0
-359 0 -6 -52 c-3 -29 -9 -78 -12 -108 -2 -30 -9 -89 -14 -130 -5 -41 -12
-100 -15 -130 -3 -30 -10 -91 -15 -135 -5 -44 -16 -145 -25 -225 -9 -80 -22
-199 -30 -265 -8 -66 -22 -190 -30 -275 -25 -238 -26 -239 -64 -29 -62 345
-101 554 -111 604 -5 28 -12 66 -15 85 -3 19 -23 130 -45 245 -21 116 -47 256
-57 313 l-18 102 -312 0 -313 0 0 -95z"/>
<path d="M4470 4315 l0 -95 50 0 50 0 0 -1025 0 -1025 -50 0 -50 0 0 -95 0
-95 320 0 320 0 0 95 0 95 -50 0 -50 0 0 1120 0 1120 -270 0 -270 0 0 -95z"/>
<path d="M5150 4315 l0 -95 70 0 70 0 0 -1025 0 -1025 -70 0 -70 0 0 -95 0
-95 275 0 275 0 17 35 16 34 38 -34 c46 -42 121 -65 208 -65 55 0 75 5 118 30
144 83 248 342 283 704 32 340 -31 685 -158 867 -77 110 -175 157 -299 146
-82 -8 -137 -38 -183 -100 l-35 -47 -3 430 -2 430 -275 0 -275 0 0 -95z m708
-901 c67 -47 87 -180 87 -574 0 -396 -17 -556 -69 -634 -33 -52 -101 -44 -132
15 -36 71 -43 168 -44 622 l0 438 24 47 c30 58 69 96 106 101 3 1 16 -6 28
-15z"/>
<path d="M6911 3810 c-81 -23 -163 -79 -224 -155 -59 -73 -148 -253 -176 -355
-119 -432 -21 -982 212 -1197 144 -133 375 -161 549 -66 104 57 219 210 277
370 54 146 72 272 72 503 0 272 -30 428 -114 594 -127 254 -359 374 -596 306z
m194 -174 c34 -36 59 -104 75 -200 16 -97 12 -909 -4 -1035 -15 -110 -42 -199
-72 -232 -22 -24 -76 -34 -104 -19 -29 16 -76 120 -90 200 -17 95 -24 763 -10
934 20 259 40 334 94 367 45 28 74 24 111 -15z"/>
<path d="M9084 3816 c-147 -36 -245 -129 -343 -323 -129 -259 -163 -589 -95
-919 78 -380 277 -594 554 -594 199 0 353 112 462 335 89 184 118 345 113 630
-4 222 -18 312 -75 468 -110 302 -360 465 -616 403z m149 -157 c61 -28 96
-140 108 -354 12 -189 4 -774 -12 -900 -26 -218 -101 -313 -188 -240 -38 33
-67 110 -81 219 -18 129 -7 994 13 1102 18 99 38 144 75 166 32 20 52 22 85 7z"/>
<path d="M4163 3785 c-59 -27 -107 -85 -135 -163 l-17 -47 -1 103 0 102 -270
0 -270 0 0 -100 0 -100 70 0 70 0 0 -705 0 -705 -70 0 -70 0 0 -95 0 -95 365
0 365 0 0 95 0 95 -95 0 -95 0 0 634 0 635 34 35 c51 54 62 49 68 -33 6 -87
30 -129 88 -158 57 -29 147 -31 207 -3 80 36 131 154 120 275 -8 88 -32 139
-87 188 -80 72 -181 87 -277 42z"/>
<path d="M8292 3793 c-70 -25 -105 -67 -160 -193 -9 -20 -11 -5 -11 78 l-1
102 -265 0 -265 0 0 -100 0 -99 68 -3 67 -3 3 -702 2 -703 -70 0 -70 0 0 -95
0 -95 365 0 366 0 -3 93 -3 92 -97 3 -98 3 0 628 0 628 38 43 c53 60 69 52 74
-39 6 -110 53 -160 160 -168 111 -9 181 29 224 122 32 67 33 189 4 268 -48
127 -191 189 -328 140z"/>
<path d="M2620 3788 c-154 -19 -282 -79 -340 -160 -73 -100 -93 -254 -46 -353
27 -59 88 -118 141 -135 60 -20 146 -9 190 24 56 43 90 123 90 211 -1 79 -12
108 -75 180 -23 26 -40 57 -40 70 0 35 50 58 127 59 55 1 65 -2 94 -29 57 -54
59 -66 59 -391 l0 -296 -22 6 c-74 21 -181 30 -242 19 -144 -25 -285 -127
-324 -235 -77 -209 -40 -517 79 -668 120 -151 373 -177 534 -54 l45 34 36 -39
c59 -66 107 -83 222 -79 84 3 106 7 163 34 37 18 85 49 109 70 48 44 48 51 0
157 l-30 67 -36 -35 c-39 -39 -68 -45 -84 -16 -6 13 -10 223 -10 613 0 641 -2
663 -54 746 -34 54 -113 123 -180 155 -108 53 -232 67 -406 45z m198 -976 c9
-7 12 -71 10 -287 l-3 -278 -26 -19 c-34 -25 -84 -26 -117 -1 -45 33 -64 115
-66 273 l-1 136 35 69 c23 46 47 78 69 93 34 22 76 28 99 14z"/>
</g>
</svg>
