<?xml version="1.0" standalone="no"?>
<!DOCTYPE svg PUBLIC "-//W3C//DTD SVG 20010904//EN"
 "http://www.w3.org/TR/2001/REC-SVG-20010904/DTD/svg10.dtd">
<svg version="1.0" xmlns="http://www.w3.org/2000/svg"
 width="1024.000000pt" height="1024.000000pt" viewBox="0 0 1024.000000 1024.000000"
 preserveAspectRatio="xMidYMid meet">
<metadata>
Created by potrace 1.16, written by Peter Selinger 2001-2019
</metadata>
<g transform="translate(0.000000,1024.000000) scale(0.100000,-0.100000)"
fill="#000000" stroke="none">
<path d="M1040 6120 c-128 -16 -232 -69 -325 -164 -71 -72 -106 -131 -142
-236 -17 -51 -18 -97 -18 -600 0 -544 0 -545 23 -615 58 -173 184 -302 357
-362 l80 -28 959 -3 c1072 -3 1057 -4 1196 64 132 65 240 196 287 349 16 55
18 104 18 595 0 491 -2 540 -18 595 -58 188 -197 328 -387 391 -52 17 -115 19
-1015 20 -528 1 -985 -2 -1015 -6z m1142 -761 c208 -127 377 -236 376 -241 -3
-9 -725 -454 -755 -465 -10 -4 -13 93 -13 466 0 259 3 471 6 471 4 0 177 -104
386 -231z"/>
<path d="M8000 5150 l0 -901 133 3 132 3 5 48 5 47 39 -40 c49 -50 65 -55 198
-55 124 0 140 8 199 95 72 106 74 119 77 553 3 369 2 392 -17 449 -40 117
-117 181 -220 182 -76 0 -132 -27 -214 -104 l-67 -62 0 341 0 341 -135 0 -135
0 0 -900z m460 155 c16 -8 34 -24 40 -34 12 -24 13 -573 1 -680 -12 -100 -55
-155 -132 -167 -28 -5 -41 -1 -67 21 l-32 27 0 379 0 378 32 37 c49 55 101 68
158 39z"/>
<path d="M3790 5978 c0 -13 111 -425 224 -828 l71 -255 5 -320 5 -320 138 -3
137 -3 0 285 0 285 51 183 c27 101 93 341 145 533 52 193 101 371 108 397 8
26 11 50 8 53 -9 9 -261 5 -267 -4 -3 -6 -43 -199 -89 -431 -47 -232 -86 -424
-89 -426 -2 -2 -41 184 -86 413 -46 230 -87 426 -92 436 -9 15 -26 17 -139 17
-95 0 -130 -3 -130 -12z"/>
<path d="M6307 5983 c-4 -3 -7 -53 -7 -110 l0 -103 135 0 135 0 2 -757 3 -758
129 -3 c97 -2 131 1 138 10 4 7 8 349 8 760 l0 747 133 3 132 3 0 105 0 105
-401 3 c-220 1 -403 -1 -407 -5z"/>
<path d="M4913 5526 c-125 -41 -238 -159 -267 -279 -4 -16 -7 -173 -7 -350 0
-355 2 -376 61 -468 105 -162 314 -219 493 -134 68 32 150 117 185 192 l27 58
0 355 0 355 -32 66 c-39 79 -111 150 -190 186 -68 32 -203 41 -270 19z m179
-176 c48 -37 49 -50 46 -467 l-3 -391 -24 -26 c-38 -41 -90 -52 -135 -31 -66
32 -66 29 -66 471 l0 396 34 34 c29 29 41 34 79 34 29 0 53 -7 69 -20z"/>
<path d="M9204 5522 c-96 -34 -175 -108 -222 -208 l-27 -59 -3 -328 c-3 -373
2 -413 66 -507 151 -221 460 -219 607 4 35 52 75 179 62 193 -8 7 -223 12
-244 5 -8 -3 -13 -24 -13 -59 0 -83 -25 -118 -97 -138 -31 -9 -91 22 -108 56
-11 21 -15 65 -15 169 l0 140 63 1 c34 0 142 1 240 0 l179 0 -4 232 -3 232
-31 65 c-39 82 -103 148 -178 185 -77 37 -195 45 -272 17z m192 -186 l34 -34
0 -186 0 -186 -110 0 -110 0 0 186 0 186 34 34 c28 28 42 34 76 34 34 0 48 -6
76 -34z"/>
<path d="M5591 4973 c0 -590 -1 -582 61 -652 47 -53 83 -65 179 -64 114 1 188
25 250 81 l48 43 3 -63 3 -63 99 -3 c72 -2 102 1 107 10 10 15 12 1072 3 1176
l-7 72 -138 0 -139 0 0 -520 0 -521 -25 -24 c-19 -20 -34 -25 -77 -25 -29 0
-58 4 -64 8 -32 21 -34 52 -34 566 l0 516 -135 0 -135 0 1 -537z"/>
<path d="M7070 4992 c0 -430 3 -527 15 -569 40 -136 131 -186 294 -163 90 13
146 36 199 85 l41 36 3 -63 3 -63 103 -3 102 -3 0 631 0 630 -140 0 -139 0 -3
-526 -3 -526 -24 -19 c-17 -14 -39 -19 -82 -19 -99 0 -94 -34 -97 572 l-3 518
-134 0 -135 0 0 -518z"/>
</g>
</svg>
