<?xml version="1.0" standalone="no"?>
<!DOCTYPE svg PUBLIC "-//W3C//DTD SVG 20010904//EN"
 "http://www.w3.org/TR/2001/REC-SVG-20010904/DTD/svg10.dtd">
<svg version="1.0" xmlns="http://www.w3.org/2000/svg"
 width="735.000000pt" height="735.000000pt" viewBox="0 0 735.000000 735.000000"
 preserveAspectRatio="xMidYMid meet">
<metadata>
Created by potrace 1.16, written by Peter Selinger 2001-2019
</metadata>
<g transform="translate(0.000000,735.000000) scale(0.100000,-0.100000)"
fill="#000000" stroke="none">
<path d="M7230 7293 c-36 -31 -79 -67 -95 -82 -25 -22 -84 -69 -143 -116 -7
-5 -18 -15 -25 -20 -18 -16 -259 -201 -352 -271 -74 -56 -212 -155 -345 -247
-134 -94 -586 -387 -596 -387 -2 0 -53 36 -114 80 -500 360 -1096 583 -1710
640 -160 15 -510 15 -665 0 -807 -78 -1558 -432 -2131 -1004 -676 -676 -1040
-1589 -1010 -2536 24 -771 280 -1462 770 -2075 108 -136 375 -400 521 -517
468 -373 1024 -622 1605 -717 212 -35 295 -41 582 -41 361 0 576 26 887 106
755 196 1432 653 1908 1289 819 1096 906 2588 218 3779 l-55 97 31 107 c17 59
37 125 44 147 7 22 28 87 45 145 83 268 240 687 382 1015 71 162 235 502 292
603 20 34 32 62 28 61 -4 0 -36 -25 -72 -56z m-2860 -670 c407 -49 786 -183
1137 -403 59 -37 109 -72 110 -77 5 -14 -463 -290 -737 -435 -52 -28 -108 -59
-125 -68 -122 -71 -672 -347 -936 -471 -783 -365 -1575 -676 -2369 -929 -91
-29 -160 -54 -155 -56 16 -5 553 -151 635 -173 41 -11 298 -81 570 -156 272
-74 500 -135 507 -135 6 0 109 107 229 238 120 130 265 288 323 351 58 63 112
123 120 134 7 10 86 54 175 97 88 43 274 133 411 200 138 67 331 162 430 210
179 87 181 88 380 255 110 92 214 179 231 194 17 14 42 35 55 46 13 11 143
120 289 242 146 122 375 313 510 426 135 113 246 204 248 203 1 -2 -99 -131
-224 -287 -124 -156 -247 -311 -273 -344 -26 -33 -187 -235 -356 -450 -170
-214 -325 -410 -345 -435 -30 -37 -96 -120 -167 -210 -7 -8 -60 -76 -119 -150
-58 -74 -119 -151 -134 -170 -15 -19 -74 -93 -131 -165 -310 -392 -416 -524
-446 -563 -24 -29 -30 -43 -21 -47 19 -6 555 -165 608 -180 47 -13 912 -269
1134 -336 72 -21 131 -37 133 -36 1 2 9 79 18 173 28 310 71 643 121 939 58
348 222 1077 254 1134 15 26 148 -268 214 -474 132 -411 165 -899 90 -1325
-223 -1258 -1268 -2198 -2544 -2289 -542 -39 -1096 89 -1573 362 -226 128
-389 256 -592 461 -377 381 -623 829 -736 1341 -142 647 -58 1294 245 1880
133 259 280 458 496 676 85 86 198 189 250 229 608 467 1315 664 2060 573z"/>
<path d="M5975 5898 c-39 -34 -198 -175 -355 -313 -157 -139 -375 -332 -485
-430 -215 -191 -207 -186 -530 -335 -563 -260 -813 -384 -844 -418 -19 -20
-129 -140 -245 -267 -115 -126 -253 -277 -306 -335 -53 -58 -175 -190 -271
-295 l-174 -190 554 -3 c545 -2 554 -2 568 18 8 11 78 97 156 192 78 94 187
226 242 293 55 67 172 209 260 315 88 107 216 261 284 344 68 83 205 250 305
371 99 120 239 289 309 375 70 85 165 199 210 254 45 54 105 126 132 160 28
33 96 115 150 180 142 170 146 178 40 84z"/>
<path d="M3557 2652 c-31 -34 -19 -82 89 -352 58 -146 113 -280 121 -299 21
-43 67 -71 117 -71 32 0 45 7 75 38 32 33 47 70 129 322 51 157 92 297 92 313
0 37 -33 67 -72 67 -38 0 -51 -7 -65 -35 -6 -11 -41 -126 -78 -255 -70 -245
-82 -278 -94 -264 -5 5 -50 124 -102 264 -52 140 -102 263 -111 272 -24 24
-80 23 -101 0z"/>
<path d="M4904 2659 c-74 -9 -156 -50 -212 -106 -56 -57 -88 -117 -103 -199
-43 -228 100 -416 327 -431 135 -9 247 31 311 114 69 88 79 141 31 176 -37 28
-77 15 -100 -32 -27 -54 -74 -107 -111 -125 -78 -36 -202 -11 -261 54 -41 45
-56 92 -56 176 0 82 23 143 72 192 44 45 87 62 156 62 59 0 100 -19 166 -79
61 -55 87 -62 124 -32 36 31 30 80 -15 126 -73 75 -211 119 -329 104z"/>
<path d="M3143 2650 c-34 -14 -67 -73 -121 -220 -28 -74 -75 -203 -106 -286
-31 -82 -56 -155 -56 -160 0 -24 42 -54 75 -54 40 0 52 14 86 100 l24 60 157
0 156 0 18 -52 c31 -97 40 -108 84 -108 54 0 84 29 74 72 -8 37 -140 421 -179
523 -16 42 -41 83 -61 103 -29 27 -41 32 -81 31 -27 0 -58 -4 -70 -9z m86
-157 c6 -21 26 -87 45 -147 20 -61 34 -112 32 -114 -3 -2 -51 -4 -108 -3 -84
0 -103 2 -100 14 1 8 23 70 47 138 25 68 48 130 50 137 8 23 24 12 34 -25z"/>
<path d="M4335 2635 l-25 -24 0 -313 c0 -343 1 -350 58 -361 42 -9 66 1 85 33
15 25 17 66 17 334 l0 307 -25 24 c-15 16 -36 25 -55 25 -19 0 -40 -9 -55 -25z"/>
</g>
</svg>
