<?xml version="1.0" standalone="no"?>
<!DOCTYPE svg PUBLIC "-//W3C//DTD SVG 20010904//EN"
 "http://www.w3.org/TR/2001/REC-SVG-20010904/DTD/svg10.dtd">
<svg version="1.0" xmlns="http://www.w3.org/2000/svg"
 width="735.000000pt" height="735.000000pt" viewBox="0 0 735.000000 735.000000"
 preserveAspectRatio="xMidYMid meet">
<metadata>
Created by potrace 1.16, written by Peter Selinger 2001-2019
</metadata>
<g transform="translate(0.000000,735.000000) scale(0.100000,-0.100000)"
fill="#000000" stroke="none">
<path d="M7286 7341 c-26 -41 -623 -508 -892 -696 -238 -167 -704 -475 -720
-475 -2 0 -53 36 -114 80 -471 339 -1018 553 -1605 630 -246 32 -656 29 -905
-5 -1036 -145 -1935 -726 -2490 -1610 -416 -663 -592 -1471 -490 -2257 70
-545 273 -1072 583 -1518 174 -248 449 -546 662 -716 429 -341 872 -561 1375
-683 291 -70 481 -91 832 -91 361 0 576 26 887 106 239 62 406 126 656 249
364 180 631 371 916 655 232 232 413 468 571 745 599 1053 593 2363 -17 3419
l-56 97 45 152 c192 651 481 1370 740 1845 25 45 41 82 36 82 -5 0 -11 -4 -14
-9z m-2916 -717 c407 -50 812 -195 1153 -413 53 -35 97 -66 97 -70 0 -14 -539
-328 -825 -481 -55 -29 -116 -62 -135 -73 -53 -30 -693 -350 -785 -392 -836
-387 -1574 -680 -2305 -916 -85 -28 -184 -60 -220 -71 l-64 -21 214 -59 c118
-32 280 -76 360 -98 80 -21 368 -100 640 -174 272 -75 500 -136 507 -136 6 0
165 168 353 373 l342 372 261 128 c144 70 407 198 585 285 l322 157 138 114
c75 63 245 205 377 316 132 110 380 318 550 460 171 143 346 290 390 327 43
37 81 66 82 64 2 -2 -98 -131 -223 -287 -124 -156 -247 -311 -273 -344 -58
-73 -634 -800 -746 -941 -44 -56 -154 -195 -245 -310 -91 -114 -210 -265 -264
-334 -220 -277 -411 -517 -443 -558 -24 -29 -30 -43 -21 -47 15 -5 359 -107
1098 -325 283 -84 573 -170 644 -191 72 -21 131 -37 133 -36 1 2 10 80 18 173
46 513 122 1009 231 1504 37 167 133 551 143 569 19 34 174 -326 240 -559 147
-518 138 -1092 -26 -1605 -251 -786 -843 -1423 -1605 -1729 -616 -247 -1291
-268 -1918 -59 -232 77 -513 216 -690 341 -308 217 -596 517 -786 820 -304
483 -455 1078 -416 1640 41 582 218 1054 576 1532 92 123 363 395 491 491 606
460 1306 652 2045 563z"/>
<path d="M5975 5898 c-39 -34 -200 -177 -359 -317 -159 -141 -378 -334 -485
-429 l-196 -174 -155 -75 c-85 -41 -227 -108 -315 -149 -88 -41 -276 -130
-417 -197 l-258 -122 -301 -330 c-166 -181 -390 -426 -498 -544 -108 -118
-202 -222 -209 -232 -13 -18 3 -19 540 -19 l553 1 31 42 c17 23 102 128 188
232 87 105 219 264 294 355 75 91 211 255 302 365 91 110 193 234 227 275 79
97 404 491 453 550 21 25 93 113 160 195 68 83 137 166 154 186 17 19 58 69
91 109 33 41 105 129 161 196 141 170 145 176 39 82z"/>
<path d="M3557 2652 c-10 -10 -17 -34 -17 -53 0 -33 207 -569 239 -618 36 -56
123 -66 175 -20 32 28 43 55 131 319 52 158 95 302 95 319 0 41 -31 71 -72 71
-38 0 -51 -7 -65 -35 -6 -11 -41 -126 -78 -255 -70 -245 -82 -278 -94 -264 -5
5 -50 124 -102 264 -52 140 -102 263 -111 272 -24 24 -80 23 -101 0z"/>
<path d="M4904 2659 c-74 -9 -156 -50 -212 -106 -56 -57 -88 -117 -103 -199
-43 -228 100 -416 327 -431 135 -9 247 31 311 114 69 88 79 141 31 176 -37 28
-77 15 -100 -32 -47 -95 -111 -141 -195 -141 -107 0 -199 61 -223 149 -15 53
-12 151 5 203 19 56 86 125 134 138 95 26 167 6 247 -70 57 -54 85 -61 122
-31 36 31 30 82 -15 127 -74 75 -212 118 -329 103z"/>
<path d="M3143 2650 c-34 -14 -67 -73 -121 -220 -28 -74 -76 -205 -107 -289
-54 -144 -57 -157 -44 -180 11 -20 24 -27 53 -29 20 -2 43 2 51 8 7 6 26 42
41 80 l29 70 157 0 156 0 18 -52 c31 -97 40 -108 84 -108 54 0 84 29 74 73 -7
35 -124 375 -174 507 -42 112 -80 150 -147 149 -27 0 -58 -4 -70 -9z m118
-262 c24 -79 44 -147 44 -151 0 -5 -47 -8 -105 -8 -81 0 -104 3 -102 13 2 12
71 206 93 266 5 12 12 22 17 22 5 0 29 -64 53 -142z"/>
<path d="M4335 2635 l-25 -24 0 -313 c0 -343 1 -350 58 -361 42 -9 66 1 85 33
15 25 17 66 17 334 l0 307 -25 24 c-15 16 -36 25 -55 25 -19 0 -40 -9 -55 -25z"/>
</g>
</svg>
