<?xml version="1.0" standalone="no"?>
<!DOCTYPE svg PUBLIC "-//W3C//DTD SVG 20010904//EN"
 "http://www.w3.org/TR/2001/REC-SVG-20010904/DTD/svg10.dtd">
<svg version="1.0" xmlns="http://www.w3.org/2000/svg"
 width="828.000000pt" height="828.000000pt" viewBox="0 0 828.000000 828.000000"
 preserveAspectRatio="xMidYMid meet">
<metadata>
Created by potrace 1.16, written by Peter Selinger 2001-2019
</metadata>
<g transform="translate(0.000000,828.000000) scale(0.100000,-0.100000)"
fill="#000000" stroke="none">
<path d="M4202 7243 c-81 -40 -104 -144 -58 -267 29 -78 83 -176 96 -176 13 0
66 98 95 174 42 111 29 211 -34 255 -40 28 -63 32 -99 14z"/>
<path d="M3926 6940 c-63 -25 -122 -81 -152 -145 -31 -66 -33 -184 -4 -278 24
-76 86 -174 138 -217 l37 -30 295 0 295 0 37 30 c95 78 158 224 158 364 0 96
-25 161 -85 219 -40 39 -127 77 -175 77 -26 0 -30 -5 -41 -42 -26 -100 -148
-278 -190 -278 -20 0 -102 90 -135 150 -17 30 -40 81 -50 113 -16 53 -20 57
-48 57 -17 -1 -53 -10 -80 -20z"/>
<path d="M3397 6540 c-58 -46 -57 -127 5 -243 36 -67 43 -65 83 25 49 110 43
193 -16 223 -36 19 -41 19 -72 -5z"/>
<path d="M5009 6545 c-57 -31 -63 -115 -14 -223 40 -90 47 -92 83 -25 62 116
63 197 5 243 -30 23 -39 24 -74 5z"/>
<path d="M1608 6484 c-100 -51 -184 -168 -224 -315 -14 -48 -18 -101 -19 -214
0 -140 2 -154 26 -213 46 -107 91 -172 189 -273 97 -98 200 -180 328 -260 l72
-44 -6 -40 c-4 -22 -8 -42 -10 -44 -10 -11 -348 211 -480 317 -103 82 -209
189 -240 241 -10 17 -21 31 -25 31 -4 0 -23 -18 -42 -40 -44 -52 -68 -124 -74
-232 -11 -173 35 -299 151 -413 119 -117 274 -190 551 -260 l130 -33 3 -34 c3
-40 18 -39 -168 -12 -264 39 -471 109 -582 196 l-37 29 -12 -23 c-7 -13 -14
-69 -17 -124 -11 -248 82 -404 277 -464 126 -40 371 -44 577 -12 l52 9 16 -35
c9 -19 15 -36 13 -38 -8 -8 -244 -44 -355 -55 -167 -16 -321 -2 -416 37 -18 7
-19 3 -13 -67 10 -134 67 -244 155 -300 70 -44 112 -52 247 -46 156 8 273 39
434 118 l124 61 24 -24 24 -24 -78 -50 c-183 -116 -380 -195 -540 -217 -81
-11 -82 -12 -76 -37 12 -54 59 -134 97 -166 61 -52 123 -69 251 -69 91 1 120
5 168 24 94 37 205 118 318 232 105 105 107 106 133 92 l27 -14 -50 -72 c-101
-145 -228 -273 -340 -342 -33 -21 -61 -43 -61 -50 0 -21 44 -79 78 -102 67
-44 204 -39 310 13 129 63 258 228 327 419 10 28 19 51 21 53 1 2 14 0 29 -4
26 -6 27 -9 21 -55 -20 -151 -101 -344 -178 -425 -29 -31 -47 -58 -43 -64 26
-43 163 -63 249 -38 59 18 137 99 164 170 23 62 42 160 42 221 0 45 9 42 51
-15 l29 -41 0 386 0 387 -42 0 c-131 0 -259 45 -326 113 -98 101 -124 248 -82
467 31 162 31 208 0 254 -14 20 -91 95 -173 167 -81 71 -174 162 -207 202 -57
67 -150 232 -150 263 0 22 -13 17 -57 -21 l-41 -35 -80 117 c-222 329 -360
599 -397 779 -9 43 -17 79 -18 80 -1 1 -23 -9 -49 -22z"/>
<path d="M6806 6427 c-40 -184 -176 -451 -398 -780 l-80 -117 -41 35 c-44 38
-57 43 -57 21 0 -31 -93 -196 -150 -263 -33 -40 -126 -131 -207 -202 -82 -72
-159 -147 -173 -167 -31 -46 -31 -92 0 -254 42 -219 16 -366 -82 -467 -67 -68
-195 -113 -325 -113 l-43 0 0 -387 0 -386 29 41 c42 57 51 60 51 15 0 -61 19
-159 42 -221 27 -71 105 -152 164 -170 86 -25 223 -5 249 38 4 6 -14 33 -43
64 -77 81 -158 274 -178 425 -6 46 -5 49 21 55 15 4 28 6 29 4 2 -2 11 -25 21
-53 69 -191 198 -356 327 -419 106 -52 243 -57 310 -13 34 23 78 81 78 102 0
7 -26 28 -57 48 -113 69 -246 202 -344 344 l-50 72 27 14 c26 14 28 13 133
-92 113 -114 224 -195 318 -232 48 -19 77 -23 168 -24 128 0 190 17 251 69 38
32 85 112 97 166 6 25 5 26 -76 37 -160 22 -357 101 -540 217 l-78 50 24 24
24 24 124 -61 c161 -79 278 -110 434 -118 135 -6 177 2 247 46 88 56 145 166
155 300 6 70 5 74 -13 67 -95 -39 -249 -53 -416 -37 -111 11 -347 47 -355 55
-2 2 4 19 13 38 l16 35 52 -9 c206 -32 451 -28 577 12 195 60 288 216 277 464
-3 55 -10 111 -17 124 l-12 23 -38 -30 c-119 -94 -380 -174 -679 -209 l-73 -9
3 35 3 34 130 33 c277 70 432 143 551 260 116 114 162 240 151 413 -6 108 -30
180 -74 232 -19 22 -38 40 -42 40 -4 0 -15 -14 -25 -31 -31 -52 -137 -159
-240 -241 -132 -106 -470 -328 -480 -317 -2 2 -6 22 -10 44 l-6 40 72 44 c128
80 231 162 328 260 98 101 143 166 189 273 24 59 26 73 26 213 -1 113 -5 166
-19 214 -41 148 -123 264 -223 314 l-50 26 -17 -82z"/>
<path d="M2745 6446 c-16 -8 -66 -41 -110 -75 -91 -70 -182 -119 -237 -127
-48 -8 -48 -15 -2 -164 31 -100 35 -124 30 -184 -3 -43 -14 -87 -28 -116 l-23
-47 46 5 c59 5 85 -17 95 -83 l6 -46 25 23 c13 12 38 51 55 86 27 54 31 74 31
137 -1 91 -30 184 -84 264 -21 32 -39 61 -39 65 0 3 15 6 33 6 17 0 64 7 102
16 39 8 82 17 96 20 25 6 25 4 37 -73 15 -95 51 -173 100 -213 38 -31 115 -60
161 -60 l26 0 -33 26 c-38 30 -77 101 -86 159 -5 27 0 72 14 134 l21 93 -26
43 c-27 46 -85 98 -129 115 -35 13 -44 12 -81 -4z"/>
<path d="M5643 6445 c-38 -16 -106 -83 -128 -124 -14 -28 -14 -38 5 -123 14
-61 19 -106 14 -133 -9 -58 -48 -129 -86 -159 l-33 -26 26 0 c46 0 123 29 161
60 49 40 85 118 100 213 12 77 12 79 37 73 14 -3 58 -12 96 -20 39 -9 85 -16
103 -16 17 0 32 -3 32 -6 0 -4 -18 -33 -39 -65 -54 -80 -83 -173 -84 -264 0
-63 4 -83 31 -137 17 -35 42 -74 55 -86 l25 -23 6 46 c10 66 36 88 95 83 l46
-5 -23 47 c-14 29 -25 73 -28 116 -5 60 -1 84 30 184 46 149 46 156 -2 164
-55 8 -146 57 -237 127 -78 59 -131 89 -157 89 -7 -1 -27 -7 -45 -15z"/>
<path d="M3255 6351 c-111 -27 -162 -103 -153 -230 6 -78 36 -148 88 -202 l37
-39 210 0 210 0 42 45 c73 80 109 206 81 290 -19 59 -74 112 -132 130 -54 16
-68 13 -68 -13 0 -53 -95 -192 -130 -192 -34 0 -108 101 -131 178 -7 23 -15
42 -18 41 -3 -1 -19 -4 -36 -8z"/>
<path d="M4841 6345 c-161 -50 -188 -271 -50 -420 l42 -45 210 0 210 0 37 39
c96 101 119 275 48 366 -23 29 -78 59 -124 68 -30 6 -32 4 -43 -36 -22 -74
-98 -177 -132 -177 -34 0 -100 93 -124 174 -7 22 -16 41 -21 42 -5 2 -29 -4
-53 -11z"/>
<path d="M3946 6128 c-12 -106 -53 -188 -114 -231 l-27 -19 45 7 c56 7 134 43
178 80 42 36 82 113 89 176 l6 49 -85 0 -85 0 -7 -62z"/>
<path d="M4363 6141 c7 -63 47 -140 89 -176 44 -37 122 -73 178 -80 l45 -7
-27 19 c-61 43 -102 125 -114 231 l-7 62 -85 0 -85 0 6 -49z"/>
<path d="M4015 5865 c-16 -14 -55 -35 -85 -47 -52 -21 -74 -22 -463 -27 l-409
-6 -19 -24 c-10 -13 -19 -38 -19 -56 l0 -32 -61 -6 c-75 -7 -146 -42 -177 -88
-21 -30 -23 -43 -20 -119 3 -84 21 -139 63 -194 13 -18 15 -17 46 13 52 53 86
66 169 65 61 0 86 -5 135 -28 56 -26 58 -29 35 -36 -14 -4 -81 -35 -149 -69
-113 -55 -130 -61 -188 -61 -35 0 -79 7 -98 14 -40 17 -42 14 -15 -24 42 -59
141 -75 252 -40 34 11 68 20 73 20 6 0 9 -21 7 -50 -2 -27 -1 -50 3 -50 4 0
21 12 39 27 112 95 259 81 333 -30 39 -58 60 -124 75 -232 6 -44 12 -86 14
-92 5 -19 1363 -19 1368 0 2 6 8 48 14 92 15 108 36 174 75 232 74 111 221
125 333 30 18 -15 35 -27 39 -27 4 0 5 23 3 50 -2 29 1 50 7 50 6 0 39 -9 73
-20 111 -35 210 -19 252 40 27 38 25 41 -15 24 -19 -7 -63 -14 -98 -14 -58 0
-75 6 -188 61 -68 34 -135 65 -149 69 -23 7 -21 10 35 36 49 23 74 28 135 28
83 1 117 -12 169 -65 31 -30 33 -31 46 -13 42 55 60 110 63 194 3 76 1 89 -20
119 -31 46 -102 81 -177 88 l-61 6 0 32 c0 18 -9 43 -19 56 l-19 24 -409 6
c-386 5 -411 6 -461 26 -29 12 -69 34 -89 49 l-36 27 6 -69 c10 -126 54 -192
156 -236 l46 -20 -30 -16 c-33 -17 -103 -21 -149 -9 -29 8 -29 8 -23 -29 8
-46 46 -88 112 -121 45 -23 48 -27 31 -37 -72 -43 -158 -136 -211 -231 -59
-104 -115 -278 -115 -356 0 -16 -4 -29 -10 -29 -5 0 -10 13 -10 29 0 78 -56
252 -115 356 -53 95 -139 188 -211 231 -17 10 -14 14 31 37 66 33 104 75 112
121 6 37 6 37 -23 29 -46 -12 -116 -8 -149 9 l-30 16 46 20 c63 27 114 74 134
124 15 38 34 179 24 178 -2 -1 -17 -12 -34 -25z m-616 -249 c-4 -5 -148 -68
-196 -87 -21 -8 -26 -3 -48 41 l-25 50 136 0 c76 0 135 -2 133 -4z m1926 -46
c-22 -44 -27 -49 -48 -41 -48 19 -192 82 -196 87 -2 2 57 4 133 4 l136 0 -25
-50z"/>
<path d="M3322 3617 l3 -983 26 -49 c21 -41 36 -55 82 -79 54 -27 68 -30 222
-37 252 -13 400 -49 524 -129 l61 -40 61 40 c124 80 272 116 524 129 154 7
168 10 222 37 46 24 61 38 82 79 l26 49 3 983 2 983 -920 0 -920 0 2 -983z
m668 853 c7 -22 19 -40 26 -40 20 0 35 -37 30 -73 -4 -25 53 -191 262 -761
155 -424 273 -731 281 -734 11 -4 12 1 7 19 -20 73 -20 69 13 69 18 0 31 5 31
13 0 6 -20 62 -45 122 -25 61 -45 116 -45 123 0 7 -16 36 -36 65 -20 28 -40
62 -45 75 -5 12 -17 22 -28 22 -14 0 -24 13 -35 43 -145 383 -281 773 -271
775 7 2 10 22 7 60 -3 47 0 63 20 92 63 93 200 92 258 -2 13 -22 20 -51 20
-87 0 -52 -2 -57 -48 -101 -48 -46 -48 -47 -34 -76 13 -28 12 -33 -11 -68 -39
-56 -64 -158 -47 -186 14 -23 27 -2 33 53 18 182 202 306 379 257 48 -14 94
-67 103 -121 6 -35 2 -53 -23 -108 -17 -36 -33 -78 -36 -92 -3 -15 -14 -37
-25 -50 -16 -20 -23 -22 -47 -14 -29 10 -29 11 -29 92 0 45 -3 85 -7 89 -5 4
-17 -1 -28 -11 -27 -24 -27 -98 1 -167 25 -63 22 -140 -11 -232 -20 -54 -20
-68 -11 -165 13 -138 24 -203 52 -298 12 -43 24 -80 25 -81 6 -8 46 11 75 35
24 21 30 33 29 62 -3 59 -2 61 34 61 35 0 55 -13 37 -25 -6 -3 -8 -12 -5 -19
3 -7 -2 -16 -10 -19 -11 -4 -16 -20 -16 -48 0 -40 1 -41 28 -34 15 3 35 14 46
24 17 17 17 20 2 43 -16 24 -16 25 16 20 l32 -5 -17 27 c-10 14 -13 26 -7 26
23 0 69 -31 75 -50 9 -27 -3 -76 -21 -91 -8 -7 -21 -27 -29 -45 -7 -18 -24
-38 -37 -44 -12 -7 -34 -24 -46 -38 -16 -18 -26 -23 -29 -14 -6 16 -23 16 -23
-1 0 -7 -7 -22 -15 -33 -14 -18 -16 -18 -26 -1 -5 9 -14 17 -19 17 -6 0 -10
-8 -10 -17 0 -10 -8 -27 -16 -38 -16 -20 -16 -20 -31 3 -23 34 -30 27 -36 -35
-6 -68 -33 -135 -72 -182 l-28 -33 -14 26 c-11 20 -18 24 -31 17 -26 -14 -153
-31 -227 -31 l-66 0 37 35 c34 32 36 38 31 77 -3 25 -1 52 7 67 34 68 27 158
-16 199 -51 47 -155 37 -183 -19 -21 -39 -19 -56 11 -86 20 -20 28 -23 37 -14
9 9 8 15 -5 22 -11 6 -18 22 -18 39 0 60 98 76 140 22 25 -32 26 -104 2 -152
-34 -68 -157 -102 -236 -65 -87 41 -135 141 -115 235 13 59 67 125 123 151 56
25 179 26 245 0 55 -21 61 -17 61 39 0 20 -6 31 -20 35 -11 4 -18 11 -14 16 3
6 12 8 20 5 20 -8 17 11 -3 23 -16 9 -15 10 8 11 38 0 55 -18 84 -91 23 -59
68 -120 79 -108 4 4 -129 378 -139 387 -2 3 -50 9 -106 13 -56 4 -125 11 -153
14 l-51 7 -13 -35 c-16 -43 -72 -100 -138 -138 -57 -32 -61 -40 -70 -140 -6
-59 -4 -70 16 -97 29 -39 20 -52 -37 -52 -45 0 -45 0 -38 28 4 15 9 71 11 125
4 95 22 167 43 167 39 0 54 143 25 235 -43 134 38 251 182 263 49 4 52 6 58
36 13 58 19 192 12 248 -7 54 -8 55 -46 67 -59 17 -70 40 -70 146 0 82 -9 164
-26 238 -10 44 21 34 36 -13z m-13 -362 c10 -8 32 -22 48 -29 28 -13 31 -20
39 -86 5 -39 5 -92 2 -118 -7 -46 -8 -46 -39 -40 -18 4 -48 16 -67 27 -19 11
-64 24 -99 28 -59 8 -67 12 -107 56 -34 36 -41 50 -34 64 18 33 125 123 175
146 l50 24 7 -29 c4 -15 16 -35 25 -43z m-221 -319 c24 -6 58 -24 75 -40 26
-24 28 -30 17 -48 -9 -15 -18 -19 -38 -14 -91 25 -122 -24 -79 -124 11 -26 21
-65 21 -86 -1 -58 -42 -121 -97 -147 -25 -12 -48 -20 -51 -18 -2 3 4 20 13 39
9 18 19 56 21 84 4 46 1 55 -37 104 -60 80 -66 146 -19 206 39 50 94 64 174
44z m1051 -221 c59 -63 83 -109 83 -160 0 -26 5 -50 10 -53 11 -7 14 -48 4
-58 -8 -8 -56 17 -73 37 -10 12 -9 18 8 33 28 24 26 59 -5 97 -49 57 -60 61
-96 31 -40 -34 -108 -68 -108 -55 0 6 10 44 22 85 l22 75 51 0 c45 0 55 -4 82
-32z m-627 -234 c13 -14 -41 -83 -93 -118 l-58 -38 7 -45 c5 -33 3 -48 -7 -54
-23 -14 -28 -11 -38 29 -15 54 -13 80 8 110 10 15 22 38 26 52 4 13 17 37 29
53 20 27 24 28 71 22 27 -3 52 -9 55 -11z m-550 -220 c15 -9 35 -29 44 -44 20
-34 20 -106 1 -140 -20 -36 -18 -67 6 -91 19 -19 29 -21 83 -15 33 3 70 8 82
12 18 5 23 -2 38 -53 9 -32 19 -63 22 -70 8 -18 -69 -35 -166 -37 -69 -1 -91
3 -120 20 -50 29 -80 78 -80 131 0 51 10 74 56 126 42 46 47 108 13 151 -24
30 -18 33 21 10z"/>
<path d="M4211 4354 c-39 -33 -54 -84 -38 -132 7 -21 19 -37 27 -37 12 0 14
12 12 57 -3 46 0 60 17 77 28 28 64 35 98 19 62 -30 66 -113 7 -153 -32 -22
-34 -45 -4 -45 28 0 78 56 86 96 20 110 -119 191 -205 118z"/>
<path d="M4376 2969 c19 -21 19 -22 -3 -15 -12 4 -24 3 -27 -2 -3 -6 3 -12 14
-15 16 -4 20 -14 20 -45 0 -47 6 -52 59 -55 48 -2 59 7 38 27 -8 9 -21 33 -27
53 -16 50 -38 73 -68 73 -25 0 -25 0 -6 -21z"/>
<path d="M1545 3176 c-22 -11 -42 -22 -45 -24 -3 -2 5 -11 17 -20 12 -10 22
-32 25 -52 l4 -36 -37 20 c-29 16 -35 24 -31 44 6 29 -4 28 -67 -13 -44 -27
-54 -62 -26 -85 13 -11 18 -10 29 5 11 15 16 16 37 5 50 -26 76 -81 43 -94
-43 -17 -98 -3 -140 36 -21 19 -21 19 -34 -12 -37 -89 46 -220 140 -220 38 0
84 23 104 52 l15 21 10 -25 c6 -17 6 -39 0 -62 -14 -50 -5 -59 52 -54 27 3 49
2 49 -2 0 -4 77 -144 170 -310 94 -167 169 -304 168 -305 -2 -1 -18 -7 -36
-15 -88 -35 -71 -167 26 -201 25 -9 27 -13 24 -50 -4 -34 0 -45 23 -69 15 -16
40 -32 54 -35 22 -5 26 -11 26 -42 0 -48 34 -73 111 -82 l57 -6 73 -130 c41
-71 81 -136 91 -142 49 -36 133 5 133 65 0 18 -34 86 -95 189 l-96 160 34 34
c23 23 37 48 42 77 12 75 64 106 316 189 129 42 188 67 235 99 61 41 63 42
100 29 22 -7 65 -16 96 -20 l58 -6 -5 30 c-3 17 -7 45 -10 62 -6 40 12 153 29
188 8 14 23 35 34 46 19 20 19 20 -28 71 -59 66 -79 128 -87 271 l-6 111 -37
-56 c-77 -119 -208 -207 -324 -219 -52 -5 -56 -8 -56 -31 0 -14 10 -36 22 -49
28 -29 19 -37 -42 -37 -46 0 -50 -2 -50 -23 0 -40 26 -88 64 -119 l36 -30 -61
-74 c-111 -139 -184 -184 -294 -185 -93 0 -118 8 -169 55 -48 44 -101 70 -143
70 -15 0 -33 4 -38 8 -6 4 -83 130 -172 280 l-162 273 25 36 c32 47 30 60 -8
69 -35 7 -78 32 -78 44 0 4 17 12 38 18 55 17 84 52 89 109 8 87 -65 183 -139
183 -26 0 -28 -3 -22 -22 16 -52 -8 -132 -43 -145 -24 -10 -53 33 -53 78 0 32
3 39 20 39 23 0 27 29 8 48 -17 17 -47 13 -93 -12z"/>
<path d="M6322 2952 c-10 -7 -10 -15 2 -43 7 -19 17 -53 21 -76 l7 -43 -34 6
c-18 4 -52 15 -75 24 -23 10 -44 16 -47 12 -8 -7 -8 -157 0 -165 4 -3 19 0 35
9 16 8 50 17 75 21 42 5 46 4 41 -13 -3 -10 -8 -38 -12 -61 -6 -37 -10 -43
-38 -49 -159 -33 -299 -187 -327 -357 -10 -63 -2 -170 15 -197 18 -30 -74 13
-149 69 -26 20 -82 76 -122 125 l-74 90 36 30 c38 31 64 79 64 119 0 21 -4 23
-50 23 -61 0 -70 8 -42 37 12 13 22 35 22 49 0 23 -4 26 -56 31 -117 12 -247
100 -324 219 l-37 57 -6 -112 c-7 -143 -27 -205 -87 -271 -47 -51 -47 -51 -28
-71 11 -11 26 -32 34 -47 17 -33 35 -150 28 -189 -2 -16 -6 -43 -9 -60 l-5
-30 58 7 c31 3 76 13 100 21 42 14 44 14 77 -16 48 -41 134 -80 324 -146 90
-31 186 -68 214 -82 28 -14 95 -69 154 -126 l103 -100 59 -1 c53 -1 63 3 90
28 27 26 33 28 56 18 47 -22 101 -15 137 16 26 23 40 28 68 25 32 -4 40 1 92
54 48 49 57 65 61 103 2 25 17 77 32 115 24 62 26 80 23 165 -3 81 -8 105 -35
162 -54 115 -149 199 -265 234 -57 18 -57 18 -68 66 -5 27 -10 54 -10 60 0 15
87 2 118 -18 33 -22 42 -7 42 73 0 91 -3 95 -53 73 -23 -9 -57 -20 -74 -24
-31 -5 -33 -4 -33 22 1 15 9 50 19 79 15 44 15 53 4 58 -22 8 -136 6 -151 -3z"/>
<path d="M3690 2345 c0 -84 -119 -235 -233 -295 -26 -14 -47 -28 -47 -32 0 -4
16 -18 35 -30 19 -13 35 -26 35 -30 0 -12 -186 -181 -267 -242 -150 -112 -305
-194 -430 -226 -34 -8 -43 -15 -43 -32 0 -36 40 -106 78 -138 84 -69 248 -99
357 -65 162 52 344 238 502 517 54 95 69 109 100 90 10 -6 -4 -42 -52 -136
-147 -292 -320 -498 -507 -603 -75 -42 -76 -47 -32 -116 32 -48 106 -102 170
-122 74 -23 180 -22 236 3 170 75 324 365 428 805 31 130 39 147 66 129 24
-15 -15 -294 -76 -552 -72 -304 -77 -394 -26 -470 29 -44 52 -58 173 -106 l83
-32 82 32 c122 48 145 62 174 106 51 76 46 166 -26 470 -61 258 -100 537 -76
552 27 18 35 1 66 -129 104 -440 258 -730 428 -805 56 -25 162 -26 236 -3 64
20 138 74 170 122 44 69 43 74 -32 116 -187 105 -360 311 -507 603 -48 94 -62
130 -52 136 29 18 46 6 83 -59 147 -266 311 -452 464 -525 190 -91 460 0 486
164 6 36 6 37 -37 48 -127 32 -282 113 -432 226 -81 61 -267 230 -267 242 0 4
16 17 35 30 19 12 35 26 35 30 0 4 -21 18 -47 32 -114 60 -233 211 -233 295
l0 38 -94 -7 c-181 -12 -316 -63 -410 -152 l-47 -46 -52 49 c-93 88 -224 136
-404 149 l-93 7 0 -38z"/>
</g>
</svg>
