<?xml version="1.0" standalone="no"?>
<!DOCTYPE svg PUBLIC "-//W3C//DTD SVG 20010904//EN"
 "http://www.w3.org/TR/2001/REC-SVG-20010904/DTD/svg10.dtd">
<svg version="1.0" xmlns="http://www.w3.org/2000/svg"
 width="320.000000pt" height="320.000000pt" viewBox="0 0 320.000000 320.000000"
 preserveAspectRatio="xMidYMid meet">
<metadata>
Created by potrace 1.16, written by Peter Selinger 2001-2019
</metadata>
<g transform="translate(0.000000,320.000000) scale(0.100000,-0.100000)"
fill="#000000" stroke="none">
<path d="M1425 2826 c-361 -85 -605 -379 -628 -756 -2 -36 -2 -57 0 -47 4 14
16 17 74 17 l69 0 0 40 c0 21 9 78 20 125 126 542 792 749 1196 372 41 -39 89
-91 107 -116 26 -38 17 -31 -54 39 -65 65 -104 95 -160 122 -119 58 -180 73
-304 73 -127 0 -216 -23 -325 -82 -88 -49 -204 -168 -253 -260 -41 -79 -77
-203 -77 -270 l0 -43 69 0 69 0 12 82 c20 140 78 251 178 345 109 102 241 153
397 153 103 0 172 -16 261 -60 65 -32 187 -138 216 -187 12 -21 -2 -11 -45 31
-65 63 -160 117 -239 136 -56 13 -181 12 -238 -1 -180 -41 -346 -215 -380
-398 -19 -102 -20 -101 60 -101 78 0 72 -6 85 90 14 105 119 246 221 298 53
27 151 52 204 52 53 0 151 -25 203 -52 49 -24 132 -101 162 -148 34 -55 65
-147 65 -195 l0 -45 -63 0 -64 0 -16 -100 c-60 -367 -352 -623 -712 -624 -126
0 -223 22 -335 77 -68 34 -103 60 -176 132 -50 49 -96 100 -103 112 -6 12 24
-13 66 -55 130 -129 284 -193 465 -193 187 0 325 58 459 191 120 119 173 231
194 408 l7 52 -76 0 -76 0 0 -42 c-1 -118 -70 -269 -169 -368 -177 -177 -440
-219 -670 -107 -66 32 -204 155 -230 205 -7 12 17 -6 53 -42 205 -205 518
-206 722 -2 70 70 129 181 139 261 3 28 8 60 11 73 4 21 2 22 -71 22 l-75 0 0
-35 c0 -95 -72 -227 -165 -302 -90 -74 -133 -88 -265 -88 -109 0 -119 2 -183
32 -120 57 -208 160 -241 284 -11 39 -15 46 -15 26 -3 -94 79 -297 162 -405
207 -269 570 -379 890 -271 386 131 615 536 527 934 -49 220 -191 413 -388
525 -126 71 -207 92 -367 96 -97 3 -159 -1 -200 -10z"/>
<path d="M2892 900 c-88 -19 -150 -72 -172 -151 -27 -92 25 -148 173 -185 36
-9 74 -25 83 -35 16 -18 16 -20 -1 -39 -31 -34 -135 -22 -135 15 0 12 -17 15
-85 15 l-85 0 0 -35 c0 -47 54 -107 112 -124 147 -44 315 17 362 131 43 103
-3 164 -154 203 -83 21 -100 31 -100 56 0 42 107 49 117 8 5 -17 15 -19 90
-19 l85 0 -6 38 c-8 45 -33 81 -73 104 -35 21 -151 31 -211 18z"/>
<path d="M292 868 c-10 -18 -61 -112 -112 -208 -51 -96 -108 -203 -127 -237
l-34 -63 86 0 85 0 17 35 17 35 88 0 c80 0 88 -2 88 -19 0 -47 8 -51 96 -51
l84 0 -5 28 c-3 15 -19 106 -37 202 -17 96 -36 204 -42 240 l-11 65 -87 3 -86
3 -20 -33z m92 -270 l6 -58 -55 0 c-30 0 -55 2 -55 5 0 2 19 44 41 92 l42 88
7 -35 c4 -19 10 -61 14 -92z"/>
<path d="M720 892 c0 -5 -11 -71 -25 -148 -57 -314 -65 -360 -65 -371 0 -10
24 -13 85 -13 80 0 85 1 89 23 3 12 12 63 20 112 9 50 27 153 41 229 14 77 25
148 25 158 0 16 -9 18 -85 18 -47 0 -85 -4 -85 -8z"/>
<path d="M1006 889 c-2 -8 -12 -59 -21 -114 -9 -55 -29 -171 -44 -257 l-28
-158 87 0 86 0 18 96 19 96 53 -4 c74 -6 88 -20 79 -81 -3 -28 -9 -63 -12 -78
l-5 -29 89 0 89 0 0 38 c0 20 4 63 8 94 8 55 8 58 -23 89 -18 17 -31 32 -29
33 47 29 61 43 78 76 24 47 26 117 4 149 -31 44 -76 54 -266 59 -146 4 -178 2
-182 -9z m289 -139 c15 -17 16 -24 7 -45 -7 -14 -23 -30 -38 -35 -25 -10 -124
-14 -124 -5 0 2 5 27 11 55 l11 50 57 0 c45 0 62 -4 76 -20z"/>
<path d="M1591 878 c-4 -13 -15 -63 -24 -113 -48 -262 -56 -304 -62 -352 l-7
-53 164 0 c175 0 231 10 286 49 39 27 64 82 64 139 0 39 -5 51 -29 73 l-29 25
37 37 c41 39 58 92 43 135 -22 61 -99 82 -307 82 -123 0 -128 -1 -136 -22z
m263 -114 c23 -9 19 -50 -6 -68 -13 -9 -43 -16 -70 -16 -46 0 -48 1 -48 29 0
53 8 61 60 61 27 0 55 -3 64 -6z m-10 -200 c20 -20 20 -27 -3 -55 -15 -19 -30
-24 -85 -27 l-67 -4 6 38 c11 65 10 64 74 64 41 0 65 -5 75 -16z"/>
<path d="M2155 888 c-7 -21 -34 -167 -50 -272 -25 -155 2 -225 97 -255 47 -15
171 -15 231 -1 55 14 120 68 148 122 17 33 69 282 81 383 l3 30 -85 0 -85 0
-12 -65 c-60 -335 -59 -331 -116 -349 -40 -13 -84 -1 -94 25 -7 19 9 148 37
289 9 50 15 93 13 98 -8 13 -163 8 -168 -5z"/>
</g>
</svg>
