<?xml version="1.0" standalone="no"?>
<!DOCTYPE svg PUBLIC "-//W3C//DTD SVG 20010904//EN"
 "http://www.w3.org/TR/2001/REC-SVG-20010904/DTD/svg10.dtd">
<svg version="1.0" xmlns="http://www.w3.org/2000/svg"
 width="900.000000pt" height="900.000000pt" viewBox="0 0 900.000000 900.000000"
 preserveAspectRatio="xMidYMid meet">
<metadata>
Created by potrace 1.16, written by Peter Selinger 2001-2019
</metadata>
<g transform="translate(0.000000,900.000000) scale(0.100000,-0.100000)"
fill="#000000" stroke="none">
<path d="M1410 5617 l0 -2178 137 -142 c76 -78 140 -144 143 -147 20 -19 757
-779 1321 -1361 l354 -366 5 1011 5 1011 1680 0 1680 1 40 21 c22 12 54 36 72
55 68 70 63 -86 63 2102 l0 1981 -24 50 c-28 59 -66 98 -121 121 -37 16 -218
17 -2698 18 l-2657 1 0 -2178z m4607 1628 c28 -14 71 -48 96 -74 163 -174 187
-480 72 -919 -88 -333 -198 -560 -476 -976 -327 -489 -682 -824 -1037 -980
-218 -95 -427 -130 -637 -106 -184 20 -277 64 -411 192 -34 33 -64 55 -65 50
-7 -16 -186 -122 -283 -168 -125 -58 -230 -85 -351 -91 -126 -6 -218 12 -330
66 -138 67 -209 166 -262 366 -24 91 -26 117 -26 295 -1 216 9 280 68 450 91
266 282 633 511 983 47 71 83 131 82 133 -2 2 -44 -3 -93 -11 -114 -19 -212
-19 -397 0 -349 35 -463 31 -557 -21 -24 -13 -47 -22 -50 -19 -13 14 42 206
85 294 106 217 275 311 534 297 58 -3 175 -16 260 -28 122 -17 202 -22 375
-23 230 0 295 8 529 66 44 10 81 17 84 15 2 -3 -54 -80 -126 -173 -593 -769
-854 -1301 -854 -1748 -1 -191 29 -300 103 -380 66 -71 189 -107 297 -85 68
14 158 56 226 104 l50 35 3 103 c11 419 203 947 493 1360 83 118 331 370 425
431 191 124 354 187 500 194 120 5 183 -19 231 -90 41 -60 54 -104 54 -187 -1
-221 -157 -561 -479 -1040 -160 -239 -405 -555 -495 -639 -33 -31 -32 -44 3
-106 34 -59 98 -120 150 -143 58 -26 218 -22 306 7 195 65 378 212 576 461
234 293 381 591 462 935 86 362 53 568 -123 774 l-71 84 80 81 c44 45 95 97
113 117 121 129 244 169 355 114z"/>
<path d="M4515 6352 c-80 -51 -205 -186 -277 -297 -68 -104 -220 -407 -272
-543 -37 -94 -86 -268 -86 -303 0 -16 3 -18 20 -9 59 32 335 337 442 490 63
90 192 329 229 424 36 93 59 229 43 254 -18 28 -37 25 -99 -16z"/>
</g>
</svg>
