<?xml version="1.0" standalone="no"?>
<!DOCTYPE svg PUBLIC "-//W3C//DTD SVG 20010904//EN"
 "http://www.w3.org/TR/2001/REC-SVG-20010904/DTD/svg10.dtd">
<svg version="1.0" xmlns="http://www.w3.org/2000/svg"
 width="1024.000000pt" height="1024.000000pt" viewBox="0 0 1024.000000 1024.000000"
 preserveAspectRatio="xMidYMid meet">
<metadata>
Created by potrace 1.16, written by Peter Selinger 2001-2019
</metadata>
<g transform="translate(0.000000,1024.000000) scale(0.100000,-0.100000)"
fill="#000000" stroke="none">
<path d="M3035 8864 c-390 -38 -616 -82 -918 -180 -695 -227 -1315 -660 -1782
-1244 -74 -92 -255 -357 -308 -452 l-27 -46 525 -271 c289 -149 529 -271 534
-271 6 0 16 10 22 23 22 41 131 201 183 267 210 267 493 508 791 673 261 144
563 246 875 294 163 25 558 25 720 0 170 -27 438 -91 457 -110 2 -3 -19 -34
-49 -69 -190 -224 -392 -554 -526 -858 -428 -969 -422 -2071 14 -3044 114
-253 307 -566 484 -784 50 -63 90 -116 87 -118 -2 -2 -73 -22 -159 -44 -473
-120 -934 -116 -1384 14 -571 164 -1093 546 -1412 1033 -37 56 -71 102 -76
102 -15 1 -1030 -520 -1050 -539 -16 -16 169 -294 332 -500 103 -129 433 -457
567 -564 393 -312 849 -549 1310 -681 174 -50 343 -87 505 -110 97 -14 187
-16 585 -12 428 4 480 6 585 25 389 73 729 188 1062 359 l147 76 68 -37 c337
-184 699 -311 1118 -393 138 -27 147 -27 609 -31 512 -4 547 -1 830 59 945
199 1802 783 2340 1594 51 77 103 156 115 177 l21 36 -172 90 c-376 195 -879
452 -886 452 -5 0 -43 -51 -84 -113 -398 -589 -1035 -989 -1750 -1098 -170
-26 -509 -31 -673 -10 -182 23 -525 101 -525 120 0 4 43 60 95 126 422 528
683 1148 777 1845 18 137 22 214 22 450 1 300 -7 401 -50 650 -106 623 -383
1234 -773 1710 l-70 85 86 28 c110 36 349 83 487 96 678 66 1375 -150 1896
-587 195 -164 425 -428 539 -619 l42 -70 452 234 c248 129 485 250 525 271 39
20 72 43 72 51 0 50 -256 422 -424 616 -895 1033 -2272 1503 -3601 1229 -348
-72 -676 -192 -986 -361 l-102 -55 -46 26 c-401 229 -847 374 -1356 442 -104
14 -598 27 -690 18z m2181 -2085 c350 -402 552 -860 614 -1389 14 -124 15
-417 0 -550 -43 -399 -189 -803 -414 -1145 -76 -115 -212 -290 -263 -338 l-30
-28 -54 63 c-168 194 -281 364 -388 581 -97 197 -141 314 -191 511 -95 378
-105 752 -29 1131 88 441 313 882 613 1203 27 28 52 52 55 52 4 0 43 -41 87
-91z"/>
</g>
</svg>
