<?xml version="1.0" standalone="no"?>
<!DOCTYPE svg PUBLIC "-//W3C//DTD SVG 20010904//EN"
 "http://www.w3.org/TR/2001/REC-SVG-20010904/DTD/svg10.dtd">
<svg version="1.0" xmlns="http://www.w3.org/2000/svg"
 width="1024.000000pt" height="1024.000000pt" viewBox="0 0 1024.000000 1024.000000"
 preserveAspectRatio="xMidYMid meet">
<metadata>
Created by potrace 1.16, written by Peter Selinger 2001-2019
</metadata>
<g transform="translate(0.000000,1024.000000) scale(0.100000,-0.100000)"
fill="#000000" stroke="none">
<path d="M1179 6075 c-294 -54 -558 -253 -693 -522 -79 -159 -117 -366 -96
-530 31 -251 124 -438 297 -604 142 -135 313 -222 503 -255 75 -12 195 -14
777 -11 788 3 762 1 959 97 261 127 445 355 516 636 32 127 32 341 0 468 -38
150 -120 306 -220 418 -115 128 -308 244 -482 290 -84 22 -96 22 -785 24 -563
2 -715 0 -776 -11z m1439 -340 c228 -54 414 -241 468 -471 22 -95 15 -255 -15
-344 -63 -182 -210 -332 -394 -399 l-72 -26 -670 0 -670 0 -74 24 c-147 48
-292 171 -364 309 -56 106 -71 172 -71 297 0 96 4 121 30 195 38 108 86 180
174 263 73 70 174 126 270 151 83 22 1296 22 1388 1z"/>
<path d="M6535 5513 c-11 -2 -30 -12 -41 -21 -19 -15 -478 -724 -491 -758 -4
-11 12 -14 78 -14 l84 1 195 309 c107 171 198 309 203 307 4 -1 54 -76 111
-167 l103 -165 -199 -3 c-109 -1 -198 -4 -198 -7 0 -2 19 -33 41 -69 l41 -66
207 0 206 0 41 -67 40 -68 88 -3 89 -3 -15 23 c-8 13 -120 186 -248 386 -128
199 -240 366 -249 371 -23 12 -63 18 -86 14z"/>
<path d="M4025 5496 c-202 -50 -334 -251 -295 -449 34 -174 157 -289 339 -318
111 -17 560 -7 625 14 261 85 356 407 182 620 -43 53 -122 108 -186 129 -52
17 -600 21 -665 4z m654 -151 c89 -44 141 -130 141 -230 0 -102 -51 -184 -142
-229 l-52 -26 -280 0 c-252 0 -285 2 -322 19 -173 79 -211 301 -72 427 70 63
73 63 391 64 286 0 288 0 336 -25z"/>
<path d="M5052 5118 l3 -393 73 -3 72 -3 0 326 0 325 279 0 280 0 34 -32 c62
-60 55 -150 -16 -202 -26 -20 -44 -21 -258 -24 l-229 -3 223 -194 222 -195
103 0 c56 0 102 2 102 4 0 2 -66 60 -147 128 l-148 123 72 6 c125 12 212 74
247 177 43 126 -6 251 -125 317 l-54 30 -368 3 -367 3 2 -393z"/>
<path d="M7373 5500 c-104 -21 -223 -112 -271 -206 -96 -191 -17 -431 172
-524 84 -42 151 -50 417 -50 l227 0 41 66 c22 36 41 67 41 70 0 2 -134 4 -297
4 -291 0 -299 1 -348 24 -132 61 -190 220 -125 346 10 19 36 52 57 72 67 65
82 68 365 68 l253 0 29 48 c17 26 36 57 44 70 l14 22 -288 -1 c-159 -1 -308
-5 -331 -9z"/>
<path d="M8080 5150 c0 -247 4 -367 11 -384 7 -14 25 -30 42 -36 19 -6 159
-10 372 -10 l343 0 41 66 c22 36 41 67 41 70 0 2 -157 4 -350 4 l-350 0 0 325
0 325 -75 0 -75 0 0 -360z"/>
<path d="M9223 5500 c-114 -23 -229 -116 -281 -227 -37 -79 -38 -218 -3 -305
48 -122 175 -219 312 -238 35 -5 166 -10 290 -10 l227 0 41 66 c22 36 41 67
41 70 0 2 -134 4 -297 4 -292 0 -299 1 -349 24 -53 25 -116 90 -133 137 l-10
29 327 0 327 0 43 65 42 65 -370 0 c-203 0 -370 2 -370 5 0 19 44 86 77 117
67 65 83 68 362 68 l250 0 24 33 c13 17 34 49 46 70 l23 37 -289 -1 c-158 -1
-307 -5 -330 -9z"/>
</g>
</svg>
