<?xml version="1.0" standalone="no"?>
<!DOCTYPE svg PUBLIC "-//W3C//DTD SVG 20010904//EN"
 "http://www.w3.org/TR/2001/REC-SVG-20010904/DTD/svg10.dtd">
<svg version="1.0" xmlns="http://www.w3.org/2000/svg"
 width="900.000000pt" height="900.000000pt" viewBox="0 0 900.000000 900.000000"
 preserveAspectRatio="xMidYMid meet">
<metadata>
Created by potrace 1.16, written by Peter Selinger 2001-2019
</metadata>
<g transform="translate(0.000000,900.000000) scale(0.100000,-0.100000)"
fill="#000000" stroke="none">
<path d="M10 5206 c0 -2 38 -161 84 -353 211 -867 196 -819 262 -870 29 -21
50 -28 100 -31 35 -2 79 -1 98 2 l34 6 87 353 c48 193 97 405 110 470 32 161
35 162 55 22 13 -98 92 -479 130 -633 31 -125 43 -148 97 -189 32 -25 46 -28
117 -31 45 -1 87 1 95 7 7 5 49 143 92 307 158 598 240 909 245 927 5 16 -6
17 -123 17 l-129 0 -72 -342 c-39 -189 -81 -399 -93 -468 -23 -136 -34 -175
-42 -150 -2 8 -19 96 -36 195 -18 99 -60 311 -94 470 l-62 290 -136 3 -135 3
-53 -223 c-66 -278 -91 -392 -132 -588 -17 -85 -33 -157 -35 -159 -8 -9 -13
11 -44 179 -28 155 -112 594 -141 738 l-10 52 -135 0 c-74 0 -134 -2 -134 -4z"/>
<path d="M2570 4585 l0 -625 120 0 120 0 0 625 0 625 -120 0 -120 0 0 -625z"/>
<path d="M6170 4710 c0 -331 4 -517 11 -552 20 -95 62 -153 139 -194 27 -15
57 -19 135 -19 55 0 117 4 138 8 l37 8 0 94 0 95 -74 0 c-133 0 -146 28 -146
329 l0 201 110 0 110 0 0 115 0 115 -110 0 -110 0 0 150 0 150 -120 0 -120 0
0 -500z"/>
<path d="M1860 4906 c-80 -15 -187 -49 -204 -66 -10 -10 17 -136 33 -152 3 -4
36 4 71 19 94 38 230 44 293 14 49 -24 77 -67 77 -120 l0 -31 -67 0 c-89 0
-236 -31 -298 -63 -127 -64 -187 -155 -188 -283 -1 -160 105 -271 269 -282
107 -7 229 37 283 102 19 22 24 20 44 -16 10 -18 30 -42 44 -52 28 -21 114
-33 157 -22 23 6 25 10 20 54 -2 26 -6 175 -8 332 -4 314 -10 347 -68 434 -76
115 -259 168 -458 132z m278 -566 c4 -103 -16 -153 -76 -191 -37 -24 -57 -29
-105 -29 -53 0 -62 3 -92 33 -47 47 -54 94 -24 154 17 32 37 53 64 67 46 23
144 45 195 43 l35 -2 3 -75z"/>
<path d="M3433 4905 c-67 -19 -121 -53 -157 -99 -15 -21 -31 -34 -34 -31 -4 4
-7 32 -7 63 l0 57 -115 0 -115 0 -3 -467 -2 -468 124 0 125 0 3 313 3 314 28
42 c38 57 80 81 144 81 44 0 58 -5 88 -31 59 -52 65 -90 65 -426 l0 -293 125
0 125 0 0 313 c0 305 1 313 23 352 32 57 79 85 141 85 67 0 107 -25 137 -87
23 -47 24 -55 27 -355 l3 -308 120 0 119 0 0 326 c0 366 -5 406 -66 501 -106
166 -341 174 -497 18 -30 -30 -57 -55 -60 -55 -2 0 -10 13 -17 30 -15 36 -80
97 -124 115 -52 22 -145 26 -203 10z"/>
<path d="M4855 4914 c-130 -19 -265 -62 -265 -85 0 -7 9 -43 21 -81 17 -58 23
-68 37 -62 120 52 261 69 337 40 50 -20 83 -63 87 -117 l3 -34 -95 -6 c-295
-20 -459 -143 -460 -344 0 -117 55 -206 157 -256 40 -20 63 -24 143 -24 110 1
160 18 230 81 32 29 44 35 48 25 3 -8 22 -33 43 -55 l38 -41 77 0 77 0 -2 315
c-1 175 -7 337 -13 365 -30 141 -101 221 -228 259 -55 17 -184 27 -235 20z
m226 -506 c5 -90 -5 -176 -22 -205 -57 -92 -197 -116 -261 -44 -23 26 -28 40
-28 86 0 46 4 59 30 89 35 39 92 64 171 76 83 12 109 11 110 -2z"/>
<path d="M5922 4901 c-62 -21 -131 -84 -157 -142 -10 -21 -22 -39 -26 -39 -5
0 -10 39 -11 88 l-3 87 -107 3 -108 3 0 -471 0 -470 124 0 125 0 3 283 c3 270
4 284 25 324 40 74 112 113 209 113 l54 0 0 114 c0 95 -3 115 -16 120 -26 10
-56 6 -112 -13z"/>
</g>
</svg>
