<?xml version="1.0" standalone="no"?>
<!DOCTYPE svg PUBLIC "-//W3C//DTD SVG 20010904//EN"
 "http://www.w3.org/TR/2001/REC-SVG-20010904/DTD/svg10.dtd">
<svg version="1.0" xmlns="http://www.w3.org/2000/svg"
 width="315.000000pt" height="315.000000pt" viewBox="0 0 315.000000 315.000000"
 preserveAspectRatio="xMidYMid meet">
<metadata>
Created by potrace 1.16, written by Peter Selinger 2001-2019
</metadata>
<g transform="translate(0.000000,315.000000) scale(0.100000,-0.100000)"
fill="#000000" stroke="none">
<path d="M1300 2540 c-226 -22 -544 -98 -732 -175 -15 -6 -15 -12 9 -60 l26
-53 51 20 c468 189 1043 218 1541 77 61 -17 143 -44 183 -60 40 -16 79 -29 87
-29 17 0 59 76 51 95 -12 31 -397 138 -618 171 -120 18 -475 26 -598 14z"/>
<path d="M1210 2349 c-217 -28 -560 -128 -560 -164 0 -21 115 -119 179 -154
32 -17 61 -31 64 -31 3 0 8 13 12 29 16 73 118 114 271 109 l88 -3 12 -70 c7
-38 61 -338 119 -665 140 -783 141 -789 148 -765 3 11 22 110 41 220 142 791
226 1268 226 1277 0 7 40 9 119 6 147 -6 204 -29 236 -93 11 -22 21 -42 22
-44 1 -2 35 15 74 39 72 43 169 127 169 147 0 15 -195 86 -320 116 -101 25
-182 39 -302 52 -65 7 -51 18 -178 -139 -47 -58 -88 -104 -91 -103 -3 1 -52
57 -108 125 -112 135 -97 127 -221 111z"/>
</g>
</svg>
