<?xml version="1.0" standalone="no"?>
<!DOCTYPE svg PUBLIC "-//W3C//DTD SVG 20010904//EN"
 "http://www.w3.org/TR/2001/REC-SVG-20010904/DTD/svg10.dtd">
<svg version="1.0" xmlns="http://www.w3.org/2000/svg"
 width="800.000000pt" height="800.000000pt" viewBox="0 0 800.000000 800.000000"
 preserveAspectRatio="xMidYMid meet">
<metadata>
Created by potrace 1.16, written by Peter Selinger 2001-2019
</metadata>
<g transform="translate(0.000000,800.000000) scale(0.100000,-0.100000)"
fill="#000000" stroke="none">
<path d="M2009 4873 c-1 -411 -5 -707 -9 -680 -56 332 -287 582 -616 666 -119
31 -204 41 -359 41 -453 0 -768 -156 -919 -457 -76 -151 -113 -350 -103 -557
12 -279 90 -471 250 -622 151 -142 332 -215 607 -245 126 -14 373 -6 480 16
218 44 387 135 498 268 53 64 112 180 119 235 l6 42 -206 0 -205 0 -23 -47
c-57 -119 -206 -220 -371 -249 -382 -70 -718 165 -740 516 l-3 45 798 3 799 2
-4 -390 -3 -390 196 0 196 0 7 38 c3 20 6 72 6 115 0 42 4 77 8 77 5 0 18 -13
30 -30 32 -43 147 -127 227 -165 164 -79 384 -115 578 -95 361 37 638 233 763
542 l34 83 0 -56 c0 -72 32 -197 67 -262 61 -111 207 -222 358 -270 86 -28
223 -47 334 -47 295 0 546 87 708 246 l73 71 0 -92 c0 -51 3 -107 6 -124 l7
-31 181 0 181 0 -2 393 c-5 744 -9 887 -26 947 -9 30 -15 55 -14 56 4 4 732
-1369 735 -1385 1 -9 -76 -164 -172 -346 l-174 -330 221 -3 c121 -1 224 1 228
5 5 5 222 429 484 943 262 514 539 1058 616 1208 l140 272 -216 0 -215 0 -341
-682 -342 -683 -341 683 -341 682 -237 0 -238 0 37 -67 c20 -38 45 -84 55
-103 17 -29 9 -24 -50 32 -113 106 -261 169 -467 197 -98 14 -345 14 -455 1
-295 -37 -521 -161 -612 -337 -37 -71 -64 -165 -53 -183 4 -6 79 -10 211 -10
186 0 205 2 210 18 42 144 164 229 358 251 205 24 403 -32 500 -140 59 -64 79
-120 84 -226 l4 -91 -408 -5 c-316 -4 -427 -9 -488 -21 -172 -34 -285 -76
-386 -142 -78 -51 -108 -82 -152 -154 l-33 -56 3 141 c5 215 -36 376 -140 553
-47 80 -189 220 -275 271 -189 112 -417 158 -656 132 -242 -26 -421 -102 -549
-234 l-48 -48 0 495 0 496 -205 0 -205 0 -1 -727z m-820 -259 c224 -55 367
-215 396 -441 l7 -53 -587 0 -587 0 7 53 c28 212 185 376 417 437 94 24 256
26 347 4z m2025 -14 c297 -76 473 -345 453 -695 -15 -255 -138 -456 -345 -560
-81 -41 -140 -55 -242 -61 -121 -8 -217 12 -326 66 -146 71 -261 220 -311 400
-28 102 -25 321 6 420 70 228 216 376 423 430 100 26 241 26 342 0z m2336
-772 c-1 -346 -242 -558 -635 -558 -137 0 -227 21 -303 69 -99 65 -154 179
-137 289 14 96 61 153 165 201 122 56 300 77 673 80 l237 1 0 -82z"/>
</g>
</svg>
