<?xml version="1.0" standalone="no"?>
<!DOCTYPE svg PUBLIC "-//W3C//DTD SVG 20010904//EN"
 "http://www.w3.org/TR/2001/REC-SVG-20010904/DTD/svg10.dtd">
<svg version="1.0" xmlns="http://www.w3.org/2000/svg"
 width="286.000000pt" height="286.000000pt" viewBox="0 0 286.000000 286.000000"
 preserveAspectRatio="xMidYMid meet">
<metadata>
Created by potrace 1.16, written by Peter Selinger 2001-2019
</metadata>
<g transform="translate(0.000000,286.000000) scale(0.100000,-0.100000)"
fill="#000000" stroke="none">
<path d="M1525 2180 c-349 -35 -733 -167 -995 -342 -112 -74 -270 -229 -319
-311 -105 -178 -117 -328 -39 -481 49 -95 197 -216 334 -270 71 -29 244 -78
244 -70 0 15 254 976 270 1021 60 172 184 254 335 223 78 -16 115 -52 115
-110 0 -54 -34 -90 -85 -90 -61 0 -95 58 -63 109 29 47 -35 70 -84 31 -34 -26
-51 -66 -86 -193 l-29 -107 139 0 138 0 -5 -22 c-4 -13 -30 -108 -58 -213
l-52 -190 -69 -3 -69 -3 6 33 c3 18 24 99 46 181 l39 147 -66 0 -67 0 -108
-416 c-60 -229 -106 -418 -103 -421 12 -12 283 -14 396 -4 499 48 959 239
1230 511 98 98 143 163 188 272 22 53 26 79 27 159 0 90 -2 99 -38 171 -91
184 -325 319 -652 374 -109 18 -397 26 -520 14z m-677 -408 c58 -31 82 -73 82
-142 -1 -145 -99 -222 -300 -237 l-85 -6 -30 -111 -30 -111 -74 -3 c-58 -2
-72 0 -68 10 2 8 42 152 88 322 l83 308 145 -4 c128 -3 151 -6 189 -26z m1290
-186 c50 -26 65 -51 59 -97 -11 -81 -96 -139 -214 -147 -71 -5 -73 -5 -73 -31
0 -84 114 -104 192 -34 21 19 33 11 43 -27 5 -21 0 -30 -25 -48 -105 -78 -265
-66 -321 24 -57 93 -8 248 101 320 79 52 181 69 238 40z m476 -7 c20 -15 26
-29 26 -57 0 -43 -7 -55 -38 -71 -33 -17 -62 -4 -78 35 -19 44 -39 43 -84 -5
-36 -38 -55 -86 -105 -263 l-16 -58 -69 0 c-39 0 -70 3 -70 6 0 3 25 100 56
215 l57 209 68 0 c72 0 75 -2 59 -45 l-10 -27 39 31 c69 55 121 65 165 30z
m-804 6 c0 -24 -52 -89 -159 -200 l-126 -130 113 -3 c101 -2 113 -4 108 -20
-3 -9 -8 -29 -12 -44 l-6 -28 -179 0 c-179 0 -179 0 -179 23 0 43 64 133 164
232 l101 100 -96 5 -95 5 8 33 9 32 174 0 c96 0 175 -2 175 -5z"/>
<path d="M630 1699 c-6 -24 -22 -83 -36 -131 -13 -48 -24 -92 -24 -99 0 -17
94 -4 133 19 41 23 76 87 83 149 5 42 3 51 -18 71 -16 15 -43 25 -76 29 l-51
6 -11 -44z"/>
<path d="M1990 1504 c-31 -26 -60 -72 -60 -95 0 -19 84 -5 119 20 32 23 48 59
37 86 -9 24 -61 18 -96 -11z"/>
</g>
</svg>
