<?xml version="1.0" standalone="no"?>
<!DOCTYPE svg PUBLIC "-//W3C//DTD SVG 20010904//EN"
 "http://www.w3.org/TR/2001/REC-SVG-20010904/DTD/svg10.dtd">
<svg version="1.0" xmlns="http://www.w3.org/2000/svg"
 width="728.000000pt" height="728.000000pt" viewBox="0 0 728.000000 728.000000"
 preserveAspectRatio="xMidYMid meet">
<metadata>
Created by potrace 1.16, written by Peter Selinger 2001-2019
</metadata>
<g transform="translate(0.000000,728.000000) scale(0.100000,-0.100000)"
fill="#000000" stroke="none">
<path d="M3450 5594 c-19 -2 -100 -11 -180 -20 -409 -44 -797 -148 -1113 -298
-528 -251 -880 -626 -1042 -1113 -135 -402 -125 -740 33 -1077 221 -471 752
-892 1409 -1117 594 -204 1280 -238 1862 -94 389 97 743 264 1056 498 134 101
215 168 215 180 0 4 -52 7 -114 7 l-115 0 -64 -48 c-288 -219 -736 -399 -1122
-453 -44 -6 -82 -12 -85 -14 -11 -7 -334 -34 -480 -40 -153 -7 -285 5 -525 46
-765 132 -1292 433 -1563 891 -223 379 -251 793 -82 1238 142 374 363 645 705
866 186 120 491 244 724 294 52 12 97 23 101 25 3 2 88 15 188 29 214 31 461
39 502 17 47 -25 60 -43 60 -80 0 -32 -42 -92 -361 -516 -305 -406 -541 -727
-769 -1045 -180 -251 -259 -493 -216 -659 50 -196 176 -325 366 -377 60 -17
163 -18 1470 -21 1382 -3 1405 -3 1463 17 241 81 405 364 462 799 56 417 -29
738 -284 1081 -72 96 -261 287 -376 380 -175 140 -451 308 -583 354 l-42 15
-36 -45 c-20 -24 -35 -47 -32 -50 3 -2 41 -22 84 -43 381 -184 686 -489 828
-828 77 -184 107 -354 106 -608 0 -165 -3 -204 -25 -300 -41 -179 -109 -290
-216 -347 l-44 -23 -1075 0 c-1025 0 -1078 1 -1130 19 -125 42 -160 79 -160
165 0 110 27 157 309 541 100 135 245 333 323 440 79 106 195 265 258 351 362
494 487 667 508 702 29 47 24 77 -21 110 -53 40 -236 96 -377 116 -41 6 -106
16 -145 22 -69 10 -587 21 -655 13z"/>
<path d="M2092 1387 c3 -144 5 -156 28 -189 51 -76 24 -73 690 -76 l595 -3
110 75 110 74 58 -42 c165 -118 138 -107 254 -105 56 1 103 4 103 8 0 3 -34
31 -76 61 -149 108 -204 151 -204 158 0 6 211 152 232 160 4 2 8 -57 8 -131 0
-123 2 -137 23 -167 29 -44 65 -69 113 -80 58 -14 1111 -13 1175 1 30 6 64 23
82 38 27 25 30 33 28 82 -2 61 -23 92 -77 109 -18 6 -127 13 -241 14 -197 3
-208 4 -205 22 2 11 14 29 28 42 24 21 31 22 243 22 l218 0 -2 38 -3 37 -233
3 c-149 2 -248 -1 -272 -8 -75 -22 -135 -103 -150 -202 l-6 -38 256 -2 c231
-3 257 -5 267 -21 8 -12 8 -22 0 -35 -10 -15 -37 -17 -293 -20 l-281 -2 0 165
0 166 -72 -3 -71 -3 2 -162 2 -163 -165 0 c-218 0 -206 -10 -206 185 l0 145
-136 0 -135 0 -105 -71 -106 -70 -94 71 -95 71 -337 -3 -337 -3 -47 -28 c-55
-33 -92 -74 -113 -124 -24 -57 -21 -63 35 -63 l51 0 -26 -27 c-14 -16 -34 -40
-43 -55 l-16 -28 -188 0 c-172 0 -190 2 -207 19 -25 25 -33 82 -29 209 l3 102
-73 0 -74 0 4 -153z m1338 28 c63 -47 116 -89 118 -93 1 -4 -34 -31 -78 -60
l-79 -52 -271 0 c-295 0 -302 1 -239 54 30 26 32 26 210 26 l179 0 0 43 0 42
-216 -1 c-118 0 -217 3 -220 7 -2 5 9 23 25 41 l29 33 206 3 c202 3 212 5 207
35 -2 16 19 3 129 -78z"/>
</g>
</svg>
