<?xml version="1.0" standalone="no"?>
<!DOCTYPE svg PUBLIC "-//W3C//DTD SVG 20010904//EN"
 "http://www.w3.org/TR/2001/REC-SVG-20010904/DTD/svg10.dtd">
<svg version="1.0" xmlns="http://www.w3.org/2000/svg"
 width="1024.000000pt" height="1024.000000pt" viewBox="0 0 1024.000000 1024.000000"
 preserveAspectRatio="xMidYMid meet">
<metadata>
Created by potrace 1.16, written by Peter Selinger 2001-2019
</metadata>
<g transform="translate(0.000000,1024.000000) scale(0.100000,-0.100000)"
fill="#000000" stroke="none">
<path d="M230 5165 l0 -1305 345 0 345 0 0 405 0 405 333 0 332 0 -3 -345 -3
-345 171 0 170 0 0 -70 0 -70 120 0 120 0 0 -35 0 -35 360 0 360 0 0 25 0 25
140 0 140 0 0 80 0 80 270 0 270 0 0 -112 0 -111 363 6 c199 4 500 7 670 7
l307 0 0 45 0 45 165 0 165 0 0 1305 0 1305 -310 0 -310 0 0 -200 0 -200 -100
0 -100 0 0 -140 0 -140 -115 0 -115 0 0 -90 0 -90 -330 0 -330 0 0 -120 0
-120 -230 0 -230 0 0 100 0 100 -160 0 -160 0 0 25 0 25 -360 0 -360 0 0 225
0 225 -195 0 -195 0 0 200 0 200 -770 0 -770 0 0 -1305z"/>
<path d="M5733 6463 c197 -2 517 -2 710 0 194 1 33 2 -358 2 -390 0 -549 -1
-352 -2z"/>
<path d="M6808 5985 l3 -90 -418 0 -418 0 -3 -187 -2 -188 420 0 420 0 0 -280
0 -280 195 0 195 0 0 -260 0 -260 -195 0 -195 0 0 -290 c0 -159 2 -290 5 -290
3 0 20 17 38 37 18 20 182 205 365 411 182 205 332 377 332 381 0 6 -562 644
-713 809 l-21 23 192 -3 192 -3 0 277 0 277 -197 3 -198 3 3 -90z"/>
<path d="M7600 5514 c0 -9 351 -394 359 -394 7 0 310 341 339 382 12 17 9 18
-52 18 l-66 0 0 -75 0 -75 -225 0 -225 0 0 75 0 75 -65 0 c-36 0 -65 -3 -65
-6z"/>
<path d="M8859 5293 c-107 -119 -198 -222 -202 -230 -6 -11 18 -13 133 -13
l140 0 0 160 0 160 65 0 65 0 0 70 c0 39 -2 70 -4 70 -2 0 -91 -98 -197 -217z"/>
<path d="M8482 4868 c-84 -94 -151 -175 -150 -179 2 -4 72 -84 156 -179 l152
-171 0 350 c0 193 -1 351 -3 351 -2 0 -72 -77 -155 -172z"/>
<path d="M5970 4700 l0 -260 255 0 255 0 0 260 0 260 -255 0 -255 0 0 -260z"/>
<path d="M9381 4288 c0 -132 1 -140 13 -97 29 109 101 185 203 215 29 8 53 17
53 20 0 2 -61 4 -135 4 l-135 0 1 -142z"/>
<path d="M9740 4426 c0 -3 24 -11 53 -20 98 -29 161 -92 198 -201 l18 -50 0
138 1 137 -135 0 c-74 0 -135 -2 -135 -4z"/>
<path d="M9606 4366 c-99 -37 -166 -134 -166 -241 0 -113 43 -191 132 -241 45
-24 64 -29 123 -29 142 1 243 97 253 240 7 111 -36 200 -123 251 -57 33 -159
42 -219 20z m189 -91 c32 -31 34 -96 5 -125 -11 -11 -25 -20 -32 -20 -6 0 -2
-9 9 -19 13 -13 25 -43 32 -85 6 -36 14 -72 17 -80 4 -10 -2 -12 -23 -8 -33 6
-43 18 -43 52 0 14 -5 41 -10 61 -12 41 -48 63 -96 57 l-29 -3 -3 -82 c-3 -75
-5 -83 -22 -83 -19 0 -20 8 -20 180 l0 180 95 0 c88 0 98 -2 120 -25z"/>
<path d="M9620 4205 l0 -56 62 3 c55 3 64 6 77 29 13 24 13 29 -2 53 -16 23
-24 26 -77 26 l-60 0 0 -55z"/>
<path d="M8650 4334 c0 -6 311 -354 316 -354 2 0 4 81 4 180 l0 180 -160 0
c-88 0 -160 -3 -160 -6z"/>
<path d="M7801 4127 l-123 -142 126 -3 c69 -1 183 -1 252 0 l126 3 -126 143
c-70 78 -128 142 -129 141 -1 0 -58 -64 -126 -142z"/>
<path d="M9381 4033 c-1 -41 2 -53 14 -53 8 0 15 1 15 3 -1 1 -7 25 -15 52
l-14 50 0 -52z"/>
<path d="M9996 4043 c-4 -16 -9 -36 -12 -45 -4 -12 0 -18 10 -18 12 0 16 11
16 45 0 51 -5 57 -14 18z"/>
<path d="M8976 3972 c-2 -4 18 -31 45 -59 l49 -52 0 60 0 59 -44 0 c-25 0 -47
-3 -50 -8z"/>
<path d="M7615 3915 l-47 -55 51 0 51 0 0 55 c0 30 -2 55 -4 55 -2 0 -25 -25
-51 -55z"/>
<path d="M8190 3915 l0 -55 51 0 51 0 -47 55 c-26 30 -49 55 -51 55 -2 0 -4
-25 -4 -55z"/>
<path d="M9410 3888 l0 -88 120 0 c73 0 120 4 120 10 0 6 -11 10 -25 10 -56 0
-143 59 -199 135 -14 18 -15 12 -16 -67z"/>
<path d="M9931 3918 c-54 -61 -124 -98 -188 -99 -97 -2 -1 -17 115 -18 86 -1
114 2 118 12 3 8 4 45 2 84 l-3 70 -44 -49z"/>
<path d="M9668 3813 c7 -3 16 -2 19 1 4 3 -2 6 -13 5 -11 0 -14 -3 -6 -6z"/>
</g>
</svg>
