<?xml version="1.0" standalone="no"?>
<!DOCTYPE svg PUBLIC "-//W3C//DTD SVG 20010904//EN"
 "http://www.w3.org/TR/2001/REC-SVG-20010904/DTD/svg10.dtd">
<svg version="1.0" xmlns="http://www.w3.org/2000/svg"
 width="348.000000pt" height="348.000000pt" viewBox="0 0 348.000000 348.000000"
 preserveAspectRatio="xMidYMid meet">
<metadata>
Created by potrace 1.16, written by Peter Selinger 2001-2019
</metadata>
<g transform="translate(0.000000,348.000000) scale(0.100000,-0.100000)"
fill="#000000" stroke="none">
<path d="M373 2270 c-12 -5 -26 -18 -32 -29 -7 -13 -11 -182 -11 -509 0 -467
1 -491 19 -513 l19 -24 502 0 502 0 19 24 c18 22 19 46 19 516 0 470 -1 494
-19 516 l-19 24 -489 2 c-269 1 -498 -2 -510 -7z m621 -220 c73 -28 147 -99
183 -175 23 -50 28 -73 28 -140 0 -67 -5 -90 -28 -140 -97 -208 -370 -263
-536 -107 -48 45 -90 120 -105 185 l-6 27 119 0 120 0 3 -32 3 -33 95 0 95 0
0 100 0 100 -95 0 -95 0 -3 -32 -3 -33 -120 0 -119 0 6 28 c25 109 112 214
207 251 71 27 179 28 251 1z"/>
<path d="M2124 2270 c-55 -22 -54 -15 -54 -537 l0 -482 24 -28 24 -28 492 0
492 0 24 28 24 28 0 484 0 484 -24 28 -24 28 -479 2 c-263 1 -488 -2 -499 -7z
m136 -486 c0 -110 16 -144 69 -144 50 0 61 24 61 132 0 91 1 98 20 98 19 0 20
-7 20 -135 0 -111 -3 -135 -14 -135 -8 0 -18 5 -21 10 -4 7 -12 7 -25 0 -25
-13 -63 -13 -94 1 -40 19 -56 66 -56 168 0 84 1 91 20 91 18 0 20 -7 20 -86z
m240 41 c0 -42 2 -45 19 -35 39 20 91 12 122 -19 80 -80 -14 -213 -114 -160
-16 9 -22 9 -25 0 -2 -6 -12 -11 -23 -11 -18 0 -19 9 -19 135 0 128 1 135 20
135 17 0 20 -7 20 -45z m354 -56 c14 -17 26 -41 26 -55 0 -23 -2 -24 -75 -24
-55 0 -75 -3 -75 -13 0 -23 23 -37 60 -37 20 0 41 5 48 12 9 9 15 9 24 0 19
-19 -13 -43 -65 -49 -41 -5 -49 -2 -77 25 -24 25 -30 39 -30 75 0 38 5 49 31
71 45 38 99 36 133 -5z m86 19 c0 -9 3 -9 12 0 19 19 48 15 48 -8 0 -13 -7
-20 -20 -20 -28 0 -40 -30 -40 -99 0 -54 -2 -61 -20 -61 -19 0 -20 7 -20 100
0 93 1 100 20 100 11 0 20 -5 20 -12z"/>
<path d="M2525 1745 c-29 -28 -31 -51 -9 -83 32 -46 114 -18 114 39 0 30 -9
43 -37 58 -31 16 -41 14 -68 -14z"/>
<path d="M2752 1754 c-35 -24 -26 -34 33 -34 30 0 55 4 55 9 0 12 -40 41 -55
41 -6 0 -21 -7 -33 -16z"/>
</g>
</svg>
