<?xml version="1.0" standalone="no"?>
<!DOCTYPE svg PUBLIC "-//W3C//DTD SVG 20010904//EN"
 "http://www.w3.org/TR/2001/REC-SVG-20010904/DTD/svg10.dtd">
<svg version="1.0" xmlns="http://www.w3.org/2000/svg"
 width="248.000000pt" height="248.000000pt" viewBox="0 0 248.000000 248.000000"
 preserveAspectRatio="xMidYMid meet">
<metadata>
Created by potrace 1.16, written by Peter Selinger 2001-2019
</metadata>
<g transform="translate(0.000000,248.000000) scale(0.100000,-0.100000)"
fill="#000000" stroke="none">
<path d="M1230 1799 c0 -89 -3 -119 -12 -119 -10 0 -10 -2 0 -8 8 -5 -40 -29
-131 -65 -135 -54 -180 -68 -147 -47 8 5 11 10 5 10 -5 0 -16 -4 -24 -9 -11
-7 -9 -10 8 -16 15 -4 67 11 165 49 l143 55 139 -55 c76 -30 145 -53 153 -52
8 2 -54 30 -138 64 -84 33 -152 63 -152 67 1 4 2 58 2 120 1 61 4 102 6 90 3
-16 11 -23 28 -23 13 0 30 -3 39 -6 12 -5 16 0 16 20 0 26 -4 29 -72 39 l-28
4 0 -118z"/>
<path d="M1170 1660 c-8 -5 -10 -10 -5 -10 6 0 17 5 25 10 8 5 11 10 5 10 -5
0 -17 -5 -25 -10z"/>
<path d="M1120 1640 c-8 -5 -10 -10 -5 -10 6 0 17 5 25 10 8 5 11 10 5 10 -5
0 -17 -5 -25 -10z"/>
<path d="M908 1601 c-5 -36 -3 -36 47 -16 20 9 44 14 53 11 9 -3 22 -2 29 2 7
4 -15 9 -49 10 -34 2 -65 7 -69 13 -3 6 -8 -3 -11 -20z"/>
<path d="M1070 1620 c-8 -5 -10 -10 -5 -10 6 0 17 5 25 10 8 5 11 10 5 10 -5
0 -17 -5 -25 -10z"/>
<path d="M1510 1610 l-45 -5 48 -19 c53 -20 61 -18 50 10 -7 16 -15 18 -53 14z"/>
<path d="M970 1580 c-8 -5 -10 -10 -5 -10 6 0 17 5 25 10 8 5 11 10 5 10 -5 0
-17 -5 -25 -10z"/>
<path d="M760 1545 c0 -20 5 -25 25 -25 20 0 25 5 25 25 0 20 -5 25 -25 25
-20 0 -25 -5 -25 -25z"/>
<path d="M1670 1545 c0 -20 5 -25 25 -25 20 0 25 5 25 25 0 20 -5 25 -25 25
-20 0 -25 -5 -25 -25z"/>
<path d="M330 1535 c0 -9 9 -15 25 -15 16 0 25 6 25 15 0 9 -9 15 -25 15 -16
0 -25 -6 -25 -15z"/>
<path d="M2090 1535 c0 -9 9 -15 25 -15 16 0 25 6 25 15 0 9 -9 15 -25 15 -16
0 -25 -6 -25 -15z"/>
<path d="M288 1473 c-2 -27 -2 -166 0 -310 l3 -263 284 0 c183 0 285 -4 285
-10 0 -14 747 -14 755 0 4 6 110 10 286 10 l279 0 0 259 c0 198 3 261 13 264
9 4 9 6 0 6 -9 1 -13 17 -13 46 0 25 -3 45 -8 45 -4 0 -6 -20 -4 -45 l4 -45
-296 0 c-230 0 -296 3 -296 13 0 9 -76 12 -345 12 -269 0 -345 -3 -345 -12 0
-10 -65 -13 -290 -13 l-290 0 0 45 c0 60 -18 58 -22 -2z m652 -238 c0 -208 -1
-215 -20 -215 -19 0 -20 7 -22 103 l-1 102 -6 -116 c-5 -89 -10 -120 -23 -132
-15 -15 -49 -17 -287 -17 l-271 0 0 230 0 230 295 0 294 0 4 -67 c3 -59 3 -57
3 15 -1 72 1 82 17 82 16 0 17 -17 17 -215z m210 0 c0 -207 -1 -215 -20 -215
-18 0 -20 8 -22 133 l-3 132 -5 -138 -5 -137 35 0 35 0 -3 190 -3 190 80 0
c71 0 80 2 86 20 3 11 3 24 0 30 -3 5 2 10 12 10 14 0 18 -7 17 -32 l-2 -33
69 3 69 4 0 -206 0 -206 -55 0 c-30 0 -56 1 -56 3 -1 1 -5 83 -9 182 l-6 180
-2 -162 c-2 -156 -3 -163 -22 -163 -19 0 -20 7 -22 163 l-2 162 -3 -162 c-2
-97 -7 -163 -13 -163 -6 0 -10 -9 -10 -20 0 -11 -4 -20 -10 -20 -5 0 -10 25
-10 55 l0 55 -35 0 -35 0 0 -54 0 -53 -110 -2 -110 -1 0 205 0 205 64 0 65 0
4 -32 c3 -18 4 -5 3 30 -1 53 2 62 17 62 16 0 17 -17 17 -215z m413 173 c-2
-33 0 -37 5 -18 l8 25 297 3 297 2 0 -230 0 -230 -272 0 c-228 1 -276 3 -293
16 -18 13 -21 30 -26 182 l-5 167 -2 -152 c-2 -147 -3 -153 -22 -153 -21 0
-21 5 -19 215 1 194 3 215 18 215 13 0 16 -8 14 -42z m-605 -410 c-7 -20 -68
-23 -68 -4 0 12 10 16 36 16 24 0 34 -4 32 -12z m412 -4 c0 -11 -8 -14 -32
-12 -46 4 -49 28 -4 28 26 0 36 -4 36 -16z m210 0 c0 -11 -8 -14 -32 -12 -46
4 -49 28 -4 28 26 0 36 -4 36 -16z m20 -64 l0 -40 -365 0 -365 0 0 40 0 40
365 0 365 0 0 -40z m-740 0 c0 -20 -7 -20 -275 -20 -268 0 -275 0 -275 20 0
20 7 20 275 20 268 0 275 0 275 -20z m1310 0 c0 -20 -7 -20 -280 -20 -273 0
-280 0 -280 20 0 20 7 20 280 20 273 0 280 0 280 -20z"/>
<path d="M360 1295 c0 -52 1 -55 25 -55 24 0 25 3 25 55 0 52 -1 55 -25 55
-24 0 -25 -3 -25 -55z"/>
<path d="M500 1295 c0 -54 0 -55 30 -55 30 0 30 1 30 55 0 54 0 55 -30 55 -30
0 -30 -1 -30 -55z"/>
<path d="M650 1295 c0 -54 0 -55 30 -55 30 0 30 1 30 55 0 54 0 55 -30 55 -30
0 -30 -1 -30 -55z"/>
<path d="M800 1295 c0 -52 1 -55 25 -55 24 0 25 3 25 55 0 52 -1 55 -25 55
-24 0 -25 -3 -25 -55z"/>
<path d="M350 1180 c-11 -7 -3 -10 28 -10 26 0 41 4 37 10 -8 13 -45 13 -65 0z"/>
<path d="M500 1180 c-11 -7 -4 -10 25 -10 29 0 36 3 25 10 -8 5 -19 10 -25 10
-5 0 -17 -5 -25 -10z"/>
<path d="M645 1180 c-4 -6 11 -10 37 -10 31 0 39 3 28 10 -20 13 -57 13 -65 0z"/>
<path d="M800 1180 c-11 -7 -4 -10 25 -10 29 0 36 3 25 10 -8 5 -19 10 -25 10
-5 0 -17 -5 -25 -10z"/>
<path d="M360 1095 c0 -52 1 -55 25 -55 24 0 25 3 25 55 0 52 -1 55 -25 55
-24 0 -25 -3 -25 -55z"/>
<path d="M500 1095 c0 -54 0 -55 30 -55 30 0 30 1 30 55 0 54 0 55 -30 55 -30
0 -30 -1 -30 -55z"/>
<path d="M650 1094 c0 -54 0 -55 28 -52 25 3 27 7 30 56 l3 52 -30 0 c-31 0
-31 0 -31 -56z"/>
<path d="M800 1095 c0 -52 1 -55 25 -55 24 0 25 3 25 55 0 52 -1 55 -25 55
-24 0 -25 -3 -25 -55z"/>
<path d="M1020 1295 c0 -52 1 -55 25 -55 24 0 25 3 25 55 0 52 -1 55 -25 55
-24 0 -25 -3 -25 -55z"/>
<path d="M1210 1295 c0 -52 1 -55 25 -55 24 0 25 3 25 55 0 52 -1 55 -25 55
-24 0 -25 -3 -25 -55z"/>
<path d="M1400 1295 c0 -52 1 -55 25 -55 24 0 25 3 25 55 0 52 -1 55 -25 55
-24 0 -25 -3 -25 -55z"/>
<path d="M1010 1180 c-11 -7 -3 -10 28 -10 26 0 41 4 37 10 -8 13 -45 13 -65
0z"/>
<path d="M1395 1180 c-4 -6 8 -10 30 -10 22 0 34 4 30 10 -3 6 -17 10 -30 10
-13 0 -27 -4 -30 -10z"/>
<path d="M1207 1143 c-15 -15 -5 -23 29 -23 31 0 35 2 24 15 -13 16 -42 20
-53 8z"/>
<path d="M1020 1090 c0 -47 2 -50 25 -50 23 0 25 3 25 50 0 47 -2 50 -25 50
-23 0 -25 -3 -25 -50z"/>
<path d="M1400 1090 c0 -47 2 -50 25 -50 23 0 25 3 25 50 0 47 -2 50 -25 50
-23 0 -25 -3 -25 -50z"/>
<path d="M1620 1295 c0 -52 1 -55 25 -55 24 0 25 3 25 55 0 52 -1 55 -25 55
-24 0 -25 -3 -25 -55z"/>
<path d="M1770 1295 c0 -52 1 -55 25 -55 24 0 25 3 25 55 0 52 -1 55 -25 55
-24 0 -25 -3 -25 -55z"/>
<path d="M1920 1295 c0 -52 1 -55 25 -55 24 0 25 3 25 55 0 52 -1 55 -25 55
-24 0 -25 -3 -25 -55z"/>
<path d="M2060 1295 c0 -54 0 -55 30 -55 30 0 30 1 30 55 0 54 0 55 -30 55
-30 0 -30 -1 -30 -55z"/>
<path d="M1625 1180 c-16 -7 -11 -9 20 -9 29 -1 36 2 25 9 -17 11 -19 11 -45
0z"/>
<path d="M1765 1180 c-4 -6 11 -10 37 -10 31 0 39 3 28 10 -20 13 -57 13 -65
0z"/>
<path d="M1920 1180 c-11 -7 -4 -10 25 -10 29 0 36 3 25 10 -8 5 -19 10 -25
10 -5 0 -17 -5 -25 -10z"/>
<path d="M2060 1180 c-11 -7 -3 -10 28 -10 26 0 41 4 37 10 -8 13 -45 13 -65
0z"/>
<path d="M1620 1095 c0 -51 2 -55 24 -55 22 0 24 5 28 55 3 54 3 55 -24 55
-27 0 -28 -2 -28 -55z"/>
<path d="M1770 1095 c0 -52 1 -55 25 -55 24 0 25 3 25 55 0 52 -1 55 -25 55
-24 0 -25 -3 -25 -55z"/>
<path d="M1920 1095 c0 -52 1 -55 25 -55 24 0 25 3 25 55 0 52 -1 55 -25 55
-24 0 -25 -3 -25 -55z"/>
<path d="M2062 1098 c3 -49 5 -53 31 -56 27 -3 27 -2 27 52 0 56 0 56 -31 56
l-30 0 3 -52z"/>
<path d="M890 1513 c0 -5 5 -15 10 -23 8 -13 10 -12 10 3 0 16 22 17 324 17
301 0 325 -1 328 -17 3 -16 6 -15 16 5 l13 22 -351 0 c-192 0 -350 -3 -350 -7z"/>
<path d="M340 1490 c0 -5 20 -10 45 -10 25 0 45 5 45 10 0 6 -20 10 -45 10
-25 0 -45 -4 -45 -10z"/>
<path d="M480 1490 c0 -5 23 -10 50 -10 28 0 50 5 50 10 0 6 -22 10 -50 10
-27 0 -50 -4 -50 -10z"/>
<path d="M630 1490 c0 -5 20 -10 45 -10 25 0 45 5 45 10 0 6 -20 10 -45 10
-25 0 -45 -4 -45 -10z"/>
<path d="M780 1490 c0 -5 20 -10 45 -10 25 0 45 5 45 10 0 6 -20 10 -45 10
-25 0 -45 -4 -45 -10z"/>
<path d="M1605 1490 c-4 -6 13 -10 44 -10 28 0 51 5 51 10 0 6 -20 10 -44 10
-25 0 -48 -4 -51 -10z"/>
<path d="M1750 1490 c0 -5 20 -10 45 -10 25 0 45 5 45 10 0 6 -20 10 -45 10
-25 0 -45 -4 -45 -10z"/>
<path d="M1900 1490 c0 -5 20 -10 45 -10 25 0 45 5 45 10 0 6 -20 10 -45 10
-25 0 -45 -4 -45 -10z"/>
<path d="M2040 1490 c0 -5 23 -10 50 -10 28 0 50 5 50 10 0 6 -22 10 -50 10
-27 0 -50 -4 -50 -10z"/>
<path d="M307 744 c-4 -4 -7 -12 -7 -18 0 -6 5 -5 12 2 29 29 40 14 36 -48 -2
-48 0 -60 12 -60 12 0 14 12 12 60 -4 62 7 76 37 48 11 -11 13 -10 9 2 -5 16
-97 27 -111 14z"/>
<path d="M445 685 c0 -55 3 -65 18 -65 12 0 17 8 17 30 0 26 4 30 26 30 23 0
26 -3 22 -30 -3 -23 -1 -30 11 -30 13 0 16 12 16 65 0 55 -3 65 -17 65 -14 0
-16 -6 -11 -30 5 -27 3 -30 -21 -30 -22 0 -26 4 -26 30 0 22 -5 30 -17 30 -15
0 -18 -10 -18 -65z"/>
<path d="M598 685 c3 -54 7 -65 21 -65 14 0 17 6 13 32 -4 26 -2 30 12 25 10
-4 16 -1 16 8 0 9 -6 12 -15 9 -11 -5 -15 1 -15 20 0 29 26 36 49 14 11 -11
13 -10 9 2 -3 10 -20 16 -49 18 l-44 3 3 -66z"/>
<path d="M786 728 c4 -13 16 -43 27 -68 16 -38 20 -42 27 -25 4 12 0 35 -11
59 -10 22 -15 44 -13 48 3 4 -4 8 -16 8 -18 0 -20 -4 -14 -22z"/>
<path d="M855 728 c4 -13 16 -43 28 -67 18 -39 21 -42 28 -23 5 13 1 34 -11
59 -10 21 -16 41 -13 45 2 5 -5 8 -17 8 -17 0 -20 -4 -15 -22z"/>
<path d="M985 685 c0 -52 3 -65 16 -65 12 0 14 7 11 30 -4 27 -1 30 22 30 22
0 26 -4 26 -30 0 -19 5 -30 14 -30 11 0 15 17 18 65 3 57 1 65 -14 65 -13 0
-18 -8 -18 -30 0 -26 -4 -30 -26 -30 -23 0 -26 3 -22 30 3 23 1 30 -11 30 -13
0 -16 -12 -16 -65z"/>
<path d="M1135 685 c0 -51 3 -65 15 -65 12 0 15 14 15 65 0 51 -3 65 -15 65
-12 0 -15 -14 -15 -65z"/>
<path d="M1200 741 c0 -5 9 -7 21 -4 20 6 21 3 17 -56 -3 -53 -1 -61 15 -61
14 0 17 10 17 60 0 45 4 60 14 60 8 0 17 -6 19 -12 3 -8 6 -6 6 5 1 14 -8 17
-54 17 -30 0 -55 -4 -55 -9z"/>
<path d="M1340 685 c0 -56 2 -65 18 -65 15 0 18 6 14 32 -4 26 -2 30 12 25 10
-4 16 -1 16 8 0 9 -6 12 -15 9 -11 -5 -15 1 -15 20 0 28 26 36 48 14 9 -9 12
-8 12 5 0 13 -9 17 -45 17 l-45 0 0 -65z"/>
<path d="M1535 685 c0 -53 3 -65 16 -65 12 0 14 7 11 30 -4 27 -1 30 22 30 22
0 26 -4 26 -30 0 -19 5 -30 14 -30 11 0 15 17 18 65 3 57 1 65 -14 65 -13 0
-18 -8 -18 -30 0 -26 -4 -30 -26 -30 -23 0 -26 3 -22 30 3 23 1 30 -11 30 -13
0 -16 -12 -16 -65z"/>
<path d="M1695 725 c-14 -13 -25 -32 -25 -42 0 -27 28 -63 48 -62 10 0 12 3 5
6 -18 7 -27 67 -13 93 7 14 19 20 33 18 18 -2 23 -11 25 -46 2 -24 -2 -50 -9
-58 -12 -15 -2 -19 17 -6 13 9 34 46 34 62 0 19 -48 60 -70 60 -11 0 -32 -11
-45 -25z"/>
<path d="M1840 688 c4 -45 9 -64 20 -66 12 -2 14 9 12 63 -3 53 -7 65 -20 65
-15 0 -16 -9 -12 -62z"/>
<path d="M1920 739 c0 -5 5 -7 10 -4 6 3 10 8 10 11 0 2 -4 4 -10 4 -5 0 -10
-5 -10 -11z"/>
<path d="M1983 743 c-26 -10 -14 -52 18 -69 23 -11 30 -21 26 -35 -3 -13 -1
-19 6 -16 7 2 13 15 15 30 3 20 -3 29 -27 41 -41 22 -46 35 -19 45 13 6 16 10
8 10 -8 -1 -21 -3 -27 -6z"/>
<path d="M2085 685 c0 -53 3 -65 16 -65 12 0 14 8 11 32 -4 25 -2 30 11 25 8
-3 18 0 20 7 4 10 -1 12 -14 9 -15 -4 -19 0 -19 22 0 25 3 27 30 23 17 -3 30
-1 30 4 0 4 -19 8 -42 8 l-43 0 0 -65z"/>
<path d="M2036 727 c3 -10 9 -15 12 -12 3 3 0 11 -7 18 -10 9 -11 8 -5 -6z"/>
<path d="M1416 635 c-16 -12 -17 -15 -4 -15 9 0 18 7 22 15 7 18 6 18 -18 0z"/>
<path d="M1912 634 c-7 -8 -8 -14 -3 -14 10 0 25 19 20 25 -2 1 -10 -3 -17
-11z"/>
<path d="M670 630 c-13 -8 -12 -10 3 -10 9 0 17 5 17 10 0 12 -1 12 -20 0z"/>
<path d="M1970 630 c0 -5 5 -10 11 -10 5 0 7 5 4 10 -3 6 -8 10 -11 10 -2 0
-4 -4 -4 -10z"/>
<path d="M2155 630 c-19 -8 -19 -9 3 -9 12 -1 22 4 22 9 0 6 -1 10 -2 9 -2 0
-12 -4 -23 -9z"/>
</g>
</svg>
