<?xml version="1.0" standalone="no"?>
<!DOCTYPE svg PUBLIC "-//W3C//DTD SVG 20010904//EN"
 "http://www.w3.org/TR/2001/REC-SVG-20010904/DTD/svg10.dtd">
<svg version="1.0" xmlns="http://www.w3.org/2000/svg"
 width="700.000000pt" height="700.000000pt" viewBox="0 0 700.000000 700.000000"
 preserveAspectRatio="xMidYMid meet">
<metadata>
Created by potrace 1.16, written by Peter Selinger 2001-2019
</metadata>
<g transform="translate(0.000000,700.000000) scale(0.100000,-0.100000)"
fill="#000000" stroke="none">
<path d="M3330 5559 c-173 -20 -377 -79 -500 -146 -235 -127 -387 -316 -461
-573 -40 -137 -16 -193 85 -205 28 -3 137 -14 241 -25 105 -11 208 -22 231
-25 58 -8 94 27 122 120 35 115 102 200 197 248 51 26 149 47 217 47 125 0
222 -40 290 -119 57 -67 71 -123 76 -308 l4 -162 -24 -5 c-12 -3 -95 -12 -183
-21 -592 -59 -870 -149 -1084 -349 -187 -176 -281 -410 -281 -696 0 -426 223
-726 600 -805 96 -20 347 -20 464 1 197 34 356 120 532 287 46 44 86 78 88 76
2 -2 27 -40 56 -84 29 -44 96 -123 149 -176 143 -142 158 -141 336 16 61 54
146 128 190 165 131 111 135 115 135 155 0 44 -7 58 -81 161 -64 88 -109 180
-130 264 -11 43 -14 198 -15 721 -2 568 -4 678 -18 755 -29 157 -61 234 -139
341 -189 256 -633 394 -1097 342z m497 -1801 c-5 -251 -17 -313 -85 -442 -116
-221 -340 -317 -527 -226 -137 67 -205 270 -161 481 56 262 294 396 725 408
l53 1 -5 -222z"/>
</g>
</svg>
