<?xml version="1.0" standalone="no"?>
<!DOCTYPE svg PUBLIC "-//W3C//DTD SVG 20010904//EN"
 "http://www.w3.org/TR/2001/REC-SVG-20010904/DTD/svg10.dtd">
<svg version="1.0" xmlns="http://www.w3.org/2000/svg"
 width="225.000000pt" height="225.000000pt" viewBox="0 0 225.000000 225.000000"
 preserveAspectRatio="xMidYMid meet">
<metadata>
Created by potrace 1.16, written by Peter Selinger 2001-2019
</metadata>
<g transform="translate(0.000000,225.000000) scale(0.100000,-0.100000)"
fill="#000000" stroke="none">
<path d="M885 1892 c-161 -56 -225 -143 -225 -307 0 -127 50 -278 152 -459 63
-113 228 -366 237 -366 16 0 31 224 31 445 0 181 -4 256 -20 350 -30 189 -84
355 -113 355 -6 -1 -35 -8 -62 -18z"/>
<path d="M1260 1844 c-30 -82 -58 -191 -77 -309 -21 -128 -23 -501 -4 -670
l14 -119 26 31 c44 53 202 312 261 428 72 141 101 237 108 345 6 111 -13 180
-67 242 -43 48 -135 96 -201 105 l-38 5 -22 -58z"/>
<path d="M346 1541 c-93 -154 -118 -245 -92 -333 24 -83 65 -129 174 -196 199
-122 544 -324 547 -320 1 2 -116 194 -262 428 -145 234 -274 442 -286 462 -12
21 -24 38 -28 38 -3 0 -26 -35 -53 -79z"/>
<path d="M1823 1578 c-11 -18 -138 -224 -283 -458 -144 -234 -264 -428 -267
-433 -10 -17 600 348 640 382 43 39 85 117 93 175 5 34 1 64 -16 117 -23 71
-117 240 -137 246 -6 2 -19 -11 -30 -29z"/>
<path d="M92 983 c3 -92 8 -117 32 -171 36 -78 113 -151 194 -184 54 -21 72
-23 332 -26 170 -2 271 0 265 6 -14 13 -812 482 -820 482 -4 0 -5 -48 -3 -107z"/>
<path d="M2075 1041 c-62 -34 -536 -312 -687 -403 l-58 -35 239 -6 c196 -5
249 -4 297 9 88 22 144 53 196 106 65 67 90 136 96 266 2 56 0 102 -4 102 -5
0 -40 -18 -79 -39z"/>
<path d="M565 543 c-154 -8 -282 -16 -284 -19 -9 -9 85 -116 126 -144 83 -55
139 -52 260 11 69 35 215 138 229 160 3 5 -7 8 -23 8 -15 -1 -154 -8 -308 -16z"/>
<path d="M1355 550 c16 -26 174 -135 243 -168 121 -58 177 -54 270 16 32 24
108 120 101 126 -2 2 -123 9 -269 15 -146 6 -285 14 -309 17 -31 4 -41 2 -36
-6z"/>
</g>
</svg>
