<?xml version="1.0" standalone="no"?>
<!DOCTYPE svg PUBLIC "-//W3C//DTD SVG 20010904//EN"
 "http://www.w3.org/TR/2001/REC-SVG-20010904/DTD/svg10.dtd">
<svg version="1.0" xmlns="http://www.w3.org/2000/svg"
 width="396.000000pt" height="396.000000pt" viewBox="0 0 396.000000 396.000000"
 preserveAspectRatio="xMidYMid meet">
<metadata>
Created by potrace 1.16, written by Peter Selinger 2001-2019
</metadata>
<g transform="translate(0.000000,396.000000) scale(0.100000,-0.100000)"
fill="#000000" stroke="none">
<path d="M1756 2188 c-13 -13 -66 -88 -117 -168 -51 -80 -107 -169 -126 -197
l-34 -53 48 0 48 0 105 166 c57 91 108 168 111 170 6 3 119 -168 119 -181 0
-3 -50 -5 -111 -5 l-111 0 21 -32 20 -33 118 -5 118 -5 24 -37 c23 -35 28 -38
72 -38 l48 0 -130 203 c-162 251 -172 261 -223 215z"/>
<path d="M323 2175 c-146 -73 -157 -278 -21 -371 l43 -29 195 -3 c186 -3 197
-2 240 20 157 80 157 302 0 385 -40 22 -55 23 -225 23 -174 0 -183 -1 -232
-25z m417 -63 c106 -53 106 -201 0 -254 -49 -25 -325 -26 -376 -2 -77 37 -102
150 -47 215 43 51 72 58 238 59 123 0 156 -3 185 -18z"/>
<path d="M950 1985 l0 -215 40 0 40 0 0 180 0 180 155 0 c152 0 156 -1 180
-25 30 -29 32 -64 6 -96 -18 -22 -28 -24 -151 -29 l-131 -5 118 -102 118 -103
59 0 58 0 -81 68 -82 67 49 6 c27 4 61 14 76 24 33 22 66 83 66 122 0 40 -31
94 -70 121 -32 21 -42 22 -241 22 l-209 0 0 -215z"/>
<path d="M2180 2168 c-136 -83 -141 -278 -8 -366 41 -26 45 -27 213 -30 l172
-3 21 35 21 36 -165 0 c-183 0 -217 8 -255 61 -47 67 -29 159 40 202 32 19 53
23 184 27 l148 5 20 33 21 32 -179 0 -179 0 -54 -32z"/>
<path d="M2652 1988 l3 -213 213 0 213 0 20 33 21 32 -196 0 -196 0 0 180 0
180 -40 0 -40 0 2 -212z"/>
<path d="M3235 2181 c-136 -61 -167 -251 -59 -353 54 -50 89 -58 258 -58 l155
0 20 29 c12 16 21 32 21 35 0 3 -76 6 -169 6 -158 0 -170 1 -201 23 -19 12
-42 37 -53 55 l-19 32 185 0 186 0 20 29 c12 16 21 32 21 35 0 3 -93 6 -206 6
l-206 0 19 31 c39 67 58 74 227 77 l152 3 17 29 c9 15 17 31 17 34 0 3 -78 6
-172 6 -146 0 -179 -3 -213 -19z"/>
</g>
</svg>
