<?xml version="1.0" standalone="no"?>
<!DOCTYPE svg PUBLIC "-//W3C//DTD SVG 20010904//EN"
 "http://www.w3.org/TR/2001/REC-SVG-20010904/DTD/svg10.dtd">
<svg version="1.0" xmlns="http://www.w3.org/2000/svg"
 width="1024.000000pt" height="1024.000000pt" viewBox="0 0 1024.000000 1024.000000"
 preserveAspectRatio="xMidYMid meet">
<metadata>
Created by potrace 1.16, written by Peter Selinger 2001-2019
</metadata>
<g transform="translate(0.000000,1024.000000) scale(0.100000,-0.100000)"
fill="#000000" stroke="none">
<path d="M0 5120 l0 -2560 5120 0 5120 0 0 2560 0 2560 -5120 0 -5120 0 0
-2560z m6430 1754 c-36 -8 -101 -32 -145 -53 -234 -116 -370 -327 -393 -611
-4 -47 -7 -618 -7 -1270 l0 -1185 38 -3 c33 -3 40 -8 58 -45 28 -55 75 -113
173 -214 69 -72 84 -83 113 -83 19 0 50 -7 71 -16 117 -49 74 -47 1520 -51
l1352 -4 0 -44 0 -45 -3928 0 -3927 0 -85 85 -85 85 -80 0 -80 0 -82 83 -82
82 -3 85 -3 85 -80 1 -80 2 -3 1283 -2 1284 85 85 c54 54 85 92 85 106 0 15
40 60 120 138 101 97 134 122 203 155 86 42 140 59 222 71 28 4 1184 8 2570 8
2178 0 2511 -2 2455 -14z"/>
<path d="M2190 6029 c-98 -10 -228 -48 -315 -91 -33 -17 -62 -33 -65 -37 -3
-3 -18 -14 -35 -23 -16 -10 -29 -22 -27 -28 1 -7 -2 -9 -7 -5 -13 8 -201 -174
-201 -195 0 -9 -6 -22 -12 -28 -7 -7 -13 -18 -13 -25 -1 -7 -7 -11 -14 -9 -7
1 -10 -2 -7 -7 3 -5 -1 -14 -9 -21 -8 -7 -15 -10 -15 -6 0 3 -9 -2 -20 -11
-11 -10 -20 -23 -20 -31 0 -7 -4 -10 -10 -7 -5 3 -10 -1 -10 -9 0 -8 -9 -18
-20 -21 -20 -6 -20 -15 -20 -946 l0 -939 1278 0 1277 0 83 83 82 82 0 1143 0
1142 -907 -1 c-500 -1 -946 -6 -993 -10z"/>
</g>
</svg>
