<?xml version="1.0" standalone="no"?>
<!DOCTYPE svg PUBLIC "-//W3C//DTD SVG 20010904//EN"
 "http://www.w3.org/TR/2001/REC-SVG-20010904/DTD/svg10.dtd">
<svg version="1.0" xmlns="http://www.w3.org/2000/svg"
 width="1024.000000pt" height="1024.000000pt" viewBox="0 0 1024.000000 1024.000000"
 preserveAspectRatio="xMidYMid meet">
<metadata>
Created by potrace 1.16, written by Peter Selinger 2001-2019
</metadata>
<g transform="translate(0.000000,1024.000000) scale(0.100000,-0.100000)"
fill="#000000" stroke="none">
<path d="M2820 9074 c-613 -74 -1125 -283 -1610 -658 -130 -100 -409 -377
-516 -511 -317 -399 -538 -878 -634 -1376 -53 -275 -70 -652 -41 -919 64 -606
296 -1176 670 -1650 125 -158 401 -427 562 -547 490 -368 1030 -578 1624 -633
159 -14 468 -12 628 5 391 41 769 155 1114 335 658 344 1166 888 1451 1557
470 1100 284 2372 -480 3283 -538 641 -1287 1035 -2127 1120 -142 14 -502 11
-641 -6z"/>
<path d="M9564 2327 c-3 -8 -4 -104 -2 -215 2 -111 0 -202 -3 -202 -3 0 -16
12 -30 26 -13 14 -46 38 -74 52 -45 25 -60 27 -160 27 -104 0 -114 -2 -176
-32 -74 -36 -154 -114 -189 -184 -69 -133 -67 -298 4 -437 109 -214 427 -289
592 -139 l39 35 0 -47 0 -46 93 -3 92 -3 0 591 0 590 -90 0 c-66 0 -92 -4 -96
-13z m-134 -493 c45 -19 96 -68 123 -119 30 -54 31 -202 3 -255 -25 -49 -74
-98 -118 -121 -121 -62 -278 -7 -339 118 -29 60 -32 187 -6 245 59 132 202
188 337 132z"/>
<path d="M4110 2135 l0 -124 -82 -3 -83 -3 -3 -82 -3 -83 85 0 84 0 4 -252 c4
-283 7 -301 75 -370 46 -48 117 -72 208 -72 80 0 213 36 222 60 4 12 -27 127
-41 151 -1 1 -26 -7 -56 -17 -98 -34 -178 -21 -208 34 -14 26 -18 66 -20 249
l-3 217 150 0 151 0 0 85 0 85 -150 0 -150 0 0 125 0 125 -90 0 -90 0 0 -125z"/>
<path d="M802 1989 c-34 -17 -70 -41 -81 -55 -10 -13 -20 -24 -22 -24 -2 0 -4
21 -4 47 l0 48 -92 3 -93 3 0 -426 0 -426 93 3 92 3 5 280 c4 241 7 284 22
312 44 80 164 115 253 74 97 -44 104 -73 105 -404 l0 -268 93 3 92 3 5 275 c5
302 7 311 70 363 103 87 265 44 299 -80 6 -22 11 -148 11 -300 l0 -263 106 0
106 0 -4 308 c-4 291 -5 310 -26 364 -16 40 -39 71 -76 106 -72 65 -137 86
-254 80 -106 -5 -168 -30 -232 -94 l-46 -44 -55 53 c-68 66 -123 87 -229 87
-66 0 -86 -4 -138 -31z"/>
<path d="M2325 2006 c-208 -66 -332 -275 -295 -495 41 -241 248 -398 479 -360
77 12 114 30 164 77 l37 36 0 -52 0 -53 90 3 90 3 0 420 0 420 -90 3 -90 3 0
-51 0 -52 -42 36 c-60 52 -133 76 -226 75 -42 0 -95 -6 -117 -13z m247 -173
c21 -8 56 -36 78 -61 143 -161 53 -430 -153 -458 -98 -14 -211 48 -260 140
-29 55 -31 202 -3 256 67 129 202 178 338 123z"/>
<path d="M3335 2013 c-96 -21 -189 -91 -220 -165 -8 -21 -15 -63 -15 -95 0
-147 103 -225 338 -253 50 -6 106 -20 132 -33 40 -19 45 -26 48 -58 3 -30 -2
-41 -27 -62 -79 -66 -276 -55 -407 22 -37 22 -33 25 -87 -61 l-36 -57 46 -28
c79 -46 194 -74 308 -74 150 -1 255 32 324 102 44 44 62 83 68 149 5 48 1 67
-20 113 -44 96 -136 143 -327 166 -145 18 -186 47 -161 113 27 71 171 84 326
30 49 -17 90 -30 91 -29 10 16 74 136 74 140 0 13 -101 57 -162 72 -59 14
-245 19 -293 8z"/>
<path d="M5035 2006 c-229 -73 -345 -320 -270 -574 36 -120 147 -231 269 -267
66 -20 214 -20 290 0 66 17 176 72 183 91 2 7 -14 40 -36 73 l-41 59 -67 -34
c-124 -63 -232 -66 -330 -8 -43 25 -86 84 -98 137 l-7 28 312 -3 312 -3 -4
110 c-9 201 -81 317 -236 381 -46 19 -75 23 -147 23 -49 0 -108 -6 -130 -13z
m240 -170 c42 -25 90 -97 97 -146 l3 -25 -217 -3 c-245 -3 -236 -6 -199 73 39
84 106 125 205 125 55 0 78 -5 111 -24z"/>
<path d="M6051 2000 c-24 -11 -59 -36 -77 -56 l-34 -35 0 51 0 51 -92 -3 -93
-3 0 -420 0 -420 93 -3 92 -3 0 268 c0 156 4 284 11 306 15 54 63 105 112 118
38 10 116 6 152 -7 10 -4 20 16 39 78 14 46 26 87 26 91 0 4 -42 7 -92 7 -71
0 -103 -5 -137 -20z"/>
<path d="M6638 2001 c-160 -52 -261 -174 -288 -347 -22 -141 31 -306 126 -393
131 -122 361 -152 529 -71 96 46 94 38 45 122 l-44 74 -66 -34 c-219 -112
-425 17 -408 257 11 148 116 245 265 244 55 0 126 -25 203 -70 3 -2 25 29 49
69 l43 72 -29 23 c-57 46 -129 66 -253 70 -92 2 -126 -1 -172 -16z"/>
<path d="M7464 2000 c-187 -66 -296 -240 -281 -451 16 -231 188 -400 411 -402
102 -1 170 21 230 74 l46 41 0 -51 0 -51 90 0 90 0 0 425 0 425 -90 0 -90 0 0
-50 c0 -27 -3 -50 -6 -50 -3 0 -26 17 -49 38 -24 21 -67 46 -96 55 -68 22
-189 21 -255 -3z m289 -178 c83 -45 127 -128 127 -241 0 -155 -104 -265 -250
-266 -204 0 -323 229 -218 418 66 117 218 157 341 89z"/>
<path d="M8594 2001 c-22 -10 -57 -36 -77 -56 l-37 -38 0 51 0 52 -90 0 -90 0
0 -425 0 -425 89 0 90 0 3 283 c3 316 7 332 76 385 32 24 43 27 106 25 39 -1
80 -3 90 -5 16 -2 23 10 42 72 13 41 24 81 24 88 0 21 -176 16 -226 -7z"/>
</g>
</svg>
