<?xml version="1.0" standalone="no"?>
<!DOCTYPE svg PUBLIC "-//W3C//DTD SVG 20010904//EN"
 "http://www.w3.org/TR/2001/REC-SVG-20010904/DTD/svg10.dtd">
<svg version="1.0" xmlns="http://www.w3.org/2000/svg"
 width="512.000000pt" height="512.000000pt" viewBox="0 0 512.000000 512.000000"
 preserveAspectRatio="xMidYMid meet">
<metadata>
Created by potrace 1.16, written by Peter Selinger 2001-2019
</metadata>
<g transform="translate(0.000000,512.000000) scale(0.100000,-0.100000)"
fill="#000000" stroke="none">
<path d="M1140 5110 c-363 -24 -596 -122 -812 -342 -139 -142 -226 -296 -273
-482 -50 -198 -50 -191 -50 -1741 0 -1318 2 -1459 17 -1550 46 -272 127 -446
289 -619 183 -196 395 -303 689 -348 124 -19 2996 -19 3120 0 361 55 616 213
809 502 87 131 141 284 172 495 16 107 25 2676 10 2915 -12 193 -30 305 -67
415 -107 319 -363 578 -680 686 -112 38 -225 57 -404 69 -168 11 -2648 11
-2820 0z m1102 -1007 c167 -48 238 -72 238 -82 0 -8 -27 -66 -61 -129 -55
-104 -58 -114 -37 -108 226 65 545 132 776 163 179 23 533 23 662 0 373 -69
612 -236 689 -484 64 -204 100 -890 71 -1363 -33 -535 -72 -672 -240 -841 -93
-94 -185 -149 -315 -189 -206 -63 -495 -66 -780 -8 -55 11 -104 23 -109 28 -6
6 49 274 60 289 2 1 69 -12 151 -30 211 -46 337 -42 455 17 96 49 153 119 189
235 18 58 19 106 19 892 0 707 -3 842 -15 896 -76 322 -412 406 -1005 250
-127 -34 -391 -117 -402 -128 -4 -4 39 -19 96 -35 102 -28 104 -29 95 -53 -12
-32 -72 -126 -126 -195 l-44 -58 620 0 621 0 0 -125 0 -125 -350 0 -350 0 0
-160 0 -160 350 0 351 0 -3 -127 -3 -128 -347 -3 -348 -2 0 -265 0 -264 38 13
c55 20 182 84 218 111 l31 24 -29 112 c-16 61 -26 115 -21 118 12 10 312 105
317 100 3 -3 228 -557 266 -655 7 -18 -7 -26 -178 -99 -103 -43 -194 -80 -203
-82 -13 -4 -22 20 -49 119 -17 68 -34 126 -37 130 -2 5 -30 -9 -61 -30 -186
-126 -400 -206 -677 -253 -155 -26 -507 -37 -613 -19 -195 33 -327 160 -379
367 -19 76 -23 343 -6 398 l9 30 253 3 252 2 -8 -87 c-12 -137 -8 -227 14
-270 27 -55 110 -95 209 -101 l74 -5 0 302 0 301 -355 0 -355 0 0 130 0 130
355 0 355 0 0 160 0 160 -89 0 -90 0 -152 -155 c-84 -85 -156 -155 -161 -155
-10 0 -201 168 -206 181 -2 5 21 37 52 73 90 107 344 501 330 515 -2 2 -53
-18 -114 -44 -108 -47 -112 -49 -177 -129 -76 -92 -203 -226 -214 -226 -8 0
-318 178 -333 191 -5 4 25 45 68 90 166 177 334 477 457 817 22 60 38 92 48
92 8 0 122 -30 253 -67z m-860 -12 c71 -27 145 -93 183 -163 27 -47 30 -62 30
-138 0 -73 -4 -92 -28 -138 -36 -68 -94 -124 -165 -159 -51 -25 -68 -28 -162
-28 -95 0 -111 3 -167 29 -192 88 -256 306 -141 473 91 133 286 187 450 124z
m-330 -857 c168 -129 261 -210 380 -331 121 -124 159 -189 178 -308 30 -188
-56 -496 -255 -920 -64 -137 -149 -320 -187 -405 -39 -85 -74 -159 -79 -164
-7 -7 -498 293 -537 328 -10 9 28 52 174 196 303 302 497 529 553 650 33 71
39 160 16 229 -29 87 -84 136 -328 290 -122 77 -231 146 -241 154 -18 14 -14
23 94 191 62 97 115 176 116 176 2 0 54 -39 116 -86z"/>
</g>
</svg>
