<?xml version="1.0" standalone="no"?>
<!DOCTYPE svg PUBLIC "-//W3C//DTD SVG 20010904//EN"
 "http://www.w3.org/TR/2001/REC-SVG-20010904/DTD/svg10.dtd">
<svg version="1.0" xmlns="http://www.w3.org/2000/svg"
 width="1024.000000pt" height="1024.000000pt" viewBox="0 0 1024.000000 1024.000000"
 preserveAspectRatio="xMidYMid meet">
<metadata>
Created by potrace 1.16, written by Peter Selinger 2001-2019
</metadata>
<g transform="translate(0.000000,1024.000000) scale(0.100000,-0.100000)"
fill="#000000" stroke="none">
<path d="M6055 8548 c-63 -33 -427 -242 -815 -468 -195 -113 -421 -244 -502
-290 -130 -74 -146 -86 -137 -102 5 -10 90 -157 188 -326 194 -336 341 -590
1023 -1777 250 -434 551 -957 669 -1161 l214 -372 180 -7 c304 -12 1802 -2
1816 12 9 9 -3 38 -51 125 -122 219 -703 1232 -1157 2018 -253 437 -632 1094
-843 1460 -471 819 -489 849 -520 882 l-25 27 -40 -21z"/>
<path d="M4325 6944 c-413 -215 -1445 -822 -1445 -851 0 -8 96 -178 293 -518
99 -170 341 -588 538 -929 l359 -618 0 -209 0 -209 210 0 210 0 0 210 0 210
603 1 c607 0 941 9 958 26 21 21 -1652 2904 -1685 2903 -6 -1 -24 -8 -41 -16z"/>
<path d="M2377 5297 c-411 -211 -1184 -672 -1251 -746 -18 -19 -17 -23 34
-118 29 -54 93 -167 142 -250 l90 -153 722 0 c732 0 1242 12 1259 29 6 6 -12
50 -48 118 -135 254 -599 1056 -677 1171 -23 34 -35 42 -59 42 -18 0 -101 -36
-212 -93z"/>
<path d="M3410 3733 c0 -277 -7 -373 -29 -373 -4 0 -36 11 -71 25 -34 14 -111
37 -169 52 -145 37 -334 39 -460 5 -451 -123 -726 -522 -672 -972 24 -195 105
-371 234 -507 88 -93 169 -151 279 -202 118 -55 194 -72 340 -78 151 -6 219 4
384 58 131 42 164 47 164 24 0 -8 12 -22 26 -32 21 -14 59 -17 215 -21 l189
-5 0 1162 0 1161 -215 0 -215 0 0 -297z m-419 -669 c150 -44 300 -154 358
-264 40 -75 65 -201 55 -280 -38 -307 -336 -499 -631 -405 -215 68 -353 248
-353 459 0 144 48 254 155 355 69 64 144 104 248 131 90 24 101 24 168 4z"/>
<path d="M6089 3753 c0 -255 -7 -374 -21 -388 -3 -3 -52 10 -109 29 -158 53
-247 68 -394 68 -205 0 -338 -37 -491 -138 -274 -180 -440 -529 -404 -843 39
-337 289 -651 600 -755 203 -68 519 -48 719 45 46 21 87 36 92 33 5 -3 9 -18
9 -34 0 -48 24 -53 235 -54 l190 -1 3 1158 2 1157 -215 0 -215 0 -1 -277z
m-433 -694 c96 -17 214 -81 279 -150 96 -104 152 -252 143 -381 -9 -144 -130
-308 -281 -383 -211 -104 -386 -75 -556 94 -170 168 -195 340 -84 568 56 115
151 193 288 236 89 28 128 31 211 16z"/>
<path d="M9894 3991 c-83 -20 -132 -83 -141 -179 -14 -151 63 -232 217 -232
100 1 164 46 189 135 50 182 -82 319 -265 276z m156 -53 c48 -33 69 -66 81
-128 13 -63 1 -128 -31 -160 -27 -27 -96 -43 -165 -37 -115 9 -151 49 -149
167 2 129 49 180 165 180 52 0 73 -5 99 -22z"/>
<path d="M9896 3884 c-12 -12 -16 -37 -16 -105 0 -98 9 -109 41 -54 12 19 26
35 32 35 7 0 25 -16 40 -35 15 -19 32 -35 37 -35 6 0 10 39 10 89 0 108 -9
121 -80 121 -31 0 -54 -6 -64 -16z m100 -29 c19 -15 19 -15 -5 -35 -13 -11
-27 -20 -31 -20 -4 0 -18 9 -31 20 -24 20 -24 20 -5 35 11 8 27 15 36 15 9 0
25 -7 36 -15z"/>
<path d="M755 3456 c-309 -73 -524 -227 -648 -466 -57 -107 -83 -192 -96 -312
-35 -311 98 -626 342 -811 165 -126 343 -187 547 -187 136 0 207 12 356 61
143 46 160 48 168 14 9 -34 46 -40 251 -40 l170 0 0 865 0 865 -187 -1 c-206
-2 -238 -9 -238 -58 0 -14 -5 -26 -11 -28 -7 -2 -53 11 -104 28 -111 39 -296
81 -385 88 -48 4 -91 0 -165 -18z m280 -411 c86 -23 156 -57 204 -100 62 -56
138 -176 162 -257 56 -184 -24 -382 -204 -505 -91 -62 -154 -83 -265 -90 -151
-10 -269 41 -384 165 -116 126 -150 251 -110 408 54 214 156 329 339 379 66
18 187 18 258 0z"/>
<path d="M9245 3458 c-160 -30 -273 -86 -371 -184 -78 -77 -133 -175 -153
-272 -43 -207 50 -412 227 -501 112 -56 226 -88 518 -145 282 -55 359 -122
272 -237 -85 -109 -288 -148 -441 -84 -70 29 -167 134 -167 181 0 43 -30 49
-231 49 -170 0 -189 -2 -208 -19 -28 -25 -26 -56 8 -143 95 -240 281 -369 596
-412 182 -26 436 -5 563 45 241 96 375 275 376 499 0 142 -52 265 -152 362
-81 79 -193 120 -511 188 -265 56 -365 96 -396 155 -46 90 29 165 190 190 91
15 161 5 234 -31 62 -31 79 -50 121 -134 14 -27 36 -56 50 -62 32 -16 314 -17
359 -2 45 16 48 44 11 135 -45 112 -82 173 -142 233 -87 88 -230 153 -406 187
-82 16 -270 17 -347 2z"/>
<path d="M7348 3450 c-248 -63 -482 -249 -593 -470 -112 -222 -127 -486 -40
-715 131 -349 479 -586 860 -587 149 0 226 17 373 82 115 51 126 52 130 17 6
-54 34 -61 241 -61 l186 -1 0 865 0 865 -187 -1 c-207 -2 -234 -8 -240 -61 -4
-41 -40 -41 -135 1 -126 56 -187 67 -383 71 -96 3 -192 0 -212 -5z m356 -406
c140 -36 242 -117 296 -237 41 -92 53 -161 48 -275 -4 -84 -10 -109 -36 -166
-77 -164 -283 -283 -476 -274 -71 3 -92 8 -161 42 -105 52 -208 154 -256 252
-30 62 -33 77 -33 154 1 150 59 307 145 391 52 51 128 93 206 114 67 18 194
18 267 -1z"/>
<path d="M4070 2580 l0 -870 210 0 210 0 0 870 0 870 -210 0 -210 0 0 -870z"/>
</g>
</svg>
