<?xml version="1.0" standalone="no"?>
<!DOCTYPE svg PUBLIC "-//W3C//DTD SVG 20010904//EN"
 "http://www.w3.org/TR/2001/REC-SVG-20010904/DTD/svg10.dtd">
<svg version="1.0" xmlns="http://www.w3.org/2000/svg"
 width="1024.000000pt" height="1024.000000pt" viewBox="0 0 1024.000000 1024.000000"
 preserveAspectRatio="xMidYMid meet">
<metadata>
Created by potrace 1.16, written by Peter Selinger 2001-2019
</metadata>
<g transform="translate(0.000000,1024.000000) scale(0.100000,-0.100000)"
fill="#000000" stroke="none">
<path d="M4822 10019 c-47 -78 -51 -109 -22 -146 11 -14 20 -34 20 -43 0 -52
-83 -54 -265 -5 -77 20 -165 37 -195 38 -50 0 -190 -21 -190 -28 0 -2 4 -15
10 -30 9 -22 15 -25 52 -23 34 2 43 -1 46 -14 3 -15 -4 -18 -48 -18 -54 0
-218 -35 -233 -50 -5 -4 -4 -18 3 -30 10 -19 17 -21 53 -15 116 18 179 17 260
-5 82 -22 170 -61 182 -80 3 -5 -20 -22 -52 -38 -80 -39 -179 -97 -236 -138
-26 -19 -74 -46 -105 -60 -31 -14 -84 -42 -117 -64 -84 -54 -161 -76 -290 -85
-60 -4 -115 -11 -122 -16 -6 -6 -18 -30 -27 -55 -14 -40 -109 -204 -143 -245
-9 -10 -13 -46 -13 -105 l1 -89 37 -28 c46 -36 81 -33 226 19 138 48 144 50
153 29 10 -27 -21 -46 -131 -84 -76 -26 -100 -39 -109 -58 -9 -20 -7 -27 10
-44 18 -18 32 -21 113 -20 84 1 100 4 174 38 77 35 86 37 179 35 63 -1 110 -7
130 -16 62 -29 181 -50 292 -51 186 -2 205 -15 185 -124 -12 -69 -126 -398
-165 -476 -46 -93 -271 -380 -363 -463 -146 -131 -169 -158 -192 -226 -13 -40
-32 -73 -53 -92 -92 -85 -194 -156 -304 -214 -39 -20 -73 -48 -103 -86 -51
-64 -121 -114 -159 -114 -15 0 -57 18 -96 40 -38 21 -137 72 -220 113 -126 62
-172 92 -286 184 -123 99 -144 112 -214 132 -128 38 -240 16 -360 -70 -39 -28
-49 -43 -79 -123 -19 -50 -43 -118 -54 -151 -11 -33 -34 -97 -51 -143 -21 -57
-31 -101 -31 -139 0 -34 -10 -82 -25 -124 -13 -38 -34 -106 -45 -150 -12 -45
-34 -107 -50 -138 -34 -69 -56 -141 -71 -240 -6 -43 -28 -113 -49 -163 l-39
-89 -11 -212 c-15 -307 -13 -401 12 -460 26 -60 47 -72 90 -54 70 30 202 200
228 293 12 44 10 58 -36 248 -60 247 -64 331 -20 464 15 46 35 96 44 111 32
51 99 121 118 121 11 1 29 6 41 13 34 19 122 107 137 136 16 31 32 104 41 180
3 30 10 63 16 73 38 71 138 21 232 -117 77 -115 207 -241 284 -276 44 -20 71
-53 53 -64 -13 -8 -154 10 -310 40 -149 28 -285 38 -357 27 -67 -11 -152 -74
-198 -146 -42 -66 -84 -168 -92 -223 -7 -49 19 -197 53 -306 14 -42 34 -119
45 -170 10 -50 35 -162 55 -247 19 -85 46 -202 59 -260 13 -58 29 -136 35
-174 14 -89 26 -111 94 -169 67 -58 128 -144 157 -224 29 -77 83 -155 161
-229 72 -70 125 -104 159 -104 57 0 70 11 107 89 32 68 37 87 40 173 3 73 0
110 -13 150 -45 138 -88 187 -207 233 -83 32 -88 38 -88 112 0 34 -7 50 -40
88 -56 65 -76 116 -130 330 -26 105 -59 213 -72 240 -14 28 -31 85 -38 128
-10 68 -9 83 6 123 24 64 101 98 134 59 22 -27 144 -102 200 -123 80 -30 284
-128 363 -174 60 -35 67 -42 67 -71 0 -28 7 -36 54 -63 29 -17 89 -43 132 -58
71 -23 94 -26 222 -26 78 0 142 -2 142 -4 0 -2 -7 -20 -15 -40 -14 -34 -14
-39 5 -76 42 -82 106 -160 268 -325 220 -226 372 -343 603 -467 96 -52 235
-136 309 -187 248 -173 303 -220 401 -350 66 -87 79 -110 79 -141 0 -60 35
-131 83 -165 52 -38 113 -64 152 -64 45 -1 133 90 142 145 3 21 23 71 44 109
34 63 39 83 53 200 20 179 28 195 92 195 27 0 31 -16 10 -39 -26 -29 -66 -144
-66 -190 -1 -112 -17 -179 -61 -253 -149 -254 -168 -292 -188 -377 -36 -148
-44 -250 -31 -364 17 -156 33 -204 150 -449 114 -241 172 -340 269 -463 65
-82 77 -109 66 -152 -24 -100 -432 -586 -529 -631 -24 -12 -55 -24 -70 -28
-29 -7 -87 -69 -129 -137 -15 -25 -79 -102 -142 -171 -131 -143 -164 -193
-198 -303 -40 -124 -40 -185 0 -227 l26 -29 106 6 c101 5 110 8 196 51 49 26
93 52 97 59 4 8 25 19 47 27 67 22 89 54 106 155 9 58 11 94 4 106 -15 29 -11
42 12 36 34 -9 103 45 162 126 57 77 82 130 92 189 5 34 13 42 75 78 57 34 75
50 95 89 48 95 288 299 463 393 59 32 102 97 91 138 -4 14 -12 58 -18 98 -12
82 -44 152 -106 232 -58 75 -64 88 -71 167 -5 58 -2 83 25 171 36 122 53 149
123 193 194 121 501 435 606 618 112 197 154 317 167 478 5 60 12 86 25 98 27
25 53 15 75 -30 18 -37 19 -59 17 -270 -3 -302 14 -415 60 -415 21 0 21 1 18
106 -1 50 4 102 13 135 9 30 22 98 30 153 21 139 44 153 72 45 35 -130 11
-275 -77 -464 -85 -182 -100 -229 -99 -317 0 -96 19 -152 52 -156 15 -2 32 5
43 17 15 17 17 25 7 52 -18 53 -13 77 31 135 22 30 60 87 83 127 23 40 64 111
92 158 66 114 103 279 103 467 0 107 -19 179 -67 248 -52 78 -31 127 27 64 77
-82 108 -172 130 -370 9 -90 20 -125 68 -231 30 -66 58 -91 74 -67 11 19 10
38 -7 94 -19 64 -19 185 1 304 24 147 8 219 -83 363 -28 45 -21 61 31 71 54
10 207 90 263 137 78 66 158 179 229 324 60 124 63 135 73 239 21 215 11 365
-44 631 -30 147 -55 350 -49 390 33 198 61 277 143 408 47 74 81 154 81 191 0
29 -27 62 -57 71 -21 6 -23 3 -23 -27 0 -40 -33 -89 -138 -203 -49 -53 -85
-105 -110 -156 -39 -80 -57 -95 -97 -77 -44 20 -60 190 -28 316 17 68 49 127
159 287 34 50 85 136 113 192 45 91 51 109 53 176 2 42 0 79 -4 83 -13 12 -46
-26 -59 -65 -26 -84 -86 -165 -182 -249 -53 -45 -137 -132 -188 -193 -57 -68
-99 -109 -108 -107 -13 3 -17 23 -19 113 -2 92 1 123 23 200 57 202 172 383
320 505 74 61 93 86 76 103 -23 23 -128 -44 -289 -187 -113 -99 -173 -174
-245 -306 -79 -145 -95 -202 -108 -367 -9 -112 -9 -159 1 -202 28 -135 82
-335 119 -445 40 -117 81 -320 117 -581 24 -176 10 -347 -42 -505 -19 -61 -40
-95 -103 -175 -104 -130 -197 -212 -323 -285 l-103 -59 -90 -2 -90 -2 -21 59
c-35 100 -70 158 -194 323 -174 230 -381 419 -683 624 -70 48 -208 154 -307
237 -216 180 -320 303 -480 564 -87 143 -108 186 -133 270 -24 82 -28 114 -24
168 2 37 10 74 17 83 11 13 15 13 39 -4 14 -10 59 -35 98 -55 58 -29 84 -36
129 -36 46 0 70 -7 132 -40 43 -22 100 -56 127 -75 140 -99 168 -115 206 -115
27 0 41 5 48 19 12 21 -7 35 -34 25 -21 -9 -42 11 -91 86 -59 91 -128 154
-194 179 -30 12 -63 21 -72 21 -10 0 -18 5 -18 10 0 15 81 12 128 -4 22 -8 71
-35 108 -60 86 -56 120 -66 129 -37 8 25 -10 49 -83 114 -58 52 -162 108 -292
157 -95 36 -120 54 -103 71 8 8 22 5 50 -10 22 -11 71 -25 109 -31 70 -12 188
-53 278 -98 69 -34 194 -51 276 -37 92 15 230 96 230 136 0 24 -27 25 -54 0
-32 -29 -113 -52 -201 -58 l-80 -6 -52 42 c-29 22 -63 55 -75 72 -37 50 -108
96 -168 108 -124 26 -247 77 -229 95 2 3 99 6 216 7 194 3 214 2 232 -15 27
-25 148 -34 175 -14 17 13 15 15 -21 26 -22 6 -66 34 -97 62 -80 70 -137 96
-237 110 -93 13 -112 22 -78 40 45 25 144 6 264 -49 91 -42 120 -51 166 -51
74 0 116 16 134 50 13 26 13 28 -11 39 -14 6 -44 11 -68 11 -58 0 -133 27
-181 65 -58 47 -101 66 -176 81 -88 17 -134 37 -155 68 -9 15 -14 29 -12 32
10 9 102 -18 145 -42 91 -52 133 -18 62 49 l-44 42 32 3 c18 2 49 -6 75 -19
24 -12 70 -27 103 -33 54 -10 62 -15 79 -46 12 -22 40 -48 75 -69 54 -32 56
-32 89 -17 27 14 32 19 22 31 -6 7 -21 15 -33 17 -14 2 -40 30 -74 79 -70 102
-159 183 -243 220 -56 25 -77 42 -125 100 -31 39 -72 78 -91 86 -34 17 -49 37
-38 55 8 13 64 4 179 -29 112 -32 138 -45 165 -83 27 -37 88 -70 132 -70 18 0
49 -4 67 -10 44 -12 106 -3 134 21 l22 19 -27 24 c-17 15 -50 29 -85 35 -32 6
-69 15 -82 19 -32 9 -108 108 -117 150 -8 39 -70 94 -199 175 -89 56 -195 150
-182 163 3 3 41 -21 84 -53 43 -33 116 -83 163 -111 47 -28 118 -81 159 -118
74 -66 166 -118 197 -112 22 4 43 39 27 45 -6 2 -31 20 -55 39 -32 25 -48 46
-57 77 -9 30 -34 63 -86 117 -41 41 -81 93 -90 114 -20 48 -129 212 -149 223
-29 16 -136 121 -136 133 0 20 46 7 155 -44 81 -37 111 -46 156 -46 38 0 75
-8 112 -25 71 -31 141 -40 195 -26 34 10 42 16 42 35 0 20 -8 25 -64 39 -95
23 -390 171 -417 208 -12 17 -19 32 -17 35 3 2 22 -3 44 -12 33 -14 62 -15
195 -9 174 8 186 5 279 -59 61 -42 80 -45 80 -12 0 32 -104 123 -189 166 -58
29 -79 33 -203 44 l-138 11 -77 76 c-43 41 -104 94 -135 118 -32 23 -58 46
-58 51 0 22 25 17 112 -25 107 -52 265 -95 348 -95 56 0 58 -1 99 -50 54 -64
125 -107 146 -90 8 7 15 16 15 21 0 5 -23 44 -52 88 -69 104 -188 191 -294
216 -64 15 -74 22 -129 80 -71 75 -142 118 -227 141 -35 9 -65 17 -66 19 -2 2
11 17 30 33 23 22 69 42 156 69 88 27 127 44 137 60 38 57 -60 78 -324 69
l-194 -7 -51 50 c-76 74 -184 128 -292 146 -49 8 -111 15 -139 15 -49 1 -51 2
-105 67 -48 56 -210 213 -221 213 -2 0 -23 -32 -47 -71z m576 -384 c11 -11 -9
-18 -44 -17 -42 2 -49 6 -39 22 7 12 70 8 83 -5z m45 -150 c1 -5 -13 -11 -30
-13 -31 -3 -42 6 -26 22 10 10 53 3 56 -9z m-644 -54 c22 -14 -5 -41 -40 -41
-35 0 -39 22 -6 38 28 13 29 14 46 3z m-489 -156 c14 -17 5 -35 -17 -35 -9 0
-40 -16 -70 -36 -52 -34 -142 -65 -233 -79 l-45 -7 20 21 c21 21 289 149 316
150 9 1 22 -6 29 -14z m319 -21 c27 -20 51 -72 51 -113 0 -27 -4 -31 -36 -37
-30 -5 -50 0 -106 27 -94 45 -108 71 -62 114 21 20 38 25 78 25 31 0 61 -6 75
-16z m826 -111 c0 -17 3 -35 7 -39 4 -4 31 0 59 9 28 10 58 17 65 17 25 0 15
-30 -13 -41 -15 -5 -64 -28 -109 -51 -45 -22 -87 -37 -93 -34 -6 4 -11 26 -11
50 0 31 8 53 31 85 37 50 64 52 64 4z m-1806 -204 c41 -38 9 -98 -65 -124 -29
-10 -43 -10 -52 -2 -34 27 25 147 72 147 12 0 32 -10 45 -21z m151 -15 c0 -20
-4 -25 -22 -22 -28 4 -33 21 -13 42 21 20 35 12 35 -20z m923 -133 c-5 -3 -19
-27 -32 -53 -19 -39 -29 -49 -68 -62 -51 -17 -113 -21 -113 -7 0 15 214 153
219 140 2 -6 -1 -14 -6 -18z m895 -3 c-5 -15 -35 -34 -43 -27 -3 4 -3 14 1 23
7 18 48 23 42 4z m-1644 -33 c7 -20 -23 -33 -34 -14 -5 7 -6 17 -4 21 9 13 32
9 38 -7z m1024 -28 c3 -20 -5 -35 -29 -57 -38 -34 -96 -57 -110 -43 -18 18 98
139 125 130 6 -2 12 -16 14 -30z m652 -47 c0 -11 -2 -20 -4 -20 -2 0 -11 -3
-20 -6 -11 -4 -16 0 -16 13 0 23 8 33 27 33 7 0 13 -9 13 -20z m-530 -72 c0
-58 -105 -128 -192 -128 -61 0 -64 21 -7 44 22 9 68 34 102 56 62 40 97 50 97
28z m547 -44 c3 -9 0 -20 -8 -25 -18 -11 -59 -12 -59 0 0 9 40 40 53 40 4 1
10 -6 14 -15z m-24 -110 c12 -12 -6 -34 -29 -34 -28 0 -33 26 -6 33 27 7 28 7
35 1z m15 -127 c16 -19 -8 -61 -37 -65 -36 -5 -46 13 -22 37 12 12 21 26 21
31 0 14 26 12 38 -3z m6 -155 c10 -16 -25 -52 -49 -52 -32 0 -41 17 -19 41 17
19 59 26 68 11z m-746 -75 c5 -23 -42 -170 -71 -223 -79 -145 -109 -196 -162
-277 -76 -114 -140 -186 -182 -203 -18 -8 -35 -14 -38 -14 -14 0 -1 33 36 90
22 34 85 153 140 263 147 293 212 391 254 385 11 -2 21 -11 23 -21z m737 -67
c8 -13 -31 -50 -55 -50 -25 0 -27 35 -2 49 22 13 49 14 57 1z m10 -119 c9 -15
-45 -51 -76 -51 -39 0 -37 22 4 43 37 18 63 21 72 8z m-7 -157 c3 -23 -19 -34
-70 -34 -21 0 -28 5 -28 18 0 41 92 55 98 16z m-54 -100 c36 -14 4 -54 -43
-54 -29 0 -36 18 -15 41 18 20 32 23 58 13z m-24 -161 c0 -22 -29 -53 -51 -53
-54 0 -58 33 -5 56 42 18 56 17 56 -3z m-57 -160 c12 -11 -14 -33 -39 -33 -23
0 -32 19 -17 33 8 9 48 9 56 0z m-30 -130 c10 -10 -13 -33 -34 -33 -21 0 -33
15 -24 30 7 11 48 14 58 3z m-43 -148 c0 -9 -9 -15 -25 -15 -16 0 -25 6 -25
15 0 9 9 15 25 15 16 0 25 -6 25 -15z m-3080 -41 c20 -23 -8 -45 -64 -51 -36
-5 -47 -2 -52 11 -9 23 12 44 49 49 18 2 37 5 43 5 6 1 17 -5 24 -14z m2090
-38 c51 -27 80 -56 80 -83 0 -28 -6 -28 -105 -3 -95 24 -222 26 -320 4 -118
-26 -155 -29 -155 -11 0 9 6 22 14 30 18 17 164 67 231 77 82 14 215 6 255
-14z m948 -23 c5 -17 -26 -29 -40 -15 -6 6 -7 15 -3 22 9 14 37 9 43 -7z
m-3249 -228 c6 -31 -41 -184 -70 -230 -42 -66 -53 -59 -46 28 8 94 21 135 58
186 31 43 51 49 58 16z m528 -181 c52 -39 76 -68 66 -77 -14 -14 -123 74 -123
99 0 20 4 18 57 -22z m2115 24 c19 -15 29 -88 16 -111 -14 -25 -76 -22 -105 5
-37 35 -25 72 33 103 35 18 36 18 56 3z m-1519 -149 c0 -24 -20 -99 -43 -167
-35 -100 -51 -132 -86 -171 -46 -51 -82 -69 -90 -46 -3 8 6 29 20 48 33 43 68
125 91 212 26 95 75 180 99 172 6 -2 10 -24 9 -48z m1960 -314 c9 -8 25 -56
37 -106 11 -50 30 -114 41 -142 23 -59 196 -322 310 -472 44 -58 78 -105 75
-105 -17 0 -98 57 -160 113 -139 125 -268 311 -329 477 -57 153 -62 250 -13
250 14 0 31 -7 39 -15z m-3129 -141 c-11 -21 -25 -40 -31 -42 -20 -6 -15 27 8
65 30 48 48 28 23 -23z m751 -370 c89 -44 111 -74 52 -74 -25 0 -59 17 -133
66 -54 37 -103 70 -108 75 -18 16 111 -29 189 -67z m-695 -250 c4 -32 13 -72
20 -89 6 -16 18 -63 26 -103 26 -135 13 -161 -31 -64 -49 106 -66 213 -49 301
9 45 23 26 34 -45z m6010 -185 c42 -141 53 -225 47 -379 -5 -161 -21 -231 -82
-357 -41 -87 -103 -170 -185 -250 -62 -59 -86 -74 -107 -66 -25 10 -12 52 34
120 199 290 207 304 239 431 28 108 32 253 13 434 -6 59 -9 114 -5 123 11 30
26 13 46 -56z m-6390 37 c0 -8 -5 -18 -11 -22 -14 -8 -33 11 -25 25 10 16 36
13 36 -3z m2283 -286 c19 -11 92 -86 163 -166 71 -81 181 -192 244 -247 281
-247 365 -332 273 -276 -106 63 -442 299 -501 351 -37 32 -96 84 -131 116 -92
81 -121 125 -121 182 0 67 14 75 73 40z m1609 -257 c29 -26 23 -75 -16 -122
-19 -23 -40 -57 -46 -76 -8 -24 -18 -35 -31 -35 -15 0 -19 7 -19 38 1 41 22
142 38 185 13 31 45 36 74 10z m-2965 -489 c3 -8 0 -21 -6 -27 -10 -9 -16 -8
-27 7 -8 11 -14 23 -14 28 0 15 41 8 47 -8z m4261 -446 c11 -13 24 -35 27 -50
8 -31 -12 -129 -28 -140 -16 -10 -27 0 -27 26 0 13 -11 44 -25 70 -29 55 -31
78 -9 100 21 22 37 20 62 -6z m-1247 -601 c-18 -51 -44 -123 -58 -162 -32 -89
-40 -97 -49 -49 -9 49 10 166 36 219 29 60 78 111 93 96 9 -9 4 -33 -22 -104z
m103 -756 c9 -10 21 -47 27 -82 6 -35 14 -84 19 -109 4 -25 6 -47 4 -49 -6 -6
-28 24 -60 83 -32 59 -47 176 -22 176 8 0 23 -8 32 -19z m496 -728 c0 -10 -42
-53 -52 -53 -12 0 -10 34 4 48 13 13 48 17 48 5z m-290 -161 c0 -25 -91 -135
-206 -249 -150 -149 -179 -172 -196 -155 -13 13 47 85 237 279 112 115 165
155 165 125z m-600 -602 c0 -14 -46 -60 -60 -60 -20 0 -23 31 -5 50 19 21 65
27 65 10z m-275 -410 c12 -20 -38 -104 -68 -114 -40 -14 -52 2 -34 46 23 55
85 96 102 68z"/>
<path d="M4546 10054 c-9 -12 -13 -30 -10 -38 4 -9 -5 -29 -20 -47 -14 -17
-26 -38 -26 -47 0 -10 26 -33 59 -54 52 -33 67 -38 120 -38 l61 0 0 43 c0 37
-8 51 -64 118 -73 86 -97 99 -120 63z"/>
<path d="M4649 3945 c-47 -26 -53 -59 -28 -175 83 -403 306 -893 565 -1241 64
-86 77 -123 54 -159 -13 -20 -119 -28 -260 -18 -242 16 -452 59 -610 125 -117
48 -161 56 -238 42 -73 -13 -182 -5 -245 18 -29 11 -113 18 -278 26 -236 10
-237 10 -300 -13 -35 -13 -70 -28 -76 -33 -26 -19 -12 -63 45 -144 58 -84 61
-86 222 -183 25 -15 70 -35 100 -45 90 -30 269 -14 456 40 20 6 27 2 62 -40
10 -11 34 -15 102 -15 49 0 100 -4 114 -9 14 -6 37 -6 53 -2 35 10 261 -18
427 -54 164 -35 385 -108 482 -160 94 -49 169 -63 244 -45 47 11 48 12 84 92
20 44 36 94 36 112 0 20 -24 82 -61 157 -73 149 -101 222 -136 354 -24 91 -27
117 -27 285 0 112 4 206 12 238 21 90 7 116 -104 197 -81 60 -95 74 -100 105
-29 170 -116 292 -312 439 -157 117 -220 140 -283 106z m-1054 -1504 c3 -5 0
-21 -6 -35 -10 -20 -19 -26 -45 -26 -38 0 -63 30 -41 48 23 19 83 27 92 13z
m971 -105 c42 -15 134 -32 237 -45 171 -21 218 -34 198 -54 -7 -7 -44 -7 -128
2 -131 15 -158 20 -288 58 -95 28 -118 40 -109 54 7 13 12 12 90 -15z m844
-33 c0 -14 -34 -43 -52 -43 -20 0 -24 20 -6 38 13 13 58 17 58 5z"/>
</g>
</svg>
