<?xml version="1.0" standalone="no"?>
<!DOCTYPE svg PUBLIC "-//W3C//DTD SVG 20010904//EN"
 "http://www.w3.org/TR/2001/REC-SVG-20010904/DTD/svg10.dtd">
<svg version="1.0" xmlns="http://www.w3.org/2000/svg"
 width="900.000000pt" height="900.000000pt" viewBox="0 0 900.000000 900.000000"
 preserveAspectRatio="xMidYMid meet">
<metadata>
Created by potrace 1.16, written by Peter Selinger 2001-2019
</metadata>
<g transform="translate(0.000000,900.000000) scale(0.100000,-0.100000)"
fill="#000000" stroke="none">
<path d="M4370 6313 c-382 -60 -673 -280 -824 -621 -30 -69 -71 -220 -79 -295
l-5 -47 371 2 370 3 -2 93 c-2 60 2 99 10 108 16 19 553 21 566 2 9 -16 13
-542 4 -557 -5 -8 -89 -11 -292 -9 l-284 3 -1 105 -2 105 -372 3 -372 2 7 -57
c28 -237 142 -462 316 -629 448 -426 1173 -365 1542 131 149 200 216 421 204
674 -12 265 -114 495 -304 684 -168 169 -379 269 -623 297 -84 10 -181 11
-230 3z"/>
<path d="M2010 3722 c-6 -2 -10 -128 -10 -346 0 -372 4 -411 57 -508 65 -120
227 -188 443 -188 284 0 450 108 490 320 5 29 10 203 10 386 l0 333 -100 3
c-55 2 -105 2 -110 0 -6 -2 -10 -132 -10 -346 l0 -343 -31 -61 c-26 -54 -37
-64 -86 -88 -43 -21 -75 -29 -138 -32 -141 -7 -230 32 -278 122 -21 39 -22 54
-27 394 l-5 354 -98 1 c-53 1 -102 1 -107 -1z"/>
<path d="M3464 3718 c-55 -15 -54 -4 -54 -513 0 -444 1 -473 18 -488 17 -15
56 -17 360 -17 337 0 342 0 409 24 51 19 78 36 109 70 52 57 68 112 62 213 -7
111 -42 174 -122 215 l-39 20 31 18 c46 28 85 116 85 194 0 137 -49 208 -170
247 -63 21 -88 22 -364 23 -163 1 -309 -2 -325 -6z m594 -178 c18 -11 37 -32
42 -46 15 -38 12 -101 -5 -134 -28 -55 -53 -60 -276 -60 l-202 0 7 77 c3 42 6
100 6 130 l0 53 198 0 c179 0 200 -2 230 -20z m40 -414 c41 -21 62 -63 62
-121 0 -58 -21 -100 -63 -122 -27 -15 -64 -18 -249 -21 l-218 -3 0 119 c0 169
-2 168 269 166 133 -1 174 -5 199 -18z"/>
<path d="M6072 3718 c-21 -6 -36 -18 -42 -34 -6 -16 -9 -212 -8 -502 l3 -477
108 -3 107 -3 0 166 c0 92 4 175 10 185 16 29 66 40 189 40 l116 0 109 -195
108 -195 115 0 c88 0 114 3 110 13 -3 6 -55 97 -116 201 -61 104 -111 190
-111 192 0 2 23 13 50 25 100 43 150 134 150 274 0 171 -50 244 -201 296 -60
20 -84 22 -364 24 -165 1 -315 -2 -333 -7z m606 -173 c48 -20 72 -65 72 -139
0 -78 -16 -113 -61 -136 -34 -18 -59 -20 -244 -20 l-205 0 0 155 0 155 200 0
c157 0 208 -3 238 -15z"/>
<path d="M4790 3700 c-19 -19 -20 -33 -20 -494 0 -420 2 -476 16 -490 14 -14
61 -16 412 -14 l395 3 29 69 c15 38 28 75 28 83 0 11 -61 13 -335 13 l-335 0
0 89 c0 99 12 146 44 164 13 8 87 14 209 17 l189 5 29 68 c16 38 29 73 29 78
0 5 -108 9 -250 9 l-251 0 3 128 3 127 304 5 304 5 29 69 c15 38 28 73 28 78
0 4 -189 8 -420 8 -407 0 -421 -1 -440 -20z"/>
</g>
</svg>
