<?xml version="1.0" standalone="no"?>
<!DOCTYPE svg PUBLIC "-//W3C//DTD SVG 20010904//EN"
 "http://www.w3.org/TR/2001/REC-SVG-20010904/DTD/svg10.dtd">
<svg version="1.0" xmlns="http://www.w3.org/2000/svg"
 width="1024.000000pt" height="1024.000000pt" viewBox="0 0 1024.000000 1024.000000"
 preserveAspectRatio="xMidYMid meet">
<metadata>
Created by potrace 1.16, written by Peter Selinger 2001-2019
</metadata>
<g transform="translate(0.000000,1024.000000) scale(0.100000,-0.100000)"
fill="#000000" stroke="none">
<path d="M0 8083 l1 -2148 189 440 189 440 334 3 334 2 104 -240 104 -241 3
241 2 240 414 0 414 0 62 -175 c35 -97 64 -174 66 -172 2 1 30 79 62 172 l59
170 1852 3 1851 2 0 -85 c0 -47 2 -85 4 -85 2 0 28 16 57 36 65 44 140 78 234
107 68 21 88 21 741 25 l671 3 104 -240 104 -241 3 240 2 240 347 -2 347 -3
90 -133 91 -133 3 135 3 136 349 0 350 0 0 -805 0 -805 -352 2 -352 3 -86 134
-85 134 -3 -136 -3 -137 -508 0 -508 0 -49 125 -49 125 -136 0 -136 0 -49
-122 -49 -123 -365 -3 c-234 -2 -388 1 -430 8 -89 15 -181 53 -267 110 l-73
48 0 -84 0 -84 -520 0 -520 0 -97 120 -98 121 -3 -121 -3 -120 -1927 0 -1927
0 -50 125 -50 125 -136 0 -136 0 -49 -125 -49 -125 -237 0 -238 0 0 -2600 0
-2600 5120 0 5120 0 0 5110 0 5110 -5120 0 -5120 0 0 -2147z m3770 -3480 c47
-62 88 -113 92 -113 4 0 48 52 98 115 l92 115 3081 -2 3082 -3 0 -97 0 -97
-345 -4 c-366 -5 -406 -9 -510 -59 -65 -32 -134 -107 -161 -175 -26 -68 -31
-203 -10 -268 21 -63 70 -133 115 -164 80 -56 122 -64 359 -70 l219 -6 29 -33
c31 -35 36 -66 17 -107 -24 -53 -39 -55 -393 -55 l-325 0 0 -130 0 -130 345 0
c363 0 415 5 497 46 54 27 121 93 139 135 6 16 15 29 20 29 11 0 12 -290 1
-306 -13 -21 -134 -75 -210 -95 -73 -18 -128 -19 -1812 -19 l-1738 0 -98 122
-99 121 -3 -121 -3 -122 -339 0 -340 0 0 215 0 216 -32 -17 c-52 -27 -175 -43
-330 -44 l-148 0 0 -185 0 -185 -513 0 -513 0 -89 120 c-85 115 -90 120 -105
101 -8 -11 -49 -65 -90 -120 l-75 -100 -847 -1 -848 0 0 805 0 805 852 -2 852
-3 86 -112z m6449 -433 c0 -283 -5 -349 -24 -290 -12 38 -94 108 -153 131 -51
20 -80 23 -284 28 l-227 6 -29 28 c-36 35 -45 71 -27 114 25 60 44 63 348 63
l274 0 54 115 c30 63 57 115 61 115 4 0 7 -139 7 -310z"/>
<path d="M2197 4513 c-4 -3 -7 -273 -7 -600 l0 -593 490 0 489 0 -2 128 -2
127 -337 3 -338 2 0 105 0 105 330 0 330 0 0 125 0 125 -330 0 -330 0 0 105 0
105 338 2 337 3 0 130 0 130 -481 2 c-264 2 -484 0 -487 -4z"/>
<path d="M3207 4508 c6 -7 114 -143 242 -302 128 -159 230 -295 227 -302 -3
-7 -108 -141 -235 -298 l-230 -286 184 0 184 0 137 186 c132 178 138 185 153
165 9 -11 72 -95 141 -185 l125 -165 187 -1 188 0 -236 296 c-129 163 -233
301 -231 307 2 7 109 142 236 300 127 158 231 290 231 292 0 2 -80 3 -177 2
l-177 -2 -142 -184 c-79 -101 -145 -185 -147 -187 -2 -3 -71 81 -152 186
l-147 190 -185 0 c-147 0 -183 -3 -176 -12z"/>
<path d="M5780 3920 l0 -600 145 0 145 0 2 213 3 212 62 3 61 3 182 -216 182
-215 181 0 181 0 -30 33 c-150 160 -354 398 -349 407 3 5 16 10 29 10 39 0
142 59 186 106 87 94 119 226 86 354 -41 161 -160 256 -346 279 -46 6 -227 11
-402 11 l-318 0 0 -600z m707 313 c76 -36 96 -126 42 -188 -43 -49 -81 -56
-281 -53 l-173 3 -3 128 -3 127 192 0 c158 0 197 -3 226 -17z"/>
<path d="M6997 4513 c-4 -3 -7 -273 -7 -600 l0 -593 488 0 487 0 -2 127 -2
128 -335 3 -336 2 0 105 0 105 328 2 327 3 3 123 3 122 -331 0 -330 0 0 105 0
105 336 2 335 3 0 130 0 130 -479 2 c-263 2 -482 0 -485 -4z"/>
<path d="M8460 4509 c-235 -21 -367 -136 -386 -334 -12 -129 36 -254 123 -320
75 -58 121 -67 365 -74 216 -6 218 -6 243 -32 14 -14 28 -42 32 -62 5 -32 1
-41 -30 -72 l-35 -35 -331 0 -331 0 0 -131 0 -130 373 3 c365 3 373 4 431 27
100 40 179 129 206 230 17 66 14 193 -6 253 -12 38 -33 69 -73 109 -85 84
-111 91 -381 98 -255 7 -270 11 -290 78 -15 50 -1 87 42 113 31 19 51 20 309
20 l276 0 59 126 c32 70 61 131 62 135 4 11 -539 9 -658 -2z"/>
<path d="M4550 3915 l0 -595 155 0 155 0 0 190 0 190 193 0 c128 0 215 5 260
15 139 29 253 118 299 233 19 47 23 76 23 167 0 105 -2 114 -33 177 -40 82
-119 157 -200 190 -56 23 -65 23 -454 26 l-398 3 0 -596z m715 315 c22 -11 48
-33 58 -49 23 -38 22 -108 -2 -147 -34 -56 -67 -64 -275 -64 l-186 0 0 140 0
140 182 0 c161 0 186 -2 223 -20z"/>
<path d="M511 6593 c-30 -65 -501 -1163 -501 -1168 0 -3 73 -5 163 -5 l163 0
48 120 48 120 280 -2 281 -3 45 -117 46 -118 169 0 c131 0 168 3 164 13 -3 6
-119 276 -258 600 l-252 587 -192 0 -192 0 -12 -27z m284 -458 c42 -104 79
-196 82 -202 4 -10 -33 -13 -167 -13 -96 0 -170 4 -168 9 56 149 165 408 170
403 3 -4 41 -92 83 -197z"/>
<path d="M1467 6614 c-4 -4 -7 -274 -7 -601 l0 -593 150 0 150 0 2 442 3 442
159 -442 159 -443 130 3 130 3 156 433 c85 237 159 432 163 432 5 0 8 -196 8
-435 l0 -435 145 0 145 0 0 600 0 600 -234 0 -234 0 -10 -27 c-5 -16 -65 -185
-132 -378 -67 -192 -125 -354 -129 -358 -5 -5 -41 83 -81 195 -174 484 -199
550 -205 556 -9 9 -459 15 -468 6z"/>
<path d="M3170 6020 l0 -600 485 0 485 0 0 130 0 130 -335 0 -335 0 0 110 0
110 330 0 330 0 0 120 0 120 -330 0 -330 0 0 105 0 105 335 0 335 0 0 135 0
135 -485 0 -485 0 0 -600z"/>
<path d="M4327 6613 c-4 -3 -7 -273 -7 -600 l0 -593 150 0 150 0 0 215 0 215
63 0 64 0 179 -212 180 -213 182 -3 183 -2 -193 215 c-106 119 -193 219 -193
222 0 3 24 12 53 19 178 46 293 228 263 415 -28 169 -153 290 -331 318 -71 12
-732 15 -743 4z m718 -283 c35 -22 65 -73 65 -112 0 -33 -34 -85 -69 -103 -24
-12 -69 -15 -226 -15 l-195 0 0 125 0 125 196 0 c180 0 199 -2 229 -20z"/>
<path d="M5537 6614 c-4 -4 -7 -274 -7 -601 l0 -593 155 0 155 0 -2 598 -3
597 -146 3 c-80 1 -148 -1 -152 -4z"/>
<path d="M6472 6609 c-138 -18 -270 -83 -346 -170 -50 -58 -102 -167 -121
-254 -8 -39 -15 -115 -15 -170 0 -124 20 -218 65 -313 83 -174 254 -281 452
-282 l53 0 60 120 c33 66 60 124 60 129 0 5 -39 11 -87 13 -140 7 -218 51
-271 153 -21 41 -27 67 -30 146 -7 164 39 264 148 324 l55 30 208 3 207 4 0
139 0 139 -187 -1 c-104 -1 -217 -5 -251 -10z"/>
<path d="M7211 6598 c-5 -13 -120 -280 -255 -595 -135 -314 -246 -574 -246
-577 0 -3 74 -6 164 -6 l163 0 45 118 46 117 282 0 282 0 46 -117 45 -118 169
0 c97 0 168 4 166 9 -1 5 -117 275 -257 600 l-255 591 -193 0 c-191 0 -194 0
-202 -22z m287 -473 l80 -200 -165 -3 c-91 -1 -167 -1 -169 1 -2 2 33 96 79
210 45 113 85 203 89 199 3 -4 42 -97 86 -207z"/>
<path d="M8167 6614 c-4 -4 -7 -274 -7 -601 l0 -593 150 0 150 0 2 386 3 386
249 -386 248 -386 184 0 184 0 0 600 0 600 -150 0 -150 0 -2 -376 -3 -376
-241 373 -242 374 -184 3 c-101 1 -187 -1 -191 -4z"/>
</g>
</svg>
