<?xml version="1.0" standalone="no"?>
<!DOCTYPE svg PUBLIC "-//W3C//DTD SVG 20010904//EN"
 "http://www.w3.org/TR/2001/REC-SVG-20010904/DTD/svg10.dtd">
<svg version="1.0" xmlns="http://www.w3.org/2000/svg"
 width="1024.000000pt" height="1024.000000pt" viewBox="0 0 1024.000000 1024.000000"
 preserveAspectRatio="xMidYMid meet">
<metadata>
Created by potrace 1.16, written by Peter Selinger 2001-2019
</metadata>
<g transform="translate(0.000000,1024.000000) scale(0.100000,-0.100000)"
fill="#000000" stroke="none">
<path d="M5103 6075 c-117 -57 -213 -106 -213 -108 0 -3 93 24 208 60 114 35
216 64 227 65 11 0 111 -27 221 -61 111 -33 210 -63 220 -66 11 -3 -82 44
-205 105 -123 60 -229 110 -235 109 -6 0 -107 -47 -223 -104z"/>
<path d="M9610 5961 c0 -56 -40 -158 -90 -229 l-51 -72 -2 -128 c-2 -114 -5
-133 -29 -184 l-26 -57 33 -25 c38 -29 37 -30 50 49 13 75 84 155 154 170 26
5 29 11 35 60 3 30 15 79 26 108 l20 54 -25 76 c-27 84 -80 207 -89 207 -3 0
-6 -13 -6 -29z"/>
<path d="M9828 5971 c-31 -10 -72 -28 -92 -40 -38 -24 -38 -19 -2 -103 9 -21
18 -38 20 -38 2 0 22 7 45 15 l41 14 25 -49 c14 -27 25 -60 25 -73 0 -14 7
-30 15 -37 14 -12 11 -18 -23 -54 -22 -23 -42 -53 -46 -68 -3 -14 -8 -33 -12
-41 -4 -10 6 -16 35 -21 23 -3 74 -17 115 -30 71 -22 74 -22 97 -5 27 20 30 8
-40 165 -48 110 -71 193 -78 288 -8 101 -22 110 -125 77z"/>
<path d="M9353 5963 c-7 -2 -29 -28 -50 -56 -20 -29 -66 -82 -101 -118 l-63
-67 56 -72 c70 -92 122 -198 141 -292 8 -40 16 -77 18 -83 1 -5 18 21 36 59
32 64 34 77 38 185 3 97 0 127 -17 181 -17 53 -18 67 -7 78 10 11 16 6 31 -28
10 -22 21 -40 25 -40 14 0 40 49 40 73 0 43 -32 117 -65 152 -30 33 -53 40
-82 28z"/>
<path d="M4110 5911 c-227 -31 -415 -192 -496 -426 -24 -69 -28 -95 -28 -190
1 -92 5 -122 27 -183 84 -240 257 -366 531 -388 165 -13 304 42 417 165 33 35
57 66 54 69 -2 3 -32 -20 -65 -51 -274 -254 -652 -136 -746 233 -26 102 -24
267 5 360 48 158 141 279 257 336 53 26 69 29 154 29 83 0 102 -3 151 -27 71
-36 139 -103 190 -189 23 -38 43 -69 45 -69 2 0 4 69 4 153 l-1 152 -22 -27
c-28 -34 -51 -35 -125 -4 -108 45 -258 69 -352 57z"/>
<path d="M5195 5904 c-315 -67 -527 -391 -461 -704 47 -223 202 -391 421 -456
74 -22 246 -25 325 -5 177 44 322 160 400 319 168 345 -39 767 -415 847 -87
18 -179 18 -270 -1z m278 -64 c101 -48 177 -157 213 -306 24 -98 25 -335 1
-424 -42 -155 -116 -259 -220 -309 -82 -40 -139 -47 -215 -27 -136 34 -221
127 -274 296 -20 66 -23 95 -23 245 0 132 4 185 18 235 45 166 127 266 250
306 63 21 191 13 250 -16z"/>
<path d="M1703 5902 c-6 -4 -111 -244 -232 -535 -121 -290 -227 -540 -235
-555 -8 -16 -31 -43 -51 -61 l-36 -31 123 1 c111 0 120 2 88 13 -19 7 -42 24
-50 38 -13 25 -9 38 64 225 43 109 84 208 92 221 14 21 19 22 184 22 165 0
170 -1 184 -23 23 -34 156 -382 156 -407 0 -31 -17 -58 -48 -74 -25 -14 -11
-15 158 -15 170 0 183 1 157 15 -15 8 -38 31 -50 52 -13 20 -124 276 -246 567
-122 292 -228 535 -234 542 -7 7 -17 9 -24 5z m-23 -245 c0 -1 27 -80 60 -175
33 -95 60 -177 60 -183 0 -5 -57 -9 -135 -9 -113 0 -137 3 -142 15 -10 28 121
355 143 355 8 0 14 -1 14 -3z"/>
<path d="M2430 5878 c24 -13 53 -36 64 -51 20 -28 21 -42 24 -512 3 -552 4
-541 -70 -575 l-43 -19 140 0 c135 0 139 1 103 15 -69 29 -69 27 -66 528 l3
446 383 -485 c211 -267 391 -492 399 -501 8 -8 18 -12 22 -9 3 4 8 253 11 555
l5 548 25 27 c14 15 39 34 55 41 27 12 14 13 -115 13 -141 1 -144 0 -112 -16
65 -32 67 -39 70 -427 l3 -349 -318 396 -318 397 -155 0 -154 0 44 -22z"/>
<path d="M6086 5881 c45 -27 72 -67 79 -114 9 -63 -88 -935 -109 -976 -10 -17
-31 -41 -49 -51 l-32 -20 125 0 125 0 -30 18 c-46 28 -58 49 -57 95 1 74 84
842 91 850 4 4 91 -176 193 -400 102 -225 191 -408 198 -408 6 0 88 184 181
409 92 225 173 414 178 419 7 7 12 6 16 -4 9 -26 106 -783 107 -834 1 -60 -22
-109 -60 -129 -25 -14 -10 -15 168 -15 l195 0 -37 20 c-68 35 -73 53 -139 557
-33 251 -57 471 -54 488 7 41 39 81 79 99 28 12 19 13 -110 14 l-141 1 -12
-26 c-10 -22 -240 -569 -285 -678 -16 -39 -17 -39 -31 -19 -17 25 -325 700
-325 714 0 5 -62 9 -147 9 l-148 0 31 -19z"/>
<path d="M175 5880 c3 -5 11 -10 17 -10 26 0 80 -35 98 -65 19 -31 20 -49 20
-517 l0 -485 -26 -27 c-15 -14 -48 -33 -73 -40 -41 -13 -4 -15 371 -15 l418
-1 4 23 c35 161 43 245 17 164 -15 -44 -64 -91 -126 -118 -42 -19 -73 -23
-191 -27 -157 -5 -208 5 -218 41 -10 39 -7 930 4 969 12 42 56 83 100 93 81
18 26 25 -190 25 -152 0 -229 -3 -225 -10z"/>
<path d="M7588 5875 c23 -10 39 -28 53 -59 19 -44 20 -64 17 -524 -3 -531 -1
-509 -71 -552 l-32 -20 427 0 426 0 4 108 c2 59 3 109 1 111 -1 1 -7 -17 -13
-40 -15 -55 -42 -86 -100 -113 -40 -18 -67 -21 -246 -24 -177 -3 -203 -2 -217
13 -15 14 -17 48 -17 286 0 256 1 270 20 289 18 18 33 20 195 20 199 0 219 -5
246 -65 l19 -40 -1 125 c0 120 -1 123 -15 89 -26 -63 -48 -69 -258 -69 -178 0
-186 1 -197 21 -16 31 -9 393 9 411 10 10 63 13 215 13 201 0 202 0 259 -28
44 -22 61 -36 77 -70 l21 -42 0 88 0 87 -427 0 c-380 -1 -424 -2 -395 -15z"/>
<path d="M9824 5757 c3 -10 6 -25 6 -32 0 -7 7 -16 16 -19 12 -5 14 -1 9 17
-4 12 -14 29 -22 37 -14 13 -15 13 -9 -3z"/>
<path d="M9764 5735 c4 -14 -4 -54 -19 -99 -14 -41 -25 -91 -25 -110 0 -33 2
-36 30 -36 59 0 81 79 55 195 -12 54 -21 75 -32 75 -11 0 -14 -6 -9 -25z"/>
<path d="M9840 5645 c0 -25 14 -34 24 -16 8 12 -3 41 -15 41 -5 0 -9 -11 -9
-25z"/>
<path d="M9695 5455 c-5 -2 -22 -6 -37 -9 -39 -9 -88 -54 -109 -101 -19 -40
-25 -139 -11 -161 9 -15 130 5 259 41 93 26 277 113 276 130 -2 32 -327 118
-378 100z"/>
<path d="M9060 5254 c0 -3 20 -29 46 -57 25 -28 67 -83 93 -123 49 -75 61 -82
61 -35 0 52 -22 103 -60 141 -50 50 -140 97 -140 74z"/>
<path d="M9380 5236 c-5 -15 -10 -30 -10 -33 0 -3 -27 -66 -60 -140 -51 -113
-110 -282 -110 -314 0 -5 6 -9 13 -9 9 0 22 30 35 78 45 170 107 284 182 340
l39 29 -39 38 -39 38 -11 -27z"/>
<path d="M9070 5159 c0 -12 5 -52 11 -88 14 -78 49 -121 98 -121 45 0 40 22
-29 128 -66 100 -80 114 -80 81z"/>
<path d="M9435 4951 c-48 -12 -93 -39 -106 -62 -11 -21 -10 -21 27 -14 22 4
89 15 151 24 61 9 115 19 118 23 19 19 -137 43 -190 29z"/>
<path d="M9430 4859 c-78 -14 -120 -29 -120 -43 0 -23 45 -56 76 -56 39 0 123
42 159 80 l29 30 -50 -1 c-27 -1 -69 -5 -94 -10z"/>
<path d="M3034 4447 c-2 -7 -3 -96 -2 -197 l3 -185 38 -3 37 -3 0 80 0 81 113
0 c164 0 213 31 204 129 -6 53 -38 89 -93 101 -63 15 -294 13 -300 -3z m297
-67 c13 -7 19 -21 19 -45 0 -47 -20 -55 -139 -55 l-101 0 0 55 0 55 101 0 c55
0 109 -5 120 -10z"/>
<path d="M3713 4448 c-15 -25 -183 -373 -183 -380 0 -5 18 -8 39 -8 37 0 40 3
58 45 l18 45 113 0 112 0 22 -45 c20 -42 25 -45 60 -45 21 0 38 2 38 5 0 3
-42 93 -94 200 l-94 195 -41 0 c-22 0 -43 -6 -48 -12z m123 -225 c-2 -2 -37
-3 -78 -1 l-74 3 39 85 40 85 39 -84 c21 -46 37 -86 34 -88z"/>
<path d="M4190 4259 l0 -200 38 3 37 3 3 78 3 77 59 0 59 0 58 -80 58 -80 48
0 48 0 -62 81 c-33 44 -59 81 -57 83 1 1 16 6 32 11 70 24 96 130 44 181 -34
35 -81 43 -235 44 l-133 0 0 -201z m298 122 c30 -16 30 -64 0 -85 -17 -12 -48
-16 -120 -16 l-98 0 0 61 0 62 98 -5 c53 -3 107 -10 120 -17z"/>
<path d="M4830 4260 l0 -201 38 3 37 3 0 195 0 195 -37 3 -38 3 0 -201z"/>
<path d="M5204 4446 c-40 -18 -74 -62 -74 -97 0 -36 42 -85 83 -98 18 -5 71
-15 120 -21 93 -13 133 -33 122 -62 -23 -59 -219 -53 -253 8 -8 14 -14 15 -46
3 -20 -7 -36 -17 -36 -22 0 -19 68 -73 107 -85 54 -16 186 -15 227 2 45 19 76
61 76 103 0 74 -37 98 -188 124 -102 17 -132 29 -132 55 0 60 204 59 238 -2
11 -19 61 -9 69 14 9 21 -46 68 -94 81 -53 15 -182 13 -219 -3z"/>
</g>
</svg>
