<?xml version="1.0" standalone="no"?>
<!DOCTYPE svg PUBLIC "-//W3C//DTD SVG 20010904//EN"
 "http://www.w3.org/TR/2001/REC-SVG-20010904/DTD/svg10.dtd">
<svg version="1.0" xmlns="http://www.w3.org/2000/svg"
 width="616.000000pt" height="616.000000pt" viewBox="0 0 616.000000 616.000000"
 preserveAspectRatio="xMidYMid meet">
<metadata>
Created by potrace 1.16, written by Peter Selinger 2001-2019
</metadata>
<g transform="translate(0.000000,616.000000) scale(0.100000,-0.100000)"
fill="#000000" stroke="none">
<path d="M0 3085 l0 -2095 3080 0 3080 0 0 2095 0 2095 -3080 0 -3080 0 0
-2095z m3240 1615 c201 -12 341 -32 520 -76 400 -99 723 -273 956 -516 97
-101 153 -181 209 -302 60 -126 76 -191 82 -338 6 -136 -2 -204 -39 -318 -153
-477 -725 -859 -1454 -970 -195 -30 -529 -37 -726 -16 -730 77 -1314 408
-1538 870 -67 138 -81 196 -87 361 -6 159 11 254 67 388 109 254 370 505 696
666 331 164 647 236 1134 259 14 1 95 -3 180 -8z m885 -2919 c0 -30 -17 -37
-38 -16 -23 22 -33 19 -50 -17 -32 -70 -31 -78 2 -78 43 0 42 -28 -1 -32 l-32
-3 -22 -106 c-25 -120 -33 -139 -70 -168 -30 -23 -64 -27 -82 -9 -31 31 5 63
38 33 18 -16 19 -15 34 14 9 17 23 68 31 113 9 46 18 93 20 106 4 17 1 22 -16
22 -18 0 -19 2 -9 15 7 8 18 15 25 15 7 0 16 16 19 35 4 19 22 51 41 70 29 31
39 36 72 33 33 -3 38 -6 38 -27z m793 1 c4 -29 -24 -41 -42 -17 -18 26 -42 13
-56 -30 -15 -45 -8 -65 25 -65 16 0 25 -6 25 -15 0 -10 -10 -15 -30 -15 -30 0
-30 0 -30 -57 0 -72 8 -103 26 -103 8 0 14 -4 14 -10 0 -6 -27 -10 -60 -10
-33 0 -60 2 -60 5 0 3 9 14 20 25 26 26 30 150 5 150 -8 0 -15 6 -15 14 0 8 7
16 15 20 9 3 15 18 15 37 0 22 10 41 35 66 29 29 40 34 72 31 31 -2 39 -7 41
-26z m-3865 7 c35 -9 37 -12 37 -49 0 -42 -23 -57 -33 -21 -6 25 -50 53 -71
45 -25 -10 -39 -41 -27 -63 6 -10 33 -33 61 -51 57 -36 90 -74 90 -101 0 -65
-61 -105 -147 -94 -57 7 -58 8 -68 68 -5 30 -3 37 10 37 8 0 20 -11 25 -24 21
-57 101 -72 119 -23 12 31 -2 52 -62 90 -67 43 -81 61 -81 102 0 36 25 72 59
86 27 11 44 11 88 -2z m-453 -7 c0 -4 -9 -13 -20 -20 -17 -10 -20 -23 -20 -92
0 -100 19 -153 62 -171 26 -10 35 -10 57 2 42 24 51 54 49 164 -3 95 -4 100
-25 103 -49 7 -20 22 42 22 63 0 86 -12 45 -23 -18 -5 -20 -14 -20 -94 -1
-169 -27 -213 -128 -213 -105 0 -132 42 -132 201 0 92 -2 101 -20 106 -41 11
-18 23 45 23 36 0 65 -3 65 -8z m948 -11 c107 -55 109 -236 2 -292 -28 -15
-57 -19 -142 -19 -99 0 -137 10 -88 23 19 5 20 14 20 140 0 127 -1 136 -20
142 -47 15 -13 25 85 25 84 0 113 -4 143 -19z m2899 -7 c44 -32 77 -105 69
-157 -8 -55 -37 -102 -78 -127 -28 -17 -51 -20 -140 -20 -99 0 -137 10 -88 23
19 5 20 14 20 140 0 127 -1 136 -20 142 -11 3 -20 11 -20 17 0 6 41 9 114 6
96 -2 119 -6 143 -24z m-1887 -59 c0 -22 4 -25 33 -25 38 0 48 -6 40 -26 -3
-8 -19 -14 -39 -14 l-34 0 0 -49 c0 -74 14 -103 47 -99 38 4 39 -17 2 -32 -27
-12 -36 -11 -58 1 -24 14 -26 20 -29 97 -2 64 -6 82 -17 82 -22 0 -18 17 13
56 32 40 42 43 42 9z m990 1 c0 -21 6 -25 33 -28 44 -4 44 -32 -1 -36 l-33 -3
3 -72 3 -72 33 2 c26 1 32 -3 30 -15 -5 -27 -63 -38 -93 -18 -23 15 -25 22
-25 96 0 64 -3 80 -15 80 -22 0 -18 18 13 55 32 40 52 44 52 11z m-1731 -52
c12 -15 21 -40 21 -55 l0 -29 -70 0 c-77 0 -86 -9 -50 -48 22 -24 59 -28 91
-12 16 9 19 7 19 -10 0 -27 -57 -52 -100 -44 -17 4 -42 20 -56 37 -23 27 -26
38 -22 86 6 70 37 101 103 101 35 0 48 -5 64 -26z m223 -1 c23 -22 28 -35 28
-76 0 -78 -59 -137 -125 -125 -22 5 -25 2 -25 -23 0 -38 9 -59 26 -59 8 0 14
-4 14 -10 0 -6 -27 -10 -60 -10 -33 0 -60 4 -60 10 0 6 6 10 14 10 20 0 29 67
25 175 -3 69 -7 88 -21 96 -42 24 -17 34 92 37 57 2 67 -1 92 -25z m196 14 c6
-7 12 -49 14 -92 3 -69 5 -80 21 -79 23 2 22 -23 -3 -36 -14 -8 -26 -8 -41 0
-16 9 -28 9 -50 -1 -39 -15 -76 0 -85 36 -8 33 17 61 68 77 35 10 39 14 36 42
-4 38 -38 43 -53 9 -10 -24 -39 -31 -50 -13 -4 6 7 24 24 40 23 23 38 30 69
30 22 0 44 -6 50 -13z m237 -12 c0 -16 -7 -20 -38 -20 -45 0 -57 -15 -57 -70
0 -54 10 -85 26 -85 8 0 14 -4 14 -10 0 -6 -27 -10 -60 -10 -33 0 -60 4 -60
10 0 6 6 10 14 10 19 0 26 22 26 80 0 58 -7 80 -26 80 -23 0 -16 28 9 33 12 2
51 3 87 3 58 -1 65 -3 65 -21z m368 13 c13 -7 23 -6 30 1 17 17 78 13 99 -6
14 -12 18 -31 18 -77 0 -75 8 -106 26 -106 8 0 14 -4 14 -10 0 -6 -27 -10 -60
-10 -33 0 -60 4 -60 10 0 6 7 10 15 10 19 0 30 63 19 108 -20 77 -77 68 -82
-13 -4 -61 4 -95 23 -95 8 0 15 -4 15 -10 0 -6 -27 -10 -60 -10 -33 0 -60 4
-60 10 0 6 7 10 15 10 34 0 28 131 -8 154 -30 19 -52 -4 -55 -59 -4 -61 4 -95
23 -95 8 0 15 -4 15 -10 0 -6 -27 -10 -60 -10 -57 0 -78 11 -45 24 11 4 15 23
15 81 0 60 -3 75 -15 75 -24 0 -17 28 8 32 48 8 152 6 170 -4z m346 -5 c12
-10 24 -35 28 -55 l6 -38 -72 0 c-76 0 -84 -7 -55 -48 17 -24 61 -30 95 -12
14 8 19 7 19 -3 0 -26 -40 -52 -82 -52 -33 0 -45 6 -69 33 -24 27 -29 41 -29
83 0 43 5 55 29 80 35 34 95 40 130 12z m121 7 c0 -7 6 -7 19 0 11 5 33 10 50
10 45 0 61 -30 61 -118 0 -65 2 -74 20 -79 40 -11 18 -23 -40 -23 -57 0 -78
11 -45 24 24 9 17 135 -7 150 -13 8 -23 8 -35 0 -25 -15 -32 -141 -8 -150 33
-13 12 -24 -45 -24 -58 0 -80 12 -40 23 18 5 20 14 20 76 0 61 -3 72 -21 82
-23 12 -16 24 16 32 35 8 55 7 55 -3z m572 -7 c21 -19 25 -91 7 -126 -32 -61
-83 -93 -124 -77 -57 22 -56 117 2 181 39 43 82 52 115 22z m808 7 c20 -11 45
-74 35 -90 -3 -5 -35 -10 -71 -10 -53 0 -64 -3 -64 -17 0 -43 64 -68 111 -43
25 14 26 -10 2 -33 -58 -52 -158 -11 -164 68 -4 50 3 76 27 104 21 25 33 31
66 31 21 0 48 -4 58 -10z m340 0 c20 -11 45 -74 35 -90 -3 -5 -37 -10 -75 -10
-62 0 -69 -2 -63 -17 17 -48 80 -72 111 -41 16 16 29 1 16 -20 -46 -73 -170
-35 -176 55 -4 57 3 81 28 107 29 28 87 36 124 16z m130 -1 c0 -8 4 -8 14 0 8
7 32 11 53 9 49 -4 63 -31 63 -121 0 -51 4 -69 15 -73 32 -13 13 -24 -40 -24
-53 0 -72 11 -40 24 11 4 15 21 15 64 0 68 -15 95 -51 90 -23 -3 -24 -7 -27
-76 -2 -58 0 -73 13 -78 33 -13 12 -24 -45 -24 -58 0 -80 12 -40 23 18 5 20
14 20 77 0 63 -2 72 -20 77 -29 8 -24 31 8 36 51 8 62 7 62 -4z m314 -5 c8
-21 8 -54 0 -54 -4 0 -17 11 -30 25 -14 15 -29 22 -38 19 -29 -11 -16 -39 32
-69 58 -37 67 -71 28 -110 -25 -25 -58 -31 -103 -19 -18 5 -23 14 -23 40 0 41
6 42 32 8 13 -16 28 -24 42 -22 36 5 25 39 -24 73 -80 56 -60 125 36 125 29 0
44 -5 48 -16z m181 10 c19 -8 45 -55 45 -84 0 -18 -6 -20 -70 -20 -75 0 -83
-7 -54 -48 17 -24 61 -30 95 -12 25 14 26 -10 2 -33 -41 -36 -101 -30 -142 14
-32 35 -29 117 5 158 20 25 34 31 64 31 21 0 46 -3 55 -6z m-4804 -170 c17
-21 0 -49 -32 -49 -18 0 -25 6 -27 24 -6 38 34 55 59 25z m337 7 c8 -4 12 -19
10 -32 -4 -29 -45 -34 -61 -7 -19 30 19 60 51 39z"/>
<path d="M2920 4630 c-731 -43 -1371 -375 -1599 -829 -63 -125 -83 -200 -88
-341 -4 -104 -2 -139 16 -213 117 -490 681 -885 1426 -998 171 -26 481 -36
651 -20 424 40 799 164 1089 359 247 167 405 359 483 584 30 89 36 119 40 223
6 153 -17 257 -88 400 -117 237 -332 434 -645 590 -370 185 -826 272 -1285
245z m875 -616 c385 -86 704 -160 710 -165 6 -6 -60 -148 -180 -389 l-190
-380 -1055 0 -1055 0 -190 380 c-104 208 -186 383 -181 387 8 9 1378 320 1416
322 14 1 340 -69 725 -155z m-1969 -568 l189 -386 1066 0 1065 0 193 393 192
392 20 -24 c16 -19 19 -39 19 -116 l0 -93 -202 -436 -203 -436 -3 125 -3 125
-429 0 c-237 0 -430 -3 -430 -7 1 -5 7 -19 15 -33 29 -51 33 -50 -235 -50
-137 0 -250 2 -250 5 0 3 7 22 15 42 8 19 15 37 15 39 0 2 -193 4 -430 4
l-429 0 -3 -125 -3 -124 -202 436 -203 436 0 91 c0 67 4 98 16 114 8 12 19 20
23 18 4 -3 92 -178 197 -390z m1004 -488 c-1 -7 -7 -24 -15 -38 -9 -16 -14
-55 -15 -107 l0 -83 -80 0 -80 0 0 85 0 85 -55 0 -55 0 0 -80 0 -80 -255 0
-255 0 0 115 0 115 405 0 c318 0 405 -3 405 -12z m1310 -103 l0 -115 -255 0
-255 0 0 80 0 80 -55 0 -55 0 0 -85 0 -85 -80 0 -80 0 0 79 c0 47 -6 93 -15
114 -8 20 -15 39 -15 42 0 3 182 5 405 5 l405 0 0 -115z m-1530 -30 c0 -52 -1
-55 -25 -55 -24 0 -25 3 -25 55 0 52 1 55 25 55 24 0 25 -3 25 -55z m280 -20
c0 -68 -2 -75 -20 -75 -18 0 -20 7 -20 75 0 68 2 75 20 75 18 0 20 -7 20 -75z
m60 0 c0 -68 -2 -75 -20 -75 -18 0 -20 7 -20 75 0 68 2 75 20 75 18 0 20 -7
20 -75z m60 0 c0 -68 -2 -75 -20 -75 -18 0 -20 7 -20 75 0 68 2 75 20 75 18 0
20 -7 20 -75z m60 0 c0 -68 -2 -75 -20 -75 -18 0 -20 7 -20 75 0 68 2 75 20
75 18 0 20 -7 20 -75z m60 0 c0 -68 -2 -75 -20 -75 -18 0 -20 7 -20 75 0 68 2
75 20 75 18 0 20 -7 20 -75z m60 0 c0 -68 -2 -75 -20 -75 -18 0 -20 7 -20 75
0 68 2 75 20 75 18 0 20 -7 20 -75z m60 0 c0 -68 -2 -75 -20 -75 -18 0 -20 7
-20 75 0 68 2 75 20 75 18 0 20 -7 20 -75z m60 0 c0 -68 -2 -75 -20 -75 -18 0
-20 7 -20 75 0 68 2 75 20 75 18 0 20 -7 20 -75z m290 20 c0 -52 -1 -55 -25
-55 -24 0 -25 3 -25 55 0 52 1 55 25 55 24 0 25 -3 25 -55z m-270 -140 l0 -25
-250 0 -250 0 0 25 0 25 250 0 250 0 0 -25z"/>
<path d="M3040 4131 c-16 -5 -3 -7 40 -7 43 0 56 2 40 7 -14 4 -32 7 -40 7 -8
0 -26 -3 -40 -7z"/>
<path d="M2988 4113 c7 -3 16 -2 19 1 4 3 -2 6 -13 5 -11 0 -14 -3 -6 -6z"/>
<path d="M3158 4113 c7 -3 16 -2 19 1 4 3 -2 6 -13 5 -11 0 -14 -3 -6 -6z"/>
<path d="M2948 4103 c7 -3 16 -2 19 1 4 3 -2 6 -13 5 -11 0 -14 -3 -6 -6z"/>
<path d="M3198 4103 c7 -3 16 -2 19 1 4 3 -2 6 -13 5 -11 0 -14 -3 -6 -6z"/>
<path d="M2908 4093 c7 -3 16 -2 19 1 4 3 -2 6 -13 5 -11 0 -14 -3 -6 -6z"/>
<path d="M3238 4093 c7 -3 16 -2 19 1 4 3 -2 6 -13 5 -11 0 -14 -3 -6 -6z"/>
<path d="M2841 4081 c-20 -5 -3 -16 107 -68 l132 -62 132 62 c110 52 127 63
107 68 -13 4 -31 7 -39 8 -12 1 -13 -1 -1 -8 11 -7 10 -11 -7 -20 -17 -9 -40
-7 -107 10 l-85 21 -85 -21 c-67 -17 -90 -19 -107 -10 -17 9 -18 13 -7 20 12
7 11 9 -1 8 -8 -1 -26 -4 -39 -8z m307 -22 c60 -15 70 -24 42 -39 -17 -9 -33
-9 -66 -1 -32 8 -56 8 -88 0 -33 -8 -49 -8 -66 1 -27 14 -20 22 33 37 56 15
89 15 145 2z m-32 -49 c23 0 16 -20 -11 -30 -25 -10 -75 4 -75 21 0 9 39 18
58 13 8 -2 20 -4 28 -4z"/>
<path d="M2393 3976 c-167 -40 -305 -74 -307 -77 -3 -3 63 -35 147 -72 l152
-67 303 83 303 83 -126 62 c-70 34 -136 62 -148 61 -12 0 -158 -33 -324 -73z
m345 58 c12 -4 22 -10 22 -14 0 -4 -129 -40 -288 -79 -244 -61 -292 -71 -316
-61 -16 6 -26 13 -23 16 5 5 552 142 572 143 6 0 20 -2 33 -5z m92 -44 c11 -7
12 -12 3 -17 -6 -5 -135 -39 -285 -77 -244 -61 -276 -67 -303 -56 -38 16 -55
9 260 91 269 70 300 75 325 59z m85 -43 c10 -8 14 -16 9 -19 -5 -3 -129 -38
-275 -77 -263 -72 -266 -72 -304 -57 -21 9 -35 19 -31 23 9 10 525 141 557
142 14 1 33 -5 44 -12z"/>
<path d="M3293 3987 l-122 -62 304 -83 304 -82 150 67 c83 37 145 71 138 74
-18 10 -614 149 -634 148 -10 0 -73 -28 -140 -62z m446 -17 c156 -38 286 -71
288 -74 3 -3 -7 -10 -23 -16 -24 -10 -72 0 -318 61 -253 63 -287 74 -271 86
11 7 24 13 29 13 6 0 139 -31 295 -70z m-80 -40 c151 -39 277 -72 279 -75 3
-2 -8 -10 -23 -17 -23 -11 -60 -4 -302 58 -151 38 -280 72 -286 77 -15 9 9 27
38 27 11 0 143 -32 294 -70z m-96 -36 c144 -36 269 -70 277 -74 11 -7 6 -13
-24 -25 -39 -16 -40 -16 -305 56 -146 39 -270 74 -275 77 -13 7 24 32 47 32
10 0 137 -30 280 -66z"/>
<path d="M2763 3810 c-160 -48 -300 -90 -309 -94 -14 -6 6 -31 106 -131 l125
-125 395 0 395 0 124 124 c68 68 119 126 115 129 -20 11 -623 187 -640 186
-11 -1 -150 -41 -311 -89z m623 -16 c159 -47 290 -87 291 -88 1 -1 -28 -32
-65 -69 l-67 -66 -195 58 c-169 51 -197 57 -211 45 -20 -18 -98 -18 -118 0
-14 11 -44 5 -211 -45 l-195 -58 -68 67 -68 68 288 87 c158 47 297 86 309 86
11 1 150 -38 310 -85z"/>
<path d="M1843 3847 l-132 -30 36 -66 c20 -36 37 -67 38 -68 1 -2 107 11 236
27 129 16 239 30 244 30 9 0 -94 49 -240 114 l-50 23 -132 -30z m152 3 c36
-14 24 -27 -40 -41 -30 -7 -55 -13 -55 -15 0 -2 9 -18 20 -37 l21 -35 -23 -6
c-13 -3 -39 -6 -60 -6 -33 0 -39 4 -62 47 -15 25 -24 48 -21 51 2 3 46 15 97
28 51 12 94 23 95 23 1 1 14 -3 28 -9z m90 -42 c14 -6 25 -14 25 -17 0 -10
-124 -40 -132 -33 -20 21 -10 36 32 48 25 6 46 12 47 13 1 1 14 -4 28 -11z
m99 -47 c7 -10 -31 -18 -124 -26 -68 -5 -65 0 10 21 54 15 107 17 114 5z"/>
<path d="M4035 3809 c-83 -38 -145 -69 -140 -69 6 0 115 -14 244 -30 129 -16
235 -29 236 -27 1 1 18 32 38 68 l36 66 -77 17 c-42 9 -102 23 -132 30 l-55
13 -150 -68z m251 26 c45 -10 87 -21 93 -24 8 -5 4 -22 -15 -54 -23 -43 -29
-47 -62 -47 -21 0 -47 3 -60 6 l-23 6 21 35 c11 19 20 35 20 37 0 2 -25 9 -55
16 -31 7 -58 17 -61 22 -6 9 35 28 51 24 6 -2 47 -11 91 -21z m-132 -31 c41
-7 53 -19 37 -38 -9 -11 -23 -11 -76 2 -36 9 -65 19 -65 22 0 10 43 29 57 25
6 -2 28 -7 47 -11z m-34 -58 l45 -16 -65 6 c-96 7 -131 15 -124 26 8 13 83 4
144 -16z"/>
<path d="M2081 3664 c-140 -18 -256 -36 -258 -38 -3 -2 25 -61 62 -130 l67
-126 36 5 c21 3 163 19 316 35 154 17 281 31 283 33 6 7 -229 257 -241 256 -6
-1 -125 -16 -265 -35z m356 -90 c54 -58 100 -109 101 -115 3 -8 -12 -10 -96
-13 -12 -1 -53 39 -110 106 -51 59 -92 109 -92 112 0 3 19 7 43 9 23 2 45 4
49 5 3 1 51 -45 105 -104z m-168 -23 c45 -58 81 -108 81 -111 0 -8 -127 -23
-138 -16 -5 3 -41 52 -80 110 l-73 105 33 5 c64 11 83 13 90 12 3 -1 43 -48
87 -105z m-196 -27 c37 -59 66 -108 64 -110 -2 -3 -35 -5 -72 -7 l-69 -2 -58
100 c-31 55 -58 103 -58 107 0 7 37 14 90 16 34 2 37 -1 103 -104z"/>
<path d="M3687 3574 c-65 -70 -116 -129 -114 -131 2 -2 129 -16 283 -33 153
-16 296 -32 316 -35 l36 -5 67 126 c37 69 65 127 63 130 -3 2 -110 18 -239 34
-129 16 -248 32 -265 35 -29 5 -38 -3 -147 -121z m231 90 c2 -1 -38 -51 -89
-111 -58 -68 -99 -108 -111 -107 -84 3 -99 5 -96 13 2 6 47 57 100 114 l97
105 48 -6 c26 -2 50 -6 51 -8z m164 -23 c13 -5 3 -25 -59 -114 l-75 -108 -66
7 c-37 3 -69 8 -71 10 -2 2 33 53 79 112 l82 109 47 -5 c25 -3 53 -8 63 -11z
m196 -25 c2 -3 -22 -51 -55 -108 l-59 -103 -69 2 c-37 2 -70 4 -72 6 -2 3 27
53 64 111 l68 107 59 -5 c33 -3 61 -8 64 -10z"/>
<path d="M2685 3283 c-15 -65 -30 -126 -33 -135 -4 -17 21 -18 428 -18 407 0
432 1 428 18 -3 9 -18 70 -33 135 l-29 117 -366 0 -366 0 -29 -117z m755 67
c0 -20 -7 -20 -360 -20 -293 0 -360 2 -360 13 0 8 3 17 7 20 3 4 165 7 360 7
346 0 353 0 353 -20z m14 -56 c17 -45 29 -44 -374 -44 -209 0 -380 3 -380 8 0
4 3 17 6 30 l6 22 368 0 c326 0 369 -2 374 -16z m27 -106 l7 -28 -404 0 -404
0 0 23 c0 13 3 27 7 30 4 4 182 6 397 5 l390 -3 7 -27z"/>
<path d="M2295 3340 c-159 -27 -291 -49 -293 -49 -2 -1 16 -37 39 -81 l43 -80
237 0 237 0 27 88 c15 48 34 106 41 130 l13 42 -27 -1 c-15 -1 -157 -23 -317
-49z m313 13 c-2 -12 -14 -19 -38 -21 -50 -5 -63 -22 -17 -22 39 0 40 -2 31
-37 -6 -22 -10 -23 -133 -23 l-127 0 -18 31 c-10 17 -16 33 -13 35 5 5 263 50
300 53 12 1 17 -5 15 -16z m-366 -88 l27 -45 150 0 150 0 -10 -30 -11 -30
-207 0 -207 0 -32 56 c-18 31 -32 59 -32 64 0 4 30 12 68 17 37 6 69 11 72 11
3 1 17 -19 32 -43z"/>
<path d="M3546 3313 c13 -43 31 -102 40 -130 l15 -53 237 0 237 0 43 77 c23
42 40 79 37 81 -6 6 -587 102 -617 102 -15 0 -14 -8 8 -77z m168 32 c81 -13
150 -26 153 -29 3 -2 -3 -18 -13 -35 l-18 -31 -127 0 c-123 0 -127 1 -133 23
-9 35 -8 37 31 37 46 0 33 17 -17 22 -24 2 -36 9 -38 21 -4 21 -17 21 162 -8z
m376 -66 c0 -4 -14 -32 -32 -63 l-32 -56 -207 0 -207 0 -11 30 -10 30 149 0
149 0 30 43 29 43 71 -9 c39 -6 71 -13 71 -18z"/>
<path d="M2080 2855 c0 -33 4 -45 15 -45 11 0 15 12 15 45 0 33 -4 45 -15 45
-11 0 -15 -12 -15 -45z"/>
<path d="M2170 2855 c0 -33 4 -45 15 -45 11 0 15 12 15 45 0 33 -4 45 -15 45
-11 0 -15 -12 -15 -45z"/>
<path d="M2260 2855 c0 -38 3 -45 20 -45 17 0 20 7 20 45 0 38 -3 45 -20 45
-17 0 -20 -7 -20 -45z"/>
<path d="M2350 2855 c0 -33 4 -45 15 -45 11 0 15 12 15 45 0 33 -4 45 -15 45
-11 0 -15 -12 -15 -45z"/>
<path d="M2440 2855 c0 -33 4 -45 15 -45 11 0 15 12 15 45 0 33 -4 45 -15 45
-11 0 -15 -12 -15 -45z"/>
<path d="M2700 2855 c0 -38 3 -45 20 -45 17 0 20 7 20 45 0 38 -3 45 -20 45
-17 0 -20 -7 -20 -45z"/>
<path d="M3420 2855 c0 -38 3 -45 20 -45 17 0 20 7 20 45 0 38 -3 45 -20 45
-17 0 -20 -7 -20 -45z"/>
<path d="M3690 2855 c0 -33 4 -45 15 -45 11 0 15 12 15 45 0 33 -4 45 -15 45
-11 0 -15 -12 -15 -45z"/>
<path d="M3780 2855 c0 -33 4 -45 15 -45 11 0 15 12 15 45 0 33 -4 45 -15 45
-11 0 -15 -12 -15 -45z"/>
<path d="M3870 2855 c0 -33 4 -45 15 -45 11 0 15 12 15 45 0 33 -4 45 -15 45
-11 0 -15 -12 -15 -45z"/>
<path d="M3960 2855 c0 -33 4 -45 15 -45 11 0 15 12 15 45 0 33 -4 45 -15 45
-11 0 -15 -12 -15 -45z"/>
<path d="M4050 2855 c0 -33 4 -45 15 -45 11 0 15 12 15 45 0 33 -4 45 -15 45
-11 0 -15 -12 -15 -45z"/>
<path d="M1404 1747 c-2 -7 -3 -67 -2 -133 l3 -119 47 -3 c40 -3 51 1 79 26
30 26 33 36 36 93 6 100 -34 149 -123 149 -19 0 -37 -6 -40 -13z"/>
<path d="M4287 1753 c-9 -8 -9 -226 -1 -247 4 -12 20 -16 56 -16 63 0 101 34
112 98 15 96 -37 172 -118 172 -24 0 -46 -3 -49 -7z"/>
<path d="M1710 1631 c-15 -30 -14 -31 35 -31 25 0 45 3 45 6 0 20 -24 44 -45
44 -14 0 -29 -8 -35 -19z"/>
<path d="M1932 1638 c-13 -13 -16 -116 -4 -134 29 -43 92 -1 92 61 0 25 -8 44
-25 60 -27 28 -45 31 -63 13z"/>
<path d="M2160 1532 c-19 -15 -20 -19 -7 -30 21 -18 47 -4 47 24 0 29 -10 30
-40 6z"/>
<path d="M3090 1631 c-15 -30 -14 -31 35 -31 48 0 52 5 31 33 -18 23 -53 22
-66 -2z"/>
<path d="M3801 1624 c-39 -49 -39 -134 -1 -134 33 0 66 92 49 136 -11 31 -23
30 -48 -2z"/>
<path d="M4602 1638 c-25 -25 -13 -38 34 -38 46 0 46 0 32 23 -18 26 -48 33
-66 15z"/>
<path d="M4942 1638 c-25 -25 -13 -38 34 -38 46 0 46 0 32 23 -18 26 -48 33
-66 15z"/>
<path d="M5572 1638 c-25 -25 -13 -38 34 -38 46 0 46 0 32 23 -18 26 -48 33
-66 15z"/>
</g>
</svg>
