<?xml version="1.0" standalone="no"?>
<!DOCTYPE svg PUBLIC "-//W3C//DTD SVG 20010904//EN"
 "http://www.w3.org/TR/2001/REC-SVG-20010904/DTD/svg10.dtd">
<svg version="1.0" xmlns="http://www.w3.org/2000/svg"
 width="1024.000000pt" height="1024.000000pt" viewBox="0 0 1024.000000 1024.000000"
 preserveAspectRatio="xMidYMid meet">
<metadata>
Created by potrace 1.16, written by Peter Selinger 2001-2019
</metadata>
<g transform="translate(0.000000,1024.000000) scale(0.100000,-0.100000)"
fill="#000000" stroke="none">
<path d="M7515 9200 c-225 -239 -2227 -2386 -2525 -2707 l-345 -372 -1235 -1
c-679 0 -1724 -3 -2322 -7 l-1088 -6 0 -128 0 -128 183 0 c175 0 613 -10 1407
-31 377 -10 1208 -31 2000 -50 234 -6 489 -13 568 -16 l142 -6 -148 -157
c-385 -404 -865 -927 -1396 -1520 -57 -63 499 435 1204 1079 124 113 320 292
437 398 l211 192 159 0 c87 0 277 -5 423 -10 146 -5 442 -12 658 -16 216 -4
395 -11 398 -15 4 -7 -233 -1280 -239 -1285 -3 -3 -1468 -831 -3165 -1788
-900 -508 -1907 -1077 -2237 -1264 l-600 -340 -3 -36 c-2 -20 -1 -36 2 -36 2
0 164 84 358 186 329 174 1373 719 2808 1466 1474 768 2749 1423 2756 1415 3
-2 -36 -215 -85 -473 -50 -258 -133 -692 -185 -964 -140 -728 -237 -1253 -233
-1263 1 -4 32 99 69 230 37 131 117 416 178 633 140 496 363 1304 466 1687
l78 293 845 423 c780 390 1078 536 1876 920 338 162 857 410 1110 529 l178 83
-1737 3 c-1552 2 -1736 4 -1736 17 0 32 361 1365 652 2410 180 644 199 717
196 730 -2 6 -39 -28 -83 -75z m-1039 -2340 c-69 -360 -129 -673 -133 -695
l-9 -40 -643 -3 c-512 -2 -642 0 -639 10 2 7 236 224 519 482 833 759 1024
929 1027 914 1 -7 -54 -308 -122 -668z m984 -1185 c349 -9 658 -19 687 -23
l52 -7 -197 -109 c-108 -60 -527 -295 -930 -523 -403 -227 -736 -413 -741
-413 -4 0 14 80 41 178 27 97 91 337 143 532 53 195 97 361 100 368 6 16 69
16 845 -3z"/>
</g>
</svg>
