<?xml version="1.0" standalone="no"?>
<!DOCTYPE svg PUBLIC "-//W3C//DTD SVG 20010904//EN"
 "http://www.w3.org/TR/2001/REC-SVG-20010904/DTD/svg10.dtd">
<svg version="1.0" xmlns="http://www.w3.org/2000/svg"
 width="466.000000pt" height="466.000000pt" viewBox="0 0 466.000000 466.000000"
 preserveAspectRatio="xMidYMid meet">
<metadata>
Created by potrace 1.16, written by Peter Selinger 2001-2019
</metadata>
<g transform="translate(0.000000,466.000000) scale(0.100000,-0.100000)"
fill="#000000" stroke="none">
<path d="M650 2756 l-85 -64 -30 17 c-22 12 -56 16 -135 16 -96 0 -110 -2
-163 -30 -76 -38 -149 -118 -177 -193 -18 -47 -21 -73 -18 -147 3 -82 7 -97
41 -159 l37 -67 -26 -72 c-16 -45 -27 -96 -27 -134 -2 -52 2 -65 22 -87 31
-33 70 -33 136 -2 53 25 145 100 145 118 0 6 -8 4 -17 -4 -59 -51 -158 -74
-184 -41 -17 19 -17 84 0 135 l12 36 61 -31 c55 -29 70 -32 152 -32 103 0 144
12 215 60 29 20 52 30 58 24 5 -5 81 -5 188 1 99 5 238 10 309 10 71 0 127 2
125 4 -2 2 -60 9 -129 15 -149 14 -266 34 -357 62 -38 12 -69 22 -70 23 -2 2
4 24 13 50 12 34 15 71 12 129 -3 69 -10 92 -37 145 -19 34 -53 80 -76 101
l-42 39 71 71 c39 39 69 71 66 71 -3 0 -43 -29 -90 -64z m-193 -66 c26 -6 53
-14 60 -18 8 -5 -17 -38 -77 -99 -95 -98 -181 -208 -252 -323 -24 -38 -46 -70
-50 -70 -3 0 -15 19 -27 43 -65 134 -43 273 60 376 50 50 79 66 151 85 66 18
75 18 135 6z m179 -103 c28 -30 57 -75 67 -103 30 -84 17 -244 -20 -244 -8 0
-42 18 -75 40 l-59 39 45 -84 45 -85 -37 -30 c-93 -77 -245 -92 -350 -35 -29
15 -52 33 -52 38 0 19 90 171 153 259 83 116 205 258 222 258 7 0 35 -24 61
-53z"/>
<path d="M1266 2451 c-75 -99 -136 -182 -136 -185 0 -3 106 -6 235 -6 266 0
270 1 328 72 40 50 48 70 37 88 -6 9 3 19 31 33 40 19 109 102 109 130 0 9 -7
23 -16 31 -13 14 -49 16 -234 16 l-218 0 -136 -179z m374 87 c0 -6 -10 -22
-22 -35 -17 -18 -32 -23 -70 -23 -26 0 -48 2 -48 5 0 3 10 19 22 35 19 26 28
30 70 30 30 0 48 -4 48 -12z m-113 -144 c2 -6 -6 -23 -17 -37 -19 -23 -29 -27
-76 -27 l-55 0 28 40 c26 38 31 40 72 38 25 -2 46 -8 48 -14z"/>
<path d="M2055 2616 c-16 -8 -44 -29 -61 -47 -45 -49 -194 -249 -194 -260 0
-6 5 -19 10 -30 10 -18 23 -19 216 -19 161 0 211 3 234 15 30 16 82 74 178
202 66 86 77 124 43 143 -30 16 -389 12 -426 -4z m214 -65 c12 -8 0 -29 -59
-108 -40 -54 -78 -101 -84 -105 -20 -14 -96 -9 -96 5 0 19 138 201 158 209 25
10 65 9 81 -1z"/>
<path d="M2538 2447 l-137 -182 202 -3 202 -2 27 32 27 33 -100 3 c-54 1 -99
5 -99 8 0 3 12 21 26 40 l26 34 103 0 104 0 25 33 26 32 -101 5 -101 5 23 30
c35 45 36 45 143 44 97 -2 98 -1 122 27 13 16 23 32 24 37 0 4 -91 7 -202 7
l-203 0 -137 -183z"/>
<path d="M3114 2503 c-54 -71 -117 -154 -141 -185 l-44 -58 103 0 103 1 120
160 c66 89 128 172 138 185 l19 24 -100 0 -101 0 -97 -127z"/>
<path d="M3503 2568 c-28 -35 -91 -118 -142 -186 l-92 -123 68 3 68 3 65 87
c36 48 68 87 71 87 3 1 15 -38 25 -86 l19 -88 85 -2 85 -3 110 147 c61 80 123
163 138 184 l29 39 -66 0 -66 0 -71 -95 c-39 -52 -73 -95 -74 -95 -2 0 -13 43
-26 95 l-21 95 -78 0 -78 0 -49 -62z"/>
<path d="M4170 2608 c-34 -18 -66 -50 -133 -138 -107 -140 -117 -158 -106
-187 8 -23 10 -23 215 -23 236 0 252 4 306 76 24 31 40 43 59 44 22 0 69 44
69 65 0 3 -55 5 -122 5 l-123 0 -22 -33 c-49 -71 -71 -87 -118 -87 -27 0 -45
5 -45 11 0 16 128 186 153 204 41 29 118 12 88 -18 -23 -23 -9 -27 87 -27 97
0 98 0 120 30 24 32 28 70 10 88 -8 8 -68 12 -203 12 -178 0 -194 -2 -235 -22z"/>
</g>
</svg>
