<?xml version="1.0" standalone="no"?>
<!DOCTYPE svg PUBLIC "-//W3C//DTD SVG 20010904//EN"
 "http://www.w3.org/TR/2001/REC-SVG-20010904/DTD/svg10.dtd">
<svg version="1.0" xmlns="http://www.w3.org/2000/svg"
 width="1024.000000pt" height="1024.000000pt" viewBox="0 0 1024.000000 1024.000000"
 preserveAspectRatio="xMidYMid meet">
<metadata>
Created by potrace 1.16, written by Peter Selinger 2001-2019
</metadata>
<g transform="translate(0.000000,1024.000000) scale(0.100000,-0.100000)"
fill="#000000" stroke="none">
<path d="M4848 8344 c-707 -96 -1314 -556 -1594 -1207 -176 -412 -212 -887
-98 -1323 172 -664 685 -1206 1338 -1413 349 -111 676 -129 1041 -56 737 147
1350 725 1544 1456 53 200 65 293 65 529 0 232 -11 328 -60 515 -208 802 -877
1391 -1704 1500 -137 18 -397 18 -532 -1z m552 -319 c698 -123 1242 -641 1393
-1326 66 -299 52 -607 -43 -901 -39 -119 -143 -330 -214 -432 -280 -402 -689
-658 -1171 -732 -120 -18 -370 -18 -498 1 -555 83 -1037 436 -1287 942 -91
186 -141 359 -166 582 -59 514 136 1041 522 1411 288 276 654 440 1054 474 82
7 327 -4 410 -19z"/>
<path d="M4030 6955 l0 -465 310 0 310 0 0 -155 0 -155 -310 0 -310 0 0 -470
0 -470 508 0 507 0 0 152 0 153 -350 5 -350 5 -3 153 -3 152 316 0 315 0 0
470 0 470 -315 0 -315 0 0 155 0 155 351 2 350 3 2 153 2 152 -507 0 -508 0 0
-465z"/>
<path d="M5200 7265 l0 -155 350 0 350 0 0 -155 0 -155 -310 0 -310 0 0 -470
0 -470 310 0 310 0 0 -155 0 -155 -350 0 -350 0 0 -155 0 -155 510 0 510 0 -2
468 -3 467 -312 3 -313 2 0 155 0 155 315 0 315 0 0 465 0 465 -510 0 -510 0
0 -155z"/>
<path d="M2527 3484 c-4 -4 -7 -369 -7 -811 l0 -803 163 2 162 3 0 805 0 805
-156 3 c-85 1 -158 -1 -162 -4z"/>
<path d="M4740 2680 l0 -810 471 0 c470 0 563 5 664 37 172 54 272 166 298
333 13 85 -1 205 -32 275 -25 56 -103 141 -155 167 l-39 20 50 43 c61 54 93
121 104 224 31 272 -123 465 -403 507 -68 10 -207 14 -525 14 l-433 0 0 -810z
m955 491 c104 -43 136 -187 59 -265 -50 -49 -100 -56 -416 -56 l-288 0 0 171
0 171 308 -4 c217 -3 316 -8 337 -17z m74 -656 c75 -41 105 -96 98 -179 -8
-91 -53 -138 -146 -156 -29 -5 -193 -10 -362 -10 l-309 0 0 191 0 190 333 -3
332 -3 54 -30z"/>
<path d="M7165 3483 c-351 -30 -538 -128 -677 -355 -36 -58 -75 -152 -98 -233
-18 -64 -24 -261 -11 -357 43 -323 239 -557 526 -627 127 -31 255 -41 545 -41
l270 0 0 155 0 155 -262 1 c-299 0 -324 2 -430 31 -96 25 -180 73 -236 136
-81 90 -112 184 -112 345 0 117 19 193 64 266 34 54 116 124 182 155 110 52
155 58 487 63 l308 5 -3 151 -3 152 -255 1 c-140 0 -273 -1 -295 -3z"/>
<path d="M3744 3455 c-177 -32 -292 -86 -398 -185 -188 -177 -267 -410 -237
-696 21 -203 91 -348 229 -475 89 -82 199 -141 330 -177 94 -25 108 -26 430
-30 l332 -3 0 149 0 150 -282 5 c-316 5 -374 14 -496 72 -163 77 -242 217
-242 428 0 228 106 371 325 440 91 29 191 37 444 37 l251 0 0 150 0 150 -307
-1 c-203 0 -332 -5 -379 -14z"/>
</g>
</svg>
