<?xml version="1.0" standalone="no"?>
<!DOCTYPE svg PUBLIC "-//W3C//DTD SVG 20010904//EN"
 "http://www.w3.org/TR/2001/REC-SVG-20010904/DTD/svg10.dtd">
<svg version="1.0" xmlns="http://www.w3.org/2000/svg"
 width="612.000000pt" height="612.000000pt" viewBox="0 0 612.000000 612.000000"
 preserveAspectRatio="xMidYMid meet">
<metadata>
Created by potrace 1.16, written by Peter Selinger 2001-2019
</metadata>
<g transform="translate(0.000000,612.000000) scale(0.100000,-0.100000)"
fill="#000000" stroke="none">
<path d="M3017 5511 c-48 -62 -110 -197 -132 -286 -13 -51 -18 -107 -17 -205
1 -124 23 -786 38 -1145 17 -401 -62 -817 -224 -1185 -33 -77 -155 -316 -186
-367 -6 -9 -195 51 -221 69 -126 90 -152 252 -59 374 43 55 104 86 184 92 68
5 69 5 64 31 -2 14 -38 305 -79 646 -69 569 -78 629 -111 730 -42 133 -120
292 -205 417 -91 133 -285 325 -422 416 -59 40 -112 72 -118 72 -5 0 -9 -697
-9 -1860 l0 -1860 429 0 428 0 7 -40 c22 -136 128 -380 227 -520 69 -98 206
-239 296 -306 39 -29 91 -78 114 -109 l41 -55 31 46 c17 25 57 67 91 93 103
79 253 231 317 320 104 146 213 391 235 529 l7 42 428 0 429 0 0 1860 c0 1023
-4 1860 -8 1860 -5 0 -38 -19 -73 -41 -229 -148 -425 -356 -557 -589 -40 -72
-116 -260 -136 -335 -8 -33 -49 -337 -90 -675 -42 -338 -78 -627 -80 -641 -5
-26 -4 -26 64 -31 50 -4 81 -12 114 -32 160 -94 168 -325 15 -432 -29 -20
-221 -81 -224 -71 0 1 -13 25 -28 52 -186 339 -283 599 -341 915 -41 224 -49
393 -37 729 31 806 38 1060 30 1123 -9 76 -32 159 -61 226 -24 54 -115 192
-126 192 -4 0 -25 -22 -45 -49z m-1175 -958 c73 -101 127 -204 173 -328 35
-94 40 -123 101 -610 35 -280 64 -519 64 -531 0 -14 -16 -31 -49 -53 -70 -45
-138 -124 -177 -206 -19 -38 -34 -75 -34 -83 0 -10 -18 -12 -72 -10 l-73 3 -3
953 c-1 524 1 951 6 948 4 -2 33 -40 64 -83z m2503 -1810 c-6 -18 -145 -18
-145 0 0 7 -15 44 -34 82 -39 82 -107 161 -177 206 -28 19 -49 40 -49 50 0 10
29 248 64 531 66 524 73 559 135 701 31 71 97 183 155 262 l51 69 3 -944 c1
-520 0 -951 -3 -957z m-1241 104 c47 -149 117 -314 196 -464 33 -62 60 -115
60 -118 0 -3 -6 -5 -14 -5 -33 0 -179 -85 -230 -133 l-56 -53 -56 53 c-51 48
-197 133 -230 133 -8 0 -14 2 -14 5 0 3 27 56 60 118 79 150 149 315 196 464
22 68 41 123 44 123 3 0 22 -55 44 -123z m-1172 -415 c25 -70 87 -161 144
-211 63 -55 141 -95 238 -120 43 -10 80 -21 82 -24 2 -2 -2 -33 -11 -68 -8
-35 -20 -119 -26 -187 l-12 -123 -286 3 -286 3 -3 388 -2 387 73 0 72 0 17
-48z m2416 -339 l-3 -388 -286 -3 -287 -3 -7 93 c-3 51 -15 136 -25 188 -11
52 -18 96 -15 98 2 2 38 13 81 23 169 44 295 142 359 283 19 41 35 79 35 85 0
7 29 11 75 11 l75 0 -2 -387z m-1625 -89 c98 -33 192 -150 204 -255 l6 -49
-162 0 -161 0 0 43 c1 95 36 277 54 277 7 0 33 -7 59 -16z m756 -36 c20 -97
31 -173 31 -220 l0 -48 -160 0 -160 0 0 30 c0 105 111 248 218 280 54 17 60
13 71 -42z m-549 -790 l0 -273 -35 40 c-56 64 -142 197 -175 269 -29 63 -80
209 -80 227 0 5 65 9 145 9 l145 0 0 -272z m550 263 c0 -21 -61 -193 -86 -243
-33 -66 -122 -200 -168 -253 l-35 -40 -1 273 0 272 145 0 c80 0 145 -4 145 -9z"/>
</g>
</svg>
