<?xml version="1.0" standalone="no"?>
<!DOCTYPE svg PUBLIC "-//W3C//DTD SVG 20010904//EN"
 "http://www.w3.org/TR/2001/REC-SVG-20010904/DTD/svg10.dtd">
<svg version="1.0" xmlns="http://www.w3.org/2000/svg"
 width="1024.000000pt" height="1024.000000pt" viewBox="0 0 1024.000000 1024.000000"
 preserveAspectRatio="xMidYMid meet">
<metadata>
Created by potrace 1.16, written by Peter Selinger 2001-2019
</metadata>
<g transform="translate(0.000000,1024.000000) scale(0.100000,-0.100000)"
fill="#000000" stroke="none">
<path d="M2189 6245 c-117 -22 -266 -79 -341 -131 -37 -25 -101 -81 -142 -124
-72 -77 -79 -89 -327 -580 -242 -479 -255 -501 -279 -497 -14 2 -68 12 -120
22 -242 44 -483 -21 -617 -167 -83 -91 -97 -153 -47 -215 45 -56 101 -90 174
-109 163 -41 485 22 652 128 54 34 42 37 180 -53 l93 -60 60 7 c74 8 112 27
195 98 36 31 67 56 70 56 3 0 20 -27 38 -60 38 -70 65 -91 127 -97 54 -7 151
35 212 91 22 20 43 36 47 36 3 0 6 -16 6 -36 0 -53 44 -94 102 -94 56 0 108
31 276 164 124 98 152 117 152 99 0 -3 -23 -49 -51 -101 -27 -52 -49 -104 -47
-116 3 -20 7 -21 117 -18 94 2 117 6 127 20 8 9 54 97 104 194 70 136 102 186
136 218 47 43 150 97 162 85 4 -3 -51 -118 -121 -254 -112 -218 -125 -250
-112 -261 12 -10 43 -11 122 -7 96 6 109 8 125 29 9 13 58 103 108 200 100
193 111 206 222 258 65 31 88 36 88 21 0 -5 -38 -89 -85 -186 -69 -144 -85
-186 -85 -224 0 -55 20 -88 66 -107 87 -37 213 8 391 138 69 50 80 49 89 -8 8
-55 43 -100 99 -125 57 -26 196 -26 271 0 119 42 245 161 340 321 42 70 45 72
37 35 -14 -72 -8 -177 14 -225 23 -54 75 -108 120 -126 43 -19 169 -18 224 1
58 20 127 76 184 150 48 62 125 209 145 280 16 55 109 125 166 125 59 0 114
-11 114 -23 0 -6 -38 -47 -84 -92 -179 -176 -205 -351 -66 -448 67 -47 186 -7
359 123 52 39 99 69 105 67 5 -2 16 -21 23 -43 17 -52 68 -113 109 -130 40
-17 100 -18 143 -3 18 6 34 9 36 7 6 -6 -58 -165 -101 -250 -38 -76 -68 -98
-134 -98 -42 0 -90 19 -125 50 -29 25 -62 31 -77 13 -32 -39 90 -177 185 -209
108 -36 202 -12 285 75 45 47 140 214 279 492 29 57 62 108 83 126 63 54 250
193 260 193 21 0 7 -35 -80 -205 -49 -97 -90 -185 -90 -195 0 -19 7 -20 98
-20 82 0 102 3 114 18 9 9 60 105 114 212 108 215 156 277 262 334 92 49 89
33 -31 -212 -92 -186 -108 -224 -107 -265 0 -37 5 -53 24 -72 55 -55 105 -46
284 46 74 38 138 69 143 69 5 0 11 -12 15 -27 12 -55 16 -63 41 -93 58 -69
197 -23 391 131 57 44 105 79 108 76 3 -3 -16 -46 -41 -97 -25 -51 -44 -98
-41 -106 4 -11 31 -14 120 -14 l115 0 34 57 c19 32 69 126 111 210 82 165 117
213 180 245 48 25 92 38 100 31 3 -3 -38 -90 -90 -192 -86 -167 -96 -192 -98
-243 -1 -69 23 -109 77 -122 48 -12 140 18 268 89 54 30 109 57 122 60 23 6
25 3 31 -46 5 -38 15 -59 37 -82 27 -26 35 -29 79 -25 63 6 163 63 333 191 73
55 134 101 136 103 3 3 -9 19 -26 36 l-32 31 -119 -86 c-108 -78 -152 -101
-152 -79 0 4 63 128 139 276 77 148 138 273 135 278 -3 4 -60 8 -128 8 -105 0
-125 -3 -138 -17 -8 -10 -66 -116 -128 -237 l-113 -218 -124 -59 c-69 -32
-129 -57 -133 -54 -5 3 41 107 102 232 128 262 140 305 92 342 -46 36 -118 26
-239 -32 -54 -26 -100 -46 -102 -43 -3 2 3 18 11 35 9 16 16 35 16 41 0 7 -41
10 -126 8 l-127 -3 -76 -142 -76 -142 -189 -141 c-117 -89 -192 -138 -198
-132 -5 5 42 107 127 270 74 143 135 268 135 276 0 14 -18 16 -128 16 l-128 0
-108 -209 -108 -208 -125 -73 c-96 -56 -127 -70 -136 -61 -9 10 12 59 91 214
116 230 124 261 74 315 -26 28 -83 52 -125 52 -9 0 -50 -11 -89 -25 -39 -14
-73 -23 -75 -22 -1 2 28 62 66 133 105 198 216 423 210 428 -2 2 -58 6 -124 8
l-119 3 -169 -320 -169 -320 -140 -104 c-76 -57 -141 -101 -144 -98 -3 3 27
67 66 142 40 75 70 138 68 140 -10 10 -249 6 -262 -4 -11 -9 -23 -6 -52 11
-33 19 -53 23 -129 23 -81 0 -97 -3 -156 -32 -103 -51 -198 -157 -275 -305
-29 -58 -47 -77 -126 -139 -145 -112 -209 -135 -242 -87 -58 83 53 231 255
342 65 36 68 38 93 107 14 39 26 77 26 85 0 12 -39 14 -248 14 l-248 0 -82
-65 c-45 -36 -84 -65 -87 -65 -3 0 -5 6 -5 13 0 26 -60 97 -99 117 -86 43
-231 17 -354 -64 -54 -36 -127 -109 -127 -128 0 -4 -11 -8 -25 -8 -22 0 -25 4
-25 36 0 67 -21 122 -58 155 -35 31 -36 32 -123 27 l-88 -5 130 259 c72 143
128 267 125 274 -4 11 -33 14 -126 14 l-121 0 -22 -37 c-12 -21 -121 -229
-242 -462 -206 -398 -223 -427 -267 -461 -54 -40 -287 -175 -292 -169 -3 2 43
98 100 213 88 177 104 216 104 256 0 57 -25 93 -76 110 -56 19 -107 4 -215
-61 -55 -33 -106 -62 -113 -65 -8 -3 -17 10 -24 34 -22 73 -90 115 -159 97
-15 -3 -72 -35 -125 -71 -54 -35 -98 -62 -98 -60 0 1 9 29 20 61 11 32 20 60
20 62 0 1 -56 3 -124 3 l-123 0 -69 -130 -69 -131 -170 -129 c-152 -115 -195
-143 -195 -125 0 8 95 197 179 355 39 74 69 140 66 147 -3 9 -35 13 -114 13
l-110 0 -22 -32 c-12 -18 -24 -35 -26 -37 -2 -3 -13 5 -26 17 -57 54 -153 66
-250 33 -143 -50 -268 -175 -365 -367 -34 -67 -129 -166 -194 -201 -47 -26
-106 -30 -147 -9 -32 17 -91 81 -91 98 0 6 89 183 199 392 109 210 234 453
278 541 172 343 225 405 389 451 101 27 179 -1 214 -79 40 -86 17 -181 -58
-249 -51 -46 -96 -69 -192 -99 -41 -12 -79 -26 -83 -30 -5 -4 7 -19 26 -33 89
-68 259 -89 369 -47 210 81 324 295 251 471 -28 70 -121 143 -229 181 -78 27
-232 34 -335 14z m177 -1130 c11 -17 14 -34 9 -57 -10 -47 -109 -232 -152
-283 -77 -93 -179 -141 -202 -96 -6 11 -9 33 -5 48 8 32 128 260 176 333 50
76 141 105 174 55z m2232 -7 c23 -23 11 -58 -89 -252 -105 -204 -137 -246
-189 -246 -58 0 -51 28 66 258 84 164 116 219 139 233 35 22 56 24 73 7z m706
-4 c9 -8 16 -27 16 -41 0 -35 -177 -378 -217 -420 -26 -28 -38 -34 -65 -31
-61 6 -52 39 67 272 79 152 114 210 133 221 35 19 47 18 66 -1z m1334 0 c43
-30 23 -88 -109 -325 -50 -90 -68 -114 -103 -134 -65 -38 -116 -30 -116 17 0
11 46 109 102 220 79 156 109 205 133 219 37 23 64 24 93 3z m-5760 -316 c61
-13 70 -22 48 -47 -51 -57 -199 -104 -318 -102 -128 2 -164 28 -112 82 76 79
210 103 382 67z"/>
<path d="M8331 5730 c-66 -16 -121 -81 -121 -145 0 -54 40 -117 90 -142 54
-28 92 -29 146 -4 107 49 119 216 19 272 -39 22 -91 29 -134 19z"/>
<path d="M9735 5725 c-95 -34 -129 -151 -71 -240 21 -32 86 -65 128 -65 50 0
118 39 140 80 25 45 20 129 -9 168 -43 58 -121 81 -188 57z"/>
</g>
</svg>
