<?xml version="1.0" standalone="no"?>
<!DOCTYPE svg PUBLIC "-//W3C//DTD SVG 20010904//EN"
 "http://www.w3.org/TR/2001/REC-SVG-20010904/DTD/svg10.dtd">
<svg version="1.0" xmlns="http://www.w3.org/2000/svg"
 width="859.000000pt" height="859.000000pt" viewBox="0 0 859.000000 859.000000"
 preserveAspectRatio="xMidYMid meet">
<metadata>
Created by potrace 1.16, written by Peter Selinger 2001-2019
</metadata>
<g transform="translate(0.000000,859.000000) scale(0.100000,-0.100000)"
fill="#000000" stroke="none">
<path d="M3605 8543 c-16 -3 -112 -22 -213 -44 -330 -71 -512 -166 -705 -368
-276 -290 -385 -683 -311 -1121 20 -118 67 -305 109 -434 200 -614 679 -1508
1352 -2524 164 -247 198 -293 216 -290 27 4 29 14 56 328 109 1268 99 2310
-29 3170 -78 522 -220 1011 -360 1238 -33 55 -36 56 -115 45z"/>
<path d="M4903 8508 c-76 -121 -168 -360 -237 -614 -246 -914 -301 -2279 -156
-3869 21 -224 29 -265 53 -265 20 0 30 13 194 260 792 1191 1314 2209 1448
2825 72 332 73 595 3 815 -111 348 -368 627 -698 757 -111 44 -492 133 -572
133 -4 0 -20 -19 -35 -42z"/>
<path d="M1284 7347 c-152 -160 -329 -403 -428 -588 -100 -187 -164 -382 -187
-573 -30 -242 45 -536 194 -761 197 -298 692 -684 1477 -1152 490 -292 1333
-742 1366 -729 8 3 14 15 14 26 0 38 -315 679 -506 1030 -437 802 -933 1582
-1478 2325 -134 183 -374 495 -380 495 -2 0 -34 -33 -72 -73z"/>
<path d="M7168 7304 c-549 -692 -1207 -1691 -1695 -2574 -248 -448 -573 -1104
-573 -1155 0 -12 6 -25 14 -28 24 -9 615 298 1057 549 934 530 1544 981 1767
1307 73 106 146 262 178 382 39 145 45 366 14 515 -51 251 -150 468 -331 725
-87 124 -212 276 -287 349 l-50 48 -94 -118z"/>
<path d="M8435 5226 c-22 -13 -186 -103 -365 -201 -1175 -643 -2229 -1260
-2817 -1649 -143 -95 -158 -108 -149 -131 5 -14 117 -15 1068 -12 1044 3 1065
3 1156 24 287 66 508 176 713 356 188 164 361 421 433 642 l26 79 0 442 c0
243 -3 449 -6 458 -8 20 -11 20 -59 -8z"/>
<path d="M111 5196 c-7 -29 -11 -178 -11 -427 0 -382 0 -383 26 -468 34 -116
130 -305 211 -421 136 -192 366 -391 572 -494 106 -53 291 -114 423 -138 l123
-23 1018 2 c759 1 1021 4 1032 13 7 6 11 18 8 27 -10 25 -470 319 -943 603
-606 363 -1551 897 -2352 1328 -42 23 -81 42 -86 42 -5 0 -15 -20 -21 -44z"/>
<path d="M2915 3015 c-187 -8 -497 -18 -690 -25 -575 -18 -1388 -50 -1392 -54
-8 -7 74 -134 161 -251 73 -98 237 -263 331 -333 91 -68 269 -155 371 -181
220 -57 380 -32 647 100 253 126 543 305 955 592 140 97 172 124 170 141 -3
20 -10 21 -108 22 -58 1 -258 -4 -445 -11z"/>
<path d="M5151 3016 c-20 -24 -6 -36 223 -195 486 -335 880 -564 1108 -643 86
-30 103 -32 223 -33 162 0 253 22 410 100 229 113 419 297 605 582 l71 108
-118 7 c-122 7 -780 31 -1333 48 -339 11 -757 26 -1015 36 -142 6 -162 5 -174
-10z"/>
<path d="M100 735 l0 -685 133 0 133 0 0 283 0 282 347 3 347 2 0 -285 0 -285
155 0 155 0 0 685 0 686 -152 -3 -153 -3 -3 -277 -2 -278 -344 0 -343 0 -7
110 c-4 61 -4 170 0 244 4 73 4 150 0 170 l-7 36 -129 0 -130 0 0 -685z"/>
<path d="M1634 1406 c-3 -8 -4 -240 -2 -517 4 -439 6 -511 21 -555 46 -140
183 -239 387 -281 117 -24 371 -21 488 5 173 39 310 137 353 251 34 91 40 196
37 661 l-3 445 -152 3 -152 3 -3 -473 c-4 -522 -6 -534 -68 -610 -57 -69 -219
-104 -365 -79 -84 15 -134 40 -172 86 -56 68 -57 71 -63 590 l-5 480 -148 3
c-120 2 -148 0 -153 -12z"/>
<path d="M3596 1393 c-7 -16 -45 -98 -84 -183 -38 -85 -147 -324 -242 -530
-95 -206 -199 -432 -231 -503 l-58 -127 165 2 165 3 64 155 63 155 325 3 324
2 48 -112 c26 -62 57 -134 68 -160 l19 -48 170 0 c158 0 170 1 165 17 -3 10
-48 110 -100 223 -52 113 -180 392 -285 620 -105 228 -202 435 -214 460 l-23
45 -162 3 -162 2 -15 -27z m277 -512 c59 -137 107 -252 107 -255 0 -3 -97 -6
-215 -6 -130 0 -215 4 -215 10 0 5 20 55 43 112 24 57 70 167 102 246 33 78
62 142 65 142 3 0 54 -112 113 -249z"/>
<path d="M4385 1398 c4 -13 36 -102 70 -198 35 -96 105 -290 155 -430 50 -140
129 -358 175 -485 l84 -230 191 -3 c147 -2 191 0 195 10 2 7 38 141 80 298 42
157 89 332 105 390 16 58 41 151 56 207 15 56 30 100 34 98 4 -3 12 -24 18
-47 6 -24 41 -137 77 -253 36 -115 100 -321 142 -457 l77 -248 191 0 190 0
228 677 c125 373 223 681 219 685 -5 5 -76 7 -157 6 l-149 -3 -13 -35 c-6 -19
-29 -93 -51 -165 -213 -705 -257 -844 -263 -833 -4 7 -55 166 -114 353 -58
187 -131 418 -161 513 l-55 172 -182 -2 -181 -3 -13 -45 c-15 -50 -60 -212
-188 -680 -48 -173 -88 -316 -90 -318 -2 -2 -51 144 -110 325 -59 180 -136
417 -172 526 l-65 197 -165 0 -164 0 6 -22z"/>
<path d="M7315 1409 c-231 -25 -398 -126 -479 -291 -63 -128 -79 -209 -79
-398 -1 -188 11 -249 69 -369 62 -125 173 -219 324 -272 63 -22 79 -23 443
-27 l377 -4 0 116 0 116 -267 0 c-307 1 -392 9 -463 45 -83 42 -120 107 -135
237 l-7 58 433 2 434 3 0 115 0 115 -430 5 -430 5 3 40 c10 111 80 207 180
247 54 21 73 23 370 26 l313 4 -3 116 -3 117 -285 1 c-157 1 -321 -2 -365 -7z"/>
<path d="M8247 1413 c-4 -3 -7 -312 -7 -685 l0 -678 130 0 130 0 0 685 0 685
-123 0 c-68 0 -127 -3 -130 -7z"/>
</g>
</svg>
