<?xml version="1.0" standalone="no"?>
<!DOCTYPE svg PUBLIC "-//W3C//DTD SVG 20010904//EN"
 "http://www.w3.org/TR/2001/REC-SVG-20010904/DTD/svg10.dtd">
<svg version="1.0" xmlns="http://www.w3.org/2000/svg"
 width="345.000000pt" height="345.000000pt" viewBox="0 0 345.000000 345.000000"
 preserveAspectRatio="xMidYMid meet">
<metadata>
Created by potrace 1.16, written by Peter Selinger 2001-2019
</metadata>
<g transform="translate(0.000000,345.000000) scale(0.100000,-0.100000)"
fill="#000000" stroke="none">
<path d="M175 2436 c-94 -19 -117 -29 -148 -66 -47 -55 -28 -90 47 -90 57 0
54 33 -4 42 l-25 4 30 14 c44 19 269 18 377 -3 362 -71 696 -289 780 -509 54
-144 -20 -268 -199 -330 -59 -20 -87 -23 -215 -23 -80 0 -150 4 -155 8 -4 5
-10 79 -11 164 l-4 156 72 -7 c101 -9 206 -34 231 -55 l22 -18 -20 -20 c-11
-11 -27 -23 -34 -26 -23 -9 10 -27 49 -27 71 0 113 80 78 148 -30 59 -186 112
-324 112 l-69 0 -7 70 c-11 106 -38 170 -72 170 -14 0 -30 -69 -40 -177 l-6
-72 -72 -15 c-85 -19 -186 -65 -221 -100 -14 -14 -25 -37 -25 -52 0 -69 115
-188 252 -259 55 -29 68 -41 68 -60 0 -30 18 -77 33 -87 18 -12 62 -9 75 4 7
7 12 22 12 35 0 26 0 26 55 13 22 -6 90 -10 150 -10 239 -1 413 81 492 232 24
46 28 64 28 138 0 80 -2 89 -39 158 -150 282 -599 532 -981 547 -70 3 -135 0
-180 -9z m355 -781 c0 -74 -3 -135 -6 -135 -3 0 -34 13 -69 30 -76 36 -178
110 -201 145 -23 35 -8 49 69 69 89 22 96 24 155 25 l52 1 0 -135z"/>
<path d="M1528 2337 c-66 -25 -128 -68 -158 -109 -41 -57 -47 -97 -21 -151 12
-24 21 -51 21 -61 0 -47 40 -73 59 -38 8 15 19 18 69 14 50 -4 70 0 118 22
158 73 231 195 153 260 -17 14 -36 26 -42 26 -6 0 -21 10 -34 22 -28 27 -112
34 -165 15z m-65 -151 c-32 -35 -61 -62 -65 -60 -16 10 18 68 55 95 67 49 72
33 10 -35z m265 42 c48 -48 -61 -140 -182 -154 -35 -4 -56 -3 -56 3 0 19 84
106 129 135 48 30 89 36 109 16z"/>
<path d="M2370 1955 c0 -14 12 -69 26 -122 24 -95 43 -233 31 -233 -3 0 -47
61 -97 135 -119 175 -137 176 -180 12 -43 -169 -36 -300 17 -313 41 -11 50 13
58 156 4 72 10 130 14 130 3 0 25 -37 49 -83 65 -125 106 -177 140 -177 141 0
141 325 1 485 -37 41 -59 45 -59 10z"/>
<path d="M2696 1904 c-50 -7 -94 -18 -99 -23 -10 -10 8 -51 23 -51 5 0 20 -4
34 -10 25 -9 25 -9 9 -49 -11 -27 -23 -41 -40 -46 -23 -5 -25 -10 -20 -42 4
-21 0 -50 -8 -71 -35 -82 -6 -172 60 -191 62 -17 197 30 248 87 14 15 16 25 8
46 -12 30 -33 33 -142 15 -38 -7 -72 -10 -75 -6 -3 3 0 23 7 45 11 38 13 40
63 46 28 3 70 6 94 6 41 0 42 1 42 34 0 41 -11 46 -92 46 -58 0 -60 1 -54 23
3 12 6 25 6 28 0 3 39 9 88 12 48 4 97 10 110 13 32 9 28 47 -9 78 -27 23 -39
26 -97 25 -37 -1 -107 -7 -156 -15z"/>
<path d="M1790 1899 c-68 -13 -148 -57 -165 -89 -23 -44 -19 -87 8 -105 14 -9
77 -20 160 -29 196 -20 253 -53 179 -102 -62 -42 -215 -58 -272 -29 -33 17
-36 25 -18 43 18 18 59 15 116 -9 58 -24 106 -21 144 11 l23 19 -38 16 c-58
24 -145 38 -196 30 -59 -9 -106 -53 -97 -93 10 -42 76 -98 137 -116 183 -55
342 36 310 177 -18 77 -54 95 -235 118 -76 10 -141 20 -144 23 -18 19 53 33
208 41 69 3 137 11 152 17 34 13 44 39 22 55 -41 30 -194 42 -294 22z"/>
<path d="M3112 1865 c-66 -75 -114 -178 -120 -256 -2 -37 0 -81 6 -98 10 -27
6 -47 -22 -134 -44 -131 -64 -263 -48 -315 12 -40 66 -82 83 -65 5 5 20 60 34
123 14 63 35 149 46 191 l21 77 46 6 c123 18 247 117 278 224 36 124 -20 256
-101 236 -36 -9 -153 -120 -218 -207 -81 -109 -76 -38 9 120 66 122 58 179
-14 98z m266 -165 c-3 -48 -10 -67 -35 -97 -34 -43 -110 -86 -143 -81 -19 3
-16 10 40 93 112 164 145 184 138 85z"/>
<path d="M1470 1868 c-7 -19 -15 -108 -17 -210 -5 -154 -3 -181 11 -203 18
-27 63 -34 84 -13 24 24 9 388 -19 439 -16 30 -45 23 -59 -13z"/>
</g>
</svg>
