<?xml version="1.0" standalone="no"?>
<!DOCTYPE svg PUBLIC "-//W3C//DTD SVG 20010904//EN"
 "http://www.w3.org/TR/2001/REC-SVG-20010904/DTD/svg10.dtd">
<svg version="1.0" xmlns="http://www.w3.org/2000/svg"
 width="225.000000pt" height="225.000000pt" viewBox="0 0 225.000000 225.000000"
 preserveAspectRatio="xMidYMid meet">
<metadata>
Created by potrace 1.16, written by Peter Selinger 2001-2019
</metadata>
<g transform="translate(0.000000,225.000000) scale(0.100000,-0.100000)"
fill="#000000" stroke="none">
<path d="M208 1473 c-19 -16 -56 -52 -82 -82 -39 -44 -46 -58 -41 -80 4 -15
68 -89 158 -178 l152 -153 143 143 c147 146 177 185 167 216 -6 19 -122 138
-150 154 -27 15 -58 0 -109 -52 l-50 -50 -57 54 c-32 30 -66 55 -77 55 -11 0
-35 -12 -54 -27z"/>
<path d="M928 1486 c-106 -38 -160 -120 -160 -245 0 -110 43 -190 125 -234 55
-29 194 -31 245 -4 58 31 109 104 111 160 1 15 -9 17 -73 17 -69 0 -75 -2 -78
-21 -2 -12 -15 -31 -30 -42 -23 -17 -34 -19 -64 -11 -48 12 -73 47 -81 112 -8
70 16 135 58 152 44 19 90 3 109 -37 15 -32 16 -33 88 -33 l74 0 -7 33 c-17
77 -65 130 -138 152 -62 18 -129 19 -179 1z"/>
<path d="M1810 1489 c-85 -26 -130 -95 -116 -175 11 -55 50 -88 137 -114 40
-12 89 -28 107 -36 56 -24 35 -64 -35 -64 -34 0 -46 5 -59 25 -14 22 -23 25
-78 25 -81 0 -88 -5 -71 -55 23 -65 87 -105 180 -113 156 -12 266 78 240 197
-14 65 -51 89 -193 131 -40 11 -75 27 -79 36 -16 41 68 61 102 24 15 -16 31
-20 87 -20 58 0 68 3 68 18 0 29 -36 78 -74 101 -42 26 -160 37 -216 20z"/>
<path d="M1230 1478 c0 -7 35 -117 77 -244 75 -225 78 -232 106 -238 50 -10
114 -7 124 7 10 13 163 460 163 477 0 12 -119 13 -137 2 -6 -4 -30 -75 -53
-157 -23 -83 -44 -152 -45 -154 -2 -1 -8 14 -14 35 -5 22 -24 93 -41 160 l-32
121 -74 2 c-54 2 -74 -1 -74 -11z"/>
<path d="M460 725 c0 -148 1 -155 20 -155 18 0 20 7 20 73 0 81 16 117 54 117
38 0 46 -19 46 -108 0 -81 1 -83 23 -80 21 3 22 8 25 89 2 74 0 89 -18 112
-25 31 -78 37 -104 12 -23 -23 -26 -19 -26 40 0 48 -2 55 -20 55 -19 0 -20 -7
-20 -155z"/>
<path d="M2097 820 c3 -11 7 -20 8 -20 1 0 5 9 8 20 3 12 0 20 -8 20 -8 0 -11
-8 -8 -20z"/>
<path d="M2161 822 c-7 -14 -6 -19 3 -19 6 0 13 9 13 19 1 10 0 18 -2 18 -2 0
-9 -8 -14 -18z"/>
<path d="M216 792 c-3 -3 -6 -72 -6 -154 l0 -148 25 0 c23 0 25 3 25 50 0 47
1 50 19 40 33 -17 78 -11 107 13 51 44 41 166 -15 197 -28 14 -63 12 -89 -6
-12 -8 -22 -11 -22 -6 0 11 -36 23 -44 14z m150 -67 c26 -62 2 -115 -53 -115
-29 0 -36 5 -48 34 -10 24 -12 43 -5 67 11 38 25 49 63 49 23 0 31 -7 43 -35z"/>
<path d="M731 787 c-13 -6 -28 -22 -32 -34 -7 -19 -5 -23 11 -23 11 0 29 9 40
20 23 23 39 25 65 6 29 -21 12 -44 -40 -51 -84 -13 -121 -69 -75 -115 23 -23
77 -27 105 -6 16 11 21 11 33 0 18 -18 52 -18 52 0 0 8 -4 18 -10 21 -5 3 -10
39 -10 80 0 68 -2 75 -26 94 -30 24 -77 27 -113 8z m99 -122 c0 -44 -44 -75
-84 -59 -12 5 -24 53 -13 54 1 0 20 7 42 15 54 19 55 19 55 -10z"/>
<path d="M943 792 c-22 -3 -23 -7 -23 -113 l0 -109 25 0 c24 0 25 2 25 74 0
79 13 106 51 106 14 0 19 7 19 25 0 30 -22 33 -49 6 -18 -18 -20 -18 -23 -3
-2 11 -11 16 -25 14z"/>
<path d="M1070 685 c0 -108 1 -115 20 -115 11 0 20 3 20 8 1 4 2 40 4 80 4 81
17 104 55 100 26 -3 26 -4 29 -95 3 -91 3 -93 27 -93 25 0 25 1 25 83 0 88 8
107 47 107 32 0 44 -31 40 -104 -5 -71 -1 -83 26 -83 15 0 17 12 17 94 0 80
-3 96 -20 113 -24 24 -67 26 -91 4 -16 -15 -20 -15 -41 0 -29 20 -67 20 -89 0
-17 -15 -19 -15 -34 0 -9 9 -21 16 -26 16 -5 0 -9 -51 -9 -115z"/>
<path d="M1465 789 c-39 -24 -48 -59 -15 -59 11 0 20 5 20 10 0 19 46 33 69
21 43 -23 10 -61 -54 -61 -57 0 -88 -68 -50 -110 22 -24 87 -27 105 -5 12 14
15 14 30 0 9 -8 24 -15 33 -15 21 0 33 20 17 30 -7 4 -13 37 -14 84 -2 54 -8
82 -18 93 -20 20 -97 27 -123 12z m79 -170 c-21 -23 -57 -25 -75 -3 -19 23 0
47 47 60 37 11 39 10 42 -13 2 -14 -4 -33 -14 -44z"/>
<path d="M1703 790 c-62 -25 -75 -134 -24 -189 24 -26 36 -31 75 -31 36 0 52
6 71 25 14 13 25 31 25 40 0 22 -35 18 -52 -6 -19 -30 -66 -28 -91 2 -21 26
-19 87 3 114 19 23 77 19 90 -5 12 -23 50 -27 50 -6 0 8 -14 26 -31 40 -32 27
-74 33 -116 16z"/>
<path d="M1887 792 c-22 -4 -22 -3 25 -128 37 -97 36 -130 -6 -136 -11 -2 -22
-11 -24 -20 -6 -29 62 -25 80 5 11 17 62 150 105 273 3 7 -5 10 -22 7 -22 -5
-28 -16 -48 -79 -12 -41 -25 -74 -28 -74 -3 0 -11 18 -18 40 -24 79 -45 116
-64 112z"/>
</g>
</svg>
