<?xml version="1.0" standalone="no"?>
<!DOCTYPE svg PUBLIC "-//W3C//DTD SVG 20010904//EN"
 "http://www.w3.org/TR/2001/REC-SVG-20010904/DTD/svg10.dtd">
<svg version="1.0" xmlns="http://www.w3.org/2000/svg"
 width="1024.000000pt" height="1024.000000pt" viewBox="0 0 1024.000000 1024.000000"
 preserveAspectRatio="xMidYMid meet">
<metadata>
Created by potrace 1.16, written by Peter Selinger 2001-2019
</metadata>
<g transform="translate(0.000000,1024.000000) scale(0.100000,-0.100000)"
fill="#000000" stroke="none">
<path d="M5005 7223 c-431 -53 -793 -204 -1121 -469 -113 -92 -259 -242 -346
-358 -69 -93 -198 -301 -198 -321 0 -6 24 -29 53 -51 28 -21 179 -138 335
-259 156 -121 287 -221 292 -223 6 -2 10 2 10 10 1 31 84 197 147 291 193 290
505 496 841 553 129 22 381 15 498 -15 165 -41 327 -120 448 -218 32 -27 65
-52 72 -58 10 -7 85 62 304 280 159 160 290 295 289 300 0 6 -37 41 -82 78
-299 246 -654 402 -1037 452 -103 14 -419 19 -505 8z"/>
<path d="M5230 5103 l0 -408 575 3 575 2 0 -24 c0 -43 -50 -187 -96 -276 -150
-292 -433 -487 -807 -556 -125 -24 -373 -23 -482 0 -247 53 -444 155 -624 323
-137 126 -285 346 -339 500 l-11 33 -321 -250 c-176 -137 -331 -256 -343 -265
l-22 -15 30 -58 c16 -31 62 -106 103 -166 349 -520 895 -854 1516 -927 140
-16 499 -6 641 19 382 67 705 219 982 462 344 302 576 778 632 1302 16 144 13
404 -5 566 l-17 142 -993 0 -994 0 0 -407z"/>
</g>
</svg>
