<?xml version="1.0" standalone="no"?>
<!DOCTYPE svg PUBLIC "-//W3C//DTD SVG 20010904//EN"
 "http://www.w3.org/TR/2001/REC-SVG-20010904/DTD/svg10.dtd">
<svg version="1.0" xmlns="http://www.w3.org/2000/svg"
 width="656.000000pt" height="656.000000pt" viewBox="0 0 656.000000 656.000000"
 preserveAspectRatio="xMidYMid meet">
<metadata>
Created by potrace 1.16, written by Peter Selinger 2001-2019
</metadata>
<g transform="translate(0.000000,656.000000) scale(0.100000,-0.100000)"
fill="#000000" stroke="none">
<path d="M1350 4830 c-280 -27 -491 -139 -594 -315 -14 -23 -38 -78 -53 -121
l-28 -79 0 -1070 0 -1070 28 -78 c59 -168 165 -286 322 -362 115 -55 166 -66
350 -72 l150 -6 346 281 c248 201 355 294 378 328 59 90 64 120 69 437 l4 287
-331 0 -331 0 0 -327 c0 -367 -3 -386 -71 -434 -46 -33 -130 -34 -175 -2 -67
48 -64 -8 -64 1025 0 889 1 935 19 968 59 112 210 107 269 -10 21 -43 22 -52
22 -377 l0 -333 328 2 327 3 0 385 c-1 428 -3 450 -70 585 -109 223 -346 344
-700 359 -60 2 -148 1 -195 -4z"/>
<path d="M2721 3589 c-145 -649 -261 -1182 -259 -1185 3 -2 225 173 493 390
l488 393 271 -227 c149 -124 379 -317 511 -428 132 -110 241 -198 243 -194 1
4 -126 551 -283 1216 -157 665 -285 1210 -285 1212 0 2 -206 4 -458 4 l-458 0
-263 -1181z m804 201 c42 -217 79 -405 82 -417 l5 -23 -166 0 c-140 0 -166 2
-166 15 0 14 144 760 157 815 8 32 1 65 88 -390z"/>
<path d="M4280 4465 l0 -305 225 0 225 0 2 -1027 3 -1027 260 -218 260 -218
103 0 102 0 0 1245 0 1245 225 0 225 0 0 305 0 305 -815 0 -815 0 0 -305z"/>
<path d="M3865 2630 c3 -5 8 -10 11 -10 2 0 4 5 4 10 0 6 -5 10 -11 10 -5 0
-7 -4 -4 -10z"/>
<path d="M2100 1909 c0 -5 5 -7 10 -4 6 3 10 8 10 11 0 2 -4 4 -10 4 -5 0 -10
-5 -10 -11z"/>
</g>
</svg>
