<?xml version="1.0" standalone="no"?>
<!DOCTYPE svg PUBLIC "-//W3C//DTD SVG 20010904//EN"
 "http://www.w3.org/TR/2001/REC-SVG-20010904/DTD/svg10.dtd">
<svg version="1.0" xmlns="http://www.w3.org/2000/svg"
 width="1000.000000pt" height="1000.000000pt" viewBox="0 0 1000.000000 1000.000000"
 preserveAspectRatio="xMidYMid meet">
<metadata>
Created by potrace 1.16, written by Peter Selinger 2001-2019
</metadata>
<g transform="translate(0.000000,1000.000000) scale(0.100000,-0.100000)"
fill="#000000" stroke="none">
<path d="M4775 7139 c-673 -73 -1277 -470 -1620 -1065 -67 -115 -72 -102 73
-170 266 -125 512 -172 852 -161 227 7 399 27 685 78 382 68 443 78 603 99 86
12 168 23 181 25 13 2 119 9 235 16 242 13 582 6 731 -16 110 -16 315 -70 413
-109 l63 -25 -7 22 c-10 35 -112 225 -167 312 -130 205 -296 397 -468 541
-273 228 -642 392 -989 440 -30 4 -64 9 -75 10 -61 9 -433 11 -510 3z"/>
<path d="M2770 5015 l0 -515 150 0 c113 0 150 3 151 13 1 6 0 71 -1 144 -1 73
1 141 5 153 6 19 13 20 263 20 l257 0 51 30 c92 52 155 177 156 305 2 142 -66
271 -173 330 l-54 30 -402 3 -403 3 0 -516z m706 232 c39 -45 25 -139 -23
-158 -13 -5 -105 -9 -204 -9 l-179 0 0 101 0 100 191 -3 191 -3 24 -28z"/>
<path d="M4075 5520 c-154 -31 -220 -122 -244 -335 -15 -130 -5 -357 18 -449
26 -98 45 -132 99 -172 72 -56 136 -64 506 -64 l326 0 0 125 0 125 -304 0
-304 0 -27 31 c-20 24 -25 41 -23 68 2 20 9 37 16 37 6 1 145 2 307 3 l295 1
0 125 0 125 -310 0 -310 0 0 39 c0 29 7 47 29 70 l29 31 301 0 301 0 0 125 0
125 -332 -1 c-183 -1 -351 -5 -373 -9z"/>
<path d="M4830 5015 l0 -515 150 0 150 0 0 165 0 165 262 0 c310 0 321 3 393
101 137 187 78 482 -115 573 -43 20 -62 21 -442 24 l-398 3 0 -516z m702 238
c33 -34 29 -119 -7 -150 -25 -22 -34 -23 -211 -23 l-184 0 0 101 0 100 190 -3
c181 -3 190 -4 212 -25z"/>
<path d="M6105 5516 c-97 -24 -147 -66 -189 -156 -17 -38 -21 -65 -21 -165 0
-108 2 -125 25 -170 31 -62 92 -110 160 -124 29 -6 155 -11 290 -11 236 0 239
0 254 -22 22 -30 20 -81 -2 -101 -17 -15 -57 -17 -365 -17 l-347 0 0 -125 0
-125 358 0 c276 0 373 4 427 15 167 35 255 150 255 329 -1 143 -35 217 -123
263 l-52 28 -276 5 c-312 6 -312 6 -307 74 5 65 7 66 386 66 l332 0 0 125 0
125 -377 -1 c-264 0 -393 -4 -428 -13z"/>
<path d="M6970 5020 l0 -510 145 0 145 0 0 510 0 510 -145 0 -145 0 0 -510z"/>
<path d="M5805 4282 c-183 -10 -429 -44 -725 -101 -536 -104 -641 -115 -1090
-116 -308 0 -384 3 -485 19 -150 23 -281 56 -397 101 -49 19 -92 35 -94 35
-17 0 168 -323 248 -434 114 -157 303 -358 443 -472 210 -171 482 -307 757
-378 200 -53 323 -67 551 -67 288 1 520 43 757 138 489 195 865 526 1129 995
l31 56 -117 60 c-290 147 -549 190 -1008 164z"/>
</g>
</svg>
