<?xml version="1.0" standalone="no"?>
<!DOCTYPE svg PUBLIC "-//W3C//DTD SVG 20010904//EN"
 "http://www.w3.org/TR/2001/REC-SVG-20010904/DTD/svg10.dtd">
<svg version="1.0" xmlns="http://www.w3.org/2000/svg"
 width="225.000000pt" height="225.000000pt" viewBox="0 0 225.000000 225.000000"
 preserveAspectRatio="xMidYMid meet">
<metadata>
Created by potrace 1.16, written by Peter Selinger 2001-2019
</metadata>
<g transform="translate(0.000000,225.000000) scale(0.100000,-0.100000)"
fill="#000000" stroke="none">
<path d="M517 1494 c-4 -4 -7 -135 -7 -292 l0 -284 -34 -34 c-95 -95 -237 27
-167 142 20 33 79 61 106 50 12 -4 15 7 15 58 0 60 -2 64 -25 70 -50 13 -135
-23 -182 -77 -46 -52 -66 -115 -61 -186 17 -240 344 -305 453 -90 24 46 25 58
25 214 0 91 2 165 4 165 2 0 28 -11 58 -25 29 -14 70 -25 91 -25 l37 0 0 59 0
59 -37 12 c-73 24 -143 95 -143 147 0 12 -5 25 -10 28 -16 10 -115 17 -123 9z"/>
<path d="M1060 1335 l0 -45 -40 0 c-38 0 -40 -2 -40 -29 0 -27 3 -30 38 -33
l37 -3 0 -65 0 -65 -35 -5 c-31 -4 -35 -9 -38 -38 l-3 -34 41 7 41 7 -3 -64
-3 -63 -32 -3 c-29 -3 -33 -7 -33 -33 0 -28 2 -29 48 -29 70 0 82 17 82 117
l0 81 30 6 c26 5 30 10 30 37 0 29 -2 31 -30 27 l-30 -5 0 64 0 63 30 0 c27 0
30 3 30 30 0 27 -3 30 -30 30 -29 0 -30 2 -30 45 0 43 -1 45 -30 45 -29 0 -30
-2 -30 -45z"/>
<path d="M1411 1218 c-1 -89 -3 -163 -4 -165 -2 -2 -33 -5 -68 -9 -126 -10
-129 -11 -129 -46 l0 -30 100 7 100 7 1 -43 c2 -103 2 -104 31 -107 24 -3 28
1 33 31 4 19 5 54 3 78 -3 41 -2 44 27 49 25 4 31 10 33 38 3 30 1 32 -30 32
l-33 0 1 160 2 160 -33 0 -32 0 -2 -162z"/>
<path d="M1860 1360 c0 -19 -7 -20 -110 -20 l-110 0 0 -30 0 -30 260 0 260 0
0 30 0 30 -110 0 c-103 0 -110 1 -110 20 0 17 -7 20 -40 20 -33 0 -40 -3 -40
-20z"/>
<path d="M1230 1302 c0 -28 4 -32 38 -38 20 -3 54 -10 75 -14 37 -8 37 -8 37
25 0 36 -4 39 -97 51 l-53 7 0 -31z"/>
<path d="M1742 1225 c5 -25 4 -25 -58 -25 l-64 0 0 -30 0 -30 275 0 275 0 0
30 0 30 -60 0 c-60 0 -60 0 -54 26 6 24 5 25 -27 22 -26 -2 -35 -8 -37 -25 -3
-22 -8 -23 -92 -23 -85 0 -88 1 -94 25 -5 20 -13 25 -37 25 -28 0 -31 -3 -27
-25z"/>
<path d="M1230 1161 c0 -28 3 -30 58 -41 31 -6 65 -12 75 -14 13 -3 17 3 17
29 0 32 -2 34 -50 44 -85 18 -100 16 -100 -18z"/>
<path d="M1687 1072 c-24 -26 -24 -193 -1 -216 13 -14 47 -16 213 -16 140 0
200 3 209 12 8 8 12 48 12 115 0 91 -2 103 -19 113 -12 6 -98 10 -209 10 -170
0 -191 -2 -205 -18z m381 -64 c3 -17 -10 -18 -167 -18 -165 0 -171 1 -171 20
0 20 5 20 167 18 151 -3 168 -5 171 -20z m2 -88 c0 -28 -24 -31 -190 -28 -142
3 -145 4 -148 26 l-3 22 170 0 c164 0 171 -1 171 -20z"/>
</g>
</svg>
