<?xml version="1.0" standalone="no"?>
<!DOCTYPE svg PUBLIC "-//W3C//DTD SVG 20010904//EN"
 "http://www.w3.org/TR/2001/REC-SVG-20010904/DTD/svg10.dtd">
<svg version="1.0" xmlns="http://www.w3.org/2000/svg"
 width="1024.000000pt" height="1024.000000pt" viewBox="0 0 1024.000000 1024.000000"
 preserveAspectRatio="xMidYMid meet">
<metadata>
Created by potrace 1.16, written by Peter Selinger 2001-2019
</metadata>
<g transform="translate(0.000000,1024.000000) scale(0.100000,-0.100000)"
fill="#000000" stroke="none">
<path d="M1595 7063 c-16 -3 -34 -8 -38 -12 -4 -4 11 -113 33 -242 97 -556
160 -918 160 -921 0 -2 30 1 66 6 l66 10 -5 36 c-7 51 -175 1015 -188 1078
-11 56 -11 56 -94 45z"/>
<path d="M2227 6983 c-15 -80 -82 -465 -158 -902 -17 -95 -29 -174 -27 -175 2
-1 27 -7 56 -13 39 -7 55 -7 58 1 2 6 19 106 39 221 61 358 156 899 161 916 5
19 -6 25 -68 34 l-45 7 -16 -89z"/>
<path d="M980 6830 c-36 -20 -64 -41 -63 -46 2 -11 563 -995 574 -1008 8 -9
139 53 139 66 0 6 -531 939 -568 999 l-17 27 -65 -38z"/>
<path d="M2846 6773 c-25 -43 -157 -271 -294 -508 l-249 -430 49 -29 c27 -15
50 -27 52 -25 8 12 568 992 572 1004 4 8 -10 23 -35 39 -22 14 -43 26 -46 26
-2 0 -25 -35 -49 -77z"/>
<path d="M455 6389 c-49 -59 -56 -72 -44 -83 8 -7 209 -179 448 -381 l434
-367 36 43 c20 24 49 57 65 72 16 15 27 29 25 31 -2 1 -205 172 -452 379 -246
207 -449 377 -451 377 -2 0 -30 -32 -61 -71z"/>
<path d="M2985 6040 c-242 -203 -441 -373 -442 -377 -1 -4 10 -23 25 -41 l27
-32 435 366 c239 201 441 371 448 378 11 11 9 19 -13 44 -15 18 -30 32 -34 32
-4 0 -205 -166 -446 -370z"/>
<path d="M4830 5125 c0 -553 -1 -1008 -2 -1012 -2 -5 113 -9 255 -11 l257 -2
0 325 0 325 138 0 137 0 175 -325 175 -325 293 0 c160 0 292 2 292 5 0 3 -102
168 -227 368 -124 199 -235 376 -244 392 l-18 31 55 44 c159 127 256 350 239
554 -15 184 -69 310 -180 422 -80 81 -164 131 -280 167 -132 41 -210 47 -651
47 l-414 0 0 -1005z m766 604 c96 -17 162 -61 199 -133 27 -53 30 -69 30 -145
0 -100 -19 -158 -68 -209 -65 -68 -147 -92 -317 -92 l-110 0 0 295 0 295 102
0 c56 0 130 -5 164 -11z"/>
<path d="M6400 5910 l0 -220 310 0 310 0 0 -795 0 -795 270 0 270 0 0 795 0
795 310 2 311 3 0 215 0 215 -891 3 -890 2 0 -220z"/>
<path d="M8257 6124 c-3 -4 89 -147 204 -318 116 -171 262 -388 325 -481 l114
-171 -350 -524 -350 -525 302 -3 c233 -2 305 1 314 10 6 7 94 160 194 341 101
180 186 327 189 327 3 0 89 -141 190 -313 102 -171 193 -324 203 -339 l19 -28
310 0 c170 0 309 4 309 8 0 4 -155 236 -345 516 l-344 508 158 236 c420 632
498 751 493 756 -3 3 -137 6 -298 6 -237 0 -295 -3 -306 -14 -7 -8 -87 -147
-178 -310 -91 -162 -168 -295 -171 -296 -4 0 -82 132 -174 293 -92 160 -174
300 -183 310 -14 15 -42 17 -317 17 -166 0 -304 -3 -308 -6z"/>
<path d="M151 5877 c-43 -114 -60 -171 -54 -177 9 -7 -6 -1 631 -234 249 -91
454 -166 456 -166 2 0 7 15 10 33 3 17 20 61 36 96 17 35 29 65 27 67 -3 3
-390 145 -1005 370 l-93 33 -8 -22z"/>
<path d="M2714 5363 c55 -259 43 -407 -49 -598 -176 -363 -597 -532 -979 -394
-183 66 -347 213 -435 390 -28 55 -56 126 -63 159 -6 33 -15 60 -20 60 -4 0
-38 -12 -75 -26 -38 -14 -198 -73 -358 -131 -159 -58 -373 -136 -475 -173
-174 -64 -185 -69 -182 -91 8 -48 76 -219 89 -219 7 0 250 88 540 195 290 107
528 193 529 192 2 -1 -193 -170 -432 -375 -239 -205 -434 -376 -434 -380 0 -9
88 -120 143 -181 l38 -42 112 94 c62 52 245 208 407 345 162 138 296 249 298
248 1 -2 -117 -212 -263 -467 -146 -255 -265 -466 -265 -469 0 -11 269 -166
274 -158 2 2 115 200 251 440 137 241 250 436 252 434 2 -2 -5 -55 -16 -117
-94 -535 -150 -873 -147 -877 15 -14 322 -71 330 -61 2 2 19 101 39 219 21
118 53 305 72 415 20 110 38 221 42 248 6 48 23 66 23 25 0 -13 11 -81 24
-153 13 -71 47 -271 77 -443 l54 -314 55 7 c69 8 213 33 263 46 29 8 37 14 33
27 -5 15 -28 146 -117 661 -17 95 -29 175 -27 177 2 2 101 -165 219 -371 117
-206 219 -375 224 -375 34 0 335 179 335 200 0 5 -83 155 -183 332 -101 178
-190 334 -197 348 -17 31 -45 54 313 -247 158 -134 292 -243 296 -243 12 0
143 154 209 245 48 67 53 77 39 88 -43 33 -535 452 -533 454 2 2 594 -216 643
-237 20 -8 25 -5 44 32 53 105 131 361 113 377 -7 7 -362 141 -538 202 -35 13
-7 15 275 19 l314 5 6 110 c6 112 -4 345 -16 364 -4 8 -191 11 -592 11 l-585
0 6 -27z"/>
<path d="M0 5125 l0 -115 583 0 582 0 1 115 0 115 -583 0 -583 0 0 -115z"/>
</g>
</svg>
