<?xml version="1.0" standalone="no"?>
<!DOCTYPE svg PUBLIC "-//W3C//DTD SVG 20010904//EN"
 "http://www.w3.org/TR/2001/REC-SVG-20010904/DTD/svg10.dtd">
<svg version="1.0" xmlns="http://www.w3.org/2000/svg"
 width="640.000000pt" height="640.000000pt" viewBox="0 0 640.000000 640.000000"
 preserveAspectRatio="xMidYMid meet">
<metadata>
Created by potrace 1.16, written by Peter Selinger 2001-2019
</metadata>
<g transform="translate(0.000000,640.000000) scale(0.100000,-0.100000)"
fill="#000000" stroke="none">
<path d="M1985 5409 c-871 -95 -1602 -688 -1876 -1522 -292 -889 22 -1878 777
-2446 305 -229 668 -377 1042 -425 142 -18 389 -21 530 -5 214 23 474 94 656
178 l85 39 99 -43 c287 -126 570 -185 894 -185 747 0 1435 373 1851 1005 77
118 197 363 241 495 335 997 -73 2081 -984 2618 -599 354 -1362 398 -1998 115
l-103 -45 -78 35 c-174 80 -350 133 -556 168 -141 24 -441 33 -580 18z m425
-449 c92 -11 205 -33 285 -56 l51 -14 -126 -128 c-250 -254 -424 -535 -534
-865 -20 -59 -36 -114 -36 -122 0 -13 34 -15 234 -15 l234 0 17 53 c28 85 129
285 190 377 112 166 250 311 410 432 l66 50 77 -58 c107 -80 284 -262 364
-374 76 -108 172 -287 214 -402 l29 -78 232 0 c202 0 233 2 233 15 0 39 -88
274 -150 400 -116 236 -261 436 -448 617 l-101 98 40 10 c21 5 57 15 80 21
234 61 537 64 798 7 885 -190 1486 -1048 1366 -1950 -99 -749 -650 -1338
-1400 -1498 -142 -31 -438 -39 -591 -16 -99 14 -273 52 -283 62 -2 2 43 50
100 106 189 187 314 360 433 600 111 222 194 502 220 741 l6 57 -520 0 -520 0
0 -225 0 -225 240 0 c132 0 240 -3 240 -7 0 -5 -26 -62 -59 -128 -91 -187
-185 -320 -336 -471 -115 -117 -243 -224 -265 -224 -21 0 -196 148 -285 241
-149 156 -287 365 -354 537 l-21 52 240 0 240 0 0 225 0 225 -520 0 -520 0 6
-47 c34 -282 96 -497 214 -738 114 -236 251 -426 438 -610 56 -55 102 -103
102 -107 0 -10 -206 -56 -313 -69 -143 -17 -434 -6 -562 21 -855 182 -1444
926 -1412 1785 6 163 26 293 64 425 196 685 787 1188 1493 1269 107 12 302 13
400 1z"/>
</g>
</svg>
