<?xml version="1.0" standalone="no"?>
<!DOCTYPE svg PUBLIC "-//W3C//DTD SVG 20010904//EN"
 "http://www.w3.org/TR/2001/REC-SVG-20010904/DTD/svg10.dtd">
<svg version="1.0" xmlns="http://www.w3.org/2000/svg"
 width="1024.000000pt" height="1024.000000pt" viewBox="0 0 1024.000000 1024.000000"
 preserveAspectRatio="xMidYMid meet">
<metadata>
Created by potrace 1.16, written by Peter Selinger 2001-2019
</metadata>
<g transform="translate(0.000000,1024.000000) scale(0.100000,-0.100000)"
fill="#000000" stroke="none">
<path d="M1910 6774 c-158 -33 -395 -139 -564 -252 -220 -145 -539 -442 -723
-674 -320 -400 -524 -826 -599 -1248 -23 -128 -23 -358 0 -464 40 -182 108
-311 216 -408 217 -196 495 -242 927 -154 94 20 322 74 505 120 463 117 543
130 798 130 180 1 216 -2 294 -22 181 -46 331 -140 417 -262 l42 -59 62 64
c90 93 178 133 323 147 91 9 129 8 228 -6 185 -26 386 -99 532 -193 l54 -34
-28 36 c-53 70 -249 231 -431 353 -301 203 -668 269 -1152 206 -161 -21 -319
-54 -661 -139 -733 -183 -860 -208 -1050 -209 -161 -1 -223 13 -360 81 -207
101 -289 255 -290 539 0 141 16 244 64 410 110 382 324 771 650 1178 336 421
698 704 923 723 82 7 110 -1 133 -40 39 -64 19 -127 -41 -127 -97 0 -214 -160
-195 -266 12 -62 59 -85 129 -64 60 17 126 90 178 195 39 78 43 95 47 175 4
78 1 94 -21 143 -26 57 -67 96 -130 122 -46 19 -187 19 -277 -1z"/>
<path d="M6795 6760 c-204 -54 -450 -178 -660 -333 -247 -183 -565 -506 -778
-792 -335 -448 -562 -901 -642 -1280 -26 -119 -24 -326 4 -428 28 -105 81
-202 143 -266 103 -103 196 -137 353 -128 118 6 212 35 315 97 289 171 538
455 705 803 90 186 119 298 120 452 0 109 -2 125 -26 176 -21 45 -37 63 -74
84 -43 26 -52 27 -124 22 -137 -9 -266 -75 -396 -202 -183 -179 -294 -419
-350 -759 l-7 -40 82 78 c93 87 184 154 273 202 l60 32 24 83 c49 172 161 352
257 417 42 28 57 32 99 30 41 -2 54 -8 71 -31 18 -24 21 -41 19 -115 -3 -188
-119 -462 -288 -682 -136 -177 -333 -344 -456 -386 -169 -58 -317 21 -370 198
-19 60 -21 86 -16 172 30 510 404 1211 1002 1876 226 250 473 447 702 558 74
36 107 46 160 49 38 3 79 1 92 -4 23 -9 20 -12 -50 -59 -285 -189 -504 -451
-623 -743 -57 -140 -55 -258 5 -326 61 -69 134 -70 268 -4 72 35 102 58 187
143 165 167 286 366 357 591 29 91 51 251 41 300 -5 31 -4 34 32 45 82 27 264
-15 435 -101 90 -45 209 -117 429 -261 214 -139 240 -153 254 -137 7 8 63 66
125 130 l112 117 -143 85 c-479 286 -653 357 -877 357 -115 0 -195 -14 -318
-55 l-102 -34 -51 34 c-28 19 -68 39 -88 45 -59 16 -209 11 -287 -10z m385
-264 c0 -24 -7 -80 -15 -124 -51 -267 -192 -509 -404 -694 -71 -62 -166 -118
-199 -118 -104 0 -122 117 -43 286 119 254 350 514 585 661 69 43 76 42 76
-11z"/>
<path d="M10155 6704 c-267 -247 -568 -416 -837 -470 -46 -9 -139 -17 -208
-18 l-125 -3 -63 -74 c-35 -41 -86 -102 -113 -136 l-48 -62 50 -10 c73 -16
258 -13 347 5 363 74 722 319 951 649 44 64 114 176 108 175 -1 -1 -29 -26
-62 -56z"/>
<path d="M9280 6730 c-140 -51 -361 -221 -605 -465 -418 -418 -761 -914 -1112
-1605 -51 -100 -75 -138 -95 -148 -32 -15 -138 -36 -145 -28 -3 3 13 47 35 98
105 245 121 427 46 526 -40 52 -75 64 -168 60 -73 -3 -92 -8 -176 -49 -167
-81 -326 -219 -481 -419 -261 -335 -401 -648 -403 -900 -1 -96 1 -110 27 -163
38 -76 88 -107 173 -107 75 1 141 24 235 82 203 127 397 346 586 662 l67 113
61 6 c33 4 74 9 92 13 l31 6 -50 -153 c-79 -245 -102 -349 -103 -464 0 -88 3
-107 25 -149 38 -74 87 -109 161 -114 54 -4 68 -1 132 31 86 43 200 138 277
230 l55 66 5 -102 c6 -124 30 -175 95 -207 113 -55 261 9 453 194 l53 51 -7
-52 c-10 -76 10 -146 52 -183 30 -26 42 -30 94 -30 50 0 71 6 139 43 117 61
191 119 295 228 129 136 358 438 415 547 11 21 10 22 -38 22 l-50 0 -62 -92
c-135 -203 -280 -363 -382 -423 -37 -21 -50 -24 -66 -15 -12 6 -21 21 -21 34
0 29 94 214 177 351 63 104 500 876 510 901 4 12 -21 14 -151 14 l-156 0 -26
-40 c-15 -22 -29 -40 -33 -40 -3 0 -19 18 -35 40 -42 57 -84 73 -170 68 -87
-6 -135 -26 -248 -108 -209 -150 -396 -372 -669 -795 -138 -216 -190 -287
-263 -363 -83 -87 -137 -104 -175 -56 -52 66 2 306 135 607 l45 102 142 107
c276 207 559 478 831 794 116 134 316 390 316 404 0 3 -22 3 -49 2 l-49 -4
-75 -96 c-127 -166 -264 -319 -477 -536 -268 -272 -518 -488 -528 -456 -9 25
235 457 420 745 259 402 426 616 667 855 196 195 269 252 328 254 l38 1 -1
-56 c-1 -46 -11 -76 -52 -162 l-50 -106 31 6 c63 12 76 22 106 81 46 91 64
164 59 244 -3 62 -7 73 -31 94 -23 20 -39 24 -90 24 -36 -1 -85 -9 -117 -20z
m-1992 -1701 c91 -31 81 -215 -23 -434 -49 -103 -45 -100 -99 -74 -99 46 -166
145 -166 243 0 99 111 234 219 267 36 10 34 10 69 -2z m1886 -52 c8 -21 7 -34
-4 -50 -7 -12 -83 -143 -168 -292 -268 -468 -393 -656 -492 -741 -56 -48 -86
-60 -125 -50 -36 9 -46 43 -34 118 20 123 92 270 257 523 150 231 319 425 430
496 63 40 122 38 136 -4z m-2259 -363 c25 -47 120 -134 189 -174 31 -17 56
-35 56 -39 0 -4 -24 -48 -52 -98 -149 -260 -350 -463 -459 -463 -36 0 -75 33
-89 76 -28 84 32 270 156 482 60 101 163 252 173 252 4 0 15 -16 26 -36z"/>
<path d="M2104 5975 c-233 -51 -558 -337 -788 -693 -68 -105 -161 -303 -190
-404 -72 -249 -50 -438 59 -507 60 -38 115 -45 189 -26 239 63 524 345 780
772 37 62 72 115 78 119 14 9 151 44 156 40 1 -2 -27 -62 -62 -133 -36 -72
-82 -179 -103 -239 -33 -97 -37 -119 -37 -204 2 -169 51 -277 154 -334 49 -27
62 -30 140 -29 181 1 320 79 573 321 55 51 101 91 104 88 3 -2 -2 -36 -11 -75
-18 -80 -21 -187 -5 -228 38 -101 167 -137 291 -81 76 35 129 72 216 153 l72
67 0 -72 c0 -78 14 -116 56 -149 41 -33 132 -29 209 8 186 90 419 330 689 714
l48 67 -54 0 -53 -1 -75 -101 c-142 -192 -348 -388 -407 -388 -33 0 -48 26
-36 63 8 25 573 1017 675 1185 l20 32 -161 0 -160 0 -17 -30 -18 -30 -28 34
c-37 45 -85 66 -152 66 -123 0 -259 -82 -452 -274 -141 -141 -235 -255 -388
-470 -196 -276 -415 -520 -538 -600 -113 -73 -202 -86 -259 -39 -96 82 -77
237 66 528 76 155 160 286 262 413 93 115 222 234 287 267 99 49 170 24 164
-58 -3 -42 -3 -42 -50 -49 -26 -3 -61 -16 -78 -28 -56 -40 -110 -138 -110
-200 0 -34 32 -76 65 -84 106 -27 274 212 275 389 0 42 -29 117 -58 148 -44
49 -144 73 -236 56 -134 -24 -275 -118 -476 -318 -139 -138 -255 -230 -345
-272 -70 -34 -101 -38 -90 -11 5 9 26 69 49 132 38 108 41 122 41 225 0 99 -2
114 -25 153 -46 81 -140 113 -256 87z m119 -144 c53 -21 72 -128 42 -246 -15
-60 -70 -199 -88 -222 -19 -26 -126 15 -185 71 -46 43 -62 77 -62 133 1 62 28
121 85 182 72 77 145 106 208 82z m2131 -17 c9 -8 16 -22 16 -31 0 -26 -400
-719 -513 -888 -69 -103 -174 -212 -231 -239 -46 -22 -79 -12 -98 30 -35 76
106 380 305 659 123 173 304 391 355 429 79 57 135 71 166 40z m-2454 -435
c51 -52 80 -72 137 -95 40 -16 73 -34 73 -41 0 -16 -143 -245 -198 -317 -75
-97 -160 -183 -225 -226 -54 -36 -66 -41 -110 -38 -61 4 -88 33 -94 105 -11
112 89 352 248 593 73 112 83 123 93 105 6 -11 40 -50 76 -86z"/>
<path d="M5009 5912 c-8 -15 -46 -75 -82 -135 l-67 -108 151 3 152 3 83 133
82 132 -151 0 -152 0 -16 -28z"/>
</g>
</svg>
