<?xml version="1.0" standalone="no"?>
<!DOCTYPE svg PUBLIC "-//W3C//DTD SVG 20010904//EN"
 "http://www.w3.org/TR/2001/REC-SVG-20010904/DTD/svg10.dtd">
<svg version="1.0" xmlns="http://www.w3.org/2000/svg"
 width="920.000000pt" height="920.000000pt" viewBox="0 0 920.000000 920.000000"
 preserveAspectRatio="xMidYMid meet">
<metadata>
Created by potrace 1.16, written by Peter Selinger 2001-2019
</metadata>
<g transform="translate(0.000000,920.000000) scale(0.100000,-0.100000)"
fill="#000000" stroke="none">
<path d="M5480 7307 c-94 -61 -189 -130 -318 -229 -63 -49 -117 -88 -120 -88
-4 0 -39 13 -79 29 -135 55 -194 66 -363 66 -161 0 -193 -5 -330 -53 -89 -31
-173 -78 -255 -143 -208 -165 -330 -385 -356 -643 -24 -238 35 -468 169 -655
l53 -74 -25 -56 c-32 -71 -68 -174 -97 -276 -20 -66 -24 -104 -24 -220 0 -125
2 -144 22 -181 29 -55 70 -88 128 -104 40 -11 58 -11 123 3 176 39 369 174
521 366 18 23 28 41 23 41 -5 0 -15 -7 -22 -15 -17 -20 -165 -117 -225 -147
-27 -14 -82 -34 -122 -44 -71 -18 -73 -18 -120 2 -87 36 -116 114 -95 260 11
76 46 200 62 217 4 4 36 -9 71 -29 113 -64 226 -104 360 -127 123 -21 127 -21
247 -4 68 10 151 27 185 38 62 21 238 105 247 118 3 4 34 29 68 56 61 47 65
49 78 30 8 -10 14 -23 14 -28 0 -8 279 -1 330 8 28 5 284 15 655 26 204 6 384
12 400 14 17 2 82 4 145 5 139 2 120 14 -35 24 -315 19 -649 60 -869 106 -193
40 -456 124 -456 146 0 4 14 49 30 101 76 238 58 497 -50 715 -68 136 -164
253 -282 342 -21 16 -38 32 -38 36 0 11 280 283 395 383 43 38 30 33 -45 -16z
m-698 -296 c96 -23 165 -46 185 -63 11 -9 -18 -41 -148 -167 -337 -324 -617
-677 -818 -1031 -39 -69 -75 -132 -81 -140 -24 -38 -137 158 -181 315 -32 115
-32 315 0 435 71 266 252 479 507 596 154 71 371 93 536 55z m358 -166 c136
-105 246 -261 300 -424 32 -99 52 -238 45 -311 -2 -25 -6 -70 -9 -100 -3 -30
-17 -89 -31 -130 -15 -41 -29 -83 -32 -92 -3 -10 -10 -18 -15 -18 -31 0 -312
157 -338 189 -3 3 -22 19 -43 34 l-38 29 70 -134 c38 -73 97 -182 129 -242 45
-82 57 -114 50 -125 -17 -28 -147 -125 -216 -161 -166 -88 -356 -118 -557 -90
-119 17 -286 86 -364 149 l-34 28 53 109 c144 295 376 646 631 954 116 140
329 380 337 380 2 0 30 -20 62 -45z"/>
<path d="M1763 4303 c-56 -68 -503 -661 -503 -668 0 -3 195 -5 433 -5 476 0
495 2 576 60 23 17 69 67 102 112 62 83 68 106 45 159 -5 12 0 18 21 22 50 10
124 68 178 141 83 110 90 149 38 198 l-25 23 -413 3 -412 3 -40 -48z m486
-117 c8 -10 4 -22 -17 -52 -47 -64 -50 -65 -156 -62 l-97 3 46 63 47 62 83 0
c57 0 86 -4 94 -14z m-211 -292 c2 -14 -13 -38 -41 -70 l-45 -49 -97 -2 c-112
-2 -110 -5 -39 87 l48 61 85 -3 c79 -3 86 -5 89 -24z"/>
<path d="M3104 4340 c-61 -12 -134 -53 -175 -97 -20 -21 -111 -138 -203 -260
-175 -232 -185 -253 -156 -307 23 -44 42 -46 414 -46 475 0 461 -5 639 230
283 373 267 349 267 391 0 26 -8 47 -24 66 l-24 28 -349 2 c-191 1 -367 -3
-389 -7z m354 -162 c3 -15 -244 -356 -279 -385 -16 -13 -40 -16 -126 -14 -54
1 -63 4 -63 19 0 23 264 372 293 389 14 8 51 12 97 10 61 -2 75 -5 78 -19z"/>
<path d="M4209 4323 c-14 -16 -73 -91 -131 -168 -57 -77 -168 -224 -246 -327
-78 -103 -142 -190 -142 -193 0 -3 175 -5 390 -5 l389 0 52 68 51 67 -39 5
c-21 3 -104 4 -185 2 -82 -2 -149 1 -152 6 -3 5 17 39 45 76 l50 66 198 0 199
0 51 69 c28 38 51 71 51 74 0 3 -84 6 -187 7 -103 0 -189 2 -191 4 -2 2 18 32
44 65 l47 61 198 0 198 0 47 63 c26 34 52 68 57 75 8 9 -70 12 -380 12 l-389
0 -25 -27z"/>
<path d="M5179 4263 c-37 -49 -159 -211 -272 -360 l-206 -273 194 0 193 0 89
118 c48 64 158 209 243 322 85 113 157 207 160 210 11 9 40 54 40 62 0 5 -84
8 -188 8 l-187 0 -66 -87z"/>
<path d="M5648 4029 c-134 -176 -256 -338 -271 -360 l-28 -39 128 0 128 1 135
180 c117 157 135 177 142 159 5 -12 25 -94 45 -181 l36 -159 156 0 c138 0 157
2 167 18 6 9 127 170 269 357 l257 340 -118 3 c-65 1 -123 1 -129 -2 -6 -2
-71 -83 -143 -180 -73 -97 -136 -176 -140 -176 -4 0 -26 80 -48 178 l-40 177
-152 3 -151 3 -243 -322z"/>
<path d="M7154 4340 c-64 -13 -108 -35 -155 -77 -43 -39 -361 -455 -387 -505
-11 -22 -11 -35 -2 -63 22 -67 16 -66 431 -63 366 3 375 3 424 26 59 27 89 54
162 145 52 64 56 67 98 67 42 0 46 3 88 58 24 31 47 63 51 70 6 9 -43 12 -231
12 l-239 0 -79 -106 c-88 -119 -111 -134 -199 -134 -56 0 -93 20 -79 43 22 37
259 346 279 365 22 19 36 22 105 22 92 0 106 -12 70 -60 -11 -16 -21 -32 -21
-35 0 -3 85 -5 189 -5 l190 0 34 43 c45 55 57 79 57 114 0 41 -25 71 -68 83
-44 12 -656 12 -718 0z"/>
</g>
</svg>
