<?xml version="1.0" standalone="no"?>
<!DOCTYPE svg PUBLIC "-//W3C//DTD SVG 20010904//EN"
 "http://www.w3.org/TR/2001/REC-SVG-20010904/DTD/svg10.dtd">
<svg version="1.0" xmlns="http://www.w3.org/2000/svg"
 width="325.000000pt" height="325.000000pt" viewBox="0 0 325.000000 325.000000"
 preserveAspectRatio="xMidYMid meet">
<metadata>
Created by potrace 1.16, written by Peter Selinger 2001-2019
</metadata>
<g transform="translate(0.000000,325.000000) scale(0.100000,-0.100000)"
fill="#000000" stroke="none">
<path d="M174 2008 c-22 -10 -44 -47 -44 -72 0 -7 9 -25 21 -40 l20 -26 187 0
c288 0 294 -9 124 -183 -132 -136 -159 -182 -150 -261 8 -65 50 -130 105 -163
40 -23 61 -28 140 -31 105 -5 144 6 162 44 16 36 14 50 -12 79 -21 25 -28 27
-114 28 -99 2 -133 18 -133 61 0 13 48 71 125 153 133 141 154 179 140 252
-16 85 -63 138 -140 160 -51 14 -402 13 -431 -1z"/>
<path d="M1095 2006 c-67 -17 -121 -45 -175 -94 l-45 -39 180 -5 c176 -4 181
-5 233 -33 215 -117 138 -446 -104 -445 -142 1 -237 102 -234 249 2 97 2 99
-20 121 -28 28 -71 26 -101 -6 -22 -24 -24 -33 -24 -132 0 -98 2 -112 29 -167
95 -192 320 -274 510 -185 150 71 246 255 217 416 -31 167 -152 294 -310 324
-66 12 -92 12 -156 -4z"/>
<path d="M1746 2006 c-47 -18 -94 -60 -112 -103 -30 -70 -10 -178 43 -226 11
-9 98 -53 194 -98 95 -44 181 -87 191 -96 24 -22 23 -56 -3 -79 -19 -17 -41
-19 -212 -22 -217 -4 -227 -7 -227 -73 0 -29 6 -42 27 -59 26 -21 36 -21 228
-18 185 3 203 5 242 25 120 65 149 226 59 328 -23 26 -77 56 -206 116 -96 44
-181 85 -187 91 -23 19 -15 58 13 68 14 6 108 10 210 10 171 0 185 1 204 20
25 25 26 71 1 101 -19 24 -22 24 -223 26 -154 2 -212 -1 -242 -11z"/>
<path d="M2420 2009 c-116 -34 -173 -165 -119 -276 27 -57 47 -69 245 -159 93
-42 175 -81 182 -86 18 -15 15 -73 -5 -89 -12 -10 -67 -15 -215 -19 -183 -5
-201 -7 -214 -24 -20 -28 -17 -69 5 -97 19 -23 24 -24 198 -27 208 -4 268 5
319 50 99 87 100 245 2 323 -18 14 -108 61 -201 103 -92 43 -172 83 -178 89
-17 17 -2 60 23 67 13 3 107 6 209 6 167 0 188 2 202 18 24 27 22 85 -4 108
-19 17 -40 19 -218 21 -110 1 -211 -3 -231 -8z"/>
<path d="M2982 1990 c-28 -12 -52 -66 -45 -102 13 -67 98 -95 147 -49 33 31
41 72 22 110 -25 48 -69 63 -124 41z m91 -20 c74 -58 8 -172 -80 -135 -34 14
-43 31 -43 80 0 24 7 39 26 54 33 26 64 27 97 1z"/>
<path d="M2990 1910 c0 -27 5 -50 10 -50 6 0 10 7 10 15 0 20 20 19 36 -2 16
-23 29 -11 15 15 -7 13 -7 22 1 30 17 17 -9 42 -43 42 -28 0 -29 -2 -29 -50z
m53 15 c1 -5 -6 -11 -15 -13 -11 -2 -18 3 -18 13 0 17 30 18 33 0z"/>
<path d="M159 1761 c-24 -19 -24 -22 -27 -237 -2 -147 1 -226 8 -245 22 -53
103 -60 129 -10 7 12 11 105 11 245 l0 225 -26 20 c-33 26 -65 27 -95 2z"/>
</g>
</svg>
