<?xml version="1.0" standalone="no"?>
<!DOCTYPE svg PUBLIC "-//W3C//DTD SVG 20010904//EN"
 "http://www.w3.org/TR/2001/REC-SVG-20010904/DTD/svg10.dtd">
<svg version="1.0" xmlns="http://www.w3.org/2000/svg"
 width="800.000000pt" height="800.000000pt" viewBox="0 0 800.000000 800.000000"
 preserveAspectRatio="xMidYMid meet">
<metadata>
Created by potrace 1.16, written by Peter Selinger 2001-2019
</metadata>
<g transform="translate(0.000000,800.000000) scale(0.100000,-0.100000)"
fill="#000000" stroke="none">
<path d="M5618 5263 c7 -3 16 -2 19 1 4 3 -2 6 -13 5 -11 0 -14 -3 -6 -6z"/>
<path d="M5465 5216 c-49 -18 -126 -45 -170 -60 -44 -16 -154 -55 -245 -88
-266 -98 -378 -138 -495 -180 -60 -21 -132 -47 -160 -58 -58 -21 -304 -112
-450 -165 -55 -20 -156 -56 -225 -81 -69 -25 -154 -56 -190 -69 -74 -26 -459
-167 -535 -195 -131 -49 -258 -95 -335 -122 -47 -16 -177 -63 -290 -105 -113
-41 -227 -83 -255 -93 -27 -10 -81 -30 -120 -44 -163 -60 -496 -180 -564 -203
-60 -21 -75 -23 -82 -12 -4 8 -62 163 -128 344 -321 886 -390 1069 -398 1061
-2 -1 4 -22 12 -46 19 -54 19 -74 -1 -35 -8 17 -12 22 -9 12 3 -10 -2 -26 -11
-35 -15 -15 -16 -14 -9 8 7 24 7 24 -15 -3 -20 -25 -23 -26 -35 -11 -6 9 -17
14 -23 10 -6 -3 -13 -2 -17 4 -4 6 -11 8 -16 5 -5 -4 -9 -1 -9 6 0 7 -3 10 -6
6 -3 -3 5 -38 19 -79 29 -86 252 -704 337 -933 59 -160 99 -271 166 -460 20
-55 37 -101 38 -102 1 -2 94 31 207 73 112 41 247 90 299 109 52 18 201 72
330 120 251 92 435 159 565 205 44 15 136 49 205 74 122 46 501 184 670 245
47 16 184 67 305 111 248 91 425 156 565 205 52 19 131 47 175 63 79 30 293
108 495 182 58 21 161 59 230 85 69 25 145 53 170 61 77 26 200 78 195 82 -2
2 -29 -5 -59 -16 -60 -21 -111 -20 -81 2 14 10 12 12 -11 14 -31 2 -45 13 -26
19 6 3 12 9 12 14 0 13 -34 11 -47 -2 -7 -7 -9 -3 -6 15 4 21 2 24 -18 20 -21
-4 -22 -3 -4 5 11 4 23 7 28 4 4 -2 19 5 33 16 15 12 34 21 43 21 10 0 26 7
37 15 28 22 9 18 -91 -19z m-4745 -199 c0 -18 -2 -19 -10 -7 -13 20 -13 43 0
35 6 -3 10 -16 10 -28z m4690 19 c0 -2 -7 -7 -16 -10 -8 -3 -12 -2 -9 4 6 10
25 14 25 6z m-4570 -41 c0 -5 -5 -3 -10 5 -5 8 -10 20 -10 25 0 6 5 3 10 -5 5
-8 10 -19 10 -25z"/>
<path d="M3676 3498 c-10 -57 -20 -116 -22 -133 l-5 -30 184 3 184 3 17 102
c10 56 20 114 23 130 l6 27 -185 0 -185 0 -17 -102z"/>
<path d="M2099 3229 c-277 -65 -469 -303 -469 -581 0 -110 25 -183 87 -249 42
-45 132 -100 184 -113 181 -42 403 -14 546 69 26 16 66 46 90 68 41 37 103
121 103 139 0 4 -78 8 -173 8 l-174 0 -24 -26 c-93 -101 -264 -54 -277 76 l-5
50 354 2 354 3 7 70 c13 130 -20 261 -87 349 -39 52 -125 106 -202 127 -72 20
-245 25 -314 8z m183 -225 c43 -21 69 -56 75 -105 l6 -39 -167 0 c-182 0 -182
0 -152 58 43 83 158 125 238 86z"/>
<path d="M3354 3216 c-64 -30 -119 -78 -155 -136 -33 -52 -34 -50 -14 53 8 43
15 81 15 83 0 2 -74 4 -165 4 -123 0 -167 -3 -170 -12 -3 -7 -25 -128 -50
-268 -24 -140 -49 -280 -55 -310 -15 -81 -60 -333 -60 -337 0 -1 83 -3 185 -3
102 0 185 2 185 5 0 43 77 403 94 440 48 105 105 140 229 140 74 0 87 2 87 17
0 9 13 90 30 180 16 89 30 164 30 166 0 1 -30 2 -67 2 -50 0 -81 -6 -119 -24z"/>
<path d="M5342 3220 c-190 -50 -336 -188 -400 -378 -22 -65 -26 -95 -27 -192
0 -99 3 -122 23 -165 39 -86 139 -171 229 -194 239 -64 503 -2 650 152 110
115 168 272 161 436 -5 115 -25 168 -92 239 -51 54 -131 96 -216 112 -86 16
-246 11 -328 -10z m231 -242 c27 -14 57 -86 57 -138 0 -111 -54 -249 -116
-296 -29 -23 -47 -28 -91 -28 -50 -1 -57 2 -89 36 -23 26 -34 48 -35 70 -2 89
3 139 23 203 43 138 152 204 251 153z"/>
<path d="M6655 3222 c-57 -20 -136 -72 -179 -117 l-28 -30 6 38 c3 20 9 53 12
72 l6 35 -169 0 -168 0 -24 -132 c-12 -73 -33 -191 -46 -263 -13 -71 -37 -211
-54 -310 -18 -99 -34 -190 -36 -202 l-5 -23 184 0 184 0 22 123 c12 67 33 183
46 257 29 161 44 207 84 245 26 25 41 30 95 33 58 4 66 2 89 -21 22 -22 26
-35 26 -82 0 -44 -64 -440 -87 -532 l-5 -23 185 0 186 0 10 53 c10 49 18 94
78 437 18 104 23 164 19 213 -9 122 -67 202 -168 232 -69 20 -200 19 -263 -3z"/>
<path d="M720 3213 c0 -5 11 -73 25 -153 14 -80 30 -174 35 -210 6 -36 29
-175 53 -310 l42 -245 208 0 208 0 115 225 c63 124 169 329 235 457 65 128
119 235 119 238 0 3 -79 4 -176 3 l-176 -3 -69 -155 c-39 -85 -96 -212 -127
-282 -31 -70 -59 -128 -62 -128 -3 0 -16 105 -29 233 -13 127 -26 255 -30 282
l-6 50 -182 3 c-101 1 -183 -1 -183 -5z"/>
<path d="M3629 3218 c-1 -2 -38 -210 -83 -463 l-82 -460 179 -3 c99 -1 182 -1
184 1 4 4 36 181 126 685 l43 242 -183 0 c-101 0 -183 -1 -184 -2z"/>
<path d="M4120 3212 c-25 -3 -27 -8 -44 -115 -10 -62 -20 -120 -23 -129 -4
-17 12 -18 227 -18 l232 0 -34 -44 c-18 -25 -121 -160 -228 -301 -362 -475
-327 -422 -345 -522 -8 -48 -17 -100 -20 -115 l-4 -28 902 1 c496 0 920 4 942
8 34 7 25 9 -55 12 l-95 3 80 6 c76 6 77 6 25 9 -48 3 -51 4 -25 11 29 7 29 8
5 10 -18 2 -20 4 -7 7 12 3 17 15 17 44 0 21 4 39 9 39 5 0 11 20 12 44 2 24
1 42 -3 39 -5 -2 -8 0 -8 6 0 6 35 12 83 14 45 1 -246 5 -648 7 -401 1 -740 2
-752 1 -37 -3 -58 -33 211 319 70 91 172 225 227 297 55 73 106 138 113 145 7
7 20 54 29 103 9 50 19 104 23 121 l6 30 -414 0 c-227 -1 -424 -2 -438 -4z"/>
</g>
</svg>
