<?xml version="1.0" standalone="no"?>
<!DOCTYPE svg PUBLIC "-//W3C//DTD SVG 20010904//EN"
 "http://www.w3.org/TR/2001/REC-SVG-20010904/DTD/svg10.dtd">
<svg version="1.0" xmlns="http://www.w3.org/2000/svg"
 width="1000.000000pt" height="1000.000000pt" viewBox="0 0 1000.000000 1000.000000"
 preserveAspectRatio="xMidYMid meet">
<metadata>
Created by potrace 1.16, written by Peter Selinger 2001-2019
</metadata>
<g transform="translate(0.000000,1000.000000) scale(0.100000,-0.100000)"
fill="#000000" stroke="none">
<path d="M4775 7139 c-469 -49 -913 -261 -1263 -603 -156 -153 -299 -343 -386
-513 l-26 -52 43 -25 c23 -13 83 -42 132 -64 250 -109 483 -149 805 -139 226
7 398 27 685 78 519 93 745 125 955 137 206 11 643 7 755 -7 117 -14 328 -67
438 -110 42 -16 77 -24 77 -19 0 40 -210 391 -319 533 -62 81 -229 253 -321
330 -274 228 -638 392 -983 440 -27 3 -59 9 -70 11 -45 10 -435 12 -522 3z"/>
<path d="M2770 5015 l0 -515 150 0 c113 0 150 3 151 13 0 6 1 80 2 162 l2 150
265 5 265 5 46 27 c54 32 113 112 135 184 20 64 20 177 0 246 -23 79 -90 166
-157 203 l-54 30 -402 3 -403 3 0 -516z m706 232 c39 -45 25 -139 -23 -158
-13 -5 -104 -9 -202 -9 l-178 0 -2 101 -2 100 191 -3 192 -3 24 -28z"/>
<path d="M4073 5519 c-100 -19 -165 -67 -199 -148 -62 -144 -68 -511 -13 -681
16 -48 33 -76 65 -107 75 -73 98 -77 502 -81 l352 -3 0 125 0 126 -304 0 -304
0 -27 31 c-20 24 -25 41 -23 68 2 23 8 36 18 37 8 1 147 2 308 2 l292 2 0 125
0 125 -310 0 -310 0 0 39 c0 29 7 47 29 70 l29 31 301 0 301 0 0 125 0 125
-332 -1 c-183 -1 -352 -5 -375 -10z"/>
<path d="M4830 5015 l0 -515 150 0 150 0 0 165 0 165 262 0 c310 0 321 3 393
101 113 154 97 385 -37 517 -80 80 -94 82 -533 82 l-385 0 0 -515z m680 252
c54 -27 62 -116 14 -164 -22 -22 -28 -23 -209 -23 l-185 0 0 100 0 100 178 0
c122 0 185 -4 202 -13z"/>
<path d="M6105 5516 c-97 -24 -147 -66 -189 -156 -17 -38 -21 -65 -21 -165 0
-108 2 -125 25 -170 31 -62 92 -110 160 -124 29 -6 155 -11 290 -11 236 0 239
0 254 -22 22 -30 20 -81 -2 -101 -17 -15 -57 -17 -365 -17 l-347 0 0 -125 0
-125 358 0 c394 0 460 7 541 58 90 55 141 155 141 277 0 148 -35 226 -123 272
l-52 28 -276 5 c-308 6 -309 6 -309 71 0 69 -1 69 382 69 l338 0 0 125 0 125
-377 -1 c-264 0 -393 -4 -428 -13z"/>
<path d="M6970 5020 l0 -510 145 0 145 0 0 510 0 510 -145 0 -145 0 0 -510z"/>
<path d="M5805 4283 c-197 -13 -447 -48 -705 -99 -505 -100 -658 -117 -1075
-120 -187 -1 -374 2 -415 7 -225 28 -372 62 -516 119 -41 17 -77 30 -79 30 -8
0 72 -154 136 -262 112 -189 234 -342 400 -503 126 -122 176 -164 294 -242
255 -172 548 -283 865 -329 145 -21 441 -24 565 -6 489 73 907 281 1245 621
149 150 268 307 378 503 l32 56 -117 60 c-180 92 -346 141 -537 161 -78 8
-367 10 -471 4z"/>
</g>
</svg>
