<?xml version="1.0" standalone="no"?>
<!DOCTYPE svg PUBLIC "-//W3C//DTD SVG 20010904//EN"
 "http://www.w3.org/TR/2001/REC-SVG-20010904/DTD/svg10.dtd">
<svg version="1.0" xmlns="http://www.w3.org/2000/svg"
 width="1024.000000pt" height="1024.000000pt" viewBox="0 0 1024.000000 1024.000000"
 preserveAspectRatio="xMidYMid meet">
<metadata>
Created by potrace 1.16, written by Peter Selinger 2001-2019
</metadata>
<g transform="translate(0.000000,1024.000000) scale(0.100000,-0.100000)"
fill="#000000" stroke="none">
<path d="M450 5120 l0 -3140 4670 0 4670 0 0 3140 0 3140 -4670 0 -4670 0 0
-3140z m9180 0 l0 -2990 -4510 0 -4510 0 0 2990 0 2990 4510 0 4510 0 0 -2990z"/>
<path d="M838 7250 l-3 -570 4278 0 4277 0 0 570 0 570 -4275 0 -4275 0 -2
-570z"/>
<path d="M5693 6105 c-167 -30 -325 -107 -415 -201 -98 -104 -160 -263 -161
-414 -1 -113 17 -166 87 -264 70 -99 179 -185 416 -331 166 -103 207 -158 180
-240 -17 -51 -85 -117 -136 -133 -56 -16 -217 -15 -302 3 -92 19 -158 46 -275
112 -54 31 -99 54 -101 52 -15 -16 -236 -361 -236 -368 0 -14 185 -105 283
-140 256 -90 607 -106 827 -39 230 71 412 258 476 493 44 160 -16 326 -172
476 -87 83 -118 106 -285 212 -139 89 -223 164 -235 212 -27 107 80 197 236
198 108 1 199 -30 316 -109 l95 -63 137 161 c75 88 138 163 139 167 4 8 -96
71 -172 109 -215 106 -481 147 -702 107z"/>
<path d="M1986 6064 c-11 -28 -7 -31 60 -37 164 -16 278 -118 318 -287 9 -36
52 -393 96 -795 44 -401 82 -745 85 -762 l6 -33 267 0 267 0 26 48 c15 26 261
460 547 965 l520 917 -271 -2 -271 -3 -69 -120 c-506 -878 -599 -1049 -613
-1122 -14 -73 -21 -23 -27 180 -5 199 -52 964 -63 1035 l-5 32 -433 0 c-386 0
-435 -2 -440 -16z"/>
<path d="M4455 6068 c-13 -35 -567 -1867 -572 -1890 l-5 -28 255 0 256 0 30
98 c89 288 541 1783 546 1805 l7 27 -256 0 c-196 0 -258 -3 -261 -12z"/>
<path d="M7362 6068 c-11 -14 -1022 -1907 -1022 -1914 0 -2 125 -4 278 -4
l279 0 66 143 66 142 330 3 329 2 6 -117 c4 -65 8 -129 9 -143 l2 -25 263 -3
262 -2 -7 72 c-3 40 -43 474 -87 963 l-81 890 -341 3 c-265 2 -344 -1 -352
-10z m297 -1073 c6 -88 11 -170 11 -182 l0 -23 -230 0 c-126 0 -230 3 -230 6
0 4 45 104 99 223 133 290 265 586 299 669 l27 67 7 -300 c3 -165 11 -372 17
-460z"/>
<path d="M8352 5997 c-70 -39 -77 -144 -14 -200 29 -27 92 -33 130 -13 106 55
67 227 -51 226 -23 -1 -52 -6 -65 -13z m131 -37 c60 -66 17 -170 -70 -170 -50
0 -80 22 -94 69 -10 33 -9 45 7 77 35 71 104 81 157 24z"/>
<path d="M8370 5888 c0 -39 3 -68 8 -64 4 4 7 17 7 29 0 33 28 31 48 -4 10
-18 20 -29 24 -26 3 4 -2 18 -11 32 -15 22 -15 26 -1 31 8 4 15 18 15 34 0 23
-5 29 -31 34 -59 12 -59 12 -59 -66z m75 32 c0 -19 -45 -26 -56 -9 -12 20 0
30 29 27 16 -2 27 -9 27 -18z"/>
<path d="M9139 2652 c-27 -24 -33 -38 -37 -83 -4 -48 -1 -59 22 -86 54 -64
138 -64 191 -2 19 24 25 42 25 81 0 44 -4 54 -34 84 -30 30 -40 34 -85 34 -42
0 -56 -5 -82 -28z m140 -18 c27 -22 31 -32 31 -75 0 -66 -30 -99 -90 -99 -58
0 -90 33 -90 95 0 38 5 52 29 76 37 37 79 38 120 3z"/>
<path d="M9177 2623 c-4 -3 -7 -35 -7 -70 0 -49 3 -63 15 -63 10 0 15 10 15
33 l1 32 28 -32 c35 -41 61 -45 32 -5 -19 28 -19 28 0 40 25 16 24 37 -3 56
-23 16 -69 21 -81 9z m73 -39 c0 -8 -10 -14 -25 -14 -18 0 -25 5 -25 19 0 14
6 17 25 13 14 -2 25 -11 25 -18z"/>
</g>
</svg>
