<?xml version="1.0" standalone="no"?>
<!DOCTYPE svg PUBLIC "-//W3C//DTD SVG 20010904//EN"
 "http://www.w3.org/TR/2001/REC-SVG-20010904/DTD/svg10.dtd">
<svg version="1.0" xmlns="http://www.w3.org/2000/svg"
 width="600.000000pt" height="600.000000pt" viewBox="0 0 600.000000 600.000000"
 preserveAspectRatio="xMidYMid meet">
<metadata>
Created by potrace 1.16, written by Peter Selinger 2001-2019
</metadata>
<g transform="translate(0.000000,600.000000) scale(0.100000,-0.100000)"
fill="#000000" stroke="none">
<path d="M0 3000 l0 -3000 3000 0 3000 0 0 3000 0 3000 -3000 0 -3000 0 0
-3000z m4106 2095 c3 -8 -38 -162 -91 -342 -53 -181 -144 -488 -202 -683 -132
-446 -173 -589 -173 -601 0 -5 355 -10 898 -11 871 -3 897 -4 897 -22 0 -15
-88 -60 -430 -223 -236 -112 -705 -335 -1042 -495 l-611 -291 -122 -491 c-67
-270 -151 -612 -187 -761 -36 -148 -70 -276 -76 -283 -8 -11 -13 -11 -24 0
-11 12 -4 61 42 303 31 160 81 421 111 580 31 160 78 405 104 545 27 140 74
388 105 550 31 162 78 410 105 550 27 140 65 341 85 445 20 105 43 221 50 258
7 37 9 67 5 65 -5 -2 -186 -165 -404 -363 l-396 -360 258 -5 c161 -3 257 -9
257 -15 0 -5 -4 -43 -8 -84 l-8 -73 -72 6 c-199 17 -758 48 -1127 61 -1020 36
-1527 56 -1548 61 -15 3 -22 11 -20 22 3 16 71 17 1038 22 l1035 5 398 430
c220 237 481 518 581 626 410 443 549 589 557 589 5 0 12 -7 15 -15z m-1577
-1851 c2 -2 2 -5 0 -7 -2 -2 -121 -111 -263 -242 -613 -566 -699 -643 -713
-638 -8 3 -13 12 -11 20 2 8 193 211 425 452 l423 438 67 -9 c37 -5 70 -11 72
-14z m586 -756 c-2 -13 -9 -59 -15 -102 -6 -44 -11 -81 -13 -82 -3 -3 -502
-256 -1181 -598 -313 -158 -575 -285 -582 -282 -32 12 -7 36 114 106 70 41
174 102 232 136 58 34 299 175 535 314 460 269 530 310 755 443 80 48 148 86
153 87 4 0 5 -10 2 -22z"/>
<path d="M3570 3228 c-14 -52 -92 -339 -125 -458 -13 -46 -23 -85 -22 -86 1
-1 67 38 147 86 80 48 269 160 420 250 359 213 342 202 337 206 -4 4 -657 44
-719 44 -24 0 -29 -6 -38 -42z"/>
</g>
</svg>
