<?xml version="1.0" standalone="no"?>
<!DOCTYPE svg PUBLIC "-//W3C//DTD SVG 20010904//EN"
 "http://www.w3.org/TR/2001/REC-SVG-20010904/DTD/svg10.dtd">
<svg version="1.0" xmlns="http://www.w3.org/2000/svg"
 width="900.000000pt" height="900.000000pt" viewBox="0 0 900.000000 900.000000"
 preserveAspectRatio="xMidYMid meet">
<metadata>
Created by potrace 1.16, written by Peter Selinger 2001-2019
</metadata>
<g transform="translate(0.000000,900.000000) scale(0.100000,-0.100000)"
fill="#000000" stroke="none">
<path d="M1410 5614 l0 -2177 153 -156 c199 -204 572 -588 1102 -1136 166
-170 391 -403 500 -516 l200 -206 5 1011 5 1011 1690 5 c1575 5 1692 6 1721
22 52 29 102 95 114 152 8 36 10 619 8 2026 l-3 1975 -22 40 c-27 51 -68 90
-115 109 -33 14 -315 16 -2698 16 l-2660 0 0 -2176z m4608 1630 c63 -31 138
-111 174 -186 85 -173 84 -461 -3 -793 -85 -329 -213 -593 -483 -995 -413
-617 -857 -974 -1323 -1067 -114 -22 -348 -22 -451 0 -99 22 -195 75 -287 159
-64 60 -80 70 -94 60 -61 -42 -214 -129 -286 -163 -174 -82 -372 -110 -523
-74 -84 20 -198 73 -246 116 -80 69 -141 195 -178 364 -20 93 -17 400 5 503
61 287 289 756 580 1190 38 57 67 105 65 107 -2 2 -40 -2 -83 -10 -103 -18
-245 -18 -415 0 -330 35 -455 31 -549 -21 -24 -13 -47 -22 -50 -19 -13 13 42
205 83 290 96 198 231 289 446 302 73 4 143 -1 305 -23 174 -24 246 -28 420
-29 219 0 319 13 529 66 43 11 80 18 83 15 3 -2 -53 -80 -124 -173 -169 -222
-194 -255 -299 -408 -377 -545 -554 -971 -557 -1335 -1 -237 63 -394 183 -444
67 -28 156 -38 218 -26 61 13 168 63 235 109 l41 28 3 108 c9 307 105 649 282
1004 216 433 514 751 841 898 257 115 452 110 531 -15 38 -60 49 -101 49 -187
0 -220 -155 -553 -488 -1049 -158 -235 -395 -541 -486 -625 -31 -29 -32 -40
-7 -89 30 -59 97 -128 146 -151 133 -62 342 -22 527 101 166 111 346 305 502
541 117 178 161 261 226 429 159 412 189 731 88 944 -12 26 -57 90 -100 142
l-78 94 106 112 c58 61 124 126 147 145 104 83 201 102 295 55z"/>
<path d="M4513 6351 c-81 -55 -202 -183 -271 -289 -77 -119 -208 -380 -269
-537 -52 -133 -97 -292 -91 -322 9 -46 303 266 462 490 60 85 190 325 227 421
36 93 59 229 43 254 -18 28 -38 25 -101 -17z"/>
</g>
</svg>
