<?xml version="1.0" standalone="no"?>
<!DOCTYPE svg PUBLIC "-//W3C//DTD SVG 20010904//EN"
 "http://www.w3.org/TR/2001/REC-SVG-20010904/DTD/svg10.dtd">
<svg version="1.0" xmlns="http://www.w3.org/2000/svg"
 width="866.000000pt" height="866.000000pt" viewBox="0 0 866.000000 866.000000"
 preserveAspectRatio="xMidYMid meet">
<metadata>
Created by potrace 1.16, written by Peter Selinger 2001-2019
</metadata>
<g transform="translate(0.000000,866.000000) scale(0.100000,-0.100000)"
fill="#000000" stroke="none">
<path d="M1077 6024 c-4 -4 -7 -135 -7 -291 l0 -283 -225 0 -225 0 0 -195 0
-195 226 -2 226 -3 -2 -395 c0 -217 -3 -396 -5 -398 -2 -2 -93 -17 -202 -33
-109 -16 -208 -32 -220 -34 -23 -5 -23 -6 -23 -211 l0 -205 33 6 c26 4 351 51
407 58 13 2 15 -42 15 -343 0 -190 -3 -358 -8 -373 -4 -15 -22 -36 -40 -47
-29 -18 -51 -20 -204 -20 l-173 0 0 -196 0 -195 288 3 287 3 63 34 c74 40 115
84 151 161 l26 55 5 490 5 490 185 28 c102 15 191 29 198 32 9 3 12 53 12 203
0 109 -2 201 -5 204 -3 2 -85 -8 -182 -23 -98 -16 -186 -29 -195 -29 -17 0
-18 24 -18 370 l0 370 200 0 200 0 -2 193 -3 192 -197 3 -198 2 -2 288 -3 287
-191 3 c-104 1 -193 -1 -197 -4z"/>
<path d="M3300 5006 l0 -1025 -42 -6 c-24 -3 -252 -23 -508 -45 -256 -21 -527
-45 -602 -51 l-138 -12 0 -204 0 -203 35 0 c32 0 843 67 1095 90 58 6 117 10
133 10 l27 0 0 -460 0 -460 195 0 195 0 0 479 0 478 53 6 c28 3 118 12 200 18
l147 13 0 208 0 209 -32 -5 c-18 -3 -91 -10 -163 -16 -71 -6 -147 -13 -167
-15 l-38 -5 0 1010 0 1010 -195 0 -195 0 0 -1024z"/>
<path d="M6070 5918 c15 -62 30 -123 34 -135 l7 -23 -710 0 -711 0 0 -190 0
-190 1620 0 1620 0 0 190 0 190 -657 2 -657 3 -31 130 -31 130 -256 3 -255 2
27 -112z"/>
<path d="M2170 5529 c0 -115 3 -209 7 -209 8 0 229 -39 633 -111 151 -27 278
-49 283 -49 4 0 7 92 7 205 0 204 0 205 -22 209 -53 12 -593 109 -860 155
l-48 8 0 -208z"/>
<path d="M5315 5178 c7 -33 45 -271 45 -285 0 -10 -85 -13 -390 -13 l-390 0 0
-190 0 -190 1730 0 1730 0 0 190 0 190 -380 0 -380 0 0 23 c0 12 12 78 25 147
14 69 25 131 25 138 0 9 -47 12 -204 12 l-204 0 -10 -47 c-6 -27 -20 -99 -33
-161 l-22 -112 -541 2 -540 3 -7 40 c-3 22 -14 93 -24 158 l-17 117 -209 0
-209 0 5 -22z"/>
<path d="M2170 4668 c0 -114 3 -208 8 -208 4 0 70 -11 147 -25 417 -75 757
-135 765 -135 6 0 10 78 10 204 0 186 -2 205 -17 210 -16 5 -534 98 -810 145
l-103 18 0 -209z"/>
<path d="M5129 4204 c-68 -21 -140 -72 -177 -128 -63 -94 -63 -100 -60 -658 3
-488 4 -504 24 -548 31 -64 98 -137 158 -168 l51 -27 1167 -3 c1158 -2 1167
-2 1222 18 68 26 144 92 174 153 40 80 43 133 40 640 l-3 482 -26 55 c-36 77
-77 121 -151 161 l-63 34 -1155 2 c-980 2 -1162 0 -1201 -13z m2202 -373 c28
-29 29 -32 29 -130 l0 -101 -1047 2 -1048 3 0 103 c0 101 1 104 28 128 l28 24
990 0 991 0 29 -29z m29 -641 c0 -97 -14 -141 -49 -160 -13 -7 -345 -10 -996
-10 -1060 0 -1017 -2 -1043 55 -7 14 -12 66 -12 115 l0 90 1050 0 1050 0 0
-90z"/>
</g>
</svg>
