<?xml version="1.0" standalone="no"?>
<!DOCTYPE svg PUBLIC "-//W3C//DTD SVG 20010904//EN"
 "http://www.w3.org/TR/2001/REC-SVG-20010904/DTD/svg10.dtd">
<svg version="1.0" xmlns="http://www.w3.org/2000/svg"
 width="299.000000pt" height="299.000000pt" viewBox="0 0 299.000000 299.000000"
 preserveAspectRatio="xMidYMid meet">
<metadata>
Created by potrace 1.16, written by Peter Selinger 2001-2019
</metadata>
<g transform="translate(0.000000,299.000000) scale(0.100000,-0.100000)"
fill="#000000" stroke="none">
<path d="M280 1447 l0 -323 48 6 47 5 5 175 5 175 54 -157 c30 -87 57 -162 60
-167 3 -5 30 -6 59 -4 l52 6 0 303 0 304 -50 0 -50 0 -2 -182 -3 -183 -65 182
-65 183 -47 0 -48 0 0 -323z"/>
<path d="M710 1469 c0 -250 2 -300 14 -296 7 3 70 9 140 13 l126 7 0 49 0 49
-90 -7 -90 -7 0 82 0 81 70 0 70 0 0 45 0 45 -70 0 -70 0 0 70 0 70 90 0 90 0
0 50 0 50 -140 0 -140 0 0 -301z"/>
<path d="M1060 1720 l0 -50 55 0 55 0 0 -235 0 -235 34 0 c69 0 66 -12 66 241
l0 229 50 0 50 0 0 50 0 50 -155 0 -155 0 0 -50z"/>
<path d="M1450 1490 l0 -280 45 0 45 0 0 115 0 115 70 0 70 0 0 50 0 50 -70 0
-70 0 0 65 0 65 95 0 95 0 0 50 0 50 -140 0 -140 0 0 -280z"/>
<path d="M1800 1485 l0 -285 68 0 c37 0 97 -3 135 -7 l67 -6 0 51 0 51 -87 3
-88 3 -3 238 -2 237 -45 0 -45 0 0 -285z"/>
<path d="M2160 1476 l0 -294 50 -4 50 -3 0 298 0 297 -50 0 -50 0 0 -294z"/>
<path d="M2392 1668 c22 -57 48 -126 59 -153 l19 -51 -64 -146 c-62 -141 -63
-146 -43 -152 33 -9 87 -7 87 3 0 5 16 44 36 87 l36 79 35 -95 c20 -52 37 -96
38 -98 2 -2 28 -7 58 -11 l55 -7 -20 50 c-62 156 -108 279 -108 288 0 5 29 77
64 159 l64 149 -54 0 c-53 0 -54 -1 -69 -37 -9 -21 -26 -60 -38 -87 l-23 -49
-33 86 -34 87 -53 0 -52 0 40 -102z"/>
</g>
</svg>
