<?xml version="1.0" standalone="no"?>
<!DOCTYPE svg PUBLIC "-//W3C//DTD SVG 20010904//EN"
 "http://www.w3.org/TR/2001/REC-SVG-20010904/DTD/svg10.dtd">
<svg version="1.0" xmlns="http://www.w3.org/2000/svg"
 width="242.000000pt" height="242.000000pt" viewBox="0 0 242.000000 242.000000"
 preserveAspectRatio="xMidYMid meet">
<metadata>
Created by potrace 1.16, written by Peter Selinger 2001-2019
</metadata>
<g transform="translate(0.000000,242.000000) scale(0.100000,-0.100000)"
fill="#000000" stroke="none">
<path d="M280 1210 l0 -920 930 0 930 0 0 920 0 920 -930 0 -930 0 0 -920z
m1516 211 l-34 -130 150 -3 151 -3 -176 -90 -175 -90 -33 -120 c-18 -66 -36
-124 -41 -129 -12 -14 -10 -4 16 119 14 60 23 111 22 112 -1 2 -107 -49 -236
-112 -128 -64 -235 -114 -237 -111 -4 4 22 19 294 167 l192 104 11 48 c5 26
10 52 10 57 0 6 -33 10 -73 10 -69 0 -75 -2 -103 -31 -43 -46 -151 -137 -135
-114 8 11 44 50 79 86 l64 66 -519 8 c-285 4 -554 10 -598 15 -46 4 178 8 532
9 l611 1 128 135 c70 74 129 133 131 131 2 -2 -11 -63 -31 -135z"/>
<path d="M1680 1355 l-64 -65 51 0 c52 0 52 0 62 38 16 65 21 92 18 92 -1 0
-32 -29 -67 -65z"/>
<path d="M1741 1213 c-6 -21 -11 -41 -11 -46 0 -8 75 28 133 63 l32 20 -72 0
-72 0 -10 -37z"/>
</g>
</svg>
