<?xml version="1.0" standalone="no"?>
<!DOCTYPE svg PUBLIC "-//W3C//DTD SVG 20010904//EN"
 "http://www.w3.org/TR/2001/REC-SVG-20010904/DTD/svg10.dtd">
<svg version="1.0" xmlns="http://www.w3.org/2000/svg"
 width="1024.000000pt" height="1024.000000pt" viewBox="0 0 1024.000000 1024.000000"
 preserveAspectRatio="xMidYMid meet">
<metadata>
Created by potrace 1.16, written by Peter Selinger 2001-2019
</metadata>
<g transform="translate(0.000000,1024.000000) scale(0.100000,-0.100000)"
fill="#000000" stroke="none">
<path d="M5225 7706 c-37 -16 -83 -68 -91 -102 -10 -41 2 -110 25 -142 12 -17
39 -39 61 -48 38 -17 40 -20 39 -63 0 -48 -146 -1610 -148 -1601 -1 3 -100
337 -220 743 l-217 738 37 38 c78 78 57 205 -42 256 -43 23 -120 19 -160 -8
-37 -24 -79 -97 -79 -137 0 -36 40 -110 72 -133 15 -11 44 -23 64 -26 l38 -6
93 -765 c51 -421 92 -771 90 -778 -1 -6 -143 240 -316 549 -260 465 -312 564
-303 578 51 71 60 145 24 203 -82 132 -285 85 -299 -69 -10 -94 60 -175 152
-177 l42 -1 272 -818 c218 -654 279 -826 305 -860 98 -130 336 -208 636 -208
294 0 524 71 640 198 40 44 53 69 74 136 37 125 466 1596 466 1600 0 3 19 7
42 10 77 10 138 78 138 154 0 96 -67 165 -159 165 -142 0 -214 -169 -115 -272
l24 -26 -275 -589 c-158 -340 -275 -579 -275 -563 0 14 25 364 55 777 30 413
55 755 55 760 0 5 12 12 28 16 40 10 87 49 106 88 38 82 5 175 -77 216 -66 32
-123 24 -176 -27 -77 -73 -74 -171 6 -241 l44 -39 -188 -762 c-103 -419 -189
-757 -191 -750 -2 6 -46 386 -96 843 l-92 832 35 20 c106 60 110 203 9 278
-34 25 -113 32 -153 13z m305 -2407 c156 -24 240 -73 240 -139 0 -25 -9 -42
-39 -71 -76 -72 -226 -109 -439 -109 -282 0 -492 79 -492 184 0 64 82 109 250
135 79 12 403 13 480 0z"/>
<path d="M3004 4236 c-280 -54 -479 -183 -622 -404 -96 -149 -138 -309 -129
-492 21 -401 238 -669 625 -771 109 -29 353 -37 482 -15 444 73 695 357 717
811 10 196 -26 327 -133 491 -84 128 -225 245 -372 311 -154 68 -409 99 -568
69z m330 -226 c205 -77 308 -313 293 -669 -15 -351 -153 -561 -395 -603 -167
-28 -325 39 -417 177 -82 124 -120 285 -119 505 1 170 18 261 68 367 62 130
167 215 301 242 74 15 201 6 269 -19z"/>
<path d="M150 4111 l0 -89 119 -3 c110 -4 121 -6 145 -28 l26 -24 0 -586 c-1
-445 -4 -590 -13 -602 -24 -32 -56 -39 -166 -39 l-111 0 0 -90 0 -90 463 2
462 3 3 88 3 87 -101 0 c-99 0 -102 1 -131 29 l-29 29 0 261 0 261 113 0 c184
0 274 -41 330 -151 26 -50 30 -72 42 -238 11 -140 20 -193 35 -229 56 -127
194 -192 383 -179 102 6 158 28 201 79 46 54 66 131 73 293 l6 135 -71 0 -72
0 0 -53 c0 -127 -63 -202 -145 -171 -33 13 -46 63 -55 204 -6 117 -12 146 -35
197 -27 62 -80 121 -148 166 l-39 25 54 17 c144 48 256 133 305 234 25 50 28
66 28 161 0 87 -4 113 -23 153 -46 102 -111 160 -229 206 l-68 26 -677 3 -678
3 0 -90z m1063 -106 c38 -8 84 -24 103 -35 71 -44 106 -151 83 -258 -9 -45
-20 -66 -53 -98 -63 -63 -111 -74 -338 -74 l-188 0 0 240 0 240 163 0 c102 0
187 -6 230 -15z"/>
<path d="M4330 4110 l0 -90 83 -1 c98 0 147 -15 164 -49 10 -19 13 -157 13
-597 l0 -572 -23 -26 c-26 -31 -78 -44 -174 -45 l-63 0 0 -85 0 -85 775 0 775
0 0 360 0 361 -87 -3 -88 -3 -6 -130 c-9 -192 -43 -289 -121 -345 -73 -53
-117 -60 -375 -60 l-233 0 0 608 c0 676 -3 642 68 662 20 5 77 10 125 10 l88
0 -3 88 -3 87 -457 3 -458 2 0 -90z"/>
<path d="M6090 4110 l0 -90 93 0 c50 0 109 -5 129 -10 71 -20 68 10 68 -632
l0 -577 -23 -27 c-27 -31 -80 -42 -194 -43 l-73 -1 0 -85 0 -85 825 0 825 0 0
355 0 355 -74 0 -73 0 -7 -31 c-3 -17 -6 -50 -6 -74 0 -57 -33 -182 -65 -244
-33 -66 -94 -127 -154 -155 -43 -20 -64 -21 -328 -24 l-283 -3 0 282 0 281 98
-4 c84 -3 104 -7 144 -31 63 -37 88 -89 88 -185 l0 -72 90 0 90 0 -2 393 -3
392 -87 3 -88 3 0 -58 c0 -80 -14 -124 -52 -160 -50 -48 -95 -63 -193 -63
l-85 0 0 251 0 251 273 -4 c293 -5 330 -11 408 -63 81 -53 131 -161 147 -315
l7 -75 78 -3 77 -3 0 321 0 320 -825 0 -825 0 0 -90z"/>
<path d="M8150 4110 c0 -65 3 -90 13 -90 6 0 54 -5 106 -10 97 -10 169 -35
210 -73 23 -22 421 -501 435 -524 5 -9 -63 -87 -196 -226 -112 -117 -243 -255
-293 -308 -49 -53 -103 -104 -118 -114 -16 -10 -56 -21 -90 -24 l-62 -6 0 -85
0 -85 413 0 414 0 0 85 0 85 -113 3 c-128 3 -149 13 -149 68 0 37 -10 24 204
267 110 125 141 155 152 146 11 -9 272 -319 313 -371 16 -22 8 -61 -19 -88
-17 -17 -34 -20 -120 -20 l-100 0 0 -90 0 -90 470 0 470 0 0 90 0 90 -52 0
c-99 0 -109 9 -433 391 -163 192 -295 354 -293 359 4 12 342 376 403 433 83
79 111 90 253 95 l122 4 0 89 0 89 -415 0 -415 0 0 -90 0 -90 58 0 c65 0 97
-21 90 -58 -3 -23 -237 -294 -248 -290 -9 3 -164 190 -186 223 -27 42 -27 72
0 99 20 21 35 26 76 26 l50 0 0 90 0 90 -475 0 -475 0 0 -90z"/>
</g>
</svg>
