<?xml version="1.0" standalone="no"?>
<!DOCTYPE svg PUBLIC "-//W3C//DTD SVG 20010904//EN"
 "http://www.w3.org/TR/2001/REC-SVG-20010904/DTD/svg10.dtd">
<svg version="1.0" xmlns="http://www.w3.org/2000/svg"
 width="400.000000pt" height="400.000000pt" viewBox="0 0 400.000000 400.000000"
 preserveAspectRatio="xMidYMid meet">
<metadata>
Created by potrace 1.16, written by Peter Selinger 2001-2019
</metadata>
<g transform="translate(0.000000,400.000000) scale(0.100000,-0.100000)"
fill="#000000" stroke="none">
<path d="M2340 2785 l0 -145 440 0 440 0 0 -435 0 -435 145 0 145 0 0 580 0
580 -585 0 -585 0 0 -145z"/>
<path d="M2191 2360 c-206 -54 -366 -221 -416 -432 -17 -74 -20 -225 -4 -300
19 -95 90 -226 159 -295 112 -111 243 -164 415 -164 291 -1 479 135 550 397 9
32 19 110 22 172 l6 112 -292 0 -291 0 0 -115 0 -114 138 -3 c131 -3 137 -4
134 -23 -6 -40 -58 -110 -103 -137 -71 -44 -142 -55 -225 -35 -149 37 -224
152 -224 342 0 127 35 228 102 292 47 45 96 63 176 63 99 0 155 -23 226 -91
l59 -58 111 61 c61 34 113 63 115 64 7 6 -69 102 -117 146 -128 120 -349 168
-541 118z"/>
<path d="M500 1775 l0 -565 145 0 145 0 2 336 3 337 258 -337 258 -336 150 0
149 0 0 565 0 565 -150 0 -150 0 -2 -326 -3 -325 -255 325 -255 326 -147 0
-148 0 0 -565z"/>
</g>
</svg>
