<?xml version="1.0" standalone="no"?>
<!DOCTYPE svg PUBLIC "-//W3C//DTD SVG 20010904//EN"
 "http://www.w3.org/TR/2001/REC-SVG-20010904/DTD/svg10.dtd">
<svg version="1.0" xmlns="http://www.w3.org/2000/svg"
 width="800.000000pt" height="800.000000pt" viewBox="0 0 800.000000 800.000000"
 preserveAspectRatio="xMidYMid meet">
<metadata>
Created by potrace 1.16, written by Peter Selinger 2001-2019
</metadata>
<g transform="translate(0.000000,800.000000) scale(0.100000,-0.100000)"
fill="#000000" stroke="none">
<path d="M2320 4520 c0 -632 2 -1150 4 -1150 4 0 270 163 356 219 14 9 102 63
197 121 207 127 232 142 543 335 135 84 320 198 411 254 l166 101 69 -41 c38
-22 85 -51 104 -63 19 -13 76 -48 125 -78 50 -30 203 -125 340 -210 138 -85
284 -175 325 -200 41 -25 111 -68 155 -95 275 -171 557 -343 561 -343 2 0 4
518 4 1150 l0 1150 -1680 0 -1680 0 0 -1150z"/>
<path d="M3800 3435 c0 -28 4 -35 20 -35 20 0 20 -7 20 -505 0 -498 0 -505
-20 -505 -17 0 -20 -7 -20 -44 l0 -44 123 2 122 1 3 43 c3 39 1 42 -22 42
l-26 0 0 540 0 540 -100 0 -100 0 0 -35z"/>
<path d="M4030 3435 c0 -32 2 -35 30 -35 l30 0 0 -505 c0 -451 -2 -505 -16
-505 -12 0 -14 -9 -12 -41 l3 -41 70 -3 c39 -1 95 -6 126 -10 67 -9 102 6 148
62 100 120 102 433 4 561 -36 48 -80 72 -132 72 l-43 0 4 240 3 240 -107 0
-108 0 0 -35z m300 -552 c7 -25 10 -118 8 -261 -3 -208 -4 -225 -22 -238 -26
-19 -32 -18 -56 6 -20 20 -21 30 -18 266 3 262 3 263 55 264 17 0 25 -9 33
-37z"/>
<path d="M2340 3165 c0 -31 3 -35 25 -35 l25 0 0 -370 0 -370 -25 0 c-22 0
-25 -4 -25 -39 0 -45 4 -47 88 -50 l62 -2 0 45 c0 39 -3 46 -20 46 -20 0 -20
6 -19 353 0 193 2 348 4 342 2 -5 27 -174 55 -375 28 -201 54 -374 58 -384 6
-14 20 -20 53 -22 24 -2 49 0 55 4 7 4 34 165 62 367 28 198 53 371 55 385 2
14 5 -131 6 -322 l1 -348 -31 0 c-29 0 -30 -1 -27 -42 l3 -43 132 0 133 0 0
43 c0 40 -1 42 -30 42 l-30 0 0 370 0 370 30 0 c28 0 30 3 30 35 l0 35 -130 0
c-71 0 -130 -3 -130 -7 0 -5 -13 -91 -29 -193 -16 -102 -33 -211 -36 -243 -4
-32 -10 -55 -13 -53 -5 6 -56 329 -68 439 l-7 57 -128 0 -129 0 0 -35z"/>
<path d="M3160 2978 c-44 -12 -86 -52 -100 -92 -11 -33 -1 -86 21 -112 17 -20
83 -18 102 4 21 23 21 31 1 71 -18 35 -7 61 26 61 31 0 40 -24 46 -127 l6
-100 -66 -5 c-118 -10 -168 -58 -174 -167 -5 -84 9 -130 53 -176 28 -30 39
-35 77 -35 49 0 92 25 103 61 6 18 8 17 29 -13 17 -26 32 -35 68 -42 65 -13
80 -5 76 41 -2 31 -7 39 -25 41 -23 3 -23 4 -23 201 0 267 -22 340 -114 382
-46 21 -56 21 -106 7z m97 -440 c-7 -91 -21 -144 -42 -152 -28 -10 -40 25 -40
114 0 98 10 120 58 120 l30 0 -6 -82z"/>
<path d="M4648 2970 c-72 -38 -111 -116 -129 -258 -32 -253 82 -457 235 -418
63 16 122 100 146 206 19 86 9 271 -19 342 -49 127 -140 177 -233 128z m103
-67 c11 -12 15 -67 17 -232 4 -248 -4 -294 -50 -299 -48 -6 -53 19 -53 273 0
248 5 275 49 275 13 0 30 -7 37 -17z"/>
<path d="M5424 2976 c-102 -45 -164 -246 -135 -435 25 -159 98 -251 199 -251
112 0 192 147 192 353 0 237 -119 392 -256 333z m96 -75 c6 -12 10 -113 10
-260 0 -204 -2 -242 -16 -255 -20 -21 -48 -20 -65 1 -22 26 -26 447 -5 496 12
29 21 37 40 37 15 0 30 -8 36 -19z"/>
<path d="M3460 2935 c0 -38 3 -45 20 -45 19 0 20 -7 20 -250 0 -246 0 -250
-21 -250 -17 0 -20 -5 -17 -41 l3 -41 125 -1 125 -2 0 40 c0 36 -3 40 -27 43
l-28 3 0 232 c0 214 2 235 20 265 11 17 21 32 23 32 2 0 4 -20 4 -45 0 -51 23
-85 59 -85 52 0 72 95 34 158 -18 29 -25 32 -66 32 -46 0 -61 -8 -82 -45 -10
-18 -11 -17 -12 13 l0 32 -90 0 -90 0 0 -45z"/>
<path d="M4920 2935 c0 -38 3 -45 20 -45 19 0 20 -7 20 -250 0 -243 -1 -250
-20 -250 -17 0 -20 -7 -20 -42 l0 -43 130 -1 130 -1 0 43 c0 42 -1 44 -31 44
l-30 0 3 238 c3 217 5 239 23 267 l20 29 6 -53 c7 -56 27 -80 66 -81 29 0 43
28 43 85 0 46 -13 83 -34 97 -17 12 -89 9 -107 -5 -8 -7 -21 -21 -27 -32 -10
-18 -11 -17 -12 13 l0 32 -90 0 -90 0 0 -45z"/>
</g>
</svg>
