<?xml version="1.0" standalone="no"?>
<!DOCTYPE svg PUBLIC "-//W3C//DTD SVG 20010904//EN"
 "http://www.w3.org/TR/2001/REC-SVG-20010904/DTD/svg10.dtd">
<svg version="1.0" xmlns="http://www.w3.org/2000/svg"
 width="1024.000000pt" height="1024.000000pt" viewBox="0 0 1024.000000 1024.000000"
 preserveAspectRatio="xMidYMid meet">
<metadata>
Created by potrace 1.16, written by Peter Selinger 2001-2019
</metadata>
<g transform="translate(0.000000,1024.000000) scale(0.100000,-0.100000)"
fill="#000000" stroke="none">
<path d="M230 5165 l0 -1305 345 0 345 0 0 550 0 550 351 0 c318 0 351 -2 345
-16 -34 -88 -32 -368 3 -498 121 -442 535 -712 1021 -666 311 29 534 156 685
390 46 71 95 163 95 180 0 7 -97 10 -289 10 l-289 0 -59 -58 c-62 -62 -94 -76
-199 -88 -121 -13 -257 46 -329 144 -35 48 -59 106 -71 175 l-6 37 608 0 609
0 27 -111 c98 -408 432 -689 818 -689 180 0 302 50 428 175 l82 82 0 -83 0
-84 1030 0 1030 0 0 290 0 290 -420 0 -420 0 0 260 0 260 420 0 420 0 0 275 0
275 -417 2 -418 3 0 190 0 190 418 3 417 2 0 285 0 285 -1030 0 -1030 0 0
-536 0 -536 -60 55 c-209 193 -592 211 -873 40 -87 -52 -199 -163 -262 -257
-49 -74 -115 -216 -115 -247 0 -23 -13 0 -41 72 -108 278 -339 473 -634 534
-404 83 -814 -57 -1011 -346 l-49 -71 -3 171 -2 171 -390 0 -390 0 0 185 0
185 425 0 425 0 0 290 0 290 -770 0 -770 0 0 -1305z m2432 40 c65 -23 141 -93
172 -160 49 -103 74 -95 -304 -95 l-330 0 20 51 c43 115 125 190 237 219 50
12 146 5 205 -15z m1855 -85 c135 -58 215 -217 216 -430 1 -154 -44 -273 -133
-353 -60 -54 -125 -78 -212 -79 -114 0 -202 39 -271 124 -152 185 -136 511 34
676 92 90 243 116 366 62z"/>
<path d="M6897 5433 c39 -43 203 -228 366 -411 l296 -334 -364 -409 c-201
-224 -365 -411 -365 -414 0 -3 165 -5 368 -5 l367 0 180 205 c99 113 182 205
185 204 3 0 86 -92 185 -204 l180 -204 383 -1 c260 0 381 3 377 10 -4 6 -166
189 -362 408 -195 218 -358 403 -360 409 -3 7 157 195 356 418 l361 405 -370
0 -370 0 -172 -199 c-95 -110 -176 -198 -179 -198 -3 1 -86 91 -184 200 l-179
197 -384 0 -384 0 69 -77z"/>
<path d="M9587 4403 c-59 -20 -140 -91 -169 -147 -30 -57 -36 -176 -14 -244
23 -68 91 -143 158 -173 80 -35 193 -34 270 4 69 34 131 101 152 164 20 59 20
157 0 216 -21 61 -84 132 -148 164 -66 34 -177 41 -249 16z m218 -47 c60 -27
106 -77 130 -140 26 -67 17 -178 -19 -240 -102 -174 -360 -165 -450 16 -49 97
-30 235 42 312 70 74 200 98 297 52z"/>
<path d="M9580 4120 c0 -173 1 -180 20 -180 18 0 20 7 20 85 l0 85 41 0 c71 0
86 -20 104 -132 5 -33 10 -38 32 -38 23 0 25 3 20 33 -3 17 -9 51 -12 75 -4
24 -16 52 -28 63 -11 10 -15 19 -9 19 7 0 21 9 32 20 29 29 27 94 -5 125 -22
23 -32 25 -120 25 l-95 0 0 -180z m172 123 c22 -20 23 -51 1 -75 -12 -13 -31
-18 -75 -18 l-58 0 0 55 0 55 57 0 c38 0 62 -5 75 -17z"/>
</g>
</svg>
