<?xml version="1.0" standalone="no"?>
<!DOCTYPE svg PUBLIC "-//W3C//DTD SVG 20010904//EN"
 "http://www.w3.org/TR/2001/REC-SVG-20010904/DTD/svg10.dtd">
<svg version="1.0" xmlns="http://www.w3.org/2000/svg"
 width="541.000000pt" height="541.000000pt" viewBox="0 0 541.000000 541.000000"
 preserveAspectRatio="xMidYMid meet">
<metadata>
Created by potrace 1.16, written by Peter Selinger 2001-2019
</metadata>
<g transform="translate(0.000000,541.000000) scale(0.100000,-0.100000)"
fill="#000000" stroke="none">
<path d="M2635 4113 c-460 -23 -883 -272 -1124 -661 -209 -337 -266 -754 -155
-1140 46 -160 159 -370 274 -507 165 -198 398 -352 652 -433 243 -78 557 -84
798 -16 152 43 337 134 464 228 139 104 376 375 362 413 -3 8 -2 12 3 8 12 -7
102 179 129 265 131 418 76 846 -155 1204 -24 38 -50 75 -56 82 -7 7 -34 39
-61 73 -155 190 -433 367 -687 435 -135 36 -312 56 -444 49z m-627 -999 c27
-19 29 -64 5 -105 -18 -29 -53 -47 -72 -35 -16 10 4 60 30 73 28 14 32 36 6
41 -52 10 -179 -89 -268 -211 -109 -146 -163 -291 -139 -374 14 -51 30 -70 73
-88 48 -20 94 -19 202 5 315 70 329 72 407 67 88 -6 165 -36 237 -94 25 -20
48 -38 50 -40 2 -2 2 -5 0 -8 -3 -2 -24 5 -46 16 -46 22 -137 35 -177 25 -15
-4 -36 -16 -47 -27 l-20 -20 -32 30 c-61 61 -166 67 -357 21 -173 -42 -233
-47 -294 -23 -31 11 -60 32 -80 56 -26 33 -31 48 -34 108 -5 83 8 141 52 229
113 229 397 429 504 354z m1247 7 c119 8 149 4 220 -35 112 -60 112 -59 84
-95 -13 -16 -29 -30 -34 -30 -6 -1 -47 22 -90 49 -117 74 -185 88 -185 38 0
-81 -99 -221 -166 -234 -40 -7 -64 8 -64 40 1 55 68 153 144 208 47 34 26 37
-42 6 -62 -29 -224 -192 -286 -287 -116 -178 -148 -338 -71 -357 41 -10 74 4
126 56 81 81 131 220 80 220 -23 0 -66 -53 -76 -91 -4 -17 -25 -38 -56 -59
-27 -17 -49 -36 -49 -41 0 -6 -4 -8 -9 -5 -12 8 4 67 35 127 53 105 171 153
203 83 41 -91 -103 -309 -233 -350 -46 -14 -62 -15 -95 -6 -89 27 -109 155
-46 298 106 239 394 492 535 468 19 -3 53 -4 75 -3z m700 -38 c-72 -97 -181
-162 -274 -164 -28 -1 -55 1 -58 5 -4 3 6 19 22 36 21 22 40 30 81 36 66 8
155 50 209 97 22 19 42 33 44 31 2 -2 -9 -20 -24 -41z m-148 22 c8 -23 -20
-89 -40 -93 -15 -3 -15 0 -2 32 10 22 11 37 5 41 -17 10 -172 -154 -232 -245
-67 -103 -112 -180 -104 -180 11 0 113 96 180 169 61 68 96 95 96 75 0 -22
-186 -213 -272 -278 -35 -27 -51 -49 -67 -91 -25 -65 -27 -105 -7 -105 16 0
50 42 116 140 81 120 179 196 228 174 9 -4 41 -6 71 -5 l54 3 -34 -58 c-18
-33 -57 -99 -86 -148 -30 -49 -52 -94 -50 -99 4 -14 72 48 97 89 19 30 50 47
50 26 0 -13 -47 -74 -101 -129 -74 -75 -133 -93 -146 -43 -7 25 -5 25 -49 -5
-20 -14 -45 -25 -55 -25 -24 0 -49 27 -49 52 0 18 -3 17 -35 -11 -95 -83 -155
-22 -109 113 9 26 14 49 12 52 -10 10 -35 -8 -53 -39 -30 -50 -106 -127 -147
-148 -50 -26 -74 -24 -95 7 -45 69 61 266 186 346 94 59 146 22 115 -82 -8
-25 -14 -46 -14 -47 0 -2 7 -3 15 -3 8 0 29 28 46 63 58 115 143 231 244 332
55 55 116 108 135 118 44 21 89 22 97 2z m-1783 -178 c14 -11 17 -23 14 -58
-3 -24 -8 -52 -13 -63 -7 -17 -6 -17 15 -6 12 7 54 39 93 71 78 66 122 81 162
55 14 -9 25 -26 25 -39 0 -27 -35 -86 -56 -94 -45 -17 -42 60 4 79 l27 12 -24
4 c-70 12 -227 -244 -171 -278 32 -19 92 28 184 143 118 148 179 196 233 182
15 -4 47 -7 71 -6 23 2 42 -1 42 -6 0 -4 -38 -71 -84 -148 -46 -77 -79 -142
-74 -144 6 -2 36 22 66 53 58 61 100 79 63 28 -44 -63 -116 -134 -153 -153
-51 -26 -85 -16 -79 24 2 12 -16 8 -29 -7 -6 -8 -27 -20 -45 -26 -49 -16 -75
0 -75 47 l0 37 -27 -26 c-37 -34 -102 -68 -131 -68 -13 0 -37 14 -54 30 -27
28 -30 35 -24 71 4 23 16 58 26 80 30 58 0 52 -35 -7 -36 -61 -118 -142 -162
-161 -47 -19 -78 -10 -93 28 -18 43 -1 105 50 184 87 133 197 204 254 162z
m737 -14 c-24 -44 -39 -56 -74 -58 -21 -1 -37 1 -37 4 0 3 9 21 20 39 17 28
25 32 60 32 36 0 40 -2 31 -17z m1023 -506 c28 -21 12 -59 -22 -55 -41 5 -42
67 -1 68 3 0 13 -6 23 -13z"/>
<path d="M3195 3048 c-79 -42 -173 -188 -131 -204 36 -14 118 76 145 159 16
47 12 59 -14 45z"/>
<path d="M3205 2686 c-19 -19 -24 -32 -20 -49 7 -21 32 -47 46 -47 11 0 31 67
27 92 -4 32 -24 33 -53 4z"/>
<path d="M3639 2653 c-60 -65 -109 -144 -116 -187 -8 -48 8 -46 52 7 34 41
135 205 135 219 0 21 -32 3 -71 -39z"/>
<path d="M3113 2558 c-39 -67 -47 -102 -28 -118 11 -9 18 -9 34 2 23 16 91 99
91 111 0 8 -51 56 -60 57 -3 0 -20 -24 -37 -52z"/>
<path d="M1962 2888 c-34 -17 -40 -57 -12 -80 12 -10 26 -18 31 -18 12 0 33
76 26 94 -7 18 -13 19 -45 4z"/>
<path d="M2471 2865 c-42 -39 -123 -153 -141 -199 -16 -44 2 -53 39 -19 39 36
164 240 151 248 -5 3 -27 -10 -49 -30z"/>
<path d="M1861 2755 c-18 -29 -34 -69 -38 -89 -5 -33 -4 -36 19 -36 25 0 52
25 101 91 l26 36 -38 25 -38 25 -32 -52z"/>
</g>
</svg>
