<?xml version="1.0" standalone="no"?>
<!DOCTYPE svg PUBLIC "-//W3C//DTD SVG 20010904//EN"
 "http://www.w3.org/TR/2001/REC-SVG-20010904/DTD/svg10.dtd">
<svg version="1.0" xmlns="http://www.w3.org/2000/svg"
 width="1024.000000pt" height="1024.000000pt" viewBox="0 0 1024.000000 1024.000000"
 preserveAspectRatio="xMidYMid meet">
<metadata>
Created by potrace 1.16, written by Peter Selinger 2001-2019
</metadata>
<g transform="translate(0.000000,1024.000000) scale(0.100000,-0.100000)"
fill="#000000" stroke="none">
<path d="M1960 6220 l0 -40 -265 -2 -266 -3 0 -332 0 -333 -69 -1 c-39 -1 -76
-2 -82 -3 -17 -1 -24 -286 -8 -286 10 0 -130 -284 -149 -303 -4 -4 -36 0 -72
10 -54 15 -119 18 -416 20 l-353 3 0 -245 0 -245 75 0 c60 0 75 -3 75 -15 0
-13 31 -15 220 -15 189 0 220 2 220 15 0 12 13 15 55 15 41 0 55 4 55 15 0 8
35 31 84 53 46 22 86 44 90 51 15 24 60 8 155 -54 94 -61 103 -65 158 -65 68
0 113 22 202 100 31 27 63 50 69 50 6 0 23 -22 36 -49 14 -26 39 -60 56 -75
63 -53 188 -25 284 65 26 23 46 40 47 38 0 -2 3 -17 5 -33 7 -42 34 -84 58
-90 83 -22 130 1 327 157 103 83 149 114 149 102 0 -3 -25 -53 -56 -111 -71
-133 -71 -134 77 -134 l109 0 28 44 c16 24 66 116 111 205 66 127 92 169 125
195 44 36 145 90 153 83 2 -3 -52 -117 -121 -255 -102 -204 -123 -252 -112
-261 9 -8 53 -11 122 -9 l108 3 28 41 c15 23 64 111 108 197 60 116 92 166
122 191 40 35 163 94 174 84 3 -3 -33 -87 -80 -186 -47 -98 -89 -193 -92 -209
-8 -41 19 -99 58 -123 75 -47 201 -10 377 110 48 33 93 60 99 60 7 0 12 -13
12 -28 0 -50 41 -114 90 -140 41 -22 55 -23 160 -20 109 3 118 5 179 38 107
58 215 169 288 297 l29 52 0 -102 c-1 -92 2 -107 26 -153 50 -96 139 -142 252
-130 168 17 296 146 397 396 35 88 42 98 96 139 l58 43 65 -6 c36 -4 69 -11
74 -16 5 -5 -29 -46 -81 -97 -61 -60 -98 -106 -117 -145 -78 -161 -14 -318
129 -318 80 0 156 38 313 158 40 30 74 53 76 51 2 -2 14 -29 28 -59 31 -68 80
-118 126 -126 35 -7 114 -1 145 11 16 7 16 3 -3 -46 -96 -243 -136 -299 -213
-299 -23 1 -53 7 -67 15 -25 14 -24 14 18 15 l42 0 0 140 0 140 -105 0 -105 0
0 -143 c0 -143 0 -144 29 -183 104 -141 246 -187 370 -119 94 52 123 94 316
467 106 206 98 196 284 336 52 39 98 69 102 66 14 -8 -3 -46 -136 -302 -32
-62 -45 -96 -38 -103 6 -6 54 -9 114 -7 l104 3 110 215 c120 235 147 271 255
334 45 27 66 34 74 26 7 -7 -20 -71 -97 -225 -96 -193 -107 -221 -107 -268 1
-41 6 -58 25 -79 49 -56 149 -32 347 83 36 21 71 39 76 39 6 0 13 -18 17 -40
4 -23 18 -54 31 -69 13 -16 24 -34 24 -40 0 -14 266 -15 275 -1 4 6 -17 10
-57 10 l-63 0 54 30 c55 30 123 79 220 158 29 24 55 41 58 39 2 -3 -16 -46
-41 -96 -25 -50 -46 -97 -46 -104 0 -10 21 -16 77 -21 126 -10 147 -8 170 17
11 12 65 110 119 217 110 217 148 265 237 298 40 16 53 17 55 7 2 -7 -39 -93
-90 -192 -88 -169 -93 -181 -93 -241 0 -59 2 -66 33 -93 l32 -29 163 2 c145 2
152 2 64 7 l-97 6 140 73 c78 40 145 70 151 67 5 -4 9 -17 9 -30 0 -33 18 -76
42 -102 32 -35 93 -31 176 11 97 49 372 247 372 268 0 4 -12 21 -27 38 l-28
30 -125 -90 c-111 -81 -150 -102 -150 -84 0 6 66 133 212 412 45 85 67 137 61
143 -5 5 -66 8 -138 7 l-129 -3 -120 -231 -120 -231 -123 -62 c-68 -33 -125
-61 -128 -61 -16 0 6 52 105 250 88 177 110 230 110 264 0 52 -28 86 -70 86
l-29 0 -3 143 -3 142 -137 2 -138 2 0 -144 0 -145 113 0 112 -1 -55 -23 c-30
-12 -79 -35 -107 -50 l-53 -26 16 40 c9 23 15 43 12 45 -2 2 -59 5 -127 6
l-123 1 -76 -143 -77 -143 -183 -138 c-101 -77 -189 -138 -197 -136 -9 2 31
87 121 262 74 143 135 267 136 275 3 14 -16 16 -129 19 l-131 3 -109 -208
-108 -208 -115 -67 c-108 -64 -150 -80 -150 -59 0 5 46 98 101 206 110 214
120 251 82 303 -44 59 -121 74 -218 42 -36 -12 -68 -20 -70 -18 -8 8 150 303
163 304 6 1 35 2 62 3 l50 1 0 108 c0 59 -3 117 -6 130 l-6 22 -192 -2 -191
-3 -5 -140 -5 -140 -94 -178 -93 -178 -139 -105 c-77 -57 -139 -99 -139 -93 0
6 30 70 67 141 56 107 65 131 53 138 -10 7 7 10 53 10 l67 0 0 143 0 144 -27
-2 -28 -1 -3 -107 -3 -106 -107 -3 -107 -3 1 -32 c1 -32 -1 -33 -39 -33 -24 0
-48 -7 -59 -17 -16 -14 -20 -15 -35 -1 -46 39 -168 50 -260 23 -109 -32 -234
-157 -317 -316 -34 -64 -52 -85 -125 -143 -146 -117 -228 -143 -252 -79 -33
87 59 203 259 324 75 45 76 46 99 114 40 121 46 115 -117 115 -87 0 -140 -4
-140 -10 0 -6 -43 -10 -108 -10 -118 0 -116 1 -208 -77 -58 -48 -70 -52 -79
-22 -9 28 -63 87 -94 103 -38 19 -99 26 -154 17 -26 -4 -50 -4 -53 1 -3 4 -68
8 -145 8 -117 0 -139 -2 -139 -15 0 -12 20 -15 123 -15 l122 -1 -56 -29 c-63
-32 -165 -121 -174 -151 -4 -12 -15 -19 -31 -19 -22 0 -24 4 -24 43 0 64 -19
118 -52 149 -28 26 -35 28 -119 28 -49 0 -89 2 -89 5 0 14 131 265 138 264 4
-1 31 -1 60 0 l52 1 0 135 0 135 -200 0 -200 0 0 -137 -1 -138 -168 -325
c-165 -318 -170 -326 -222 -363 -48 -34 -275 -167 -285 -167 -2 0 43 94 101
209 57 115 107 220 110 234 9 33 -11 104 -33 116 -12 7 22 10 116 11 l132 0 0
143 0 143 -30 0 -30 0 0 -107 0 -108 -107 -3 c-108 -3 -108 -3 -111 -29 -3
-24 -5 -25 -60 -21 -55 3 -61 1 -176 -67 l-120 -70 -15 47 c-20 57 -66 92
-123 92 -45 0 -75 -14 -175 -81 -40 -27 -74 -49 -77 -49 -5 0 3 23 41 118 4 9
-27 12 -137 12 -120 0 -141 -2 -137 -14 3 -8 -22 -69 -56 -135 l-63 -120 -174
-132 c-96 -72 -176 -126 -178 -120 -2 6 51 117 117 248 67 131 121 244 121
251 0 9 -30 12 -117 12 l-118 0 -23 -35 -22 -35 -21 21 c-42 42 -78 49 -269
49 l-180 0 0 160 0 160 139 0 c77 0 141 4 143 9 2 4 39 4 82 -1 135 -14 239
25 344 129 91 90 126 201 102 318 -10 48 -21 68 -61 110 -27 29 -76 66 -108
83 -101 55 -150 62 -408 62 l-233 0 0 -40z m422 -123 c43 -24 69 -71 76 -139
8 -86 -53 -170 -165 -227 -23 -11 -45 -21 -48 -21 -3 0 -5 92 -5 204 0 204 0
205 23 209 33 7 78 -3 119 -26z m-272 -903 c-121 -56 -236 -180 -314 -338 -59
-119 -196 -236 -276 -236 -44 0 -104 34 -136 76 l-27 35 21 42 c12 23 53 103
92 177 40 74 87 165 106 203 l34 67 278 0 277 0 -55 -26z m251 -75 c29 -29 22
-60 -43 -189 -62 -123 -164 -238 -232 -260 -37 -12 -41 -11 -57 9 -23 28 -16
53 62 199 92 173 127 222 174 243 52 24 70 24 96 -2z m2230 -9 c10 -6 19 -21
19 -33 0 -12 -47 -112 -103 -222 -82 -158 -110 -205 -137 -223 -19 -13 -43
-22 -55 -20 -43 6 -30 49 79 266 91 180 110 212 138 225 40 20 35 19 59 7z
m2057 -12 c23 -19 12 -57 -58 -195 -110 -220 -148 -267 -222 -280 -33 -5 -39
-2 -49 19 -10 23 0 47 95 235 102 203 113 219 166 236 18 6 50 -1 68 -15z
m-1340 0 c7 -7 12 -21 12 -32 0 -12 -47 -111 -103 -221 -91 -177 -107 -202
-140 -220 -28 -15 -41 -18 -54 -9 -26 16 -28 59 -5 97 11 17 59 109 107 202
48 94 95 176 103 183 20 15 64 16 80 0z"/>
<path d="M8210 5626 l0 -114 41 -36 c46 -43 76 -56 125 -56 48 0 93 22 132 63
l32 35 0 111 0 111 -165 0 -165 0 0 -114z"/>
<path d="M9630 5629 l0 -111 33 -35 c35 -39 82 -63 122 -63 l25 0 0 -100 0
-100 65 0 65 0 0 145 c0 90 4 145 10 145 6 0 10 45 10 115 l0 115 -165 0 -165
0 0 -111z"/>
<path d="M7850 5364 l0 -145 138 3 137 3 0 140 0 140 -137 2 -138 2 0 -145z"/>
</g>
</svg>
