<?xml version="1.0" standalone="no"?>
<!DOCTYPE svg PUBLIC "-//W3C//DTD SVG 20010904//EN"
 "http://www.w3.org/TR/2001/REC-SVG-20010904/DTD/svg10.dtd">
<svg version="1.0" xmlns="http://www.w3.org/2000/svg"
 width="1024.000000pt" height="1024.000000pt" viewBox="0 0 1024.000000 1024.000000"
 preserveAspectRatio="xMidYMid meet">
<metadata>
Created by potrace 1.16, written by Peter Selinger 2001-2019
</metadata>
<g transform="translate(0.000000,1024.000000) scale(0.100000,-0.100000)"
fill="#000000" stroke="none">
<path d="M50 5773 c0 -1085 4 -1236 36 -1392 107 -523 490 -906 1007 -1006
132 -26 323 -30 456 -11 258 38 511 157 679 319 l42 41 0 -157 0 -157 260 0
260 0 0 1725 0 1725 -260 0 -260 0 0 -1097 c0 -915 -3 -1114 -15 -1196 -54
-360 -265 -615 -595 -719 -67 -20 -94 -23 -245 -23 -166 0 -172 1 -265 33
-328 114 -527 378 -570 757 -6 55 -10 508 -10 1168 l0 1077 -260 0 -260 0 0
-1087z"/>
<path d="M3170 5135 l0 -1725 248 2 247 3 0 153 c0 83 1 152 1 152 1 0 24 -20
50 -45 66 -62 225 -168 309 -206 193 -87 390 -125 600 -115 352 16 664 158
903 410 176 186 293 420 337 670 19 113 19 333 0 454 -67 409 -331 764 -710
952 -209 104 -404 145 -635 137 -144 -5 -235 -21 -358 -63 -156 -52 -313 -143
-429 -249 l-63 -57 0 626 0 626 -250 0 -250 0 0 -1725z m1541 379 c261 -59
479 -234 594 -475 61 -129 78 -214 78 -379 0 -128 -3 -155 -27 -233 -161 -536
-729 -787 -1221 -541 -212 107 -368 297 -441 541 -24 78 -27 105 -27 233 0
161 16 240 71 363 112 247 344 435 607 492 86 19 281 18 366 -1z"/>
<path d="M7240 5970 c-566 -59 -1015 -474 -1137 -1050 -25 -119 -25 -392 0
-509 59 -277 169 -483 357 -671 224 -224 509 -353 843 -379 329 -26 626 52
888 230 130 89 325 288 303 309 -5 4 -85 65 -179 133 l-169 125 -74 -79 c-126
-135 -280 -227 -447 -265 -126 -29 -323 -25 -438 10 -159 48 -264 113 -378
234 -41 43 -91 108 -112 143 -44 75 -92 196 -102 257 l-7 42 1023 0 1022 0 -6
188 c-8 262 -42 413 -138 606 -174 351 -499 594 -882 660 -113 20 -266 26
-367 16z m315 -455 c33 -8 103 -36 155 -62 82 -40 108 -60 190 -142 76 -77
104 -114 142 -186 42 -82 78 -179 78 -212 0 -11 -138 -13 -760 -13 -662 0
-760 2 -760 15 0 8 13 51 29 95 100 273 328 470 603 520 71 12 249 5 323 -15z"/>
<path d="M9902 5939 c-157 -20 -282 -80 -388 -184 -39 -38 -80 -83 -92 -100
l-21 -30 -1 153 0 152 -245 0 -245 0 0 -1260 0 -1260 250 0 250 0 0 771 c0
852 -1 843 65 984 62 136 164 231 301 282 61 23 88 27 232 31 l162 4 0 234 0
234 -102 -1 c-57 -1 -131 -5 -166 -10z"/>
</g>
</svg>
