<?xml version="1.0" standalone="no"?>
<!DOCTYPE svg PUBLIC "-//W3C//DTD SVG 20010904//EN"
 "http://www.w3.org/TR/2001/REC-SVG-20010904/DTD/svg10.dtd">
<svg version="1.0" xmlns="http://www.w3.org/2000/svg"
 width="800.000000pt" height="800.000000pt" viewBox="0 0 800.000000 800.000000"
 preserveAspectRatio="xMidYMid meet">
<metadata>
Created by potrace 1.16, written by Peter Selinger 2001-2019
</metadata>
<g transform="translate(0.000000,800.000000) scale(0.100000,-0.100000)"
fill="#000000" stroke="none">
<path d="M3585 7993 c-347 -7 -887 -60 -1275 -124 -661 -108 -1325 -318 -1551
-490 -60 -45 -148 -146 -186 -215 -92 -165 -111 -322 -94 -777 78 -2124 719
-3799 1995 -5211 297 -329 772 -787 1022 -986 34 -27 148 -95 204 -122 96 -46
174 -61 305 -62 269 0 421 91 884 523 161 150 461 451 564 566 44 50 101 113
126 140 68 73 234 274 333 400 289 371 562 804 768 1215 204 406 342 754 475
1195 210 697 331 1451 366 2294 22 520 -3 696 -126 881 -100 150 -230 234
-555 355 -240 89 -697 213 -945 255 -27 5 -117 20 -198 34 -613 106 -1294 148
-2112 129z m945 -213 c781 -36 1518 -160 2106 -355 377 -125 528 -214 608
-358 45 -81 63 -149 75 -278 22 -238 -34 -1093 -99 -1484 -5 -33 -19 -121 -31
-195 -148 -938 -487 -1869 -972 -2670 -162 -269 -484 -716 -646 -900 -13 -14
-59 -68 -104 -120 -176 -203 -568 -605 -782 -800 -257 -234 -328 -291 -438
-346 -212 -108 -409 -81 -631 86 -121 91 -352 305 -641 594 -500 500 -817 893
-1170 1451 -124 195 -339 602 -440 830 -193 437 -368 976 -471 1445 -135 619
-207 1270 -208 1870 -1 355 2 378 62 500 36 73 131 167 214 214 279 155 949
342 1508 420 63 9 144 21 180 26 155 24 554 60 770 69 261 12 865 12 1110 1z"/>
<path d="M3641 7579 c-141 -43 -213 -192 -214 -444 -1 -195 33 -306 115 -382
104 -95 235 -78 326 42 66 86 99 243 87 415 -16 229 -99 360 -237 375 -24 2
-58 0 -77 -6z m89 -134 c112 -58 132 -442 31 -582 -21 -29 -65 -47 -96 -39
-30 8 -71 67 -91 133 -21 65 -20 287 0 358 19 62 53 115 86 132 32 16 35 16
70 -2z"/>
<path d="M4060 7146 l0 -436 65 0 65 0 0 175 0 175 55 0 c37 0 55 -4 55 -12 0
-7 26 -87 59 -178 l58 -165 67 -3 c49 -2 66 0 66 10 0 7 -27 88 -60 181 -33
92 -60 173 -60 179 0 6 18 26 39 45 58 49 85 113 85 198 1 123 -40 193 -136
236 -46 19 -74 23 -205 27 l-153 4 0 -436z m310 284 c30 -16 60 -69 60 -109 0
-18 -10 -51 -22 -72 -26 -47 -66 -62 -153 -57 l-60 3 -3 114 c-1 63 0 121 3
129 4 12 20 14 79 9 41 -3 84 -10 96 -17z"/>
<path d="M2980 7545 c-47 -7 -91 -14 -97 -14 -10 -1 -13 -93 -13 -426 l0 -425
23 0 c61 0 267 33 302 49 87 39 145 133 145 236 0 76 -14 126 -46 164 l-24 29
20 39 c32 63 46 148 31 202 -35 132 -142 178 -341 146z m189 -139 c33 -35 36
-83 9 -136 -26 -51 -50 -65 -125 -73 l-53 -6 0 114 0 114 28 4 c78 12 118 7
141 -17z m18 -349 c17 -17 28 -94 19 -131 -12 -48 -53 -84 -104 -91 -26 -4
-59 -9 -74 -11 l-28 -6 0 121 c0 117 1 121 23 126 80 17 142 14 164 -8z"/>
<path d="M4822 7519 c-48 -14 -107 -78 -130 -141 -59 -159 -53 -464 12 -581
42 -76 130 -127 216 -127 55 0 134 43 169 90 35 48 48 104 57 248 l7 102 -117
0 -116 0 0 -65 0 -65 46 0 46 0 -4 -61 c-4 -54 -9 -66 -36 -90 -37 -33 -60
-36 -106 -14 -62 30 -92 148 -83 324 7 142 21 194 64 231 61 54 133 28 148
-54 l7 -36 65 0 66 0 -6 45 c-13 117 -93 194 -209 201 -35 2 -78 -1 -96 -7z"/>
<path d="M2640 7487 l-44 -12 -74 -230 c-40 -126 -76 -237 -79 -245 -8 -21
-10 -15 -137 332 -17 48 -34 90 -37 93 -3 3 -35 -1 -70 -8 l-64 -13 -3 -411
-2 -412 37 6 c21 3 52 8 68 12 l30 7 -1 223 c-1 122 2 218 6 214 4 -4 42 -107
85 -228 42 -121 80 -224 84 -228 4 -4 40 97 80 225 41 128 78 238 83 243 6 6
9 -18 8 -70 -1 -44 -2 -138 -1 -209 l1 -128 38 6 c20 4 49 9 65 12 l27 6 -2
411 -3 412 -25 2 c-14 1 -45 -4 -70 -10z"/>
<path d="M5270 7066 l0 -434 48 -6 c26 -4 55 -9 65 -12 16 -5 17 8 17 175 0
100 2 181 5 181 4 0 45 -8 163 -31 l62 -12 0 -173 c0 -194 -7 -177 83 -190
l47 -6 0 430 c0 237 -3 433 -7 435 -5 3 -34 8 -65 12 l-58 7 0 -192 0 -192
-32 6 c-18 4 -66 13 -106 20 -40 7 -75 16 -78 19 -4 3 -8 88 -9 188 -4 206 3
190 -87 202 l-48 7 0 -434z"/>
<path d="M5910 6957 l0 -434 61 -12 c34 -7 63 -11 65 -8 2 2 6 196 8 431 l3
427 -22 9 c-12 5 -43 11 -68 15 l-47 7 0 -435z"/>
<path d="M1765 7317 c-27 -6 -51 -11 -52 -12 -1 0 -34 -145 -73 -321 -39 -175
-82 -365 -95 -421 -28 -115 -31 -144 -12 -138 6 2 37 11 68 19 l56 16 23 107
c13 60 27 113 31 119 5 5 38 16 75 23 79 16 75 20 100 -95 12 -54 23 -84 32
-84 15 0 105 21 111 26 2 2 -36 177 -85 389 -100 431 -81 392 -179 372z m44
-371 c12 -49 20 -90 19 -91 -2 -1 -22 -7 -46 -13 -33 -8 -42 -7 -39 1 2 7 12
53 23 104 10 51 19 91 20 90 1 -1 12 -42 23 -91z"/>
<path d="M6202 6890 l3 -423 50 -13 c28 -7 56 -13 62 -14 10 0 13 60 15 253
l3 252 23 -65 c50 -137 135 -368 163 -441 l29 -76 60 -16 c33 -10 67 -17 75
-17 13 0 15 49 13 422 l-3 422 -50 18 c-86 31 -80 50 -77 -233 2 -171 -1 -249
-8 -244 -5 3 -10 10 -10 16 0 8 -35 105 -125 344 -13 33 -35 92 -50 131 l-26
71 -52 12 c-29 6 -62 14 -75 17 l-22 6 2 -422z"/>
<path d="M1108 7123 l-58 -15 0 -419 c0 -360 2 -419 15 -419 8 0 63 18 122 41
59 22 137 51 173 65 36 13 71 24 78 24 8 0 12 22 12 75 l0 75 -67 -26 c-38
-14 -96 -36 -130 -49 -34 -13 -63 -22 -65 -20 -1 2 -3 157 -3 344 0 221 -4
341 -10 340 -5 -1 -36 -8 -67 -16z"/>
<path d="M6840 6697 l0 -424 48 -13 c26 -7 55 -14 65 -17 16 -4 17 21 17 421
l0 425 -37 10 c-21 5 -50 13 -65 17 l-28 6 0 -425z"/>
<path d="M3813 6120 c-179 -19 -395 -140 -422 -236 -20 -72 15 -140 93 -181
90 -47 95 -47 581 -48 542 -1 631 -10 702 -77 29 -27 63 -118 63 -168 0 -47
-18 -60 -82 -60 -89 0 -352 71 -523 142 -98 41 -149 51 -194 38 -60 -16 -159
-86 -242 -169 -64 -65 -96 -87 -215 -150 -180 -96 -268 -156 -343 -236 -78
-84 -85 -108 -85 -315 -1 -154 -3 -168 -25 -210 -13 -25 -27 -47 -31 -50 -13
-9 -118 -176 -150 -240 -46 -91 -73 -233 -65 -335 13 -143 7 -179 -42 -283
-29 -60 -33 -122 -19 -357 l8 -140 -47 -90 -46 -90 7 -107 c4 -75 3 -108 -4
-108 -6 0 -36 -25 -66 -55 -54 -55 -106 -142 -106 -178 0 -11 -16 -37 -35 -58
-46 -52 -85 -130 -85 -174 0 -38 34 -115 50 -115 15 0 30 45 30 91 0 28 4 39
15 39 19 0 29 -41 21 -90 l-6 -40 52 0 c68 0 179 18 195 32 8 6 13 34 13 70 0
59 21 128 38 128 23 0 33 61 30 184 l-2 128 29 22 c60 43 97 80 115 115 20 41
40 135 40 193 0 29 17 70 66 161 77 142 170 287 183 287 22 0 31 -36 42 -175
17 -221 14 -330 -12 -371 -11 -19 -30 -39 -42 -45 -27 -15 -130 -91 -185 -137
-24 -20 -55 -55 -67 -77 -28 -47 -46 -145 -38 -204 6 -41 6 -42 42 -39 26 2
39 9 46 26 18 42 37 22 39 -42 1 -37 4 -41 29 -44 15 -2 52 2 83 8 76 16 120
61 158 160 74 196 92 236 124 284 19 28 58 70 87 93 43 35 62 60 97 130 35 71
50 91 78 106 30 15 35 15 38 2 6 -27 -77 -170 -139 -240 -79 -89 -99 -122 -99
-166 0 -70 45 -89 70 -28 7 16 18 29 26 29 21 0 28 -39 10 -59 -9 -10 -16 -25
-16 -33 0 -16 43 -30 76 -23 10 2 55 9 99 16 129 19 141 35 109 146 -9 30 -14
57 -11 60 3 2 20 12 39 21 36 18 36 18 27 145 -3 42 0 52 20 68 44 36 54 26
78 -72 37 -154 75 -197 194 -219 82 -16 227 -12 283 8 83 29 102 63 126 222
23 153 49 238 88 292 30 41 146 138 165 138 7 0 36 -37 65 -83 29 -45 64 -97
77 -115 24 -33 24 -37 20 -205 -2 -130 -7 -183 -20 -217 -19 -51 -16 -121 7
-143 17 -17 92 -57 108 -57 5 0 10 18 10 40 0 26 4 40 13 40 20 0 37 -22 37
-47 0 -20 5 -23 38 -23 50 0 69 21 84 92 10 50 9 60 -10 105 -28 66 -49 236
-62 498 -10 226 -25 317 -64 398 -31 64 -40 76 -94 114 -71 52 -98 28 -122
-107 -17 -101 -26 -115 -109 -174 -147 -103 -235 -198 -271 -294 -10 -26 -23
-92 -30 -147 -12 -109 -38 -175 -73 -193 -35 -18 -141 -42 -184 -42 -29 0 -46
7 -63 25 l-23 25 22 0 c33 0 61 18 61 39 0 26 -42 61 -74 61 -22 0 -30 -7 -42
-36 -13 -31 -18 -35 -28 -23 -22 23 -36 78 -36 136 0 43 11 80 50 172 59 140
69 190 45 215 -10 10 -29 16 -44 14 -21 -2 -33 -16 -62 -71 -65 -124 -95 -129
-87 -13 6 78 45 177 123 316 54 95 58 110 45 159 -10 37 -40 71 -170 191 -21
20 -30 42 -40 97 -7 39 -10 78 -7 87 8 21 56 21 117 -1 47 -17 51 -17 112 4
122 42 218 39 218 -7 0 -17 -7 -20 -52 -20 -29 -1 -82 -11 -118 -23 -77 -26
-92 -48 -93 -137 0 -75 29 -135 97 -197 67 -61 142 -99 236 -119 79 -17 183
-14 252 6 75 22 179 112 155 136 -4 4 -31 1 -61 -6 -44 -10 -76 -11 -160 -1
-188 21 -256 48 -256 101 0 26 4 30 28 30 48 0 72 12 78 36 3 13 11 24 18 24
29 0 56 -14 61 -31 9 -28 76 -58 145 -66 56 -5 60 -5 60 15 0 15 -16 31 -57
54 -76 45 -79 58 -11 58 34 0 74 -10 113 -26 33 -14 79 -32 102 -40 l42 -16 3
-70 3 -71 42 -12 c25 -7 66 -34 100 -64 32 -29 92 -69 132 -89 72 -36 79 -37
180 -37 97 0 111 2 161 29 69 35 130 93 130 122 0 33 -15 37 -52 14 -37 -22
-103 -26 -187 -10 -79 15 -110 33 -196 116 -93 91 -129 114 -175 114 -29 0
-44 10 -85 51 -94 96 -189 129 -376 129 l-126 0 -16 40 c-20 53 -61 70 -164
70 -89 0 -105 7 -96 38 5 19 12 22 54 22 27 0 49 -4 49 -10 0 -5 9 -10 20 -10
27 0 27 41 -1 66 -16 15 -37 19 -91 20 -76 1 -94 11 -83 44 7 21 11 22 69 15
83 -8 112 0 125 36 5 16 14 29 20 29 5 0 24 -30 41 -67 18 -38 38 -82 46 -98
16 -34 49 -59 64 -50 31 19 -9 145 -111 349 -90 179 -210 358 -366 542 -42 50
-56 94 -29 94 19 0 237 -258 373 -441 59 -79 122 -119 189 -119 94 0 100 27
49 203 -25 85 -56 127 -96 127 -10 0 -19 6 -19 14 0 19 96 59 144 60 38 1 39
0 136 -133 122 -167 185 -278 207 -365 15 -63 15 -74 -1 -164 -22 -131 -21
-187 10 -294 14 -50 26 -111 27 -135 l2 -44 59 3 59 3 -2 90 c-1 50 -12 137
-23 195 -18 85 -21 135 -19 266 2 187 -7 223 -89 334 -26 36 -91 125 -143 199
-89 124 -95 135 -82 155 67 102 18 309 -97 410 -105 92 -218 112 -543 95 -263
-13 -415 -8 -601 20 -139 21 -173 31 -191 53 -16 19 -7 30 53 67 84 51 100 50
185 -7 114 -77 199 -96 376 -86 131 8 141 12 127 51 -9 26 -14 28 -76 34 -74
6 -98 20 -98 55 0 29 11 30 35 4 14 -16 31 -20 78 -20 43 0 69 -6 94 -21 54
-33 163 -29 177 8 19 47 -70 98 -238 138 -176 41 -281 50 -423 35z m239 -168
c3 -4 4 -19 1 -34 -6 -33 -27 -36 -96 -12 -48 16 -57 30 -34 53 12 13 114 8
129 -7z m201 -1024 c75 -29 129 -81 151 -143 32 -97 13 -165 -46 -165 -34 0
-82 43 -135 122 l-29 43 -87 -4 -87 -3 0 34 c0 49 15 58 91 58 70 0 95 13 66
35 -22 16 -22 45 0 45 10 0 44 -10 76 -22z m-778 -443 c21 -72 57 -129 116
-186 33 -31 59 -62 59 -68 0 -14 -151 -15 -202 -1 -21 6 -44 21 -53 33 -23 34
-19 91 10 125 20 24 25 41 25 87 0 47 3 56 16 53 10 -2 22 -21 29 -43z m444
-302 c15 -16 36 -50 46 -78 23 -63 49 -120 75 -165 33 -58 27 -73 -66 -172
-47 -50 -92 -105 -100 -124 -31 -75 -13 -152 67 -271 53 -79 96 -170 85 -180
-7 -8 -263 -21 -418 -22 l-97 -1 -11 38 c-6 20 -14 73 -17 118 l-6 81 67 6
c80 8 106 20 106 52 0 60 -117 92 -292 80 -114 -7 -149 -19 -158 -51 -4 -18
-130 -210 -183 -280 -21 -27 -62 -32 -71 -8 -26 68 17 270 109 508 13 33 26
87 29 119 5 60 35 121 66 132 9 4 23 -4 36 -20 25 -31 69 -45 105 -33 18 6 33
25 50 61 53 118 77 130 161 76 39 -25 60 -32 103 -33 71 -1 101 22 139 102 23
49 36 64 65 76 53 22 79 19 110 -11z m1295 -608 c7 -19 24 -162 28 -240 3 -58
2 -60 -22 -60 -18 0 -34 14 -67 60 -55 78 -60 102 -32 157 45 90 79 120 93 83z
m-1596 -577 c19 -19 14 -44 -13 -76 -29 -35 -58 -45 -81 -27 -22 16 -13 53 22
88 29 29 53 34 72 15z m-658 -109 c21 -38 -29 -129 -72 -129 -15 0 -18 8 -18
49 0 79 62 134 90 80z"/>
<path d="M4365 3546 c-18 -62 -10 -96 28 -121 38 -24 90 -30 106 -11 11 13 7
22 -28 62 -23 26 -46 64 -53 85 -16 54 -35 49 -53 -15z"/>
</g>
</svg>
