<?xml version="1.0" standalone="no"?>
<!DOCTYPE svg PUBLIC "-//W3C//DTD SVG 20010904//EN"
 "http://www.w3.org/TR/2001/REC-SVG-20010904/DTD/svg10.dtd">
<svg version="1.0" xmlns="http://www.w3.org/2000/svg"
 width="320.000000pt" height="320.000000pt" viewBox="0 0 320.000000 320.000000"
 preserveAspectRatio="xMidYMid meet">
<metadata>
Created by potrace 1.16, written by Peter Selinger 2001-2019
</metadata>
<g transform="translate(0.000000,320.000000) scale(0.100000,-0.100000)"
fill="#000000" stroke="none">
<path d="M1448 2830 c-110 -20 -214 -65 -313 -135 -201 -142 -323 -366 -337
-615 -3 -41 -3 -67 -1 -57 4 14 16 17 74 17 l69 0 0 43 c0 67 37 201 76 281
149 301 501 467 820 386 138 -35 236 -92 339 -195 50 -49 98 -106 108 -125
l19 -35 -28 35 c-138 176 -315 264 -529 264 -125 1 -187 -14 -305 -72 -99 -48
-219 -167 -273 -269 -41 -79 -77 -203 -77 -270 l0 -43 69 0 69 0 12 83 c27
186 134 341 298 430 90 48 167 67 277 67 173 -1 284 -48 412 -176 46 -45 83
-88 83 -95 0 -6 -18 9 -40 34 -46 52 -122 104 -200 136 -67 28 -211 39 -290
22 -206 -44 -372 -228 -396 -440 l-7 -61 72 0 c79 0 73 -6 86 88 14 106 119
248 221 300 53 27 151 52 204 52 52 0 151 -25 203 -51 49 -25 121 -91 157
-144 38 -56 70 -147 70 -200 l0 -45 -63 0 -64 0 -16 -100 c-60 -368 -351 -623
-712 -624 -223 0 -415 87 -559 255 -70 82 -79 105 -12 32 128 -139 298 -214
487 -214 187 0 327 58 460 191 107 106 159 205 184 344 21 125 26 116 -59 116
l-73 0 -6 -67 c-7 -86 -38 -169 -94 -255 -130 -199 -379 -297 -612 -243 -109
26 -187 72 -278 162 -46 45 -83 86 -83 91 0 6 27 -16 60 -49 66 -64 170 -120
258 -138 221 -46 456 73 555 279 19 41 38 98 42 125 3 28 8 60 11 73 4 21 2
22 -71 22 l-75 0 0 -35 c0 -95 -72 -227 -165 -302 -89 -73 -132 -87 -265 -88
-109 0 -118 2 -183 32 -123 58 -217 171 -243 293 -10 45 -12 49 -13 22 -3 -98
77 -299 162 -410 207 -269 570 -379 890 -271 386 131 615 536 527 934 -49 220
-191 413 -388 525 -125 70 -207 92 -362 96 -74 2 -156 -1 -182 -6z"/>
<path d="M2892 900 c-88 -19 -150 -72 -172 -151 -27 -92 25 -148 173 -185 36
-9 74 -25 83 -35 16 -18 16 -20 -1 -39 -31 -34 -135 -22 -135 15 0 12 -17 15
-85 15 l-85 0 0 -35 c0 -26 9 -45 35 -73 41 -47 93 -64 186 -63 122 1 216 54
253 143 43 103 -3 164 -154 203 -83 21 -100 31 -100 56 0 42 107 49 117 8 5
-17 15 -19 90 -19 l85 0 -6 38 c-8 45 -33 81 -73 104 -35 21 -151 31 -211 18z"/>
<path d="M292 868 c-10 -18 -61 -112 -112 -208 -51 -96 -108 -203 -127 -237
l-34 -63 86 0 85 0 17 35 17 35 88 0 c80 0 88 -2 88 -19 0 -47 8 -51 96 -51
l84 0 -5 28 c-3 15 -19 106 -37 202 -17 96 -36 204 -42 240 l-11 65 -87 3 -86
3 -20 -33z m92 -270 l6 -58 -55 0 c-30 0 -55 3 -55 6 0 3 19 45 41 93 l42 86
7 -35 c4 -19 10 -61 14 -92z"/>
<path d="M716 873 c-2 -16 -15 -84 -26 -153 -12 -69 -31 -171 -41 -228 -10
-57 -19 -110 -19 -118 0 -11 17 -14 85 -14 80 0 85 1 89 23 3 12 12 63 20 112
9 50 27 153 41 229 14 77 25 148 25 158 0 16 -9 18 -84 18 -84 0 -84 0 -90
-27z"/>
<path d="M1006 889 c-3 -8 -9 -43 -15 -79 -10 -66 -53 -315 -69 -402 l-9 -48
86 0 87 0 18 96 19 96 53 -4 c74 -6 88 -20 79 -81 -3 -28 -9 -63 -12 -78 l-5
-29 89 0 89 0 0 38 c0 20 4 63 8 94 8 55 8 58 -23 89 -34 33 -33 34 11 60 49
28 75 151 42 198 -31 44 -76 54 -266 59 -146 4 -178 2 -182 -9z m289 -139 c15
-17 16 -24 7 -45 -7 -14 -23 -30 -38 -35 -25 -10 -124 -14 -124 -5 0 2 5 27
11 55 l11 50 57 0 c45 0 62 -4 76 -20z"/>
<path d="M1571 783 c-49 -268 -60 -330 -67 -375 l-6 -48 164 0 c175 0 231 10
286 49 39 27 64 82 64 139 0 39 -5 51 -29 73 l-29 25 37 37 c41 39 58 92 43
135 -22 61 -99 82 -310 82 l-132 0 -21 -117z m283 -19 c23 -9 19 -50 -6 -68
-13 -9 -43 -16 -70 -16 -46 0 -48 1 -48 29 0 53 8 61 60 61 27 0 55 -3 64 -6z
m-10 -200 c20 -20 20 -27 -3 -55 -15 -19 -30 -24 -85 -27 l-67 -4 6 38 c11 65
10 64 74 64 41 0 65 -5 75 -16z"/>
<path d="M2155 888 c-7 -21 -34 -167 -50 -272 -25 -155 2 -225 98 -256 48 -15
168 -15 229 0 56 14 121 67 149 122 16 32 46 171 82 386 5 28 -15 34 -103 30
l-65 -3 -12 -65 c-60 -335 -59 -331 -116 -349 -40 -13 -84 -1 -94 25 -7 19 9
148 37 289 9 50 15 93 13 98 -8 13 -163 8 -168 -5z"/>
</g>
</svg>
