<?xml version="1.0" standalone="no"?>
<!DOCTYPE svg PUBLIC "-//W3C//DTD SVG 20010904//EN"
 "http://www.w3.org/TR/2001/REC-SVG-20010904/DTD/svg10.dtd">
<svg version="1.0" xmlns="http://www.w3.org/2000/svg"
 width="831.000000pt" height="831.000000pt" viewBox="0 0 831.000000 831.000000"
 preserveAspectRatio="xMidYMid meet">
<metadata>
Created by potrace 1.16, written by Peter Selinger 2001-2019
</metadata>
<g transform="translate(0.000000,831.000000) scale(0.100000,-0.100000)"
fill="#000000" stroke="none">
<path d="M10 4160 l0 -2430 4148 2 4147 3 0 2425 0 2425 -4147 3 -4148 2 0
-2430z m3444 1633 c62 -35 90 -46 121 -45 66 2 84 -6 103 -45 14 -29 28 -40
77 -58 33 -12 68 -26 78 -30 18 -8 24 -50 8 -60 -5 -3 -43 8 -83 24 -40 16
-76 27 -80 24 -11 -6 -10 -45 3 -81 8 -23 7 -37 -4 -59 -10 -19 -13 -48 -10
-88 4 -50 0 -72 -21 -122 -21 -52 -24 -66 -15 -94 6 -19 10 -100 10 -181 -1
-125 2 -154 19 -198 27 -69 26 -138 -2 -180 -35 -51 -51 -57 -83 -32 -32 26
-34 26 -59 7 -18 -13 -17 -17 8 -112 74 -280 50 -548 -73 -818 -29 -63 -32
-79 -30 -155 l2 -85 -27 2 c-40 3 -33 -23 24 -83 28 -29 50 -57 50 -63 0 -18
-52 -51 -81 -51 -19 0 -42 12 -68 35 -21 19 -46 35 -55 35 -9 0 -21 11 -28 25
l-11 24 -66 -60 c-36 -33 -98 -81 -139 -106 -455 -284 -1042 -219 -1421 157
l-76 75 -30 -30 c-16 -17 -43 -40 -60 -52 -24 -17 -28 -24 -17 -34 18 -19 15
-43 -8 -64 -20 -18 -21 -18 -60 20 -22 22 -40 47 -40 56 0 9 -7 22 -16 30 -19
15 -44 63 -44 82 0 8 19 22 43 31 24 9 62 36 86 60 l43 43 -41 81 c-47 93 -83
197 -107 304 -24 106 -24 347 -1 458 54 253 164 450 348 625 232 222 514 326
843 312 161 -7 286 -37 423 -101 91 -44 98 -45 137 -34 81 23 83 35 20 101
-44 44 -49 57 -53 115 -1 22 -3 23 -78 16 -51 -4 -74 -3 -68 3 19 19 170 130
190 140 28 14 272 26 259 13 -7 -7 -3 -25 13 -58 30 -61 43 -172 20 -172 -10
0 -17 13 -21 40 -3 22 -9 58 -12 79 -3 22 -14 49 -24 60 -17 21 -18 21 -40 3
-21 -17 -21 -18 -6 -79 16 -60 14 -102 -6 -155 -6 -15 -8 -35 -4 -43 5 -14 11
-12 43 10 21 14 52 25 69 25 37 0 94 30 158 83 49 41 66 90 66 186 0 32 5 53
15 61 11 9 13 16 5 24 -5 5 -10 17 -10 26 0 10 -38 32 -110 64 -61 26 -113 53
-116 58 -6 9 21 58 32 58 3 0 43 -21 88 -47z m1708 -640 c32 -29 16 -73 -27
-73 -58 0 -59 88 -1 90 5 0 18 -7 28 -17z m-675 -29 c29 -14 64 -39 78 -55
l25 -31 -22 -18 c-23 -18 -23 -18 -53 10 -145 136 -379 55 -402 -139 -9 -77
12 -137 68 -193 51 -51 94 -68 174 -68 55 0 138 33 169 68 17 20 20 20 43 5
l24 -16 -28 -29 c-15 -17 -50 -42 -78 -56 -42 -22 -63 -26 -135 -26 -94 -1
-160 21 -213 72 -80 75 -111 228 -67 330 24 55 100 134 147 154 86 34 190 32
270 -8z m231 -77 l3 -107 40 32 c36 29 48 33 99 33 67 0 102 -20 135 -76 17
-30 20 -52 20 -189 l0 -155 -27 -3 -28 -3 0 141 c0 192 -18 233 -105 233 -48
0 -86 -20 -112 -60 -14 -21 -19 -56 -23 -167 l-5 -141 -27 -3 -28 -3 0 291 0
291 28 -3 27 -3 3 -108z m814 -52 c25 -9 59 -31 77 -49 l32 -33 -24 -16 c-23
-15 -26 -15 -43 5 -51 56 -158 68 -223 25 -99 -66 -93 -219 11 -277 58 -33
143 -25 196 17 29 23 42 29 55 21 27 -15 20 -36 -24 -67 -193 -141 -448 57
-344 266 52 103 170 147 287 108z m427 5 c19 -5 50 -24 68 -42 l33 -32 0 37
c0 33 3 37 25 37 l25 0 0 -210 0 -210 -25 0 c-22 0 -25 4 -25 37 l0 37 -29
-28 c-36 -34 -112 -58 -161 -50 -98 16 -171 95 -178 193 -5 72 10 121 51 168
56 63 135 86 216 63z m496 -9 c22 -10 47 -26 55 -36 14 -17 15 -16 20 11 4 23
11 30 33 32 l27 3 0 -208 c-1 -217 -8 -262 -47 -305 -82 -91 -281 -79 -348 20
-32 47 -31 52 4 52 19 0 34 -8 44 -24 22 -33 77 -56 137 -56 92 0 150 49 150
127 l0 44 -32 -24 c-41 -31 -68 -39 -127 -39 -61 1 -91 13 -141 58 -83 75 -88
202 -11 287 66 73 155 95 236 58z m473 3 c84 -34 132 -109 132 -204 0 -107
-64 -189 -164 -210 -130 -26 -245 60 -254 189 -5 72 10 121 51 168 59 67 155
91 235 57z m-1768 -205 l0 -210 -27 3 -28 3 -3 195 c-1 107 0 200 2 207 3 7
17 13 31 13 l25 0 0 -211z m458 -351 c26 -26 7 -78 -28 -78 -9 0 -25 9 -35 20
-37 41 24 97 63 58z m-658 -110 l0 -112 29 28 c37 36 113 57 168 47 207 -38
236 -334 41 -415 -74 -31 -149 -18 -205 37 l-33 31 0 -38 c0 -35 -2 -37 -27
-34 l-28 3 -3 283 -2 282 30 0 30 0 0 -112z m500 -174 l0 -285 -27 3 -28 3 -3
283 -2 282 30 0 30 0 0 -286z m-1111 251 c98 -58 93 -202 -9 -252 -35 -18 -61
-23 -127 -23 l-83 0 0 -131 0 -130 -27 3 -28 3 -3 265 c-1 146 0 271 3 279 9
22 231 11 274 -14z m1659 -127 c39 -12 92 -54 92 -74 0 -7 -8 -18 -19 -23 -14
-8 -23 -6 -36 9 -28 31 -99 53 -151 47 -114 -12 -179 -136 -125 -237 49 -94
187 -116 266 -43 24 23 29 24 52 12 l25 -13 -40 -37 c-67 -63 -168 -77 -259
-35 -122 57 -161 212 -80 318 65 85 159 111 275 76z m-1496 -135 c6 -151 16
-186 59 -209 37 -19 109 -18 138 2 41 29 51 72 51 214 l0 130 30 0 30 0 0
-117 c-1 -137 -10 -195 -37 -231 -35 -47 -70 -65 -130 -70 -80 -5 -139 26
-170 88 -21 40 -23 59 -23 187 l0 143 24 0 c23 0 23 -1 28 -137z m1106 -65
l-3 -203 -27 -3 -28 -3 0 205 0 206 30 0 30 0 -2 -202z m-1375 -362 c18 -7 45
-28 62 -45 l29 -31 -22 -22 -22 -22 -35 34 c-44 43 -97 47 -127 10 -27 -33
-17 -77 26 -115 19 -16 61 -54 95 -83 77 -67 95 -100 89 -164 -6 -55 -40 -101
-95 -124 -68 -29 -148 -4 -194 59 -34 48 -35 49 -9 65 18 11 25 7 63 -33 31
-32 52 -45 71 -45 40 0 82 25 95 58 23 56 0 92 -124 193 -98 79 -121 164 -63
227 45 48 104 63 161 38z m717 -100 l0 -114 30 28 c82 76 206 61 252 -31 15
-28 18 -61 18 -186 l0 -153 -24 0 c-24 0 -24 0 -28 149 -5 167 -13 191 -73
211 -68 22 -148 -29 -166 -106 -4 -22 -9 -87 -9 -146 l0 -108 -30 0 -30 0 0
278 c0 153 3 282 7 285 3 4 17 7 30 7 23 0 23 -1 23 -114z m1380 -171 l0 -285
-30 0 -30 0 0 285 0 285 30 0 30 0 0 -285z m-1594 111 c59 -27 90 -62 72 -83
-15 -18 -25 -16 -63 13 -75 57 -170 51 -236 -15 -102 -101 -27 -271 119 -271
51 0 90 14 123 46 24 23 29 24 48 12 27 -16 27 -19 -6 -51 -81 -77 -241 -79
-321 -4 -41 38 -65 97 -65 157 0 165 173 268 329 196z m872 8 c192 -80 165
-377 -38 -414 -160 -29 -292 119 -246 275 36 119 173 186 284 139z m477 -3
c43 -19 100 -78 116 -118 15 -39 11 -141 -7 -176 -74 -147 -274 -163 -368 -30
-35 50 -46 137 -26 198 27 82 114 145 200 145 25 0 63 -9 85 -19z m495 -1 c49
-25 54 -33 31 -54 -16 -15 -21 -15 -58 6 -39 21 -41 21 -67 4 -15 -9 -30 -24
-33 -32 -9 -24 23 -60 83 -94 61 -36 94 -79 94 -125 0 -36 -31 -89 -60 -105
-48 -26 -145 -7 -178 33 -9 11 -8 18 8 32 18 16 20 16 46 -4 45 -36 106 -23
125 26 13 35 -7 63 -73 100 -76 44 -93 66 -93 123 0 94 83 137 175 90z"/>
<path d="M2262 5249 c-431 -56 -799 -384 -911 -813 -56 -214 -44 -465 32 -667
21 -55 73 -166 83 -178 1 -2 23 13 48 34 71 58 76 133 10 145 -26 5 -31 13
-52 75 -30 94 -23 146 24 182 30 23 34 31 34 73 0 40 7 58 45 113 25 37 45 70
45 75 0 5 -9 17 -20 27 -24 22 -26 51 -4 59 17 7 44 -5 64 -28 37 -45 55 7 20
59 -27 41 -26 103 3 146 43 64 144 76 204 25 26 -22 27 -29 27 -102 -2 -111
-13 -148 -46 -152 -25 -3 -26 -6 -21 -40 3 -20 12 -61 20 -90 8 -29 13 -67 12
-85 -5 -49 5 -57 61 -50 58 7 73 -10 46 -52 -18 -27 -55 -33 -100 -15 -24 9
-26 7 -37 -33 -7 -23 -11 -52 -11 -64 2 -28 47 -117 68 -134 26 -22 44 -66 44
-111 1 -68 24 -204 37 -220 7 -8 18 -32 25 -53 11 -32 19 -41 43 -45 21 -4 31
-12 33 -28 5 -32 -29 -41 -143 -39 l-97 2 -3 83 c-2 46 -8 89 -14 96 -6 7 -25
57 -44 111 -18 54 -37 100 -43 102 -5 1 -19 -15 -32 -37 -12 -22 -50 -69 -83
-105 l-61 -65 25 -34 c34 -44 136 -132 216 -186 91 -61 217 -117 329 -147 86
-23 116 -27 267 -27 143 0 184 3 255 21 176 45 327 123 470 245 72 62 80 71
74 96 -8 36 -40 62 -74 62 -34 0 -40 -14 -40 -89 0 -58 -11 -81 -40 -81 -9 0
-35 -18 -58 -40 -42 -42 -69 -48 -116 -30 -40 15 -32 45 26 109 l51 56 -31 3
c-22 2 -32 9 -32 20 0 53 22 261 37 348 15 91 15 113 3 220 -8 65 -15 152 -15
192 l0 73 -50 -3 -50 -3 -3 37 c-2 29 -8 37 -25 40 -21 3 -22 8 -20 88 0 47 6
114 12 150 6 36 20 124 31 195 18 116 26 141 73 235 28 58 53 108 55 112 2 4
-24 21 -57 37 -178 90 -409 128 -619 100z m51 -244 c10 -13 18 -14 45 -4 27 9
41 8 78 -6 51 -19 64 -38 64 -92 0 -22 4 -43 10 -49 6 -6 5 -27 -3 -59 -11
-48 -14 -50 -49 -53 -52 -4 -49 -26 7 -47 58 -23 66 -33 91 -124 19 -71 24
-78 62 -99 l41 -23 -14 -38 c-12 -34 -11 -39 6 -49 39 -25 14 -111 -29 -100
-15 4 -23 0 -27 -13 -5 -15 -10 -17 -25 -9 -10 6 -21 10 -24 10 -13 0 -5 -68
14 -118 27 -71 70 -253 77 -328 l6 -62 -93 -118 c-111 -142 -124 -169 -115
-239 8 -70 48 -152 80 -167 15 -7 24 -18 23 -27 -3 -14 -24 -16 -135 -18
l-131 -1 -4 29 c-3 17 1 41 8 54 10 20 9 26 -7 41 -10 9 -27 34 -36 55 -10 23
-24 39 -33 39 -23 0 -54 36 -47 54 3 8 33 36 66 63 55 44 59 50 53 78 -10 45
-7 127 8 189 8 35 11 89 8 150 -5 83 -9 101 -32 134 -20 29 -26 50 -26 90 0
48 -2 52 -24 52 -19 0 -25 7 -30 35 -6 31 -11 35 -37 35 -38 0 -46 20 -55 144
-7 106 -2 120 46 131 28 6 32 12 44 66 3 15 24 45 46 68 22 22 40 45 40 50 0
5 10 11 22 13 32 4 33 32 4 62 -15 14 -26 31 -26 38 0 12 -24 25 -71 41 -26 9
-33 72 -12 102 10 13 26 25 35 25 9 0 20 5 23 10 9 15 64 5 78 -15z"/>
<path d="M2446 3805 c-4 -38 -9 -81 -12 -95 -6 -24 -5 -24 15 5 21 31 26 85
12 135 -6 19 -9 8 -15 -45z"/>
<path d="M3441 4273 c-6 -109 -14 -274 -17 -368 l-4 -170 25 70 c36 99 55 220
55 350 0 106 -21 271 -38 302 -5 7 -14 -75 -21 -184z"/>
<path d="M1610 4342 c0 -4 10 -13 23 -21 22 -14 22 -14 3 8 -20 22 -26 25 -26
13z"/>
<path d="M5822 4930 c-68 -41 -93 -138 -56 -216 48 -100 201 -112 266 -21 31
43 36 130 10 177 -42 77 -146 105 -220 60z"/>
<path d="M6304 4931 c-77 -47 -102 -129 -63 -208 29 -56 74 -83 139 -83 93 0
155 62 154 155 0 62 -23 106 -67 134 -44 27 -120 28 -163 2z"/>
<path d="M6770 4927 c-95 -63 -98 -203 -7 -271 40 -29 134 -29 174 0 33 24 73
97 73 134 0 40 -42 113 -79 137 -46 31 -116 31 -161 0z"/>
<path d="M5042 4224 c-49 -25 -75 -69 -80 -133 -6 -102 55 -171 152 -171 93 0
156 62 156 153 0 97 -53 158 -144 164 -34 2 -62 -2 -84 -13z"/>
<path d="M4130 4281 l0 -91 86 0 c82 0 87 1 116 30 26 27 30 36 25 67 -11 63
-35 77 -137 81 l-90 4 0 -91z"/>
<path d="M5480 3513 c-8 -3 -30 -19 -47 -36 -110 -104 -26 -291 123 -274 83 9
134 72 134 164 0 56 -33 114 -80 138 -28 15 -100 19 -130 8z"/>
<path d="M5930 3497 c-47 -31 -72 -78 -72 -136 0 -97 58 -156 154 -156 41 0
64 6 85 21 33 24 73 97 73 134 0 40 -42 113 -79 137 -46 31 -116 31 -161 0z"/>
</g>
</svg>
