<?xml version="1.0" standalone="no"?>
<!DOCTYPE svg PUBLIC "-//W3C//DTD SVG 20010904//EN"
 "http://www.w3.org/TR/2001/REC-SVG-20010904/DTD/svg10.dtd">
<svg version="1.0" xmlns="http://www.w3.org/2000/svg"
 width="1024.000000pt" height="1024.000000pt" viewBox="0 0 1024.000000 1024.000000"
 preserveAspectRatio="xMidYMid meet">
<metadata>
Created by potrace 1.16, written by Peter Selinger 2001-2019
</metadata>
<g transform="translate(0.000000,1024.000000) scale(0.100000,-0.100000)"
fill="#000000" stroke="none">
<path d="M1860 6829 c-609 -47 -1171 -433 -1430 -982 -59 -125 -102 -254 -132
-390 -19 -89 -22 -132 -23 -332 0 -251 7 -304 66 -498 199 -652 775 -1128
1462 -1208 128 -15 392 -7 507 16 245 48 460 135 658 266 l72 49 77 -52 c216
-145 496 -247 764 -279 144 -16 404 -6 534 21 218 46 440 137 618 253 l86 56
82 -56 c166 -111 400 -209 589 -247 466 -94 933 -6 1326 249 l81 53 74 -50
c447 -301 1031 -371 1556 -187 415 145 789 483 978 882 400 844 45 1849 -800
2263 -554 271 -1225 229 -1729 -109 l-79 -53 -81 54 c-419 277 -958 358 -1448
217 -158 -46 -369 -145 -491 -231 -26 -19 -51 -34 -57 -34 -5 0 -48 25 -94 55
-434 283 -988 355 -1486 194 -122 -39 -298 -123 -406 -194 -46 -30 -88 -55
-93 -55 -4 0 -45 25 -91 55 -171 113 -391 203 -595 244 -84 17 -346 44 -380
40 -5 -1 -57 -5 -115 -10z m384 -375 c155 -26 303 -80 452 -166 l72 -40 -77
-102 c-167 -220 -274 -464 -322 -735 -25 -137 -30 -400 -10 -526 48 -307 173
-595 355 -818 26 -32 45 -64 42 -72 -2 -7 -60 -40 -128 -74 -214 -106 -348
-140 -578 -148 -116 -4 -181 -1 -255 10 -443 71 -818 338 -1018 726 -88 171
-131 320 -146 507 -30 385 99 745 367 1026 156 162 303 262 497 337 243 94
489 119 749 75z m2081 0 c159 -27 402 -122 494 -193 l24 -18 -65 -84 c-162
-208 -272 -445 -330 -709 -19 -92 -22 -133 -22 -330 0 -197 3 -238 22 -330 59
-272 181 -529 347 -730 25 -30 45 -57 45 -61 0 -10 -145 -89 -231 -125 -185
-78 -364 -109 -583 -101 -153 6 -254 23 -386 66 -84 28 -310 139 -316 156 -3
8 16 40 42 72 347 425 461 1035 292 1563 -62 192 -147 355 -269 516 l-77 102
91 50 c287 158 597 210 922 156z m2075 0 c47 -8 123 -26 170 -40 86 -26 284
-118 329 -153 l24 -18 -56 -69 c-494 -612 -494 -1499 1 -2107 65 -80 71 -70
-93 -151 -203 -100 -342 -134 -570 -142 -178 -7 -282 6 -440 51 -90 26 -290
116 -345 155 l-30 21 52 62 c28 34 75 98 104 142 398 612 358 1402 -99 1970
l-56 70 47 29 c67 42 194 100 284 130 216 73 444 89 678 50z m1955 16 c187
-18 333 -59 498 -141 143 -71 238 -140 358 -259 196 -196 318 -419 376 -690
25 -119 25 -401 0 -518 -119 -546 -525 -948 -1077 -1068 -121 -27 -429 -27
-549 0 -131 28 -226 62 -346 121 -164 82 -157 71 -92 152 378 470 477 1099
262 1662 -59 154 -166 337 -268 455 -60 69 -65 59 83 135 164 85 327 133 505
150 117 12 130 12 250 1z m-5241 -557 c76 -101 163 -271 200 -389 44 -144 59
-247 60 -409 0 -211 -34 -368 -120 -553 -33 -72 -136 -234 -189 -297 l-25 -30
-25 30 c-93 111 -186 276 -239 423 -72 203 -92 481 -47 690 28 133 77 270 136
377 48 88 160 245 175 245 5 0 38 -39 74 -87z m2076 2 c171 -227 261 -501 261
-790 0 -309 -88 -568 -278 -820 -26 -36 -51 -65 -55 -65 -17 0 -143 186 -193
285 -91 184 -131 337 -142 545 -15 309 95 641 295 888 19 23 39 41 44 40 4 -2
35 -39 68 -83z m2077 2 c122 -161 214 -376 247 -576 21 -122 20 -322 0 -442
-38 -220 -142 -451 -277 -613 l-41 -49 -29 34 c-16 19 -50 66 -77 104 -326
478 -302 1120 59 1573 23 28 45 52 49 52 4 0 35 -37 69 -83z"/>
</g>
</svg>
