<?xml version="1.0" standalone="no"?>
<!DOCTYPE svg PUBLIC "-//W3C//DTD SVG 20010904//EN"
 "http://www.w3.org/TR/2001/REC-SVG-20010904/DTD/svg10.dtd">
<svg version="1.0" xmlns="http://www.w3.org/2000/svg"
 width="828.000000pt" height="828.000000pt" viewBox="0 0 828.000000 828.000000"
 preserveAspectRatio="xMidYMid meet">
<metadata>
Created by potrace 1.16, written by Peter Selinger 2001-2019
</metadata>
<g transform="translate(0.000000,828.000000) scale(0.100000,-0.100000)"
fill="#000000" stroke="none">
<path d="M4199 7237 c-76 -51 -95 -119 -63 -228 18 -60 92 -209 104 -209 12 0
86 149 104 209 23 77 21 131 -7 172 -20 31 -80 79 -97 79 -4 0 -22 -10 -41
-23z"/>
<path d="M3960 6951 c-54 -17 -109 -52 -143 -92 -114 -132 -82 -371 71 -531
l55 -58 297 0 297 0 55 58 c123 128 171 314 118 455 -33 87 -126 160 -223 173
l-42 6 -13 -48 c-26 -98 -150 -274 -192 -274 -45 0 -179 196 -196 286 -5 29
-10 34 -33 33 -14 0 -37 -4 -51 -8z"/>
<path d="M3415 6548 c-66 -36 -74 -115 -20 -226 19 -40 38 -72 43 -72 18 0 74
131 79 185 5 52 4 56 -30 90 -38 38 -42 40 -72 23z"/>
<path d="M4993 6525 c-34 -34 -35 -38 -30 -90 5 -54 61 -185 79 -185 5 0 24
32 43 72 54 112 46 192 -22 227 -30 15 -31 15 -70 -24z"/>
<path d="M1589 6472 c-97 -62 -161 -157 -201 -299 -33 -115 -33 -320 0 -415
62 -180 253 -379 527 -553 33 -20 62 -39 63 -41 9 -7 -11 -84 -22 -84 -18 0
-298 183 -420 274 -123 93 -263 228 -292 282 -10 18 -22 34 -26 34 -15 0 -70
-78 -90 -130 -19 -46 -22 -75 -22 -180 0 -107 3 -133 23 -183 87 -221 281
-349 676 -450 l130 -34 3 -37 3 -37 -48 6 c-348 46 -572 113 -696 208 l-47 37
-11 -27 c-18 -45 -23 -184 -10 -259 30 -174 120 -276 291 -329 102 -32 450
-31 587 2 18 4 25 -2 38 -33 8 -20 13 -39 10 -42 -8 -9 -202 -40 -325 -53
-146 -15 -315 -7 -399 20 l-64 20 7 -69 c12 -132 71 -246 155 -299 68 -44 126
-55 245 -48 169 11 349 64 490 147 l69 41 24 -22 c12 -13 23 -26 23 -30 0 -13
-163 -112 -274 -165 -125 -60 -258 -101 -358 -112 l-67 -7 18 -52 c26 -78 65
-129 122 -162 100 -57 270 -66 380 -20 96 40 214 126 322 234 100 102 106 105
131 94 14 -7 26 -15 26 -19 0 -11 -79 -120 -148 -203 -73 -88 -165 -170 -247
-219 -30 -18 -55 -35 -55 -38 0 -3 10 -23 23 -44 74 -131 314 -117 475 29 69
62 161 203 202 310 34 85 44 95 79 75 16 -8 17 -16 10 -57 -32 -172 -110 -353
-183 -426 l-45 -44 22 -20 c77 -70 252 -50 334 39 55 60 93 174 93 285 0 39 4
74 9 78 5 3 24 -15 42 -40 18 -25 34 -45 36 -45 2 0 3 170 3 379 l0 378 -88 6
c-315 20 -438 220 -364 590 12 59 22 133 22 163 l0 56 -83 81 c-45 45 -131
126 -190 180 -59 54 -128 126 -154 159 -48 63 -123 199 -123 223 0 27 -16 23
-53 -11 -20 -19 -41 -32 -47 -29 -14 8 -164 236 -245 370 -125 209 -223 431
-240 549 -4 25 -13 46 -19 46 -7 0 -32 -13 -57 -28z"/>
<path d="M6815 6454 c-17 -118 -115 -340 -240 -549 -81 -134 -231 -362 -245
-370 -6 -3 -27 10 -47 29 -37 34 -53 38 -53 11 0 -24 -75 -160 -123 -223 -26
-33 -95 -105 -154 -159 -59 -54 -145 -135 -190 -180 l-83 -81 0 -56 c0 -30 10
-104 22 -163 74 -370 -49 -570 -364 -590 l-88 -6 0 -378 c0 -209 1 -379 3
-379 2 0 18 20 36 45 18 25 37 43 42 40 5 -4 9 -39 9 -78 0 -111 38 -225 93
-285 82 -89 257 -109 334 -39 l22 20 -45 44 c-73 73 -151 254 -183 426 -7 41
-6 49 10 57 29 16 47 12 54 -12 37 -121 145 -299 228 -374 160 -145 400 -159
474 -28 13 21 23 41 23 44 0 3 -25 20 -55 38 -82 49 -174 131 -247 219 -69 83
-148 192 -148 203 0 4 12 12 26 19 25 11 31 8 131 -94 108 -108 224 -193 323
-236 46 -20 72 -23 160 -24 120 0 168 12 236 58 38 25 56 47 81 97 54 109 54
106 -24 113 -97 8 -231 50 -359 111 -111 53 -274 152 -274 165 0 4 11 17 23
30 l24 22 69 -41 c141 -83 321 -136 490 -147 119 -7 177 4 245 48 84 53 143
167 155 299 l7 69 -64 -20 c-84 -27 -253 -35 -399 -20 -123 13 -317 44 -325
53 -3 3 2 22 10 42 13 31 20 37 38 33 137 -33 485 -34 587 -2 171 53 261 155
291 329 13 75 8 214 -10 259 l-11 27 -47 -37 c-124 -95 -348 -162 -696 -208
l-48 -6 3 37 3 37 130 34 c223 57 361 114 482 199 106 76 175 176 208 304 20
78 16 218 -9 297 -16 50 -70 133 -91 140 -6 2 -19 -13 -30 -32 -29 -54 -167
-187 -291 -281 -122 -91 -402 -274 -420 -274 -11 0 -31 77 -22 84 1 2 30 21
63 41 274 174 465 373 527 553 33 95 33 300 0 415 -29 101 -63 168 -115 225
-42 46 -121 102 -143 102 -6 0 -15 -21 -19 -46z"/>
<path d="M2745 6441 c-22 -10 -74 -44 -114 -76 -85 -65 -170 -110 -225 -120
-21 -4 -40 -14 -43 -21 -3 -8 12 -68 32 -135 33 -105 37 -129 33 -192 -3 -45
-13 -89 -26 -116 -12 -25 -22 -45 -22 -45 0 -1 22 1 50 2 47 4 50 2 70 -30 11
-18 20 -45 20 -60 0 -37 9 -35 44 8 98 123 85 328 -30 481 -13 17 -24 36 -24
41 0 5 25 13 55 17 30 3 88 14 129 24 42 10 78 16 81 13 3 -3 5 -26 5 -52 0
-61 22 -134 59 -191 32 -52 102 -92 180 -104 l43 -7 -40 37 c-46 41 -82 123
-82 183 1 20 7 64 15 97 24 99 21 116 -31 174 -72 80 -120 99 -179 72z"/>
<path d="M5645 6441 c-22 -10 -62 -42 -88 -71 -53 -59 -56 -76 -32 -175 8 -33
14 -77 15 -97 0 -60 -36 -142 -82 -183 l-40 -37 43 7 c73 11 146 52 178 99 35
51 61 134 61 196 0 26 2 49 5 52 3 3 39 -3 81 -13 41 -10 99 -21 129 -24 30
-4 55 -12 55 -17 0 -5 -11 -24 -24 -41 -115 -153 -128 -358 -30 -481 35 -43
44 -45 44 -8 0 15 9 42 20 60 20 32 23 34 70 30 28 -1 50 -3 50 -2 0 0 -10 20
-22 45 -13 27 -23 71 -26 116 -4 63 0 87 33 192 20 67 35 127 32 135 -3 7 -22
17 -43 21 -55 10 -139 55 -225 120 -120 92 -147 102 -204 76z"/>
<path d="M3203 6329 c-22 -11 -54 -39 -70 -61 -25 -37 -28 -49 -28 -122 0 -97
24 -159 88 -223 l41 -43 207 0 207 0 35 40 c140 154 118 373 -42 421 -45 13
-71 7 -71 -17 0 -27 -59 -129 -95 -164 -29 -29 -35 -30 -54 -18 -30 18 -98
121 -112 169 -10 32 -17 39 -38 39 -14 0 -45 -9 -68 -21z"/>
<path d="M4815 6331 c-140 -64 -149 -267 -18 -411 l35 -40 207 0 207 0 41 43
c64 64 88 126 88 223 0 73 -3 85 -29 122 -30 44 -94 82 -138 82 -20 0 -27 -7
-37 -39 -14 -48 -82 -151 -111 -169 -20 -12 -25 -11 -52 15 -40 37 -73 89 -91
144 -18 52 -40 59 -102 30z"/>
<path d="M3946 6119 c-8 -80 -50 -172 -95 -211 l-36 -30 35 7 c151 31 243 119
265 253 l7 42 -85 0 -84 0 -7 -61z"/>
<path d="M4365 6138 c22 -134 114 -222 265 -253 l35 -7 -36 30 c-45 39 -87
131 -95 211 l-7 61 -84 0 -85 0 7 -42z"/>
<path d="M4011 5860 c-72 -62 -87 -63 -531 -69 -302 -5 -411 -9 -427 -19 -24
-13 -37 -46 -31 -78 3 -16 -6 -20 -57 -26 -87 -11 -156 -48 -184 -99 -20 -35
-23 -51 -19 -113 5 -72 37 -164 64 -187 12 -10 20 -7 42 13 46 44 106 68 166
68 58 0 133 -21 174 -48 l24 -16 -33 -12 c-19 -6 -82 -37 -141 -67 -122 -63
-177 -75 -255 -54 -29 8 -53 11 -53 7 0 -13 46 -49 82 -65 52 -21 95 -19 183
9 77 25 88 22 85 -17 -1 -12 -2 -32 -1 -45 1 -23 2 -22 42 12 54 46 96 59 174
54 49 -3 70 -10 98 -31 69 -53 107 -133 127 -269 7 -40 13 -83 16 -95 l4 -23
680 0 680 0 4 23 c2 12 9 55 15 95 21 136 59 217 128 269 28 21 49 28 98 31
78 5 120 -8 174 -54 40 -34 41 -35 42 -12 1 13 0 33 -1 45 -3 39 8 42 85 17
88 -28 131 -30 183 -9 36 16 82 52 82 65 0 4 -24 1 -52 -7 -79 -21 -134 -9
-256 54 -59 30 -122 61 -141 67 l-33 12 24 16 c41 27 116 48 174 48 60 0 120
-24 166 -68 22 -20 30 -23 42 -13 27 23 59 115 64 187 4 62 1 78 -19 113 -28
51 -97 88 -184 99 -51 6 -60 10 -57 26 6 32 -7 65 -31 78 -16 10 -125 14 -427
18 -446 6 -453 7 -534 72 l-39 31 7 -69 c4 -38 17 -92 30 -120 24 -53 49 -75
125 -114 42 -21 44 -23 26 -36 -29 -21 -84 -28 -138 -17 l-49 10 6 -31 c10
-48 37 -78 105 -114 l62 -34 -43 -27 c-136 -86 -263 -310 -299 -526 -7 -41
-16 -75 -19 -75 -3 0 -12 34 -19 75 -36 216 -163 440 -299 526 l-43 27 62 34
c68 36 95 66 105 114 l6 31 -49 -10 c-54 -11 -109 -4 -138 17 -18 13 -16 15
26 36 76 39 101 61 125 114 19 43 45 187 33 186 -2 -1 -19 -14 -38 -30z m-612
-244 c-4 -5 -148 -68 -196 -87 -21 -8 -26 -3 -48 41 l-25 50 136 0 c76 0 135
-2 133 -4z m1926 -46 c-22 -44 -27 -49 -48 -41 -48 19 -192 82 -196 87 -2 2
57 4 133 4 l136 0 -25 -50z"/>
<path d="M3322 3623 c3 -927 4 -980 22 -1020 22 -52 73 -98 123 -113 21 -6
112 -15 203 -20 169 -9 234 -18 329 -46 64 -18 162 -66 209 -101 l32 -24 33
24 c46 35 144 83 208 101 95 28 160 37 329 46 91 5 182 14 202 20 52 15 97 56
122 110 21 45 21 54 24 1023 l2 977 -920 0 -920 0 2 -977z m668 847 c7 -22 19
-40 26 -40 20 0 35 -37 30 -73 -4 -25 53 -191 262 -761 155 -424 273 -731 281
-734 11 -4 12 1 7 19 -20 73 -20 69 13 69 18 0 31 5 31 13 0 6 -20 62 -45 122
-25 61 -45 116 -45 123 0 7 -16 36 -36 65 -20 28 -40 62 -45 75 -5 12 -17 22
-28 22 -14 0 -24 13 -35 43 -145 383 -281 773 -271 775 7 2 10 22 7 60 -3 47
0 63 20 92 63 93 200 92 258 -2 13 -22 20 -51 20 -87 0 -52 -2 -57 -48 -101
-48 -46 -48 -47 -34 -76 13 -28 12 -33 -11 -68 -39 -56 -64 -158 -47 -186 14
-23 27 -2 33 53 18 182 202 306 379 257 48 -14 94 -67 103 -121 6 -35 2 -53
-23 -108 -17 -36 -33 -78 -36 -92 -3 -15 -14 -37 -25 -50 -16 -20 -23 -22 -47
-14 -29 10 -29 11 -29 92 0 45 -3 85 -7 89 -5 4 -17 -1 -28 -11 -27 -24 -27
-98 1 -167 25 -63 22 -140 -11 -232 -20 -54 -20 -68 -11 -165 13 -138 24 -203
52 -298 12 -43 24 -80 25 -81 6 -8 46 11 75 35 24 21 30 33 29 62 -3 59 -2 61
34 61 35 0 55 -13 37 -25 -6 -3 -8 -12 -5 -19 3 -7 -2 -16 -10 -19 -11 -4 -16
-20 -16 -48 0 -40 1 -41 28 -34 15 3 35 14 46 24 17 17 17 20 2 43 -16 24 -16
25 16 20 l32 -5 -17 27 c-10 14 -13 26 -7 26 23 0 69 -31 75 -50 9 -27 -3 -76
-21 -91 -8 -7 -21 -27 -29 -45 -7 -18 -24 -38 -37 -44 -12 -7 -34 -24 -46 -38
-16 -18 -26 -23 -29 -14 -6 16 -23 16 -23 -1 0 -7 -7 -22 -15 -33 -14 -18 -16
-18 -26 -1 -5 9 -14 17 -19 17 -6 0 -10 -8 -10 -17 0 -10 -8 -27 -16 -38 -16
-20 -16 -20 -31 3 -23 34 -30 27 -36 -35 -6 -68 -33 -135 -72 -182 l-28 -33
-14 26 c-11 20 -18 24 -31 17 -26 -14 -153 -31 -227 -31 l-66 0 37 35 c34 32
36 38 31 77 -3 25 -1 52 7 67 34 68 27 158 -16 199 -51 47 -155 37 -183 -19
-21 -39 -19 -56 11 -86 20 -20 28 -23 37 -14 9 9 8 15 -5 22 -11 6 -18 22 -18
39 0 60 98 76 140 22 25 -32 26 -104 2 -152 -34 -68 -157 -102 -236 -65 -87
41 -135 141 -115 235 13 59 67 125 123 151 56 25 179 26 245 0 55 -21 61 -17
61 39 0 20 -6 31 -20 35 -11 4 -18 11 -14 16 3 6 12 8 20 5 20 -8 17 11 -3 23
-16 9 -15 10 8 11 38 0 55 -18 84 -91 23 -59 68 -120 79 -108 4 4 -129 378
-139 387 -2 3 -50 9 -106 13 -56 4 -125 11 -153 14 l-51 7 -13 -35 c-16 -43
-72 -100 -138 -138 -57 -32 -61 -40 -70 -140 -6 -59 -4 -70 16 -97 29 -39 20
-52 -37 -52 -45 0 -45 0 -38 28 4 15 9 71 11 125 4 95 22 167 43 167 39 0 54
143 25 235 -43 134 38 251 182 263 49 4 52 6 58 36 13 58 19 192 12 248 -7 54
-8 55 -46 67 -59 17 -70 40 -70 146 0 82 -9 164 -26 238 -10 44 21 34 36 -13z
m-13 -362 c10 -8 32 -22 48 -29 28 -13 31 -20 39 -86 5 -39 5 -92 2 -118 -7
-46 -8 -46 -39 -40 -18 4 -48 16 -67 27 -19 11 -64 24 -99 28 -59 8 -67 12
-107 56 -34 36 -41 50 -34 64 18 33 125 123 175 146 l50 24 7 -29 c4 -15 16
-35 25 -43z m-221 -319 c24 -6 58 -24 75 -40 26 -24 28 -30 17 -48 -9 -15 -18
-19 -38 -14 -91 25 -122 -24 -79 -124 11 -26 21 -65 21 -86 -1 -58 -42 -121
-97 -147 -25 -12 -48 -20 -51 -18 -2 3 4 20 13 39 9 18 19 56 21 84 4 46 1 55
-37 104 -60 80 -66 146 -19 206 39 50 94 64 174 44z m1051 -221 c59 -63 83
-109 83 -160 0 -26 5 -50 10 -53 11 -7 14 -48 4 -58 -8 -8 -56 17 -73 37 -10
12 -9 18 8 33 28 24 26 59 -5 97 -49 57 -60 61 -96 31 -40 -34 -108 -68 -108
-55 0 6 10 44 22 85 l22 75 51 0 c45 0 55 -4 82 -32z m-627 -234 c13 -14 -41
-83 -93 -118 l-58 -38 7 -45 c5 -33 3 -48 -7 -54 -23 -14 -28 -11 -38 29 -15
54 -13 80 8 110 10 15 22 38 26 52 4 13 17 37 29 53 20 27 24 28 71 22 27 -3
52 -9 55 -11z m-550 -220 c15 -9 35 -29 44 -44 20 -34 20 -106 1 -140 -20 -36
-18 -67 6 -91 19 -19 29 -21 83 -15 33 3 70 8 82 12 18 5 23 -2 38 -53 9 -32
19 -63 22 -70 8 -18 -69 -35 -166 -37 -69 -1 -91 3 -120 20 -50 29 -80 78 -80
131 0 51 10 74 56 126 42 46 47 108 13 151 -24 30 -18 33 21 10z"/>
<path d="M4211 4354 c-39 -33 -54 -84 -38 -132 7 -21 19 -37 27 -37 12 0 14
12 12 57 -3 46 0 60 17 77 28 28 64 35 98 19 62 -30 66 -113 7 -153 -32 -22
-34 -45 -4 -45 28 0 78 56 86 96 20 110 -119 191 -205 118z"/>
<path d="M4376 2969 c19 -21 19 -22 -3 -15 -12 4 -24 3 -27 -2 -3 -6 3 -12 14
-15 16 -4 20 -14 20 -45 0 -47 6 -52 59 -55 48 -2 59 7 38 27 -8 9 -21 33 -27
53 -16 50 -38 73 -68 73 -25 0 -25 0 -6 -21z"/>
<path d="M1551 3173 c-40 -24 -43 -27 -26 -39 11 -8 18 -28 19 -53 1 -23 1
-41 0 -41 -11 0 -72 49 -67 53 3 4 3 13 -1 22 -5 13 -12 11 -48 -12 -63 -41
-69 -54 -44 -89 15 -19 15 -19 30 1 14 19 17 19 43 5 33 -19 59 -61 50 -83
-11 -29 -98 -23 -136 9 -36 30 -48 26 -57 -21 -12 -66 40 -158 106 -185 43
-18 98 -4 132 32 l28 30 11 -26 c9 -20 10 -35 1 -63 -14 -46 -3 -56 53 -49
l40 4 170 -303 c93 -167 171 -308 173 -313 2 -6 -7 -13 -20 -17 -96 -29 -90
-160 8 -201 30 -13 32 -16 27 -51 -6 -47 21 -86 72 -103 31 -10 34 -14 28 -40
-8 -40 33 -77 95 -85 26 -4 54 -7 62 -8 8 -1 47 -58 86 -126 38 -68 81 -132
93 -142 34 -27 68 -24 103 11 24 24 29 37 25 59 -3 15 -47 97 -96 181 -50 84
-91 155 -91 159 0 3 9 12 20 18 24 16 46 57 55 107 11 56 75 93 286 164 189
64 239 86 287 127 31 26 31 26 83 11 29 -9 74 -16 100 -16 l47 0 -10 43 c-20
84 10 225 58 278 14 16 12 21 -24 57 -58 58 -83 132 -91 272 l-6 115 -27 -46
c-67 -115 -207 -212 -325 -227 -68 -8 -78 -27 -43 -74 28 -38 14 -51 -47 -45
-37 4 -43 2 -43 -15 0 -36 30 -93 66 -124 l35 -30 -64 -81 c-100 -123 -169
-171 -262 -180 -95 -10 -140 3 -200 57 -51 47 -91 65 -159 72 -25 3 -43 29
-193 281 l-164 278 20 26 c30 38 27 69 -7 76 -34 7 -84 45 -77 58 4 5 15 9 26
9 33 0 78 28 94 60 21 40 19 77 -9 135 -25 55 -59 84 -111 92 l-33 5 11 -39
c9 -33 7 -46 -9 -78 -26 -53 -47 -64 -73 -41 -15 14 -21 31 -21 63 0 36 3 43
20 43 24 0 26 22 4 44 -21 22 -32 20 -83 -11z"/>
<path d="M6329 2953 c-14 -3 -14 -9 2 -56 10 -29 18 -65 19 -81 0 -27 -1 -28
-37 -22 -21 4 -55 15 -75 25 -45 22 -48 17 -48 -69 0 -88 3 -92 53 -70 23 10
56 20 72 22 29 3 30 2 28 -37 -4 -74 -10 -83 -56 -96 -120 -32 -225 -120 -280
-237 -29 -61 -32 -75 -32 -167 0 -55 3 -112 8 -127 10 -37 -12 -37 -78 1 -72
42 -127 93 -201 184 l-65 81 35 30 c36 31 66 88 66 124 0 17 -6 19 -42 15 -62
-6 -76 7 -48 45 35 47 25 66 -43 74 -118 15 -258 112 -325 227 l-27 46 -6
-115 c-8 -140 -33 -214 -91 -272 -36 -36 -38 -41 -24 -57 48 -53 78 -194 58
-278 l-10 -43 47 0 c26 0 71 7 100 16 52 15 52 15 83 -11 50 -42 137 -82 307
-139 233 -80 259 -94 382 -213 l107 -103 61 0 c53 0 64 4 95 31 33 29 37 30
58 15 40 -28 112 -14 148 29 9 11 22 14 47 9 31 -6 38 -2 93 53 54 53 60 64
60 100 0 23 12 66 26 98 38 82 44 198 15 293 -40 134 -144 238 -284 286 -62
22 -62 22 -71 69 -12 68 -6 77 44 66 23 -5 55 -16 70 -24 26 -14 28 -13 34 8
7 28 7 105 0 133 -5 20 -6 20 -42 3 -20 -9 -54 -20 -74 -24 l-38 -6 0 38 c0
21 9 57 19 80 l19 41 -21 6 c-24 6 -113 6 -138 -1z"/>
<path d="M3694 2342 c-4 -87 -115 -227 -228 -288 -62 -33 -62 -37 -3 -79 21
-15 21 -15 -33 -71 -185 -190 -439 -357 -624 -410 -73 -21 -76 -26 -47 -89 37
-81 119 -135 235 -156 91 -15 162 -5 249 38 136 68 333 295 448 517 29 56 38
66 61 66 15 0 29 -4 32 -9 9 -14 -114 -253 -182 -356 -119 -179 -270 -328
-396 -392 -28 -14 -52 -27 -54 -28 -8 -7 42 -88 75 -121 80 -81 246 -118 348
-79 182 69 347 376 449 835 18 81 27 106 41 108 34 7 37 -12 25 -124 -16 -152
-34 -249 -87 -474 -58 -247 -63 -349 -21 -420 29 -51 65 -74 181 -115 l77 -28
78 28 c115 41 151 64 180 115 42 71 37 173 -21 420 -53 223 -85 411 -89 520
-3 73 -2 75 21 75 22 0 26 -7 47 -105 102 -459 267 -766 449 -835 102 -39 268
-2 348 79 33 33 83 114 75 121 -2 1 -26 14 -54 28 -126 64 -277 213 -396 392
-68 103 -191 342 -182 356 3 5 17 9 32 9 23 0 32 -10 61 -66 115 -222 312
-449 448 -517 87 -43 158 -53 249 -38 116 21 198 75 235 156 29 63 26 68 -47
89 -185 53 -439 220 -624 410 -54 56 -54 56 -33 71 59 42 59 46 -3 79 -113 61
-224 201 -228 288 l-1 40 -80 -6 c-183 -15 -323 -66 -415 -152 l-50 -47 -50
47 c-92 86 -232 137 -415 152 l-80 6 -1 -40z"/>
</g>
</svg>
