<?xml version="1.0" standalone="no"?>
<!DOCTYPE svg PUBLIC "-//W3C//DTD SVG 20010904//EN"
 "http://www.w3.org/TR/2001/REC-SVG-20010904/DTD/svg10.dtd">
<svg version="1.0" xmlns="http://www.w3.org/2000/svg"
 width="922.000000pt" height="922.000000pt" viewBox="0 0 922.000000 922.000000"
 preserveAspectRatio="xMidYMid meet">
<metadata>
Created by potrace 1.16, written by Peter Selinger 2001-2019
</metadata>
<g transform="translate(0.000000,922.000000) scale(0.100000,-0.100000)"
fill="#000000" stroke="none">
<path d="M6210 8687 l0 -194 118 -6 c194 -11 336 -56 389 -125 24 -32 28 -46
28 -103 0 -61 -5 -75 -53 -168 -29 -56 -155 -342 -279 -634 -249 -588 -687
-1621 -879 -2074 -157 -370 -344 -813 -486 -1148 -61 -143 -113 -264 -117
-268 -4 -4 -30 43 -58 105 -28 62 -132 293 -233 513 -137 301 -180 406 -176
426 5 26 149 422 645 1772 258 701 244 668 312 732 92 86 226 129 461 147
l146 11 66 174 c36 95 66 178 66 183 0 7 -372 10 -1030 10 -566 0 -1030 -2
-1030 -4 0 -2 -29 -84 -65 -181 -36 -98 -65 -179 -65 -181 0 -1 35 -5 78 -9
151 -13 244 -53 275 -118 34 -71 26 -103 -129 -535 -80 -224 -177 -497 -216
-607 -39 -110 -74 -203 -77 -207 -3 -4 -74 140 -158 320 -84 180 -276 593
-427 919 -151 325 -291 616 -312 647 -40 61 -54 128 -34 165 20 37 106 70 206
79 l89 7 3 218 2 217 -1000 0 -1000 0 2 -217 3 -218 45 -2 c370 -21 555 -110
664 -322 24 -47 75 -153 114 -236 38 -82 146 -312 240 -510 669 -1420 1092
-2324 1092 -2338 0 -8 -142 -395 -316 -858 -174 -464 -334 -896 -355 -959 -35
-106 -42 -119 -89 -162 -119 -111 -345 -171 -740 -198 -80 -5 -184 -10 -231
-10 l-87 0 -17 -42 c-10 -24 -39 -99 -65 -168 -26 -69 -51 -133 -55 -143 -7
-16 131 -17 2841 -15 l2848 3 132 280 c498 1057 653 1389 651 1391 -1 1 -94 4
-205 5 l-203 2 -74 -151 c-99 -204 -172 -333 -276 -487 -250 -372 -482 -564
-789 -653 -49 -14 -206 -16 -1422 -19 -939 -2 -1368 0 -1368 7 0 6 20 63 44
128 25 64 106 280 180 480 75 200 140 371 145 380 7 12 49 -63 172 -309 l164
-324 374 0 375 0 67 155 c36 85 143 335 237 555 93 220 240 567 327 770 86
204 195 458 240 565 46 107 219 515 385 905 166 391 392 922 502 1180 110 259
240 565 290 680 108 254 134 299 220 381 118 111 288 175 500 190 l98 7 0 193
0 194 -860 0 -860 0 0 -193z"/>
<path d="M7250 1220 l0 -370 45 0 45 0 0 263 0 262 98 -100 c53 -55 175 -181
269 -280 l173 -180 0 378 0 377 -45 0 -45 0 0 -261 c0 -152 -4 -259 -9 -257
-5 2 -73 71 -152 153 -333 349 -368 385 -373 385 -3 0 -6 -166 -6 -370z"/>
<path d="M1933 1566 c-198 -65 -313 -270 -259 -462 32 -111 95 -184 206 -238
59 -28 73 -31 160 -31 81 1 103 5 152 27 75 35 138 94 179 170 33 60 34 68 34
168 0 92 -3 112 -26 161 -57 122 -191 210 -328 216 -46 2 -93 -3 -118 -11z
m199 -92 c62 -20 123 -75 155 -138 37 -70 38 -177 4 -254 -93 -208 -397 -215
-501 -12 -62 121 -40 253 57 345 74 70 185 93 285 59z"/>
<path d="M3488 1571 c-110 -36 -166 -145 -124 -244 19 -46 65 -82 173 -133
113 -54 136 -82 130 -158 -4 -42 -10 -55 -41 -83 -29 -27 -44 -33 -78 -33 -24
0 -56 8 -74 19 -29 17 -64 73 -64 101 0 9 -12 11 -42 6 -58 -9 -59 -12 -41
-59 25 -66 61 -107 117 -133 186 -87 390 100 307 281 -28 61 -64 91 -175 144
-56 26 -108 56 -116 65 -22 27 -18 82 9 110 43 46 126 46 180 0 29 -24 30 -24
65 -7 20 9 36 20 36 23 0 12 -64 72 -94 87 -35 18 -130 26 -168 14z"/>
<path d="M6707 1569 c-99 -23 -200 -107 -249 -207 -30 -60 -33 -75 -33 -157 0
-80 4 -97 32 -157 39 -82 99 -142 183 -182 58 -27 75 -31 160 -31 88 0 101 3
162 33 84 41 158 120 188 200 28 73 30 186 5 257 -63 180 -261 288 -448 244z
m185 -95 c140 -47 221 -218 173 -363 -24 -73 -102 -152 -174 -176 -67 -22
-159 -16 -217 13 -52 27 -109 86 -136 141 -27 55 -29 168 -5 223 34 79 106
144 185 168 45 14 126 11 174 -6z"/>
<path d="M1350 1210 l0 -360 156 0 155 0 -3 38 -3 37 -112 3 -113 3 0 319 0
320 -40 0 -40 0 0 -360z"/>
<path d="M2489 1559 c-7 -4 -10 -93 -7 -265 l3 -259 28 -57 c35 -71 85 -114
156 -135 103 -30 227 6 286 82 49 66 55 104 55 387 l0 258 -32 0 c-18 0 -38
-4 -45 -8 -8 -5 -12 -81 -15 -262 -3 -251 -3 -256 -28 -299 -34 -60 -79 -83
-153 -78 -65 4 -101 25 -132 78 -18 31 -20 55 -23 296 l-3 261 -40 4 c-22 2
-45 1 -50 -3z"/>
<path d="M3130 1210 l0 -360 45 0 45 0 0 360 0 360 -45 0 -45 0 0 -360z"/>
<path d="M4068 1565 c-5 -5 43 -127 229 -573 42 -100 79 -179 83 -175 4 5 41
91 83 193 42 102 109 266 150 365 41 99 73 183 70 188 -5 9 -74 9 -90 -1 -6
-4 -55 -117 -108 -252 -54 -135 -101 -249 -105 -253 -4 -4 -37 68 -75 160 -37
92 -85 209 -105 258 l-37 90 -44 3 c-25 2 -47 0 -51 -3z"/>
<path d="M4734 1555 c-3 -8 -4 -128 -2 -267 4 -240 5 -256 27 -306 75 -168
326 -203 443 -62 51 62 58 107 58 389 l0 256 -44 -3 -45 -4 -3 -256 c-3 -238
-5 -260 -24 -297 -31 -59 -84 -87 -157 -82 -65 4 -101 25 -132 78 -18 31 -20
55 -23 294 -2 186 -7 262 -15 267 -21 14 -77 9 -83 -7z"/>
<path d="M5380 1211 l0 -361 50 0 50 0 -2 358 -3 357 -47 3 -48 3 0 -360z"/>
<path d="M5563 1563 c-31 -4 -33 -7 -33 -44 l0 -39 90 0 90 0 0 -315 0 -315
45 0 45 0 0 315 0 315 170 0 170 0 0 -315 0 -315 50 0 50 0 0 315 0 315 79 0
79 0 4 41 c2 22 2 42 -1 44 -5 6 -792 3 -838 -2z"/>
</g>
</svg>
