<?xml version="1.0" standalone="no"?>
<!DOCTYPE svg PUBLIC "-//W3C//DTD SVG 20010904//EN"
 "http://www.w3.org/TR/2001/REC-SVG-20010904/DTD/svg10.dtd">
<svg version="1.0" xmlns="http://www.w3.org/2000/svg"
 width="1024.000000pt" height="1024.000000pt" viewBox="0 0 1024.000000 1024.000000"
 preserveAspectRatio="xMidYMid meet">
<metadata>
Created by potrace 1.16, written by Peter Selinger 2001-2019
</metadata>
<g transform="translate(0.000000,1024.000000) scale(0.100000,-0.100000)"
fill="#000000" stroke="none">
<path d="M280 6565 l0 -1705 4955 0 4955 0 0 250 0 250 -2490 0 -2490 0 0 235
0 235 2490 0 2490 0 0 250 0 250 -2490 0 -2490 0 0 235 0 235 2490 0 2490 0 0
250 0 250 -2490 0 -2490 0 0 235 0 235 2490 0 2490 0 0 250 0 250 -4955 0
-4955 0 0 -1705z m479 1413 l66 -3 -52 -37 -52 -37 19 -57 c11 -32 20 -59 20
-62 0 -2 -23 12 -50 32 -28 20 -53 36 -56 36 -4 0 -28 -16 -55 -36 -27 -20
-49 -31 -49 -25 0 6 9 33 19 61 l19 50 -56 39 -56 40 69 3 68 3 21 60 20 60
20 -62 20 -62 65 -3z m2429 61 l19 -54 68 -3 69 -3 -56 -40 -56 -39 19 -50
c10 -28 19 -55 19 -60 0 -6 -22 6 -49 25 -26 19 -51 35 -55 35 -3 0 -28 -16
-56 -36 -27 -20 -50 -34 -50 -32 0 3 9 30 20 62 l19 57 -52 37 -52 37 66 3 66
3 18 59 c10 33 20 59 22 57 2 -2 11 -28 21 -58z m921 -61 l66 -3 -52 -37 -52
-37 19 -57 c11 -32 20 -59 20 -62 0 -2 -23 12 -50 32 -28 20 -53 36 -56 36 -4
0 -28 -16 -55 -36 -27 -20 -49 -31 -49 -25 0 6 9 33 19 61 l19 50 -56 39 -56
40 69 3 68 3 21 60 20 60 20 -62 20 -62 65 -3z m-2595 57 l17 -54 66 -3 65 -3
-48 -34 c-27 -19 -51 -36 -53 -37 -2 -2 6 -30 17 -64 22 -64 22 -64 -42 -18
-21 15 -42 28 -46 28 -4 0 -28 -16 -53 -35 -25 -19 -48 -35 -50 -35 -3 0 3 23
14 50 10 28 19 56 19 64 0 8 -24 29 -52 47 l-53 34 70 5 70 5 15 53 c8 28 17
52 21 52 3 0 13 -25 23 -55z m836 3 l15 -53 70 -5 70 -5 -53 -34 c-28 -18 -52
-39 -52 -47 0 -8 9 -36 19 -64 11 -27 17 -50 14 -50 -2 0 -25 16 -50 35 -25
19 -49 35 -53 35 -4 0 -25 -13 -46 -28 -64 -46 -64 -46 -42 18 11 34 19 62 17
64 -2 1 -26 18 -53 37 l-48 34 65 3 66 3 17 54 c10 30 20 55 23 55 4 0 13 -24
21 -52z m2514 -3 l17 -54 66 -3 65 -3 -48 -34 c-27 -19 -51 -36 -53 -37 -2 -2
6 -30 17 -64 22 -64 22 -64 -42 -18 -21 15 -42 28 -46 28 -4 0 -28 -16 -53
-35 -25 -19 -48 -35 -50 -35 -3 0 3 23 14 50 10 28 19 56 19 63 0 6 -23 28
-52 47 l-51 35 69 5 69 5 15 53 c8 28 17 52 21 52 3 0 13 -25 23 -55z m-3686
-400 c34 0 62 -2 62 -5 0 -3 -20 -18 -45 -33 -25 -16 -47 -32 -50 -37 -3 -4 4
-33 15 -64 10 -31 17 -56 14 -56 -2 0 -26 16 -53 35 l-50 36 -50 -36 c-56 -40
-58 -38 -36 25 21 59 20 62 -30 93 -25 16 -47 32 -49 36 -3 4 24 5 59 3 l63
-4 17 53 c25 78 26 78 49 13 l21 -59 63 0z m751 66 c16 -65 28 -74 97 -69 l56
3 -33 -25 c-18 -14 -42 -32 -53 -41 l-20 -16 21 -57 c11 -31 18 -56 16 -56 -3
0 -27 16 -54 36 l-49 36 -49 -36 c-27 -20 -51 -36 -54 -36 -2 0 5 25 16 56
l21 57 -20 16 c-11 9 -36 28 -54 42 l-34 26 57 -5 c69 -5 81 3 98 69 7 27 16
49 19 49 3 0 12 -22 19 -49z m846 -20 l17 -53 65 4 c64 4 64 4 41 -14 -13 -10
-35 -26 -50 -35 -32 -20 -33 -26 -13 -83 22 -63 20 -65 -36 -25 l-50 36 -50
-36 c-27 -19 -51 -35 -53 -35 -3 0 4 25 14 56 11 31 18 60 15 64 -3 5 -25 21
-50 37 -25 15 -45 30 -45 33 0 3 28 5 62 5 l63 0 20 57 c11 32 22 54 26 50 4
-4 14 -31 24 -61z m834 8 l18 -54 62 0 c33 0 61 -2 61 -5 0 -3 -23 -20 -49
-38 l-49 -33 19 -56 c10 -31 18 -58 16 -59 -2 -2 -25 12 -51 31 -52 37 -54 37
-115 -9 -19 -14 -36 -24 -38 -23 -2 2 6 29 16 60 l19 56 -49 33 c-26 18 -49
35 -49 38 0 3 28 5 62 5 l61 0 20 58 c10 32 21 56 23 54 2 -2 12 -28 23 -58z
m919 -54 c34 0 62 -2 62 -5 0 -3 -20 -18 -45 -33 -25 -16 -47 -32 -50 -37 -3
-4 4 -33 15 -64 10 -31 17 -56 14 -56 -2 0 -26 16 -53 35 l-50 36 -50 -36
c-56 -40 -58 -38 -36 25 21 59 20 62 -30 93 -25 16 -47 32 -49 36 -3 4 24 5
59 3 l63 -4 17 53 c25 78 26 78 49 13 l21 -59 63 0z m-3769 -345 l66 0 -49
-35 c-27 -19 -50 -36 -52 -38 -2 -2 5 -30 16 -62 11 -32 20 -60 20 -62 0 -2
-24 14 -54 36 l-53 40 -48 -35 c-27 -19 -50 -32 -52 -31 -2 2 4 23 12 47 8 23
15 49 15 56 0 7 -23 29 -52 48 l-51 35 68 3 68 3 14 45 c8 25 17 52 20 60 3 9
14 -11 26 -47 l21 -63 65 0z m1589 59 l19 -54 68 -3 68 -3 -51 -35 c-29 -19
-52 -41 -52 -48 0 -7 7 -33 15 -56 8 -24 13 -45 11 -47 -2 -3 -26 11 -52 30
l-48 35 -53 -39 c-29 -22 -53 -38 -53 -36 0 2 9 30 20 62 11 32 20 59 20 61 0
1 -24 17 -52 35 l-53 34 66 3 66 3 18 59 c10 33 20 59 22 57 2 -2 11 -28 21
-58z m840 0 l19 -54 64 -5 64 -5 -35 -22 c-74 -48 -72 -43 -49 -103 11 -29 18
-55 15 -57 -3 -3 -27 11 -53 30 l-49 36 -52 -40 c-29 -22 -52 -35 -52 -30 0 6
9 34 20 63 11 28 19 52 17 53 -1 1 -24 17 -51 36 l-49 34 63 5 63 5 20 58 c10
32 21 56 23 54 2 -2 12 -28 22 -58z m921 -61 l66 -3 -53 -34 c-28 -18 -52 -34
-52 -35 0 -2 9 -29 20 -61 11 -32 20 -60 20 -62 0 -2 -24 14 -53 36 l-53 39
-48 -35 c-26 -19 -50 -33 -52 -30 -2 2 3 23 11 47 8 23 15 49 15 56 0 7 -23
29 -52 48 l-51 35 68 3 68 3 21 60 20 60 20 -62 20 -62 65 -3z m838 2 l67 0
-52 -36 c-29 -20 -52 -40 -52 -44 0 -4 9 -33 20 -64 l19 -57 -48 35 c-27 20
-54 36 -61 36 -7 0 -34 -16 -61 -36 l-48 -35 19 57 c11 31 20 60 20 64 0 4
-23 24 -52 44 l-52 36 66 0 66 0 18 53 c24 76 25 76 46 8 l19 -61 66 0z
m-3433 55 l17 -55 67 0 66 0 -52 -36 c-29 -20 -52 -40 -52 -44 0 -4 9 -33 20
-64 l19 -57 -49 35 c-28 20 -55 36 -61 36 -6 0 -33 -16 -60 -36 l-48 -35 19
57 c11 31 20 60 20 64 0 4 -23 24 -52 44 l-52 36 66 0 67 0 17 55 c10 30 21
55 24 55 3 0 14 -25 24 -55z m414 -336 l19 -54 68 -5 68 -5 -51 -35 c-29 -19
-52 -41 -52 -47 0 -7 9 -35 19 -63 11 -27 17 -50 15 -50 -2 0 -27 16 -54 36
l-51 36 -42 -28 c-23 -16 -47 -32 -54 -37 -7 -4 -4 16 9 53 11 34 19 62 17 64
-2 1 -26 18 -54 37 l-50 34 68 3 67 3 17 59 c10 32 19 57 20 56 2 -2 11 -27
21 -57z m847 -27 c6 -31 7 -31 73 -34 l67 -3 -52 -38 -52 -38 20 -56 c10 -31
19 -58 19 -60 0 -3 -22 11 -49 31 -27 20 -52 36 -56 36 -4 0 -29 -16 -56 -36
-27 -20 -49 -34 -49 -31 0 2 9 29 19 60 l20 56 -52 38 -52 38 66 3 66 3 18 60
18 60 13 -29 c6 -16 15 -43 19 -60z m914 -34 l66 -3 -52 -37 -52 -37 19 -57
c11 -32 20 -59 20 -62 0 -2 -23 12 -50 32 -28 20 -53 36 -56 36 -4 0 -29 -16
-55 -35 -27 -19 -49 -31 -49 -25 0 5 9 32 19 60 l19 50 -56 39 -56 40 69 3 68
3 21 60 20 60 20 -62 20 -62 65 -3z m-2595 57 l17 -54 66 -3 65 -3 -48 -34
c-27 -19 -51 -36 -53 -37 -2 -2 6 -30 17 -64 22 -64 22 -64 -42 -18 -21 15
-42 28 -46 28 -4 0 -28 -16 -53 -35 -25 -19 -48 -35 -51 -35 -2 0 4 25 15 55
10 30 19 58 19 62 0 5 -23 24 -52 43 l-51 35 68 5 68 5 15 53 c8 28 18 52 21
52 4 0 15 -25 25 -55z m3350 0 l17 -54 66 -3 65 -3 -48 -34 c-27 -19 -51 -36
-53 -37 -2 -2 6 -30 17 -64 22 -64 22 -64 -42 -18 -21 15 -42 28 -46 28 -4 0
-28 -16 -53 -35 -25 -19 -48 -35 -50 -35 -3 0 3 23 14 50 10 28 19 56 19 63 0
6 -23 28 -52 47 l-51 35 69 5 69 5 15 53 c8 28 17 52 21 52 3 0 13 -25 23 -55z
m-3686 -400 c34 0 62 -2 62 -5 0 -3 -20 -18 -45 -33 -25 -16 -47 -32 -50 -37
-3 -4 4 -33 15 -64 10 -31 16 -56 13 -56 -3 0 -22 13 -42 28 -55 44 -55 44
-107 7 -26 -19 -49 -33 -51 -31 -2 1 6 28 16 58 l19 56 -49 34 -49 33 62 5 61
5 20 59 20 60 21 -60 21 -59 63 0z m840 0 l64 0 -33 -25 c-77 -59 -72 -48 -50
-112 11 -32 17 -58 14 -58 -3 0 -27 16 -54 36 l-49 36 -49 -36 c-27 -20 -51
-36 -54 -36 -2 0 5 25 16 56 l21 57 -25 21 c-14 11 -38 30 -53 41 l-28 20 65
-3 65 -4 17 54 c25 77 26 77 49 12 l21 -59 63 0z m757 47 l17 -54 65 4 65 3
-28 -20 c-80 -58 -79 -56 -61 -110 10 -27 17 -53 17 -58 0 -5 -23 8 -51 28
l-50 36 -50 -36 c-27 -19 -51 -35 -53 -35 -3 0 4 25 14 56 11 31 18 60 15 64
-3 5 -25 21 -50 37 -25 15 -45 30 -45 33 0 3 28 5 62 5 l63 0 20 57 c11 32 22
54 26 50 4 -4 14 -31 24 -60z m834 7 l18 -54 62 0 c33 0 61 -2 61 -5 0 -3 -22
-20 -49 -38 l-49 -34 19 -56 c10 -30 18 -57 16 -58 -2 -2 -25 12 -51 31 -27
19 -54 31 -60 28 -6 -4 -29 -20 -50 -35 -22 -15 -41 -27 -43 -25 -2 2 6 29 16
60 l19 56 -49 33 c-26 18 -49 35 -49 38 0 3 28 5 62 5 l61 0 20 58 c10 32 21
56 23 54 2 -2 12 -28 23 -58z m919 -54 c34 0 62 -2 62 -5 0 -3 -20 -18 -45
-33 -25 -16 -47 -32 -50 -37 -3 -4 4 -33 15 -64 10 -31 16 -56 13 -56 -3 0
-22 13 -42 28 -55 44 -55 44 -107 7 -26 -19 -49 -33 -51 -31 -2 1 6 28 16 58
l19 56 -49 34 c-27 18 -49 35 -49 38 0 3 28 5 62 5 l61 0 20 59 20 60 21 -60
21 -59 63 0z m839 -3 c61 3 81 -4 46 -17 -10 -3 -33 -18 -51 -33 l-33 -27 20
-58 c11 -31 17 -57 14 -57 -3 0 -27 16 -54 35 l-48 36 -50 -37 c-28 -20 -51
-32 -51 -27 0 5 7 31 17 58 18 54 19 52 -61 110 l-28 20 65 -3 65 -4 17 54
c26 78 27 78 49 10 l20 -64 63 4z m-3768 -342 l66 0 -49 -35 c-27 -19 -50 -36
-52 -38 -2 -2 5 -30 16 -62 11 -32 20 -60 20 -62 0 -3 -22 11 -49 31 -27 20
-54 36 -60 36 -6 0 -33 -16 -60 -36 l-50 -35 20 55 c10 31 19 60 19 65 0 6
-23 26 -52 45 l-51 35 68 3 69 3 13 45 c22 78 24 78 46 13 l21 -63 65 0z m756
53 l17 -53 66 0 66 0 -52 -36 c-29 -20 -52 -40 -52 -44 0 -4 9 -33 20 -64 l19
-57 -49 35 c-28 20 -55 36 -61 36 -6 0 -34 -17 -62 -37 -39 -29 -49 -33 -43
-18 22 54 38 107 34 111 -3 2 -27 20 -54 39 l-49 35 67 0 68 0 17 60 c10 32
21 56 24 52 4 -4 14 -31 24 -59z m833 6 l19 -54 64 -5 64 -5 -47 -33 c-53 -37
-55 -41 -33 -102 8 -24 13 -45 11 -47 -2 -3 -26 11 -52 30 l-48 35 -53 -39
c-29 -22 -53 -38 -53 -36 0 2 9 30 20 62 22 65 25 59 -50 108 l-35 22 66 3 66
3 18 59 c10 33 20 59 22 57 2 -2 11 -28 21 -58z m921 -61 l66 -3 -35 -22 c-75
-49 -72 -43 -50 -108 11 -32 20 -60 20 -62 0 -2 -23 14 -52 36 l-52 40 -49
-36 c-26 -19 -50 -33 -53 -30 -3 2 4 28 15 58 11 29 20 53 18 54 -1 1 -24 17
-51 36 l-49 34 63 5 63 5 21 60 20 60 20 -62 20 -62 65 -3z m840 0 l66 -3 -53
-34 c-28 -18 -52 -34 -52 -35 0 -2 9 -29 20 -61 11 -32 20 -60 20 -62 0 -1
-22 13 -49 32 -26 19 -52 35 -57 35 -5 0 -32 -16 -60 -34 l-52 -35 19 50 c11
27 19 56 19 64 0 8 -23 30 -52 49 l-51 35 68 3 68 3 14 45 c8 25 17 52 20 60
3 9 14 -11 26 -47 l21 -62 65 -3z m-2181 -279 l19 -54 69 -5 69 -5 -53 -34
c-28 -18 -52 -39 -52 -46 0 -7 7 -32 15 -55 22 -62 20 -63 -35 -24 l-51 36
-42 -28 c-23 -16 -47 -32 -54 -37 -7 -4 -4 16 9 53 11 34 19 62 17 64 -2 1
-26 18 -54 37 l-50 34 68 3 67 3 17 59 c10 32 19 57 20 56 2 -2 11 -27 21 -57z
m-1673 -4 l16 -54 67 -3 67 -3 -52 -37 -52 -37 19 -57 c11 -32 20 -59 20 -61
0 -2 -25 13 -55 33 l-54 36 -51 -36 c-55 -39 -57 -38 -35 24 8 23 15 48 15 55
0 7 -24 28 -52 46 l-53 34 69 5 69 5 14 40 c21 62 22 65 27 65 3 0 13 -25 21
-55z m839 0 l17 -54 66 -3 65 -3 -48 -34 c-27 -19 -51 -36 -53 -37 -2 -2 6
-30 17 -63 23 -68 22 -68 -47 -17 -19 14 -38 26 -42 26 -3 0 -27 -16 -52 -35
-25 -19 -48 -35 -51 -35 -3 0 4 25 15 57 10 31 19 59 19 62 0 3 -23 22 -51 41
l-52 35 66 3 66 3 17 54 c10 30 21 55 24 55 3 0 14 -25 24 -55z m1672 0 l18
-55 69 0 70 0 -56 -40 -56 -40 20 -57 c10 -31 19 -58 19 -60 0 -3 -22 11 -49
31 -27 20 -51 36 -55 36 -3 0 -28 -16 -56 -36 -27 -20 -50 -34 -50 -32 0 3 9
30 19 61 l20 56 -52 38 -52 38 66 3 66 3 17 54 c9 30 19 55 21 55 2 0 12 -25
21 -55z m840 0 l17 -54 66 -3 66 -3 -52 -37 -52 -37 19 -57 c11 -32 20 -59 20
-61 0 -2 -25 13 -55 33 l-54 36 -51 -36 c-55 -39 -57 -38 -35 24 8 23 15 48
15 55 0 7 -24 28 -52 46 l-53 34 69 5 69 5 14 40 c20 61 22 65 27 65 3 0 13
-25 22 -55z m838 0 l17 -54 66 -3 65 -3 -48 -34 c-27 -19 -51 -36 -53 -37 -2
-2 6 -30 17 -63 23 -68 22 -68 -47 -17 -19 14 -38 26 -42 26 -3 0 -27 -16 -52
-35 -25 -19 -48 -35 -51 -35 -3 0 4 25 15 57 10 31 19 59 19 62 0 3 -23 22
-51 41 l-52 35 66 3 66 3 17 54 c10 30 21 55 24 55 3 0 14 -25 24 -55z m-3686
-400 c34 0 62 -2 62 -5 0 -3 -20 -18 -45 -33 -25 -16 -47 -32 -50 -37 -3 -4 4
-33 15 -64 10 -31 16 -56 13 -56 -3 0 -27 16 -54 35 l-48 36 -50 -37 c-28 -20
-51 -32 -51 -27 0 5 7 31 17 58 18 54 19 52 -61 110 l-28 20 65 -3 65 -4 17
54 c25 77 26 77 49 12 l21 -59 63 0z m757 47 l17 -54 65 4 65 3 -28 -20 c-80
-58 -79 -56 -61 -110 10 -27 17 -53 17 -58 0 -5 -23 7 -51 27 l-50 37 -48 -36
c-27 -19 -51 -35 -54 -35 -3 0 3 25 13 56 11 31 18 60 15 64 -3 5 -25 21 -50
37 -25 15 -45 30 -45 33 0 3 28 5 62 5 l63 0 20 57 c11 32 22 54 26 50 4 -4
14 -31 24 -60z m833 7 l19 -54 61 -5 62 -5 -49 -33 -49 -34 19 -56 c10 -30 18
-57 16 -58 -2 -2 -25 12 -51 31 -52 37 -51 37 -109 -8 -21 -16 -40 -27 -43
-25 -3 3 5 29 16 59 l21 53 -23 18 c-13 10 -35 26 -50 35 -16 10 -28 20 -28
23 0 3 28 5 62 5 l63 0 19 57 c11 32 21 56 23 55 2 -2 11 -28 21 -58z m841 0
l18 -54 62 0 c33 0 61 -2 61 -5 0 -3 -12 -13 -27 -23 -16 -9 -38 -25 -50 -34
l-23 -18 20 -54 c12 -29 19 -56 16 -58 -3 -3 -22 8 -43 24 -58 45 -57 45 -109
8 -26 -19 -49 -33 -51 -31 -2 1 6 28 16 58 l19 56 -49 34 -49 33 62 5 61 5 20
58 c10 32 21 56 23 54 2 -2 12 -28 23 -58z m919 -54 c34 0 62 -2 62 -5 0 -3
-20 -18 -45 -33 -25 -16 -47 -32 -50 -37 -3 -4 4 -33 15 -64 10 -31 16 -56 13
-56 -3 0 -27 16 -54 35 l-48 36 -50 -37 c-28 -20 -51 -32 -51 -27 0 5 7 31 17
58 18 54 19 52 -61 110 l-28 20 65 -3 65 -4 17 54 c25 77 26 77 49 12 l21 -59
63 0z m-3769 -347 l66 -3 -53 -34 c-28 -18 -52 -34 -52 -35 0 -2 9 -29 20 -61
11 -32 20 -60 20 -62 0 -3 -23 12 -51 32 -55 41 -57 41 -126 -5 -37 -25 -39
-20 -18 40 8 23 15 46 15 51 0 5 -23 24 -52 43 l-51 35 68 3 69 3 13 45 c22
78 24 78 46 13 l21 -62 65 -3z m756 55 l17 -53 66 0 66 0 -52 -36 c-29 -20
-52 -40 -52 -44 0 -4 9 -33 20 -64 l19 -57 -49 35 c-28 20 -55 36 -61 36 -6 0
-33 -16 -60 -36 l-48 -35 19 57 c11 32 19 61 18 66 -2 4 -25 23 -53 43 l-50
35 67 0 68 0 17 60 c10 32 21 56 24 52 4 -4 14 -31 24 -59z m833 6 l19 -54 68
-3 68 -3 -51 -35 c-29 -19 -52 -41 -52 -48 0 -7 7 -33 15 -56 8 -24 13 -45 11
-47 -2 -3 -26 11 -52 30 l-48 35 -53 -39 c-29 -22 -53 -38 -53 -36 0 2 9 30
20 62 22 65 25 59 -50 108 l-35 22 66 3 66 3 18 59 c10 33 20 59 22 57 2 -2
11 -28 21 -58z m920 -61 l64 -3 -48 -34 c-27 -19 -50 -35 -52 -36 -1 -1 7 -28
18 -60 11 -32 20 -60 20 -62 0 -2 -24 14 -53 36 l-53 39 -52 -39 c-57 -44 -59
-42 -37 21 21 61 20 65 -31 102 l-47 33 63 5 63 5 21 60 20 60 20 -62 20 -62
64 -3z m841 0 l66 -3 -53 -34 c-28 -18 -52 -34 -52 -35 0 -2 9 -29 20 -61 11
-32 20 -60 20 -62 0 -3 -22 11 -49 31 -27 20 -53 36 -58 36 -6 0 -29 -14 -52
-31 -24 -17 -45 -28 -48 -25 -3 3 2 23 11 46 9 22 16 47 16 55 0 8 -23 30 -52
49 l-51 35 68 3 68 3 14 45 c8 25 17 52 20 60 3 9 14 -11 26 -47 l21 -62 65
-3z m756 55 l17 -53 66 0 66 0 -52 -36 c-29 -20 -52 -40 -52 -44 0 -4 9 -33
20 -64 l19 -57 -49 35 c-28 20 -55 36 -61 36 -6 0 -33 -16 -60 -36 l-48 -35
19 57 c11 32 19 61 18 66 -2 4 -25 23 -53 43 l-50 35 67 0 68 0 17 60 c10 32
21 56 24 52 4 -4 14 -31 24 -59z"/>
<path d="M112 8063 c-21 -8 -43 -61 -36 -88 7 -29 48 -65 74 -65 24 0 66 35
73 61 4 15 -5 31 -34 60 -38 38 -50 43 -77 32z m72 -39 c23 -23 19 -50 -11
-73 -23 -19 -29 -20 -47 -8 -27 18 -32 59 -11 81 21 20 49 21 69 0z"/>
<path d="M288 4140 l-3 -250 4953 0 4952 0 0 250 0 250 -4950 0 -4949 0 -3
-250z"/>
<path d="M288 3170 l3 -250 4949 0 4950 0 0 250 0 250 -4952 0 -4953 0 3 -250z"/>
<path d="M290 2200 l0 -250 4950 0 4950 0 0 250 0 250 -4950 0 -4950 0 0 -250z"/>
<path d="M107 2318 c-55 -43 -31 -138 35 -138 91 0 108 93 26 136 -33 17 -40
17 -61 2z m83 -32 c30 -37 -27 -105 -67 -80 -22 13 -29 60 -12 80 15 18 63 18
79 0z"/>
</g>
</svg>
