<?xml version="1.0" standalone="no"?>
<!DOCTYPE svg PUBLIC "-//W3C//DTD SVG 20010904//EN"
 "http://www.w3.org/TR/2001/REC-SVG-20010904/DTD/svg10.dtd">
<svg version="1.0" xmlns="http://www.w3.org/2000/svg"
 width="1024.000000pt" height="1024.000000pt" viewBox="0 0 1024.000000 1024.000000"
 preserveAspectRatio="xMidYMid meet">
<metadata>
Created by potrace 1.16, written by Peter Selinger 2001-2019
</metadata>
<g transform="translate(0.000000,1024.000000) scale(0.100000,-0.100000)"
fill="#000000" stroke="none">
<path d="M5101 9798 c-28 -58 -35 -84 -36 -137 -1 -50 -7 -78 -27 -116 -37
-70 -43 -121 -23 -197 9 -34 22 -73 30 -85 21 -31 19 -82 -6 -128 -17 -33 -20
-51 -15 -107 9 -96 -8 -160 -55 -214 -22 -25 -46 -58 -53 -73 -14 -26 -32
-101 -25 -101 2 0 36 7 74 15 39 8 122 15 185 15 63 0 146 -7 185 -15 38 -8
71 -15 72 -15 2 0 3 10 3 23 0 31 -43 118 -70 142 -44 38 -60 92 -60 200 0 81
-4 109 -20 140 -26 52 -25 71 7 141 23 48 28 73 28 134 0 65 -4 82 -29 125
-25 42 -30 59 -28 109 2 47 -3 70 -26 120 -16 33 -32 69 -35 79 -13 38 -42 17
-76 -55z"/>
<path d="M5035 8549 c-151 -20 -279 -77 -339 -152 -59 -73 -43 -198 34 -272
l30 -29 0 -230 0 -231 -33 -21 c-26 -17 -73 -83 -64 -90 1 -1 53 11 116 27
260 66 551 61 794 -15 50 -15 77 -20 77 -12 0 22 -41 78 -70 94 l-30 17 0 233
c0 127 4 232 8 232 17 0 74 88 88 137 20 67 7 119 -43 174 -95 105 -350 167
-568 138z m-35 -634 l0 -245 -30 0 -30 0 0 245 0 245 30 0 30 0 0 -245z m180
0 l0 -245 -25 0 -25 0 0 245 0 245 25 0 25 0 0 -245z m190 -1 l0 -245 -27 3
-28 3 -3 230 c-1 126 0 235 2 242 3 7 17 13 31 13 l25 0 0 -246z"/>
<path d="M4920 7466 c-400 -71 -737 -279 -1000 -616 -226 -291 -334 -524 -440
-948 -54 -212 -69 -250 -134 -338 -25 -32 -43 -60 -42 -61 1 -2 48 19 102 47
706 350 1823 444 2764 234 293 -66 632 -194 818 -309 23 -14 42 -24 42 -22 0
2 -21 35 -46 73 -72 108 -91 153 -140 332 -25 92 -63 221 -85 287 -114 334
-336 687 -576 915 -206 195 -467 334 -743 395 -101 23 -417 29 -520 11z m284
-1008 c23 -33 23 -214 -1 -240 -20 -22 -70 -23 -95 -1 -15 13 -18 32 -18 116
0 90 2 103 22 124 28 30 72 30 92 1z m-311 -23 c15 -21 17 -41 15 -121 -3 -93
-4 -98 -31 -118 -26 -19 -30 -19 -55 -5 -26 14 -27 17 -30 123 -2 91 0 112 14
127 24 27 65 24 87 -6z m618 3 c15 -19 18 -40 19 -120 0 -93 -1 -97 -26 -117
-15 -12 -32 -21 -39 -21 -7 0 -24 9 -39 21 -25 20 -26 25 -26 115 0 75 4 100
18 119 22 32 67 33 93 3z m-899 -25 c15 -13 18 -32 18 -116 0 -90 -2 -103 -22
-124 -27 -29 -45 -29 -75 -1 -21 20 -23 30 -23 118 0 70 4 101 16 118 18 26
60 29 86 5z m1172 -5 c12 -17 16 -48 16 -117 0 -83 -3 -97 -22 -118 -27 -29
-45 -29 -75 -1 -21 20 -23 30 -23 121 0 79 3 104 17 119 23 25 68 23 87 -4z
m-1452 -55 c15 -13 18 -32 18 -116 0 -109 -11 -137 -56 -137 -40 0 -54 35 -54
135 0 66 4 97 16 113 18 26 50 28 76 5z m1722 -5 c23 -33 23 -204 -1 -230 -20
-22 -51 -23 -75 -1 -25 23 -27 207 -1 235 22 25 59 23 77 -4z m-2000 -70 c23
-33 22 -194 -1 -220 -22 -24 -49 -23 -67 4 -11 16 -16 46 -16 104 0 67 4 86
21 108 25 32 43 33 63 4z m2266 0 c17 -19 20 -35 20 -112 0 -69 -4 -94 -17
-108 -20 -22 -41 -23 -65 -1 -15 13 -18 32 -18 107 0 125 30 168 80 114z
m-2510 -117 c14 -28 13 -184 -2 -199 -17 -17 -39 -15 -54 6 -20 25 -18 161 2
190 19 27 40 28 54 3z m2744 -3 c20 -29 22 -165 2 -190 -15 -21 -37 -23 -54
-6 -15 15 -16 171 -2 199 14 25 35 24 54 -3z"/>
<path d="M4730 5729 c-270 -21 -645 -88 -870 -155 -243 -72 -483 -179 -653
-290 -120 -78 -274 -229 -327 -318 -102 -174 -107 -360 -16 -504 24 -39 26
-50 26 -162 0 -66 3 -120 6 -120 3 0 59 21 125 47 l119 47 0 245 c0 254 4 281
42 305 14 8 22 6 40 -12 22 -22 23 -28 26 -262 2 -132 5 -240 8 -240 2 0 47
12 99 26 l95 27 0 291 c0 214 4 298 13 316 17 33 57 38 83 9 18 -20 19 -40 22
-306 3 -262 4 -284 20 -279 9 2 53 12 97 21 44 9 88 19 98 22 16 4 17 28 17
317 0 304 1 314 21 340 30 38 68 32 91 -14 16 -31 18 -69 18 -328 l0 -294 28
6 c15 3 63 10 107 16 44 6 92 13 108 16 l27 6 0 328 0 329 23 27 c19 22 29 26
51 20 52 -13 56 -42 56 -386 l0 -312 28 6 c15 3 70 8 122 11 52 3 107 8 123
11 l27 6 0 331 c0 313 1 334 20 365 26 42 69 44 99 6 20 -26 21 -38 21 -362
l0 -335 98 6 c53 4 121 7 150 7 l52 0 0 340 c0 373 3 393 57 406 22 6 32 1 55
-25 l28 -31 0 -345 0 -345 58 -1 c31 -1 103 -4 160 -8 l102 -6 0 321 c0 209 4
332 11 353 18 52 74 68 107 31 15 -19 18 -57 22 -368 l5 -347 50 -6 c28 -3 90
-10 138 -14 l87 -7 0 310 c0 200 4 320 11 341 18 51 66 67 97 31 15 -18 18
-56 22 -358 l5 -337 100 -17 c55 -9 112 -17 128 -17 l27 -1 0 300 c0 204 4
307 12 324 20 46 76 46 96 0 8 -17 12 -122 12 -335 0 -268 2 -310 15 -315 31
-12 225 -50 230 -46 3 3 5 125 5 271 0 225 2 270 16 289 19 27 48 28 74 2 19
-19 20 -33 20 -304 0 -178 4 -287 10 -291 13 -8 172 -55 188 -55 9 0 12 54 12
239 0 236 0 240 23 267 20 23 26 25 44 16 37 -20 43 -63 43 -321 l0 -246 103
-40 c56 -22 105 -41 110 -43 4 -2 7 53 7 122 0 116 2 128 25 161 64 95 87 219
61 330 -109 465 -804 822 -1821 935 -130 15 -747 21 -895 9z"/>
<path d="M4615 4389 c-958 -63 -1774 -310 -2100 -635 -180 -180 -214 -391 -86
-536 l31 -36 0 -129 c0 -71 2 -132 5 -135 3 -3 47 7 99 23 51 15 135 36 187
47 l94 19 5 277 5 278 28 24 c36 31 60 30 98 -4 l31 -27 -1 -258 c-1 -203 1
-257 11 -257 16 0 234 29 266 36 l22 4 0 296 c0 320 3 338 55 362 41 19 64 14
96 -17 l29 -29 0 -291 c0 -165 4 -292 9 -295 5 -4 83 1 173 9 89 8 166 15 171
15 4 0 7 144 7 320 0 359 3 380 62 404 44 19 83 10 113 -26 l25 -30 0 -323 c0
-178 3 -325 8 -327 4 -2 89 0 190 6 l182 9 0 349 c0 389 1 397 64 418 45 14
80 4 111 -32 l25 -30 0 -349 0 -349 195 0 195 0 0 355 c0 400 1 409 65 439 32
15 44 16 76 7 21 -6 47 -23 58 -38 20 -25 21 -38 21 -394 l0 -369 195 0 194 0
3 349 c3 337 4 351 24 378 43 57 127 52 165 -11 18 -29 19 -56 19 -377 l0
-346 143 -7 c78 -4 161 -9 185 -13 l42 -5 0 316 c0 358 3 376 65 401 30 13 40
13 69 1 67 -28 66 -24 66 -393 l0 -332 33 -5 c36 -6 276 -26 307 -26 19 0 20
8 20 285 0 306 3 326 51 351 40 20 64 18 96 -10 l28 -24 5 -314 5 -313 120
-17 c66 -9 132 -19 148 -22 l27 -5 0 260 0 261 29 29 c33 33 66 37 97 11 42
-33 44 -51 44 -325 l0 -264 138 -33 c75 -18 154 -39 175 -46 l37 -13 0 130 0
131 34 42 c54 65 76 126 76 211 0 423 -759 796 -1890 929 -118 14 -289 30
-380 36 -187 11 -813 11 -995 -1z"/>
<path d="M1173 2618 c-6 -7 -90 -200 -188 -428 -97 -228 -188 -436 -202 -461
-27 -50 -47 -64 -105 -74 -21 -3 -38 -10 -38 -15 0 -6 71 -10 175 -10 96 0
175 4 175 8 0 5 -19 12 -42 18 -42 9 -43 10 -42 49 1 22 20 85 44 143 l43 102
166 -2 166 -3 52 -130 c58 -143 60 -153 38 -161 -44 -17 3 -24 165 -24 108 0
180 4 180 10 0 5 -17 12 -37 15 -64 10 -81 22 -113 77 -16 29 -105 229 -196
443 -92 215 -174 405 -182 423 -16 33 -42 42 -59 20z m51 -416 c32 -86 61
-163 64 -169 3 -10 -26 -13 -125 -13 -71 0 -132 2 -135 5 -6 6 123 335 131
335 3 0 33 -71 65 -158z"/>
<path d="M3265 2613 c-261 -35 -444 -236 -445 -488 0 -228 133 -405 364 -482
76 -26 92 -27 266 -28 263 0 280 11 296 186 6 58 4 69 -8 69 -9 0 -18 -12 -21
-27 -17 -86 -97 -142 -215 -150 -263 -18 -456 149 -479 413 -12 146 39 301
121 369 56 45 113 65 212 72 194 14 344 -65 344 -181 0 -27 17 -44 30 -30 4 5
9 63 11 129 l4 119 -110 17 c-100 16 -294 22 -370 12z"/>
<path d="M5800 2568 c-28 -132 -22 -190 14 -120 32 62 45 66 203 71 l145 3 -4
-403 c-3 -254 -9 -414 -16 -430 -8 -21 -20 -28 -56 -33 -25 -4 -46 -11 -46
-17 0 -5 92 -9 226 -9 141 0 223 4 219 10 -3 5 -22 12 -43 15 -79 13 -81 14
-91 53 -7 22 -11 188 -11 426 l0 388 123 -3 c141 -5 188 -22 197 -74 3 -15 11
-30 18 -33 11 -3 14 20 16 159 l1 31 -415 2 c-228 1 -427 6 -441 10 -26 8 -27
6 -39 -46z"/>
<path d="M8040 2604 c-191 -41 -339 -176 -385 -349 -45 -176 5 -364 129 -483
69 -67 127 -99 236 -134 67 -21 94 -23 255 -23 257 0 273 10 291 192 6 53 4
63 -9 63 -8 0 -18 -12 -22 -27 -3 -16 -18 -45 -31 -66 -67 -102 -286 -116
-447 -29 -58 31 -137 114 -166 174 -112 235 -33 535 160 603 116 42 316 24
397 -34 41 -31 72 -83 72 -124 0 -28 17 -45 30 -31 4 5 10 63 11 129 l4 120
-115 17 c-139 20 -321 22 -410 2z"/>
<path d="M8725 2608 c-7 -20 -35 -157 -35 -174 0 -27 25 -14 45 24 27 50 63
61 213 61 l123 1 -3 -407 c-2 -297 -6 -414 -15 -429 -8 -14 -27 -24 -53 -28
-22 -3 -40 -11 -40 -16 0 -6 82 -10 220 -10 121 0 220 4 220 9 0 9 -48 21 -86
21 -15 0 -30 10 -41 27 -16 25 -18 64 -21 431 l-3 404 130 -3 c146 -4 177 -17
196 -77 17 -57 30 -29 33 69 l3 94 -408 0 c-224 0 -423 4 -441 8 -23 6 -33 5
-37 -5z"/>
<path d="M7138 2603 c-297 -3 -378 -11 -275 -27 23 -4 52 -14 65 -22 l22 -14
0 -418 c0 -468 2 -455 -70 -467 -22 -4 -40 -10 -40 -14 0 -4 145 -11 322 -15
258 -6 324 -4 334 6 15 15 39 160 30 183 -10 26 -21 16 -34 -30 -18 -69 -43
-80 -183 -80 -110 0 -119 1 -143 24 l-26 24 0 179 0 178 104 0 c147 0 186 -18
186 -85 0 -17 5 -25 13 -23 7 3 15 35 19 84 4 43 9 89 11 102 6 30 -7 36 -37
17 -19 -12 -60 -18 -160 -22 l-136 -6 0 177 0 178 118 -7 c64 -3 129 -11 143
-16 28 -11 49 -46 49 -80 0 -12 5 -19 13 -17 7 3 15 32 19 69 4 35 9 79 12 97
4 28 2 32 -17 30 -12 -2 -165 -4 -339 -5z"/>
<path d="M1810 2592 c0 -5 20 -13 45 -16 24 -4 54 -15 67 -26 l23 -18 0 -409
c-1 -282 -4 -416 -12 -434 -9 -21 -21 -28 -57 -33 -25 -4 -46 -11 -46 -17 0
-5 88 -9 215 -9 130 0 215 4 215 10 0 5 -17 12 -37 15 -80 13 -82 14 -92 53
-6 20 -11 101 -11 180 l0 142 63 0 c35 0 70 -6 79 -12 9 -7 56 -67 103 -133
105 -145 167 -211 220 -236 32 -15 64 -19 168 -19 125 0 167 12 90 26 -21 4
-54 15 -73 24 -44 22 -155 137 -278 288 l-92 113 66 65 c107 106 140 212 95
309 -23 50 -88 110 -138 126 -47 16 -613 25 -613 11z m483 -76 c105 -44 151
-205 91 -324 -36 -72 -72 -95 -148 -96 -34 0 -73 3 -88 7 l-28 7 0 210 0 210
70 0 c39 0 85 -6 103 -14z"/>
<path d="M3910 2591 c0 -5 19 -11 43 -15 23 -4 52 -14 65 -22 l22 -14 0 -418
c0 -468 2 -455 -70 -467 -94 -16 -28 -25 180 -25 133 0 220 4 220 10 0 8 -29
16 -90 22 -43 5 -50 36 -50 246 l0 192 255 0 255 0 0 -198 c0 -225 -3 -236
-70 -247 -94 -16 -28 -25 180 -25 133 0 220 4 220 10 0 8 -29 16 -90 22 -48 6
-50 22 -50 464 0 460 -4 435 73 449 86 16 24 25 -178 25 -203 0 -268 -9 -172
-24 23 -4 52 -14 65 -22 21 -14 22 -19 22 -194 l0 -180 -255 0 -255 0 0 178
c0 200 1 204 73 217 86 16 24 25 -178 25 -118 0 -215 -4 -215 -9z"/>
<path d="M5230 2591 c0 -5 18 -12 39 -16 79 -13 76 4 75 -454 0 -274 -4 -414
-11 -432 -9 -21 -21 -28 -57 -33 -25 -4 -46 -11 -46 -17 0 -5 92 -9 227 -9
165 0 224 3 216 11 -6 6 -35 14 -64 17 -43 6 -56 12 -66 32 -10 19 -13 124
-13 430 0 455 -2 443 70 455 92 16 29 25 -165 25 -117 0 -205 -4 -205 -9z"/>
<path d="M4636 1362 c-8 -15 -96 -219 -197 -452 -100 -234 -189 -436 -197
-449 -18 -27 -69 -51 -108 -51 -16 0 -24 -5 -21 -12 3 -10 46 -13 172 -13 126
0 169 3 173 13 2 7 -6 12 -23 12 -40 0 -65 18 -65 45 0 14 21 77 47 140 l47
115 165 -2 165 -3 55 -139 c53 -133 55 -139 36 -152 -10 -8 -15 -17 -11 -21 4
-5 85 -8 178 -8 128 0 172 3 175 13 3 7 -5 12 -21 12 -47 0 -94 27 -120 68
-22 36 -64 131 -303 692 -41 96 -81 185 -89 198 -19 30 -40 28 -58 -6z m58
-400 c33 -86 61 -163 64 -169 3 -10 -26 -13 -127 -13 -88 0 -131 4 -131 11 0
16 124 329 130 329 3 0 32 -71 64 -158z"/>
<path d="M3590 1374 c-153 -26 -236 -63 -319 -140 -200 -184 -202 -515 -5
-704 127 -122 266 -164 519 -158 170 5 228 18 238 55 11 36 27 137 27 170 0
47 -16 41 -41 -17 -43 -101 -122 -137 -282 -128 -74 4 -96 10 -160 41 -178 88
-265 265 -239 486 23 195 112 296 286 323 141 22 305 -20 355 -91 12 -16 25
-50 30 -76 10 -52 18 -65 30 -46 8 13 22 243 15 250 -18 19 -383 48 -454 35z"/>
<path d="M6742 1363 c-10 -18 -32 -135 -32 -166 0 -28 25 -19 37 12 20 53 49
63 205 69 l140 5 -4 -409 c-3 -295 -7 -415 -16 -431 -8 -14 -27 -25 -53 -30
-22 -4 -40 -12 -40 -18 1 -13 429 -16 437 -4 6 11 -3 14 -71 25 -74 13 -74 10
-74 473 l-1 393 118 -4 c143 -5 193 -23 203 -76 7 -33 16 -49 23 -41 2 2 6 48
7 102 l4 98 -420 2 c-231 1 -428 6 -437 10 -12 6 -19 3 -26 -10z"/>
<path d="M8123 1370 c-304 -55 -487 -326 -418 -619 44 -185 195 -331 383 -370
75 -16 236 -13 311 4 323 76 492 430 349 733 -52 111 -156 193 -298 236 -65
20 -253 29 -327 16z m196 -79 c183 -57 295 -257 276 -492 -20 -251 -131 -369
-334 -357 -231 14 -381 220 -368 503 9 194 73 299 210 346 68 24 140 24 216 0z"/>
<path d="M5282 1348 c3 -7 26 -15 51 -18 86 -11 82 14 82 -453 0 -312 -3 -417
-13 -434 -8 -14 -27 -25 -55 -30 -23 -5 -42 -13 -42 -18 0 -15 427 -13 432 1
2 7 -17 14 -49 17 -93 11 -89 -13 -86 466 l3 416 40 3 c55 5 109 -13 152 -51
50 -44 73 -98 73 -175 0 -124 -60 -201 -171 -220 -65 -11 -45 -27 34 -27 173
2 307 130 307 295 -1 108 -38 167 -135 212 -48 22 -62 23 -339 26 -235 3 -287
1 -284 -10z"/>
<path d="M6162 1348 c3 -7 21 -16 42 -19 72 -12 71 -6 74 -327 4 -325 -4 -543
-22 -567 -6 -9 -31 -19 -54 -22 -25 -3 -41 -10 -39 -17 5 -14 430 -16 437 -1
3 5 -19 13 -50 18 -30 4 -62 14 -70 23 -13 12 -15 76 -18 432 -3 463 -5 450
63 461 21 3 40 12 43 19 3 9 -42 12 -203 12 -161 0 -206 -3 -203 -12z"/>
<path d="M8877 1354 c-13 -13 5 -24 39 -24 24 0 43 -8 60 -25 l25 -25 -3 -416
-3 -416 -24 -19 c-13 -10 -36 -19 -52 -19 -17 0 -29 -5 -29 -12 0 -10 73 -14
327 -15 180 -2 335 0 345 3 19 6 38 81 38 154 0 61 -14 64 -32 8 -22 -64 -52
-81 -156 -86 -111 -5 -197 11 -215 41 -18 32 -18 790 1 809 6 6 33 15 59 18
25 3 48 11 51 18 3 9 -44 12 -210 12 -118 0 -218 -3 -221 -6z"/>
<path d="M775 1215 c-85 -30 -144 -130 -130 -220 8 -60 54 -128 101 -150 55
-27 163 -32 219 -10 62 23 111 83 125 151 23 108 -30 203 -129 233 -51 15
-137 13 -186 -4z m155 -37 c58 -40 74 -71 78 -152 7 -126 -42 -185 -144 -173
-86 9 -134 79 -134 194 0 74 19 115 62 139 37 21 101 17 138 -8z"/>
<path d="M1143 1218 c-2 -5 4 -8 14 -8 38 0 43 -19 43 -159 0 -171 -6 -211
-31 -211 -11 0 -19 -4 -19 -9 0 -5 41 -9 90 -9 50 0 90 4 90 9 0 5 -11 9 -24
9 -29 0 -36 21 -36 113 l0 67 54 0 c48 0 56 -3 62 -22 7 -22 7 -22 15 -3 4 11
8 33 8 48 1 24 -1 26 -18 17 -11 -5 -42 -10 -70 -10 l-51 0 0 70 0 70 61 0
c52 0 62 -3 66 -20 9 -33 23 -22 23 18 l0 37 -136 0 c-75 0 -138 -3 -141 -7z"/>
<path d="M1665 1215 c-18 -62 -12 -85 13 -45 10 16 23 20 72 20 l60 0 0 -152
c0 -174 -4 -198 -32 -198 -10 0 -17 -4 -14 -9 7 -11 176 -12 176 0 0 5 -11 9
-24 9 -21 0 -26 6 -31 43 -3 23 -5 101 -3 172 l3 130 47 3 c41 3 51 -1 73 -24
l25 -27 0 44 0 44 -181 0 c-113 0 -183 -4 -184 -10z"/>
<path d="M2073 1218 c-2 -5 4 -8 14 -8 39 0 43 -18 43 -181 0 -87 -3 -164 -6
-173 -3 -9 -15 -16 -25 -16 -10 0 -19 -4 -19 -9 0 -5 41 -9 90 -9 50 0 90 4
90 9 0 5 -11 9 -24 9 -22 0 -25 5 -31 53 -4 28 -5 68 -3 87 l3 35 104 0 104 0
-1 -52 c-2 -127 -1 -123 -22 -123 -11 0 -20 -4 -20 -9 0 -5 41 -9 90 -9 50 0
90 3 90 8 0 5 -12 10 -27 12 l-28 3 -3 178 c-2 172 -2 179 18 184 11 3 20 8
20 12 0 8 -159 5 -167 -3 -4 -3 3 -6 15 -6 29 0 33 -9 34 -87 l2 -68 -105 0
-104 0 -3 54 c-4 75 3 101 30 101 12 0 19 3 16 6 -9 8 -169 10 -175 2z"/>
<path d="M2613 1218 c-2 -5 4 -8 14 -8 38 0 43 -19 43 -159 0 -171 -6 -211
-31 -211 -11 0 -19 -4 -19 -9 0 -4 59 -9 132 -10 145 -1 148 0 148 59 0 34 -1
34 -13 11 -14 -29 -56 -43 -101 -34 -42 8 -46 17 -46 96 l0 67 56 0 c49 0 57
-3 62 -22 5 -21 6 -21 13 -2 4 10 8 32 8 47 1 25 -1 27 -19 17 -12 -6 -42 -10
-68 -8 l-47 3 -3 68 -3 67 55 0 c44 0 58 -4 69 -20 14 -20 15 -20 21 11 3 17
6 34 6 38 0 9 -271 7 -277 -1z"/>
</g>
</svg>
