<?xml version="1.0" standalone="no"?>
<!DOCTYPE svg PUBLIC "-//W3C//DTD SVG 20010904//EN"
 "http://www.w3.org/TR/2001/REC-SVG-20010904/DTD/svg10.dtd">
<svg version="1.0" xmlns="http://www.w3.org/2000/svg"
 width="350.000000pt" height="350.000000pt" viewBox="0 0 350.000000 350.000000"
 preserveAspectRatio="xMidYMid meet">
<metadata>
Created by potrace 1.16, written by Peter Selinger 2001-2019
</metadata>
<g transform="translate(0.000000,350.000000) scale(0.100000,-0.100000)"
fill="#000000" stroke="none">
<path d="M2050 2803 c-138 -48 -247 -184 -258 -321 l-5 -65 44 7 c60 9 135 46
186 90 57 49 111 160 119 244 7 61 6 62 -17 62 -13 -1 -44 -8 -69 -17z"/>
<path d="M1420 2385 c-155 -44 -269 -168 -315 -346 -14 -50 -16 -92 -12 -194
8 -204 59 -360 172 -530 117 -177 191 -232 293 -222 32 3 86 18 122 33 93 39
199 39 290 0 82 -35 162 -44 211 -23 93 38 215 196 292 376 23 52 25 66 14 72
-100 56 -176 143 -202 233 -19 64 -19 169 0 233 18 61 91 164 134 189 17 10
31 21 31 24 0 4 -16 25 -36 48 -22 26 -63 55 -109 78 -63 31 -86 37 -162 41
-84 5 -94 4 -211 -37 -136 -47 -139 -47 -261 2 -91 36 -176 43 -251 23z"/>
</g>
</svg>
