<?xml version="1.0" standalone="no"?>
<!DOCTYPE svg PUBLIC "-//W3C//DTD SVG 20010904//EN"
 "http://www.w3.org/TR/2001/REC-SVG-20010904/DTD/svg10.dtd">
<svg version="1.0" xmlns="http://www.w3.org/2000/svg"
 width="1024.000000pt" height="1024.000000pt" viewBox="0 0 1024.000000 1024.000000"
 preserveAspectRatio="xMidYMid meet">
<metadata>
Created by potrace 1.16, written by Peter Selinger 2001-2019
</metadata>
<g transform="translate(0.000000,1024.000000) scale(0.100000,-0.100000)"
fill="#000000" stroke="none">
<path d="M1505 6080 c-4 -6 15 -136 42 -290 l48 -280 28 0 c19 0 27 5 27 18 0
9 -21 140 -47 290 -45 262 -48 272 -69 272 -13 0 -26 -5 -29 -10z"/>
<path d="M1835 6068 c-7 -29 -95 -540 -95 -550 0 -16 49 -8 54 10 14 46 95
545 90 553 -11 18 -44 9 -49 -13z"/>
<path d="M3150 5651 l0 -401 95 0 95 0 0 130 0 130 58 0 57 0 69 -130 69 -130
108 0 c60 0 109 3 109 8 0 4 -43 74 -94 157 l-94 150 38 35 c60 56 75 93 75
185 0 120 -44 188 -150 237 -45 21 -68 23 -242 26 l-193 4 0 -401z m366 206
c26 -31 33 -101 14 -138 -17 -31 -64 -49 -130 -49 l-60 0 0 111 0 111 76 -4
c69 -3 79 -6 100 -31z"/>
<path d="M5652 5653 l3 -398 93 -3 92 -3 0 170 c0 164 1 171 23 197 17 19 33
27 56 27 66 0 81 -47 80 -248 l-1 -140 92 -3 92 -3 -4 213 c-3 205 -4 215 -28
258 -55 99 -198 120 -282 42 l-28 -26 0 157 0 157 -95 0 -95 0 2 -397z"/>
<path d="M1216 5975 c-10 -8 -23 -16 -29 -18 -8 -2 207 -394 272 -495 7 -12
14 -11 40 2 28 15 30 19 20 39 -38 72 -264 464 -273 474 -8 9 -15 9 -30 -2z"/>
<path d="M2122 5913 c-30 -51 -224 -392 -248 -434 -2 -3 7 -11 20 -17 22 -10
28 -1 165 239 117 205 141 252 131 264 -7 8 -16 15 -21 15 -4 0 -26 -30 -47
-67z"/>
<path d="M5220 5860 l0 -70 -45 0 -45 0 0 -75 0 -75 44 0 44 0 4 -137 c4 -165
18 -203 88 -240 48 -26 154 -32 223 -12 41 11 42 17 31 102 l-7 46 -43 -6
c-95 -13 -114 13 -114 158 l0 88 67 3 66 3 22 72 22 72 -86 3 -86 3 -3 68 -3
67 -89 0 -90 0 0 -70z"/>
<path d="M3995 5794 c-57 -21 -121 -88 -145 -152 -24 -62 -26 -177 -6 -235 24
-65 65 -115 119 -142 84 -42 193 -31 242 25 l20 22 5 -28 5 -29 85 0 85 0 3
268 2 267 -90 0 -90 0 0 -27 0 -26 -23 21 c-53 50 -136 64 -212 36z m187 -166
c28 -14 48 -63 48 -114 0 -113 -142 -157 -200 -62 -68 112 39 235 152 176z"/>
<path d="M6449 5794 c-109 -33 -181 -140 -181 -269 0 -124 52 -209 157 -256
95 -43 292 -35 358 14 18 12 18 15 -9 69 l-27 55 -45 -13 c-56 -17 -132 -18
-185 -2 -42 13 -101 63 -91 79 3 5 88 9 189 9 l185 0 6 25 c17 69 -31 205 -89
249 -70 53 -175 69 -268 40z m136 -118 c34 -15 57 -42 70 -83 6 -23 6 -23
-115 -23 -121 0 -121 0 -115 23 12 39 41 72 76 84 44 15 44 15 84 -1z"/>
<path d="M7085 5797 c-66 -22 -101 -44 -138 -88 -119 -138 -76 -357 87 -441
57 -30 176 -36 244 -14 193 64 252 325 107 471 -21 21 -58 46 -82 57 -56 25
-165 32 -218 15z m171 -181 c30 -30 34 -40 34 -85 0 -95 -52 -149 -133 -138
-101 14 -142 153 -67 229 24 23 37 28 80 28 46 0 56 -4 86 -34z"/>
<path d="M7825 5798 c-16 -6 -45 -24 -62 -41 l-33 -31 0 32 0 32 -90 0 -90 0
0 -270 0 -271 93 3 92 3 2 165 c2 99 8 174 14 187 22 42 101 49 126 11 4 -7
10 -92 13 -188 l5 -175 94 -3 93 -3 -3 208 c-4 198 -5 210 -29 258 -40 80
-134 115 -225 83z"/>
<path d="M4571 5540 c60 -138 109 -255 109 -260 0 -6 -16 -42 -35 -80 -19 -39
-46 -95 -60 -125 l-24 -55 92 0 92 0 163 378 c89 208 162 381 162 385 0 4 -43
6 -96 5 l-96 -3 -34 -95 c-59 -166 -66 -182 -74 -173 -4 4 -29 68 -56 140
l-49 133 -101 0 -102 0 109 -250z"/>
<path d="M949 5749 c-12 -17 -18 -34 -13 -39 5 -5 104 -90 219 -188 l210 -180
25 31 c14 18 25 34 25 38 0 8 -425 369 -435 369 -5 0 -18 -14 -31 -31z"/>
<path d="M2240 5604 c-278 -236 -255 -213 -237 -231 13 -14 37 4 228 166 195
165 234 208 204 218 -6 2 -94 -67 -195 -153z"/>
<path d="M789 5473 c-24 -65 -35 -58 251 -164 l265 -98 17 37 c9 20 17 42 17
48 1 8 -508 204 -532 204 -4 0 -12 -12 -18 -27z"/>
<path d="M2077 5228 c4 -13 8 -66 8 -118 0 -85 -3 -102 -31 -160 -39 -83 -111
-155 -194 -194 -59 -28 -74 -31 -165 -31 -88 0 -107 3 -158 27 -77 36 -160
116 -197 191 -16 33 -30 68 -30 79 0 10 -5 18 -11 18 -6 0 -130 -44 -274 -97
l-262 -97 19 -58 c11 -32 23 -58 27 -58 4 0 124 43 266 95 142 53 259 94 261
92 2 -2 -93 -86 -211 -186 -236 -201 -225 -183 -162 -256 l34 -39 202 173
c112 95 204 171 206 169 2 -2 -55 -104 -125 -228 -71 -124 -129 -230 -130
-235 0 -6 28 -27 62 -47 l63 -37 32 57 c18 31 74 130 125 219 50 90 93 161 96
159 2 -3 -15 -113 -38 -246 -35 -197 -40 -244 -29 -250 15 -10 139 -33 145
-27 2 1 21 106 43 231 36 206 50 267 51 225 1 -25 78 -450 83 -455 5 -6 141
16 156 25 7 5 -2 76 -27 219 -21 117 -36 212 -33 212 4 0 53 -83 111 -185 58
-102 110 -185 116 -185 12 0 123 66 143 85 12 12 0 38 -82 182 -52 92 -94 170
-92 171 2 2 70 -53 152 -122 l147 -126 29 28 c34 32 97 116 97 128 0 5 -59 58
-130 118 -72 60 -128 111 -126 113 2 2 76 -23 165 -55 l162 -60 15 37 c17 41
54 151 54 161 0 4 -66 32 -147 61 l-148 54 156 3 156 2 7 51 c4 28 4 82 0 120
l-7 69 -294 0 -294 0 8 -22z"/>
<path d="M730 5120 l0 -59 285 0 285 0 0 59 0 60 -285 0 -285 0 0 -60z"/>
<path d="M3122 4893 l3 -38 138 -3 138 -3 -3 -344 -3 -345 43 0 42 0 0 345 0
344 138 3 137 3 3 38 3 37 -321 0 -321 0 3 -37z"/>
<path d="M4890 4545 l0 -385 39 0 39 0 4 173 c3 141 7 178 21 205 40 74 149
97 207 45 41 -37 52 -104 48 -283 l-3 -140 43 0 44 0 -4 198 c-3 193 -3 198
-30 243 -34 58 -82 83 -158 83 -65 -1 -108 -21 -144 -66 l-26 -33 0 173 0 172
-40 0 -40 0 0 -385z"/>
<path d="M6750 4545 l0 -385 45 0 45 0 0 385 0 385 -45 0 -45 0 0 -385z"/>
<path d="M8310 4905 c-20 -24 -15 -67 10 -87 29 -23 45 -23 70 2 22 22 26 51
10 81 -13 23 -72 26 -90 4z"/>
<path d="M3887 4676 c-62 -17 -116 -61 -147 -122 -22 -42 -25 -61 -25 -150 0
-95 2 -103 30 -150 24 -37 44 -56 90 -79 53 -27 68 -30 154 -30 69 0 109 5
144 18 26 10 47 21 47 23 0 3 -7 18 -15 35 -13 23 -19 27 -33 20 -10 -5 -45
-14 -78 -20 -133 -24 -241 28 -260 127 l-6 32 202 0 203 0 -6 70 c-7 81 -43
159 -90 192 -31 23 -109 48 -141 47 -12 0 -43 -6 -69 -13z m151 -86 c32 -20
71 -86 72 -122 0 -16 -14 -18 -160 -18 -176 0 -173 -1 -146 63 7 18 30 47 50
65 32 28 44 32 94 32 40 0 67 -6 90 -20z"/>
<path d="M4521 4679 c-124 -24 -211 -135 -211 -269 0 -61 14 -107 49 -162 53
-83 185 -125 311 -99 80 17 86 22 70 61 -9 22 -17 29 -29 25 -115 -45 -241
-14 -288 70 -27 47 -31 146 -9 198 18 44 78 95 122 103 35 6 119 1 160 -11 15
-5 23 0 33 21 15 34 9 39 -64 58 -65 17 -79 18 -144 5z"/>
<path d="M5700 4679 c-45 -14 -87 -44 -95 -69 -11 -34 -25 -22 -25 20 l0 40
-40 0 -40 0 0 -255 0 -255 45 0 45 0 0 165 c0 184 7 214 59 258 36 30 99 37
146 15 52 -23 60 -56 63 -255 l4 -183 39 0 39 0 0 188 c-1 194 -9 242 -47 284
-40 44 -128 66 -193 47z"/>
<path d="M6287 4680 c-57 -15 -89 -34 -134 -83 -50 -54 -67 -102 -68 -187 -1
-225 243 -348 426 -215 159 115 125 395 -55 470 -45 19 -124 26 -169 15z m130
-81 c90 -34 135 -149 101 -262 -34 -113 -177 -159 -276 -88 -86 61 -96 226
-19 310 43 47 129 65 194 40z"/>
<path d="M7167 4676 c-166 -46 -244 -235 -162 -396 79 -155 297 -187 423 -62
104 105 99 299 -10 398 -70 63 -162 85 -251 60z m146 -80 c156 -65 134 -334
-29 -375 -123 -31 -223 55 -224 191 0 68 12 103 48 142 51 54 136 71 205 42z"/>
<path d="M7790 4671 c-69 -24 -131 -90 -155 -162 -26 -78 -17 -181 22 -250 74
-132 248 -159 360 -56 l46 42 -6 -79 c-8 -93 -35 -150 -87 -180 -45 -27 -184
-28 -244 -3 -22 10 -40 16 -42 14 -2 -2 -5 -18 -6 -36 -3 -31 0 -35 37 -49 26
-10 76 -16 145 -16 118 -1 164 15 214 75 59 69 60 79 64 402 l3 297 -40 0 -41
0 0 -40 c0 -47 -5 -49 -32 -15 -49 63 -151 87 -238 56z m174 -81 c61 -30 90
-78 94 -161 3 -54 0 -77 -17 -112 -38 -78 -122 -118 -203 -97 -161 43 -182
281 -33 371 39 25 108 24 159 -1z"/>
<path d="M8717 4676 c-63 -17 -116 -61 -147 -122 -22 -42 -25 -61 -25 -150 0
-94 2 -103 30 -149 21 -33 47 -57 85 -79 51 -29 62 -31 150 -31 95 0 200 24
200 46 0 9 -17 47 -25 57 -1 1 -15 -2 -31 -9 -98 -37 -219 -29 -275 19 -33 27
-59 77 -59 112 0 19 6 20 194 20 223 0 212 -5 197 92 -11 66 -28 103 -68 142
-53 54 -144 75 -226 52z m154 -89 c24 -16 39 -37 51 -72 9 -28 14 -53 11 -57
-2 -5 -74 -8 -160 -8 l-155 0 6 32 c8 41 42 91 75 112 40 24 131 21 172 -7z"/>
<path d="M9280 4681 c-87 -18 -130 -65 -130 -141 0 -82 38 -119 164 -160 111
-36 140 -81 92 -137 -23 -26 -29 -28 -103 -28 -53 0 -88 6 -108 17 -29 16 -30
16 -48 -14 -22 -36 -18 -40 57 -63 105 -32 209 -14 268 45 35 35 38 42 38 95
0 54 -3 60 -38 95 -25 23 -62 44 -106 58 -117 39 -136 53 -136 106 0 54 74 76
170 52 35 -9 64 -15 65 -14 5 7 25 47 25 51 0 3 -17 12 -37 20 -49 19 -128 27
-173 18z"/>
<path d="M8310 4415 l0 -255 43 0 42 0 0 255 0 255 -42 0 -43 0 0 -255z"/>
</g>
</svg>
