<?xml version="1.0" standalone="no"?>
<!DOCTYPE svg PUBLIC "-//W3C//DTD SVG 20010904//EN"
 "http://www.w3.org/TR/2001/REC-SVG-20010904/DTD/svg10.dtd">
<svg version="1.0" xmlns="http://www.w3.org/2000/svg"
 width="431.000000pt" height="431.000000pt" viewBox="0 0 431.000000 431.000000"
 preserveAspectRatio="xMidYMid meet">
<metadata>
Created by potrace 1.16, written by Peter Selinger 2001-2019
</metadata>
<g transform="translate(0.000000,431.000000) scale(0.100000,-0.100000)"
fill="#000000" stroke="none">
<path d="M3809 2475 l-154 -165 -635 -1 -635 -2 607 -17 c334 -9 610 -18 612
-21 3 -2 -28 -40 -67 -84 l-72 -80 90 82 90 83 94 0 94 0 -7 -32 c-4 -18 -9
-50 -12 -70 l-6 -37 -363 -193 c-200 -106 -362 -194 -361 -195 1 -2 160 74
352 167 192 93 352 170 355 170 4 0 0 -30 -7 -67 -21 -97 -12 -97 14 0 l23 84
217 106 217 105 -188 1 c-182 1 -188 2 -182 20 21 68 84 305 81 308 -2 2 -72
-71 -157 -162z m50 -71 c-17 -100 -12 -94 -92 -94 l-72 1 85 78 c47 44 86 78
87 77 2 -2 -2 -29 -8 -62z m86 -199 c-55 -30 -101 -52 -103 -50 -3 2 11 65 22
100 2 6 39 9 92 7 l89 -4 -100 -53z"/>
<path d="M76 2133 c-10 -38 -21 -76 -23 -85 -5 -16 2 -18 50 -18 46 0 55 3 60
20 4 17 0 20 -23 20 l-29 0 19 65 19 65 -28 0 c-25 0 -28 -5 -45 -67z"/>
<path d="M280 2172 c-31 -32 -49 -96 -33 -121 11 -18 53 -26 90 -17 53 14 87
133 44 156 -35 18 -71 11 -101 -18z m66 -44 c-7 -36 -23 -58 -42 -58 -18 0
-18 12 0 55 20 46 51 49 42 3z"/>
<path d="M519 2185 c-45 -24 -71 -125 -38 -146 29 -18 79 -10 107 19 l27 27
-24 3 c-13 2 -28 -1 -34 -7 -19 -19 -37 -12 -37 13 0 29 39 77 46 59 3 -7 17
-13 30 -13 19 0 24 5 24 24 0 37 -51 48 -101 21z"/>
<path d="M721 2163 c-6 -21 -17 -59 -25 -85 l-14 -48 29 0 c24 0 29 5 35 35 7
37 24 48 24 16 0 -36 12 -51 40 -51 l28 0 -13 43 c-12 41 -12 43 22 85 l34 42
-29 0 c-22 0 -35 -9 -56 -37 l-28 -38 6 38 c6 35 5 37 -18 37 -21 0 -27 -7
-35 -37z"/>
<path d="M956 2192 c-2 -4 -11 -35 -20 -69 -9 -34 -19 -69 -22 -78 -5 -11 1
-15 20 -15 21 0 29 7 37 30 7 19 18 30 30 30 16 0 17 -4 9 -26 -14 -35 -13
-36 17 -32 23 3 29 11 44 59 33 114 33 111 2 107 -21 -2 -29 -10 -35 -35 -6
-24 -14 -33 -29 -33 -13 0 -19 5 -16 13 19 52 19 57 -7 57 -14 0 -27 -3 -30
-8z"/>
<path d="M1207 2193 c-3 -5 -12 -35 -21 -68 -10 -33 -19 -68 -22 -77 -5 -16 2
-18 54 -18 51 0 60 3 65 20 4 17 0 20 -30 20 -20 0 -32 4 -28 10 3 6 17 10 30
10 14 0 29 9 35 20 10 18 8 20 -20 20 -43 0 -34 23 11 30 22 3 35 11 37 23 3
14 -5 17 -52 17 -30 0 -57 -3 -59 -7z"/>
<path d="M1402 2121 c-12 -43 -22 -81 -22 -85 0 -3 27 -6 60 -6 53 0 60 2 60
20 0 16 -7 20 -30 20 -40 0 -38 18 2 22 42 4 54 38 14 38 -16 0 -26 6 -26 15
0 10 10 15 34 15 29 0 46 13 46 36 0 2 -26 4 -58 4 l-59 0 -21 -79z"/>
<path d="M1641 2163 c-6 -21 -17 -59 -25 -85 l-14 -48 50 0 c81 0 127 37 128
102 0 46 -28 68 -87 68 -40 0 -43 -2 -52 -37z m87 -27 c6 -27 -18 -66 -40 -66
-21 0 -21 1 -6 52 12 41 40 50 46 14z"/>
<path d="M1972 2121 c-27 -96 -27 -91 1 -91 20 0 25 9 39 58 l16 57 1 -57 c1
-54 3 -58 25 -58 18 0 30 13 54 58 35 63 39 61 17 -11 l-14 -48 26 3 c23 3 28
11 49 83 13 44 24 81 24 83 0 1 -19 2 -43 2 -42 0 -44 -2 -70 -52 l-27 -53 3
53 4 52 -42 0 -42 0 -21 -79z"/>
<path d="M2288 2117 c-44 -78 -46 -82 -26 -85 12 -2 27 3 34 12 15 21 64 21
64 1 0 -9 9 -15 25 -15 25 0 25 1 25 85 l0 85 -37 0 c-37 0 -39 -2 -85 -83z
m72 8 c0 -28 -4 -35 -20 -35 -19 0 -19 1 -3 35 9 19 18 35 20 35 2 0 3 -16 3
-35z"/>
<path d="M2520 2128 c-12 -40 -23 -79 -25 -85 -3 -9 6 -13 24 -13 24 0 30 5
35 30 3 18 12 30 21 30 10 0 15 -10 15 -30 0 -25 4 -30 24 -30 19 0 26 7 31
32 5 21 4 33 -4 36 -16 5 -14 22 4 22 8 0 18 12 21 27 9 35 -16 53 -77 53
l-48 0 -21 -72z m90 17 c0 -8 -9 -15 -20 -15 -13 0 -18 5 -14 15 4 8 12 15 20
15 8 0 14 -7 14 -15z"/>
<path d="M2736 2184 c-9 -23 -8 -24 13 -24 19 0 19 -1 1 -65 l-19 -65 30 0
c16 0 29 5 29 11 0 6 7 35 16 65 11 40 20 54 34 54 15 0 30 18 30 36 0 2 -29
4 -64 4 -49 0 -65 -4 -70 -16z"/>
<path d="M2925 2128 c-10 -40 -20 -79 -23 -86 -3 -10 3 -13 23 -10 26 3 30 9
51 86 l22 82 -27 0 c-25 0 -28 -5 -46 -72z"/>
<path d="M3085 2143 c-9 -32 -20 -70 -25 -85 -8 -26 -7 -28 19 -28 24 0 29 5
41 53 l15 52 5 -50 c5 -49 5 -50 42 -53 35 -3 37 -1 47 35 6 21 17 60 25 86
l14 48 -26 -3 c-22 -3 -29 -11 -41 -53 -8 -27 -16 -43 -17 -35 -2 8 -5 32 -9
53 -5 34 -8 37 -40 37 -33 0 -35 -2 -50 -57z"/>
<path d="M3761 1904 c0 -11 3 -14 6 -6 3 7 2 16 -1 19 -3 4 -6 -2 -5 -13z"/>
</g>
</svg>
