<?xml version="1.0" standalone="no"?>
<!DOCTYPE svg PUBLIC "-//W3C//DTD SVG 20010904//EN"
 "http://www.w3.org/TR/2001/REC-SVG-20010904/DTD/svg10.dtd">
<svg version="1.0" xmlns="http://www.w3.org/2000/svg"
 width="225.000000pt" height="225.000000pt" viewBox="0 0 225.000000 225.000000"
 preserveAspectRatio="xMidYMid meet">
<metadata>
Created by potrace 1.16, written by Peter Selinger 2001-2019
</metadata>
<g transform="translate(0.000000,225.000000) scale(0.100000,-0.100000)"
fill="#000000" stroke="none">
<path d="M855 1825 c-406 -66 -740 -284 -825 -541 -19 -57 -22 -82 -18 -174 4
-101 7 -113 45 -191 75 -158 184 -261 383 -363 127 -65 221 -98 360 -126 95
-19 130 -21 360 -18 239 3 261 5 355 30 302 81 524 219 646 401 82 124 104
300 54 442 -88 248 -360 442 -738 526 -123 28 -486 36 -622 14z m617 -113
c247 -64 336 -140 284 -241 -26 -50 -127 -103 -253 -134 -124 -31 -108 -39
-133 66 -43 176 -131 319 -207 333 -117 22 -225 -106 -275 -328 l-22 -97 -30
6 c-57 11 -191 55 -241 80 -224 110 -97 269 269 339 50 9 134 12 281 10 196
-3 218 -6 327 -34z m-276 -177 c23 -24 41 -61 59 -116 37 -118 39 -115 -53
-123 -43 -3 -113 -3 -155 0 l-78 7 6 31 c40 202 137 290 221 201z m-892 -104
c9 -60 96 -148 194 -199 86 -45 152 -65 268 -85 l79 -13 7 -80 c24 -255 56
-384 121 -487 18 -29 37 -58 42 -66 20 -33 -242 22 -383 81 -104 43 -237 134
-311 213 -171 183 -199 426 -71 625 18 28 36 50 40 50 4 0 10 -18 14 -39z
m1699 -18 c74 -123 96 -257 62 -388 -56 -214 -291 -405 -610 -495 -61 -17
-137 -33 -169 -37 -66 -7 -65 -10 -15 60 70 97 117 267 128 465 l6 115 92 19
c253 51 419 153 453 280 6 21 13 38 15 38 2 0 19 -26 38 -57z m-708 -360 c-21
-194 -91 -343 -163 -343 -40 0 -88 45 -121 113 -28 58 -41 115 -56 245 l-6 52
177 0 176 0 -7 -67z"/>
</g>
</svg>
