<?xml version="1.0" standalone="no"?>
<!DOCTYPE svg PUBLIC "-//W3C//DTD SVG 20010904//EN"
 "http://www.w3.org/TR/2001/REC-SVG-20010904/DTD/svg10.dtd">
<svg version="1.0" xmlns="http://www.w3.org/2000/svg"
 width="1024.000000pt" height="1024.000000pt" viewBox="0 0 1024.000000 1024.000000"
 preserveAspectRatio="xMidYMid meet">
<metadata>
Created by potrace 1.16, written by Peter Selinger 2001-2019
</metadata>
<g transform="translate(0.000000,1024.000000) scale(0.100000,-0.100000)"
fill="#000000" stroke="none">
<path d="M0 5120 l0 -3980 5120 0 5120 0 -1 2268 c-1 1972 -3 2253 -15 2157
-8 -60 -21 -148 -30 -195 -9 -47 -18 -97 -19 -112 -2 -14 -8 -41 -14 -60 -5
-18 -20 -69 -32 -113 -35 -127 -47 -166 -72 -235 -105 -281 -230 -518 -395
-751 -332 -467 -812 -860 -1307 -1068 -55 -24 -116 -49 -135 -58 -48 -21 -302
-103 -318 -103 -8 0 -44 -8 -80 -19 -193 -54 -468 -86 -752 -86 -325 0 -574
35 -895 127 -79 23 -200 63 -230 78 -11 5 -54 23 -96 39 -92 36 -319 152 -409
209 -36 22 -85 53 -110 68 -41 25 -182 125 -204 145 -5 5 -3 16 5 26 12 16 12
17 -2 6 -12 -10 -29 0 -100 59 -316 267 -598 630 -784 1013 -157 321 -251 640
-302 1020 -24 180 -24 570 0 750 86 643 330 1199 737 1680 74 87 304 315 386
382 41 34 53 40 64 30 12 -10 12 -9 2 4 -10 13 -6 21 21 45 17 16 62 49 100
73 37 24 67 48 67 52 0 5 4 9 10 9 5 0 57 29 115 65 108 67 344 185 450 224
33 13 69 27 80 32 28 13 187 63 275 87 186 51 420 92 528 92 40 0 72 4 72 10
0 6 -1208 9 -3425 9 l-3425 0 0 -3979z"/>
<path d="M7300 9090 c0 -6 29 -10 67 -10 141 0 519 -74 667 -131 27 -11 54
-19 61 -19 10 0 53 -16 169 -63 597 -243 1137 -690 1474 -1221 87 -138 248
-436 235 -436 -3 0 1 -10 9 -22 17 -28 79 -192 121 -323 46 -141 98 -388 121
-575 12 -103 14 42 15 1348 l1 1462 -1470 0 c-973 0 -1470 -3 -1470 -10z"/>
<path d="M5180 8356 c0 -2 8 -10 18 -17 15 -13 16 -12 3 4 -13 16 -21 21 -21
13z"/>
<path d="M5250 8296 c0 -2 8 -10 18 -17 15 -13 16 -12 3 4 -13 16 -21 21 -21
13z"/>
<path d="M5495 8050 c10 -11 20 -20 23 -20 3 0 -3 9 -13 20 -10 11 -20 20 -23
20 -3 0 3 -9 13 -20z"/>
<path d="M6211 6724 c0 -11 3 -14 6 -6 3 7 2 16 -1 19 -3 4 -6 -2 -5 -13z"/>
<path d="M6282 6360 c0 -14 2 -19 5 -12 2 6 2 18 0 25 -3 6 -5 1 -5 -13z"/>
<path d="M6292 6285 c0 -16 2 -22 5 -12 2 9 2 23 0 30 -3 6 -5 -1 -5 -18z"/>
<path d="M6302 6205 c0 -16 2 -22 5 -12 2 9 2 23 0 30 -3 6 -5 -1 -5 -18z"/>
<path d="M6302 5650 c0 -19 2 -27 5 -17 2 9 2 25 0 35 -3 9 -5 1 -5 -18z"/>
<path d="M6292 5565 c0 -16 2 -22 5 -12 2 9 2 23 0 30 -3 6 -5 -1 -5 -18z"/>
<path d="M6281 5494 c0 -11 3 -14 6 -6 3 7 2 16 -1 19 -3 4 -6 -2 -5 -13z"/>
<path d="M6251 5304 c0 -11 3 -14 6 -6 3 7 2 16 -1 19 -3 4 -6 -2 -5 -13z"/>
<path d="M5629 3963 c-13 -16 -12 -17 4 -4 16 13 21 21 13 21 -2 0 -10 -8 -17
-17z"/>
<path d="M5414 3718 l-29 -33 33 29 c17 17 32 31 32 33 0 8 -8 1 -36 -29z"/>
<path d="M5244 3558 l-19 -23 23 19 c21 18 27 26 19 26 -2 0 -12 -10 -23 -22z"/>
</g>
</svg>
