<?xml version="1.0" standalone="no"?>
<!DOCTYPE svg PUBLIC "-//W3C//DTD SVG 20010904//EN"
 "http://www.w3.org/TR/2001/REC-SVG-20010904/DTD/svg10.dtd">
<svg version="1.0" xmlns="http://www.w3.org/2000/svg"
 width="1024.000000pt" height="1024.000000pt" viewBox="0 0 1024.000000 1024.000000"
 preserveAspectRatio="xMidYMid meet">
<metadata>
Created by potrace 1.16, written by Peter Selinger 2001-2019
</metadata>
<g transform="translate(0.000000,1024.000000) scale(0.100000,-0.100000)"
fill="#000000" stroke="none">
<path d="M4885 10083 c-38 -2 -146 -10 -238 -18 -1458 -134 -2798 -925 -3635
-2148 -440 -642 -717 -1370 -821 -2154 -68 -511 -50 -1097 50 -1603 410 -2078
2096 -3673 4194 -3964 302 -42 718 -57 1010 -37 1114 79 2124 499 2959 1232
161 141 416 404 549 566 930 1134 1312 2597 1056 4043 -143 811 -505 1599
-1030 2246 -1001 1232 -2506 1907 -4094 1837z m570 -453 c1384 -103 2650 -841
3420 -1995 141 -211 216 -342 321 -560 251 -522 392 -1054 435 -1640 14 -201
6 -632 -16 -815 -122 -1027 -549 -1929 -1255 -2654 -515 -529 -1132 -916
-1830 -1147 -799 -264 -1684 -295 -2511 -89 -1086 270 -2041 944 -2666 1880
-330 495 -568 1075 -677 1650 -186 977 -52 1968 384 2855 494 1006 1352 1798
2391 2208 435 172 911 280 1364 310 122 8 512 6 640 -3z"/>
<path d="M4840 8630 c-141 -13 -300 -36 -440 -65 -111 -23 -259 -61 -267 -68
-2 -2 219 -495 489 -1095 271 -600 496 -1088 499 -1084 4 4 224 489 489 1077
265 589 486 1077 491 1086 7 14 -4 20 -74 39 -139 38 -302 69 -465 91 -181 23
-555 33 -722 19z"/>
<path d="M3130 8023 c-168 -115 -301 -225 -459 -378 -140 -137 -352 -375 -381
-430 -10 -19 80 -225 796 -1813 444 -986 811 -1789 815 -1785 4 5 146 315 315
691 l306 682 597 0 596 0 310 -690 c170 -380 312 -690 316 -690 4 0 9 8 12 18
2 9 365 815 806 1790 773 1711 801 1775 786 1798 -92 140 -418 483 -595 626
-117 94 -332 248 -340 243 -3 -2 -296 -649 -650 -1439 l-645 -1436 -591 0
c-462 0 -594 3 -601 13 -5 6 -292 640 -638 1407 -345 767 -635 1409 -644 1427
l-16 31 -95 -65z"/>
<path d="M1691 5928 c-71 -303 -96 -563 -88 -901 8 -318 35 -520 112 -812 219
-836 763 -1585 1495 -2057 99 -64 322 -189 327 -184 5 4 -1805 4027 -1817
4039 -4 5 -18 -33 -29 -85z"/>
<path d="M7675 4148 c-462 -1023 -872 -1932 -912 -2019 -39 -88 -68 -159 -65
-159 16 0 266 148 382 225 191 128 328 242 521 434 298 297 488 559 668 921
211 424 325 843 362 1330 22 287 -5 672 -66 957 -14 65 -28 130 -32 146 -3 15
-8 27 -12 27 -3 -1 -384 -838 -846 -1862z"/>
<path d="M4833 3262 c-155 -345 -373 -828 -484 -1075 -111 -246 -199 -450
-196 -453 25 -25 456 -106 670 -125 166 -15 582 -6 742 15 242 34 530 99 522
120 -28 65 -961 2133 -966 2138 -3 3 -133 -276 -288 -620z"/>
</g>
</svg>
