<?xml version="1.0" standalone="no"?>
<!DOCTYPE svg PUBLIC "-//W3C//DTD SVG 20010904//EN"
 "http://www.w3.org/TR/2001/REC-SVG-20010904/DTD/svg10.dtd">
<svg version="1.0" xmlns="http://www.w3.org/2000/svg"
 width="1024.000000pt" height="1024.000000pt" viewBox="0 0 1024.000000 1024.000000"
 preserveAspectRatio="xMidYMid meet">
<metadata>
Created by potrace 1.16, written by Peter Selinger 2001-2019
</metadata>
<g transform="translate(0.000000,1024.000000) scale(0.100000,-0.100000)"
fill="#000000" stroke="none">
<path d="M0 5120 l0 -5120 2433 2 c1337 0 2385 4 2327 8 -148 10 -326 29 -387
41 l-53 10 -2 1787 -3 1787 -647 3 -648 2 0 740 0 740 650 0 650 0 0 673 c0
722 3 775 55 1029 97 474 358 872 730 1114 424 275 920 355 1730 279 226 -21
542 -62 557 -71 5 -3 8 -288 8 -635 l0 -629 -332 0 c-469 0 -584 -15 -753 -95
-144 -68 -237 -160 -304 -300 -81 -168 -90 -263 -91 -887 l0 -478 710 0 c611
0 710 -2 710 -14 0 -8 -34 -237 -76 -508 -41 -271 -87 -567 -100 -658 -14 -91
-29 -192 -34 -225 -5 -33 -10 -63 -10 -67 0 -5 -269 -9 -597 -10 l-598 -3 -3
-1787 -2 -1787 -53 -10 c-61 -12 -239 -31 -387 -41 -58 -4 990 -8 2328 -8
l2432 -2 0 5120 0 5120 -5120 0 -5120 0 0 -5120z"/>
</g>
</svg>
