<?xml version="1.0" standalone="no"?>
<!DOCTYPE svg PUBLIC "-//W3C//DTD SVG 20010904//EN"
 "http://www.w3.org/TR/2001/REC-SVG-20010904/DTD/svg10.dtd">
<svg version="1.0" xmlns="http://www.w3.org/2000/svg"
 width="728.000000pt" height="728.000000pt" viewBox="0 0 728.000000 728.000000"
 preserveAspectRatio="xMidYMid meet">
<metadata>
Created by potrace 1.16, written by Peter Selinger 2001-2019
</metadata>
<g transform="translate(0.000000,728.000000) scale(0.100000,-0.100000)"
fill="#000000" stroke="none">
<path d="M3450 5594 c-19 -2 -100 -11 -180 -20 -644 -69 -1219 -285 -1596
-600 -355 -297 -564 -669 -639 -1144 -78 -494 151 -990 640 -1384 560 -451
1350 -692 2150 -655 192 9 226 13 380 40 483 86 898 263 1270 542 134 101 215
168 215 180 0 4 -52 7 -116 7 l-116 0 -41 -34 c-150 -122 -443 -275 -667 -350
-151 -50 -356 -100 -475 -117 -44 -6 -82 -12 -85 -14 -11 -7 -341 -34 -485
-40 -259 -11 -698 61 -1025 169 -483 159 -820 397 -1035 731 -188 292 -256
641 -190 967 106 519 358 894 786 1171 198 127 483 244 729 297 51 12 96 23
100 25 3 2 88 15 188 29 214 31 461 39 502 17 47 -25 60 -43 60 -80 0 -32 -42
-92 -361 -516 -505 -672 -784 -1056 -857 -1181 -79 -135 -126 -267 -138 -384
-18 -180 91 -381 251 -467 134 -71 34 -67 1594 -70 1279 -3 1409 -2 1455 13
207 67 347 258 431 588 55 218 71 486 40 671 -72 425 -377 830 -875 1160 -124
82 -289 172 -368 199 l-42 15 -36 -45 c-20 -24 -35 -46 -33 -48 2 -2 56 -30
119 -63 435 -223 728 -557 845 -960 43 -147 55 -252 55 -458 0 -165 -3 -204
-25 -300 -41 -179 -109 -290 -216 -347 l-44 -23 -1075 0 c-1025 0 -1078 1
-1130 19 -125 42 -160 79 -160 165 0 66 28 144 76 218 22 32 123 173 227 313
103 140 269 367 370 504 825 1127 752 1024 743 1061 -3 13 -21 35 -39 48 -53
40 -236 96 -377 116 -41 6 -106 16 -145 22 -69 10 -587 21 -655 13z"/>
<path d="M2092 1387 c3 -143 5 -156 27 -188 13 -20 38 -44 55 -55 30 -18 58
-19 630 -22 l600 -3 111 75 112 74 69 -51 c139 -103 125 -97 240 -97 57 0 104
3 104 8 0 4 -64 53 -141 110 -77 56 -139 107 -137 111 3 9 223 161 232 161 4
0 6 -60 6 -134 0 -122 2 -136 23 -166 29 -44 65 -69 113 -80 58 -14 1111 -13
1175 1 30 6 64 23 82 38 27 25 30 33 28 82 -2 61 -23 92 -77 109 -18 6 -127
13 -241 14 -197 3 -208 4 -205 22 2 11 14 29 28 42 24 21 31 22 243 22 l218 0
-2 38 -3 37 -233 3 c-149 2 -248 -1 -272 -8 -75 -22 -135 -103 -150 -202 l-6
-38 256 -2 c231 -3 257 -5 267 -21 8 -12 8 -22 0 -35 -10 -15 -37 -17 -293
-20 l-281 -2 0 165 0 165 -70 0 -70 0 0 -165 0 -165 -165 0 c-215 0 -205 -9
-205 187 l0 143 -136 0 -135 0 -105 -71 -106 -70 -94 71 -95 71 -337 -3 -337
-3 -47 -28 c-55 -33 -92 -74 -113 -124 -24 -57 -21 -63 36 -63 l51 0 -41 -46
c-23 -26 -41 -51 -41 -55 0 -5 -85 -9 -190 -9 -174 0 -192 2 -209 19 -25 25
-33 82 -29 209 l3 102 -73 0 -74 0 4 -153z m1338 28 c63 -47 116 -89 118 -93
1 -4 -34 -31 -78 -60 l-79 -52 -271 0 c-295 0 -302 1 -239 54 30 26 32 26 210
26 l179 0 0 43 0 42 -215 -1 c-119 0 -218 3 -221 7 -2 5 9 23 25 41 l29 33
206 3 c202 3 212 5 207 35 -2 16 19 3 129 -78z"/>
</g>
</svg>
