<?xml version="1.0" standalone="no"?>
<!DOCTYPE svg PUBLIC "-//W3C//DTD SVG 20010904//EN"
 "http://www.w3.org/TR/2001/REC-SVG-20010904/DTD/svg10.dtd">
<svg version="1.0" xmlns="http://www.w3.org/2000/svg"
 width="512.000000pt" height="512.000000pt" viewBox="0 0 512.000000 512.000000"
 preserveAspectRatio="xMidYMid meet">
<metadata>
Created by potrace 1.16, written by Peter Selinger 2001-2019
</metadata>
<g transform="translate(0.000000,512.000000) scale(0.100000,-0.100000)"
fill="#000000" stroke="none">
<path d="M622 3333 c-115 -115 -190 -204 -294 -348 -216 -302 -328 -577 -328
-808 0 -241 116 -381 385 -463 83 -25 104 -28 260 -28 267 0 289 7 1310 427
369 151 1228 503 1910 782 1074 439 1335 548 1240 522 -11 -4 -515 -128 -1120
-277 -605 -149 -1428 -356 -1828 -461 -969 -253 -922 -243 -1092 -243 -163 -1
-217 12 -312 73 -119 77 -181 189 -190 341 -9 145 26 275 123 468 34 67 58
122 53 122 -5 0 -57 -48 -117 -107z"/>
</g>
</svg>
