<?xml version="1.0" standalone="no"?>
<!DOCTYPE svg PUBLIC "-//W3C//DTD SVG 20010904//EN"
 "http://www.w3.org/TR/2001/REC-SVG-20010904/DTD/svg10.dtd">
<svg version="1.0" xmlns="http://www.w3.org/2000/svg"
 width="900.000000pt" height="900.000000pt" viewBox="0 0 900.000000 900.000000"
 preserveAspectRatio="xMidYMid meet">
<metadata>
Created by potrace 1.16, written by Peter Selinger 2001-2019
</metadata>
<g transform="translate(0.000000,900.000000) scale(0.100000,-0.100000)"
fill="#000000" stroke="none">
<path d="M4835 6790 c-399 -35 -802 -118 -1220 -249 -1510 -475 -2626 -1309
-3345 -2501 -116 -191 -196 -385 -236 -570 -14 -63 -19 -123 -18 -235 1 -133
4 -160 28 -240 98 -324 387 -541 821 -615 195 -33 357 -43 532 -30 677 47
1191 179 1816 464 196 90 370 176 366 181 -2 2 -56 -9 -119 -25 -1035 -252
-1830 -313 -2274 -173 -106 33 -206 86 -257 135 -76 74 -105 186 -75 290 62
215 418 511 788 658 l58 22 0 278 0 278 78 -25 c101 -32 279 -69 405 -84 132
-15 463 -6 580 16 326 60 597 168 860 342 54 36 99 63 101 61 15 -23 29 -75
33 -131 l6 -68 51 3 51 3 3 38 c12 141 -90 313 -221 372 -55 26 -137 47 -137
36 0 -3 29 -32 65 -64 36 -32 65 -65 65 -73 0 -39 -355 -227 -555 -293 -236
-78 -496 -109 -750 -90 -138 10 -295 36 -368 61 l-37 13 224 225 224 225 -60
159 c-46 124 -57 161 -46 167 18 11 798 267 983 323 512 153 1130 301 1704
406 117 22 215 41 217 43 3 2 -57 55 -132 117 l-136 113 68 44 c37 23 70 43
74 43 41 0 538 -156 705 -221 290 -113 437 -226 496 -379 98 -256 -159 -664
-1076 -1710 -479 -547 -627 -744 -722 -965 -124 -289 -62 -529 163 -639 173
-85 495 -89 894 -11 522 103 1306 386 2145 775 232 108 698 344 890 450 197
109 418 241 413 246 -3 2 -58 -19 -124 -47 -1170 -497 -2104 -779 -2944 -888
-208 -28 -450 -51 -521 -51 -145 0 -229 47 -229 129 0 130 117 301 610 891
511 612 738 931 880 1233 95 203 122 315 123 507 1 263 -75 452 -250 625 -266
262 -714 400 -1338 410 -126 2 -275 0 -330 -5z"/>
</g>
</svg>
