<?xml version="1.0" standalone="no"?>
<!DOCTYPE svg PUBLIC "-//W3C//DTD SVG 20010904//EN"
 "http://www.w3.org/TR/2001/REC-SVG-20010904/DTD/svg10.dtd">
<svg version="1.0" xmlns="http://www.w3.org/2000/svg"
 width="225.000000pt" height="225.000000pt" viewBox="0 0 225.000000 225.000000"
 preserveAspectRatio="xMidYMid meet">
<metadata>
Created by potrace 1.16, written by Peter Selinger 2001-2019
</metadata>
<g transform="translate(0.000000,225.000000) scale(0.100000,-0.100000)"
fill="#000000" stroke="none">
<path d="M1002 2079 c-219 -28 -414 -129 -568 -292 -171 -181 -256 -395 -256
-644 0 -204 51 -369 165 -538 191 -281 544 -444 878 -405 511 59 876 488 846
994 -8 134 -36 239 -97 363 -181 366 -566 575 -968 522z m313 -160 c232 -56
432 -221 535 -442 97 -207 97 -468 0 -676 -106 -226 -321 -394 -574 -448 -100
-21 -286 -13 -381 17 -221 69 -391 214 -490 415 -66 133 -80 195 -80 360 0
119 3 151 23 215 135 427 541 662 967 559z"/>
<path d="M620 1435 l0 -215 145 0 145 0 0 -75 0 -75 -145 0 -145 0 0 -220 0
-220 233 2 232 3 0 70 0 70 -162 3 -163 2 0 75 0 75 145 0 145 0 0 215 0 215
-145 0 -145 0 0 75 0 75 165 0 165 0 0 70 0 70 -235 0 -235 0 0 -215z"/>
<path d="M1160 1580 l0 -70 165 0 165 0 0 -75 0 -75 -145 0 -145 0 0 -215 0
-215 145 0 145 0 0 -75 0 -75 -162 -2 -163 -3 0 -70 0 -70 233 -3 232 -2 0
220 0 220 -145 0 -145 0 0 75 0 75 145 0 145 0 0 215 0 215 -235 0 -235 0 0
-70z"/>
</g>
</svg>
