<?xml version="1.0" standalone="no"?>
<!DOCTYPE svg PUBLIC "-//W3C//DTD SVG 20010904//EN"
 "http://www.w3.org/TR/2001/REC-SVG-20010904/DTD/svg10.dtd">
<svg version="1.0" xmlns="http://www.w3.org/2000/svg"
 width="225.000000pt" height="225.000000pt" viewBox="0 0 225.000000 225.000000"
 preserveAspectRatio="xMidYMid meet">
<metadata>
Created by potrace 1.16, written by Peter Selinger 2001-2019
</metadata>
<g transform="translate(0.000000,225.000000) scale(0.100000,-0.100000)"
fill="#000000" stroke="none">
<path d="M0 1125 l0 -1125 1125 0 1125 0 0 1125 0 1125 -1125 0 -1125 0 0
-1125z m2058 184 c32 -12 37 -34 23 -102 -20 -95 -95 -227 -131 -227 -14 0
-13 8 15 87 36 105 41 146 19 168 -16 16 -31 17 -132 12 -123 -7 -136 0 -71
38 68 40 203 52 277 24z m-1782 -75 c131 -61 361 -137 504 -166 99 -20 144
-23 325 -23 190 1 222 3 338 28 135 29 284 73 381 114 65 27 89 24 84 -9 -7
-49 -269 -175 -452 -218 -346 -81 -689 -38 -1021 126 -148 73 -314 194 -267
194 5 0 54 -21 108 -46z"/>
</g>
</svg>
