<?xml version="1.0" standalone="no"?>
<!DOCTYPE svg PUBLIC "-//W3C//DTD SVG 20010904//EN"
 "http://www.w3.org/TR/2001/REC-SVG-20010904/DTD/svg10.dtd">
<svg version="1.0" xmlns="http://www.w3.org/2000/svg"
 width="299.000000pt" height="299.000000pt" viewBox="0 0 299.000000 299.000000"
 preserveAspectRatio="xMidYMid meet">
<metadata>
Created by potrace 1.16, written by Peter Selinger 2001-2019
</metadata>
<g transform="translate(0.000000,299.000000) scale(0.100000,-0.100000)"
fill="#000000" stroke="none">
<path d="M280 1447 l0 -323 48 6 47 5 5 174 5 174 54 -156 c30 -86 57 -160 60
-165 3 -5 30 -7 59 -5 l52 6 0 303 0 304 -50 0 -50 0 -2 -182 -3 -183 -65 182
-65 183 -47 0 -48 0 0 -323z"/>
<path d="M710 1469 c0 -281 1 -300 18 -295 9 3 72 8 140 12 l122 7 0 49 0 49
-90 -7 -91 -7 3 79 3 79 68 3 67 3 0 44 0 45 -70 0 -70 0 0 70 0 70 90 0 90 0
0 50 0 50 -140 0 -140 0 0 -301z"/>
<path d="M1060 1720 l0 -50 55 0 55 0 0 -235 0 -235 50 0 50 0 0 235 0 235 49
0 49 0 4 50 3 50 -157 0 -158 0 0 -50z"/>
<path d="M1450 1490 l0 -280 45 0 45 0 0 115 0 115 70 0 70 0 0 50 0 50 -70 0
-70 0 0 65 0 65 95 0 95 0 0 50 0 50 -140 0 -140 0 0 -280z"/>
<path d="M1800 1485 l0 -285 68 0 c37 0 97 -3 135 -7 l67 -6 0 51 0 51 -87 3
-88 3 0 238 0 237 -47 0 -48 0 0 -285z"/>
<path d="M2160 1476 l0 -294 50 -4 50 -3 0 298 0 297 -50 0 -50 0 0 -294z"/>
<path d="M2360 1748 c5 -13 32 -81 60 -152 l50 -129 -64 -148 c-69 -161 -69
-159 3 -159 37 0 37 0 70 80 19 44 37 80 41 80 4 0 22 -39 40 -87 18 -49 34
-89 35 -91 2 -2 28 -7 58 -11 53 -7 55 -7 47 13 -4 12 -33 86 -64 164 -31 79
-56 148 -56 154 0 5 29 77 64 159 l64 149 -54 0 c-53 0 -54 -1 -69 -37 -9 -21
-26 -60 -38 -87 l-23 -49 -33 86 -34 87 -53 0 c-52 0 -53 -1 -44 -22z"/>
</g>
</svg>
