<?xml version="1.0" standalone="no"?>
<!DOCTYPE svg PUBLIC "-//W3C//DTD SVG 20010904//EN"
 "http://www.w3.org/TR/2001/REC-SVG-20010904/DTD/svg10.dtd">
<svg version="1.0" xmlns="http://www.w3.org/2000/svg"
 width="400.000000pt" height="400.000000pt" viewBox="0 0 400.000000 400.000000"
 preserveAspectRatio="xMidYMid meet">
<metadata>
Created by potrace 1.16, written by Peter Selinger 2001-2019
</metadata>
<g transform="translate(0.000000,400.000000) scale(0.100000,-0.100000)"
fill="#000000" stroke="none">
<path d="M2340 2785 l0 -145 440 0 440 0 0 -435 0 -435 145 0 145 0 0 580 0
580 -585 0 -585 0 0 -145z"/>
<path d="M2240 2373 c-132 -22 -273 -106 -353 -211 -86 -114 -127 -238 -127
-392 0 -112 18 -196 61 -284 100 -205 291 -320 529 -319 287 2 475 139 545
399 9 32 19 110 22 172 l6 112 -292 0 -291 0 0 -115 0 -115 134 0 c74 0 137
-4 140 -9 13 -20 -50 -114 -97 -147 -104 -72 -258 -65 -351 16 -73 65 -106
152 -106 285 0 131 37 234 106 295 53 46 93 60 172 60 99 0 155 -23 226 -91
l59 -58 111 61 c61 34 113 63 114 64 9 6 -60 93 -110 141 -66 62 -158 110
-247 129 -62 13 -194 17 -251 7z"/>
<path d="M500 1775 l0 -565 145 0 145 0 2 336 3 337 170 -223 c94 -122 210
-273 258 -336 l89 -114 149 0 149 0 0 565 0 565 -150 0 -150 0 -2 -325 -3
-326 -255 325 -255 326 -147 0 -148 0 0 -565z"/>
</g>
</svg>
