<?xml version="1.0" standalone="no"?>
<!DOCTYPE svg PUBLIC "-//W3C//DTD SVG 20010904//EN"
 "http://www.w3.org/TR/2001/REC-SVG-20010904/DTD/svg10.dtd">
<svg version="1.0" xmlns="http://www.w3.org/2000/svg"
 width="1024.000000pt" height="1024.000000pt" viewBox="0 0 1024.000000 1024.000000"
 preserveAspectRatio="xMidYMid meet">
<metadata>
Created by potrace 1.16, written by Peter Selinger 2001-2019
</metadata>
<g transform="translate(0.000000,1024.000000) scale(0.100000,-0.100000)"
fill="#000000" stroke="none">
<path d="M4890 10234 c-736 -43 -1393 -215 -2020 -528 -507 -254 -911 -546
-1316 -950 -408 -409 -691 -802 -949 -1318 -253 -507 -414 -1036 -484 -1598
-23 -181 -45 -509 -35 -519 3 -3 65 -6 137 -6 221 1 321 32 673 208 261 131
381 178 507 202 96 18 245 23 344 11 l62 -8 -78 -156 c-43 -87 -88 -182 -100
-212 l-21 -55 -118 -1 c-188 -2 -263 -26 -597 -193 -371 -185 -462 -214 -679
-215 l-128 -1 6 -105 c8 -118 24 -241 32 -249 3 -3 65 -6 137 -5 116 1 143 4
217 29 90 29 221 93 410 200 138 78 259 128 363 149 83 17 227 22 227 7 0 -5
-13 -65 -29 -133 -17 -68 -35 -149 -41 -180 l-11 -58 -40 0 c-62 0 -187 -29
-265 -61 -39 -16 -129 -64 -200 -105 -166 -97 -332 -177 -414 -200 -44 -12
-102 -18 -182 -18 -112 -1 -117 -2 -113 -21 12 -58 69 -287 83 -334 l16 -53
86 5 c116 6 198 35 326 114 240 147 282 170 344 196 78 33 186 57 258 57 l52
0 0 -164 0 -165 -47 -6 c-161 -20 -236 -52 -428 -179 -211 -141 -315 -185
-432 -186 -24 0 -43 -5 -43 -11 0 -11 88 -231 134 -333 l26 -58 37 6 c65 12
154 62 273 156 176 138 272 182 429 195 79 7 80 7 85 -16 18 -92 46 -246 46
-256 0 -9 -18 -13 -59 -13 -126 0 -225 -49 -398 -198 -94 -80 -183 -134 -240
-147 l-31 -6 60 -107 c33 -59 83 -142 110 -184 l50 -78 30 21 c16 12 81 67
143 123 62 55 139 117 171 136 67 41 175 79 222 80 17 0 32 4 32 9 0 5 -16 66
-35 137 -19 70 -35 133 -35 141 0 9 14 13 43 13 71 0 225 30 321 61 152 51
322 145 429 239 45 40 46 43 41 85 -21 147 77 367 276 625 373 484 399 531
387 720 -7 116 -24 197 -83 405 -78 274 -104 429 -104 623 0 383 167 784 449
1075 70 72 159 147 175 147 4 0 -13 -26 -37 -57 -345 -450 -466 -921 -362
-1412 8 -36 43 -163 79 -282 77 -258 95 -346 103 -499 11 -221 -37 -326 -322
-705 -270 -359 -330 -484 -328 -675 1 -154 46 -297 173 -550 l71 -141 -52 -47
c-216 -194 -483 -337 -723 -386 -93 -20 -196 -20 -239 -2 -40 16 -58 42 -98
143 -17 43 -34 81 -38 86 -13 13 -113 -12 -179 -44 -44 -22 -97 -63 -175 -138
-62 -58 -127 -119 -146 -134 l-33 -27 54 -73 c68 -90 189 -232 197 -232 4 0
44 42 90 94 47 51 109 113 140 138 53 41 166 103 190 103 6 0 24 -26 40 -57
17 -32 42 -77 56 -100 l25 -41 -65 -31 c-75 -35 -150 -102 -243 -216 l-64 -80
147 -143 147 -142 40 57 c55 78 116 145 184 201 45 37 58 43 64 31 5 -8 33
-46 64 -84 l55 -69 -64 -64 c-53 -54 -165 -199 -165 -215 0 -12 348 -267 364
-267 4 0 6 9 6 20 0 39 59 193 105 273 26 45 100 156 165 247 216 304 274 406
311 548 21 83 25 228 8 301 -5 24 -8 46 -5 48 9 9 97 -188 112 -253 23 -97 15
-234 -20 -337 -36 -107 -79 -190 -216 -417 -65 -107 -133 -226 -153 -265 -36
-73 -80 -203 -90 -268 -6 -37 -4 -39 41 -68 45 -29 236 -129 245 -129 2 0 7
32 11 72 12 132 76 296 253 646 199 395 236 497 236 647 0 171 -51 293 -277
660 -201 324 -272 496 -283 680 -12 216 62 383 325 724 142 183 216 290 255
366 99 198 90 399 -34 755 -139 399 -160 489 -166 735 -4 153 -2 197 16 296
52 288 197 577 394 786 78 81 173 160 230 190 35 18 31 10 -24 -57 -77 -94
-195 -279 -250 -395 -105 -219 -142 -391 -143 -660 -1 -255 20 -350 163 -729
118 -313 159 -505 148 -691 -10 -170 -77 -320 -231 -523 -50 -66 -132 -174
-182 -240 -108 -141 -153 -219 -189 -325 -35 -106 -42 -211 -21 -316 33 -162
91 -279 297 -599 136 -211 228 -389 261 -507 17 -62 22 -105 21 -190 -1 -178
-50 -314 -238 -661 -207 -380 -284 -584 -285 -752 l0 -53 48 -20 c54 -24 279
-109 287 -109 3 0 5 44 5 98 1 188 53 351 218 677 245 484 283 573 301 718 25
203 -41 383 -269 732 -271 417 -340 577 -340 790 0 201 64 338 299 640 193
248 236 316 286 455 23 63 28 96 32 205 9 221 -23 346 -176 702 -102 239 -139
340 -172 473 -21 84 -24 118 -24 300 0 182 3 216 24 300 50 203 113 347 222
509 97 146 338 385 369 366 19 -12 10 -34 -54 -123 -222 -308 -321 -641 -303
-1017 11 -206 53 -345 229 -750 169 -387 197 -482 205 -690 11 -287 -47 -431
-314 -778 -217 -282 -262 -375 -271 -563 -9 -213 53 -361 318 -764 222 -337
285 -472 310 -663 26 -193 -27 -372 -234 -786 -151 -302 -217 -467 -251 -629
-15 -75 -21 -298 -7 -318 6 -11 308 -84 343 -84 12 0 14 24 11 140 -9 300 43
481 273 960 215 446 248 591 184 820 -39 140 -122 292 -321 585 -247 364 -316
535 -305 749 9 177 58 283 242 519 187 242 251 359 281 513 16 87 24 105 60
133 36 28 79 27 199 -8 219 -63 354 -66 560 -10 150 40 207 46 240 25 34 -22
41 -39 65 -147 29 -136 97 -266 219 -424 254 -329 304 -435 304 -640 0 -121
-29 -228 -98 -365 -52 -103 -68 -130 -258 -415 -223 -336 -297 -511 -298 -701
0 -164 31 -258 212 -641 71 -150 146 -315 165 -365 84 -219 125 -469 107 -642
l-9 -88 44 6 c66 9 306 66 315 75 16 15 20 161 7 253 -25 190 -67 301 -270
718 -76 157 -153 326 -170 375 -95 271 -78 479 62 748 23 43 112 187 199 318
253 384 311 519 313 719 1 198 -53 317 -264 585 -185 236 -259 363 -302 522
-28 106 -30 321 -4 442 26 121 82 279 171 481 158 356 200 474 230 635 24 125
16 405 -14 558 -42 210 -140 429 -271 607 -67 91 -79 119 -54 127 18 6 156
-110 230 -192 101 -111 181 -228 244 -360 102 -210 144 -390 144 -620 0 -263
-40 -409 -223 -828 -121 -276 -167 -468 -158 -657 10 -213 69 -332 323 -657
231 -296 296 -434 297 -633 0 -125 -18 -207 -74 -339 -42 -99 -145 -276 -259
-446 -293 -438 -338 -640 -217 -960 17 -44 99 -215 183 -380 225 -445 274
-584 277 -788 l2 -108 25 6 c14 3 90 32 170 64 168 67 161 56 136 198 -30 174
-93 327 -263 642 -126 233 -182 350 -219 463 -25 74 -28 97 -29 223 0 120 3
151 24 215 33 105 100 241 194 388 201 318 234 373 279 468 62 129 88 232 88
343 0 170 -60 309 -227 531 -60 78 -143 188 -185 243 -93 123 -169 263 -200
372 -18 65 -22 103 -21 200 2 199 33 321 197 765 25 68 61 181 79 250 31 123
32 129 32 345 -1 188 -4 234 -22 317 -59 260 -166 476 -360 726 -35 45 -60 82
-55 82 21 0 154 -104 226 -176 211 -213 351 -476 417 -784 19 -87 23 -135 22
-285 0 -226 -25 -355 -119 -630 -133 -383 -161 -508 -150 -660 11 -166 72
-283 302 -580 283 -366 351 -513 342 -745 -8 -198 -71 -350 -294 -711 -213
-343 -270 -487 -262 -659 8 -141 47 -246 219 -586 196 -386 254 -532 274 -697
4 -32 10 -57 13 -57 4 0 68 34 144 77 157 86 150 75 117 199 -28 108 -95 245
-228 464 -184 302 -230 415 -238 585 -4 74 -1 117 11 165 17 66 72 193 102
233 l16 22 -6 -25 c-20 -79 -26 -171 -16 -240 24 -176 87 -300 296 -591 196
-273 265 -400 295 -538 6 -28 13 -51 16 -51 8 0 159 106 265 188 97 73 97 74
84 100 -38 73 -184 242 -209 242 -15 0 0 27 60 104 51 67 59 73 78 64 33 -18
177 -169 219 -231 l39 -56 116 108 c64 60 131 125 149 143 l32 34 -80 97 c-89
108 -160 168 -238 204 l-53 25 24 41 c14 23 39 68 57 100 36 65 36 65 128 20
74 -37 167 -117 252 -217 41 -47 76 -86 79 -85 7 0 73 80 180 216 l73 92 -39
33 c-21 18 -63 58 -93 90 -124 129 -224 195 -328 217 -29 6 -57 11 -61 11 -5
0 -23 -35 -40 -78 -60 -149 -87 -172 -206 -172 -237 0 -607 169 -841 384 l-72
66 79 157 c164 330 201 530 133 733 -39 115 -94 204 -291 466 -201 269 -253
351 -297 469 -26 72 -30 93 -30 200 -1 152 19 262 95 515 93 312 111 398 125
585 12 169 -32 435 -101 610 -65 166 -183 372 -301 528 -24 31 -41 57 -38 57
17 0 109 -79 184 -157 221 -231 371 -529 427 -848 12 -70 14 -132 10 -275 -6
-211 -20 -290 -96 -560 -60 -209 -79 -299 -87 -413 -12 -157 36 -260 256 -542
327 -422 416 -592 409 -779 -1 -35 1 -68 5 -74 12 -19 168 -132 234 -169 154
-86 348 -147 510 -160 52 -4 82 -10 82 -18 0 -6 -16 -67 -35 -136 -19 -68 -35
-130 -35 -136 0 -8 13 -13 33 -13 94 -1 239 -82 392 -221 50 -44 107 -93 129
-107 l38 -26 20 24 c25 31 198 320 198 331 0 4 -24 14 -53 23 -61 18 -134 67
-255 171 -131 113 -246 165 -364 165 -32 0 -48 4 -48 13 0 6 11 71 24 142 l23
130 79 -3 c142 -4 249 -49 404 -171 163 -128 222 -162 302 -176 42 -8 27 -34
134 224 35 84 64 157 64 162 0 5 -19 9 -42 9 -115 1 -236 52 -431 182 -187
125 -265 158 -439 183 l-38 6 0 164 0 165 44 0 c71 0 188 -26 271 -60 42 -18
144 -75 228 -128 231 -145 324 -182 458 -182 l66 0 26 98 c22 82 66 268 71
296 0 4 -37 7 -84 7 -179 -4 -311 41 -591 201 -101 58 -215 117 -252 132 -72
29 -196 56 -253 56 -37 0 -33 -9 -59 120 -8 41 -26 117 -38 169 l-24 94 106
-6 c61 -3 138 -15 181 -27 83 -23 273 -114 450 -215 134 -76 235 -117 342
-139 79 -16 185 -20 249 -10 35 6 37 8 43 58 3 28 9 107 12 176 l7 125 -88 -3
c-213 -8 -345 30 -668 193 -136 69 -280 138 -320 154 -103 41 -213 61 -336 61
l-107 0 -28 68 c-16 37 -60 130 -98 206 -38 79 -64 144 -59 149 4 4 66 11 137
14 242 10 389 -31 729 -203 121 -61 261 -127 310 -147 133 -53 272 -78 408
-75 l112 3 3 120 c2 66 -4 188 -13 270 -107 1023 -519 1980 -1193 2770 -122
142 -436 453 -577 571 -825 686 -1775 1079 -2835 1174 -123 11 -562 20 -670
14z m376 -612 l132 -307 328 -22 c297 -21 346 -26 333 -36 -4 -3 -453 -400
-477 -422 -10 -9 9 -69 97 -299 60 -158 112 -290 115 -293 3 -4 32 18 63 48
199 188 467 328 773 404 106 26 294 59 310 53 6 -2 -9 -32 -33 -68 -117 -175
-246 -423 -332 -639 -25 -63 -45 -119 -45 -123 0 -5 28 11 63 36 200 147 461
253 708 290 138 20 169 23 169 18 0 -2 -40 -59 -88 -126 -180 -245 -296 -435
-417 -675 -50 -102 -81 -152 -95 -156 -13 -4 -58 11 -133 45 -410 189 -795
295 -1242 341 -175 18 -588 16 -770 -4 -424 -47 -814 -157 -1208 -339 -93 -43
-112 -49 -133 -40 -16 8 -44 53 -93 150 -122 245 -281 501 -435 705 -36 48
-66 91 -66 95 0 9 18 8 170 -14 223 -33 501 -145 680 -272 46 -34 86 -60 87
-58 2 1 -18 56 -43 120 -80 203 -233 498 -346 665 -16 24 -27 46 -24 49 9 8
210 -27 331 -58 276 -71 530 -202 733 -379 46 -40 85 -71 86 -69 14 16 217
571 213 582 -3 7 -114 110 -246 227 -132 117 -239 214 -238 216 2 1 149 12
327 24 192 13 330 27 337 33 6 6 69 145 139 309 70 163 130 297 133 297 3 0
65 -139 137 -308z m-3994 -1910 c214 -171 366 -413 442 -702 16 -58 29 -106
31 -108 1 -1 49 22 106 52 123 64 283 120 412 142 142 25 401 15 527 -19 52
-14 110 -32 129 -40 l33 -14 -98 -74 c-299 -224 -622 -553 -825 -839 l-61 -86
-91 24 c-128 34 -312 35 -447 2 -132 -31 -201 -57 -467 -175 -269 -120 -392
-162 -510 -174 -79 -8 -195 -1 -235 14 -14 6 9 36 112 153 450 510 690 944
776 1399 10 53 18 165 21 283 3 109 10 201 15 208 21 24 57 11 130 -46z m7844
46 c5 -7 9 -85 10 -173 1 -189 13 -285 58 -460 107 -413 371 -853 788 -1308
62 -68 78 -91 69 -100 -8 -8 -60 -12 -164 -11 -145 0 -157 2 -251 33 -55 18
-174 67 -265 108 -352 158 -472 199 -651 223 -100 14 -224 6 -329 -21 -41 -10
-80 -19 -86 -19 -7 0 -48 48 -91 108 -225 306 -533 618 -822 831 l-74 54 31
13 c95 40 238 66 392 71 253 9 457 -37 677 -152 58 -30 107 -54 109 -52 1 2
14 46 27 98 75 295 240 554 464 728 54 41 94 52 108 29z m-3696 -313 c290 -74
521 -246 634 -472 41 -82 53 -127 37 -137 -6 -4 -38 2 -71 13 -129 45 -300 51
-430 16 -84 -22 -178 -73 -230 -124 -62 -61 -75 -118 -75 -336 0 -139 3 -170
23 -232 17 -55 27 -73 41 -73 24 0 53 34 86 100 54 110 77 118 204 74 65 -22
88 -26 161 -22 73 3 93 8 146 38 l62 33 33 -19 c58 -34 73 -74 77 -199 6 -183
-38 -362 -139 -570 -157 -324 -400 -568 -657 -658 -78 -28 -99 -31 -197 -31
-91 1 -123 6 -182 26 -265 93 -500 329 -664 663 -105 216 -161 454 -144 615
17 158 79 195 220 129 63 -30 71 -31 153 -26 49 3 113 14 146 26 86 31 125 27
206 -16 82 -45 83 -44 101 62 13 80 7 266 -11 336 -14 54 -49 92 -134 143
-112 67 -171 81 -346 81 -143 -1 -160 -3 -224 -27 -39 -15 -73 -25 -78 -22
-41 25 67 228 183 343 145 145 334 238 584 287 115 22 355 12 485 -21z m-923
-725 c114 -27 253 -128 253 -186 0 -23 -3 -25 -22 -20 -13 4 -48 14 -78 22
-76 22 -237 30 -297 15 -26 -7 -65 -23 -86 -37 -22 -14 -40 -24 -42 -22 -57
64 -72 148 -32 186 40 37 87 51 177 51 47 0 104 -4 127 -9z m1520 -13 c74 -39
91 -100 48 -174 -26 -44 -38 -52 -51 -32 -3 6 -30 22 -58 35 -67 31 -182 33
-308 3 -101 -24 -113 -19 -103 36 9 51 94 108 208 140 68 19 220 14 264 -8z"/>
<path d="M4870 8284 c-140 -107 -259 -199 -264 -205 -24 -22 12 -27 99 -13
145 24 578 29 760 10 83 -9 160 -19 173 -22 17 -5 22 -2 22 12 -1 13 -87 84
-257 214 -142 107 -262 196 -268 197 -5 2 -125 -85 -265 -193z"/>
<path d="M4930 5848 c-52 -26 -63 -53 -28 -67 199 -77 228 -80 371 -31 126 43
136 70 41 106 -34 13 -57 15 -97 9 -63 -10 -103 -10 -182 -1 -52 6 -66 4 -105
-16z"/>
<path d="M4742 5527 c-10 -12 -8 -20 15 -44 210 -222 236 -238 373 -237 122 0
159 21 293 158 93 95 105 112 93 124 -12 12 -24 12 -78 2 -141 -27 -507 -24
-654 6 -20 4 -34 1 -42 -9z"/>
<path d="M7940 505 l0 -35 90 0 90 0 0 -235 0 -235 35 0 35 0 0 235 0 235 88
0 c49 0 91 2 94 5 2 3 3 18 0 35 l-4 30 -214 0 -214 0 0 -35z"/>
<path d="M8450 270 l0 -270 35 0 35 0 1 223 c0 155 3 217 10 207 6 -8 48 -107
93 -220 81 -199 84 -205 113 -208 l30 -3 91 228 91 228 0 -227 1 -228 40 0 40
0 0 270 0 271 -61 -3 -61 -3 -18 -45 c-96 -250 -144 -370 -149 -370 -3 0 -42
93 -87 208 l-80 207 -62 3 -62 3 0 -271z"/>
</g>
</svg>
