<?xml version="1.0" standalone="no"?>
<!DOCTYPE svg PUBLIC "-//W3C//DTD SVG 20010904//EN"
 "http://www.w3.org/TR/2001/REC-SVG-20010904/DTD/svg10.dtd">
<svg version="1.0" xmlns="http://www.w3.org/2000/svg"
 width="800.000000pt" height="800.000000pt" viewBox="0 0 800.000000 800.000000"
 preserveAspectRatio="xMidYMid meet">
<metadata>
Created by potrace 1.16, written by Peter Selinger 2001-2019
</metadata>
<g transform="translate(0.000000,800.000000) scale(0.100000,-0.100000)"
fill="#000000" stroke="none">
<path d="M3234 5644 c18 -17 21 -34 7 -34 -16 0 -24 -41 -11 -54 10 -8 11 -8
6 1 -8 15 3 45 15 37 5 -3 9 4 9 16 0 12 3 19 8 17 4 -3 16 -1 27 4 16 6 14 8
-15 10 -19 2 10 6 65 9 l100 6 -113 2 c-103 2 -112 1 -98 -14z"/>
<path d="M3450 5651 c0 -6 -24 -12 -52 -14 l-53 -3 58 -2 c32 -1 57 2 57 8 0
6 7 10 16 10 8 0 12 -4 9 -10 -4 -6 30 -9 97 -8 l103 2 -85 6 -85 6 87 2 c61
1 88 -2 91 -10 4 -10 6 -10 6 0 1 15 151 17 151 2 0 -5 12 -10 28 -9 l27 1
-25 8 -25 8 28 1 c15 1 27 -3 27 -9 0 -5 21 -9 48 -8 l47 1 -45 7 c-30 5 5 8
103 8 97 1 146 -1 142 -8 -3 -5 -1 -10 4 -10 6 0 11 5 11 11 0 8 4 8 14 0 8
-7 32 -11 53 -8 l38 4 -45 4 c-25 2 47 6 160 9 130 4 -14 6 -392 8 -372 1
-598 -2 -598 -7z"/>
<path d="M4650 5651 c0 -6 -24 -12 -52 -14 l-53 -3 58 -2 c32 -1 57 2 57 8 0
6 7 10 16 10 8 0 12 -4 9 -10 -4 -6 30 -9 97 -8 l103 2 -85 6 c-71 5 -57 7 83
8 106 1 167 -2 167 -8 0 -5 12 -10 28 -9 l27 1 -25 8 -25 8 28 1 c15 1 27 -3
27 -9 0 -5 12 -9 28 -9 27 2 27 2 2 7 -19 5 -14 8 25 13 28 3 -77 7 -232 7
-173 1 -283 -2 -283 -7z"/>
<path d="M3773 5633 c15 -2 37 -2 50 0 12 2 0 4 -28 4 -27 0 -38 -2 -22 -4z"/>
<path d="M4053 5633 c26 -2 68 -2 95 0 26 2 4 3 -48 3 -52 0 -74 -1 -47 -3z"/>
<path d="M4383 5633 c26 -2 67 -2 90 0 23 2 2 3 -48 3 -49 0 -68 -1 -42 -3z"/>
<path d="M4973 5633 c15 -2 37 -2 50 0 12 2 0 4 -28 4 -27 0 -38 -2 -22 -4z"/>
<path d="M5174 5608 c-3 -4 5 -12 17 -18 17 -9 20 -9 14 0 -4 7 -1 16 6 21 10
6 7 8 -9 6 -13 -1 -26 -5 -28 -9z"/>
<path d="M3270 5598 c0 -11 28 -10 35 1 3 6 -4 9 -15 8 -11 -1 -20 -5 -20 -9z"/>
<path d="M3350 5600 c0 -6 7 -10 15 -10 8 0 15 2 15 4 0 2 -7 6 -15 10 -8 3
-15 1 -15 -4z"/>
<path d="M3250 5527 c0 -25 -3 -53 -7 -63 -4 -12 -3 -15 5 -10 8 5 12 0 12
-14 0 -12 -4 -18 -10 -15 -5 3 -10 0 -10 -8 0 -8 14 -17 31 -21 50 -10 169 -7
169 4 0 6 -33 10 -79 10 -48 0 -83 4 -87 11 -3 6 -8 40 -10 76 -3 76 -14 98
-14 30z"/>
<path d="M3340 5560 c0 -5 5 -10 11 -10 5 0 7 5 4 10 -3 6 -8 10 -11 10 -2 0
-4 -4 -4 -10z"/>
<path d="M5180 5561 c0 -6 5 -13 10 -16 6 -3 10 -46 10 -96 0 -49 3 -89 8 -89
12 0 11 194 -2 202 -15 11 -26 10 -26 -1z"/>
<path d="M3223 5430 c0 -25 2 -35 4 -22 2 12 2 32 0 45 -2 12 -4 2 -4 -23z"/>
<path d="M3303 5463 c9 -2 23 -2 30 0 6 3 -1 5 -18 5 -16 0 -22 -2 -12 -5z"/>
<path d="M3478 5383 c6 -2 18 -2 25 0 6 3 1 5 -13 5 -14 0 -19 -2 -12 -5z"/>
<path d="M3618 5383 c6 -2 18 -2 25 0 6 3 1 5 -13 5 -14 0 -19 -2 -12 -5z"/>
<path d="M3675 5381 c-9 -16 18 -23 46 -12 16 6 18 10 7 10 -9 1 -23 4 -31 7
-8 3 -18 1 -22 -5z"/>
<path d="M3543 5373 c9 -2 23 -2 30 0 6 3 -1 5 -18 5 -16 0 -22 -2 -12 -5z"/>
<path d="M3125 5360 c-3 -6 -16 -8 -28 -5 -12 3 -44 -1 -72 -9 -29 -8 -40 -15
-27 -15 15 -1 21 -5 16 -13 -5 -8 -2 -9 9 -5 9 3 19 1 23 -5 4 -6 21 -8 40 -5
31 5 34 3 34 -19 0 -15 6 -24 15 -24 18 0 20 17 3 23 -20 7 -2 20 28 21 15 1
29 8 31 16 3 10 2 11 -4 4 -4 -6 -26 -9 -48 -7 -22 2 -55 5 -72 6 -18 1 -33 5
-33 9 0 14 48 20 68 9 12 -6 29 -11 39 -10 13 1 11 3 -7 9 l-25 8 25 2 c14 1
34 5 45 10 16 7 13 9 -17 9 -20 1 -40 -4 -43 -9z m-32 -47 c-7 -2 -21 -2 -30
0 -10 3 -4 5 12 5 17 0 24 -2 18 -5z"/>
<path d="M3630 5355 c25 -8 64 -14 87 -13 55 3 44 13 -15 15 -26 0 -63 4 -82
7 -29 5 -27 4 10 -9z"/>
<path d="M5200 5339 c0 -5 5 -7 10 -4 6 3 10 8 10 11 0 2 -4 4 -10 4 -5 0 -10
-5 -10 -11z"/>
<path d="M3720 5330 c0 -5 5 -10 10 -10 6 0 10 5 10 10 0 6 -4 10 -10 10 -5 0
-10 -4 -10 -10z"/>
<path d="M2956 5322 c2 -3 -1 -11 -7 -19 -17 -19 11 -17 36 4 14 11 15 14 4
10 -9 -3 -21 -2 -26 3 -6 4 -8 5 -7 2z"/>
<path d="M2918 5313 c7 -3 16 -2 19 1 4 3 -2 6 -13 5 -11 0 -14 -3 -6 -6z"/>
<path d="M3802 5311 c-9 -5 1 -13 31 -25 25 -9 51 -15 58 -14 8 2 13 -3 11
-11 -2 -9 3 -11 13 -7 9 3 26 -1 38 -9 12 -8 17 -15 12 -15 -6 0 -3 -5 5 -10
8 -5 24 -7 34 -4 15 5 18 3 13 -11 -5 -11 -3 -15 5 -13 26 9 16 25 -27 47 -25
12 -45 29 -45 36 0 20 -17 28 -64 30 -22 2 -33 1 -23 -2 15 -4 25 -23 12 -23
-15 0 -53 24 -49 31 7 11 -7 11 -24 0z m118 -21 c0 -5 -2 -10 -4 -10 -3 0 -8
5 -11 10 -3 6 -1 10 4 10 6 0 11 -4 11 -10z"/>
<path d="M5200 5265 c0 -30 4 -55 8 -55 5 0 10 25 11 55 1 33 -2 55 -8 55 -7
0 -11 -23 -11 -55z"/>
<path d="M2840 5290 c-13 -8 -13 -10 2 -10 9 0 20 5 23 10 8 13 -5 13 -25 0z"/>
<path d="M2883 5262 c11 -10 20 -11 32 -4 15 8 13 10 -14 14 -28 4 -30 3 -18
-10z"/>
<path d="M3179 5278 c-1 -5 -2 -11 -3 -15 -1 -5 -5 -14 -9 -20 -6 -9 -2 -13
12 -13 12 0 21 3 20 8 -1 14 -18 47 -20 40z"/>
<path d="M2749 5253 c-32 -12 -32 -13 -4 -7 17 3 47 5 68 5 20 -1 37 2 37 6 0
13 -64 10 -101 -4z"/>
<path d="M2992 5238 c-18 -18 -14 -32 5 -17 13 11 17 11 20 2 7 -21 29 -15 29
7 0 23 -34 28 -54 8z"/>
<path d="M2713 5222 c11 -10 20 -11 32 -4 15 8 13 10 -14 14 -28 4 -30 3 -18
-10z"/>
<path d="M2793 5233 c9 -2 25 -2 35 0 9 3 1 5 -18 5 -19 0 -27 -2 -17 -5z"/>
<path d="M2630 5205 c-25 -13 -40 -24 -34 -24 7 -1 25 6 40 14 34 17 54 19 54
5 0 -5 -6 -10 -14 -10 -8 0 -17 -4 -21 -9 -3 -5 10 -9 30 -8 19 1 35 5 35 8 0
7 -36 49 -41 48 -2 -1 -24 -12 -49 -24z"/>
<path d="M2940 5226 c0 -2 7 -6 15 -10 8 -3 15 -1 15 4 0 6 -7 10 -15 10 -8 0
-15 -2 -15 -4z"/>
<path d="M3073 5223 c9 -2 23 -2 30 0 6 3 -1 5 -18 5 -16 0 -22 -2 -12 -5z"/>
<path d="M3243 5145 c0 -44 2 -61 4 -37 2 23 2 59 0 80 -2 20 -4 1 -4 -43z"/>
<path d="M3260 5188 c0 -36 12 -31 16 7 1 14 -2 25 -7 25 -5 0 -9 -14 -9 -32z"/>
<path d="M3360 5210 c0 -5 7 -7 15 -4 8 4 15 8 15 10 0 2 -7 4 -15 4 -8 0 -15
-4 -15 -10z"/>
<path d="M2802 5203 c-10 -4 -10 -8 -1 -19 9 -11 6 -16 -15 -25 -15 -7 -22
-15 -16 -19 6 -4 -1 -12 -16 -19 -22 -10 -26 -9 -21 3 3 8 0 17 -7 19 -9 4
-12 -2 -9 -18 4 -16 -1 -24 -16 -28 -12 -3 -21 -9 -21 -15 0 -5 33 6 73 26 86
42 91 46 52 37 l-30 -6 28 16 c16 9 46 17 68 17 21 0 55 6 75 13 l37 12 -36 7
c-20 4 -46 2 -60 -5 -18 -8 -30 -8 -45 0 -11 6 -22 11 -24 10 -2 0 -9 -3 -16
-6z m118 -13 c-8 -5 -22 -10 -30 -10 -13 0 -13 1 0 10 8 5 22 10 30 10 13 0
13 -1 0 -10z"/>
<path d="M3222 5190 c0 -14 2 -19 5 -12 2 6 2 18 0 25 -3 6 -5 1 -5 -13z"/>
<path d="M3460 5195 c24 -14 23 -15 -30 -11 l-55 5 65 -13 c71 -13 86 -18 143
-47 46 -23 70 -25 42 -3 -17 13 -18 16 -5 24 13 8 13 10 -2 10 -9 0 -19 -6
-21 -12 -4 -8 -6 -7 -6 4 -1 15 -59 44 -69 33 -3 -3 -10 -1 -16 4 -6 4 -24 11
-41 15 l-30 6 25 -15z"/>
<path d="M4070 5201 c0 -5 5 -13 10 -16 6 -3 10 -2 10 4 0 5 -4 13 -10 16 -5
3 -10 2 -10 -4z"/>
<path d="M4050 5175 c7 -8 17 -15 22 -15 6 0 5 7 -2 15 -7 8 -17 15 -22 15 -6
0 -5 -7 2 -15z"/>
<path d="M5200 5180 c0 -5 5 -10 10 -10 6 0 10 5 10 10 0 6 -4 10 -10 10 -5 0
-10 -4 -10 -10z"/>
<path d="M2618 5174 c-5 -4 -16 -7 -68 -13 -3 -1 -7 -12 -8 -27 -1 -14 2 -23
8 -19 6 3 10 14 10 23 0 25 65 27 76 2 8 -17 11 -18 29 -3 15 12 16 14 3 10
-17 -6 -43 15 -31 26 3 4 2 7 -4 7 -5 0 -12 -3 -15 -6z"/>
<path d="M3368 5163 c6 -2 18 -2 25 0 6 3 1 5 -13 5 -14 0 -19 -2 -12 -5z"/>
<path d="M3468 5153 c6 -2 18 -2 25 0 6 3 1 5 -13 5 -14 0 -19 -2 -12 -5z"/>
<path d="M5200 5030 c0 -75 4 -130 9 -130 6 0 9 54 8 130 -1 71 -5 130 -9 130
-5 0 -8 -58 -8 -130z"/>
<path d="M2503 5136 c-74 -41 -172 -113 -169 -123 3 -6 -2 -14 -11 -17 -11 -4
-14 -2 -10 9 4 8 -16 -2 -43 -21 -57 -41 -68 -54 -46 -54 9 0 16 -6 16 -12 0
-9 4 -8 11 2 8 11 12 12 16 3 8 -21 22 -15 16 7 -4 14 0 20 11 20 9 0 16 5 16
10 0 14 -7 13 -36 -6 -13 -9 -28 -14 -32 -10 -15 16 107 60 141 51 15 -4 13
-1 -7 11 l-29 16 23 18 c13 10 29 16 36 13 7 -2 17 4 23 15 6 11 31 30 56 42
25 12 45 26 45 31 0 5 -1 9 -2 8 -2 -1 -13 -7 -25 -13z"/>
<path d="M3223 5110 c0 -25 2 -35 4 -22 2 12 2 32 0 45 -2 12 -4 2 -4 -23z"/>
<path d="M3262 5105 c2 -33 -1 -45 -12 -48 -8 -3 2 -4 24 -4 32 0 36 2 22 12
-10 8 -16 26 -16 49 0 20 -5 36 -11 36 -7 0 -10 -17 -7 -45z"/>
<path d="M3640 5140 c0 -4 14 -13 30 -19 17 -5 30 -7 30 -3 0 4 -13 13 -30 19
-16 6 -30 8 -30 3z"/>
<path d="M4121 5141 c-11 -7 -9 -12 10 -22 22 -11 23 -11 10 4 -17 21 -7 22
24 1 27 -18 33 -11 11 12 -17 16 -35 18 -55 5z"/>
<path d="M4225 5130 c3 -5 8 -10 11 -10 2 0 4 5 4 10 0 6 -5 10 -11 10 -5 0
-7 -4 -4 -10z"/>
<path d="M2668 5119 c-19 -11 -25 -39 -8 -39 6 0 10 7 10 15 0 8 9 15 21 15
11 0 17 5 14 10 -8 12 -15 12 -37 -1z"/>
<path d="M2472 5090 c-21 -17 -21 -19 -3 -17 11 0 17 5 15 9 -3 4 4 8 15 8 11
0 23 5 26 10 11 17 -29 10 -53 -10z"/>
<path d="M3698 5103 c-16 -4 -16 -6 -4 -19 17 -17 30 -19 20 -3 -3 6 0 15 7
20 15 9 6 10 -23 2z"/>
<path d="M4210 5100 c0 -5 5 -10 10 -10 6 0 10 5 10 10 0 6 -4 10 -10 10 -5 0
-10 -4 -10 -10z"/>
<path d="M4176 5082 c12 -9 39 -30 60 -47 21 -16 49 -40 63 -53 14 -12 31 -20
38 -18 8 3 21 -3 30 -14 12 -13 19 -16 24 -8 4 6 6 0 6 -15 -2 -21 -5 -23 -17
-14 -8 6 -6 1 4 -11 11 -12 25 -21 32 -18 14 5 54 -26 54 -43 0 -19 -18 -12
-25 9 -3 11 -11 20 -16 20 -10 0 24 -54 39 -64 4 -2 8 10 9 27 2 25 -5 37 -31
59 -20 16 -36 40 -40 60 -5 27 -9 30 -17 18 -8 -11 -12 -12 -16 -2 -2 6 -10
12 -16 12 -7 0 -29 19 -49 42 -21 24 -38 37 -38 31 0 -7 5 -13 10 -13 6 0 10
-7 10 -15 0 -12 -6 -11 -31 7 -16 12 -25 24 -20 26 13 4 4 22 -10 22 -6 0 -7
-4 -4 -10 3 -5 1 -10 -4 -10 -6 0 -16 9 -23 20 -7 11 -20 20 -28 20 -11 0 -10
-5 6 -18z m137 -86 c4 -10 1 -13 -9 -9 -15 6 -19 23 -5 23 5 0 11 -7 14 -14z"/>
<path d="M3610 5080 c8 -5 22 -9 30 -9 10 0 8 3 -5 9 -27 12 -43 12 -25 0z"/>
<path d="M2518 5073 c7 -3 16 -2 19 1 4 3 -2 6 -13 5 -11 0 -14 -3 -6 -6z"/>
<path d="M3405 5070 l-30 -8 33 -1 c17 0 32 4 32 9 0 6 -1 9 -2 9 -2 -1 -16
-5 -33 -9z"/>
<path d="M2566 5062 c-2 -4 -1 -14 3 -21 7 -11 14 -10 35 4 30 20 35 31 7 15
-25 -13 -44 -13 -36 0 3 6 4 10 1 10 -3 0 -7 -4 -10 -8z"/>
<path d="M2645 5060 c-3 -6 1 -7 9 -4 18 7 21 14 7 14 -6 0 -13 -4 -16 -10z"/>
<path d="M3320 5060 c0 -5 5 -10 10 -10 6 0 10 5 10 10 0 6 -4 10 -10 10 -5 0
-10 -4 -10 -10z"/>
<path d="M3485 5060 c-3 -5 -2 -10 4 -10 5 0 13 5 16 10 3 6 2 10 -4 10 -5 0
-13 -4 -16 -10z"/>
<path d="M3566 5059 c-14 -9 -15 -13 -6 -19 8 -5 19 -2 27 5 25 25 13 33 -21
14z"/>
<path d="M3401 5046 c2 -2 24 -6 49 -10 31 -4 40 -3 30 4 -13 9 -89 15 -79 6z"/>
<path d="M3513 5035 c0 -11 4 -12 14 -4 7 6 13 13 13 15 0 2 -6 4 -13 4 -8 0
-14 -7 -14 -15z"/>
<path d="M3770 5041 c0 -5 8 -12 18 -16 14 -7 13 -9 -8 -14 -19 -5 -21 -8 -10
-13 9 -3 24 0 35 8 18 14 18 14 -1 29 -22 17 -34 19 -34 6z"/>
<path d="M3835 5041 c4 -7 8 -22 9 -33 1 -11 19 -32 41 -47 22 -16 39 -33 38
-39 -2 -6 4 -9 13 -5 12 5 13 7 3 14 -8 4 -10 11 -6 15 3 4 13 1 22 -6 9 -7
17 -11 19 -9 2 2 -7 12 -20 22 -13 10 -24 13 -24 8 0 -6 -16 0 -35 12 -19 12
-32 27 -30 34 2 6 -6 19 -17 30 -12 10 -18 12 -13 4z"/>
<path d="M4365 5040 c3 -5 8 -10 11 -10 2 0 4 5 4 10 0 6 -5 10 -11 10 -5 0
-7 -4 -4 -10z"/>
<path d="M2596 5025 c-10 -8 -23 -12 -27 -9 -5 3 -17 0 -26 -6 -16 -10 -16
-11 -1 -6 9 3 18 1 20 -4 2 -6 17 1 33 15 32 26 33 34 1 10z"/>
<path d="M3535 5020 c-3 -5 3 -10 14 -10 11 0 23 -5 27 -11 7 -12 24 6 24 26
0 6 -4 4 -9 -4 -6 -10 -13 -11 -29 -2 -14 7 -23 8 -27 1z"/>
<path d="M3148 5013 c7 -3 16 -2 19 1 4 3 -2 6 -13 5 -11 0 -14 -3 -6 -6z"/>
<path d="M3070 5000 c-20 -6 -21 -8 -5 -8 11 0 29 3 40 8 25 11 -1 11 -35 0z"/>
<path d="M3880 5000 c0 -5 5 -10 11 -10 5 0 7 5 4 10 -3 6 -8 10 -11 10 -2 0
-4 -4 -4 -10z"/>
<path d="M3140 4991 c0 -5 9 -7 19 -4 14 4 20 -1 23 -19 3 -22 4 -22 9 5 6 24
4 27 -22 27 -16 0 -29 -4 -29 -9z"/>
<path d="M2488 4968 c4 -18 6 -18 14 -4 5 9 14 16 20 16 6 0 5 -7 -3 -17 -11
-15 -10 -14 9 1 12 11 22 20 22 20 0 1 -15 2 -34 3 -29 0 -33 -2 -28 -19z"/>
<path d="M3646 4981 c-18 -7 -18 -8 -2 -14 19 -8 36 -1 36 14 0 10 -7 11 -34
0z"/>
<path d="M3700 4984 c0 -8 43 -43 53 -44 18 0 5 28 -18 38 -29 14 -35 14 -35
6z"/>
<path d="M2960 4965 c-99 -37 -96 -36 -77 -46 12 -7 28 -7 45 -1 15 5 36 6 47
2 18 -7 19 -8 3 -15 -10 -4 -18 -11 -18 -15 0 -5 18 1 40 13 l39 22 -46 7
c-27 4 -55 3 -66 -3 -10 -6 -21 -8 -24 -5 -3 3 9 12 28 20 21 9 38 11 44 5 13
-13 25 -11 25 5 0 8 10 17 23 19 20 4 20 4 -3 5 -14 0 -41 -5 -60 -13z"/>
<path d="M3015 4950 c-3 -5 1 -10 9 -10 9 0 16 5 16 10 0 6 -4 10 -9 10 -6 0
-13 -4 -16 -10z"/>
<path d="M3700 4936 c14 -8 27 -12 29 -10 6 6 -1 11 -29 18 l-25 7 25 -15z"/>
<path d="M2305 4930 c-3 -5 -1 -10 4 -10 6 0 11 5 11 10 0 6 -2 10 -4 10 -3 0
-8 -4 -11 -10z"/>
<path d="M2404 4903 c-20 -20 -43 -47 -51 -60 -8 -12 -19 -20 -24 -17 -5 3 -6
-2 -3 -10 3 -8 12 -17 20 -20 9 -3 12 -1 9 5 -9 13 17 52 68 100 23 21 36 39
29 39 -7 0 -28 -17 -48 -37z"/>
<path d="M2186 4921 c-3 -4 6 -8 20 -9 13 -1 24 0 24 2 0 7 -40 14 -44 7z"/>
<path d="M3132 4914 c-11 -12 -8 -14 15 -14 15 0 24 4 18 8 -5 4 -12 10 -15
14 -3 3 -11 0 -18 -8z"/>
<path d="M3180 4921 c0 -5 5 -13 10 -16 6 -3 10 -2 10 4 0 5 -4 13 -10 16 -5
3 -10 2 -10 -4z"/>
<path d="M2810 4894 c-53 -30 -80 -54 -62 -54 7 0 12 5 12 10 0 6 7 10 15 10
26 0 16 -18 -12 -25 -16 -3 -48 -25 -73 -47 -28 -26 -35 -35 -17 -24 30 18 53
13 27 -5 -13 -9 -13 -10 0 -6 8 2 15 10 15 18 0 14 87 79 106 79 5 0 9 4 9 9
0 5 -10 7 -22 5 -22 -5 -22 -4 -4 8 30 21 61 47 56 47 -3 0 -25 -11 -50 -25z"/>
<path d="M3740 4910 c-8 -5 -10 -10 -4 -10 6 0 29 -17 52 -38 34 -31 42 -35
42 -20 0 10 -5 18 -11 18 -16 0 -69 47 -62 54 9 9 0 7 -17 -4z"/>
<path d="M2426 4884 c-15 -14 -26 -27 -24 -29 2 -3 17 9 33 25 35 36 30 39 -9
4z"/>
<path d="M3804 4891 c20 -22 26 -25 26 -13 0 4 -10 13 -22 21 -23 14 -23 14
-4 -8z"/>
<path d="M2142 4884 c-7 -8 -8 -14 -3 -14 10 0 25 19 20 25 -2 1 -10 -3 -17
-11z"/>
<path d="M3085 4890 c4 -6 -10 -8 -38 -4 -37 5 -47 3 -71 -19 -17 -16 -25 -31
-20 -38 5 -9 2 -10 -9 -6 -9 3 -27 2 -39 -3 -18 -7 -19 -9 -5 -9 9 -1 17 -5
17 -11 0 -5 23 4 51 20 28 17 68 36 90 43 35 11 55 37 28 37 -5 0 -7 -4 -4
-10z m-40 -20 c-11 -5 -27 -9 -35 -9 -9 0 -8 4 5 9 11 5 27 9 35 9 9 0 8 -4
-5 -9z"/>
<path d="M3138 4883 c12 -2 32 -2 45 0 12 2 2 4 -23 4 -25 0 -35 -2 -22 -4z"/>
<path d="M4006 4874 c-4 -11 1 -22 12 -30 11 -7 24 -26 31 -41 11 -27 51 -62
51 -45 0 4 -14 24 -31 45 -17 20 -26 37 -20 37 6 0 11 5 11 11 0 6 -9 8 -21 4
-18 -6 -20 -4 -14 14 7 25 -10 29 -19 5z"/>
<path d="M5200 4880 c0 -5 5 -10 11 -10 5 0 7 5 4 10 -3 6 -8 10 -11 10 -2 0
-4 -4 -4 -10z"/>
<path d="M2149 4855 c-27 -28 -41 -32 -33 -10 4 8 1 15 -5 15 -13 0 -14 -20
-2 -39 5 -8 16 -11 30 -6 12 3 18 11 15 17 -5 7 -2 8 5 4 11 -7 40 18 41 37 0
16 -29 6 -51 -18z"/>
<path d="M2280 4845 c0 -8 5 -15 10 -15 6 0 10 7 10 15 0 8 -4 15 -10 15 -5 0
-10 -7 -10 -15z"/>
<path d="M3222 4793 l2 -68 3 60 c2 33 10 63 16 67 8 5 6 8 -5 8 -16 0 -18 -9
-16 -67z"/>
<path d="M2852 4841 c-11 -6 -10 -10 4 -15 9 -3 19 -4 22 -1 3 3 -1 5 -9 5
-11 0 -11 2 1 10 8 5 11 10 5 10 -5 0 -16 -4 -23 -9z"/>
<path d="M3275 4840 c-3 -5 -12 -7 -20 -3 -11 4 -15 -2 -14 -23 0 -16 3 -23 6
-16 2 6 11 12 18 12 7 0 15 9 18 20 5 21 2 26 -8 10z"/>
<path d="M5201 4765 c1 -47 4 -83 8 -80 9 10 7 165 -2 165 -4 0 -7 -38 -6 -85z"/>
<path d="M2705 4829 c-11 -17 1 -21 15 -4 8 9 8 15 2 15 -6 0 -14 -5 -17 -11z"/>
<path d="M3290 4820 c0 -6 7 -10 15 -10 8 0 15 2 15 4 0 2 -7 6 -15 10 -8 3
-15 1 -15 -4z"/>
<path d="M3878 4823 c6 -2 12 -13 12 -23 0 -20 17 -36 27 -26 9 8 -26 56 -40
55 -9 0 -9 -2 1 -6z"/>
<path d="M2047 4802 c-9 -10 -17 -24 -17 -30 0 -18 71 -164 77 -158 9 9 -7 57
-17 51 -6 -3 -10 -1 -10 6 0 7 -9 32 -21 56 -13 26 -18 50 -14 61 7 14 9 13
14 -8 6 -22 8 -23 14 -7 4 10 3 25 -1 33 -7 12 -11 12 -25 -4z"/>
<path d="M4080 4814 c0 -5 9 -17 20 -27 11 -9 20 -13 20 -8 0 4 -9 16 -20 26
-11 10 -20 14 -20 9z"/>
<path d="M3340 4799 c0 -4 7 -14 15 -22 8 -8 11 -18 7 -21 -3 -4 1 -4 11 0 14
5 15 9 6 20 -18 22 2 16 30 -8 22 -20 22 -18 -3 9 -25 28 -66 41 -66 22z"/>
<path d="M3850 4800 c0 -5 5 -10 10 -10 6 0 10 5 10 10 0 6 -4 10 -10 10 -5 0
-10 -4 -10 -10z"/>
<path d="M2297 4766 c-3 -7 -1 -19 4 -27 7 -11 9 -11 9 -1 0 7 5 10 10 7 15
-9 12 4 -4 20 -11 12 -15 12 -19 1z"/>
<path d="M2622 4755 c-24 -28 -27 -43 -11 -65 8 -12 9 -9 5 13 -4 15 -2 27 4
27 5 0 10 -12 10 -26 0 -14 4 -23 9 -19 6 3 6 18 0 37 -6 21 -5 36 2 45 21 24
3 13 -19 -12z"/>
<path d="M3241 4734 c0 -27 4 -71 9 -99 6 -36 7 -23 3 45 -6 101 -14 136 -12
54z"/>
<path d="M3860 4770 c0 -5 7 -10 16 -10 8 0 12 5 9 10 -3 6 -10 10 -16 10 -5
0 -9 -4 -9 -10z"/>
<path d="M3264 4745 c-4 -14 -4 -29 0 -32 3 -4 6 3 6 15 0 16 6 22 21 22 11 0
17 5 14 10 -12 19 -35 10 -41 -15z"/>
<path d="M4445 4740 c-16 -16 -23 -30 -17 -30 7 0 12 6 12 13 0 7 7 4 15 -7 8
-11 18 -17 21 -13 4 4 1 13 -6 22 -10 12 -10 18 0 30 22 26 5 16 -25 -15z"/>
<path d="M2833 4701 c3 -35 11 -68 18 -75 9 -8 10 -5 5 14 -18 62 -18 71 0 92
11 12 13 18 5 13 -8 -4 -17 -2 -23 6 -6 9 -8 -7 -5 -50z"/>
<path d="M3807 4731 c-24 -24 -26 -29 -14 -45 9 -12 20 -17 31 -13 22 8 15 33
-8 31 -9 -1 -16 2 -16 7 0 5 6 9 14 9 8 0 17 7 20 16 10 25 4 24 -27 -5z m23
-41 c0 -5 -7 -10 -16 -10 -8 0 -12 5 -9 10 3 6 10 10 16 10 5 0 9 -4 9 -10z"/>
<path d="M2810 4740 c-6 -32 -5 -80 3 -80 4 0 7 -8 7 -18 0 -10 7 -27 15 -38
14 -17 14 -17 4 11 -6 17 -15 55 -19 85 -4 30 -9 48 -10 40z"/>
<path d="M3443 4719 c0 -16 4 -25 7 -18 6 8 10 8 16 -2 4 -7 3 -14 -3 -16 -12
-4 -5 -52 10 -70 5 -8 6 -13 0 -13 -5 0 -15 6 -22 13 -11 10 -13 9 -9 -3 4
-11 17 -14 46 -12 22 1 44 -2 47 -8 4 -6 1 -9 -6 -8 -19 5 -21 -16 -3 -37 15
-19 15 -19 9 -1 -3 11 0 23 6 27 14 8 -8 42 -31 47 -24 5 -43 29 -35 43 6 9
11 6 17 -11 5 -12 11 -20 14 -17 4 3 -9 31 -28 61 -33 52 -35 53 -35 25z"/>
<path d="M4066 4735 c4 -8 10 -12 15 -9 11 6 2 24 -11 24 -5 0 -7 -7 -4 -15z"/>
<path d="M2320 4719 c0 -5 5 -7 10 -4 6 3 10 8 10 11 0 2 -4 4 -10 4 -5 0 -10
-5 -10 -11z"/>
<path d="M4020 4720 c-8 -5 -11 -12 -7 -16 4 -4 15 0 24 9 18 18 8 23 -17 7z"/>
<path d="M3222 4690 c0 -14 2 -19 5 -12 2 6 2 18 0 25 -3 6 -5 1 -5 -13z"/>
<path d="M4029 4687 c-13 -18 -25 -22 -58 -20 -38 2 -41 0 -41 -23 l0 -25 31
23 c22 17 32 19 38 10 5 -9 15 -4 34 18 15 16 27 32 27 35 0 12 -16 3 -31 -18z"/>
<path d="M2335 4690 c16 -7 16 -9 3 -9 -12 -1 -16 -10 -15 -35 1 -28 3 -31 14
-20 7 7 13 19 13 26 1 7 7 2 15 -12 19 -33 19 -19 1 25 -10 22 -22 35 -33 34
-16 0 -16 -1 2 -9z"/>
<path d="M3744 4679 c-19 -22 -19 -22 3 -11 19 10 20 9 15 -10 -3 -14 -1 -19
6 -14 14 8 16 56 4 56 -5 0 -17 -10 -28 -21z"/>
<path d="M4362 4651 c-23 -27 -38 -52 -33 -55 5 -3 11 3 14 14 3 11 10 20 17
20 7 0 9 -8 5 -21 -7 -21 -7 -21 15 1 12 12 19 27 16 33 -3 9 -5 9 -5 0 -1 -7
-5 -13 -10 -13 -5 0 -7 9 -4 20 3 11 10 17 16 13 5 -3 7 -1 3 5 -3 5 0 12 6
15 7 2 10 7 7 11 -3 3 -25 -16 -47 -43z"/>
<path d="M4430 4685 c-11 -13 -10 -14 4 -9 9 3 16 10 16 15 0 13 -6 11 -20 -6z"/>
<path d="M2192 4660 c0 -19 2 -27 5 -17 2 9 2 25 0 35 -3 9 -5 1 -5 -18z"/>
<path d="M2124 4640 c-1 -17 2 -30 6 -30 10 0 21 41 14 52 -10 16 -19 7 -20
-22z"/>
<path d="M2621 4665 c1 -19 18 -51 18 -35 0 8 -4 22 -9 30 -5 8 -9 11 -9 5z"/>
<path d="M5203 4630 c0 -25 2 -35 4 -22 2 12 2 32 0 45 -2 12 -4 2 -4 -23z"/>
<path d="M3680 4624 c-13 -13 -20 -24 -14 -24 6 0 21 11 34 25 30 32 13 32
-20 -1z"/>
<path d="M2656 4631 c-8 -12 5 -71 15 -71 5 0 6 7 3 15 -4 8 -1 15 5 15 6 0
11 -6 11 -14 0 -7 7 -19 15 -26 21 -18 18 0 -5 30 -11 14 -20 33 -20 43 0 18
-15 23 -24 8z"/>
<path d="M3722 4620 c-7 -11 -10 -20 -6 -20 7 0 34 27 34 34 0 13 -16 5 -28
-14z"/>
<path d="M3360 4610 c0 -11 5 -20 10 -20 6 0 10 9 10 20 0 11 -4 20 -10 20 -5
0 -10 -9 -10 -20z"/>
<path d="M2760 4605 c0 -8 5 -15 10 -15 6 0 10 7 10 15 0 8 -4 15 -10 15 -5 0
-10 -7 -10 -15z"/>
<path d="M2350 4600 c0 -5 5 -10 10 -10 6 0 10 5 10 10 0 6 -4 10 -10 10 -5 0
-10 -4 -10 -10z"/>
<path d="M2380 4600 c0 -5 5 -10 11 -10 5 0 7 5 4 10 -3 6 -8 10 -11 10 -2 0
-4 -4 -4 -10z"/>
<path d="M3745 4600 c-3 -5 -1 -10 4 -10 6 0 11 5 11 10 0 6 -2 10 -4 10 -3 0
-8 -4 -11 -10z"/>
<path d="M4460 4600 c0 -5 5 -10 10 -10 6 0 10 5 10 10 0 6 -4 10 -10 10 -5 0
-10 -4 -10 -10z"/>
<path d="M2110 4598 c0 -4 8 -21 19 -38 15 -26 20 -28 25 -14 4 9 4 26 0 37
-5 16 -8 17 -15 6 -8 -12 -11 -12 -19 1 -5 8 -10 12 -10 8z"/>
<path d="M2210 4580 c0 -5 5 -10 10 -10 6 0 10 5 10 10 0 6 -4 10 -10 10 -5 0
-10 -4 -10 -10z"/>
<path d="M2881 4575 c0 -11 3 -27 9 -35 6 -9 5 -17 -3 -22 -7 -4 -3 -6 10 -5
20 1 20 3 9 27 -7 14 -16 32 -19 40 -4 11 -6 9 -6 -5z"/>
<path d="M3222 4570 c0 -14 2 -19 5 -12 2 6 2 18 0 25 -3 6 -5 1 -5 -13z"/>
<path d="M3845 4579 c-11 -16 -1 -19 13 -3 7 8 8 14 3 14 -5 0 -13 -5 -16 -11z"/>
<path d="M3878 4569 c-19 -20 -24 -34 -9 -25 5 4 11 1 13 -5 3 -8 10 -8 26 2
24 15 37 39 22 39 -6 0 -10 -4 -10 -10 0 -5 -5 -10 -11 -10 -6 0 -9 7 -5 15 7
20 -5 18 -26 -6z"/>
<path d="M4564 4569 c0 -15 3 -15 23 -2 13 9 23 16 23 17 0 0 -10 1 -23 1 -14
0 -23 -6 -23 -16z"/>
<path d="M2405 4565 c5 -11 8 -32 8 -47 0 -20 3 -23 12 -15 10 10 10 18 -2 42
-18 35 -30 49 -18 20z"/>
<path d="M3241 4509 c1 -41 4 -85 8 -98 3 -13 6 18 5 68 0 50 -4 94 -8 98 -3
3 -6 -27 -5 -68z"/>
<path d="M3620 4565 c-14 -16 -10 -18 14 -9 9 3 16 10 16 15 0 14 -16 11 -30
-6z"/>
<path d="M4301 4564 c-9 -11 -16 -12 -20 -5 -4 7 -19 0 -40 -19 -18 -17 -28
-30 -24 -30 5 0 19 9 32 21 25 23 41 19 21 -6 -7 -8 -9 -15 -5 -15 4 0 14 8
21 18 11 13 15 14 22 4 6 -8 9 -3 9 18 0 16 -1 30 -1 30 -1 -1 -7 -8 -15 -16z"/>
<path d="M4650 4562 c21 -10 36 -26 38 -39 2 -12 9 -24 16 -26 18 -7 8 38 -13
56 -9 8 -29 17 -46 21 -29 6 -29 6 5 -12z"/>
<path d="M4712 4568 c5 -15 28 -23 28 -10 0 5 -7 13 -16 16 -10 4 -14 1 -12
-6z"/>
<path d="M5200 4569 c0 -5 5 -7 10 -4 6 3 10 8 10 11 0 2 -4 4 -10 4 -5 0 -10
-5 -10 -11z"/>
<path d="M3654 4549 c-18 -17 -25 -19 -43 -10 -17 10 -20 9 -15 -4 11 -29 92
-5 82 25 -2 6 -12 1 -24 -11z"/>
<path d="M4590 4547 c-8 -7 -22 -21 -30 -32 -8 -11 1 -6 20 10 19 17 37 31 39
33 2 1 0 2 -5 2 -5 0 -16 -6 -24 -13z"/>
<path d="M2176 4513 c3 -21 14 -49 23 -62 9 -13 22 -33 28 -45 7 -11 13 -15
13 -8 0 7 5 10 10 7 6 -3 10 -1 10 4 0 6 -7 11 -16 11 -9 0 -12 5 -8 12 4 6 3
8 -4 4 -6 -3 -18 4 -26 16 -18 25 -21 42 -6 33 6 -3 10 -1 10 4 0 6 5 11 10
11 6 0 8 -12 5 -27 -5 -24 -5 -25 5 -10 14 22 5 51 -14 44 -9 -4 -16 3 -20 19
-10 40 -28 28 -20 -13z"/>
<path d="M4644 4535 c11 -8 25 -15 30 -15 6 0 2 7 -8 15 -11 8 -25 15 -30 15
-6 0 -2 -7 8 -15z"/>
<path d="M5200 4540 c0 -5 5 -10 10 -10 6 0 10 5 10 10 0 6 -4 10 -10 10 -5 0
-10 -4 -10 -10z"/>
<path d="M2697 4510 c10 -17 19 -26 21 -20 2 5 8 8 13 4 14 -8 11 6 -5 22 -11
11 -16 11 -19 1 -3 -7 -6 -5 -6 6 -1 9 -6 17 -12 17 -5 0 -2 -14 8 -30z"/>
<path d="M3273 4480 c0 -36 2 -50 4 -32 2 17 2 47 0 65 -2 17 -4 3 -4 -33z"/>
<path d="M3570 4520 c0 -5 5 -10 10 -10 6 0 10 5 10 10 0 6 -4 10 -10 10 -5 0
-10 -4 -10 -10z"/>
<path d="M3844 4518 c3 -10 -2 -22 -12 -27 -9 -6 -12 -10 -7 -10 6 -1 21 9 35
20 14 11 19 18 11 14 -7 -4 -18 -1 -23 6 -8 11 -9 10 -4 -3z"/>
<path d="M4520 4515 c-7 -9 -18 -14 -25 -12 -6 3 -12 -3 -12 -14 -1 -13 3 -16
15 -12 15 6 15 5 3 -13 -11 -14 -9 -14 9 3 13 12 24 31 25 43 2 24 1 24 -15 5z
m10 -19 c0 -3 -4 -8 -10 -11 -5 -3 -10 -1 -10 4 0 6 5 11 10 11 6 0 10 -2 10
-4z"/>
<path d="M3223 4475 c0 -27 2 -38 4 -22 2 15 2 37 0 50 -2 12 -4 0 -4 -28z"/>
<path d="M4728 4508 c5 -5 16 -8 23 -6 8 3 3 7 -10 11 -17 4 -21 3 -13 -5z"/>
<path d="M5203 4475 c0 -27 2 -38 4 -22 2 15 2 37 0 50 -2 12 -4 0 -4 -28z"/>
<path d="M2760 4488 c0 -19 2 -20 10 -8 13 19 13 30 0 30 -5 0 -10 -10 -10
-22z"/>
<path d="M2792 4485 c0 -16 2 -22 5 -12 2 9 2 23 0 30 -3 6 -5 -1 -5 -18z"/>
<path d="M2440 4493 c0 -4 12 -25 28 -47 19 -27 23 -41 15 -43 -31 -11 -6 -93
27 -93 21 0 27 15 10 25 -6 4 -7 11 -4 17 5 7 1 9 -9 5 -12 -4 -14 -2 -10 10
4 11 2 14 -5 9 -7 -4 -12 -2 -12 4 0 6 6 13 14 16 12 5 9 16 -15 55 -29 47
-39 57 -39 42z"/>
<path d="M2921 4490 c0 -8 6 -24 14 -34 8 -10 12 -23 8 -29 -3 -6 -1 -7 5 -3
6 3 13 2 17 -4 3 -5 13 -10 21 -10 10 0 7 9 -11 28 -14 16 -32 37 -40 48 -11
14 -14 15 -14 4z"/>
<path d="M3771 4491 c-9 -6 -11 -18 -7 -35 7 -27 0 -30 -66 -30 -14 1 -15 -2
-6 -13 8 -10 8 -17 0 -25 -9 -9 -12 -9 -12 0 0 17 -30 15 -37 -3 -8 -23 4 -30
23 -14 10 8 19 13 21 12 10 -8 23 -1 23 13 0 9 5 12 12 8 7 -4 8 -3 4 4 -5 8
1 12 17 12 13 0 34 11 47 25 13 14 19 25 13 25 -6 0 -13 -6 -16 -12 -2 -7 -8
-10 -12 -6 -4 4 -2 14 5 23 15 18 10 27 -9 16z"/>
<path d="M4185 4480 c-10 -11 -16 -20 -13 -20 8 0 68 31 68 36 0 12 -39 1 -55
-16z"/>
<path d="M4730 4485 c0 -6 56 -35 67 -35 4 0 -5 9 -22 20 -29 19 -45 25 -45
15z"/>
<path d="M4785 4480 c3 -5 8 -10 11 -10 2 0 4 5 4 10 0 6 -5 10 -11 10 -5 0
-7 -4 -4 -10z"/>
<path d="M2420 4473 c0 -6 -3 -20 -7 -30 -7 -17 -6 -17 11 0 14 14 16 21 7 30
-8 8 -11 8 -11 0z"/>
<path d="M2730 4462 c0 -12 19 -26 26 -19 2 2 -2 10 -11 17 -9 8 -15 8 -15 2z"/>
<path d="M2886 4461 c-4 -7 -5 -15 -2 -18 9 -9 19 4 14 18 -4 11 -6 11 -12 0z"/>
<path d="M4136 4449 c-15 -9 -16 -13 -5 -20 22 -13 28 -11 26 11 -1 11 -1 20
-2 20 0 0 -8 -5 -19 -11z"/>
<path d="M4300 4440 c0 -5 5 -10 11 -10 5 0 7 5 4 10 -3 6 -8 10 -11 10 -2 0
-4 -4 -4 -10z"/>
<path d="M2270 4426 c0 -4 9 -16 20 -28 11 -12 20 -17 20 -11 0 5 -9 18 -20
28 -11 10 -20 15 -20 11z"/>
<path d="M2767 4414 c3 -7 9 -14 14 -14 14 0 10 17 -5 23 -10 4 -13 1 -9 -9z"/>
<path d="M2860 4419 c0 -5 5 -7 10 -4 6 3 10 8 10 11 0 2 -4 4 -10 4 -5 0 -10
-5 -10 -11z"/>
<path d="M4325 4419 c-11 -17 1 -21 15 -4 8 9 8 15 2 15 -6 0 -14 -5 -17 -11z"/>
<path d="M4404 4419 c-3 -5 3 -6 13 -2 16 6 16 5 4 -10 -7 -9 -16 -15 -20 -12
-4 2 -18 -9 -31 -26 -14 -16 -28 -29 -32 -29 -12 0 5 34 27 52 15 13 16 17 5
18 -30 0 -58 -55 -38 -75 5 -5 128 80 128 88 0 7 -51 3 -56 -4z"/>
<path d="M4860 4420 c-9 -6 -10 -10 -3 -10 6 0 15 5 18 10 8 12 4 12 -15 0z"/>
<path d="M4925 4421 c-19 -8 -19 -8 2 -19 29 -16 38 -15 24 2 -9 11 -9 15 1
19 7 3 9 5 3 6 -5 0 -19 -4 -30 -8z"/>
<path d="M3227 4396 c-5 -15 -6 -31 -3 -34 8 -8 18 25 14 45 -3 13 -6 10 -11
-11z"/>
<path d="M4095 4410 c-3 -5 1 -10 9 -10 9 0 16 5 16 10 0 6 -4 10 -9 10 -6 0
-13 -4 -16 -10z"/>
<path d="M2810 4397 c0 -8 7 -20 15 -27 8 -7 13 -16 10 -20 -4 -6 27 -39 68
-69 12 -9 17 -10 17 -2 0 6 -10 15 -22 20 -15 5 -18 10 -9 15 7 5 18 3 24 -3
15 -15 30 -14 25 2 -3 6 -18 14 -33 17 -16 3 -29 10 -29 15 -1 27 -66 78 -66
52z m60 -62 c19 -23 8 -25 -14 -4 -11 11 -15 19 -9 19 6 0 16 -7 23 -15z"/>
<path d="M2956 4395 c4 -8 11 -15 16 -15 6 0 4 -8 -3 -17 -11 -13 -11 -15 -1
-9 8 5 21 1 33 -10 31 -28 22 2 -11 36 -32 33 -42 38 -34 15z"/>
<path d="M3600 4400 c0 -5 4 -10 9 -10 6 0 13 5 16 10 3 6 -1 10 -9 10 -9 0
-16 -4 -16 -10z"/>
<path d="M3000 4396 c0 -2 7 -9 15 -16 9 -7 15 -8 15 -2 0 5 -7 12 -15 16 -8
3 -15 4 -15 2z"/>
<path d="M3271 4384 c0 -11 3 -14 6 -6 3 7 2 16 -1 19 -3 4 -6 -2 -5 -13z"/>
<path d="M4124 4386 c-15 -12 -17 -17 -6 -27 8 -9 12 -9 12 -2 0 6 7 19 16 27
19 20 4 21 -22 2z"/>
<path d="M2250 4380 c0 -5 7 -13 16 -18 9 -5 16 -13 16 -18 0 -5 9 -20 19 -33
15 -18 19 -20 19 -7 0 9 -4 16 -9 16 -5 0 -11 7 -14 14 -4 11 -1 13 11 10 9
-3 4 6 -13 20 -32 27 -45 32 -45 16z"/>
<path d="M4930 4369 c43 -34 67 -42 30 -10 -19 17 -39 31 -45 31 -5 0 1 -9 15
-21z"/>
<path d="M3045 4360 c17 -32 39 -50 61 -50 13 0 26 -4 29 -10 3 -5 0 -10 -7
-10 -7 0 -1 -8 12 -17 14 -9 30 -24 37 -33 11 -13 12 -12 13 6 0 15 -8 24 -27
29 -18 4 -23 9 -14 14 8 6 0 14 -26 26 -21 10 -49 27 -62 39 -13 11 -21 14
-16 6z"/>
<path d="M3246 4354 c-8 -22 -8 -44 2 -44 4 0 7 14 8 30 1 34 -1 37 -10 14z"/>
<path d="M4050 4360 c-9 -6 -10 -10 -3 -10 6 0 15 5 18 10 8 12 4 12 -15 0z"/>
<path d="M4146 4353 c-6 -14 -5 -15 5 -6 7 7 10 15 7 18 -3 3 -9 -2 -12 -12z"/>
<path d="M5200 4260 c0 -55 3 -100 8 -100 4 0 7 45 7 100 0 55 -3 100 -7 100
-5 0 -8 -45 -8 -100z"/>
<path d="M3221 4324 c-1 -27 3 -32 27 -37 35 -7 42 0 9 8 -18 5 -27 15 -30 33
-4 25 -4 25 -6 -4z"/>
<path d="M3440 4337 c0 -5 -9 -7 -20 -4 -11 3 -22 2 -24 -2 -3 -4 5 -8 16 -8
12 -1 25 -8 31 -15 6 -9 7 -8 3 6 -5 15 -2 17 18 12 14 -3 28 -1 31 4 4 6 16
8 28 4 12 -3 19 -3 15 1 -11 11 -98 13 -98 2z"/>
<path d="M3558 4343 c7 -3 16 -2 19 1 4 3 -2 6 -13 5 -11 0 -14 -3 -6 -6z"/>
<path d="M3270 4330 c8 -5 20 -10 25 -10 6 0 3 5 -5 10 -8 5 -19 10 -25 10 -5
0 -3 -5 5 -10z"/>
<path d="M3566 4325 c-21 -7 -46 -11 -55 -8 -12 3 -12 2 2 -7 18 -12 67 0 92
22 12 11 8 10 -39 -7z"/>
<path d="M4005 4330 c-3 -5 -13 -7 -23 -4 -14 5 -14 4 2 -6 14 -10 21 -9 34 4
10 9 12 16 5 16 -7 0 -14 -4 -18 -10z"/>
<path d="M4243 4325 c-19 -20 -16 -43 5 -41 24 3 72 27 72 38 0 14 -16 9 -35
-12 -10 -11 -22 -17 -26 -14 -14 8 -10 24 6 24 8 0 15 5 15 10 0 15 -23 12
-37 -5z"/>
<path d="M2400 4312 c0 -23 -35 -56 -49 -47 -21 12 -11 -1 21 -31 18 -16 24
-19 14 -6 -11 12 -16 25 -11 30 4 4 10 1 12 -6 4 -10 9 -8 19 5 16 21 19 73 4
73 -5 0 -10 -8 -10 -18z"/>
<path d="M5010 4320 c0 -5 7 -7 15 -4 8 4 15 8 15 10 0 2 -7 4 -15 4 -8 0 -15
-4 -15 -10z"/>
<path d="M2574 4296 c0 -14 6 -22 14 -19 7 3 12 -3 12 -16 0 -12 6 -21 15 -21
13 0 13 4 -2 28 -30 47 -41 54 -39 28z"/>
<path d="M3957 4302 c2 -9 -3 -11 -15 -8 -10 4 -27 -1 -38 -9 -18 -15 -18 -15
0 -8 14 5 17 3 11 -6 -6 -10 -3 -11 13 -2 11 6 27 9 34 6 7 -3 20 0 28 5 13 9
13 11 0 19 -8 5 -17 8 -21 5 -4 -2 -9 -1 -12 3 -2 5 -2 2 0 -5z"/>
<path d="M4959 4290 c-13 -10 -20 -19 -15 -20 5 0 3 -6 -4 -14 -6 -8 -19 -12
-28 -9 -13 4 -14 3 -3 -5 11 -8 10 -12 -7 -21 -19 -10 -21 -9 -15 6 5 14 0 12
-28 -7 -46 -32 -48 -34 -19 -26 14 4 34 7 46 7 25 -1 79 53 70 68 -4 6 -1 11
7 11 8 0 17 7 21 15 7 20 3 19 -25 -5z"/>
<path d="M3375 4290 c-49 -3 -76 -8 -60 -9 48 -5 147 0 169 9 24 10 37 10
-109 0z"/>
<path d="M5000 4285 c0 -9 9 -15 23 -14 17 1 18 2 4 6 -9 2 -15 9 -12 14 4 5
1 9 -4 9 -6 0 -11 -7 -11 -15z"/>
<path d="M4125 4280 c-3 -5 3 -10 14 -10 28 0 37 -20 13 -27 -11 -3 -23 -11
-26 -18 -4 -10 3 -13 26 -10 16 2 33 7 37 11 3 4 -2 4 -11 1 -22 -8 -24 11 -2
20 13 5 12 8 -5 24 -23 21 -37 24 -46 9z"/>
<path d="M2932 4268 c8 -22 36 -34 50 -20 11 11 9 12 -6 6 -15 -6 -17 -4 -11
6 5 9 4 11 -3 6 -7 -4 -12 -2 -12 3 0 6 -5 11 -11 11 -6 0 -9 -5 -7 -12z"/>
<path d="M4066 4249 c-15 -15 -16 -19 -5 -19 16 0 39 19 39 32 0 13 -14 8 -34
-13z"/>
<path d="M4203 4255 c0 -11 4 -12 14 -4 7 6 13 13 13 15 0 2 -6 4 -13 4 -8 0
-14 -7 -14 -15z"/>
<path d="M3856 4253 c-4 -5 -12 -9 -17 -9 -5 -1 -13 -2 -17 -3 -5 0 -18 -10
-30 -21 -12 -11 -25 -20 -29 -19 -4 1 -17 1 -28 0 -17 -1 -18 -3 -5 -11 12 -8
9 -10 -12 -11 -16 -1 -31 -2 -35 -3 -58 -15 -94 -28 -90 -33 3 -3 21 0 39 6
18 6 42 9 53 6 11 -2 23 -4 28 -4 14 -2 7 -21 -8 -21 -8 0 -15 -4 -15 -10 0
-5 7 -10 15 -10 8 0 15 5 15 10 0 6 13 10 29 10 17 0 33 5 36 10 3 6 0 10 -8
10 -29 0 -28 30 1 43 15 6 31 17 35 25 5 7 17 10 27 7 15 -5 50 16 50 31 0 7
-26 4 -34 -3z"/>
<path d="M2995 4239 c-11 -17 -2 -18 25 -4 24 14 24 14 3 15 -12 0 -25 -5 -28
-11z"/>
<path d="M2579 4222 c6 -12 20 -22 31 -22 10 0 25 -7 33 -15 17 -17 27 -10 27
19 0 16 -3 18 -9 7 -6 -9 -11 -10 -15 -2 -4 6 -11 9 -16 6 -5 -3 -21 2 -36 12
-27 17 -27 17 -15 -5z"/>
<path d="M2410 4215 c0 -8 6 -15 13 -15 17 -1 108 -90 102 -100 -5 -9 102
-100 117 -100 3 0 5 8 3 18 -1 11 -10 16 -24 15 -13 -2 -21 3 -21 12 0 8 -8
15 -18 15 -11 0 -27 9 -37 20 -18 19 -9 29 11 11 15 -15 58 -25 50 -12 -4 6
-16 11 -26 11 -10 0 -35 20 -55 45 -21 25 -41 42 -46 39 -5 -3 -9 1 -9 8 0 7
-14 21 -30 30 -25 14 -30 15 -30 3z"/>
<path d="M4942 4214 c-7 -8 -8 -14 -3 -14 10 0 25 19 20 25 -2 1 -10 -3 -17
-11z"/>
<path d="M3010 4216 c0 -2 7 -6 15 -10 8 -3 15 -1 15 4 0 6 -7 10 -15 10 -8 0
-15 -2 -15 -4z"/>
<path d="M2551 4201 c-11 -7 -11 -12 0 -30 17 -26 29 -27 29 -3 0 26 -14 42
-29 33z"/>
<path d="M3117 4193 c4 -11 -2 -13 -23 -9 -16 3 -2 -3 30 -14 47 -16 61 -18
68 -8 14 22 3 33 -39 39 -32 4 -40 2 -36 -8z m66 -15 c-6 -11 -41 -10 -47 1
-3 4 8 8 23 7 16 -1 27 -4 24 -8z"/>
<path d="M3820 4206 c0 -2 7 -7 16 -10 8 -3 12 -2 9 4 -6 10 -25 14 -25 6z"/>
<path d="M4055 4179 c19 -7 19 -8 -2 -8 -38 -2 -54 -11 -40 -26 6 -7 18 -10
26 -7 11 4 10 7 -5 13 -15 6 -13 8 11 9 17 0 40 6 52 13 21 11 19 12 -20 13
-30 1 -36 -1 -22 -7z"/>
<path d="M2686 4166 c3 -8 15 -17 27 -19 15 -3 12 -5 -10 -6 -17 0 -33 5 -36
12 -2 6 -7 10 -10 7 -13 -12 21 -37 58 -43 29 -5 36 -4 25 4 -12 9 -12 12 -2
16 10 4 5 11 -15 24 -34 23 -44 24 -37 5z"/>
<path d="M2435 4160 c3 -5 16 -15 28 -21 22 -12 22 -12 3 10 -19 21 -43 30
-31 11z"/>
<path d="M4757 4164 c-3 -3 -3 -13 0 -21 5 -12 1 -14 -15 -9 -12 4 -33 1 -49
-9 -21 -11 -23 -15 -8 -13 11 2 23 8 27 13 5 6 8 5 8 -2 0 -9 7 -10 27 -2 14
5 32 8 40 5 7 -3 13 -1 13 5 0 5 -7 12 -16 16 -13 5 -13 7 -2 14 10 7 10 9 -3
9 -9 0 -18 -3 -22 -6z"/>
<path d="M4940 4160 c0 -5 5 -10 10 -10 6 0 10 5 10 10 0 6 -4 10 -10 10 -5 0
-10 -4 -10 -10z"/>
<path d="M3646 4139 c-10 -6 -35 -9 -55 -5 -40 6 -81 -1 -81 -16 0 -5 9 -4 21
2 12 7 33 9 47 5 42 -11 111 -15 87 -5 -17 7 -17 9 -2 9 9 1 17 6 17 11 0 13
-10 12 -34 -1z"/>
<path d="M5200 4139 c0 -5 5 -7 10 -4 6 3 10 8 10 11 0 2 -4 4 -10 4 -5 0 -10
-5 -10 -11z"/>
<path d="M3480 4119 c0 -5 5 -7 10 -4 6 3 10 8 10 11 0 2 -4 4 -10 4 -5 0 -10
-5 -10 -11z"/>
<path d="M4880 4120 c0 -5 7 -10 15 -10 8 0 15 5 15 10 0 6 -7 10 -15 10 -8 0
-15 -4 -15 -10z"/>
<path d="M2612 4108 c2 -6 10 -14 18 -16 7 -3 10 0 6 6 -3 6 0 13 6 15 7 3 3
6 -10 6 -14 1 -22 -4 -20 -11z"/>
<path d="M3248 4071 c3 -35 0 -51 -10 -54 -7 -2 -5 -3 5 -1 9 1 21 -5 27 -14
9 -16 9 -16 10 0 0 9 -4 20 -10 23 -5 3 -10 24 -10 45 0 32 4 39 23 43 17 3
16 5 -8 6 -30 1 -30 1 -27 -48z"/>
<path d="M3318 4113 c6 -2 18 -2 25 0 6 3 1 5 -13 5 -14 0 -19 -2 -12 -5z"/>
<path d="M3378 4113 c12 -2 32 -2 45 0 12 2 2 4 -23 4 -25 0 -35 -2 -22 -4z"/>
<path d="M5200 4065 c0 -30 3 -55 8 -55 4 0 7 25 7 55 0 30 -3 55 -7 55 -5 0
-8 -25 -8 -55z"/>
<path d="M3798 4103 c6 -2 18 -2 25 0 6 3 1 5 -13 5 -14 0 -19 -2 -12 -5z"/>
<path d="M3878 4099 c-7 -5 -26 -9 -43 -10 l-30 -1 30 -8 c27 -6 28 -8 10 -14
-51 -19 -67 -27 -63 -32 3 -2 20 2 39 9 19 8 43 17 54 21 16 6 17 9 5 17 -12
8 -9 9 10 6 14 -3 38 0 54 6 l28 12 -40 1 c-22 1 -46 -2 -54 -7z"/>
<path d="M2700 4085 c0 -8 2 -15 4 -15 2 0 6 7 10 15 3 8 1 15 -4 15 -6 0 -10
-7 -10 -15z"/>
<path d="M4593 4079 c-48 -22 -58 -49 -18 -49 17 0 23 4 19 15 -4 9 3 19 20
26 14 7 26 16 26 21 0 4 -1 8 -2 7 -2 0 -22 -9 -45 -20z m-13 -29 c0 -5 -4
-10 -10 -10 -5 0 -10 5 -10 10 0 6 5 10 10 10 6 0 10 -4 10 -10z"/>
<path d="M2820 4065 c-14 -16 -10 -18 14 -9 9 3 16 10 16 15 0 14 -16 11 -30
-6z"/>
<path d="M3670 4059 c0 -5 9 -9 19 -9 28 0 37 -20 9 -21 -22 0 -22 -1 -3 -9
25 -11 41 -12 32 -3 -4 3 -2 12 4 20 6 7 10 13 8 13 -2 0 -19 4 -37 9 -20 6
-32 6 -32 0z"/>
<path d="M2846 4051 c-3 -5 1 -11 9 -15 8 -3 15 -1 15 4 0 5 7 7 16 3 12 -4
13 -7 3 -14 -8 -4 -11 -9 -9 -11 3 -2 14 -8 25 -14 27 -15 26 -40 -1 -36 -12
2 -24 -3 -27 -11 -4 -10 3 -12 24 -9 16 2 29 8 29 13 0 5 11 9 25 9 26 0 34
14 13 24 -7 3 -2 3 11 0 16 -4 21 -3 17 5 -4 6 -19 11 -34 11 -30 0 -70 19
-42 20 8 1 0 7 -19 15 -39 17 -48 18 -55 6z"/>
<path d="M4485 4034 c-22 -8 -59 -22 -82 -31 -44 -15 -59 -30 -22 -20 17 5 20
2 16 -13 -4 -16 -2 -17 25 -6 16 7 37 19 47 28 9 8 25 17 34 21 9 3 17 11 17
17 0 6 5 8 10 5 6 -3 10 -1 10 4 0 14 -6 13 -55 -5z m-16 -30 c-15 -15 -35
-24 -45 -22 -15 3 -10 8 21 25 52 28 55 28 24 -3z"/>
<path d="M2710 4020 c-8 -5 -10 -10 -5 -10 6 0 17 5 25 10 8 5 11 10 5 10 -5
0 -17 -5 -25 -10z"/>
<path d="M3486 4021 c-4 -5 3 -7 14 -4 23 6 26 13 6 13 -8 0 -17 -4 -20 -9z"/>
<path d="M3548 4023 c6 -2 18 -2 25 0 6 3 1 5 -13 5 -14 0 -19 -2 -12 -5z"/>
<path d="M3638 4023 c7 -3 16 -2 19 1 4 3 -2 6 -13 5 -11 0 -14 -3 -6 -6z"/>
<path d="M3748 4023 c7 -3 16 -2 19 1 4 3 -2 6 -13 5 -11 0 -14 -3 -6 -6z"/>
<path d="M3297 4009 c8 -8 16 -8 30 0 16 9 14 10 -11 11 -22 0 -27 -3 -19 -11z"/>
<path d="M3358 4013 c6 -2 18 -2 25 0 6 3 1 5 -13 5 -14 0 -19 -2 -12 -5z"/>
<path d="M3405 3999 c-19 -4 -5 -7 40 -7 39 0 81 3 95 7 31 10 -91 9 -135 0z"/>
<path d="M3658 4003 c6 -2 18 -2 25 0 6 3 1 5 -13 5 -14 0 -19 -2 -12 -5z"/>
<path d="M2668 3988 c9 -9 15 -9 24 0 9 9 7 12 -12 12 -19 0 -21 -3 -12 -12z"/>
<path d="M3251 3983 c-1 -16 5 -23 17 -23 10 0 13 3 6 8 -6 4 -14 14 -17 22
-4 10 -6 8 -6 -7z"/>
<path d="M3570 3993 c-19 -3 -39 -9 -45 -14 -7 -7 3 -8 30 -3 34 6 88 26 60
22 -5 -1 -26 -3 -45 -5z"/>
<path d="M2703 3983 c-17 -6 -16 -20 1 -26 10 -4 14 0 13 14 -1 10 -1 19 -2
18 0 0 -6 -3 -12 -6z"/>
<path d="M3000 3968 c-17 -15 -19 -19 -7 -15 10 4 22 7 26 7 4 0 8 7 8 15 0 8
-1 15 -1 15 -1 -1 -12 -10 -26 -22z"/>
<path d="M3040 3980 c0 -11 105 -33 128 -27 11 3 8 5 -9 6 -14 0 -47 7 -72 15
-26 8 -47 10 -47 6z"/>
<path d="M3220 3981 c0 -5 5 -13 10 -16 6 -3 10 -2 10 4 0 5 -4 13 -10 16 -5
3 -10 2 -10 -4z"/>
<path d="M3357 3984 c-14 -15 7 -24 54 -24 30 0 49 4 49 11 0 8 -17 10 -50 7
-27 -3 -47 -1 -44 4 6 9 0 11 -9 2z"/>
<path d="M5200 3980 c0 -5 5 -10 10 -10 6 0 10 5 10 10 0 6 -4 10 -10 10 -5 0
-10 -4 -10 -10z"/>
<path d="M3303 3973 c9 -2 23 -2 30 0 6 3 -1 5 -18 5 -16 0 -22 -2 -12 -5z"/>
<path d="M4295 3964 c-30 -13 -29 -14 20 -10 71 6 72 6 50 16 -27 11 -35 11
-70 -6z"/>
<path d="M4484 3959 c12 -8 25 -8 40 -1 18 9 16 11 -19 11 -33 0 -37 -1 -21
-10z"/>
<path d="M5200 3830 c0 -71 3 -130 8 -130 4 0 7 59 7 130 0 72 -3 130 -7 130
-5 0 -8 -58 -8 -130z"/>
<path d="M2770 3929 c25 -12 56 -26 70 -32 14 -6 28 -13 33 -15 4 -2 7 1 7 6
0 6 -15 15 -32 21 -24 9 -29 14 -20 20 11 7 10 10 -3 15 -29 11 -38 7 -24 -11
13 -17 13 -17 -13 0 -15 9 -35 17 -45 17 -10 0 2 -9 27 -21z"/>
<path d="M3150 3925 c0 -8 9 -15 20 -15 11 0 20 7 20 15 0 8 -9 15 -20 15 -11
0 -20 -7 -20 -15z"/>
<path d="M2865 3914 c11 -8 26 -12 33 -9 8 3 19 5 25 5 7 0 6 4 -3 10 -8 5
-28 10 -45 10 -29 -1 -29 -1 -10 -16z"/>
<path d="M3013 3916 c3 -6 11 -9 18 -7 8 2 31 4 52 3 20 0 37 4 37 10 0 5 -25
8 -55 7 -35 -2 -54 -6 -52 -13z"/>
<path d="M4205 3920 c27 -12 35 -12 35 0 0 6 -12 10 -27 9 -25 0 -26 -1 -8 -9z"/>
<path d="M4100 3900 c-12 -8 -11 -10 7 -10 12 0 25 5 28 10 8 13 -15 13 -35 0z"/>
<path d="M4180 3900 c0 -5 -10 -10 -22 -10 -27 0 -21 -5 17 -14 22 -5 26 -4
15 4 -13 8 -13 10 3 10 9 0 17 5 17 10 0 6 -7 10 -15 10 -8 0 -15 -4 -15 -10z"/>
<path d="M4013 3882 c-28 -10 -55 -20 -59 -24 -4 -5 -21 -8 -38 -9 -24 0 -27
-2 -12 -8 11 -4 -6 -7 -45 -8 -35 0 -75 -6 -89 -12 -23 -11 -22 -11 10 -6 19
4 51 8 70 11 l35 4 -30 -11 c-16 -6 -43 -14 -60 -19 -25 -6 -21 -8 25 -7 37 0
49 2 35 8 -18 7 -17 8 6 8 14 1 52 15 85 32 32 16 74 31 91 32 18 1 35 8 38
15 5 15 4 14 -62 -6z"/>
<path d="M2955 3875 c50 -18 50 -18 35 0 -7 8 -27 15 -44 15 -31 -1 -31 -1 9
-15z"/>
<path d="M3155 3880 c-3 -5 3 -10 14 -10 12 0 21 5 21 10 0 6 -6 10 -14 10 -8
0 -18 -4 -21 -10z"/>
<path d="M4088 3873 c6 -2 18 -2 25 0 6 3 1 5 -13 5 -14 0 -19 -2 -12 -5z"/>
<path d="M3015 3856 l-30 -12 24 -7 c14 -3 32 -2 40 3 14 8 14 10 1 11 -8 1
-1 5 15 9 27 7 28 8 5 8 -14 1 -38 -5 -55 -12z"/>
<path d="M3110 3853 c-14 -7 -20 -13 -13 -13 6 0 20 -3 30 -6 15 -5 16 -4 3 6
-12 9 -10 11 12 6 14 -3 34 -9 45 -13 15 -6 16 -4 5 9 -17 22 -52 26 -82 11z"/>
<path d="M4130 3830 c0 -5 7 -10 15 -10 8 0 15 5 15 10 0 6 -7 10 -15 10 -8 0
-15 -4 -15 -10z"/>
<path d="M3078 3823 c6 -2 18 -2 25 0 6 3 1 5 -13 5 -14 0 -19 -2 -12 -5z"/>
<path d="M3141 3816 c12 -10 59 -15 59 -6 0 5 -14 10 -32 10 -17 0 -29 -2 -27
-4z"/>
<path d="M3630 3800 c-18 -6 -12 -7 23 -5 26 2 51 6 54 9 9 8 -47 6 -77 -4z"/>
<path d="M3725 3800 c3 -5 11 -10 16 -10 6 0 7 5 4 10 -3 6 -11 10 -16 10 -6
0 -7 -4 -4 -10z"/>
<path d="M4295 3800 c-3 -5 1 -10 10 -10 9 0 13 5 10 10 -3 6 -8 10 -10 10 -2
0 -7 -4 -10 -10z"/>
<path d="M3578 3793 c7 -3 16 -2 19 1 4 3 -2 6 -13 5 -11 0 -14 -3 -6 -6z"/>
<path d="M3220 3779 c0 -5 6 -9 14 -9 12 0 14 -18 12 -102 -3 -92 -3 -95 3
-28 6 64 8 69 11 30 l3 -45 6 45 6 45 85 6 85 5 -82 2 c-77 2 -83 4 -83 23 0
20 4 20 140 18 136 -3 186 4 119 16 -19 3 -86 2 -149 -2 l-115 -8 0 -27 c-1
-15 -4 -30 -8 -34 -4 -4 -7 9 -7 28 0 27 -5 37 -20 41 -11 3 -20 1 -20 -4z"/>
<path d="M3580 3720 c-13 -8 -12 -10 3 -10 9 0 17 5 17 10 0 12 -1 12 -20 0z"/>
<path d="M3221 3654 c0 -11 3 -14 6 -6 3 7 2 16 -1 19 -3 4 -6 -2 -5 -13z"/>
<path d="M5200 3641 c0 -5 -8 -11 -17 -13 -16 -3 -15 -5 2 -9 16 -5 21 -1 22
12 1 11 0 19 -3 19 -2 0 -4 -4 -4 -9z"/>
<path d="M3353 3623 c31 -2 83 -2 115 0 31 2 5 3 -58 3 -63 0 -89 -1 -57 -3z"/>
<path d="M3638 3623 c23 -2 61 -2 85 0 23 2 4 4 -43 4 -47 0 -66 -2 -42 -4z"/>
<path d="M4018 3623 c12 -2 32 -2 45 0 12 2 2 4 -23 4 -25 0 -35 -2 -22 -4z"/>
<path d="M4338 3623 c12 -2 32 -2 45 0 12 2 2 4 -23 4 -25 0 -35 -2 -22 -4z"/>
<path d="M4658 3623 c12 -2 32 -2 45 0 12 2 2 4 -23 4 -25 0 -35 -2 -22 -4z"/>
<path d="M5063 3623 c15 -2 37 -2 50 0 12 2 0 4 -28 4 -27 0 -38 -2 -22 -4z"/>
<path d="M5113 3576 c0 -24 3 -26 41 -26 22 0 48 5 56 10 13 8 13 11 -2 27
-10 9 -21 13 -25 9 -4 -4 -1 -11 7 -16 11 -7 8 -10 -12 -10 -17 0 -27 5 -25
12 1 7 -8 14 -19 16 -17 2 -21 -2 -21 -22z"/>
<path d="M3222 3570 c0 -14 2 -19 5 -12 2 6 2 18 0 25 -3 6 -5 1 -5 -13z"/>
<path d="M3260 3576 c0 -20 23 -26 106 -26 47 0 74 4 74 11 0 7 -24 9 -76 6
-58 -3 -77 -1 -81 9 -7 18 -23 18 -23 0z"/>
<path d="M4796 3582 c-3 -5 -19 -8 -36 -7 -17 1 -32 -1 -35 -5 -8 -13 149 -23
235 -15 82 7 105 19 48 23 -126 11 -207 12 -212 4z m127 -9 c-24 -2 -62 -2
-85 0 -24 2 -5 4 42 4 47 0 66 -2 43 -4z"/>
<path d="M3524 3569 c-7 -12 154 -21 236 -14 44 4 80 10 80 14 0 8 -311 8
-316 0z"/>
<path d="M4087 3574 c-1 -2 -37 -4 -79 -6 -149 -7 -87 -16 111 -16 111 0 201
3 201 7 0 4 -36 7 -80 6 -44 -1 -80 2 -80 5 0 5 -68 9 -73 4z"/>
<path d="M4405 3569 c-5 -8 98 -19 176 -19 33 0 59 4 59 8 0 4 -36 8 -80 7
-44 -1 -80 2 -80 5 0 8 -70 7 -75 -1z"/>
<path d="M1732 2763 l3 -398 113 -3 112 -3 0 306 0 307 128 -4 c122 -3 131 -4
164 -30 57 -43 67 -102 68 -386 l0 -193 108 3 107 3 0 265 c0 221 -3 274 -17
320 -26 84 -68 134 -146 172 l-67 33 -287 3 -288 3 2 -398z"/>
<path d="M2573 3153 c2 -5 39 -116 82 -248 42 -132 99 -309 127 -393 l49 -152
161 2 161 3 52 160 c61 186 189 580 199 613 7 22 7 22 -107 22 l-114 0 -87
-292 c-48 -161 -91 -302 -95 -313 -10 -24 -1 -48 -107 328 l-79 277 -123 0
c-68 0 -121 -3 -119 -7z"/>
<path d="M3510 2760 l0 -400 110 0 110 0 0 400 0 400 -110 0 -110 0 0 -400z"/>
<path d="M3870 2759 l0 -402 258 6 c301 6 341 15 421 96 70 71 86 125 86 296
0 173 -19 230 -99 310 -82 81 -120 89 -418 93 l-248 3 0 -402z m412 221 c90
-25 138 -101 138 -220 0 -147 -55 -205 -209 -223 -48 -6 -96 -7 -105 -4 -14 6
-16 32 -16 232 l0 225 78 0 c42 0 94 -5 114 -10z"/>
<path d="M4750 2760 l0 -401 110 3 c61 2 110 6 110 11 0 4 0 183 0 397 l0 390
-110 0 -110 0 0 -400z"/>
<path d="M5369 3133 c-5 -16 -21 -55 -34 -88 -13 -33 -71 -181 -129 -330 -59
-148 -113 -285 -121 -303 -8 -18 -15 -37 -15 -42 0 -15 207 -13 217 2 4 7 17
40 29 73 l21 60 188 0 187 0 24 -70 c13 -38 24 -71 24 -72 0 -2 54 -3 121 -3
73 0 119 4 117 10 -1 5 -73 185 -158 399 l-155 391 -153 0 -152 0 -11 -27z
m171 -144 c0 -6 11 -38 24 -72 46 -117 96 -257 96 -267 0 -6 -54 -10 -135 -10
-74 0 -135 3 -135 7 0 21 135 361 142 357 4 -3 8 -10 8 -15z"/>
<path d="M6098 2525 c-35 -20 -48 -44 -48 -92 0 -111 163 -140 206 -36 18 42
13 72 -19 109 -28 33 -98 42 -139 19z m107 -28 c34 -28 37 -89 8 -118 -28 -29
-91 -28 -115 0 -33 41 -19 113 25 131 36 14 54 11 82 -13z"/>
<path d="M6110 2435 c0 -41 4 -55 14 -55 8 0 16 12 18 28 l4 27 14 -27 c7 -16
19 -28 27 -28 16 0 17 12 1 28 -9 9 -8 16 5 29 25 28 5 53 -43 53 l-40 0 0
-55z m70 26 c0 -11 -26 -22 -34 -14 -12 12 -5 23 14 23 11 0 20 -4 20 -9z"/>
</g>
</svg>
