<?xml version="1.0" standalone="no"?>
<!DOCTYPE svg PUBLIC "-//W3C//DTD SVG 20010904//EN"
 "http://www.w3.org/TR/2001/REC-SVG-20010904/DTD/svg10.dtd">
<svg version="1.0" xmlns="http://www.w3.org/2000/svg"
 width="300.000000pt" height="300.000000pt" viewBox="0 0 300.000000 300.000000"
 preserveAspectRatio="xMidYMid meet">
<metadata>
Created by potrace 1.16, written by Peter Selinger 2001-2019
</metadata>
<g transform="translate(0.000000,300.000000) scale(0.100000,-0.100000)"
fill="#000000" stroke="none">
<path d="M157 1936 c-26 -7 -61 -26 -77 -41 -28 -27 -58 -91 -47 -101 2 -3 27
-7 55 -11 48 -5 51 -5 66 26 27 51 107 55 126 5 19 -48 13 -63 -27 -69 -129
-21 -146 -27 -187 -65 -41 -39 -41 -39 -41 -113 0 -66 3 -79 24 -101 50 -53
150 -56 219 -7 l37 27 23 -28 c13 -15 29 -28 36 -28 7 0 30 15 52 34 l39 34
-20 34 c-16 28 -20 58 -25 186 l-5 154 -31 28 c-19 16 -53 32 -83 39 -63 13
-73 13 -134 -3z m133 -288 c0 -73 -39 -130 -86 -130 -33 0 -54 25 -54 67 0 53
38 84 103 85 32 0 37 -3 37 -22z"/>
<path d="M1370 1937 c-55 -15 -87 -37 -111 -74 -29 -43 -25 -69 12 -77 47 -9
79 -7 79 4 0 6 11 22 25 35 49 50 120 21 113 -47 -3 -33 -4 -33 -65 -40 -121
-13 -185 -61 -199 -147 -11 -66 18 -128 70 -152 22 -10 50 -19 61 -19 37 0 94
21 123 45 l29 24 27 -29 c14 -17 32 -30 39 -30 23 1 90 67 83 81 -4 8 -13 25
-21 39 -11 18 -15 60 -15 153 0 151 -12 187 -70 217 -50 25 -125 32 -180 17z
m105 -377 c-30 -58 -94 -60 -115 -4 -21 55 11 100 81 112 l44 8 3 -43 c2 -25
-4 -55 -13 -73z"/>
<path d="M702 1926 c-13 -7 -32 -26 -43 -42 l-19 -29 0 38 0 37 -60 0 -60 0 2
-247 3 -248 60 0 60 0 5 179 5 179 26 19 c32 24 61 17 77 -18 8 -16 12 -88 12
-194 l0 -170 60 0 60 0 0 159 c0 87 5 172 10 188 15 41 54 59 85 39 29 -19 36
-67 34 -241 l-1 -140 58 0 59 0 0 218 0 219 -39 35 c-36 33 -41 35 -94 31 -47
-4 -60 -10 -87 -39 l-31 -34 -35 37 c-31 33 -42 38 -80 38 -24 -1 -54 -6 -67
-14z"/>
<path d="M2245 1921 c-50 -23 -68 -43 -96 -106 -28 -63 -30 -178 -6 -251 50
-147 216 -192 321 -88 88 88 99 271 24 385 -48 71 -159 99 -243 60z m124 -88
c44 -36 50 -236 9 -289 -30 -38 -77 -30 -100 16 -21 40 -25 190 -8 237 20 52
61 67 99 36z"/>
<path d="M2790 1925 c-14 -7 -32 -26 -40 -41 l-15 -27 -5 34 c-5 34 -5 34 -62
37 l-58 3 0 -251 0 -250 60 0 60 0 0 143 c1 161 10 214 41 240 26 21 39 21 65
3 17 -13 19 -31 24 -198 l5 -183 60 0 60 0 0 205 c-1 227 -7 255 -65 285 -36
19 -97 19 -130 0z"/>
<path d="M1734 1916 c-3 -8 -4 -29 -2 -48 l3 -33 83 -3 c45 -2 82 -5 82 -8 0
-2 -40 -62 -90 -133 -90 -128 -90 -128 -90 -191 0 -55 2 -61 18 -55 77 31 109
37 180 33 45 -3 91 -12 110 -22 18 -9 37 -14 42 -11 17 11 12 90 -7 107 -23
20 -87 38 -137 38 -36 0 -38 1 -25 19 137 194 169 248 169 284 l0 37 -165 0
c-133 0 -167 -3 -171 -14z"/>
<path d="M1720 1350 c0 -6 7 -10 15 -10 8 0 15 2 15 4 0 2 -7 6 -15 10 -8 3
-15 1 -15 -4z"/>
<path d="M1838 1283 c7 -3 16 -2 19 1 4 3 -2 6 -13 5 -11 0 -14 -3 -6 -6z"/>
</g>
</svg>
