<?xml version="1.0" standalone="no"?>
<!DOCTYPE svg PUBLIC "-//W3C//DTD SVG 20010904//EN"
 "http://www.w3.org/TR/2001/REC-SVG-20010904/DTD/svg10.dtd">
<svg version="1.0" xmlns="http://www.w3.org/2000/svg"
 width="1024.000000pt" height="1024.000000pt" viewBox="0 0 1024.000000 1024.000000"
 preserveAspectRatio="xMidYMid meet">
<metadata>
Created by potrace 1.16, written by Peter Selinger 2001-2019
</metadata>
<g transform="translate(0.000000,1024.000000) scale(0.100000,-0.100000)"
fill="#000000" stroke="none">
<path d="M430 6875 l0 -125 910 0 910 0 0 125 0 125 -910 0 -910 0 0 -125z"/>
<path d="M2520 6875 l0 -125 1291 0 c709 0 1288 4 1285 9 -3 4 -39 32 -81 60
-93 64 -219 124 -322 154 -78 22 -81 22 -1125 25 l-1048 3 0 -126z"/>
<path d="M5630 6875 l0 -125 783 0 784 0 -46 125 -46 125 -737 0 -738 0 0
-125z"/>
<path d="M8292 6882 c-23 -64 -42 -120 -42 -124 0 -5 348 -8 773 -8 l772 0 -3
125 -3 125 -727 0 -727 0 -43 -118z"/>
<path d="M430 6375 l0 -125 910 0 910 0 0 125 0 125 -910 0 -910 0 0 -125z"/>
<path d="M2520 6375 l0 -125 1445 0 c1162 0 1445 2 1445 13 0 28 -43 164 -63
199 l-21 38 -1403 0 -1403 0 0 -125z"/>
<path d="M5630 6375 l0 -125 869 0 869 0 -41 125 -42 125 -827 0 -828 0 0
-125z"/>
<path d="M8145 6488 c-3 -7 -22 -64 -43 -125 l-39 -113 866 0 866 0 -3 125 -3
125 -820 0 c-647 0 -821 -3 -824 -12z"/>
<path d="M960 5875 l0 -125 390 0 390 0 0 125 0 125 -390 0 -390 0 0 -125z"/>
<path d="M3040 5875 l0 -125 393 0 392 0 -3 125 -3 125 -390 0 -389 0 0 -125z"/>
<path d="M4600 5875 l0 -125 395 0 394 0 10 38 c12 44 28 122 35 175 l5 37
-420 0 -419 0 0 -125z"/>
<path d="M6160 5875 l0 -125 695 0 694 0 -35 98 c-20 53 -41 109 -46 125 l-10
27 -649 0 -649 0 0 -125z"/>
<path d="M7932 5882 c-23 -64 -42 -120 -42 -124 0 -5 313 -8 695 -8 l695 0 0
125 0 125 -652 0 -653 0 -43 -118z"/>
<path d="M960 5375 l0 -125 390 0 390 0 0 125 0 125 -390 0 -390 0 0 -125z"/>
<path d="M3040 5375 l0 -125 1011 0 1011 0 74 72 c65 62 134 151 134 171 0 4
-502 7 -1115 7 l-1115 0 0 -125z"/>
<path d="M6160 5375 l0 -125 390 0 389 0 3 73 3 72 24 -73 25 -72 724 2 724 3
27 70 26 70 3 -72 3 -73 389 0 390 0 0 125 0 125 -737 0 -738 0 -35 -101 c-20
-55 -40 -101 -45 -101 -6 0 -26 44 -46 98 l-36 99 -742 3 -741 2 0 -125z"/>
<path d="M960 4875 l0 -125 390 0 390 0 0 125 0 125 -390 0 -390 0 0 -125z"/>
<path d="M3040 4875 l0 -125 1115 0 c645 0 1115 4 1115 9 0 18 -89 128 -149
184 l-62 57 -1010 0 -1009 0 0 -125z"/>
<path d="M6160 4875 l0 -125 390 0 390 0 0 125 0 125 -390 0 -390 0 0 -125z"/>
<path d="M7139 4875 l46 -125 541 0 541 0 42 118 c22 66 41 122 41 125 0 4
-283 7 -629 7 l-629 0 47 -125z"/>
<path d="M8500 4875 l0 -125 390 0 390 0 0 125 0 125 -390 0 -390 0 0 -125z"/>
<path d="M960 4375 l0 -125 390 0 390 0 0 125 0 125 -390 0 -390 0 0 -125z"/>
<path d="M3040 4375 l0 -125 390 0 390 0 0 125 0 125 -390 0 -390 0 0 -125z"/>
<path d="M4600 4375 l0 -125 420 0 420 0 -4 23 c-3 12 -7 42 -11 67 -3 25 -13
71 -22 103 l-16 57 -393 0 -394 0 0 -125z"/>
<path d="M6160 4375 l0 -125 390 0 390 0 0 125 0 125 -390 0 -390 0 0 -125z"/>
<path d="M7278 4483 c5 -10 26 -66 46 -125 l38 -108 362 0 361 0 43 118 c23
64 42 120 42 125 0 4 -203 7 -450 7 -426 0 -450 -1 -442 -17z"/>
<path d="M8500 4375 l0 -125 390 0 390 0 0 125 0 125 -390 0 -390 0 0 -125z"/>
<path d="M445 3875 l0 -125 908 0 907 0 0 125 0 125 -907 0 -908 0 0 -125z"/>
<path d="M2520 3875 l0 -125 1405 0 1405 0 19 39 c20 38 61 173 61 198 0 11
-283 13 -1445 13 l-1445 0 0 -125z"/>
<path d="M5650 3875 l0 -125 645 0 645 0 0 125 0 125 -645 0 -645 0 0 -125z"/>
<path d="M7499 3875 l46 -125 182 0 181 0 16 43 c9 23 29 79 44 125 l29 82
-272 0 -273 0 47 -125z"/>
<path d="M8500 3875 l0 -125 655 0 655 0 0 125 0 125 -655 0 -655 0 0 -125z"/>
<path d="M445 3375 l0 -125 908 0 907 0 0 125 0 125 -907 0 -908 0 0 -125z"/>
<path d="M2520 3375 l0 -126 1053 3 1052 3 90 28 c104 33 246 105 328 166 31
24 57 45 57 47 0 2 -580 4 -1290 4 l-1290 0 0 -125z"/>
<path d="M5650 3375 l0 -125 645 0 645 0 0 125 0 125 -645 0 -645 0 0 -125z"/>
<path d="M7678 3375 c25 -69 49 -122 52 -118 7 7 90 229 90 239 0 2 -42 4 -94
4 l-93 0 45 -125z"/>
<path d="M8500 3375 l0 -125 655 0 655 0 0 125 0 125 -655 0 -655 0 0 -125z"/>
</g>
</svg>
