<?xml version="1.0" standalone="no"?>
<!DOCTYPE svg PUBLIC "-//W3C//DTD SVG 20010904//EN"
 "http://www.w3.org/TR/2001/REC-SVG-20010904/DTD/svg10.dtd">
<svg version="1.0" xmlns="http://www.w3.org/2000/svg"
 width="1024.000000pt" height="1024.000000pt" viewBox="0 0 1024.000000 1024.000000"
 preserveAspectRatio="xMidYMid meet">
<metadata>
Created by potrace 1.16, written by Peter Selinger 2001-2019
</metadata>
<g transform="translate(0.000000,1024.000000) scale(0.100000,-0.100000)"
fill="#000000" stroke="none">
<path d="M1467 6199 c-16 -12 -27 -30 -27 -45 0 -14 -4 -22 -10 -19 -5 3 -10
1 -10 -5 0 -6 7 -13 15 -16 8 -4 15 -16 15 -28 1 -18 2 -19 13 -6 7 8 25 16
42 17 16 0 36 9 45 20 10 12 29 18 58 18 23 1 42 -2 42 -6 0 -14 39 -20 59 -9
18 9 21 6 27 -25 8 -45 4 -49 -32 -30 -43 22 -110 29 -143 15 -34 -14 -56 -59
-47 -96 8 -30 89 -140 108 -147 17 -6 8 -14 -25 -22 -23 -6 -27 -4 -27 14 0
13 -10 26 -25 33 -16 7 -25 19 -25 35 0 13 -7 26 -16 30 -8 3 -20 17 -26 32
-10 25 -10 25 -18 5 -11 -27 -34 -36 -55 -20 -22 16 -16 48 12 61 12 5 23 19
26 32 4 20 2 21 -16 8 -30 -21 -59 -74 -52 -96 4 -10 17 -22 31 -25 17 -4 24
-13 24 -30 0 -23 36 -57 52 -48 4 3 8 -3 8 -13 0 -27 20 -43 52 -43 27 0 34
-11 39 -60 5 -56 -3 -74 -52 -119 -57 -51 -120 -138 -152 -209 l-21 -47 -7 46
c-14 91 -68 153 -186 213 -62 31 -143 98 -143 117 0 13 50 -9 82 -36 35 -30
78 -33 85 -7 2 10 14 22 26 27 13 6 23 21 25 35 2 20 -16 43 -88 115 -49 49
-90 98 -90 107 0 10 -7 18 -16 18 -12 0 -15 6 -10 23 4 12 10 40 13 63 9 67
-41 96 -97 57 -14 -10 -38 -18 -54 -19 -16 -1 -34 -8 -40 -15 -6 -8 -28 -14
-48 -15 -72 -1 -89 -49 -38 -108 l30 -34 -37 -31 c-32 -27 -78 -48 -143 -68
-10 -3 -5 -12 19 -35 30 -28 32 -34 26 -74 -6 -42 -5 -44 20 -44 24 0 25 -2
19 -40 -5 -29 -2 -47 11 -66 22 -34 13 -41 -21 -15 -39 31 -88 27 -174 -15
-40 -19 -94 -39 -119 -45 -25 -5 -53 -14 -61 -20 -16 -10 -12 -15 34 -44 14
-9 13 -14 -14 -42 -33 -36 -37 -51 -15 -59 9 -4 15 -19 15 -38 0 -17 12 -54
27 -81 15 -28 27 -63 27 -80 1 -53 31 -43 66 22 17 32 42 78 55 102 14 24 25
55 25 68 0 12 6 23 13 23 32 1 37 16 16 58 -20 40 -20 44 -5 67 19 29 27 30
66 10 44 -23 65 -71 61 -142 -1 -17 -7 -23 -26 -23 -31 0 -72 -19 -79 -36 -3
-8 3 -20 14 -26 29 -19 24 -49 -16 -102 -70 -92 -95 -184 -65 -240 17 -31 85
-66 129 -66 36 0 39 -8 17 -50 -17 -33 -61 -60 -98 -60 -37 0 -47 -19 -47 -94
-1 -39 -5 -91 -10 -116 -10 -52 0 -69 39 -72 14 -1 -36 -5 -111 -8 l-137 -5
40 -70 41 -70 -36 -73 c-20 -40 -36 -75 -36 -77 0 -3 162 -5 360 -5 l359 0 21
-69 20 -69 90 29 c184 59 443 99 645 99 202 0 451 -38 642 -98 l92 -29 16 56
c9 31 18 62 20 69 3 9 84 12 360 12 l355 0 -35 70 c-19 38 -35 75 -35 81 0 7
18 43 39 80 l40 69 -154 0 -153 0 -8 122 -7 123 -46 43 -46 43 32 -6 c53 -10
108 11 147 57 20 23 36 47 36 54 0 7 16 33 36 59 75 99 83 152 19 142 -37 -6
-38 -5 -51 66 -6 34 -9 38 -32 35 -21 -2 -27 3 -34 27 -5 17 -12 36 -14 44 -3
11 -9 10 -29 -3 -32 -21 -32 -21 -55 17 -28 45 -27 135 0 170 24 30 74 43 112
28 26 -10 26 -11 13 -39 -18 -34 -6 -87 29 -129 13 -15 26 -45 29 -65 3 -20
13 -53 22 -72 14 -29 23 -36 46 -36 30 0 79 19 79 30 0 4 -7 13 -15 20 -19 16
-19 51 0 97 9 21 13 49 10 64 -5 21 -2 30 12 38 15 8 19 21 18 72 l0 63 -35 9
c-33 9 -135 16 -265 20 -98 3 -151 -49 -162 -158 -7 -65 7 -109 63 -200 37
-61 40 -72 28 -86 -17 -19 -27 -70 -16 -86 6 -10 15 -10 40 -1 28 11 35 10 59
-8 71 -53 16 -157 -77 -144 -25 3 -41 25 -51 71 -6 24 -21 61 -35 81 -19 26
-29 59 -35 114 -9 70 -38 176 -59 214 -6 10 -1 17 13 25 17 8 23 21 25 53 2
32 9 46 28 58 14 10 24 26 24 40 0 16 10 28 30 39 23 12 30 22 30 45 0 16 5
32 11 36 7 4 9 20 6 39 -4 25 -1 38 14 51 29 26 25 54 -8 54 -37 1 -66 26 -96
86 -14 28 -33 56 -42 64 -22 18 -45 64 -45 90 0 31 -27 35 -71 11 -27 -15 -57
-23 -92 -23 -28 0 -73 -7 -99 -15 -26 -8 -51 -12 -56 -9 -5 3 -22 2 -38 -3
-27 -7 -29 -11 -30 -57 -2 -75 2 -82 48 -86 53 -4 59 -23 14 -38 -41 -13 -45
-33 -17 -67 22 -27 32 -28 69 -9 15 7 48 17 75 20 55 8 61 -4 27 -59 -33 -54
-64 -67 -173 -77 -120 -10 -154 -25 -163 -73 -10 -54 -38 -44 -119 42 -66 71
-70 77 -70 122 0 54 17 81 51 81 21 0 41 21 42 45 1 6 9 12 19 13 28 6 36 18
35 52 -1 36 -42 97 -42 62 0 -11 -11 -27 -25 -36 -14 -9 -25 -25 -25 -36 0
-11 -9 -24 -20 -30 -11 -6 -20 -20 -20 -30 0 -22 -24 -26 -50 -10 -12 8 -9 16
21 47 65 69 79 93 79 138 0 87 -82 106 -218 49 -7 -3 -10 0 -8 8 2 7 7 26 11
42 5 22 9 26 18 17 14 -14 40 -14 55 1 22 22 93 16 120 -10 17 -18 30 -22 48
-18 13 4 23 3 22 -1 -1 -5 6 -20 16 -35 10 -15 15 -32 11 -38 -3 -5 2 -10 12
-10 10 0 24 9 30 19 10 16 9 18 -5 14 -10 -2 -26 5 -36 16 -14 15 -15 23 -6
40 20 38 81 14 66 -25 -5 -14 -4 -15 9 -4 8 7 15 16 15 21 0 18 -41 49 -65 49
-20 0 -25 5 -25 25 0 15 -10 31 -26 42 -25 16 -28 16 -56 0 -26 -15 -31 -15
-44 -2 -21 21 -51 19 -66 -4 -9 -14 -19 -18 -39 -14 -15 3 -30 0 -33 -6 -11
-17 -46 -13 -53 7 -9 24 -23 32 -60 32 -30 0 -37 -5 -71 -45 -13 -15 -16 -15
-33 1 -11 10 -27 14 -41 11 -17 -5 -27 -1 -36 13 -14 24 -54 26 -72 5 -8 -10
-17 -12 -24 -6 -26 21 -53 21 -79 0z m61 -11 c17 -17 15 -53 -3 -68 -24 -20
-65 3 -65 34 0 37 43 59 68 34z m100 -12 c4 -21 -14 -37 -35 -29 -14 5 -18 35
-6 47 12 12 38 1 41 -18z m232 14 c0 -5 10 -18 21 -29 l21 -20 -22 -123 c-28
-147 -34 -167 -55 -164 -26 4 -31 17 -55 153 -22 124 -23 133 -7 151 9 10 17
24 17 30 0 7 16 12 40 12 22 0 40 -4 40 -10z m207 -6 c3 -8 -1 -22 -9 -30 -13
-14 -17 -14 -32 1 -13 13 -14 20 -5 31 15 19 38 18 46 -2z m107 0 c9 -8 16
-22 16 -29 0 -18 -27 -45 -45 -45 -18 0 -45 27 -45 45 0 18 27 45 45 45 7 0
21 -7 29 -16z m-466 -31 c5 -17 -26 -29 -40 -15 -6 6 -7 15 -3 22 9 14 37 9
43 -7z m272 -3 c0 -11 -6 -20 -14 -20 -18 0 -29 16 -21 30 11 18 35 11 35 -10z
m-955 -78 c-1 -37 -6 -57 -19 -70 -18 -16 -18 -16 -12 13 19 90 19 95 3 95 -8
0 -27 -14 -42 -32 -21 -25 -25 -38 -21 -64 6 -28 4 -32 -13 -27 -11 3 -22 15
-25 28 -5 18 -15 24 -51 29 -73 11 -84 -7 -33 -55 20 -18 27 -29 18 -29 -25 0
-70 49 -70 75 0 30 32 41 86 30 31 -5 36 -4 31 9 -9 22 14 32 28 13 11 -15 15
-13 41 14 20 21 36 29 54 27 23 -3 25 -7 25 -56z m-37 -19 c-13 -48 -26 -63
-38 -43 -13 21 -13 24 11 54 29 37 39 32 27 -11z m712 -5 c47 -24 55 -40 75
-157 7 -40 6 -41 -22 -41 -15 0 -43 -4 -61 -9 -29 -9 -37 -6 -69 22 -44 39
-93 113 -93 142 0 11 7 31 16 43 21 30 94 30 154 0z m390 12 c49 -26 28 -100
-51 -181 -45 -46 -49 -48 -80 -39 -19 6 -46 10 -61 10 -16 0 -28 6 -28 13 0
18 27 158 32 162 2 2 24 13 48 24 48 22 110 27 140 11z m655 -52 c4 -18 20
-48 36 -66 16 -18 40 -55 54 -81 27 -54 67 -91 98 -91 19 0 19 -1 3 -19 -10
-11 -16 -31 -15 -48 2 -15 -2 -38 -9 -50 -7 -12 -12 -31 -12 -43 0 -13 -9 -24
-25 -30 -19 -7 -25 -17 -25 -39 0 -21 -6 -32 -21 -36 -23 -8 -39 -42 -39 -86
0 -42 -35 -40 -53 3 l-13 32 -25 -44 c-34 -62 -56 -64 -64 -6 -4 24 -4 49 0
55 3 6 2 11 -4 11 -5 0 -13 -5 -16 -10 -7 -12 -99 -60 -115 -60 -5 0 -10 7
-10 15 0 11 -12 15 -45 15 -52 0 -65 16 -46 56 14 33 40 41 168 55 108 11 162
29 195 66 21 23 38 94 36 153 -1 29 -2 35 -4 15 -10 -85 -26 -133 -52 -157
-43 -40 -64 -47 -174 -59 -126 -13 -165 -24 -179 -52 -19 -36 -51 -67 -70 -67
-39 0 -63 75 -39 120 13 24 68 40 145 41 62 1 105 13 141 39 32 23 64 81 64
116 l0 31 -75 -17 c-41 -10 -81 -23 -89 -29 -12 -10 -18 -7 -32 14 -19 29 -19
29 21 42 58 19 36 73 -30 73 -31 0 -31 1 -31 50 0 28 5 51 10 51 6 1 27 3 47
4 20 1 45 8 57 14 11 6 47 11 79 11 36 0 73 8 98 19 53 26 52 26 60 -11z
m-1887 16 c12 -4 22 -12 22 -19 0 -24 -30 -24 -57 0 -25 22 -26 24 -8 25 11 0
30 -3 43 -6z m168 -54 c8 0 14 -6 14 -13 0 -7 42 -55 94 -106 95 -95 109 -124
57 -119 -23 3 -26 0 -23 -24 4 -37 -8 -35 -64 7 -25 19 -54 35 -63 35 -10 0
-30 9 -45 21 -21 17 -26 18 -26 5 0 -28 85 -120 138 -151 29 -16 76 -43 104
-60 75 -43 111 -99 116 -180 2 -36 0 -65 -4 -65 -8 0 -120 72 -133 86 -2 2 6
15 19 29 l23 24 -20 38 c-27 51 -61 69 -175 92 -150 30 -220 78 -233 159 -10
60 -16 61 -10 2 2 -30 13 -66 23 -79 31 -42 112 -79 216 -100 110 -22 138 -37
162 -83 15 -30 15 -32 -2 -45 -24 -18 -37 -16 -66 7 -17 12 -28 16 -35 9 -11
-11 -59 4 -85 28 -17 15 -18 15 -18 0 0 -23 -37 -22 -44 1 -4 11 -17 29 -30
41 l-24 22 -6 -35 c-4 -20 -11 -36 -15 -36 -18 0 -59 41 -71 72 -18 44 -18 44
-33 24 -12 -17 -14 -16 -31 9 -14 21 -17 39 -13 77 6 46 5 48 -18 48 -23 0
-25 4 -25 42 0 24 -7 49 -16 59 -15 16 -12 19 31 38 26 12 65 37 86 56 42 38
69 44 89 20 20 -25 31 -6 13 22 l-17 26 39 -5 c22 -3 49 -2 60 3 11 4 26 6 33
3 8 -2 20 -4 28 -4z m474 -66 c11 -12 10 -18 -3 -31 -13 -13 -19 -14 -31 -3
-19 15 -21 36 -3 43 20 9 24 8 37 -9z m690 0 c11 -12 11 -18 -2 -30 -16 -16
-48 -9 -48 10 0 13 20 36 31 36 4 0 12 -7 19 -16z m-642 -77 c2 -12 -3 -17
-17 -17 -12 0 -21 6 -21 13 0 31 32 34 38 4z m587 13 c10 -16 -16 -43 -28 -31
-11 11 -2 41 12 41 5 0 13 -5 16 -10z m-210 -11 c32 -6 76 -18 97 -26 32 -13
38 -19 32 -37 -4 -11 -7 -22 -8 -23 -1 -1 -31 7 -66 19 -90 29 -232 29 -315 0
-33 -11 -60 -20 -61 -19 -1 1 -5 12 -8 24 -8 27 10 36 109 58 75 17 145 18
220 4z m17 -75 c73 -17 108 -40 108 -73 0 -19 -3 -19 -57 7 -104 47 -287 40
-371 -14 -23 -15 -23 -15 -20 17 3 27 9 34 43 46 100 35 192 41 297 17z m23
-74 c146 -49 272 -204 322 -392 l17 -65 -27 -32 c-30 -37 -37 -95 -12 -105 8
-3 15 -12 15 -19 0 -8 6 -20 14 -26 17 -14 5 -87 -29 -177 -97 -258 -345 -399
-569 -324 -144 48 -269 181 -325 348 -18 52 -19 72 -11 217 5 88 7 169 4 181
-13 49 84 221 171 303 119 113 270 145 430 91z m-1274 -131 c16 -11 40 -40 54
-63 30 -51 34 -134 9 -196 -16 -39 -16 -42 4 -63 l20 -22 -31 -54 -31 -54 -11
33 c-6 19 -16 35 -21 36 -8 3 -66 -80 -94 -134 -15 -30 -4 -78 23 -97 12 -8
38 -15 59 -15 31 0 38 -4 38 -20 0 -16 -7 -20 -35 -20 -86 0 -143 57 -130 128
8 42 31 88 80 156 39 54 43 80 18 108 -15 17 -15 20 -3 28 8 6 29 10 46 10 36
0 44 13 44 73 0 94 -106 181 -155 127 -21 -23 -24 -85 -6 -103 19 -19 12 -27
-19 -27 -21 0 -32 -6 -36 -17 -23 -77 -54 -93 -54 -29 0 49 -4 53 -34 31 -23
-17 -52 -19 -61 -5 -4 6 5 24 19 41 32 37 32 44 4 63 -24 17 -24 17 47 36 22
6 65 24 95 40 66 35 120 38 161 9z m105 -31 c16 -30 68 -60 91 -51 7 3 13 14
13 25 0 33 26 4 44 -49 22 -64 20 -121 -6 -188 -20 -52 -29 -62 -89 -101 -76
-48 -112 -94 -130 -165 -12 -46 -26 -58 -66 -59 -21 0 -53 38 -53 64 0 23 68
136 81 136 4 0 9 -12 11 -27 5 -44 25 -37 62 22 39 60 44 89 21 115 -14 15
-14 21 0 53 27 66 13 180 -29 226 -22 24 -20 29 9 29 18 0 30 -9 41 -30z
m2277 16 c35 -12 57 -14 85 -7 26 6 52 5 88 -6 l51 -15 -2 -51 c-2 -54 -16
-66 -53 -46 -17 9 -19 3 -31 -65 -14 -86 -25 -92 -71 -36 -43 52 -58 106 -37
130 35 39 8 62 -70 62 -42 0 -54 -5 -78 -30 -51 -54 -46 -168 11 -224 12 -12
14 -26 10 -51 -4 -19 -10 -35 -14 -35 -8 0 -62 92 -79 135 -16 41 -16 119 1
158 17 40 55 75 92 87 41 12 45 12 97 -6z m-812 -68 c15 -32 52 -48 84 -36 32
12 66 -17 58 -50 -5 -19 -11 -21 -61 -18 l-55 3 -33 63 c-25 46 -29 62 -18 62
8 0 19 -11 25 -24z m-1186 -25 c44 -7 271 -154 280 -181 2 -8 0 -33 -5 -55 -5
-22 -10 -75 -10 -118 l0 -78 -42 -19 c-55 -25 -74 -25 -81 1 -8 32 2 49 31 49
46 0 62 25 62 101 l0 68 -87 26 c-49 15 -99 31 -112 36 -23 9 -40 5 -29 -7 4
-3 48 -18 99 -33 51 -16 95 -33 96 -38 2 -5 -16 -37 -41 -70 -45 -62 -107
-103 -157 -103 -33 -1 -100 -33 -126 -61 -12 -14 -40 -63 -62 -110 -31 -69
-46 -88 -70 -98 -16 -7 -35 -10 -41 -6 -6 4 -34 4 -61 0 -37 -5 -48 -10 -40
-18 8 -8 19 -8 41 0 34 13 49 1 30 -22 -8 -10 -31 -15 -66 -15 -49 0 -55 -2
-64 -26 -21 -53 -12 -84 35 -132 61 -61 59 -112 -4 -112 -42 0 -53 13 -42 43
10 27 10 27 -30 27 -35 0 -40 3 -34 18 3 9 9 63 12 119 l6 102 38 6 c76 13
113 61 124 165 10 101 23 138 61 180 19 21 59 52 88 69 51 28 55 34 81 105 23
64 27 85 21 135 -6 52 -5 60 11 64 10 3 25 2 33 -1 8 -3 33 -8 55 -11z m1545
-50 c0 -55 59 -66 82 -15 6 13 14 24 18 24 11 0 58 -112 74 -178 8 -31 17 -85
21 -120 5 -47 14 -71 33 -94 22 -26 27 -44 30 -102 l4 -71 -31 29 c-17 17 -31
26 -31 22 0 -16 66 -103 111 -146 46 -45 46 -46 54 -130 10 -112 8 -172 -9
-188 -11 -12 -16 -11 -27 1 -12 13 -16 13 -31 0 -14 -13 -21 -13 -32 -4 -8 7
-12 19 -9 27 6 16 -1 18 -27 4 -13 -7 -19 -6 -23 4 -7 16 15 49 57 86 24 22
30 35 29 65 -1 48 -15 60 -88 74 -34 6 -77 23 -100 39 -49 34 -105 124 -105
168 0 27 27 130 37 143 2 3 17 -9 34 -25 25 -22 29 -24 21 -8 -20 38 -80 82
-134 98 -77 23 -85 30 -57 50 15 10 27 12 33 6 23 -23 56 -10 81 30 14 22 30
40 37 40 6 0 9 2 6 5 -11 11 -50 -12 -61 -35 -14 -28 -64 -43 -54 -16 9 22 -4
20 -41 -7 -17 -13 -50 -32 -72 -42 -32 -15 -42 -25 -50 -57 -12 -42 -20 -46
-44 -22 -9 8 -20 13 -25 10 -20 -13 -41 6 -35 31 5 20 3 24 -12 21 -15 -2 -18
2 -16 22 4 35 39 69 99 96 49 22 144 84 129 84 -4 0 -21 -7 -38 -16 -25 -13
-32 -14 -39 -2 -12 18 -11 49 2 87 12 34 32 40 56 16 16 -17 36 -14 93 15 42
21 50 18 50 -19z m646 -61 c-2 -14 -10 -47 -17 -73 -10 -38 -10 -53 -1 -68 10
-15 9 -20 -7 -29 -11 -5 -24 -10 -30 -10 -14 0 -38 38 -46 73 -6 24 -5 27 16
25 23 -3 30 12 54 117 6 29 7 29 21 10 9 -11 13 -31 10 -45z m-2778 -107 l-52
-98 -8 43 c-4 23 -16 56 -28 71 -23 34 -27 91 -6 91 8 0 21 3 29 6 10 4 16 -5
21 -31 4 -20 14 -39 23 -42 19 -7 51 30 60 72 6 26 8 27 11 8 2 -13 -19 -63
-50 -120z m1903 109 c4 -4 9 -21 12 -39 5 -27 3 -33 -21 -41 -15 -6 -35 -13
-44 -17 -13 -5 -19 2 -28 37 -6 23 -13 51 -16 61 -5 15 0 17 43 12 26 -4 51
-9 54 -13z m654 -125 c8 -24 16 -31 32 -30 18 2 24 -5 33 -40 18 -70 17 -69
55 -61 45 8 46 -6 3 -71 -18 -26 -49 -75 -69 -108 -50 -85 -112 -114 -182 -88
-19 8 -23 15 -20 35 5 27 17 33 28 16 3 -5 24 -10 45 -10 73 0 127 75 101 142
-13 34 -43 50 -93 50 -31 -1 -38 3 -38 18 0 23 26 50 48 50 12 0 13 3 4 12
-17 17 -15 36 8 87 22 48 29 47 45 -2z m-1751 -106 c-6 -30 -35 -57 -47 -45
-3 3 -15 1 -26 -6 -16 -8 -21 -20 -21 -51 0 -49 15 -56 77 -35 25 9 47 15 48
13 1 -1 15 -44 31 -95 l30 -92 -33 -32 c-18 -17 -40 -51 -50 -75 -17 -41 -35
-54 -47 -34 -4 5 -36 19 -74 31 -104 34 -114 48 -54 79 22 11 53 36 71 57 37
42 36 67 -5 121 l-24 32 -93 -5 c-83 -5 -90 -4 -73 10 10 8 44 20 75 27 31 6
68 17 82 25 30 15 119 110 119 128 0 6 5 4 10 -6 6 -9 7 -30 4 -47z m1255 -17
c61 -20 81 -30 81 -44 0 -10 -10 -20 -22 -24 -36 -9 -114 -7 -143 4 -36 14
-61 -1 -75 -46 -19 -56 -7 -107 34 -156 57 -66 48 -77 -56 -76 -48 1 -61 5
-82 27 l-26 27 25 69 c14 39 27 91 31 118 7 50 13 54 43 35 25 -15 47 2 56 43
6 25 19 37 52 48 1 1 38 -11 82 -25z m7 -88 l71 2 -13 -46 c-8 -25 -14 -58
-14 -74 0 -39 -22 -45 -67 -17 -37 22 -38 22 -19 1 10 -12 27 -24 37 -27 14
-5 19 -16 19 -39 0 -18 9 -44 20 -58 22 -29 11 -48 -27 -48 -12 0 -46 -5 -75
-11 -44 -9 -61 -20 -100 -62 -47 -50 -47 -50 -56 -26 -5 14 -17 24 -28 24 -14
0 -18 6 -16 21 2 15 -4 23 -18 27 -27 7 -26 33 2 48 13 7 61 15 107 18 96 7
117 22 87 62 -9 13 -28 39 -41 58 -29 40 -33 104 -9 139 12 18 21 21 42 15 15
-5 59 -7 98 -7z m-1383 -60 c8 -8 20 -29 27 -47 13 -31 13 -32 -33 -73 -25
-22 -58 -51 -74 -63 -39 -30 -23 -52 54 -79 126 -42 173 -79 173 -136 0 -14
-5 -18 -16 -14 -9 3 -27 6 -40 6 -19 0 -28 8 -35 29 -8 22 -15 27 -32 24 -13
-3 -38 6 -60 22 -22 14 -68 39 -103 55 -75 34 -80 51 -34 103 16 19 27 37 23
41 -3 3 -27 6 -52 6 -73 0 -78 9 -45 71 l29 54 80 6 c44 3 90 6 102 7 12 1 28
-4 36 -12z m1447 -118 c0 -7 16 -34 34 -59 39 -52 120 -99 173 -99 37 0 73
-29 73 -60 0 -10 -20 -39 -45 -63 -25 -25 -45 -52 -45 -61 0 -14 -15 -16 -107
-16 -98 0 -109 -2 -139 -25 l-33 -25 -73 19 c-40 11 -85 22 -99 25 l-27 6 19
37 c10 20 19 44 19 52 0 8 12 32 26 52 28 41 90 69 151 69 67 0 93 38 58 84
-16 21 -20 58 -8 69 10 11 23 8 23 -5z m-1631 -34 c3 -2 -5 -14 -17 -27 -12
-13 -22 -36 -22 -51 0 -24 8 -31 68 -58 37 -18 87 -45 111 -60 25 -15 53 -28
62 -28 9 0 19 -9 22 -19 3 -11 17 -22 36 -26 27 -6 67 -42 57 -52 -2 -2 -45
-15 -96 -29 l-93 -24 -33 25 c-32 24 -37 25 -198 25 -143 0 -166 2 -166 15 0
9 -21 38 -46 65 -40 43 -45 53 -42 87 l3 38 60 6 c46 5 64 12 80 32 11 13 32
27 47 31 15 3 37 20 49 36 20 27 26 29 68 23 25 -3 48 -7 50 -9z m428 -40 c13
-21 14 -29 5 -43 -30 -41 -53 -104 -50 -139 l3 -37 72 0 c41 0 77 -5 83 -12
15 -14 5 -17 -108 -33 -66 -10 -85 -10 -97 0 -14 12 -14 15 0 30 20 22 19 49
-5 88 -18 30 -19 35 -6 67 17 40 64 105 77 105 5 0 16 -12 26 -26z m854 9 c11
-13 11 -17 1 -21 -7 -2 -19 -10 -27 -19 -24 -23 -37 -6 -20 28 18 33 27 36 46
12z m-765 -118 c31 -30 86 -70 123 -88 l65 -32 -58 -8 c-49 -7 -61 -6 -78 10
-14 13 -42 19 -97 23 l-76 5 3 35 c2 19 9 44 14 55 10 19 38 55 44 55 1 0 28
-25 60 -55z m732 5 c12 -24 22 -57 22 -72 l0 -28 -74 0 c-58 0 -79 -4 -98 -20
-22 -17 -34 -19 -84 -12 l-59 7 65 31 c37 18 92 55 125 87 33 31 65 55 70 54
6 -2 20 -23 33 -47z m83 -69 c30 -28 31 -31 19 -60 -16 -40 -38 -45 -118 -31
-124 21 -120 20 -98 36 14 10 35 12 73 8 62 -8 83 4 83 47 0 16 2 29 4 29 3 0
19 -13 37 -29z m-151 -101 c128 -19 368 -76 435 -104 l33 -14 -33 -108 c-18
-60 -38 -128 -44 -151 -13 -48 -19 -50 -82 -27 -126 44 -371 88 -564 99 -196
12 -474 -22 -699 -85 -60 -17 -111 -29 -113 -26 -5 5 -93 300 -90 302 12 12
270 80 376 99 263 48 520 53 781 15z m-1586 -45 c4 -11 21 -15 59 -15 36 0 59
5 67 15 10 12 43 15 175 15 144 0 165 -2 186 -19 l23 -18 -52 -17 c-29 -10
-52 -19 -52 -20 0 -1 11 -40 25 -87 13 -46 25 -87 25 -91 0 -5 -153 -8 -340
-8 -187 0 -340 3 -340 6 0 4 15 33 32 65 l33 59 -33 59 c-17 32 -32 61 -32 65
0 3 49 6 109 6 88 0 110 -3 115 -15z m2282 -11 c18 -18 30 -21 70 -17 32 3 54
12 63 24 12 17 27 19 147 19 74 0 134 -2 134 -4 0 -2 -15 -31 -33 -63 l-34
-60 34 -66 33 -67 -335 0 c-261 0 -335 3 -335 13 0 6 11 48 25 92 14 44 25 81
25 81 0 1 -11 5 -25 8 -13 3 -36 11 -51 16 -26 10 -26 11 -8 31 17 19 28 21
144 17 112 -3 127 -5 146 -24z"/>
<path d="M1785 6101 c-9 -30 5 -51 35 -51 30 0 44 21 35 51 -4 13 -16 19 -35
19 -19 0 -31 -6 -35 -19z m52 -7 c8 -21 -13 -42 -28 -27 -13 13 -5 43 11 43 6
0 13 -7 17 -16z"/>
<path d="M2542 5948 c6 -16 33 -22 56 -13 14 5 14 7 2 15 -22 14 -62 12 -58
-2z"/>
<path d="M1005 5875 c21 -17 37 -15 43 3 2 8 -8 12 -30 12 -31 -1 -32 -1 -13
-15z"/>
<path d="M1752 5580 c-138 -29 -263 -164 -307 -331 -19 -71 -19 -206 1 -282
34 -132 119 -243 226 -296 78 -39 147 -47 229 -27 296 76 416 486 225 769 -87
130 -235 196 -374 167z m-33 -156 c37 -27 61 -90 61 -167 0 -38 -5 -78 -11
-90 -17 -33 -60 -77 -91 -93 -18 -9 -28 -23 -28 -37 0 -45 -31 -128 -60 -160
-15 -18 -31 -30 -33 -27 -3 3 1 52 9 110 7 58 14 174 14 257 l0 153 38 35 c41
38 66 43 101 19z m313 -135 c-3 -121 14 -280 42 -387 7 -29 10 -52 6 -52 -26
0 -110 139 -110 183 0 9 -4 17 -8 17 -5 0 -16 -40 -26 -90 -11 -49 -22 -90
-26 -90 -4 0 -12 24 -19 53 -6 30 -17 71 -23 93 l-11 39 -14 -50 c-15 -51 -77
-145 -95 -145 -6 0 -7 8 -3 18 55 142 85 290 85 431 1 95 1 96 17 66 10 -16
31 -67 48 -113 l32 -83 22 60 c30 83 71 171 79 171 4 0 6 -55 4 -121z"/>
<path d="M1656 5413 c-3 -4 -6 -75 -6 -160 0 -123 3 -153 14 -153 30 0 40 32
44 141 3 72 0 118 -8 138 -12 29 -33 45 -44 34z"/>
<path d="M1852 4397 c1 -36 2 -42 5 -19 5 37 23 34 23 -4 0 -30 23 -28 28 2 7
35 25 41 20 7 -3 -18 -1 -33 4 -33 4 0 8 20 8 45 0 33 -4 45 -15 45 -8 0 -15
-8 -15 -17 0 -10 -5 -25 -10 -33 -7 -12 -11 -8 -16 17 -3 17 -12 34 -20 37
-11 4 -14 -6 -12 -47z"/>
<path d="M1650 4396 c0 -25 5 -46 10 -46 6 0 10 6 10 14 0 8 12 17 26 20 19 5
25 12 22 29 -2 17 -11 23 -35 25 -33 3 -33 3 -33 -42z m50 20 c0 -8 -5 -18
-11 -22 -14 -8 -33 11 -25 25 10 16 36 13 36 -3z"/>
<path d="M2012 4428 c-7 -7 -12 -27 -12 -45 0 -26 5 -34 25 -39 35 -9 51 0 59
31 12 46 -40 85 -72 53z m54 -52 c-7 -28 -25 -33 -44 -14 -16 16 -15 34 4 53
15 15 19 15 32 2 9 -10 12 -24 8 -41z"/>
<path d="M1570 4398 c0 -18 5 -40 10 -48 8 -11 10 -2 8 33 -2 52 -18 66 -18
15z"/>
<path d="M1451 4398 c1 -13 4 -34 8 -48 5 -22 10 -24 41 -19 l35 6 -32 2 c-31
1 -33 4 -33 35 0 19 -4 38 -10 41 -6 3 -9 -4 -9 -17z"/>
<path d="M2146 4398 c-3 -13 -5 -34 -5 -48 1 -17 3 -19 6 -7 6 24 43 22 43 -3
0 -37 17 -20 23 22 6 46 -2 58 -39 58 -14 0 -24 -8 -28 -22z m38 6 c9 -3 16
-13 16 -21 0 -20 -34 -12 -38 10 -4 19 -1 20 22 11z"/>
<path d="M1377 4368 c7 -41 22 -71 23 -47 0 31 -12 79 -21 79 -5 0 -6 -15 -2
-32z"/>
<path d="M2280 4387 c0 -8 -3 -30 -6 -48 -5 -32 -4 -33 10 -15 17 21 51 14 42
-9 -3 -8 -1 -17 3 -19 10 -7 23 76 13 86 -4 4 -19 10 -34 13 -21 5 -28 3 -28
-8z m58 -24 c2 -8 -5 -13 -17 -13 -21 0 -35 13 -24 24 10 10 36 3 41 -11z"/>
<path d="M1300 4373 c0 -13 -2 -23 -4 -23 -2 0 -11 -3 -20 -6 -10 -4 -16 -1
-16 9 0 9 -5 19 -11 22 -7 5 -8 -5 -3 -32 9 -52 23 -77 24 -42 0 33 30 48 37
19 9 -34 25 -23 18 13 -10 46 -24 69 -25 40z"/>
<path d="M2416 4362 c-2 -4 -7 -25 -11 -47 -5 -28 -4 -37 3 -30 11 11 28 85
19 85 -3 0 -8 -3 -11 -8z"/>
<path d="M1123 4344 c-8 -4 -7 -18 5 -52 13 -36 17 -42 20 -25 2 12 12 25 23
28 30 10 21 49 -11 52 -14 1 -30 0 -37 -3z m47 -18 c0 -21 -21 -31 -30 -15 -5
7 -6 17 -4 21 9 14 34 9 34 -6z"/>
<path d="M2494 4335 c-18 -15 -18 -16 9 -38 15 -12 27 -26 27 -30 0 -12 -35
-8 -48 5 -9 9 -12 9 -12 0 0 -15 39 -31 58 -25 20 8 14 39 -10 56 -28 18 -15
36 12 19 11 -7 20 -8 20 -2 0 20 -37 30 -56 15z"/>
<path d="M1681 4258 c2 -52 2 -52 8 -13 l6 40 20 -32 c28 -47 41 -42 36 15 -5
46 -5 46 -11 12 l-5 -35 -20 33 c-11 17 -23 32 -27 32 -4 0 -7 -24 -7 -52z"/>
<path d="M1812 4271 c-15 -49 -15 -58 0 -43 15 15 48 16 48 2 0 -5 4 -10 9
-10 6 0 3 20 -6 45 -18 55 -36 57 -51 6z m38 -7 c0 -8 -6 -14 -14 -14 -9 0
-12 7 -9 20 6 22 23 18 23 -6z"/>
<path d="M1913 4303 c12 -3 17 -15 17 -44 0 -21 5 -39 10 -39 6 0 10 18 10 39
0 29 5 41 18 44 9 3 -3 5 -28 5 -25 0 -37 -2 -27 -5z"/>
<path d="M1554 4285 c3 -9 6 -33 6 -52 0 -20 3 -34 6 -30 3 3 6 9 6 14 0 11
19 33 29 33 4 0 11 -9 14 -20 3 -11 10 -20 15 -20 5 0 7 7 3 16 -3 9 -6 28 -7
43 -1 23 -6 26 -40 29 -32 3 -38 1 -32 -13z m61 -10 c0 -5 -10 -11 -22 -13
-16 -2 -23 2 -23 13 0 11 7 15 23 13 12 -2 22 -7 22 -13z"/>
<path d="M2016 4262 c-4 -24 -5 -46 -2 -49 12 -12 17 6 14 48 l-3 44 -9 -43z"/>
<path d="M2084 4275 c-32 -49 24 -103 64 -63 19 19 15 66 -7 78 -29 15 -39 13
-57 -15z m61 -16 c8 -26 -16 -54 -39 -46 -16 6 -22 48 -9 60 14 14 42 6 48
-14z"/>
<path d="M1453 4282 c-8 -5 -10 -22 -6 -50 6 -44 17 -50 58 -31 17 7 15 8 -10
6 -38 -3 -42 24 -5 34 l25 7 -27 1 c-16 1 -28 5 -28 10 0 5 12 14 28 19 l27
10 -25 1 c-14 0 -30 -3 -37 -7z"/>
<path d="M2210 4267 c0 -8 -2 -30 -5 -48 l-5 -34 14 30 15 30 11 -32 c7 -18
16 -33 21 -33 8 0 12 12 24 73 2 9 -1 17 -6 17 -5 0 -9 -10 -9 -23 0 -38 -14
-41 -25 -6 -12 34 -35 51 -35 26z"/>
<path d="M1335 4260 c-19 -8 -19 -9 3 -9 16 -1 22 -7 23 -23 0 -13 5 -32 10
-43 7 -15 8 -7 4 27 -4 38 -1 47 13 51 11 3 8 5 -8 5 -14 0 -34 -3 -45 -8z"/>
<path d="M1275 4220 l7 -35 -30 28 c-16 16 -32 25 -35 20 -8 -12 13 -93 24
-93 4 0 3 14 -2 32 -11 41 -8 43 21 13 13 -14 28 -25 33 -25 12 0 -1 71 -15
85 -7 7 -8 -1 -3 -25z"/>
<path d="M2336 4209 c-15 -22 -24 -44 -20 -47 4 -4 9 -1 11 6 7 18 30 15 42
-5 5 -10 13 -15 16 -11 10 9 -4 98 -14 98 -5 0 -21 -18 -35 -41z m30 -16 c-10
-10 -19 5 -10 18 6 11 8 11 12 0 2 -7 1 -15 -2 -18z"/>
<path d="M1150 4216 c0 -20 24 -86 31 -86 9 0 -9 71 -22 85 -5 5 -9 5 -9 1z"/>
<path d="M2442 4178 c-6 -23 -10 -43 -9 -44 1 -1 15 -4 30 -8 19 -4 26 -3 22
4 -3 5 -13 10 -22 10 -15 0 -14 19 3 64 3 9 2 16 -4 16 -5 0 -14 -19 -20 -42z"/>
<path d="M1386 6095 c-6 -17 2 -45 14 -45 4 0 10 14 12 30 5 32 -15 43 -26 15z"/>
<path d="M2230 5977 c-14 -29 -7 -48 11 -30 6 6 9 21 7 34 l-4 24 -14 -28z"/>
<path d="M3990 5125 c0 -543 3 -825 10 -825 7 0 10 282 10 825 0 543 -3 825
-10 825 -7 0 -10 -282 -10 -825z"/>
<path d="M7995 5806 c-45 -20 -85 -64 -114 -126 -23 -48 -26 -68 -26 -160 0
-95 3 -111 28 -162 33 -67 72 -103 128 -118 77 -21 158 28 200 122 20 45 24
69 24 158 0 99 -2 109 -33 173 -50 101 -134 147 -207 113z m112 -22 c50 -32
58 -65 58 -254 0 -157 -2 -179 -21 -215 -45 -88 -138 -94 -192 -12 -27 40 -27
42 -27 221 0 164 2 184 20 216 37 64 104 82 162 44z"/>
<path d="M9695 5813 c-57 -15 -95 -72 -95 -140 0 -59 28 -93 116 -142 107 -59
151 -95 164 -136 22 -68 -8 -121 -85 -149 -24 -9 -32 -15 -20 -15 11 0 39 8
62 18 52 24 83 79 83 147 0 82 -19 102 -216 224 -53 33 -84 71 -84 103 0 26
40 66 76 76 83 23 166 -47 195 -164 4 -20 7 5 8 70 1 96 0 99 -16 75 -9 -14
-18 -27 -19 -29 -1 -1 -20 11 -41 27 -38 31 -91 45 -128 35z"/>
<path d="M4618 5803 l42 -4 0 -274 0 -274 -42 -4 c-24 -2 9 -4 72 -4 63 0 97
3 75 6 l-40 6 -3 131 -3 132 89 4 c69 3 96 9 125 27 97 60 60 217 -58 250 -22
6 -98 10 -170 9 -71 -1 -111 -3 -87 -5z m274 -31 c26 -26 37 -130 19 -185 -15
-43 -45 -57 -126 -57 l-65 0 0 128 c0 71 3 132 8 136 4 4 37 6 75 4 53 -3 72
-8 89 -26z"/>
<path d="M5068 5803 l42 -4 0 -274 0 -274 -42 -4 c-24 -2 9 -4 72 -4 63 0 97
3 75 6 l-40 6 0 150 0 150 108 3 107 3 0 -155 0 -155 -42 -4 c-24 -2 9 -4 72
-4 63 0 97 3 75 6 l-40 6 0 270 0 270 40 6 c22 3 -12 6 -75 6 -63 0 -96 -2
-72 -4 l42 -4 0 -115 0 -114 -110 0 -111 0 3 113 3 112 40 6 c22 3 -12 6 -75
6 -63 0 -96 -2 -72 -4z"/>
<path d="M5618 5803 l42 -4 0 -274 0 -274 -42 -4 c-24 -2 9 -4 72 -4 63 0 97
3 75 6 l-40 6 0 270 0 270 40 6 c22 3 -12 6 -75 6 -63 0 -96 -2 -72 -4z"/>
<path d="M5888 5803 l42 -4 0 -274 0 -274 -42 -4 c-24 -2 50 -4 165 -5 l207
-2 -1 128 c-1 123 -1 125 -13 76 -33 -134 -99 -198 -201 -192 l-50 3 0 270 0
270 40 6 c22 3 -12 6 -75 6 -63 0 -96 -2 -72 -4z"/>
<path d="M6355 5801 l40 -6 0 -270 0 -270 -40 -6 c-22 -3 12 -6 75 -6 63 0 96
2 73 4 l-43 4 0 274 0 274 43 4 c23 2 -10 4 -73 4 -63 0 -97 -3 -75 -6z"/>
<path d="M6625 5801 l40 -6 0 -270 0 -270 -40 -6 c-22 -3 12 -6 75 -6 63 0 96
2 73 4 l-43 4 0 135 0 134 73 0 c81 0 144 23 171 61 23 33 21 114 -4 154 -36
58 -76 70 -240 71 -80 1 -127 -1 -105 -5z m250 -15 c26 -11 36 -23 44 -53 22
-80 4 -168 -39 -190 -14 -7 -53 -13 -87 -13 l-63 0 0 135 0 135 55 0 c31 0 71
-6 90 -14z"/>
<path d="M7263 5800 c58 -18 57 -13 57 -270 0 -258 1 -254 -60 -279 -19 -7 -2
-10 70 -9 75 0 88 2 63 9 -61 18 -63 28 -63 293 0 132 4 236 8 231 5 -6 37
-120 72 -255 34 -135 66 -254 70 -265 9 -23 2 -45 92 285 33 124 65 229 69
235 10 11 12 -300 3 -433 l-7 -91 -36 -4 c-20 -2 14 -4 74 -4 62 0 93 2 70 6
l-40 6 0 270 0 270 40 6 c31 5 23 6 -35 8 l-75 1 -60 -220 c-33 -120 -62 -217
-65 -214 -3 3 -30 101 -61 217 l-55 212 -80 2 c-57 1 -71 -1 -51 -7z"/>
<path d="M8338 5803 l42 -4 0 -274 0 -274 -42 -4 c-24 -2 9 -4 72 -4 63 0 97
3 75 6 l-40 6 -3 133 -3 132 68 0 c37 0 73 -4 79 -8 22 -14 34 -51 34 -102 0
-84 18 -139 54 -161 34 -21 72 -24 96 -9 11 7 8 10 -16 10 -46 0 -58 22 -65
118 -8 94 -26 130 -75 147 -16 5 -31 12 -34 15 -3 3 -34 5 -70 5 l-65 0 0 130
0 130 57 3 c78 4 114 -15 129 -70 14 -54 5 -125 -21 -160 -25 -33 -9 -37 34
-9 41 27 55 57 56 118 0 41 -5 58 -26 82 -35 42 -78 51 -239 49 -77 -1 -121
-3 -97 -5z"/>
<path d="M8838 5803 l42 -4 0 -274 0 -274 -42 -4 c-24 -2 9 -4 72 -4 63 0 97
3 75 6 l-40 6 -3 133 -3 132 69 0 c93 0 103 -11 113 -130 4 -55 13 -100 23
-115 21 -31 87 -52 118 -37 22 10 21 11 -9 11 -44 1 -63 32 -64 101 -1 93 -18
132 -66 155 -46 22 -55 35 -23 35 11 0 37 15 57 34 33 30 37 39 41 93 4 53 1
62 -23 91 -36 43 -78 52 -240 50 -77 -1 -121 -3 -97 -5z m263 -32 c27 -27 29
-35 29 -106 0 -67 -3 -79 -24 -100 -26 -26 -73 -38 -127 -33 l-34 3 -3 119
c-1 66 0 126 2 133 4 9 25 13 66 13 55 0 65 -3 91 -29z"/>
<path d="M9335 5801 l40 -6 0 -270 0 -270 -40 -6 c-22 -3 12 -6 75 -6 63 0 96
2 73 4 l-43 4 0 274 0 274 43 4 c23 2 -10 4 -73 4 -63 0 -97 -3 -75 -6z"/>
<path d="M9581 5363 c-1 -68 1 -123 4 -123 2 0 12 15 21 33 9 17 18 34 20 36
2 2 22 -13 45 -33 24 -20 52 -36 63 -36 14 0 7 7 -21 19 -47 22 -84 77 -113
169 l-18 57 -1 -122z"/>
<path d="M8355 5001 c-89 -40 -137 -142 -138 -288 -1 -83 2 -97 32 -157 57
-117 157 -155 247 -95 157 104 138 464 -30 540 -51 23 -61 23 -111 0z m112
-17 c13 -8 30 -25 38 -38 33 -50 42 -298 14 -406 -5 -20 -22 -49 -39 -65 -58
-56 -141 -31 -176 52 -19 45 -28 222 -16 317 12 88 30 122 83 148 35 18 58 16
96 -8z"/>
<path d="M9293 5004 c-4 -10 -40 -127 -79 -259 -69 -228 -75 -242 -110 -272
l-37 -33 89 1 c82 0 86 1 54 12 -47 16 -59 51 -39 114 l15 48 90 3 90 3 22
-75 c12 -42 22 -80 22 -85 0 -5 -15 -12 -32 -14 -18 -2 96 -5 255 -5 l287 -2
-1 128 c-1 125 -1 126 -14 75 -33 -134 -98 -197 -198 -191 l-48 3 0 270 0 270
38 6 c21 3 -11 6 -72 6 -60 0 -93 -2 -72 -4 l37 -4 0 -275 0 -275 -56 3 -57 3
-83 279 c-46 154 -86 281 -89 284 -2 3 -8 -4 -12 -14z m28 -232 c20 -70 34
-130 32 -134 -5 -9 -147 -11 -155 -3 -2 3 13 66 36 140 22 74 42 132 45 129 3
-3 22 -63 42 -132z"/>
<path d="M4618 5003 l42 -4 0 -274 0 -274 -42 -4 c-24 -2 9 -4 72 -4 63 0 97
3 75 6 l-40 6 0 270 0 270 40 6 c22 3 -12 6 -75 6 -63 0 -96 -2 -72 -4z"/>
<path d="M4853 5000 c58 -18 57 -13 57 -262 0 -145 -4 -237 -11 -249 -6 -12
-25 -27 -42 -34 -30 -13 -26 -14 63 -13 52 0 85 3 74 5 -12 2 -32 15 -45 29
-24 25 -24 29 -27 247 -2 180 0 219 10 206 7 -9 69 -125 138 -257 l125 -240 5
257 c5 281 6 281 65 307 27 12 22 13 -65 13 -91 0 -93 0 -62 -14 18 -8 37 -26
42 -41 6 -15 9 -100 8 -200 l-3 -173 -110 214 -110 215 -70 -1 c-54 -1 -64 -3
-42 -9z"/>
<path d="M5311 4903 c1 -87 3 -99 9 -62 12 69 44 124 84 143 69 33 66 46 66
-258 l0 -275 -37 -4 c-21 -2 12 -4 72 -4 61 0 93 2 73 4 l-38 4 0 276 0 276
32 -7 c69 -14 99 -52 123 -159 l13 -62 -1 115 -2 115 -197 3 -198 2 1 -107z"/>
<path d="M5773 5003 l37 -4 0 -274 0 -274 -37 -4 c-21 -2 53 -4 165 -5 l202
-2 -1 113 c-1 110 -1 111 -13 62 -16 -63 -37 -103 -71 -135 -22 -21 -38 -25
-101 -28 l-74 -4 0 146 0 146 31 0 c42 0 68 -16 84 -53 13 -30 14 -25 14 68
-1 78 -3 93 -10 68 -12 -40 -53 -73 -90 -73 l-29 0 0 125 0 125 60 0 c108 0
153 -37 179 -147 7 -31 9 -20 10 60 l1 97 -197 -2 c-109 -1 -181 -3 -160 -5z"/>
<path d="M6245 5002 l40 -7 0 -270 0 -270 -40 -6 c-22 -3 12 -6 75 -6 63 0 96
2 73 4 l-43 4 0 135 0 134 61 0 c33 0 69 -4 79 -10 25 -13 40 -62 40 -130 0
-133 24 -150 204 -143 115 5 125 7 98 19 -17 7 -35 21 -41 33 -7 12 -11 101
-11 238 l0 218 58 -110 c32 -60 91 -173 131 -250 40 -77 77 -144 82 -149 5 -6
9 95 9 248 0 165 4 265 11 277 6 12 25 27 42 34 30 13 26 14 -63 14 -91 0 -94
0 -62 -14 53 -23 62 -59 62 -252 0 -94 -4 -163 -9 -157 -4 5 -33 56 -63 114
-30 58 -79 151 -109 208 l-53 102 -71 -1 c-63 -1 -67 -2 -35 -11 59 -16 60
-21 60 -255 0 -241 -7 -278 -57 -288 -15 -4 -34 -8 -41 -11 -7 -2 -23 1 -36 6
-30 11 -46 61 -46 144 0 53 -3 61 -34 92 -19 19 -41 34 -50 34 -9 0 -16 5 -16
10 0 6 9 10 20 10 11 0 37 15 56 33 31 28 37 42 41 83 6 62 -14 106 -60 131
-26 15 -60 18 -187 19 -85 1 -137 -1 -115 -4z m267 -30 c17 -17 23 -37 26 -87
7 -114 -27 -155 -133 -155 l-55 0 0 136 0 136 70 -4 c56 -3 75 -8 92 -26z"/>
<path d="M7322 4973 c-7 -21 -40 -132 -74 -248 -57 -192 -66 -213 -100 -247
l-38 -38 83 0 c79 1 81 1 50 15 -41 17 -50 52 -31 114 l14 46 90 3 91 3 21
-79 c12 -44 22 -82 22 -85 0 -3 -15 -8 -32 -10 -18 -2 10 -4 62 -4 52 0 82 2
66 6 -28 6 -31 12 -88 201 -32 107 -70 232 -84 278 -13 45 -28 82 -33 82 -4 0
-13 -17 -19 -37z m39 -201 c20 -70 35 -130 32 -134 -5 -9 -147 -11 -155 -3 -3
3 13 66 35 140 22 74 43 132 46 130 3 -3 21 -63 42 -133z"/>
<path d="M7521 4893 c1 -96 3 -108 9 -66 4 28 16 69 26 90 21 43 78 85 109 81
20 -3 20 -9 20 -273 l0 -270 -40 -6 c-22 -3 12 -6 75 -6 63 0 96 2 73 4 l-43
4 0 276 0 276 33 -7 c69 -13 113 -72 127 -169 6 -42 8 -30 9 66 l1 117 -200 0
-200 0 1 -117z"/>
<path d="M7988 5003 l42 -4 -2 -272 -3 -272 -40 -6 c-22 -3 11 -6 75 -6 64 0
97 3 75 6 l-40 6 0 270 0 270 40 6 c22 3 -12 6 -75 6 -63 0 -96 -2 -72 -4z"/>
<path d="M8670 4998 c59 -16 60 -21 60 -255 0 -245 -6 -276 -62 -292 -27 -7
-16 -9 62 -10 89 0 93 1 63 14 -17 7 -36 23 -42 34 -8 13 -10 93 -9 235 l3
215 125 -240 c69 -133 130 -248 137 -257 10 -14 12 36 13 241 0 165 4 266 11
278 6 12 25 27 42 34 30 13 26 14 -63 14 -87 0 -92 -1 -65 -13 58 -25 60 -33
63 -235 2 -121 0 -182 -6 -176 -6 6 -58 103 -117 218 l-107 207 -71 -1 c-65
-1 -69 -2 -37 -11z"/>
</g>
</svg>
