<?xml version="1.0" standalone="no"?>
<!DOCTYPE svg PUBLIC "-//W3C//DTD SVG 20010904//EN"
 "http://www.w3.org/TR/2001/REC-SVG-20010904/DTD/svg10.dtd">
<svg version="1.0" xmlns="http://www.w3.org/2000/svg"
 width="1024.000000pt" height="1024.000000pt" viewBox="0 0 1024.000000 1024.000000"
 preserveAspectRatio="xMidYMid meet">
<metadata>
Created by potrace 1.16, written by Peter Selinger 2001-2019
</metadata>
<g transform="translate(0.000000,1024.000000) scale(0.100000,-0.100000)"
fill="#000000" stroke="none">
<path d="M2799 7557 c-24 -13 -57 -43 -74 -66 l-30 -43 -3 -1134 c-2 -1102 -2
-1135 17 -1172 23 -45 66 -87 104 -101 40 -15 122 -14 160 3 39 17 92 71 106
109 8 19 11 384 11 1153 0 1086 -1 1126 -19 1162 -52 102 -173 141 -272 89z"/>
<path d="M7287 7570 c-46 -14 -93 -56 -116 -103 -21 -43 -21 -46 -21 -1163 l0
-1120 23 -44 c44 -87 128 -125 232 -106 43 8 113 68 132 113 11 27 13 237 13
1158 0 1087 -1 1127 -19 1163 -46 90 -145 132 -244 102z"/>
<path d="M1716 6808 c-56 -15 -120 -82 -134 -140 -16 -62 -17 -1036 -1 -1091
21 -77 111 -146 190 -147 82 0 147 40 184 114 l25 50 0 520 c0 337 -4 535 -11
559 -16 58 -72 114 -132 132 -57 17 -66 17 -121 3z"/>
<path d="M3946 6808 c-56 -15 -120 -82 -134 -140 -16 -62 -17 -1036 -1 -1091
13 -49 63 -105 114 -128 58 -27 113 -24 176 9 43 22 59 38 81 81 l28 53 0 522
c0 336 -4 535 -11 559 -16 58 -72 114 -132 132 -57 17 -66 17 -121 3z"/>
<path d="M6176 6808 c-56 -15 -120 -82 -134 -140 -16 -62 -17 -1036 -1 -1091
22 -79 111 -147 194 -147 83 0 172 68 194 147 15 52 15 1044 0 1097 -15 55
-84 120 -141 134 -54 14 -59 14 -112 0z"/>
<path d="M8399 6804 c-57 -17 -113 -76 -129 -133 -7 -28 -10 -211 -8 -568 l3
-528 24 -42 c57 -99 168 -130 272 -75 43 22 59 38 81 81 l28 53 0 522 c0 336
-4 535 -11 559 -16 58 -72 114 -132 132 -60 18 -68 18 -128 -1z"/>
<path d="M573 6236 c-36 -17 -60 -38 -80 -67 l-28 -42 -3 -271 c-3 -269 -3
-272 21 -316 77 -146 283 -145 357 1 18 35 20 60 20 304 0 246 -2 269 -20 305
-32 63 -111 110 -184 110 -17 0 -54 -11 -83 -24z"/>
<path d="M5055 6248 c-50 -18 -92 -55 -114 -101 -20 -41 -21 -60 -21 -303 0
-250 1 -262 23 -304 62 -123 236 -147 326 -45 49 56 53 86 49 372 l-3 261 -30
43 c-16 23 -47 51 -69 62 -46 24 -119 31 -161 15z"/>
<path d="M9515 6248 c-50 -18 -92 -55 -114 -101 -20 -41 -21 -59 -21 -303 0
-230 3 -264 19 -299 67 -149 281 -152 358 -5 24 44 24 47 21 317 l-3 271 -30
43 c-16 23 -47 51 -69 62 -46 24 -119 31 -161 15z"/>
<path d="M4553 4340 c-276 -29 -460 -189 -495 -427 -22 -151 19 -282 119 -382
75 -74 157 -119 322 -175 152 -52 195 -76 222 -120 41 -68 11 -140 -73 -176
-98 -42 -297 -42 -489 0 -51 11 -94 20 -96 20 -2 0 -3 -83 -3 -184 l0 -184 63
-11 c318 -55 574 -38 754 48 176 85 271 222 289 414 8 93 -8 173 -53 260 -66
125 -176 201 -393 272 -63 21 -128 44 -145 53 -121 59 -124 166 -7 220 51 23
69 26 167 26 95 0 249 -21 300 -40 13 -5 15 18 15 169 l0 175 -90 17 c-79 14
-297 37 -325 33 -5 0 -43 -4 -82 -8z"/>
<path d="M1955 4323 c-309 -66 -547 -289 -631 -593 -26 -92 -26 -357 -1 -450
46 -166 155 -331 283 -429 229 -173 517 -222 857 -145 l67 16 0 219 0 219 -38
-19 c-147 -75 -374 -85 -509 -22 -268 126 -325 495 -108 700 149 141 373 157
638 46 16 -7 17 7 17 209 l0 215 -41 11 c-157 42 -396 53 -534 23z"/>
<path d="M6225 4323 c-172 -36 -323 -120 -438 -242 -122 -130 -199 -301 -216
-483 -43 -456 223 -818 669 -910 125 -26 319 -21 463 13 l97 22 0 218 0 218
-56 -25 c-84 -37 -178 -55 -284 -56 -196 0 -335 84 -412 248 -23 50 -31 84
-35 147 -15 240 126 418 364 459 113 19 258 -5 406 -67 16 -7 17 7 17 208 l0
214 -57 16 c-143 40 -384 49 -518 20z"/>
<path d="M7895 4325 c-180 -40 -321 -119 -442 -249 -153 -163 -233 -389 -219
-616 7 -127 28 -206 86 -325 86 -177 198 -289 375 -375 55 -26 129 -56 165
-65 87 -22 276 -30 370 -16 414 65 710 408 710 825 0 394 -249 716 -628 812
-77 20 -118 24 -226 23 -72 0 -158 -7 -191 -14z m367 -432 c339 -159 325 -652
-22 -784 -254 -96 -528 64 -570 334 -32 209 90 406 295 474 25 8 76 12 135 10
82 -2 104 -7 162 -34z"/>
<path d="M3097 4313 c-4 -3 -7 -368 -7 -810 l0 -803 205 0 205 0 0 810 0 810
-198 0 c-109 0 -202 -3 -205 -7z"/>
</g>
</svg>
