<?xml version="1.0" standalone="no"?>
<!DOCTYPE svg PUBLIC "-//W3C//DTD SVG 20010904//EN"
 "http://www.w3.org/TR/2001/REC-SVG-20010904/DTD/svg10.dtd">
<svg version="1.0" xmlns="http://www.w3.org/2000/svg"
 width="1024.000000pt" height="1024.000000pt" viewBox="0 0 1024.000000 1024.000000"
 preserveAspectRatio="xMidYMid meet">
<metadata>
Created by potrace 1.16, written by Peter Selinger 2001-2019
</metadata>
<g transform="translate(0.000000,1024.000000) scale(0.100000,-0.100000)"
fill="#000000" stroke="none">
<path d="M4940 7215 c-232 -32 -426 -93 -645 -200 -281 -137 -506 -314 -708
-557 -89 -107 -247 -353 -247 -385 0 -10 651 -520 676 -530 8 -3 14 1 14 8 1
32 84 198 147 292 79 120 224 268 335 345 158 108 354 187 528 212 135 20 372
9 493 -23 172 -45 341 -133 460 -237 25 -22 48 -40 52 -40 9 0 585 575 585
584 0 8 -70 71 -139 125 -277 215 -626 359 -979 405 -149 19 -436 20 -572 1z"/>
<path d="M7231 5314 c0 -11 3 -14 6 -6 3 7 2 16 -1 19 -3 4 -6 -2 -5 -13z"/>
<path d="M3676 4439 c-185 -144 -336 -267 -336 -273 0 -21 107 -199 180 -299
427 -582 1127 -906 1856 -857 365 24 660 111 938 274 96 56 223 148 285 206
33 31 34 33 15 44 -20 11 -119 87 -469 361 l-181 141 -29 -19 c-120 -76 -303
-144 -464 -172 -114 -20 -364 -20 -470 0 -330 63 -634 266 -824 552 -62 93
-146 260 -147 291 0 6 -4 12 -9 12 -5 0 -160 -118 -345 -261z"/>
<path d="M6759 3663 c-13 -16 -12 -17 4 -4 16 13 21 21 13 21 -2 0 -10 -8 -17
-17z"/>
</g>
</svg>
