<?xml version="1.0" standalone="no"?>
<!DOCTYPE svg PUBLIC "-//W3C//DTD SVG 20010904//EN"
 "http://www.w3.org/TR/2001/REC-SVG-20010904/DTD/svg10.dtd">
<svg version="1.0" xmlns="http://www.w3.org/2000/svg"
 width="800.000000pt" height="800.000000pt" viewBox="0 0 800.000000 800.000000"
 preserveAspectRatio="xMidYMid meet">
<metadata>
Created by potrace 1.16, written by Peter Selinger 2001-2019
</metadata>
<g transform="translate(0.000000,800.000000) scale(0.100000,-0.100000)"
fill="#000000" stroke="none">
<path d="M3585 7993 c-574 -13 -1326 -111 -1860 -244 -331 -82 -722 -221 -880
-312 -90 -53 -229 -192 -272 -272 -93 -176 -111 -322 -94 -778 65 -1784 528
-3249 1422 -4499 185 -259 490 -631 674 -824 273 -285 635 -634 832 -801 139
-119 292 -207 414 -240 96 -25 284 -23 369 4 210 68 345 167 745 546 793 752
1338 1464 1744 2274 514 1026 786 2151 842 3492 22 520 -3 696 -126 881 -118
177 -339 298 -805 438 -851 257 -1796 362 -3005 335z m948 -213 c594 -28 1175
-108 1677 -231 259 -64 614 -181 761 -252 199 -96 295 -209 336 -397 42 -194
-7 -1095 -87 -1600 -66 -411 -114 -648 -195 -953 -218 -816 -539 -1524 -1000
-2202 -308 -455 -619 -821 -1091 -1285 -291 -286 -483 -458 -599 -534 -116
-77 -200 -108 -311 -114 -135 -7 -257 36 -399 141 -282 208 -1029 967 -1312
1332 -222 287 -331 442 -508 720 -128 200 -352 628 -459 875 -414 953 -641
2059 -663 3220 -5 263 -3 317 11 390 44 219 159 339 432 451 350 142 849 271
1339 343 326 49 755 90 1025 99 220 8 857 6 1043 -3z"/>
<path d="M3645 7581 c-93 -24 -166 -115 -201 -253 -20 -75 -22 -308 -5 -382
39 -165 145 -267 263 -253 104 13 181 90 226 224 22 70 25 94 25 228 0 176
-15 244 -74 335 -55 85 -146 124 -234 101z m85 -136 c112 -58 132 -442 31
-582 -21 -29 -65 -47 -96 -39 -30 8 -71 67 -91 133 -20 65 -20 290 1 359 18
62 52 115 85 131 32 16 35 16 70 -2z"/>
<path d="M4060 7146 l0 -436 65 0 65 0 0 176 0 175 51 -3 52 -3 44 -125 c25
-69 52 -147 62 -175 l17 -50 67 -3 c50 -2 67 0 67 10 0 7 -27 88 -60 181 -33
92 -60 173 -60 179 0 6 18 26 39 45 58 49 85 113 85 198 1 123 -40 193 -136
236 -46 19 -74 23 -205 27 l-153 4 0 -436z m274 294 c86 -19 121 -108 75 -189
-27 -49 -65 -64 -154 -59 l-60 3 -3 114 c-1 63 0 121 2 128 6 15 81 17 140 3z"/>
<path d="M2980 7545 c-47 -7 -91 -14 -97 -14 -10 -1 -13 -93 -13 -426 l0 -425
23 0 c61 0 267 33 302 49 87 39 145 133 145 236 0 76 -14 126 -46 165 l-26 30
26 52 c83 173 2 333 -173 344 -31 1 -94 -3 -141 -11z m189 -139 c33 -35 36
-83 9 -136 -26 -51 -50 -65 -125 -73 l-53 -6 0 114 0 114 28 4 c78 12 118 7
141 -17z m18 -349 c17 -17 28 -94 19 -131 -12 -48 -53 -84 -104 -91 -26 -4
-59 -9 -74 -11 l-28 -6 0 121 0 120 38 6 c20 4 42 8 47 11 20 7 88 -5 102 -19z"/>
<path d="M4822 7519 c-48 -14 -107 -78 -130 -141 -59 -158 -54 -446 11 -575
97 -196 384 -162 426 50 6 29 13 98 17 155 l7 102 -117 0 -116 0 0 -65 0 -65
45 0 45 0 0 -45 c0 -72 -43 -135 -93 -135 -36 0 -84 31 -100 65 -27 57 -40
161 -34 274 7 142 21 194 64 231 61 54 135 29 148 -50 l7 -40 65 0 66 0 -6 45
c-13 117 -93 194 -209 201 -35 2 -78 -1 -96 -7z"/>
<path d="M2640 7487 l-44 -12 -77 -238 c-43 -132 -79 -241 -82 -243 -4 -4 -20
36 -115 296 -25 69 -49 128 -52 133 -3 4 -35 1 -71 -6 l-64 -13 -3 -412 -2
-412 42 6 c24 4 54 10 68 14 l25 6 -1 223 c0 122 3 218 7 214 3 -5 41 -107 84
-228 42 -121 80 -224 84 -228 4 -4 40 97 80 225 41 128 78 238 83 243 6 6 9
-18 8 -70 -1 -44 -2 -138 -1 -208 l1 -129 28 6 c15 2 44 7 64 11 l38 6 -3 412
-2 412 -25 2 c-14 1 -45 -4 -70 -10z"/>
<path d="M5270 7066 l0 -434 48 -6 c26 -4 55 -9 65 -12 16 -5 17 8 17 175 0
100 2 181 5 181 4 0 45 -8 163 -31 l62 -12 0 -173 c0 -194 -7 -177 83 -190
l47 -6 0 430 c0 237 -3 433 -7 435 -5 3 -34 8 -65 12 l-58 7 0 -192 0 -192
-32 6 c-18 4 -66 13 -106 20 -40 7 -75 16 -78 19 -4 3 -8 88 -9 189 -4 206 5
186 -92 202 l-43 6 0 -434z"/>
<path d="M5910 6956 l0 -433 61 -12 c34 -7 63 -10 66 -7 3 3 6 197 7 432 l1
428 -50 13 c-94 24 -85 70 -85 -421z"/>
<path d="M1766 7316 c-32 -8 -52 -18 -57 -31 -5 -11 -38 -155 -74 -320 -36
-165 -77 -347 -90 -405 -28 -119 -30 -141 -12 -135 6 2 37 11 68 19 l56 16 23
107 c13 60 27 113 31 119 5 5 38 16 75 23 79 16 75 20 100 -95 11 -48 24 -84
30 -84 7 0 36 5 64 12 48 11 51 14 47 37 -2 14 -42 189 -88 388 -94 406 -77
372 -173 349z m43 -370 c12 -49 20 -90 19 -91 -2 -1 -22 -7 -46 -13 -33 -8
-42 -7 -39 1 2 7 12 53 23 104 10 51 19 91 20 90 1 -1 12 -42 23 -91z"/>
<path d="M6202 6890 l3 -423 50 -13 c28 -7 56 -13 62 -14 10 0 13 60 15 253
l3 252 23 -65 c13 -36 61 -166 107 -290 l83 -225 59 -17 c104 -31 94 -76 91
404 l-3 422 -50 18 c-86 31 -80 50 -78 -234 2 -153 -1 -247 -6 -238 -5 8 -33
78 -61 155 -29 77 -63 167 -75 200 -13 33 -35 92 -50 131 l-26 71 -52 12 c-29
6 -62 14 -75 17 l-22 6 2 -422z"/>
<path d="M1108 7123 l-58 -15 0 -424 0 -423 83 30 c181 68 273 101 295 106 20
5 22 11 22 79 l0 74 -67 -26 c-38 -14 -96 -36 -130 -49 -34 -13 -63 -22 -65
-20 -1 2 -3 157 -3 344 0 223 -3 341 -10 340 -5 -1 -36 -8 -67 -16z"/>
<path d="M6840 6697 l0 -424 48 -13 c26 -7 55 -14 65 -17 16 -4 17 21 17 421
l0 425 -37 10 c-21 5 -50 13 -65 17 l-28 6 0 -425z"/>
<path d="M3813 6120 c-179 -19 -395 -140 -422 -236 -20 -72 15 -140 93 -181
90 -47 95 -47 581 -48 542 -1 631 -10 702 -77 29 -27 63 -118 63 -168 0 -47
-18 -60 -82 -60 -90 0 -353 72 -523 142 -92 38 -153 50 -199 37 -55 -15 -163
-92 -241 -172 -59 -61 -93 -84 -210 -146 -181 -96 -269 -156 -344 -236 -78
-84 -85 -108 -85 -315 -1 -186 7 -161 -101 -325 -102 -154 -134 -224 -156
-333 -21 -102 -24 -175 -9 -236 12 -53 -4 -135 -42 -214 -35 -72 -38 -121 -24
-367 l8 -140 -47 -90 -46 -90 7 -107 c4 -75 3 -108 -4 -108 -6 0 -36 -26 -67
-57 -55 -56 -105 -140 -105 -176 0 -10 -18 -40 -40 -65 -48 -54 -80 -122 -80
-169 0 -37 34 -113 50 -113 15 0 30 45 30 91 0 27 4 39 15 39 18 0 29 -57 20
-99 l-7 -31 54 0 c68 0 179 18 195 32 8 6 13 34 13 70 0 59 21 128 38 128 23
0 33 61 30 184 l-2 128 29 22 c60 43 97 80 115 115 20 41 40 135 40 193 0 29
17 70 66 161 77 142 170 287 183 287 22 0 31 -36 42 -175 16 -209 14 -331 -9
-366 -9 -15 -63 -61 -118 -102 -133 -98 -152 -115 -179 -162 -28 -47 -46 -145
-38 -204 6 -41 6 -42 42 -39 26 2 39 9 46 26 18 42 40 19 40 -43 0 -36 3 -40
28 -43 15 -2 53 2 85 8 87 18 117 56 181 226 74 194 83 210 169 292 59 56 84
90 116 155 33 65 48 86 76 100 30 15 35 15 38 2 6 -27 -77 -170 -139 -240 -78
-88 -99 -122 -99 -163 0 -71 45 -91 70 -31 7 16 18 29 26 29 21 0 28 -39 10
-59 -9 -10 -16 -25 -16 -33 0 -16 43 -30 76 -23 10 2 55 9 99 16 127 19 145
41 110 139 -21 60 -20 66 23 87 40 20 40 17 31 146 -3 42 0 52 20 68 41 34 56
25 68 -38 16 -85 51 -169 82 -201 41 -41 91 -53 231 -58 150 -5 206 10 252 66
24 31 31 54 48 173 37 243 70 303 231 418 l27 19 56 -88 c32 -48 68 -102 81
-120 24 -33 24 -37 20 -205 -2 -130 -7 -183 -20 -217 -19 -51 -16 -121 7 -143
17 -17 92 -57 108 -57 5 0 10 18 10 40 0 26 4 40 13 40 20 0 37 -22 37 -47 0
-20 5 -23 38 -23 50 0 69 21 84 92 10 50 9 60 -10 105 -28 66 -49 236 -62 498
-5 116 -16 241 -25 278 -14 67 -51 157 -77 187 -29 34 -86 70 -112 70 -33 0
-50 -35 -66 -133 -15 -99 -23 -111 -97 -161 -92 -62 -204 -165 -241 -224 -44
-67 -59 -115 -72 -229 -12 -107 -38 -173 -73 -191 -35 -19 -138 -42 -182 -42
-31 0 -47 6 -65 25 l-23 25 22 0 c33 0 61 18 61 39 0 26 -42 61 -74 61 -22 0
-30 -7 -42 -36 -13 -31 -18 -35 -28 -23 -22 23 -36 78 -36 136 0 44 11 80 51
176 60 141 69 186 44 211 -10 10 -29 16 -44 14 -21 -2 -33 -16 -62 -71 -65
-124 -95 -129 -86 -13 6 78 46 181 122 316 54 94 58 110 46 157 -11 38 -51 86
-148 175 -47 44 -52 52 -63 116 -7 39 -10 77 -7 86 8 21 56 21 117 -1 47 -17
51 -17 112 4 122 42 218 39 218 -7 0 -17 -7 -20 -52 -20 -29 -1 -82 -11 -118
-23 -77 -26 -92 -48 -93 -137 0 -76 29 -135 99 -199 67 -61 137 -96 234 -117
79 -17 183 -14 252 6 75 22 179 112 155 136 -4 4 -31 1 -61 -6 -44 -10 -76
-11 -160 -1 -188 21 -256 48 -256 101 0 26 4 30 28 30 48 0 72 12 78 36 3 13
11 24 18 24 29 0 56 -14 61 -31 9 -28 76 -58 145 -66 56 -5 60 -5 60 15 0 15
-16 31 -57 54 -81 48 -81 62 -2 56 44 -3 92 -17 156 -44 l92 -39 3 -69 3 -69
42 -12 c25 -7 66 -34 100 -64 32 -29 92 -69 132 -89 72 -36 79 -37 180 -37 97
0 111 2 161 29 69 35 130 93 130 122 0 33 -12 36 -56 14 -42 -22 -103 -25
-183 -10 -79 15 -110 33 -196 116 -93 91 -129 114 -175 114 -29 0 -44 10 -85
51 -94 96 -189 129 -376 129 l-126 0 -16 40 c-20 53 -61 70 -164 70 -89 0
-105 7 -96 38 5 19 12 22 54 22 27 0 49 -4 49 -10 0 -5 9 -10 20 -10 15 0 20
7 20 25 0 41 -52 67 -123 62 -64 -4 -83 8 -72 44 7 20 11 21 69 14 87 -9 111
-1 128 43 l14 37 27 -46 c15 -25 34 -67 43 -92 16 -48 60 -100 78 -94 39 13
-12 175 -116 377 -86 164 -171 288 -340 497 -56 69 -73 113 -44 113 19 0 202
-216 354 -416 78 -104 136 -144 208 -144 94 0 100 27 49 203 -25 85 -56 127
-96 127 -65 0 39 66 122 77 36 5 36 5 120 -108 216 -294 257 -397 225 -564
-22 -113 -20 -182 10 -288 15 -51 27 -111 28 -135 l1 -43 59 3 59 3 -2 90 c-1
50 -12 137 -23 195 -18 85 -21 135 -19 266 3 217 13 192 -206 497 l-121 167
18 38 c40 84 33 179 -20 289 -39 78 -109 143 -187 171 -105 38 -187 44 -443
31 -267 -13 -408 -9 -596 20 -140 22 -173 31 -192 53 -15 19 12 45 82 82 59
31 83 32 116 5 117 -95 230 -125 421 -113 127 8 137 12 123 51 -9 26 -15 28
-69 33 -75 7 -105 23 -105 55 0 30 11 32 35 5 14 -16 31 -20 78 -20 41 0 69
-6 91 -19 53 -33 159 -33 176 0 28 51 -50 99 -231 142 -174 43 -282 52 -426
37z m239 -168 c3 -4 4 -19 1 -34 -6 -33 -27 -36 -96 -12 -48 16 -57 30 -34 53
12 13 114 8 129 -7z m201 -1024 c75 -29 129 -81 151 -143 32 -97 13 -165 -46
-165 -34 0 -82 43 -135 122 l-29 43 -87 -4 -87 -3 0 34 c0 49 15 58 91 58 74
0 97 14 61 38 -23 15 -19 42 6 42 9 0 43 -10 75 -22z m-777 -444 c21 -72 56
-128 115 -185 33 -31 59 -62 59 -68 0 -14 -151 -15 -202 -1 -21 6 -44 21 -53
33 -23 34 -19 91 10 125 20 24 25 41 25 87 0 48 3 56 17 53 10 -2 22 -20 29
-44z m443 -301 c15 -16 36 -50 46 -78 23 -63 49 -120 75 -165 33 -58 27 -73
-66 -172 -47 -50 -92 -105 -100 -124 -31 -75 -13 -152 67 -271 53 -79 96 -170
85 -180 -7 -8 -263 -21 -418 -22 l-97 -1 -11 38 c-6 20 -14 73 -17 118 l-6 81
67 6 c84 8 108 20 104 54 -7 61 -108 89 -283 78 -118 -7 -158 -19 -163 -49 -4
-17 -60 -104 -163 -251 -43 -61 -84 -73 -95 -30 -19 78 29 294 110 494 14 36
26 84 26 108 0 54 19 100 54 132 l26 25 30 -32 c23 -26 37 -32 69 -32 47 0 74
24 92 79 19 57 47 91 76 91 15 0 48 -14 75 -31 39 -25 60 -32 103 -33 70 -1
101 22 140 102 23 49 36 65 65 76 52 22 78 19 109 -11z m1295 -608 c7 -19 24
-162 28 -240 3 -58 2 -60 -22 -60 -18 0 -34 14 -67 60 -55 78 -60 102 -32 157
45 90 79 120 93 83z m-1596 -577 c21 -21 13 -49 -22 -84 -38 -38 -44 -40 -71
-21 -23 18 -15 54 21 90 29 29 53 34 72 15z m-658 -103 c26 -31 -28 -135 -71
-135 -16 0 -19 7 -19 49 0 76 55 129 90 86z"/>
<path d="M4365 3546 c-18 -62 -10 -96 28 -121 38 -25 90 -30 106 -11 12 14 8
22 -24 57 -20 22 -45 60 -55 85 -11 24 -24 44 -29 44 -6 0 -17 -24 -26 -54z"/>
</g>
</svg>
