<?xml version="1.0" standalone="no"?>
<!DOCTYPE svg PUBLIC "-//W3C//DTD SVG 20010904//EN"
 "http://www.w3.org/TR/2001/REC-SVG-20010904/DTD/svg10.dtd">
<svg version="1.0" xmlns="http://www.w3.org/2000/svg"
 width="1024.000000pt" height="1024.000000pt" viewBox="0 0 1024.000000 1024.000000"
 preserveAspectRatio="xMidYMid meet">
<metadata>
Created by potrace 1.16, written by Peter Selinger 2001-2019
</metadata>
<g transform="translate(0.000000,1024.000000) scale(0.100000,-0.100000)"
fill="#000000" stroke="none">
<path d="M1320 6515 c-102 -17 -199 -41 -208 -51 -4 -4 1 -4 11 -1 9 4 17 2
17 -3 0 -6 -6 -10 -14 -10 -8 0 -23 -3 -33 -6 -15 -5 -16 -4 -3 6 12 9 10 10
-10 4 -52 -14 -71 -24 -65 -34 3 -5 11 -10 16 -10 6 0 7 5 3 12 -5 7 -3 8 6 3
7 -4 16 -2 21 6 6 10 8 6 5 -11 -3 -19 -9 -24 -25 -23 -13 2 -20 -1 -16 -7 10
-16 -11 -12 -25 5 -11 13 -10 15 6 9 18 -5 18 -5 1 6 -14 9 -29 5 -82 -24
-137 -75 -250 -160 -239 -179 4 -7 4 -9 -1 -5 -11 11 -87 -52 -81 -68 3 -7 -1
-17 -8 -23 -7 -6 -12 -24 -11 -40 1 -17 -2 -28 -6 -26 -4 3 -10 -1 -12 -7 -4
-10 -6 -10 -6 0 -1 6 -6 12 -12 12 -5 0 -7 -4 -4 -10 3 -5 1 -10 -4 -10 -15 0
-14 13 5 36 8 10 13 14 10 7 -4 -6 -2 -14 4 -18 5 -3 11 0 12 7 0 7 2 18 2 24
1 6 8 20 16 30 13 17 12 17 -9 -1 -41 -35 -112 -134 -105 -147 4 -7 3 -8 -4
-4 -12 7 -35 -27 -25 -38 3 -3 1 -6 -5 -6 -6 0 -9 -7 -5 -15 3 -10 1 -15 -7
-13 -7 2 -20 -15 -29 -37 -8 -22 -19 -43 -25 -47 -5 -3 -9 -20 -9 -38 0 -17
-3 -26 -7 -20 -5 8 -9 6 -14 -5 -3 -9 -4 -21 0 -26 3 -5 1 -9 -4 -9 -11 0 -35
-77 -27 -89 3 -5 1 -11 -4 -13 -17 -5 -41 -176 -41 -289 0 -134 16 -260 36
-275 8 -6 14 -17 14 -25 0 -11 -2 -11 -11 1 -8 12 -9 9 -4 -10 16 -62 60 -168
67 -164 4 3 5 -2 2 -10 -3 -9 -1 -16 6 -16 6 0 8 -4 5 -10 -3 -5 -1 -10 4 -10
6 0 10 -3 9 -8 -5 -15 35 -91 45 -85 6 3 7 1 3 -5 -9 -15 33 -72 49 -66 7 3
16 0 20 -5 3 -6 12 -8 18 -5 7 4 9 4 5 0 -4 -5 -2 -19 3 -33 7 -19 6 -24 -3
-20 -7 2 -12 10 -10 17 4 16 -18 41 -29 34 -5 -3 -7 -10 -3 -15 3 -5 10 -6 16
-3 7 5 9 2 5 -8 -3 -10 6 -26 26 -44 17 -16 25 -20 17 -9 -15 20 -14 20 8 1
23 -20 30 -32 12 -21 -5 3 -10 2 -10 -4 0 -12 170 -171 183 -171 5 0 -1 8 -14
18 -17 15 -19 21 -9 27 8 5 11 4 6 -3 -3 -6 3 -16 14 -22 11 -6 18 -15 15 -20
-8 -12 41 -43 55 -35 6 3 8 11 4 17 -3 5 8 2 25 -6 17 -9 31 -19 31 -22 0 -3
-4 -3 -9 0 -5 4 -17 3 -26 0 -13 -5 -6 -14 32 -37 52 -33 153 -80 153 -72 0 3
10 -1 23 -9 35 -22 125 -48 138 -40 7 4 9 3 6 -3 -4 -6 4 -13 18 -15 15 -3 25
-1 25 6 0 7 3 6 8 -2 10 -15 145 -32 260 -32 99 0 272 20 272 31 0 5 9 13 20
19 14 7 20 7 20 0 0 -5 -8 -10 -17 -10 -9 0 -14 -3 -10 -6 9 -9 68 6 62 16 -3
5 4 7 15 5 28 -5 110 31 110 49 0 8 4 18 10 21 6 4 7 -1 3 -12 -6 -16 -5 -17
12 -3 11 9 16 10 11 3 -4 -7 -5 -13 -2 -13 14 0 103 55 119 74 10 11 16 15 12
8 -6 -11 -3 -11 13 -1 12 7 19 16 16 20 -2 4 2 6 10 5 8 0 44 26 81 58 63 56
66 60 49 73 -18 13 -17 14 6 8 21 -5 32 1 55 27 16 18 28 39 27 46 -4 17 27
54 39 47 4 -3 19 14 33 38 28 48 32 62 14 51 -7 -4 -8 -3 -4 5 4 6 11 9 16 6
5 -3 14 4 21 16 9 17 8 23 -2 30 -12 8 -6 13 12 11 7 -1 28 53 52 133 25 84
28 106 17 120 -9 10 -9 19 0 32 9 16 10 15 5 -7 -6 -24 -5 -24 7 -5 14 22 19
375 6 408 -7 16 -43 17 -558 17 l-550 0 0 -160 0 -160 394 0 393 0 7 -50 c6
-44 -8 -139 -19 -128 -3 2 0 21 6 42 6 20 9 42 7 47 -2 6 -11 -17 -20 -51 -13
-50 -14 -63 -3 -73 8 -8 10 -19 4 -34 -5 -13 -6 -31 -3 -40 5 -15 4 -16 -5 -3
-9 13 -11 13 -11 1 0 -11 -4 -9 -15 5 -8 10 -15 14 -15 8 -1 -41 -147 -205
-232 -261 -21 -14 -36 -29 -33 -33 3 -4 -2 -11 -11 -14 -8 -3 -13 -2 -10 3 3
5 -14 -1 -38 -12 -32 -14 -43 -24 -39 -36 5 -12 3 -13 -6 -5 -10 9 -28 7 -74
-7 -77 -23 -197 -39 -300 -39 -43 0 -87 -5 -98 -11 -11 -6 -25 -8 -32 -6 -7 3
-1 9 12 14 22 9 20 11 -27 17 -28 3 -70 13 -92 21 -33 11 -47 12 -63 3 -19 -9
-20 -9 -11 3 9 11 -1 20 -57 46 -54 25 -67 28 -63 15 3 -9 -1 -7 -8 6 -17 28
-55 55 -67 47 -5 -3 -13 0 -17 6 -5 8 -3 9 7 4 12 -8 12 -6 0 8 -7 10 -21 16
-30 15 -8 -2 -16 2 -16 8 0 11 -71 84 -81 84 -4 0 1 -11 10 -25 9 -14 12 -25
7 -25 -14 0 -33 38 -25 51 3 6 -3 20 -13 32 -11 12 -27 34 -36 49 -11 18 -23
26 -36 23 -14 -3 -18 1 -14 12 5 12 7 12 14 1 5 -7 9 -8 9 -3 0 12 -29 57 -44
67 -6 4 -11 13 -12 20 -3 34 -5 39 -14 33 -6 -4 -7 1 -3 11 5 13 3 15 -7 9 -9
-5 -11 -4 -6 4 8 12 -1 51 -12 50 -18 -3 -26 2 -14 10 10 6 9 22 -8 82 -16 59
-20 101 -20 209 1 139 -5 184 -22 174 -6 -4 -4 4 2 17 18 33 21 36 19 13 -6
-57 4 -50 21 14 11 40 18 78 16 85 -1 6 -1 8 2 3 3 -5 11 6 18 24 8 17 11 36
8 41 -3 5 -1 9 5 9 9 0 21 24 21 43 0 4 9 16 21 28 11 11 18 27 15 35 -3 8 -2
13 3 10 5 -3 20 12 35 34 14 22 61 74 103 116 70 69 97 114 69 114 -6 0 -5 5
2 12 10 10 15 10 22 -2 6 -9 5 -17 -3 -22 -6 -4 -9 -10 -5 -13 3 -4 18 1 32
10 25 17 25 18 9 32 -16 13 -16 13 4 3 19 -9 34 -5 90 24 150 75 331 108 485
87 74 -9 93 -9 100 1 7 12 12 4 9 -14 -2 -17 38 -7 42 10 4 14 5 14 6 -3 1
-15 14 -25 47 -38 25 -9 50 -14 55 -11 5 3 9 1 9 -5 0 -10 56 -44 63 -39 2 2
34 -19 72 -47 37 -27 74 -49 81 -47 9 2 11 -3 8 -13 -9 -21 19 -19 39 3 10 10
14 22 10 27 -5 4 -2 5 5 1 7 -4 15 -1 18 8 3 8 14 18 25 21 16 5 17 10 8 28
-9 18 -9 20 1 10 19 -18 125 84 108 104 -6 7 -8 16 -4 20 3 3 6 1 6 -5 0 -7 6
-12 13 -12 15 1 -48 57 -131 116 -68 47 -168 102 -158 85 4 -5 1 -13 -5 -17
-8 -5 -9 -3 -4 6 6 10 4 12 -10 6 -14 -5 -16 -4 -6 7 9 12 2 18 -39 36 -36 16
-55 19 -68 12 -12 -6 -23 -6 -33 1 -11 8 -11 9 3 4 10 -3 20 -1 22 3 5 8 -77
33 -169 51 -90 18 -303 20 -395 5z m157 -1 c-3 -3 -12 -4 -19 -1 -8 3 -5 6 6
6 11 1 17 -2 13 -5z m60 0 c-3 -3 -12 -4 -19 -1 -8 3 -5 6 6 6 11 1 17 -2 13
-5z m-164 -11 c-7 -2 -21 -2 -30 0 -10 3 -4 5 12 5 17 0 24 -2 18 -5z m312 -3
c13 -6 5 -7 -25 -3 -25 3 -47 7 -49 9 -9 8 55 2 74 -6z m105 -20 c8 -5 11 -10
5 -10 -5 0 -17 5 -25 10 -8 5 -10 10 -5 10 6 0 17 -5 25 -10z m-585 -20 c-11
-4 -24 -5 -28 -3 -5 3 -15 -3 -22 -13 -13 -18 -14 -18 -9 3 5 17 13 21 42 21
28 0 32 -2 17 -8z m632 4 c-3 -3 -12 -4 -19 -1 -8 3 -5 6 6 6 11 1 17 -2 13
-5z m143 -44 c11 -7 11 -10 2 -10 -7 0 -10 -4 -7 -10 3 -5 4 -10 1 -10 -3 0
-10 9 -16 20 -12 22 -4 25 20 10z m-1069 -60 c-13 -11 -17 -20 -10 -20 7 0 10
-2 7 -5 -3 -3 -13 -3 -22 1 -15 6 -13 9 11 25 37 23 44 23 14 -1z m1174 2 c-3
-3 -11 0 -18 7 -9 10 -8 11 6 5 10 -3 15 -9 12 -12z m-1222 -36 c4 -10 0 -14
-13 -13 -14 1 -16 4 -8 14 13 16 15 16 21 -1z m1312 -15 c3 -5 2 -12 -3 -15
-5 -3 -9 1 -9 9 0 17 3 19 12 6z m-1381 -26 c-9 -14 -18 -25 -21 -25 -5 0 5
18 20 38 17 22 18 13 1 -13z m17 -18 c-10 -9 -11 -8 -5 6 3 10 9 15 12 12 3
-3 0 -11 -7 -18z m1434 -7 c20 -22 30 -54 14 -44 -5 3 -7 9 -4 14 3 4 -7 18
-22 29 -16 11 -23 21 -17 21 6 0 19 -9 29 -20z m-1498 -15 c0 -17 -13 -20 -21
-6 -4 5 0 12 6 14 7 3 13 6 14 6 0 1 1 -6 1 -14z m1490 -20 c0 -8 -4 -12 -9
-9 -5 3 -6 10 -3 15 9 13 12 11 12 -6z m-830 -11 c-3 -3 -12 -4 -19 -1 -8 3
-5 6 6 6 11 1 17 -2 13 -5z m-176 -17 c-6 -8 -8 -17 -4 -20 3 -4 1 -7 -5 -7
-20 0 -23 19 -5 29 24 14 27 13 14 -2z m44 3 c3 -6 -1 -7 -9 -4 -18 7 -21 14
-7 14 6 0 13 -4 16 -10z m532 -4 c-5 -12 2 -13 30 -9 28 5 35 3 31 -8 -3 -8
-13 -13 -23 -11 -10 2 -14 -1 -10 -7 4 -8 -2 -7 -19 1 -26 11 -37 48 -15 48 6
0 9 -6 6 -14z m-612 -34 c-3 -3 -11 0 -18 7 -9 10 -8 11 6 5 10 -3 15 -9 12
-12z m-510 -2 c-3 -5 -12 -10 -18 -10 -7 0 -6 4 3 10 19 12 23 12 15 0z m389
-12 c-5 -7 -1 -9 13 -6 12 3 27 2 34 -2 7 -5 -2 -7 -22 -6 -53 5 -55 6 -39 16
20 13 23 12 14 -2z m86 8 c0 -3 -4 -8 -10 -11 -5 -3 -10 -1 -10 4 0 6 5 11 10
11 6 0 10 -2 10 -4z m765 -6 c3 -6 -1 -7 -9 -4 -18 7 -21 14 -7 14 6 0 13 -4
16 -10z m332 0 c16 13 16 12 -1 -8 -24 -28 -31 -28 -33 0 -2 17 0 19 7 9 7
-13 11 -13 27 -1z m-327 -24 c0 -11 -19 -15 -25 -6 -3 5 1 10 9 10 9 0 16 -2
16 -4z m-1309 -29 c-10 -9 -11 -8 -5 6 3 10 9 15 12 12 3 -3 0 -11 -7 -18z
m1387 -20 c8 -6 12 -5 12 3 0 10 3 10 15 0 8 -7 15 -18 15 -24 0 -7 -3 -6 -8
2 -5 7 -15 10 -24 7 -8 -3 -26 3 -39 15 -20 17 -21 19 -4 13 11 -3 26 -10 33
-16z m-1063 -47 c3 -5 1 -10 -4 -10 -6 0 -11 5 -11 10 0 6 2 10 4 10 3 0 8 -4
11 -10z m1142 -3 c2 -3 -3 -7 -11 -10 -8 -3 -20 0 -26 8 -10 12 -8 13 10 10
13 -2 25 -6 27 -8z m-1548 -41 c0 -6 -3 -5 -6 3 -5 11 -7 11 -14 0 -7 -11 -9
-11 -9 -1 0 7 -5 10 -12 6 -7 -4 -8 -3 -4 5 4 6 12 8 18 5 8 -5 9 -1 5 12 -7
18 -7 18 8 0 8 -11 15 -25 14 -30z m390 22 c-2 -2 -15 -13 -29 -25 -19 -17
-29 -19 -40 -12 -13 9 -13 10 2 6 9 -3 24 3 34 14 9 10 22 19 27 19 6 0 8 -1
6 -2z m-80 -75 c-23 -29 -39 -45 -39 -38 0 11 35 54 44 55 5 0 2 -8 -5 -17z
m-379 0 c0 -5 -5 -15 -10 -23 -7 -12 -9 -10 -7 8 1 19 17 33 17 15z m316 -39
c-9 -9 -19 -14 -22 -11 -3 2 3 12 12 21 9 9 19 15 21 12 3 -3 -2 -13 -11 -22z
m5 -27 c-10 -9 -11 -8 -5 6 3 10 9 15 12 12 3 -3 0 -11 -7 -18z m-18 -11 c3
-8 -2 -20 -11 -27 -14 -11 -15 -11 -5 0 6 7 9 20 6 27 -3 8 -3 14 0 14 3 0 7
-6 10 -14z m-353 -25 c0 -5 -7 -22 -15 -37 -14 -27 -15 -27 -15 -6 0 12 4 22
10 22 5 0 7 7 4 15 -4 8 -1 15 5 15 6 0 11 -4 11 -9z m305 -58 c-19 -13 -31
-11 -21 5 3 5 13 9 22 9 15 0 15 -2 -1 -14z m-55 -78 c0 -8 -2 -15 -4 -15 -2
0 -6 7 -10 15 -3 8 -1 15 4 15 6 0 10 -7 10 -15z m-340 -130 c0 -5 -5 -3 -10
5 -5 8 -10 20 -10 25 0 6 5 3 10 -5 5 -8 10 -19 10 -25z m297 -17 c-3 -8 -6
-5 -6 6 -1 11 2 17 5 13 3 -3 4 -12 1 -19z m-18 -165 c-1 -32 -4 -47 -6 -33
-3 14 -10 28 -17 32 -8 6 -8 8 2 8 6 0 12 11 12 25 0 14 2 25 5 25 3 0 4 -26
4 -57z m1496 17 c-3 -5 -17 -10 -31 -10 -13 0 -24 5 -24 10 0 6 14 10 31 10
17 0 28 -4 24 -10z m495 6 c0 -2 -7 -6 -15 -10 -8 -3 -15 -1 -15 4 0 6 7 10
15 10 8 0 15 -2 15 -4z m7 -38 c-3 -8 -6 -5 -6 6 -1 11 2 17 5 13 3 -3 4 -12
1 -19z m-2320 -75 c-2 -16 -4 -3 -4 27 0 30 2 43 4 28 2 -16 2 -40 0 -55z
m320 -65 c-3 -8 -6 -5 -6 6 -1 11 2 17 5 13 3 -3 4 -12 1 -19z m-320 -30 c-3
-8 -6 -5 -6 6 -1 11 2 17 5 13 3 -3 4 -12 1 -19z m1762 -84 c2 -2 -117 -3
-265 -2 -148 1 -240 5 -204 8 64 6 461 1 469 -6z m-1422 -16 c-3 -8 -6 -5 -6
6 -1 11 2 17 5 13 3 -3 4 -12 1 -19z m1631 15 c-15 -2 -42 -2 -60 0 -18 2 -6
4 27 4 33 0 48 -2 33 -4z m67 -22 c-3 -5 -1 -12 5 -16 16 -10 12 -25 -5 -19
-17 7 -21 44 -4 44 5 0 8 -4 4 -9z m-1985 -21 c0 -5 -4 -10 -10 -10 -5 0 -10
5 -10 10 0 6 5 10 10 10 6 0 10 -4 10 -10z m297 -12 c-3 -8 -6 -5 -6 6 -1 11
2 17 5 13 3 -3 4 -12 1 -19z m1690 -40 c-3 -8 -6 -5 -6 6 -1 11 2 17 5 13 3
-3 4 -12 1 -19z m258 2 c3 -5 1 -10 -4 -10 -6 0 -11 5 -11 10 0 6 2 10 4 10 3
0 8 -4 11 -10z m-1925 -40 c0 -5 -2 -10 -4 -10 -3 0 -8 5 -11 10 -3 6 -1 10 4
10 6 0 11 -4 11 -10z m-315 -9 c3 -5 1 -12 -4 -15 -5 -3 -11 1 -15 9 -6 16 9
21 19 6z m313 -36 c-3 -3 -9 2 -12 12 -6 14 -5 15 5 6 7 -7 10 -15 7 -18z
m1925 -55 c-3 -11 -7 -20 -9 -20 -2 0 -4 9 -4 20 0 11 4 20 9 20 5 0 7 -9 4
-20z m-1850 -46 c-4 -12 -8 -13 -14 -3 -9 15 -2 32 11 24 5 -3 6 -13 3 -21z
m63 -81 c23 -35 26 -51 11 -60 -7 -3 -9 -3 -5 1 3 4 -2 16 -13 27 -10 10 -16
25 -13 34 5 11 2 14 -12 8 -12 -4 -15 -3 -10 5 11 18 22 14 42 -15z m1731 -5
c-3 -7 -5 -2 -5 12 0 14 2 19 5 13 2 -7 2 -19 0 -25z m-301 10 c4 -7 3 -8 -5
-4 -18 12 -25 -22 -7 -39 20 -20 20 -21 -3 -21 -12 0 -17 5 -13 15 3 9 1 12
-6 7 -17 -10 -15 5 4 32 17 25 20 26 30 10z m-1788 -33 c-3 -3 -9 2 -12 12 -6
14 -5 15 5 6 7 -7 10 -15 7 -18z m1705 -62 c-5 -12 -3 -14 7 -8 8 5 11 4 6 -3
-4 -6 -13 -9 -21 -5 -8 3 -15 -1 -15 -8 0 -7 -3 -9 -7 -6 -3 4 2 16 12 27 22
24 26 25 18 3z m-1303 -23 c0 -5 -2 -10 -4 -10 -3 0 -8 5 -11 10 -3 6 -1 10 4
10 6 0 11 -4 11 -10z m1635 -19 c-3 -6 -11 -8 -17 -5 -6 4 -5 9 3 15 16 10 23
4 14 -10z m-375 5 c0 -2 -8 -10 -17 -17 -16 -13 -17 -12 -4 4 13 16 21 21 21
13z m8 -38 c-3 -7 -18 -14 -34 -15 -20 -1 -24 1 -15 6 8 5 21 7 29 3 10 -3 13
-1 8 6 -4 7 -2 12 4 12 7 0 10 -6 8 -12z m-77 -32 c-6 -8 -22 -16 -34 -20 -21
-5 -21 -4 3 14 29 23 48 26 31 6z m-1016 -16 c-3 -5 -1 -10 4 -10 6 0 11 -5
11 -10 0 -6 -8 -5 -19 2 -19 12 -19 28 0 28 6 0 7 -4 4 -10z m-382 -33 c4 3 7
2 7 -4 0 -21 -28 -22 -33 -2 -4 15 -2 18 7 10 7 -6 16 -8 19 -4z m1747 4 c0
-5 -7 -12 -16 -15 -14 -5 -15 -4 -4 9 14 17 20 19 20 6z m-1234 -39 c-4 -3
-14 2 -24 12 -16 18 -16 18 6 6 13 -6 21 -14 18 -18z m779 19 c3 -6 -4 -15
-16 -21 -12 -7 -19 -8 -15 -2 3 6 0 13 -6 16 -7 3 -2 3 11 0 16 -4 21 -3 17 5
-4 6 -5 11 -2 11 3 0 7 -4 11 -9z m-1281 -27 c3 -8 2 -12 -4 -9 -6 3 -10 10
-10 16 0 14 7 11 14 -7z m47 -17 c13 -10 14 -14 3 -25 -8 -7 -15 -8 -19 -2 -3
6 0 10 7 10 8 1 6 6 -6 15 -11 8 -16 15 -10 15 5 0 16 -6 25 -13z m579 -12
c17 -9 30 -18 30 -21 0 -4 -59 23 -69 32 -10 9 13 3 39 -11z m62 -20 c0 -5 -5
-11 -10 -13 -5 -1 -9 4 -9 13 0 9 4 14 9 13 5 -2 10 -8 10 -13z m455 -11 c-9
-9 -28 6 -21 18 4 6 10 6 17 -1 6 -6 8 -13 4 -17z m533 23 c0 -2 -12 -14 -27
-28 l-28 -24 24 28 c23 25 31 32 31 24z m-1060 -17 c0 -5 -2 -10 -4 -10 -3 0
-8 5 -11 10 -3 6 -1 10 4 10 6 0 11 -4 11 -10z m374 -5 c-7 -16 -24 -21 -24
-6 0 8 7 13 27 20 1 1 0 -6 -3 -14z m66 3 c0 -11 -22 -10 -39 1 -10 7 -7 9 12
8 15 -1 27 -5 27 -9z m30 8 c0 -3 -4 -8 -10 -11 -5 -3 -10 -1 -10 4 0 6 5 11
10 11 6 0 10 -2 10 -4z m524 -45 c3 -5 -1 -11 -9 -15 -15 -6 -29 7 -18 18 9 9
21 8 27 -3z m-1328 -118 c-7 -7 -26 7 -26 19 0 6 6 6 15 -2 9 -7 13 -15 11
-17z m1193 13 c-10 -9 -69 -36 -69 -32 0 7 52 35 64 36 5 0 7 -2 5 -4z m-1152
-22 c-3 -3 -12 -4 -19 -1 -8 3 -5 6 6 6 11 1 17 -2 13 -5z m83 -25 c13 -9 13
-10 -2 -6 -9 3 -19 1 -22 -6 -2 -7 -5 -4 -5 6 -1 20 7 21 29 6z m45 -29 c3 -5
1 -10 -4 -10 -6 0 -11 5 -11 10 0 6 2 10 4 10 3 0 8 -4 11 -10z m205 -55 c0
-5 -5 -3 -10 5 -5 8 -10 20 -10 25 0 6 5 3 10 -5 5 -8 10 -19 10 -25z m-26 10
c3 -8 1 -15 -3 -15 -5 0 -11 7 -15 15 -3 8 -1 15 3 15 5 0 11 -7 15 -15z m73
-21 c-3 -3 -12 -4 -19 -1 -8 3 -5 6 6 6 11 1 17 -2 13 -5z m146 -11 c-18 -2
-48 -2 -65 0 -18 2 -4 4 32 4 36 0 50 -2 33 -4z"/>
<path d="M8255 5295 c0 -632 1 -890 2 -572 2 318 2 836 0 1150 -1 315 -2 55
-2 -578z"/>
<path d="M3420 5654 c-191 -33 -342 -113 -461 -242 -80 -87 -123 -159 -160
-264 -133 -389 29 -796 386 -968 124 -60 212 -80 352 -80 232 1 400 68 559
225 91 91 149 184 191 310 24 73 27 94 27 235 1 178 -11 235 -74 365 -92 191
-267 335 -480 395 -73 21 -276 35 -340 24z m199 -304 c213 -40 361 -230 364
-465 1 -152 -45 -267 -148 -364 -116 -110 -273 -148 -423 -102 -176 53 -302
218 -318 414 -26 320 231 573 525 517z"/>
<path d="M6842 5653 c-32 -4 -33 -5 -15 -19 17 -14 16 -14 -6 -4 -17 9 -35 9
-69 0 -71 -18 -143 -51 -135 -63 3 -6 1 -7 -5 -3 -10 6 -54 -15 -72 -34 -3 -3
-14 -10 -25 -16 -11 -6 -20 -15 -20 -20 0 -15 -16 -34 -28 -34 -6 0 -2 7 9 15
10 8 14 15 8 15 -16 0 -45 -35 -37 -45 5 -4 3 -5 -4 -1 -6 3 -14 2 -18 -4 -3
-5 -1 -10 6 -10 16 0 5 -11 -13 -14 -20 -3 -38 -16 -38 -27 0 -6 5 -7 12 -3 7
5 8 3 4 -5 -5 -7 -11 -10 -14 -7 -3 3 -14 -1 -24 -10 -13 -12 -15 -21 -7 -30
7 -9 6 -14 -2 -20 -8 -4 -9 -3 -5 4 4 7 3 12 -3 12 -24 0 -97 -149 -127 -260
-25 -92 -25 -290 0 -388 21 -82 97 -238 114 -235 6 2 9 -4 6 -11 -8 -21 126
-158 206 -211 74 -49 108 -66 96 -47 -4 7 -2 12 3 12 6 0 11 -6 11 -14 0 -13
30 -27 125 -57 45 -15 239 -18 300 -6 39 9 39 9 16 21 -15 9 -20 16 -12 20 6
4 11 2 11 -5 0 -7 8 -9 23 -5 49 16 60 16 32 2 -16 -8 -26 -15 -21 -15 27 -3
150 70 151 89 0 11 45 62 45 52 0 -6 -7 -18 -16 -27 -9 -9 -14 -18 -12 -20 3
-3 14 6 25 19 12 13 19 27 16 30 -4 3 4 6 16 6 23 0 23 -1 20 -132 -2 -73 0
-143 4 -155 5 -12 3 -24 -3 -28 -6 -3 -8 -11 -5 -16 4 -5 1 -9 -4 -9 -6 0 -11
-6 -11 -13 0 -7 -7 -22 -15 -33 -11 -15 -11 -9 2 26 10 25 21 48 25 51 5 3 6
13 2 23 -5 12 -12 1 -26 -40 -20 -60 -60 -125 -97 -158 -16 -15 -18 -22 -10
-33 8 -8 8 -13 1 -13 -6 0 -18 -3 -28 -7 -13 -5 -15 -3 -9 8 5 8 5 11 -1 6 -5
-5 -9 -14 -9 -20 0 -5 -6 -12 -14 -15 -8 -3 -11 0 -8 5 3 5 -24 -1 -61 -14
-57 -20 -84 -23 -179 -21 -61 1 -110 5 -107 9 2 3 -15 14 -39 23 -23 9 -63 33
-89 54 -48 37 -123 130 -133 164 -4 10 -13 18 -20 18 -22 0 -65 -22 -60 -31 3
-4 -3 -5 -13 -2 -11 2 -26 -2 -34 -11 -9 -8 -19 -12 -24 -8 -5 4 -3 0 4 -10 9
-12 10 -18 2 -23 -6 -4 -14 -4 -17 -1 -4 3 0 6 8 6 9 1 8 4 -5 11 -14 9 -20 8
-27 -2 -4 -8 -14 -14 -21 -15 -7 0 -20 -2 -29 -2 -20 -2 -31 -36 -16 -51 8 -8
8 -11 -1 -11 -6 0 -9 -8 -6 -17 5 -14 4 -15 -4 -4 -6 8 -9 27 -7 42 3 21 0 27
-11 22 -10 -3 -12 -13 -8 -27 13 -42 78 -140 95 -142 5 -1 15 -2 22 -3 9 -1 9
-3 -2 -10 -10 -7 -8 -15 14 -40 15 -17 32 -28 37 -25 5 3 7 2 6 -3 -2 -4 2 -9
7 -11 6 -2 13 -12 18 -24 4 -13 13 -18 23 -14 8 3 13 2 9 -3 -3 -5 7 -18 22
-29 44 -30 61 -33 73 -14 10 15 10 14 5 -4 -7 -26 16 -47 54 -48 16 -1 27 -4
25 -8 -7 -11 83 -36 180 -49 76 -10 115 -10 193 0 111 15 260 61 255 81 -1 6
3 10 10 7 18 -6 77 29 112 67 16 17 25 24 21 16 -5 -8 6 -2 24 15 17 16 29 35
26 43 -2 7 -1 10 5 7 9 -6 36 34 32 48 -1 5 2 6 7 2 13 -8 84 133 77 152 -3 8
-2 11 4 8 10 -6 32 63 34 110 0 17 6 33 11 37 14 10 19 1602 5 1593 -5 -3 -10
-2 -10 4 0 5 6 12 13 14 6 3 -59 6 -145 6 l-158 1 0 -65 c0 -36 -4 -65 -8 -65
-5 0 -21 14 -37 30 -16 17 -34 30 -39 30 -6 0 1 -10 17 -21 28 -22 35 -43 16
-55 -7 -4 -9 0 -5 13 5 15 0 25 -19 37 -14 9 -24 22 -22 29 1 6 -4 11 -10 10
-7 -2 -13 2 -13 8 0 16 -120 68 -196 84 -66 14 -140 17 -212 8z m113 -13 c3
-5 -3 -10 -14 -10 -12 0 -21 5 -21 10 0 6 6 10 14 10 8 0 18 -4 21 -10z m-78
-6 c-3 -3 -12 -4 -19 -1 -8 3 -5 6 6 6 11 1 17 -2 13 -5z m168 -4 c-27 -12
-43 -12 -25 0 8 5 22 9 30 9 10 0 8 -3 -5 -9z m342 -62 c-3 -7 -5 -2 -5 12 0
14 2 19 5 13 2 -7 2 -19 0 -25z m-671 4 c25 -15 9 -15 -18 -1 -15 8 -22 8 -28
-1 -5 -8 -9 -8 -13 3 -7 18 27 17 59 -1z m214 2 c0 -2 -7 -4 -15 -4 -8 0 -15
4 -15 10 0 5 7 7 15 4 8 -4 15 -8 15 -10z m-335 -52 c-3 -3 -11 0 -18 7 -9 10
-8 11 6 5 10 -3 15 -9 12 -12z m775 -57 c0 -1 -9 -5 -19 -8 -13 -3 -18 -1 -14
9 4 10 33 10 33 -1z m-930 -60 c0 -7 -30 -13 -34 -7 -3 4 4 9 15 9 10 1 19 0
19 -2z m480 -25 c0 -5 -8 -11 -17 -11 -10 -1 25 -5 77 -9 113 -9 172 -32 247
-96 29 -25 50 -38 46 -28 -4 12 -3 15 5 10 7 -4 12 -18 12 -30 0 -13 8 -30 18
-37 14 -11 15 -11 5 1 -7 8 -13 19 -13 24 0 6 7 0 16 -12 8 -12 13 -26 10 -31
-3 -4 4 -8 17 -7 17 1 21 -4 20 -22 -2 -13 1 -21 7 -17 6 4 7 -2 1 -17 -6 -16
-4 -42 4 -73 11 -43 13 -46 18 -25 3 14 4 -2 2 -35 -3 -44 -1 -52 4 -30 l9 30
1 -27 c0 -15 -3 -29 -7 -32 -5 -3 -10 -31 -11 -62 -1 -31 -6 -77 -11 -101 -6
-24 -7 -49 -4 -55 4 -6 2 -8 -3 -5 -12 8 -26 -20 -17 -34 3 -5 1 -9 -3 -9 -5
0 -17 -15 -28 -32 -10 -18 -42 -57 -69 -87 -30 -32 -40 -47 -25 -38 21 14 26
15 26 3 0 -8 -6 -12 -13 -9 -6 2 -15 -1 -19 -6 -3 -6 -11 -9 -16 -6 -5 4 -21
-2 -37 -13 -61 -43 -188 -69 -264 -54 -27 5 -48 6 -48 1 0 -5 -11 -8 -25 -7
-14 1 -25 6 -25 11 0 5 10 6 23 2 12 -3 -5 7 -38 24 -32 16 -62 28 -66 25 -4
-2 -11 1 -15 7 -4 8 -3 9 4 5 25 -15 10 1 -32 37 -41 33 -46 35 -60 21 -9 -8
-16 -11 -16 -5 0 5 5 13 10 16 6 3 10 11 10 16 0 6 -5 7 -12 3 -6 -4 -8 -3 -4
4 10 16 -34 86 -47 73 -7 -7 -7 -17 2 -33 11 -22 11 -21 6 7 l-5 30 14 -25
c19 -32 2 -54 -20 -26 -14 20 -16 79 -2 70 11 -7 10 1 -4 31 -8 19 -14 22 -21
13 -5 -8 -6 -3 -3 15 4 15 3 33 -1 40 -7 12 -8 20 -11 127 -2 46 -5 61 -12 50
-6 -9 -10 -10 -10 -3 0 6 6 18 13 25 7 7 21 40 31 73 10 33 24 75 32 93 7 18
14 36 16 40 2 4 31 34 66 68 60 58 170 124 208 124 10 0 14 3 11 7 -4 3 1 12
11 19 21 16 32 17 32 4z m53 -7 c-7 -2 -19 -2 -25 0 -7 3 -2 5 12 5 14 0 19
-2 13 -5z m74 1 c-3 -3 -12 -4 -19 -1 -8 3 -5 6 6 6 11 1 17 -2 13 -5z m69
-19 c10 -8 14 -15 9 -15 -6 0 -15 4 -20 9 -6 5 -19 11 -30 14 -20 5 -19 5 1 6
11 0 29 -6 40 -14z m-742 -3 c3 -5 -1 -9 -9 -9 -8 0 -12 4 -9 9 3 4 7 8 9 8 2
0 6 -4 9 -8z m431 -12 c-3 -5 -12 -10 -18 -10 -7 0 -6 4 3 10 19 12 23 12 15
0z m375 -11 c0 -5 5 -7 12 -3 7 4 8 3 4 -4 -4 -7 -3 -12 3 -12 5 0 11 6 14 13
4 10 7 10 18 0 9 -10 10 -13 1 -13 -9 0 -9 -4 0 -20 9 -14 15 -16 21 -7 6 9 8
9 5 -1 -5 -19 -9 -18 -55 14 -41 28 -53 44 -33 44 6 0 10 -5 10 -11z m-480
-14 c-7 -8 -17 -15 -22 -15 -6 0 -5 7 2 15 7 8 17 15 22 15 6 0 5 -7 -2 -15z
m60 9 c0 -8 -19 -13 -24 -6 -3 5 1 9 9 9 8 0 15 -2 15 -3z m-401 -45 c-19 -11
-24 -3 -8 14 8 9 16 11 18 5 2 -6 -3 -14 -10 -19z m332 -12 c-10 -9 -11 -8 -5
6 3 10 9 15 12 12 3 -3 0 -11 -7 -18z m-292 4 c20 -13 -2 -23 -53 -25 -36 -1
-41 0 -30 12 8 7 17 11 22 8 4 -2 14 -1 22 5 18 11 22 11 39 0z m265 -7 c5
-14 4 -15 -9 -4 -17 14 -19 20 -6 20 5 0 12 -7 15 -16z m646 -14 c0 -5 -2 -10
-4 -10 -3 0 -8 5 -11 10 -3 6 -1 10 4 10 6 0 11 -4 11 -10z m-676 -35 c-4 -8
-11 -15 -16 -15 -6 0 -5 6 2 15 7 8 14 15 16 15 2 0 1 -7 -2 -15z m-361 -30
c-3 -9 -8 -14 -10 -11 -3 3 -2 9 2 15 9 16 15 13 8 -4z m301 -40 c-4 -8 -8
-15 -10 -15 -2 0 -4 7 -4 15 0 8 4 15 10 15 5 0 7 -7 4 -15z m-328 -102 c-3
-4 -6 -1 -6 6 0 7 -4 9 -10 6 -6 -4 -7 1 -3 11 6 15 7 15 15 -1 6 -9 7 -19 4
-22z m-35 -133 c-4 -41 -9 -59 -10 -39 -1 42 11 139 16 124 1 -6 -1 -44 -6
-85z m1206 -42 c-3 -8 -6 -5 -6 6 -1 11 2 17 5 13 3 -3 4 -12 1 -19z m-909
-19 c-3 -8 -7 -3 -11 10 -4 17 -3 21 5 13 5 -5 8 -16 6 -23z m9 -61 c-3 -8 -6
-5 -6 6 -1 11 2 17 5 13 3 -3 4 -12 1 -19z m-273 -90 c6 -4 6 -14 -2 -30 -8
-14 -10 -15 -7 -4 3 10 1 24 -4 30 -5 6 -11 31 -14 56 l-6 45 11 -45 c6 -25
16 -48 22 -52z m19 -89 c-4 -15 -8 -17 -14 -8 -6 11 4 28 18 29 0 0 -1 -9 -4
-21z m1093 2 c-11 -12 -15 -25 -11 -33 6 -10 5 -10 -4 -2 -15 14 1 54 21 54 6
0 3 -9 -6 -19z m-36 -46 c0 -8 -4 -15 -10 -15 -5 0 -7 7 -4 15 4 8 8 15 10 15
2 0 4 -7 4 -15z m-1030 -30 c0 -8 -2 -15 -4 -15 -2 0 -6 7 -10 15 -3 8 -1 15
4 15 6 0 10 -7 10 -15z m364 -13 c3 -5 -1 -9 -9 -9 -8 0 -12 4 -9 9 3 4 7 8 9
8 2 0 6 -4 9 -8z m42 -44 c4 -6 3 -8 -4 -4 -5 3 -13 0 -15 -6 -3 -8 -6 -6 -6
5 -1 19 14 23 25 5z m78 -63 c-7 -16 -24 -21 -24 -6 0 8 7 13 27 20 1 1 0 -6
-3 -14z m413 9 c-3 -3 -12 -4 -19 -1 -8 3 -5 6 6 6 11 1 17 -2 13 -5z m-36
-22 c-7 -2 -18 1 -23 6 -8 8 -4 9 13 5 13 -4 18 -8 10 -11z m-41 -2 c0 -5 -5
-10 -11 -10 -5 0 -7 5 -4 10 3 6 8 10 11 10 2 0 4 -4 4 -10z m-729 -17 c13
-16 12 -17 -3 -4 -10 7 -18 15 -18 17 0 8 8 3 21 -13z m84 -51 c13 3 22 1 19
-3 -9 -15 -51 -10 -65 9 -13 15 -12 16 3 3 10 -7 29 -11 43 -9z m25 -54 c0 -6
-6 -5 -15 2 -8 7 -15 14 -15 16 0 2 7 1 15 -2 8 -4 15 -11 15 -16z m47 -18
c-1 -11 -5 -20 -9 -20 -10 0 -10 4 -2 24 8 22 13 20 11 -4z m850 -72 c-2 -18
-4 -6 -4 27 0 33 2 48 4 33 2 -15 2 -42 0 -60z m-767 10 c0 -13 -13 -9 -40 12
l-25 20 33 -12 c17 -7 32 -16 32 -20z m614 6 c3 -8 2 -12 -4 -9 -6 3 -10 10
-10 16 0 14 7 11 14 -7z m-403 -63 c-11 -7 -10 -10 5 -14 14 -3 13 -5 -7 -6
-17 -1 -26 4 -26 14 0 9 9 15 21 15 16 0 18 -2 7 -9z m-44 -7 c-3 -3 -12 -4
-19 -1 -8 3 -5 6 6 6 11 1 17 -2 13 -5z m276 -11 c-7 -2 -21 -2 -30 0 -10 3
-4 5 12 5 17 0 24 -2 18 -5z m-90 -10 c-7 -2 -21 -2 -30 0 -10 3 -4 5 12 5 17
0 24 -2 18 -5z m647 -133 c0 -5 -5 -10 -11 -10 -5 0 -7 5 -4 10 3 6 8 10 11
10 2 0 4 -4 4 -10z m27 -32 c-3 -8 -6 -5 -6 6 -1 11 2 17 5 13 3 -3 4 -12 1
-19z m-20 -10 c-3 -8 -6 -5 -6 6 -1 11 2 17 5 13 3 -3 4 -12 1 -19z m-1075
-50 c-8 -8 -9 -4 -5 13 4 13 8 18 11 10 2 -7 -1 -18 -6 -23z m803 -6 c-15 -16
-16 -15 -4 12 7 15 15 23 17 16 3 -7 -3 -19 -13 -28z m-765 -37 c0 -5 -5 -3
-10 5 -5 8 -10 20 -10 25 0 6 5 3 10 -5 5 -8 10 -19 10 -25z m1040 25 c0 -5
-5 -10 -11 -10 -5 0 -7 5 -4 10 3 6 8 10 11 10 2 0 4 -4 4 -10z m-1077 -7 c3
-5 -18 -7 -46 -5 -86 5 -96 9 -25 11 37 0 69 -2 71 -6z m763 -13 c0 -11 -5
-21 -11 -21 -5 0 -19 -8 -30 -17 -20 -17 -20 -17 -1 5 10 13 23 20 29 16 6 -4
8 0 4 9 -3 9 -3 19 0 22 9 9 10 8 9 -14z m-696 -18 c0 -5 9 -18 20 -30 12 -12
16 -22 10 -22 -6 0 -13 7 -16 15 -4 8 -11 12 -18 8 -6 -3 -8 -3 -4 2 4 4 3 14
-3 22 -9 9 -8 13 0 13 6 0 11 -4 11 -8z m640 -46 c0 -2 -7 -7 -16 -10 -8 -3
-12 -2 -9 4 6 10 25 14 25 6z m-625 -16 c3 -6 -1 -7 -9 -4 -18 7 -21 14 -7 14
6 0 13 -4 16 -10z m50 -11 c-4 -5 -12 -9 -18 -8 -9 0 -8 2 1 6 6 2 9 10 6 15
-4 7 -2 8 5 4 6 -4 9 -12 6 -17z m-361 -5 c3 -8 2 -12 -4 -9 -6 3 -10 10 -10
16 0 14 7 11 14 -7z m1237 -31 c-12 -20 -14 -14 -5 12 4 9 9 14 11 11 3 -2 0
-13 -6 -23z m-1191 -4 c-9 -16 -14 -18 -26 -8 -18 15 -18 23 1 15 8 -3 15 -1
15 4 0 6 5 10 10 10 7 0 7 -7 0 -21z m835 1 c-3 -5 -16 -15 -28 -21 -19 -9
-19 -8 3 10 28 23 34 26 25 11z m-405 -20 c0 -5 -4 -10 -10 -10 -5 0 -10 5
-10 10 0 6 5 10 10 10 6 0 10 -4 10 -10z m265 -20 c3 -5 -1 -10 -10 -10 -9 0
-13 5 -10 10 3 6 8 10 10 10 2 0 7 -4 10 -10z m-108 -6 c-3 -3 -12 -4 -19 -1
-8 3 -5 6 6 6 11 1 17 -2 13 -5z m-87 -14 c0 -5 -4 -10 -9 -10 -6 0 -13 5 -16
10 -3 6 1 10 9 10 9 0 16 -4 16 -10z m-434 -32 c3 -4 -1 -5 -10 -4 -8 1 -18 5
-22 8 -3 4 1 5 10 4 8 -1 18 -5 22 -8z m512 5 c-10 -2 -26 -2 -35 0 -10 3 -2
5 17 5 19 0 27 -2 18 -5z m-464 -28 c11 -8 15 -15 9 -15 -19 0 -43 12 -43 21
0 13 12 11 34 -6z m970 -3 c3 -5 -1 -9 -9 -9 -8 0 -15 4 -15 9 0 4 4 8 9 8 6
0 12 -4 15 -8z m-139 -100 c-3 -3 -11 0 -18 7 -9 10 -8 11 6 5 10 -3 15 -9 12
-12z m45 14 c0 -2 -7 -7 -16 -10 -8 -3 -12 -2 -9 4 6 10 25 14 25 6z m-245
-66 c-3 -5 -14 -10 -23 -9 -14 0 -13 2 3 9 27 11 27 11 20 0z m74 -11 c-18
-11 -46 -12 -53 -1 -3 4 11 9 31 9 25 1 32 -2 22 -8z m-301 -26 c-10 -2 -28
-2 -40 0 -13 2 -5 4 17 4 22 1 32 -1 23 -4z m65 -10 c-7 -2 -21 -2 -30 0 -10
3 -4 5 12 5 17 0 24 -2 18 -5z"/>
<path d="M7346 5107 c3 -10 9 -15 12 -12 3 3 0 11 -7 18 -10 9 -11 8 -5 -6z"/>
<path d="M8995 5644 c-104 -21 -238 -91 -320 -166 -117 -107 -207 -270 -235
-428 -15 -82 -15 -247 -1 -327 51 -279 239 -498 506 -589 107 -37 302 -45 422
-19 98 21 219 78 300 139 61 46 173 164 173 182 0 8 -226 162 -252 172 -5 2
-18 -9 -30 -25 -92 -119 -218 -183 -361 -183 -158 0 -271 59 -359 188 -17 24
-26 48 -22 52 5 5 79 38 164 73 85 35 287 119 447 186 161 66 295 121 297 121
2 0 34 13 70 30 l66 29 -35 82 c-88 209 -214 353 -382 438 -111 56 -302 75
-448 45z m325 -313 c24 -13 57 -33 73 -45 31 -23 73 -84 63 -93 -12 -12 -699
-293 -705 -288 -11 12 18 155 42 208 45 98 148 193 250 229 75 27 215 21 277
-11z"/>
<path d="M2248 4866 c-7 -36 9 -57 18 -22 3 15 2 32 -3 37 -7 7 -12 2 -15 -15z"/>
<path d="M2420 4545 c-7 -9 -11 -18 -8 -20 3 -3 11 1 18 10 7 9 11 18 8 20 -3
3 -11 -1 -18 -10z"/>
</g>
</svg>
