<?xml version="1.0" standalone="no"?>
<!DOCTYPE svg PUBLIC "-//W3C//DTD SVG 20010904//EN"
 "http://www.w3.org/TR/2001/REC-SVG-20010904/DTD/svg10.dtd">
<svg version="1.0" xmlns="http://www.w3.org/2000/svg"
 width="859.000000pt" height="859.000000pt" viewBox="0 0 859.000000 859.000000"
 preserveAspectRatio="xMidYMid meet">
<metadata>
Created by potrace 1.16, written by Peter Selinger 2001-2019
</metadata>
<g transform="translate(0.000000,859.000000) scale(0.100000,-0.100000)"
fill="#000000" stroke="none">
<path d="M4060 8454 c-19 -2 -91 -9 -160 -15 -801 -70 -1603 -405 -2257 -943
-153 -127 -450 -428 -574 -583 -465 -582 -755 -1228 -873 -1943 -36 -216 -45
-322 -53 -570 -29 -1031 323 -2025 1001 -2819 119 -141 344 -363 486 -482 953
-796 2171 -1123 3404 -914 268 46 643 158 914 274 1190 509 2087 1559 2401
2810 89 353 124 638 124 1011 1 288 -12 447 -54 701 -201 1203 -926 2264
-1974 2888 -526 313 -1075 498 -1685 567 -126 14 -621 27 -700 18z m708 -368
c623 -84 1162 -282 1652 -609 1362 -907 1990 -2545 1589 -4142 -108 -426 -317
-878 -583 -1255 -296 -420 -699 -794 -1146 -1062 -819 -493 -1781 -659 -2730
-472 -899 177 -1737 706 -2296 1449 -403 535 -648 1144 -741 1840 -25 189 -25
715 0 910 79 608 269 1131 594 1633 281 434 681 834 1115 1115 536 347 1114
547 1758 607 142 13 654 4 788 -14z"/>
<path d="M3860 7968 c-91 -11 -168 -23 -173 -27 -7 -8 -51 -1081 -43 -1088 4
-5 269 36 275 43 3 3 11 161 18 351 7 191 14 351 15 355 2 5 57 -146 122 -334
65 -189 123 -351 128 -361 8 -15 22 -17 110 -15 l100 3 37 105 c21 58 77 219
126 358 48 139 89 251 90 250 2 -2 8 -163 15 -358 7 -195 13 -356 14 -357 3
-4 278 -44 280 -41 3 3 -31 1002 -36 1058 l-3 35 -179 22 c-99 12 -181 21
-181 20 -2 -3 -36 -101 -155 -447 -56 -162 -105 -298 -109 -302 -4 -4 -65 162
-137 369 -72 207 -135 378 -140 379 -5 1 -83 -7 -174 -18z"/>
<path d="M6615 7032 c-45 -59 -191 -253 -325 -430 l-244 -324 94 -89 c52 -48
101 -88 108 -89 8 0 171 72 364 160 193 88 352 159 353 158 2 -2 -105 -144
-236 -315 l-239 -313 71 -120 71 -119 51 23 c130 59 860 397 896 415 l40 21
-67 114 c-37 63 -72 115 -77 116 -6 0 -132 -56 -280 -124 -149 -68 -272 -122
-274 -121 -2 2 48 71 111 152 243 315 278 362 278 370 0 17 -171 218 -184 215
-7 -1 -138 -61 -291 -132 -153 -72 -282 -130 -287 -130 -10 0 -14 -5 204 280
l157 205 -97 92 c-53 51 -101 92 -107 92 -5 0 -46 -48 -90 -107z"/>
<path d="M1824 7011 c-83 -21 -110 -48 -393 -399 -152 -189 -284 -355 -295
-369 -18 -24 -18 -24 5 -41 13 -9 205 -162 427 -340 221 -177 406 -321 411
-318 20 12 579 722 606 769 27 47 30 61 30 137 0 75 -3 91 -30 138 -35 64 -71
97 -143 130 -72 33 -174 29 -249 -9 l-50 -26 1 71 c0 55 -4 80 -21 112 -25 48
-92 110 -137 129 -43 18 -123 26 -162 16z m117 -309 c39 -43 46 -93 22 -134
-17 -29 -272 -349 -309 -387 -11 -12 -21 -8 -66 27 -29 22 -71 56 -92 75 l-39
33 161 202 c89 110 169 206 179 212 10 6 40 9 67 7 40 -4 55 -10 77 -35z m376
-247 c33 -38 40 -92 17 -135 -25 -44 -333 -430 -344 -430 -9 0 -173 138 -178
149 -1 3 76 103 170 221 139 173 180 217 207 226 46 15 100 2 128 -31z"/>
<path d="M4090 6714 c-14 -2 -65 -9 -115 -15 -335 -41 -710 -182 -1005 -380
-155 -104 -234 -169 -367 -300 -375 -368 -612 -830 -700 -1364 -28 -171 -26
-585 5 -755 92 -512 303 -931 651 -1292 382 -397 862 -643 1410 -725 162 -24
522 -24 681 0 263 41 474 105 705 216 260 125 463 269 670 476 317 317 533
695 641 1124 54 214 68 336 68 586 1 297 -28 493 -111 750 -252 782 -902 1400
-1687 1606 -219 57 -331 71 -586 74 -129 2 -246 2 -260 -1z m508 -360 c361
-47 733 -208 1022 -441 163 -132 348 -342 459 -521 188 -302 311 -710 311
-1028 l0 -74 -1040 0 -1040 0 0 -1042 0 -1041 -127 6 c-402 20 -800 166 -1131
414 -96 72 -276 245 -353 339 -260 318 -441 761 -464 1134 -3 52 -8 116 -11
143 l-5 47 1046 0 1045 0 0 1044 0 1044 88 -5 c48 -2 138 -11 200 -19z"/>
</g>
</svg>
