<?xml version="1.0" standalone="no"?>
<!DOCTYPE svg PUBLIC "-//W3C//DTD SVG 20010904//EN"
 "http://www.w3.org/TR/2001/REC-SVG-20010904/DTD/svg10.dtd">
<svg version="1.0" xmlns="http://www.w3.org/2000/svg"
 width="922.000000pt" height="922.000000pt" viewBox="0 0 922.000000 922.000000"
 preserveAspectRatio="xMidYMid meet">
<metadata>
Created by potrace 1.16, written by Peter Selinger 2001-2019
</metadata>
<g transform="translate(0.000000,922.000000) scale(0.100000,-0.100000)"
fill="#000000" stroke="none">
<path d="M6210 8687 l0 -194 118 -6 c123 -7 247 -33 318 -68 65 -31 98 -81
102 -154 3 -57 0 -66 -54 -170 -31 -60 -101 -213 -154 -340 -109 -257 -236
-557 -685 -1615 -429 -1013 -558 -1317 -750 -1770 -92 -217 -170 -399 -174
-403 -4 -4 -30 43 -58 105 -28 62 -132 292 -232 511 -99 219 -181 404 -181
411 0 17 45 144 235 661 81 220 171 465 200 545 112 309 266 727 280 760 8 19
51 135 96 258 75 206 86 228 131 278 90 98 230 146 480 166 l146 11 66 174
c36 95 66 178 66 183 0 7 -372 10 -1029 10 l-1029 0 -20 -57 c-11 -32 -41
-114 -66 -182 -25 -69 -46 -126 -46 -127 0 -1 33 -5 73 -9 211 -19 297 -77
297 -199 0 -42 -52 -199 -203 -616 -19 -52 -78 -219 -132 -370 -54 -151 -101
-278 -104 -282 -3 -4 -74 140 -158 320 -84 180 -276 593 -427 919 -151 325
-291 616 -312 647 -40 61 -54 128 -34 165 20 37 106 70 206 79 l89 7 3 218 2
217 -1000 0 -1000 0 2 -217 3 -218 45 -2 c95 -6 237 -24 295 -39 170 -44 293
-136 363 -272 38 -74 138 -285 837 -1772 175 -371 340 -722 367 -780 175 -370
248 -530 248 -543 0 -8 -148 -410 -329 -894 -180 -483 -340 -915 -355 -960
-23 -70 -35 -89 -75 -125 -123 -111 -350 -172 -741 -198 -80 -5 -184 -10 -231
-10 l-87 0 -17 -42 c-10 -24 -39 -99 -65 -168 -26 -69 -51 -133 -55 -143 -7
-16 131 -17 2841 -15 l2848 3 132 280 c536 1138 653 1389 650 1392 -2 2 -94 4
-206 5 l-202 1 -77 -159 c-298 -609 -616 -974 -963 -1100 -137 -50 -54 -48
-1520 -51 -934 -2 -1368 0 -1368 7 0 5 33 99 74 208 41 108 122 325 180 481
59 156 110 291 115 299 7 12 51 -68 173 -311 l163 -327 375 2 374 3 126 295
c70 162 189 441 265 620 76 179 164 386 195 460 32 74 128 302 215 505 86 204
266 627 400 940 134 314 307 721 385 905 78 184 234 551 347 815 112 264 218
504 236 534 18 29 63 82 101 118 121 111 286 175 498 189 l98 7 0 193 0 194
-860 0 -860 0 0 -193z"/>
<path d="M7250 1226 l0 -376 45 0 45 0 0 263 0 262 98 -100 c53 -55 175 -181
269 -280 l173 -180 0 376 0 376 -45 1 -45 1 0 -260 c0 -152 -4 -259 -9 -257
-5 2 -73 71 -152 153 -79 83 -196 205 -261 273 l-118 123 0 -375z"/>
<path d="M1933 1566 c-149 -48 -259 -183 -271 -331 -12 -160 69 -298 218 -369
59 -28 74 -31 160 -31 81 1 103 5 152 27 237 110 296 423 112 603 -71 69 -159
108 -253 112 -46 2 -93 -3 -118 -11z m200 -92 c196 -67 247 -345 89 -484 -124
-110 -322 -86 -414 51 -46 69 -62 139 -48 213 33 175 206 277 373 220z"/>
<path d="M3488 1570 c-109 -33 -166 -144 -124 -243 19 -46 65 -82 172 -133
115 -55 139 -83 131 -157 -4 -42 -10 -56 -41 -84 -29 -27 -44 -33 -78 -33 -24
0 -56 8 -74 19 -28 17 -64 73 -64 101 0 9 -13 10 -47 5 -27 -4 -49 -8 -51 -10
-6 -6 32 -92 55 -123 30 -40 90 -71 152 -79 167 -19 300 154 232 302 -28 61
-64 91 -175 144 -56 26 -108 56 -116 65 -24 30 -18 85 13 112 52 44 122 44
176 -2 29 -24 30 -24 65 -8 35 17 35 18 20 44 -42 69 -157 107 -246 80z"/>
<path d="M6707 1569 c-99 -23 -200 -107 -249 -207 -30 -60 -33 -75 -33 -157 0
-80 4 -97 32 -157 39 -82 99 -142 183 -182 59 -27 74 -31 160 -30 83 0 103 3
158 28 81 37 162 122 192 203 28 74 30 186 5 258 -63 180 -261 288 -448 244z
m185 -95 c140 -47 221 -218 173 -363 -24 -73 -102 -152 -174 -176 -139 -46
-288 19 -352 153 -27 59 -31 168 -6 224 34 79 106 144 185 168 45 14 126 11
174 -6z"/>
<path d="M1350 1210 l0 -360 155 0 155 0 0 40 0 40 -115 0 -115 0 0 320 0 320
-40 0 -40 0 0 -360z"/>
<path d="M2489 1559 c-7 -4 -10 -93 -7 -265 4 -294 8 -314 87 -393 100 -100
300 -88 386 24 49 66 55 104 55 387 l0 258 -32 0 c-18 0 -38 -4 -45 -8 -8 -5
-12 -81 -15 -262 -3 -251 -3 -256 -28 -299 -34 -60 -79 -83 -153 -78 -65 4
-101 25 -132 78 -18 31 -20 55 -23 296 l-3 261 -40 4 c-22 2 -45 1 -50 -3z"/>
<path d="M3130 1208 l0 -358 45 0 45 0 0 360 0 360 -45 -2 -45 -3 0 -357z"/>
<path d="M4066 1563 c-3 -3 108 -276 264 -651 24 -57 46 -99 50 -95 4 4 42 94
85 198 43 105 111 270 151 367 41 98 74 180 74 183 0 7 -60 6 -86 -1 -17 -4
-41 -55 -118 -247 -53 -133 -100 -248 -105 -255 -5 -9 -44 75 -113 245 l-105
258 -47 1 c-25 0 -48 -1 -50 -3z"/>
<path d="M4734 1555 c-3 -8 -4 -128 -2 -267 4 -240 5 -256 27 -306 75 -168
326 -203 443 -62 51 62 58 107 58 387 l0 253 -35 0 c-19 0 -38 1 -42 3 -5 1
-10 -115 -13 -258 -5 -254 -6 -261 -30 -304 -34 -60 -79 -83 -153 -78 -65 4
-101 25 -132 78 -18 31 -20 55 -23 295 l-3 262 -31 6 c-46 9 -58 7 -64 -9z"/>
<path d="M5380 1209 l0 -359 50 0 50 0 -2 358 -3 357 -47 1 -48 1 0 -358z"/>
<path d="M5558 1563 c-25 -4 -28 -8 -28 -44 l0 -39 90 0 90 0 0 -315 0 -315
45 0 45 0 0 315 0 315 170 0 170 0 0 -315 0 -315 50 0 50 0 0 315 0 315 79 0
79 0 4 41 c2 22 2 42 -1 45 -5 5 -806 3 -843 -3z"/>
</g>
</svg>
