<?xml version="1.0" standalone="no"?>
<!DOCTYPE svg PUBLIC "-//W3C//DTD SVG 20010904//EN"
 "http://www.w3.org/TR/2001/REC-SVG-20010904/DTD/svg10.dtd">
<svg version="1.0" xmlns="http://www.w3.org/2000/svg"
 width="1024.000000pt" height="1024.000000pt" viewBox="0 0 1024.000000 1024.000000"
 preserveAspectRatio="xMidYMid meet">
<metadata>
Created by potrace 1.16, written by Peter Selinger 2001-2019
</metadata>
<g transform="translate(0.000000,1024.000000) scale(0.100000,-0.100000)"
fill="#000000" stroke="none">
<path d="M4898 10223 c34 -2 88 -2 120 0 31 2 3 3 -63 3 -66 0 -92 -1 -57 -3z"/>
<path d="M5228 10223 c34 -2 88 -2 120 0 31 2 3 3 -63 3 -66 0 -92 -1 -57 -3z"/>
<path d="M4718 10213 c23 -2 59 -2 80 0 20 2 1 4 -43 4 -44 0 -61 -2 -37 -4z"/>
<path d="M5448 10213 c23 -2 59 -2 80 0 20 2 1 4 -43 4 -44 0 -61 -2 -37 -4z"/>
<path d="M4608 10203 c12 -2 32 -2 45 0 12 2 2 4 -23 4 -25 0 -35 -2 -22 -4z"/>
<path d="M5588 10203 c12 -2 32 -2 45 0 12 2 2 4 -23 4 -25 0 -35 -2 -22 -4z"/>
<path d="M4513 10193 c15 -2 37 -2 50 0 12 2 0 4 -28 4 -27 0 -38 -2 -22 -4z"/>
<path d="M5683 10193 c15 -2 37 -2 50 0 12 2 0 4 -28 4 -27 0 -38 -2 -22 -4z"/>
<path d="M4365 10179 c-33 -5 -64 -11 -70 -14 -13 -6 98 5 150 15 33 6 34 8
10 8 -16 0 -57 -4 -90 -9z"/>
<path d="M5795 10181 c59 -12 169 -22 126 -12 -18 5 -63 11 -100 14 -49 4 -56
4 -26 -2z"/>
<path d="M4243 10153 c9 -2 23 -2 30 0 6 3 -1 5 -18 5 -16 0 -22 -2 -12 -5z"/>
<path d="M5973 10153 c9 -2 23 -2 30 0 6 3 -1 5 -18 5 -16 0 -22 -2 -12 -5z"/>
<path d="M4183 10143 c9 -2 23 -2 30 0 6 3 -1 5 -18 5 -16 0 -22 -2 -12 -5z"/>
<path d="M6033 10143 c9 -2 23 -2 30 0 6 3 -1 5 -18 5 -16 0 -22 -2 -12 -5z"/>
<path d="M4095 10130 c-27 -7 -27 -8 -5 -8 14 0 36 4 50 8 20 6 21 8 5 8 -11
0 -33 -4 -50 -8z"/>
<path d="M6100 10130 c14 -4 36 -8 50 -8 22 0 22 1 -5 8 -16 4 -39 8 -50 8
-16 0 -15 -2 5 -8z"/>
<path d="M4038 10113 c7 -3 16 -2 19 1 4 3 -2 6 -13 5 -11 0 -14 -3 -6 -6z"/>
<path d="M6188 10113 c7 -3 16 -2 19 1 4 3 -2 6 -13 5 -11 0 -14 -3 -6 -6z"/>
<path d="M3988 10103 c6 -2 18 -2 25 0 6 3 1 5 -13 5 -14 0 -19 -2 -12 -5z"/>
<path d="M6228 10103 c6 -2 18 -2 25 0 6 3 1 5 -13 5 -14 0 -19 -2 -12 -5z"/>
<path d="M3902 10088 c-24 -5 -42 -12 -39 -14 5 -5 107 16 107 22 0 6 -17 4
-68 -8z"/>
<path d="M6285 10091 c11 -4 38 -11 60 -14 25 -4 33 -4 20 2 -11 4 -38 11 -60
14 -25 4 -33 4 -20 -2z"/>
<path d="M3828 10063 c7 -3 16 -2 19 1 4 3 -2 6 -13 5 -11 0 -14 -3 -6 -6z"/>
<path d="M6398 10063 c7 -3 16 -2 19 1 4 3 -2 6 -13 5 -11 0 -14 -3 -6 -6z"/>
<path d="M3788 10053 c7 -3 16 -2 19 1 4 3 -2 6 -13 5 -11 0 -14 -3 -6 -6z"/>
<path d="M6438 10053 c7 -3 16 -2 19 1 4 3 -2 6 -13 5 -11 0 -14 -3 -6 -6z"/>
<path d="M3690 10030 c-30 -10 -50 -18 -45 -19 6 0 37 8 70 18 33 11 53 19 45
19 -8 1 -40 -7 -70 -18z"/>
<path d="M6525 10030 c33 -11 65 -19 70 -19 16 1 -57 26 -95 32 -19 4 -8 -2
25 -13z"/>
<path d="M3472 9963 c-56 -20 -100 -38 -98 -40 2 -2 55 14 117 36 63 22 107
40 99 40 -8 0 -61 -16 -118 -36z"/>
<path d="M6749 9959 c62 -22 115 -38 117 -36 5 5 -206 78 -221 77 -5 -1 41
-19 104 -41z"/>
<path d="M3315 9905 c-25 -12 -26 -14 -5 -9 28 7 60 23 45 23 -5 0 -23 -6 -40
-14z"/>
<path d="M6890 9912 c8 -5 26 -13 40 -16 17 -5 20 -4 10 2 -8 5 -26 13 -40 16
-17 5 -20 4 -10 -2z"/>
<path d="M3250 9880 c-8 -5 -10 -10 -5 -10 6 0 17 5 25 10 8 5 11 10 5 10 -5
0 -17 -5 -25 -10z"/>
<path d="M6970 9880 c8 -5 20 -10 25 -10 6 0 3 5 -5 10 -8 5 -19 10 -25 10 -5
0 -3 -5 5 -10z"/>
<path d="M3200 9860 c-8 -5 -10 -10 -5 -10 6 0 17 5 25 10 8 5 11 10 5 10 -5
0 -17 -5 -25 -10z"/>
<path d="M7020 9860 c8 -5 20 -10 25 -10 6 0 3 5 -5 10 -8 5 -19 10 -25 10 -5
0 -3 -5 5 -10z"/>
<path d="M3042 9793 c-67 -30 -121 -57 -119 -59 3 -3 247 103 256 112 14 13
-29 -4 -137 -53z"/>
<path d="M7061 9846 c9 -9 253 -115 256 -112 2 2 -53 29 -121 60 -112 50 -148
64 -135 52z"/>
<path d="M2828 9694 c-38 -19 -68 -37 -68 -39 0 -5 139 62 149 71 14 13 -23
-2 -81 -32z"/>
<path d="M7331 9726 c10 -9 149 -76 149 -71 0 5 -136 75 -146 75 -4 0 -5 -2
-3 -4z"/>
<path d="M2678 9614 c-27 -13 -48 -27 -48 -29 0 -3 23 6 50 20 28 14 50 28 50
30 0 7 1 7 -52 -21z"/>
<path d="M7510 9635 c0 -2 23 -16 50 -30 28 -14 50 -23 50 -20 0 2 -22 16 -50
30 -27 14 -50 23 -50 20z"/>
<path d="M2588 9564 c-38 -20 -36 -28 2 -9 17 9 30 18 30 20 0 7 -1 6 -32 -11z"/>
<path d="M7620 9576 c0 -3 14 -12 30 -21 17 -9 30 -13 30 -11 0 3 -13 12 -30
21 -16 9 -30 13 -30 11z"/>
<path d="M2447 9480 c-193 -118 -529 -359 -567 -406 -8 -9 32 20 90 65 140
109 291 215 447 312 70 44 129 82 132 85 14 13 -15 -2 -102 -56z"/>
<path d="M7690 9537 c3 -3 63 -42 133 -86 156 -97 307 -203 447 -312 58 -45
98 -74 90 -64 -25 30 -307 238 -445 327 -126 82 -236 148 -225 135z"/>
<path d="M1820 9028 c-274 -243 -437 -406 -589 -588 -64 -78 -30 -42 144 149
109 121 204 212 454 438 20 18 34 32 31 32 -3 0 -21 -14 -40 -31z"/>
<path d="M8411 9029 c19 -19 100 -93 180 -166 80 -72 203 -196 274 -274 174
-191 208 -227 144 -149 -153 183 -419 447 -594 590 l-40 33 36 -34z"/>
<path d="M1132 8323 c-82 -100 -297 -402 -337 -473 -21 -38 17 13 75 100 71
106 212 300 272 373 22 26 38 47 35 47 -3 0 -23 -21 -45 -47z"/>
<path d="M9096 8325 c64 -79 205 -271 274 -375 57 -87 96 -138 75 -100 -49 88
-335 482 -371 510 -11 8 0 -7 22 -35z"/>
<path d="M6070 8250 c-41 -4 13 -4 120 -2 107 3 197 6 199 8 7 6 -235 1 -319
-6z"/>
<path d="M6463 8243 c31 -2 83 -2 115 0 31 2 5 3 -58 3 -63 0 -89 -1 -57 -3z"/>
<path d="M5885 8233 c-56 -7 -179 -34 -185 -40 -3 -3 11 -2 30 1 105 21 141
27 195 35 33 5 45 8 25 8 -19 0 -48 -2 -65 -4z"/>
<path d="M6730 8230 c47 -5 126 -14 177 -20 50 -5 107 -10 125 -9 50 2 -162
26 -282 32 l-105 6 85 -9z"/>
<path d="M7105 8191 c22 -5 74 -11 115 -14 55 -4 63 -4 30 2 -65 12 -197 22
-145 12z"/>
<path d="M5645 8185 c-5 -2 -36 -11 -68 -20 -32 -9 -57 -18 -55 -20 2 -2 42 7
88 20 47 13 76 24 65 23 -11 0 -24 -1 -30 -3z"/>
<path d="M7325 8160 c17 -4 41 -8 55 -8 22 0 22 1 -5 8 -16 4 -41 8 -55 8 -22
0 -22 -1 5 -8z"/>
<path d="M5470 8130 c-18 -12 -2 -12 25 0 13 6 15 9 5 9 -8 0 -22 -4 -30 -9z"/>
<path d="M7415 7510 c0 -349 1 -492 2 -317 2 174 2 460 0 635 -1 174 -2 31 -2
-318z"/>
<path d="M5420 8110 c-8 -5 -10 -10 -5 -10 6 0 17 5 25 10 8 5 11 10 5 10 -5
0 -17 -5 -25 -10z"/>
<path d="M5370 8090 c-8 -5 -10 -10 -5 -10 6 0 17 5 25 10 8 5 11 10 5 10 -5
0 -17 -5 -25 -10z"/>
<path d="M5245 8032 c-92 -49 -239 -144 -250 -162 -3 -5 31 16 76 47 45 31
127 80 183 109 55 30 97 54 91 54 -5 0 -50 -22 -100 -48z"/>
<path d="M4949 7833 l-24 -28 28 24 c25 23 32 31 24 31 -2 0 -14 -12 -28 -27z"/>
<path d="M744 7768 c-46 -78 -46 -78 -41 -78 3 0 18 21 33 48 15 26 34 57 42
70 8 12 12 22 9 22 -3 0 -22 -28 -43 -62z"/>
<path d="M9462 7810 c8 -14 27 -46 42 -72 15 -27 30 -48 33 -48 6 0 -49 96
-71 123 l-18 22 14 -25z"/>
<path d="M4819 7711 c-93 -97 -180 -211 -234 -303 -15 -27 -25 -48 -22 -48 3
0 20 25 37 56 51 88 145 210 237 305 47 49 83 89 80 89 -3 0 -47 -44 -98 -99z"/>
<path d="M675 7650 c-9 -16 -13 -30 -11 -30 3 0 12 14 21 30 9 17 13 30 11 30
-3 0 -12 -13 -21 -30z"/>
<path d="M9555 7650 c9 -16 18 -30 21 -30 2 0 -2 14 -11 30 -9 17 -18 30 -21
30 -2 0 2 -13 11 -30z"/>
<path d="M625 7560 c-14 -27 -23 -50 -20 -50 2 0 16 23 30 50 14 28 23 50 20
50 -2 0 -16 -22 -30 -50z"/>
<path d="M9605 7560 c14 -27 28 -50 30 -50 3 0 -6 23 -20 50 -14 28 -28 50
-30 50 -3 0 6 -22 20 -50z"/>
<path d="M550 7421 c-48 -96 -161 -353 -157 -357 2 -2 19 31 37 74 19 42 62
137 96 210 63 134 79 181 24 73z"/>
<path d="M9714 7348 c34 -73 77 -168 96 -210 18 -43 35 -76 37 -74 4 4 -109
261 -157 357 -55 108 -39 61 24 -73z"/>
<path d="M4545 7339 c-4 -6 -5 -12 -2 -15 2 -3 7 2 10 11 7 17 1 20 -8 4z"/>
<path d="M4521 7293 c-39 -75 -123 -306 -135 -375 -7 -41 -1 -25 42 113 17 52
49 137 71 187 22 51 38 92 36 92 -3 0 -9 -8 -14 -17z"/>
<path d="M376 7035 c-9 -26 -7 -32 5 -12 6 10 9 21 6 23 -2 3 -7 -2 -11 -11z"/>
<path d="M9850 7045 c0 -5 5 -17 10 -25 5 -8 10 -10 10 -5 0 6 -5 17 -10 25
-5 8 -10 11 -10 5z"/>
<path d="M356 6985 c-9 -26 -7 -32 5 -12 6 10 9 21 6 23 -2 3 -7 -2 -11 -11z"/>
<path d="M9870 6995 c0 -5 5 -17 10 -25 5 -8 10 -10 10 -5 0 6 -5 17 -10 25
-5 8 -10 11 -10 5z"/>
<path d="M331 6919 c-6 -18 -9 -34 -7 -36 2 -2 9 10 15 28 6 18 9 34 7 36 -2
2 -9 -10 -15 -28z"/>
<path d="M9896 6930 c3 -14 11 -32 16 -40 6 -10 7 -7 2 10 -3 14 -11 32 -16
40 -6 10 -7 7 -2 -10z"/>
<path d="M4361 6819 c-7 -33 -10 -63 -8 -65 2 -3 10 23 16 57 7 33 10 63 8 65
-2 3 -10 -23 -16 -57z"/>
<path d="M276 6763 c-20 -60 -36 -112 -36 -118 1 -5 19 41 41 104 22 62 38
115 36 117 -2 2 -20 -44 -41 -103z"/>
<path d="M6590 6864 c-97 -15 -207 -45 -239 -65 -13 -9 -12 -9 4 -4 170 58
163 57 620 64 l430 7 -395 1 c-217 0 -406 -1 -420 -3z"/>
<path d="M9920 6864 c1 -16 79 -230 79 -217 1 11 -68 215 -75 222 -2 2 -4 0
-4 -5z"/>
<path d="M6273 6764 c-59 -35 -54 -41 5 -8 56 33 58 34 46 34 -5 0 -28 -12
-51 -26z"/>
<path d="M4342 6710 c0 -19 2 -27 5 -17 2 9 2 25 0 35 -3 9 -5 1 -5 -18z"/>
<path d="M6136 6658 c-47 -48 -85 -98 -110 -146 -21 -41 -36 -75 -34 -77 2 -2
21 31 43 73 27 53 62 100 112 150 39 39 69 72 66 72 -3 0 -38 -33 -77 -72z"/>
<path d="M4326 6633 c-3 -21 -5 -56 -5 -78 1 -26 5 -14 10 34 9 79 6 108 -5
44z"/>
<path d="M206 6539 c-10 -33 -16 -63 -13 -65 2 -2 11 24 21 57 9 34 15 63 13
66 -2 2 -12 -24 -21 -58z"/>
<path d="M10011 6595 c0 -5 8 -37 19 -70 11 -33 17 -44 13 -25 -6 38 -31 111
-32 95z"/>
<path d="M4313 6455 c0 -33 2 -45 4 -27 2 18 2 45 0 60 -2 15 -4 0 -4 -33z"/>
<path d="M181 6444 c0 -11 3 -14 6 -6 3 7 2 16 -1 19 -3 4 -6 -2 -5 -13z"/>
<path d="M10051 6444 c0 -11 3 -14 6 -6 3 7 2 16 -1 19 -3 4 -6 -2 -5 -13z"/>
<path d="M171 6404 c0 -11 3 -14 6 -6 3 7 2 16 -1 19 -3 4 -6 -2 -5 -13z"/>
<path d="M5973 6387 c-6 -17 -14 -48 -17 -67 -6 -35 -6 -35 4 -5 25 72 32 97
28 100 -2 3 -9 -10 -15 -28z"/>
<path d="M10061 6404 c0 -11 3 -14 6 -6 3 7 2 16 -1 19 -3 4 -6 -2 -5 -13z"/>
<path d="M155 6350 c-4 -17 -5 -34 -2 -36 2 -3 7 10 11 27 8 42 0 50 -9 9z"/>
<path d="M4300 5760 l0 -620 -642 -3 -643 -2 648 -3 647 -2 0 625 c0 344 -2
625 -5 625 -3 0 -5 -279 -5 -620z"/>
<path d="M10072 6370 c0 -8 4 -26 8 -40 6 -20 8 -21 8 -5 0 11 -3 29 -8 40 -5
12 -8 14 -8 5z"/>
<path d="M141 6284 c0 -11 3 -14 6 -6 3 7 2 16 -1 19 -3 4 -6 -2 -5 -13z"/>
<path d="M10091 6284 c0 -11 3 -14 6 -6 3 7 2 16 -1 19 -3 4 -6 -2 -5 -13z"/>
<path d="M5936 6228 c-3 -29 -6 -288 -6 -575 l0 -523 708 2 707 3 -703 2 -703
3 3 570 c2 314 3 570 2 570 -1 0 -4 -24 -8 -52z"/>
<path d="M132 6240 c0 -14 2 -19 5 -12 2 6 2 18 0 25 -3 6 -5 1 -5 -13z"/>
<path d="M10102 6240 c0 -14 2 -19 5 -12 2 6 2 18 0 25 -3 6 -5 1 -5 -13z"/>
<path d="M121 6194 c0 -11 3 -14 6 -6 3 7 2 16 -1 19 -3 4 -6 -2 -5 -13z"/>
<path d="M10111 6194 c0 -11 3 -14 6 -6 3 7 2 16 -1 19 -3 4 -6 -2 -5 -13z"/>
<path d="M97 6084 c-9 -50 -17 -99 -16 -110 0 -10 9 24 20 76 10 52 18 102 16
110 -1 8 -10 -26 -20 -76z"/>
<path d="M10122 6155 c-1 -11 8 -60 18 -110 10 -49 18 -79 19 -65 0 14 -8 63
-18 110 -11 47 -19 76 -19 65z"/>
<path d="M66 5908 c-13 -99 -18 -153 -13 -148 7 7 29 181 24 187 -3 2 -7 -15
-11 -39z"/>
<path d="M10167 5895 c3 -33 9 -78 14 -100 6 -30 6 -23 2 26 -3 37 -9 82 -14
100 -6 24 -6 17 -2 -26z"/>
<path d="M43 5705 c0 -27 2 -38 4 -22 2 15 2 37 0 50 -2 12 -4 0 -4 -28z"/>
<path d="M10193 5705 c0 -27 2 -38 4 -22 2 15 2 37 0 50 -2 12 -4 0 -4 -28z"/>
<path d="M33 5610 c0 -25 2 -35 4 -22 2 12 2 32 0 45 -2 12 -4 2 -4 -23z"/>
<path d="M10203 5610 c0 -25 2 -35 4 -22 2 12 2 32 0 45 -2 12 -4 2 -4 -23z"/>
<path d="M23 5485 c0 -44 2 -61 4 -37 2 23 2 59 0 80 -2 20 -4 1 -4 -43z"/>
<path d="M10213 5485 c0 -44 2 -61 4 -37 2 23 2 59 0 80 -2 20 -4 1 -4 -43z"/>
<path d="M14 5285 c0 -66 1 -92 3 -57 2 34 2 88 0 120 -2 31 -3 3 -3 -63z"/>
<path d="M10224 5285 c0 -66 1 -92 3 -57 2 34 2 88 0 120 -2 31 -3 3 -3 -63z"/>
<path d="M3005 4380 c0 -410 1 -577 2 -372 2 204 2 540 0 745 -1 204 -2 37 -2
-373z"/>
<path d="M7342 5070 c0 -14 2 -19 5 -12 2 6 2 18 0 25 -3 6 -5 1 -5 -13z"/>
<path d="M14 4955 c0 -66 1 -92 3 -57 2 34 2 88 0 120 -2 31 -3 3 -3 -63z"/>
<path d="M10224 4955 c0 -66 1 -92 3 -57 2 34 2 88 0 120 -2 31 -3 3 -3 -63z"/>
<path d="M7321 4952 c-7 -48 -14 -105 -17 -127 l-4 -40 9 35 c13 56 35 210 30
215 -3 2 -11 -35 -18 -83z"/>
<path d="M23 4755 c0 -44 2 -61 4 -37 2 23 2 59 0 80 -2 20 -4 1 -4 -43z"/>
<path d="M10213 4755 c0 -44 2 -61 4 -37 2 23 2 59 0 80 -2 20 -4 1 -4 -43z"/>
<path d="M7292 4745 c0 -16 2 -22 5 -12 2 9 2 23 0 30 -3 6 -5 -1 -5 -18z"/>
<path d="M7272 4623 c-14 -96 -28 -178 -42 -262 -6 -30 -10 -66 -9 -80 1 -25
15 52 39 204 6 39 16 100 22 136 6 36 9 72 7 78 -3 7 -10 -27 -17 -76z"/>
<path d="M33 4630 c0 -25 2 -35 4 -22 2 12 2 32 0 45 -2 12 -4 2 -4 -23z"/>
<path d="M10203 4630 c0 -25 2 -35 4 -22 2 12 2 32 0 45 -2 12 -4 2 -4 -23z"/>
<path d="M43 4535 c0 -27 2 -38 4 -22 2 15 2 37 0 50 -2 12 -4 0 -4 -28z"/>
<path d="M10193 4535 c0 -27 2 -38 4 -22 2 15 2 37 0 50 -2 12 -4 0 -4 -28z"/>
<path d="M52 4460 c0 -14 3 -45 7 -70 6 -34 9 -37 9 -15 1 17 -3 48 -7 70 -6
25 -9 31 -9 15z"/>
<path d="M10175 4420 c-4 -34 -5 -63 -2 -66 2 -3 7 23 11 57 4 33 5 63 3 66
-3 2 -8 -23 -12 -57z"/>
<path d="M72 4315 c0 -16 2 -22 5 -12 2 9 2 23 0 30 -3 6 -5 -1 -5 -18z"/>
<path d="M10162 4315 c0 -16 2 -22 5 -12 2 9 2 23 0 30 -3 6 -5 -1 -5 -18z"/>
<path d="M82 4255 c0 -16 2 -22 5 -12 2 9 2 23 0 30 -3 6 -5 -1 -5 -18z"/>
<path d="M10152 4255 c0 -16 2 -22 5 -12 2 9 2 23 0 30 -3 6 -5 -1 -5 -18z"/>
<path d="M7212 4220 c0 -19 2 -27 5 -17 2 9 2 25 0 35 -3 9 -5 1 -5 -18z"/>
<path d="M92 4195 c0 -16 2 -22 5 -12 2 9 2 23 0 30 -3 6 -5 -1 -5 -18z"/>
<path d="M10142 4195 c0 -16 2 -22 5 -12 2 9 2 23 0 30 -3 6 -5 -1 -5 -18z"/>
<path d="M7195 4125 c-4 -31 -5 -58 -3 -61 3 -2 8 21 12 52 4 31 5 59 2 61 -2
3 -8 -21 -11 -52z"/>
<path d="M102 4145 c0 -11 4 -33 8 -50 7 -27 8 -27 8 -5 0 14 -4 36 -8 50 -6
20 -8 21 -8 5z"/>
<path d="M10125 4120 c-4 -23 -5 -43 -2 -46 2 -3 7 14 11 37 4 23 5 44 2 46
-2 2 -7 -14 -11 -37z"/>
<path d="M121 4044 c0 -11 3 -14 6 -6 3 7 2 16 -1 19 -3 4 -6 -2 -5 -13z"/>
<path d="M10111 4044 c0 -11 3 -14 6 -6 3 7 2 16 -1 19 -3 4 -6 -2 -5 -13z"/>
<path d="M7175 3995 c-4 -31 -5 -58 -3 -61 3 -2 8 21 12 52 4 31 5 59 2 61 -2
3 -8 -21 -11 -52z"/>
<path d="M132 4000 c0 -14 2 -19 5 -12 2 6 2 18 0 25 -3 6 -5 1 -5 -13z"/>
<path d="M10102 4000 c0 -14 2 -19 5 -12 2 6 2 18 0 25 -3 6 -5 1 -5 -13z"/>
<path d="M141 3954 c0 -11 3 -14 6 -6 3 7 2 16 -1 19 -3 4 -6 -2 -5 -13z"/>
<path d="M10091 3954 c0 -11 3 -14 6 -6 3 7 2 16 -1 19 -3 4 -6 -2 -5 -13z"/>
<path d="M152 3915 c0 -11 3 -29 8 -40 11 -25 11 1 0 35 -6 20 -8 21 -8 5z"/>
<path d="M10076 3899 c-8 -42 0 -50 9 -9 4 17 5 34 2 36 -2 3 -7 -10 -11 -27z"/>
<path d="M7162 3900 c0 -14 2 -19 5 -12 2 6 2 18 0 25 -3 6 -5 1 -5 -13z"/>
<path d="M7146 3809 c-4 -33 -5 -63 -3 -66 3 -2 8 23 12 57 4 34 5 63 2 66 -2
3 -7 -23 -11 -57z"/>
<path d="M171 3834 c0 -11 3 -14 6 -6 3 7 2 16 -1 19 -3 4 -6 -2 -5 -13z"/>
<path d="M10061 3834 c0 -11 3 -14 6 -6 3 7 2 16 -1 19 -3 4 -6 -2 -5 -13z"/>
<path d="M181 3794 c0 -11 3 -14 6 -6 3 7 2 16 -1 19 -3 4 -6 -2 -5 -13z"/>
<path d="M10051 3794 c0 -11 3 -14 6 -6 3 7 2 16 -1 19 -3 4 -6 -2 -5 -13z"/>
<path d="M197 3740 c6 -38 31 -111 32 -95 0 6 -8 37 -19 70 -11 33 -17 44 -13
25z"/>
<path d="M10026 3709 c-9 -34 -15 -63 -13 -66 2 -2 12 24 21 58 10 33 16 63
13 65 -2 2 -11 -24 -21 -57z"/>
<path d="M7127 3683 l-8 -53 -597 -3 -597 -2 599 0 600 0 8 34 c5 18 8 43 6
55 -2 11 -7 -3 -11 -31z"/>
<path d="M3343 3623 c181 -2 473 -2 650 0 177 1 30 2 -328 2 -357 0 -502 -1
-322 -2z"/>
<path d="M4305 1850 c0 -971 1 -1368 2 -882 2 485 2 1279 0 1765 -1 485 -2 88
-2 -883z"/>
<path d="M5935 1850 c0 -971 1 -1368 2 -882 2 485 2 1279 0 1765 -1 485 -2 88
-2 -883z"/>
<path d="M241 3595 c-1 -15 60 -197 65 -192 2 2 -12 48 -30 103 -19 54 -35 95
-35 89z"/>
<path d="M9962 3503 c-17 -53 -30 -99 -28 -101 2 -2 18 40 36 93 18 53 30 98
28 100 -2 2 -18 -39 -36 -92z"/>
<path d="M316 3370 c4 -14 13 -38 20 -55 11 -24 13 -25 8 -5 -4 14 -13 39 -20
55 -11 24 -13 25 -8 5z"/>
<path d="M9906 3344 c-9 -26 -14 -49 -12 -51 2 -2 11 17 20 43 9 26 14 49 12
51 -2 2 -11 -17 -20 -43z"/>
<path d="M350 3275 c0 -5 5 -17 10 -25 5 -8 10 -10 10 -5 0 6 -5 17 -10 25 -5
8 -10 11 -10 5z"/>
<path d="M9876 3265 c-9 -26 -7 -32 5 -12 6 10 9 21 6 23 -2 3 -7 -2 -11 -11z"/>
<path d="M370 3225 c0 -5 5 -17 10 -25 5 -8 10 -10 10 -5 0 6 -5 17 -10 25 -5
8 -10 11 -10 5z"/>
<path d="M9856 3215 c-9 -26 -7 -32 5 -12 6 10 9 21 6 23 -2 3 -7 -2 -11 -11z"/>
<path d="M390 3176 c0 -12 112 -257 116 -253 3 3 -103 247 -112 256 -2 2 -4 1
-4 -3z"/>
<path d="M9787 3053 c-31 -70 -55 -128 -53 -130 2 -2 29 53 60 123 32 69 56
128 54 130 -2 2 -29 -54 -61 -123z"/>
<path d="M510 2906 c0 -10 70 -146 75 -146 3 0 -11 33 -31 73 -38 74 -44 85
-44 73z"/>
<path d="M9687 2835 c-20 -41 -35 -75 -32 -75 7 0 77 141 73 146 -2 2 -21 -30
-41 -71z"/>
<path d="M625 2680 c14 -27 28 -50 30 -50 3 0 -6 23 -20 50 -14 28 -28 50 -30
50 -3 0 6 -22 20 -50z"/>
<path d="M9605 2680 c-14 -27 -23 -50 -20 -50 2 0 16 23 30 50 14 28 23 50 20
50 -2 0 -16 -22 -30 -50z"/>
<path d="M675 2590 c9 -16 18 -30 21 -30 2 0 -2 14 -11 30 -9 17 -18 30 -21
30 -2 0 2 -13 11 -30z"/>
<path d="M9555 2590 c-9 -16 -13 -30 -11 -30 3 0 12 14 21 30 9 17 13 30 11
30 -3 0 -12 -13 -21 -30z"/>
<path d="M727 2500 c15 -28 36 -60 47 -73 l18 -22 -14 25 c-8 14 -27 46 -42
73 -15 26 -30 47 -33 47 -2 0 8 -23 24 -50z"/>
<path d="M9504 2503 c-15 -27 -34 -59 -42 -73 l-14 -25 18 22 c22 27 77 123
71 123 -3 0 -18 -21 -33 -47z"/>
<path d="M795 2390 c39 -70 289 -420 300 -420 3 0 -33 51 -78 113 -46 61 -112
155 -147 207 -58 87 -96 138 -75 100z"/>
<path d="M9375 2298 c-37 -57 -106 -154 -151 -215 -46 -62 -82 -113 -79 -113
7 0 162 210 232 315 70 105 76 115 70 115 -2 0 -35 -46 -72 -102z"/>
<path d="M1130 1920 c17 -22 37 -43 43 -47 6 -4 -6 14 -27 40 -21 26 -40 47
-43 47 -3 0 10 -18 27 -40z"/>
<path d="M9094 1913 c-21 -26 -33 -44 -27 -40 14 9 77 87 70 87 -3 0 -22 -21
-43 -47z"/>
<path d="M1210 1825 c214 -262 568 -595 877 -822 123 -91 340 -235 418 -277
65 -35 42 -19 -122 85 -367 232 -724 529 -1000 831 -72 79 -147 161 -168 183
l-38 40 33 -40z"/>
<path d="M8959 1753 c-328 -376 -782 -756 -1196 -1002 -40 -24 -73 -45 -73
-48 0 -14 303 182 463 300 250 184 528 433 723 648 147 162 188 209 181 209
-2 0 -47 -48 -98 -107z"/>
<path d="M2560 696 c0 -3 14 -12 30 -21 17 -9 30 -13 30 -11 0 3 -13 12 -30
21 -16 9 -30 13 -30 11z"/>
<path d="M7648 684 c-38 -20 -36 -28 2 -9 17 9 30 18 30 20 0 7 -1 6 -32 -11z"/>
<path d="M2630 655 c0 -2 23 -16 50 -30 28 -14 50 -23 50 -20 0 2 -22 16 -50
30 -27 14 -50 23 -50 20z"/>
<path d="M7558 634 c-27 -13 -48 -27 -48 -29 0 -3 23 6 50 20 28 14 50 28 50
30 0 7 1 7 -52 -21z"/>
<path d="M2760 585 c0 -7 121 -67 126 -63 2 2 -26 18 -61 36 -36 17 -65 30
-65 27z"/>
<path d="M7410 555 c-36 -19 -61 -34 -57 -35 10 0 127 59 127 65 0 7 2 8 -70
-30z"/>
<path d="M2920 507 c0 -7 251 -119 256 -115 2 3 -51 29 -118 59 -149 66 -138
62 -138 56z"/>
<path d="M7183 452 c-67 -31 -121 -58 -119 -60 4 -4 256 108 256 114 0 8 -17
1 -137 -54z"/>
<path d="M3200 380 c8 -5 20 -10 25 -10 6 0 3 5 -5 10 -8 5 -19 10 -25 10 -5
0 -3 -5 5 -10z"/>
<path d="M7020 380 c-8 -5 -10 -10 -5 -10 6 0 17 5 25 10 8 5 11 10 5 10 -5 0
-17 -5 -25 -10z"/>
<path d="M3250 360 c8 -5 20 -10 25 -10 6 0 3 5 -5 10 -8 5 -19 10 -25 10 -5
0 -3 -5 5 -10z"/>
<path d="M6970 360 c-8 -5 -10 -10 -5 -10 6 0 17 5 25 10 8 5 11 10 5 10 -5 0
-17 -5 -25 -10z"/>
<path d="M3291 346 c8 -8 287 -106 302 -105 7 0 -51 22 -128 50 -167 59 -182
63 -174 55z"/>
<path d="M6785 295 c-82 -30 -145 -54 -138 -54 13 -1 294 96 301 104 11 11
-18 2 -163 -50z"/>
<path d="M3670 216 c20 -8 51 -16 70 -19 19 -4 8 2 -25 13 -67 22 -100 26 -45
6z"/>
<path d="M6520 209 c-35 -12 -43 -16 -20 -12 40 7 112 32 90 31 -8 0 -40 -8
-70 -19z"/>
<path d="M3788 183 c7 -3 16 -2 19 1 4 3 -2 6 -13 5 -11 0 -14 -3 -6 -6z"/>
<path d="M6438 183 c7 -3 16 -2 19 1 4 3 -2 6 -13 5 -11 0 -14 -3 -6 -6z"/>
<path d="M3828 173 c7 -3 16 -2 19 1 4 3 -2 6 -13 5 -11 0 -14 -3 -6 -6z"/>
<path d="M6398 173 c7 -3 16 -2 19 1 4 3 -2 6 -13 5 -11 0 -14 -3 -6 -6z"/>
<path d="M3875 161 c11 -4 38 -11 60 -14 25 -4 33 -4 20 2 -11 4 -38 11 -60
14 -25 4 -33 4 -20 -2z"/>
<path d="M6312 158 c-24 -5 -42 -12 -39 -14 5 -5 107 16 107 22 0 6 -17 4 -68
-8z"/>
<path d="M3988 133 c6 -2 18 -2 25 0 6 3 1 5 -13 5 -14 0 -19 -2 -12 -5z"/>
<path d="M6228 133 c6 -2 18 -2 25 0 6 3 1 5 -13 5 -14 0 -19 -2 -12 -5z"/>
<path d="M4038 123 c7 -3 16 -2 19 1 4 3 -2 6 -13 5 -11 0 -14 -3 -6 -6z"/>
<path d="M6188 123 c7 -3 16 -2 19 1 4 3 -2 6 -13 5 -11 0 -14 -3 -6 -6z"/>
<path d="M4095 110 c17 -4 39 -8 50 -8 16 0 15 2 -5 8 -14 4 -36 8 -50 8 -22
0 -22 -1 5 -8z"/>
<path d="M6100 110 c-20 -6 -21 -8 -5 -8 11 0 34 4 50 8 27 7 27 8 5 8 -14 0
-36 -4 -50 -8z"/>
<path d="M4183 93 c9 -2 23 -2 30 0 6 3 -1 5 -18 5 -16 0 -22 -2 -12 -5z"/>
<path d="M6033 93 c9 -2 23 -2 30 0 6 3 -1 5 -18 5 -16 0 -22 -2 -12 -5z"/>
<path d="M4243 83 c9 -2 23 -2 30 0 6 3 -1 5 -18 5 -16 0 -22 -2 -12 -5z"/>
<path d="M5973 83 c9 -2 23 -2 30 0 6 3 -1 5 -18 5 -16 0 -22 -2 -12 -5z"/>
<path d="M4298 73 c7 -3 16 -2 19 1 4 3 -2 6 -13 5 -11 0 -14 -3 -6 -6z"/>
<path d="M5928 73 c7 -3 16 -2 19 1 4 3 -2 6 -13 5 -11 0 -14 -3 -6 -6z"/>
</g>
</svg>
