<?xml version="1.0" standalone="no"?>
<!DOCTYPE svg PUBLIC "-//W3C//DTD SVG 20010904//EN"
 "http://www.w3.org/TR/2001/REC-SVG-20010904/DTD/svg10.dtd">
<svg version="1.0" xmlns="http://www.w3.org/2000/svg"
 width="700.000000pt" height="700.000000pt" viewBox="0 0 700.000000 700.000000"
 preserveAspectRatio="xMidYMid meet">
<metadata>
Created by potrace 1.16, written by Peter Selinger 2001-2019
</metadata>
<g transform="translate(0.000000,700.000000) scale(0.100000,-0.100000)"
fill="#000000" stroke="none">
<path d="M3410 5405 c-30 -9 -82 -28 -115 -44 -256 -120 -482 -472 -572 -891
-28 -130 -25 -448 5 -586 79 -364 270 -685 495 -832 100 -65 188 -93 312 -99
116 -6 193 9 293 58 253 123 474 469 564 882 32 148 32 435 -1 587 -95 447
-358 821 -639 911 -89 28 -263 35 -342 14z m285 -30 c182 -47 333 -179 440
-387 187 -360 244 -785 159 -1167 -103 -460 -316 -754 -599 -826 -164 -42
-363 3 -503 114 -256 203 -445 773 -403 1215 45 472 252 875 519 1010 107 54
268 71 387 41z"/>
<path d="M3151 4923 c-1 -184 9 -250 22 -143 20 167 159 279 280 226 65 -29
65 -30 13 -86 -69 -73 -110 -172 -167 -397 -52 -208 -76 -264 -134 -310 l-34
-27 34 -29 c57 -47 81 -102 134 -309 57 -225 99 -326 165 -396 25 -27 46 -52
46 -56 0 -13 -85 -46 -120 -46 -105 0 -201 106 -217 240 -12 106 -23 42 -22
-137 0 -145 3 -181 11 -158 25 70 52 78 144 44 69 -26 153 -22 211 11 l39 21
54 -25 c67 -31 126 -33 205 -6 32 11 68 20 80 20 24 0 55 -28 55 -51 0 -8 5
-21 10 -29 6 -10 10 48 10 173 0 182 -11 241 -25 136 -17 -119 -102 -224 -193
-236 -42 -6 -125 17 -138 38 -3 6 13 30 36 55 66 72 115 187 166 395 51 204
68 245 125 304 l39 41 -36 34 c-54 52 -72 97 -125 301 -65 255 -105 346 -183
418 -14 14 -26 28 -26 33 0 20 93 50 138 45 93 -10 180 -114 197 -236 15 -107
25 -46 24 142 -1 159 -3 186 -13 156 -23 -75 -45 -82 -141 -49 -79 27 -138 25
-205 -6 l-54 -25 -39 22 c-58 32 -148 36 -215 10 -89 -35 -119 -25 -140 49 -8
26 -10 -12 -11 -157z m480 -113 c65 -173 93 -363 93 -630 0 -180 -4 -236 -23
-345 -28 -162 -72 -299 -112 -354 l-30 -42 -18 23 c-73 94 -132 335 -149 609
-18 292 47 687 135 820 l27 41 28 -33 c16 -18 38 -58 49 -89z"/>
<path d="M2065 2845 c-167 -36 -373 -162 -540 -330 -127 -128 -245 -321 -296
-485 -32 -103 -33 -247 -2 -305 54 -102 139 -146 293 -153 164 -7 291 35 453
152 l76 54 0 -54 c0 -104 64 -161 170 -151 66 6 130 33 224 93 l67 44 0 -36
c0 -28 8 -44 34 -70 30 -30 40 -34 89 -34 30 0 72 7 93 16 62 26 157 98 224
171 l63 68 -72 -116 c-39 -64 -71 -119 -71 -123 0 -4 32 -6 72 -4 l72 3 34 60
c132 231 240 405 275 442 74 80 199 120 241 77 22 -21 20 -33 -4 -27 -54 14
-100 -35 -86 -92 18 -73 110 -49 224 59 62 58 72 64 55 36 -233 -393 -269
-476 -225 -530 18 -23 27 -25 94 -25 110 1 165 34 342 205 l98 95 -41 -83
c-23 -46 -45 -105 -48 -131 -4 -40 -2 -51 19 -75 20 -24 31 -28 75 -28 79 0
133 32 262 156 63 61 111 102 107 91 -4 -11 -10 -45 -13 -75 -4 -46 -1 -60 19
-89 37 -55 71 -74 137 -79 95 -7 228 42 346 126 77 56 238 196 301 265 66 71
67 73 -78 -170 -60 -101 -111 -190 -114 -198 -5 -12 5 -15 58 -15 l64 0 106
178 c58 97 126 204 150 237 73 98 216 195 287 195 l36 -1 -31 -13 c-48 -21
-60 -80 -24 -116 47 -47 120 -4 120 70 0 108 -123 105 -275 -9 -78 -58 -80
-58 -45 5 18 32 38 65 43 72 7 9 -6 12 -60 12 l-70 0 -30 -47 c-151 -242 -488
-522 -658 -547 -53 -7 -110 9 -130 37 -18 25 -20 100 -4 146 9 26 16 31 43 31
18 0 67 9 108 19 240 62 402 235 315 337 -20 23 -34 28 -86 32 -146 11 -323
-102 -461 -293 -76 -105 -254 -278 -302 -294 -53 -17 -78 -2 -78 47 0 29 27
84 126 257 69 121 132 232 140 248 l15 27 -59 0 -58 0 -34 -57 c-183 -304
-501 -583 -585 -513 -34 28 -17 70 128 320 l143 245 77 3 c93 3 103 22 12 22
-36 0 -65 2 -65 5 0 3 32 61 70 129 39 68 70 127 70 130 0 4 -28 6 -61 4 l-62
-3 -61 -98 c-79 -128 -177 -250 -244 -304 -29 -24 -57 -43 -61 -43 -5 0 -6 20
-4 44 5 39 2 48 -21 71 -25 25 -33 27 -86 23 -44 -3 -72 -12 -110 -36 l-51
-32 27 45 26 45 -64 0 -63 0 -57 -93 c-122 -199 -305 -412 -403 -468 -53 -30
-112 -38 -133 -17 -18 18 -14 74 8 119 12 22 73 128 136 235 63 107 118 202
121 210 5 13 -5 15 -58 12 l-64 -3 -30 -55 c-26 -48 -30 -52 -33 -30 -9 73
-43 105 -125 116 -54 8 -155 -17 -217 -53 -117 -68 -251 -205 -321 -327 -46
-82 -200 -190 -339 -237 -91 -30 -209 -31 -267 -1 -73 38 -114 128 -114 252
-1 203 100 419 306 660 120 141 281 255 414 294 83 24 188 21 242 -7 52 -28
105 -107 115 -174 l6 -44 59 88 c32 48 66 98 74 110 l16 21 -47 -14 c-66 -20
-123 -18 -167 6 -89 48 -198 60 -312 35z m626 -654 c56 -56 37 -139 -67 -300
-107 -163 -243 -269 -360 -279 -46 -4 -56 -1 -78 21 -105 105 123 482 343 568
72 28 127 25 162 -10z m2257 -3 c19 -19 14 -77 -9 -126 -48 -99 -186 -195
-297 -209 l-53 -6 11 27 c32 84 176 265 245 307 34 21 85 25 103 7z"/>
<path d="M4380 2445 c-7 -8 -12 -26 -12 -40 0 -34 19 -55 52 -55 31 0 60 27
60 57 0 44 -72 71 -100 38z"/>
</g>
</svg>
