<?xml version="1.0" standalone="no"?>
<!DOCTYPE svg PUBLIC "-//W3C//DTD SVG 20010904//EN"
 "http://www.w3.org/TR/2001/REC-SVG-20010904/DTD/svg10.dtd">
<svg version="1.0" xmlns="http://www.w3.org/2000/svg"
 width="866.000000pt" height="866.000000pt" viewBox="0 0 866.000000 866.000000"
 preserveAspectRatio="xMidYMid meet">
<metadata>
Created by potrace 1.16, written by Peter Selinger 2001-2019
</metadata>
<g transform="translate(0.000000,866.000000) scale(0.100000,-0.100000)"
fill="#000000" stroke="none">
<path d="M1077 6024 c-4 -4 -7 -135 -7 -291 l0 -283 -225 0 -225 0 0 -195 0
-195 226 -2 226 -3 -2 -395 c0 -217 -3 -396 -5 -398 -2 -2 -93 -17 -202 -33
-109 -16 -208 -32 -220 -34 -23 -5 -23 -6 -23 -210 l0 -205 38 6 c20 3 121 18
225 33 l187 27 0 -359 c0 -227 -4 -365 -10 -378 -23 -41 -59 -49 -240 -49
l-170 0 0 -196 0 -195 288 3 287 3 63 34 c74 40 115 84 151 161 l26 55 5 490
5 490 185 28 c102 15 191 30 198 32 9 3 12 53 12 203 0 109 -2 201 -5 204 -3
2 -85 -8 -182 -23 -98 -16 -186 -29 -195 -29 -17 0 -18 24 -18 370 l0 370 200
0 200 0 -2 193 -3 192 -197 3 -198 2 -2 288 -3 287 -191 3 c-104 1 -193 -1
-197 -4z"/>
<path d="M3300 5006 l0 -1025 -42 -6 c-49 -6 -1201 -105 -1229 -105 -18 0 -19
-11 -19 -205 l0 -205 38 0 c20 0 301 23 625 50 323 28 596 50 607 50 20 0 20
-7 20 -460 l0 -460 195 0 195 0 0 480 0 480 23 1 c12 0 101 8 197 17 l175 17
3 208 2 208 -32 -5 c-18 -3 -91 -10 -163 -16 -71 -6 -147 -13 -167 -16 l-38
-6 0 1011 0 1011 -195 0 -195 0 0 -1024z"/>
<path d="M6050 6016 c0 -16 46 -214 56 -239 6 -16 -40 -17 -705 -17 l-711 0 0
-190 0 -190 1620 0 1620 0 0 190 0 190 -657 2 -657 3 -31 130 -31 130 -252 3
c-213 2 -252 0 -252 -12z"/>
<path d="M2170 5529 c0 -115 3 -209 6 -209 3 0 211 -36 461 -80 250 -44 456
-80 459 -80 2 0 4 92 4 205 0 204 0 205 -22 210 -21 4 -538 97 -800 144 l-108
18 0 -208z"/>
<path d="M5315 5178 c7 -33 45 -271 45 -285 0 -10 -85 -13 -390 -13 l-390 0 0
-190 0 -190 1730 0 1730 0 0 190 0 190 -380 0 c-364 0 -380 1 -380 19 0 10 11
78 25 151 14 73 25 137 25 141 0 5 -92 9 -204 9 l-204 0 -10 -47 c-6 -27 -20
-99 -33 -161 l-22 -112 -541 2 -540 3 -17 110 c-9 61 -19 131 -23 158 l-7 47
-210 0 -209 0 5 -22z"/>
<path d="M2170 4671 c0 -116 3 -211 7 -211 4 0 209 -36 455 -80 246 -44 452
-80 458 -80 6 0 10 72 10 204 0 186 -2 205 -17 210 -10 3 -211 39 -448 81
-236 42 -438 78 -447 81 -17 5 -18 -9 -18 -205z"/>
<path d="M5129 4204 c-68 -21 -140 -72 -177 -128 -63 -94 -63 -100 -60 -658 3
-494 3 -504 25 -550 30 -64 96 -134 158 -166 l50 -27 1167 -3 c1150 -2 1167
-2 1220 18 63 23 129 77 164 132 53 83 55 115 52 651 l-3 492 -33 67 c-36 73
-86 123 -161 160 l-46 23 -1155 2 c-980 2 -1162 0 -1201 -13z m2202 -373 c28
-29 29 -32 29 -130 l0 -101 -1047 2 -1048 3 0 103 c0 101 1 104 28 128 l28 24
990 0 991 0 29 -29z m29 -642 c0 -94 -8 -122 -44 -151 -20 -16 -87 -18 -999
-18 -1062 0 -1019 -2 -1045 55 -7 14 -12 66 -12 115 l0 90 1050 0 1050 0 0
-91z"/>
</g>
</svg>
