<?xml version="1.0" standalone="no"?>
<!DOCTYPE svg PUBLIC "-//W3C//DTD SVG 20010904//EN"
 "http://www.w3.org/TR/2001/REC-SVG-20010904/DTD/svg10.dtd">
<svg version="1.0" xmlns="http://www.w3.org/2000/svg"
 width="1000.000000pt" height="1000.000000pt" viewBox="0 0 1000.000000 1000.000000"
 preserveAspectRatio="xMidYMid meet">
<metadata>
Created by potrace 1.16, written by Peter Selinger 2001-2019
</metadata>
<g transform="translate(0.000000,1000.000000) scale(0.100000,-0.100000)"
fill="#000000" stroke="none">
<path d="M5201 8937 c-8 -10 -12 -613 -17 -2198 -6 -2408 -1 -2255 -69 -2412
-49 -116 -91 -181 -174 -269 -118 -126 -267 -215 -436 -261 -114 -30 -326 -30
-440 0 -269 73 -484 254 -600 506 -109 235 -107 511 6 746 176 371 564 574
969 507 85 -15 104 -15 111 -4 5 7 9 245 9 529 0 421 -3 519 -14 534 -18 24
-89 33 -276 34 -304 1 -571 -61 -855 -199 -400 -195 -729 -527 -922 -930 -183
-382 -236 -818 -152 -1240 105 -528 404 -968 859 -1263 477 -309 923 -399
1455 -292 278 56 591 187 794 332 392 282 680 728 775 1203 44 218 47 311 46
1469 -1 639 3 1098 8 1103 5 5 47 -17 103 -54 326 -217 751 -360 1190 -399
165 -14 186 -11 194 34 3 17 5 254 3 525 -2 384 -6 494 -16 501 -7 4 -63 13
-126 19 -363 38 -691 202 -957 480 -233 242 -369 551 -395 896 -5 54 -12 93
-21 102 -21 20 -1035 21 -1052 1z"/>
<path d="M3501 2361 c-7 -12 -9 -247 -6 -687 2 -368 4 -675 4 -681 1 -10 40
-13 160 -13 l158 0 6 88 c3 48 3 117 0 154 -4 51 -1 79 11 113 18 46 83 113
96 98 4 -4 69 -100 145 -213 76 -113 145 -213 153 -222 13 -16 36 -18 189 -18
95 0 173 2 173 5 0 3 -101 149 -225 326 -124 176 -225 325 -225 331 0 6 62 73
138 148 75 75 161 164 190 198 l54 62 -182 0 -182 0 -137 -131 c-75 -73 -148
-145 -163 -160 -15 -16 -30 -29 -33 -29 -3 0 -5 141 -5 313 0 230 -3 316 -12
325 -8 8 -57 12 -155 12 -129 0 -143 -2 -152 -19z"/>
<path d="M1937 2363 c-4 -3 -7 -68 -7 -144 l0 -139 168 -2 167 -3 5 -545 5
-545 160 0 160 0 5 545 5 545 132 3 131 3 41 129 c23 71 44 137 47 145 5 13
-53 15 -503 15 -280 0 -513 -3 -516 -7z"/>
<path d="M3140 2363 c-59 -22 -110 -95 -110 -158 0 -45 34 -109 70 -135 48
-34 123 -38 175 -8 45 26 85 93 85 143 0 50 -40 117 -85 142 -38 22 -100 29
-135 16z"/>
<path d="M4665 2348 c-3 -13 -4 -77 -3 -143 l3 -120 165 -5 165 -5 5 -545 c3
-300 6 -546 8 -548 1 -1 75 -1 165 0 l162 3 2 534 c1 293 4 540 7 547 4 11 36
14 145 14 l140 0 42 132 c22 72 43 137 46 145 4 11 -87 13 -521 13 l-526 0 -5
-22z"/>
<path d="M7017 2364 c-10 -10 -8 -1356 1 -1372 7 -9 46 -12 163 -10 l154 3 5
175 c3 106 10 183 17 195 21 37 71 78 87 72 8 -3 81 -105 162 -227 l147 -220
179 0 c98 0 178 3 178 6 0 3 -99 147 -221 320 -121 174 -223 322 -226 331 -4
11 53 73 198 214 l204 199 -196 -3 -196 -2 -164 -158 -164 -158 -5 318 -5 318
-156 3 c-85 1 -158 -1 -162 -4z"/>
<path d="M6185 2109 c-215 -21 -404 -171 -476 -379 -30 -88 -37 -224 -15 -310
53 -212 224 -383 423 -425 200 -43 387 12 533 156 112 111 160 231 160 402 0
162 -56 295 -170 401 -129 121 -280 172 -455 155z m195 -325 c85 -46 138 -133
139 -230 3 -205 -208 -340 -392 -251 -99 49 -151 132 -151 242 1 82 17 126 70
185 62 68 118 91 215 86 50 -2 79 -10 119 -32z"/>
<path d="M3042 1922 c-10 -7 -12 -108 -10 -473 l3 -464 160 0 160 0 3 464 c2
365 0 466 -10 473 -7 4 -76 8 -153 8 -77 0 -146 -4 -153 -8z"/>
</g>
</svg>
