<?xml version="1.0" standalone="no"?>
<!DOCTYPE svg PUBLIC "-//W3C//DTD SVG 20010904//EN"
 "http://www.w3.org/TR/2001/REC-SVG-20010904/DTD/svg10.dtd">
<svg version="1.0" xmlns="http://www.w3.org/2000/svg"
 width="256.000000pt" height="256.000000pt" viewBox="0 0 256.000000 256.000000"
 preserveAspectRatio="xMidYMid meet">
<metadata>
Created by potrace 1.16, written by Peter Selinger 2001-2019
</metadata>
<g transform="translate(0.000000,256.000000) scale(0.100000,-0.100000)"
fill="#000000" stroke="none">
<path d="M1180 2234 c-227 -43 -404 -137 -553 -293 -185 -194 -277 -441 -264
-711 3 -64 15 -150 26 -195 22 -85 119 -291 151 -320 19 -17 23 -17 97 10 587
208 1028 644 1240 1225 l34 95 -28 22 c-50 41 -197 111 -289 139 -76 23 -111
27 -239 30 -82 1 -161 0 -175 -2z"/>
<path d="M2161 1733 c14 -60 10 -222 -7 -293 -59 -251 -251 -433 -571 -538
-87 -29 -160 -47 -563 -138 -195 -45 -402 -102 -415 -116 -12 -12 91 -111 175
-168 389 -264 914 -213 1236 122 173 180 261 382 271 626 6 139 -6 237 -44
351 -24 71 -79 191 -87 191 -2 0 0 -17 5 -37z"/>
</g>
</svg>
