<?xml version="1.0" standalone="no"?>
<!DOCTYPE svg PUBLIC "-//W3C//DTD SVG 20010904//EN"
 "http://www.w3.org/TR/2001/REC-SVG-20010904/DTD/svg10.dtd">
<svg version="1.0" xmlns="http://www.w3.org/2000/svg"
 width="636.000000pt" height="636.000000pt" viewBox="0 0 636.000000 636.000000"
 preserveAspectRatio="xMidYMid meet">
<metadata>
Created by potrace 1.16, written by Peter Selinger 2001-2019
</metadata>
<g transform="translate(0.000000,636.000000) scale(0.100000,-0.100000)"
fill="#000000" stroke="none">
<path d="M390 3180 l0 -3180 2790 0 2790 0 0 3180 0 3180 -2790 0 -2790 0 0
-3180z m4007 3118 c6 -7 16 -62 22 -123 40 -363 174 -654 412 -894 262 -265
587 -423 949 -461 58 -6 110 -16 117 -22 10 -8 13 -124 13 -528 0 -453 -2
-519 -15 -530 -12 -10 -45 -11 -135 -7 -312 17 -634 96 -920 226 -129 59 -356
187 -379 215 -8 9 -22 16 -32 16 -18 0 -19 -31 -19 -1129 0 -712 -4 -1167 -10
-1232 -48 -471 -241 -881 -569 -1210 -298 -298 -654 -473 -1126 -556 -75 -13
-156 -17 -325 -17 -197 0 -238 3 -330 22 -309 67 -663 243 -915 454 -381 319
-613 748 -681 1261 -20 152 -14 445 11 587 123 685 589 1254 1234 1510 133 53
337 105 470 120 136 16 493 9 515 -9 14 -12 16 -73 16 -552 0 -314 -4 -540 -9
-543 -5 -4 -38 0 -73 8 -159 36 -315 28 -472 -25 -239 -80 -423 -243 -532
-472 -53 -113 -75 -199 -81 -324 -9 -187 26 -336 118 -499 60 -107 224 -272
329 -331 165 -92 368 -134 543 -113 365 44 651 287 764 647 l28 88 5 2205 c3
1213 9 2211 13 2218 6 9 124 12 531 12 407 0 526 -3 533 -12z"/>
</g>
</svg>
