<?xml version="1.0" standalone="no"?>
<!DOCTYPE svg PUBLIC "-//W3C//DTD SVG 20010904//EN"
 "http://www.w3.org/TR/2001/REC-SVG-20010904/DTD/svg10.dtd">
<svg version="1.0" xmlns="http://www.w3.org/2000/svg"
 width="1024.000000pt" height="1024.000000pt" viewBox="0 0 1024.000000 1024.000000"
 preserveAspectRatio="xMidYMid meet">
<metadata>
Created by potrace 1.16, written by Peter Selinger 2001-2019
</metadata>
<g transform="translate(0.000000,1024.000000) scale(0.100000,-0.100000)"
fill="#000000" stroke="none">
<path d="M4696 7694 c-38 -7 -71 -15 -73 -18 -3 -3 9 -83 26 -178 17 -95 38
-211 46 -258 9 -47 54 -305 100 -575 47 -269 87 -500 90 -512 4 -19 9 -20 37
-13 18 4 54 11 81 15 40 5 47 9 46 28 -1 54 -266 1521 -274 1523 -6 1 -41 -4
-79 -12z"/>
<path d="M5536 7698 c-3 -7 -19 -96 -36 -198 -60 -347 -102 -592 -140 -805
-56 -313 -90 -511 -90 -522 0 -10 137 -40 144 -32 3 4 35 180 197 1108 37 216
71 401 74 411 5 16 -3 20 -52 30 -32 6 -66 14 -76 16 -9 3 -19 -1 -21 -8z"/>
<path d="M3853 7382 c-46 -26 -83 -50 -83 -53 0 -3 102 -183 226 -400 124
-217 298 -521 387 -676 l161 -282 31 20 c16 11 56 33 88 50 31 16 57 31 57 33
0 2 -102 181 -226 397 -124 217 -298 521 -387 677 -89 155 -164 282 -167 282
-3 0 -42 -21 -87 -48z"/>
<path d="M6384 7387 c-6 -12 -73 -130 -149 -262 -76 -132 -224 -391 -330 -575
-106 -184 -213 -370 -238 -412 l-45 -77 60 -35 c33 -20 61 -36 63 -36 2 0 24
35 48 78 24 42 113 199 199 347 85 149 235 410 333 580 97 171 181 314 186
320 18 19 7 35 -43 65 -63 36 -70 36 -84 7z"/>
<path d="M3168 6805 c-40 -48 -74 -90 -76 -94 -1 -4 125 -115 280 -246 412
-348 505 -426 662 -560 78 -66 165 -139 193 -163 l51 -42 23 32 c13 18 48 59
78 91 47 50 53 60 40 71 -8 8 -80 70 -160 138 -80 67 -329 278 -554 468 -224
190 -420 355 -436 368 l-28 23 -73 -86z"/>
<path d="M6865 6619 c-138 -117 -402 -340 -587 -496 -186 -157 -338 -290 -338
-297 1 -6 16 -29 35 -50 31 -34 36 -37 52 -25 27 22 915 770 1051 886 l122
104 -37 44 c-20 25 -40 45 -43 45 -3 0 -118 -95 -255 -211z"/>
<path d="M2745 6103 c-34 -80 -77 -214 -72 -220 4 -3 233 -88 509 -190 277
-101 595 -218 708 -259 254 -94 240 -90 240 -70 0 23 39 133 66 188 13 26 24
49 24 52 0 2 -62 27 -137 54 -523 192 -1315 482 -1319 482 -2 0 -11 -17 -19
-37z"/>
<path d="M6164 5435 c34 -91 61 -291 51 -395 -25 -286 -132 -510 -332 -701
-94 -89 -163 -136 -286 -194 -157 -74 -233 -89 -442 -89 -154 0 -191 3 -259
22 -223 62 -404 176 -549 347 -102 120 -176 262 -213 410 -10 39 -21 74 -24
78 -4 4 -155 -47 -336 -114 -181 -66 -383 -140 -449 -164 -178 -64 -669 -246
-672 -248 -3 -4 92 -270 108 -298 l14 -27 325 120 c179 65 485 177 680 249
195 71 370 136 389 145 43 19 54 9 20 -19 -29 -25 -267 -226 -660 -559 -152
-128 -324 -273 -382 -323 l-106 -89 26 -36 c45 -61 129 -163 175 -212 l43 -48
290 246 c160 135 344 291 410 347 66 56 182 154 258 220 77 65 141 116 144
114 4 -4 -104 -195 -573 -1016 -74 -128 -134 -237 -134 -241 0 -17 344 -219
354 -209 5 5 265 457 322 559 160 287 346 606 355 609 7 2 9 -4 5 -15 -3 -11
-17 -86 -31 -169 -15 -82 -38 -213 -51 -290 -31 -180 -67 -381 -99 -568 -14
-81 -32 -180 -39 -220 -8 -40 -13 -74 -11 -75 16 -17 425 -85 437 -74 3 4 41
203 82 442 42 239 82 471 90 515 8 44 23 126 33 183 10 56 21 102 25 102 4 0
10 -15 13 -32 23 -137 160 -921 180 -1031 14 -77 25 -147 25 -157 0 -11 4 -21
9 -24 16 -10 443 62 458 78 2 2 -26 169 -61 372 -110 627 -135 765 -141 774
-3 5 -1 11 4 14 4 3 50 -67 101 -157 51 -89 134 -234 185 -322 51 -88 139
-241 195 -340 57 -99 107 -184 110 -188 4 -5 53 14 108 42 101 51 155 83 285
169 63 42 67 46 54 66 -8 12 -86 147 -174 301 -88 154 -204 356 -257 449 -54
92 -96 170 -94 172 2 2 116 -92 254 -208 471 -398 556 -469 568 -474 32 -12
374 404 350 426 -9 8 -716 601 -723 607 -14 10 13 14 32 5 12 -7 150 -59 307
-116 157 -57 346 -126 420 -154 74 -27 138 -47 142 -43 11 10 78 170 109 261
46 132 82 271 72 280 -7 7 -380 146 -655 243 -65 23 -118 45 -118 50 0 4 187
7 415 7 387 0 416 1 423 18 9 24 9 464 -1 545 l-9 67 -790 0 c-706 0 -790 -2
-784 -15z"/>
<path d="M2558 5250 c-5 -13 -8 -83 -6 -155 l3 -130 773 0 773 0 1 153 1 153
-768 2 -767 2 -10 -25z"/>
</g>
</svg>
