<?xml version="1.0" standalone="no"?>
<!DOCTYPE svg PUBLIC "-//W3C//DTD SVG 20010904//EN"
 "http://www.w3.org/TR/2001/REC-SVG-20010904/DTD/svg10.dtd">
<svg version="1.0" xmlns="http://www.w3.org/2000/svg"
 width="1024.000000pt" height="1024.000000pt" viewBox="0 0 1024.000000 1024.000000"
 preserveAspectRatio="xMidYMid meet">
<metadata>
Created by potrace 1.16, written by Peter Selinger 2001-2019
</metadata>
<g transform="translate(0.000000,1024.000000) scale(0.100000,-0.100000)"
fill="#000000" stroke="none">
<path d="M4650 8359 c-605 -14 -1096 -56 -1384 -116 -497 -103 -760 -334 -861
-755 -44 -185 -50 -288 -50 -808 1 -514 7 -621 61 -1110 69 -629 173 -1018
329 -1230 52 -71 178 -185 255 -230 335 -200 865 -265 2155 -264 1103 0 1589
45 1940 180 148 58 228 108 343 218 221 210 344 625 426 1436 45 441 50 545
50 920 -1 661 -33 907 -144 1126 -139 275 -378 435 -777 518 -299 62 -753 99
-1435 116 -405 10 -467 10 -908 -1z m1330 -194 c554 -33 908 -83 1088 -154
263 -104 411 -264 487 -525 105 -366 98 -1369 -16 -2176 -108 -765 -294 -1043
-777 -1166 -289 -73 -875 -114 -1642 -114 -838 0 -1417 47 -1704 137 -149 46
-250 106 -351 208 -77 76 -99 106 -142 192 -124 244 -198 591 -252 1178 -64
686 -51 1416 29 1730 61 237 204 409 426 511 219 102 725 168 1477 194 334 12
1070 4 1377 -15z"/>
<path d="M3561 7968 c-52 -5 -96 -10 -97 -11 -4 -3 112 -1774 156 -2392 56
-788 100 -1339 108 -1347 11 -11 237 -29 401 -31 l154 -2 53 203 c133 507 198
668 303 751 53 42 94 58 197 76 264 46 626 22 751 -51 119 -69 204 -255 318
-700 26 -99 53 -203 61 -231 l15 -53 69 0 c75 0 339 18 430 28 l55 7 17 215
c30 377 87 1153 113 1530 45 658 125 1913 125 1955 l0 42 -52 7 c-29 3 -114 9
-189 13 l-136 6 -6 -24 c-3 -13 -49 -220 -102 -459 -107 -485 -287 -1213 -341
-1378 -19 -59 -58 -154 -86 -212 -42 -86 -64 -118 -122 -176 -146 -145 -331
-193 -701 -181 -200 6 -302 25 -405 73 -172 81 -262 202 -354 480 -52 153
-224 854 -346 1407 l-104 467 -96 -1 c-52 -1 -138 -6 -189 -11z"/>
<path d="M2907 3119 c-129 -12 -254 -40 -354 -78 -251 -97 -393 -289 -393
-531 0 -397 342 -620 950 -620 585 0 916 201 946 576 4 55 1 101 -10 154 -57
271 -273 432 -655 490 -104 15 -367 20 -484 9z m417 -248 c77 -30 136 -90 167
-167 21 -52 23 -75 23 -199 0 -109 -4 -150 -17 -185 -61 -157 -183 -217 -422
-207 -151 6 -217 28 -286 97 -66 66 -89 142 -89 295 0 225 67 331 240 381 30
9 93 12 185 10 119 -2 149 -6 199 -25z"/>
<path d="M0 3010 c0 -44 4 -80 9 -80 36 0 170 -23 189 -32 39 -20 43 -63 40
-416 l-3 -334 -27 -23 c-19 -16 -45 -25 -90 -29 -128 -14 -119 -7 -116 -92 l3
-74 463 -3 462 -2 0 77 c0 88 7 81 -100 93 -122 14 -130 25 -130 185 l0 110
355 0 355 0 0 -120 c0 -113 -2 -122 -23 -144 -18 -18 -40 -25 -93 -30 -122
-13 -115 -7 -112 -92 l3 -74 460 0 460 0 3 74 c3 85 10 79 -112 92 -53 5 -75
12 -93 30 l-23 23 0 356 0 356 23 23 c16 16 41 26 78 30 30 4 71 9 92 12 l37
6 0 79 0 79 -465 0 -465 0 0 -80 c0 -44 3 -80 8 -80 34 0 179 -23 193 -31 28
-15 41 -75 37 -177 l-3 -93 -355 0 -355 1 0 121 c0 113 1 122 22 139 13 10 47
21 75 24 29 4 70 9 91 12 l37 6 0 79 0 79 -465 0 -465 0 0 -80z"/>
<path d="M4110 3012 l0 -80 45 -6 c25 -3 66 -9 92 -12 29 -4 55 -16 70 -30
l23 -23 0 -356 0 -356 -23 -23 c-18 -18 -40 -25 -93 -30 -122 -13 -115 -7
-112 -92 l3 -75 369 0 369 0 -2 73 c-1 40 -7 76 -13 79 -5 3 -41 9 -79 13 -84
7 -114 21 -128 55 -8 17 -10 128 -9 328 l3 302 304 -400 c168 -220 318 -411
334 -425 l29 -24 314 0 314 0 0 464 0 465 23 27 c20 23 34 27 115 36 l92 11 0
78 0 79 -370 0 -370 0 0 -79 0 -79 38 -6 c20 -3 61 -8 90 -12 28 -3 62 -14 75
-24 22 -18 22 -20 25 -341 l3 -322 -302 399 c-166 219 -315 413 -330 429 l-29
30 -435 3 -435 3 0 -79z"/>
<path d="M6240 3011 l0 -80 58 -6 c79 -8 127 -22 143 -42 18 -21 26 -650 9
-712 -14 -51 -34 -62 -140 -75 l-85 -11 -3 -78 -3 -78 683 3 683 4 97 26 c242
66 397 206 443 399 17 76 19 207 4 281 -41 198 -201 348 -434 407 -136 35
-251 41 -862 41 l-593 0 0 -79z m1226 -178 c58 -31 101 -84 118 -146 53 -189
14 -415 -84 -486 -60 -43 -115 -51 -365 -51 l-225 0 0 356 0 355 258 -3 c242
-3 259 -4 298 -25z"/>
<path d="M8440 3012 l0 -80 43 -5 c23 -4 73 -9 111 -13 72 -7 106 -27 106 -62
0 -23 -402 -676 -440 -716 -25 -25 -39 -30 -119 -39 l-91 -11 0 -78 0 -78 370
0 370 0 0 79 0 78 -76 6 c-120 9 -138 39 -82 133 l33 54 360 0 360 0 33 -50
c59 -92 42 -117 -93 -135 l-80 -10 -3 -78 -3 -77 501 0 500 0 0 78 0 78 -96
11 c-90 9 -98 12 -128 44 -18 19 -160 228 -314 464 -155 237 -293 442 -307
455 l-27 25 -464 3 -464 3 0 -79z m680 -333 c58 -89 109 -168 113 -175 7 -12
-29 -14 -217 -14 l-224 0 106 175 c59 96 109 174 112 175 3 0 52 -73 110 -161z"/>
</g>
</svg>
