<?xml version="1.0" standalone="no"?>
<!DOCTYPE svg PUBLIC "-//W3C//DTD SVG 20010904//EN"
 "http://www.w3.org/TR/2001/REC-SVG-20010904/DTD/svg10.dtd">
<svg version="1.0" xmlns="http://www.w3.org/2000/svg"
 width="1024.000000pt" height="1024.000000pt" viewBox="0 0 1024.000000 1024.000000"
 preserveAspectRatio="xMidYMid meet">
<metadata>
Created by potrace 1.16, written by Peter Selinger 2001-2019
</metadata>
<g transform="translate(0.000000,1024.000000) scale(0.100000,-0.100000)"
fill="#000000" stroke="none">
<path d="M0 5121 l0 -4159 3493 -6 c1920 -4 4223 -6 5117 -4 l1625 3 3 4163 2
4162 -5120 0 -5120 0 0 -4159z m8700 19 l0 -1500 -270 0 -270 0 0 1500 0 1500
270 0 270 0 0 -1500z m-6640 1175 l0 -285 -280 0 -279 0 -3 281 c-2 154 -1
283 1 285 2 2 130 4 283 4 l278 0 0 -285z m3170 -235 l0 -400 195 0 195 0 -2
-227 -3 -228 -193 -3 -193 -2 3 -463 3 -462 26 -50 c43 -83 97 -108 272 -120
l87 -7 -2 -246 -3 -247 -60 -3 c-90 -5 -304 16 -392 38 -234 59 -375 197 -433
424 -38 148 -40 223 -40 1324 l0 1072 270 0 270 0 0 -400z m-1565 -360 c119
-14 193 -34 290 -81 200 -95 335 -267 402 -515 l27 -99 4 -692 3 -693 -270 0
-270 0 -3 613 c-4 669 -3 659 -65 786 -56 116 -170 191 -320 213 -205 30 -398
-61 -486 -229 -72 -138 -70 -121 -74 -785 l-4 -598 -270 0 -269 0 0 1020 0
1020 265 0 265 0 0 -141 0 -140 88 89 c187 190 405 264 687 232z m3380 -15
c194 -34 375 -127 515 -265 95 -93 150 -168 210 -289 78 -156 110 -313 110
-542 l0 -139 -801 0 -800 0 6 -22 c39 -128 146 -258 259 -313 128 -63 300 -82
449 -49 102 22 243 93 312 155 50 46 59 51 76 40 17 -10 354 -265 368 -277 9
-8 -95 -106 -179 -170 -341 -260 -852 -309 -1233 -118 -108 55 -184 109 -268
193 -149 150 -244 333 -285 548 -22 121 -15 365 14 476 108 399 433 700 837
775 82 16 313 14 410 -3z m-4995 -1045 l0 -1020 -270 0 -270 0 0 1020 0 1020
270 0 270 0 0 -1020z"/>
<path d="M6740 5260 c-192 -23 -358 -133 -424 -282 -14 -29 -27 -68 -31 -85
l-7 -33 541 0 541 0 0 29 c0 15 -16 60 -35 99 -96 190 -336 302 -585 272z"/>
</g>
</svg>
