<?xml version="1.0" standalone="no"?>
<!DOCTYPE svg PUBLIC "-//W3C//DTD SVG 20010904//EN"
 "http://www.w3.org/TR/2001/REC-SVG-20010904/DTD/svg10.dtd">
<svg version="1.0" xmlns="http://www.w3.org/2000/svg"
 width="225.000000pt" height="225.000000pt" viewBox="0 0 225.000000 225.000000"
 preserveAspectRatio="xMidYMid meet">
<metadata>
Created by potrace 1.16, written by Peter Selinger 2001-2019
</metadata>
<g transform="translate(0.000000,225.000000) scale(0.100000,-0.100000)"
fill="#000000" stroke="none">
<path d="M209 1473 c-48 -41 -113 -112 -121 -135 -13 -32 13 -65 164 -216
l144 -142 151 152 c83 84 154 163 157 175 4 12 3 31 -3 41 -11 21 -123 132
-147 145 -26 15 -57 0 -108 -52 l-50 -50 -57 54 c-32 30 -67 55 -77 55 -11 0
-35 -12 -53 -27z"/>
<path d="M940 1491 c-111 -34 -169 -118 -170 -245 0 -38 5 -86 12 -107 30
-102 137 -166 260 -156 99 8 159 48 192 129 28 65 25 68 -59 68 -67 0 -75 -2
-75 -19 0 -26 -46 -61 -81 -61 -17 0 -41 11 -59 28 -61 56 -48 214 21 242 44
19 90 3 109 -37 15 -32 16 -33 88 -33 l74 0 -7 33 c-17 77 -65 130 -138 152
-54 16 -125 18 -167 6z"/>
<path d="M1810 1489 c-57 -17 -98 -55 -111 -101 -25 -95 15 -153 132 -188 40
-12 89 -28 107 -36 56 -24 35 -64 -35 -64 -34 0 -46 5 -58 24 -15 23 -20 24
-88 19 -40 -3 -73 -6 -74 -7 0 0 5 -19 12 -40 52 -151 357 -155 413 -6 14 37
8 104 -12 134 -20 31 -71 56 -174 86 -40 11 -75 27 -79 36 -16 41 68 61 102
24 15 -16 31 -20 87 -20 58 0 68 3 68 18 0 29 -36 78 -74 101 -42 26 -160 37
-216 20z"/>
<path d="M1230 1479 c0 -7 35 -118 77 -246 l77 -232 62 -6 c36 -4 69 -3 80 3
13 7 42 80 97 244 43 128 78 236 77 241 0 8 -95 9 -126 1 -17 -4 -28 -32 -64
-160 -24 -84 -45 -152 -47 -150 -2 2 -21 69 -42 150 -21 81 -41 149 -44 153
-4 3 -38 8 -77 11 -55 4 -70 2 -70 -9z"/>
<path d="M460 725 c0 -148 1 -155 20 -155 18 0 20 7 20 78 0 84 14 112 56 112
36 0 44 -20 44 -108 0 -81 1 -83 23 -80 21 3 22 8 25 89 2 74 0 89 -18 112
-25 31 -78 37 -104 12 -23 -23 -26 -19 -26 40 0 48 -2 55 -20 55 -19 0 -20 -7
-20 -155z"/>
<path d="M2097 820 c3 -11 7 -20 8 -20 1 0 5 9 8 20 3 12 0 20 -8 20 -8 0 -11
-8 -8 -20z"/>
<path d="M2163 822 c-8 -14 -8 -19 1 -19 7 0 13 9 13 19 1 10 1 18 0 18 -1 0
-7 -8 -14 -18z"/>
<path d="M282 784 c-12 -8 -22 -10 -22 -5 0 6 -11 11 -25 11 l-25 0 0 -150 0
-150 25 0 c23 0 25 3 25 50 0 47 1 50 19 40 33 -17 78 -11 107 13 51 44 41
166 -15 197 -28 14 -63 12 -89 -6z m84 -59 c26 -62 2 -115 -53 -115 -29 0 -36
5 -48 34 -10 23 -12 43 -5 64 13 47 18 52 56 52 31 0 37 -4 50 -35z"/>
<path d="M731 787 c-13 -6 -28 -22 -32 -34 -7 -19 -5 -23 11 -23 11 0 29 9 40
20 23 23 39 25 65 6 29 -21 12 -44 -40 -51 -54 -9 -84 -30 -90 -66 -10 -54 71
-91 120 -55 16 11 21 11 33 0 18 -18 52 -18 52 0 0 8 -4 18 -10 21 -5 3 -10
39 -10 80 0 68 -2 75 -26 94 -30 24 -77 27 -113 8z m99 -127 c0 -37 -38 -65
-75 -56 -18 5 -25 13 -25 31 0 14 1 25 3 25 1 0 20 7 42 15 54 19 55 19 55
-15z"/>
<path d="M943 792 c-22 -3 -23 -7 -23 -113 l0 -109 25 0 c24 0 25 2 25 74 0
85 17 114 63 107 4 0 7 10 7 24 0 31 -23 33 -48 5 -16 -19 -17 -19 -22 -3 -3
12 -13 17 -27 15z"/>
<path d="M1136 783 c-13 -13 -20 -15 -23 -5 -3 6 -13 12 -24 12 -18 0 -19 -8
-19 -110 0 -101 2 -110 19 -110 16 0 19 10 23 79 5 89 18 114 57 109 25 -3 26
-5 31 -93 5 -84 7 -90 28 -93 21 -3 22 -1 22 80 0 89 8 108 47 108 32 0 43
-28 43 -114 0 -69 2 -75 20 -73 18 1 20 8 20 94 0 80 -3 96 -20 113 -24 24
-72 26 -90 5 -7 -8 -17 -15 -22 -15 -5 0 -16 7 -24 15 -21 20 -66 19 -88 -2z"/>
<path d="M1465 789 c-39 -24 -48 -59 -15 -59 11 0 20 5 20 10 0 19 46 33 69
21 43 -23 10 -61 -54 -61 -57 0 -88 -68 -50 -110 22 -24 87 -27 105 -5 12 14
15 14 30 0 9 -8 24 -15 33 -15 21 0 33 20 17 30 -8 5 -15 38 -17 86 -3 47 -10
85 -18 93 -18 18 -95 24 -120 10z m79 -170 c-21 -24 -62 -22 -78 3 -14 23 10
48 55 57 31 6 34 5 37 -17 2 -13 -4 -33 -14 -43z"/>
<path d="M1685 778 c-48 -42 -51 -129 -5 -178 23 -25 36 -30 74 -30 36 0 52 6
71 25 14 13 25 31 25 40 0 22 -35 18 -52 -6 -19 -29 -66 -28 -90 1 -22 27 -23
78 -2 108 20 29 79 31 94 2 11 -21 50 -28 50 -9 0 6 -13 24 -29 40 -38 37 -97
40 -136 7z"/>
<path d="M1870 783 c0 -4 18 -53 39 -108 41 -107 41 -141 -3 -147 -11 -2 -22
-11 -24 -20 -3 -14 3 -18 26 -18 36 0 64 30 85 90 8 25 29 82 46 128 l30 82
-24 0 c-22 0 -27 -8 -47 -75 -13 -41 -25 -75 -28 -75 -3 0 -16 33 -30 73 -21
57 -31 73 -48 75 -12 2 -22 0 -22 -5z"/>
</g>
</svg>
