<?xml version="1.0" standalone="no"?>
<!DOCTYPE svg PUBLIC "-//W3C//DTD SVG 20010904//EN"
 "http://www.w3.org/TR/2001/REC-SVG-20010904/DTD/svg10.dtd">
<svg version="1.0" xmlns="http://www.w3.org/2000/svg"
 width="500.000000pt" height="500.000000pt" viewBox="0 0 500.000000 500.000000"
 preserveAspectRatio="xMidYMid meet">
<metadata>
Created by potrace 1.16, written by Peter Selinger 2001-2019
</metadata>
<g transform="translate(0.000000,500.000000) scale(0.100000,-0.100000)"
fill="#000000" stroke="none">
<path d="M0 2500 l0 -1180 2500 0 2500 0 0 1180 0 1180 -2500 0 -2500 0 0
-1180z m2150 930 c0 -5 -4 -10 -10 -10 -5 0 -10 5 -10 10 0 6 5 10 10 10 6 0
10 -4 10 -10z m416 -30 c207 0 364 -4 364 -9 0 -14 -32 -23 -44 -11 -6 6 -130
10 -353 10 l-343 0 0 -260 0 -260 602 0 c331 0 598 3 594 8 -238 237 -477 484
-473 489 3 3 18 -6 33 -20 15 -14 31 -24 36 -21 4 3 8 -1 8 -8 0 -7 34 -46 75
-86 41 -41 75 -78 75 -83 0 -5 7 -9 15 -9 8 0 15 -6 15 -14 0 -8 9 -17 19 -21
11 -3 27 -18 37 -33 10 -15 28 -36 42 -47 89 -75 145 -144 136 -168 -3 -8 -1
-18 5 -22 16 -9 15 -685 -1 -720 -6 -14 -15 -25 -19 -25 -4 0 -74 -65 -154
-144 -92 -91 -141 -146 -133 -150 9 -3 8 -5 -2 -3 -24 3 -92 -67 -84 -87 3 -9
2 -16 -4 -16 -6 0 -12 4 -14 9 -1 5 -16 -4 -33 -21 -16 -17 -24 -28 -17 -24 6
4 12 2 12 -3 0 -6 -6 -11 -12 -11 -9 0 -8 -4 2 -10 13 -8 12 -10 -2 -10 -10 0
-18 5 -18 12 0 6 -7 4 -18 -5 -10 -10 -26 -17 -34 -17 -9 0 -18 -3 -21 -7 -2
-5 -1 -1 2 7 3 8 7 286 9 618 l2 602 260 0 c225 0 260 2 260 15 0 13 -72 15
-607 13 l-608 -3 3 253 c2 175 0 252 -8 247 -7 -4 -10 -195 -10 -596 l0 -589
-25 0 c-14 0 -25 -4 -25 -10 0 -5 -7 -10 -15 -10 -8 0 -15 5 -15 10 0 6 -85
10 -235 10 -181 0 -235 3 -235 13 -5 159 3 694 11 703 5 6 7 19 3 28 -4 12 0
16 15 16 16 0 25 9 33 31 6 19 15 28 24 25 8 -3 11 0 7 10 -3 9 2 14 16 14 12
0 21 6 21 13 0 15 54 67 70 67 6 0 9 3 6 8 -7 11 21 45 32 38 6 -3 15 7 20 24
8 21 22 34 50 45 31 13 39 20 35 36 -4 12 0 19 9 19 8 0 28 11 44 25 16 14 34
25 39 25 6 0 3 5 -5 10 -10 6 -11 10 -2 10 6 0 12 6 12 14 0 8 7 16 15 20 8 3
15 1 15 -5 0 -6 7 -4 15 5 8 8 15 20 15 26 0 8 11 11 30 8 17 -3 30 0 30 5 0
5 7 6 16 3 9 -3 180 -6 380 -6z m-536 -40 c0 -5 -4 -10 -10 -10 -5 0 -10 5
-10 10 0 6 5 10 10 10 6 0 10 -4 10 -10z m-70 -70 c0 -5 -4 -10 -10 -10 -5 0
-10 5 -10 10 0 6 5 10 10 10 6 0 10 -4 10 -10z m1150 0 c0 -5 -4 -10 -10 -10
-5 0 -10 5 -10 10 0 6 5 10 10 10 6 0 10 -4 10 -10z m70 -80 c0 -5 -4 -10 -10
-10 -5 0 -10 5 -10 10 0 6 5 10 10 10 6 0 10 -4 10 -10z m70 -70 c0 -5 -4 -10
-10 -10 -5 0 -10 5 -10 10 0 6 5 10 10 10 6 0 10 -4 10 -10z m-1640 -240 c0
-5 -7 -10 -15 -10 -8 0 -15 5 -15 10 0 6 7 10 15 10 8 0 15 -4 15 -10z m-23
-722 c-3 -7 -5 -2 -5 12 0 14 2 19 5 13 2 -7 2 -19 0 -25z m1260 -18 c7 -18 7
-30 2 -30 -6 0 -10 -100 -9 -257 1 -142 1 -262 0 -268 0 -7 -117 -9 -335 -7
-249 2 -335 0 -335 -9 0 -6 -7 -9 -15 -5 -8 3 -15 1 -15 -4 0 -6 -7 -10 -15
-10 -8 0 -15 5 -15 10 0 6 4 10 9 10 5 0 7 9 4 21 -3 12 -11 18 -19 15 -8 -3
-14 0 -14 7 0 7 -9 18 -20 25 -11 7 -20 19 -20 27 0 8 -3 15 -7 15 -11 0 -73
56 -73 65 0 4 -17 22 -37 41 -64 57 -67 61 -88 87 -11 13 -23 23 -27 20 -5 -2
-8 1 -8 7 0 6 -11 16 -25 22 -13 6 -27 19 -30 30 -4 10 -13 18 -20 18 -8 0
-12 6 -9 13 2 7 -7 19 -21 27 -14 7 -25 16 -25 20 0 4 -16 24 -35 44 -19 21
-35 40 -35 44 0 4 276 6 612 5 337 -1 607 1 601 3 -17 7 -17 44 0 44 7 0 18
-13 24 -30z m403 -240 c0 -5 -4 -10 -10 -10 -5 0 -10 5 -10 10 0 6 5 10 10 10
6 0 10 -4 10 -10z m-160 -144 c0 -3 -4 -8 -10 -11 -5 -3 -10 -1 -10 4 0 6 5
11 10 11 6 0 10 -2 10 -4z m-1130 -76 c0 -5 -4 -10 -10 -10 -5 0 -10 5 -10 10
0 6 5 10 10 10 6 0 10 -4 10 -10z m70 -70 c0 -5 -4 -10 -10 -10 -5 0 -10 5
-10 10 0 6 5 10 10 10 6 0 10 -4 10 -10z"/>
<path d="M1955 3200 c-98 -98 -183 -176 -189 -173 -6 3 -7 2 -3 -2 4 -5 -26
-43 -68 -85 l-75 -76 2 -339 3 -340 260 0 260 0 3 576 c1 317 -1 586 -6 598
-7 18 -28 1 -187 -159z"/>
<path d="M2880 2225 c0 -327 3 -595 8 -595 4 0 123 116 265 258 l257 257 0
322 c0 177 -3 328 -6 337 -5 14 -38 16 -265 16 l-259 0 0 -595z"/>
<path d="M1895 1870 l261 -260 337 0 337 0 0 260 0 260 -597 0 -598 0 260
-260z"/>
</g>
</svg>
