<?xml version="1.0" standalone="no"?>
<!DOCTYPE svg PUBLIC "-//W3C//DTD SVG 20010904//EN"
 "http://www.w3.org/TR/2001/REC-SVG-20010904/DTD/svg10.dtd">
<svg version="1.0" xmlns="http://www.w3.org/2000/svg"
 width="800.000000pt" height="800.000000pt" viewBox="0 0 800.000000 800.000000"
 preserveAspectRatio="xMidYMid meet">
<metadata>
Created by potrace 1.16, written by Peter Selinger 2001-2019
</metadata>
<g transform="translate(0.000000,800.000000) scale(0.100000,-0.100000)"
fill="#000000" stroke="none">
<path d="M1777 3162 l-47 -3 2 -397 3 -397 113 -3 112 -3 0 306 0 305 118 0
c144 0 175 -12 212 -86 24 -47 25 -57 29 -287 l3 -238 107 3 106 3 0 265 c0
295 -7 338 -65 417 -44 59 -134 102 -226 108 -101 7 -411 11 -467 7z"/>
<path d="M3618 3163 l-108 -4 0 -399 0 -400 110 0 110 0 0 405 c0 223 -1 404
-2 403 -2 -1 -51 -4 -110 -5z"/>
<path d="M2595 3088 c13 -40 51 -158 85 -263 34 -104 82 -252 107 -328 l45
-137 161 2 160 3 52 160 c29 88 85 261 125 385 40 124 75 231 78 238 3 9 -23
12 -110 12 l-115 0 -87 -292 c-48 -161 -91 -302 -95 -313 -9 -23 0 -53 -107
327 l-79 278 -122 0 -122 0 24 -72z"/>
<path d="M3870 2759 l0 -402 258 5 c301 7 341 16 421 97 70 71 86 125 86 296
0 173 -19 230 -99 310 -82 81 -113 88 -413 93 l-253 4 0 -403z m413 220 c52
-14 111 -69 125 -117 19 -61 15 -170 -7 -219 -30 -64 -82 -94 -190 -106 -48
-6 -96 -7 -105 -4 -14 6 -16 32 -16 232 l0 225 78 0 c42 0 94 -5 115 -11z"/>
<path d="M4750 2760 l0 -401 110 3 c61 2 110 6 110 11 0 4 0 183 0 397 l0 390
-110 0 -110 0 0 -400z"/>
<path d="M5369 3133 c-5 -16 -21 -55 -34 -88 -13 -33 -71 -181 -129 -330 -58
-148 -113 -285 -121 -303 -8 -18 -15 -37 -15 -42 0 -15 205 -13 217 3 6 6 20
39 31 72 l20 60 187 0 187 0 24 -70 c13 -38 24 -71 24 -72 0 -2 54 -3 121 -3
73 0 119 4 117 10 -1 5 -73 185 -158 399 l-155 391 -153 0 -152 0 -11 -27z
m171 -144 c0 -6 11 -38 24 -72 46 -117 96 -257 96 -267 0 -6 -54 -10 -135 -10
-74 0 -135 3 -135 7 0 21 135 361 142 357 4 -3 8 -10 8 -15z"/>
<path d="M6098 2525 c-35 -20 -48 -44 -48 -92 0 -111 163 -140 206 -36 18 42
13 72 -19 109 -28 33 -98 42 -139 19z m107 -27 c49 -42 26 -137 -33 -139 -62
-3 -92 21 -92 73 0 76 70 113 125 66z"/>
<path d="M6110 2435 c0 -41 4 -55 14 -55 8 0 16 12 18 28 l4 27 14 -27 c7 -16
19 -28 27 -28 16 0 17 12 1 28 -9 9 -8 16 5 29 25 28 5 53 -43 53 l-40 0 0
-55z m70 25 c0 -5 -9 -10 -20 -10 -11 0 -20 5 -20 10 0 6 9 10 20 10 11 0 20
-4 20 -10z"/>
</g>
</svg>
