<?xml version="1.0" standalone="no"?>
<!DOCTYPE svg PUBLIC "-//W3C//DTD SVG 20010904//EN"
 "http://www.w3.org/TR/2001/REC-SVG-20010904/DTD/svg10.dtd">
<svg version="1.0" xmlns="http://www.w3.org/2000/svg"
 width="1024.000000pt" height="1024.000000pt" viewBox="0 0 1024.000000 1024.000000"
 preserveAspectRatio="xMidYMid meet">
<metadata>
Created by potrace 1.16, written by Peter Selinger 2001-2019
</metadata>
<g transform="translate(0.000000,1024.000000) scale(0.100000,-0.100000)"
fill="#000000" stroke="none">
<path d="M0 5115 l0 -3415 5120 0 5120 0 0 3415 0 3415 -5120 0 -5120 0 0
-3415z m3545 3003 c-3 -18 -6 -73 -8 -121 l-2 -88 95 -40 c52 -22 99 -44 103
-48 5 -5 -43 -21 -106 -35 l-115 -27 -7 -92 c-11 -166 -9 -164 -77 -48 -38 63
-66 101 -77 101 -9 0 -61 -11 -116 -24 -55 -14 -102 -23 -104 -21 -2 2 31 43
74 90 51 58 74 92 70 103 -3 8 -28 53 -56 99 -28 46 -49 87 -46 89 4 4 180
-65 208 -82 3 -1 39 37 80 86 41 49 78 89 82 89 4 1 5 -14 2 -31z m-1721 -630
l112 -343 369 -5 370 -5 -75 -55 c-41 -31 -173 -127 -292 -214 -120 -87 -220
-161 -222 -164 -2 -4 47 -162 108 -352 62 -190 112 -346 111 -348 -2 -2 -136
94 -299 213 l-297 216 -97 -70 c-53 -38 -187 -135 -297 -215 -110 -79 -201
-143 -202 -142 -2 2 46 155 107 342 60 186 110 344 110 349 0 6 -133 107 -296
225 l-296 215 370 3 370 2 90 278 c50 152 100 310 113 349 13 40 25 71 27 69
2 -3 54 -159 116 -348z m2409 -142 c59 30 107 53 107 51 0 -2 -25 -50 -55
-106 -30 -57 -55 -106 -55 -109 0 -4 37 -44 82 -89 46 -46 76 -83 68 -83 -8 0
-53 7 -100 15 -133 23 -122 28 -181 -85 -33 -63 -55 -96 -60 -88 -3 7 -12 59
-19 115 -10 78 -17 104 -29 107 -9 3 -61 13 -116 22 -55 9 -102 18 -104 20 -2
1 43 26 100 55 57 28 106 53 108 55 3 3 -10 106 -26 204 -5 35 -4 34 83 -52
l89 -86 108 54z m-102 -989 l37 -102 121 1 c66 0 121 -1 121 -3 0 -1 -40 -34
-90 -74 -49 -39 -90 -77 -90 -84 0 -7 16 -55 35 -106 20 -51 34 -96 33 -101
-2 -4 -46 21 -100 57 l-96 64 -94 -73 c-51 -41 -94 -73 -95 -72 -2 1 11 49 27
107 17 57 30 110 30 116 0 7 -43 41 -95 77 -95 63 -96 63 -64 70 17 3 71 6
119 6 l87 0 33 115 c18 64 36 113 39 109 3 -3 22 -51 42 -107z m-601 -704 c-3
-65 -4 -120 -3 -122 1 -2 53 -23 115 -46 62 -24 106 -46 98 -49 -8 -3 -61 -17
-116 -32 -118 -31 -114 -24 -114 -175 0 -49 -3 -89 -8 -89 -4 0 -34 43 -67 96
-69 109 -52 104 -207 60 -49 -13 -88 -22 -88 -19 0 3 32 45 70 93 39 48 70 90
70 94 0 3 -27 47 -61 98 -33 51 -56 94 -51 96 5 1 55 -15 110 -36 l102 -40 75
94 c42 52 77 94 78 94 1 0 0 -53 -3 -117z"/>
</g>
</svg>
