<?xml version="1.0" standalone="no"?>
<!DOCTYPE svg PUBLIC "-//W3C//DTD SVG 20010904//EN"
 "http://www.w3.org/TR/2001/REC-SVG-20010904/DTD/svg10.dtd">
<svg version="1.0" xmlns="http://www.w3.org/2000/svg"
 width="225.000000pt" height="225.000000pt" viewBox="0 0 225.000000 225.000000"
 preserveAspectRatio="xMidYMid meet">
<metadata>
Created by potrace 1.16, written by Peter Selinger 2001-2019
</metadata>
<g transform="translate(0.000000,225.000000) scale(0.100000,-0.100000)"
fill="#000000" stroke="none">
<path d="M995 2139 c-339 -44 -640 -262 -789 -572 -159 -330 -131 -714 74
-1018 56 -82 187 -213 269 -269 348 -234 804 -234 1152 0 82 56 213 187 269
269 306 454 204 1063 -232 1391 -214 161 -479 232 -743 199z m364 -69 c209
-51 410 -185 543 -360 68 -88 143 -246 170 -355 31 -129 31 -334 0 -459 -24
-97 -90 -246 -142 -321 -47 -68 -153 -178 -224 -232 -83 -63 -242 -137 -351
-165 -128 -32 -332 -32 -460 0 -109 28 -268 102 -351 165 -71 54 -177 164
-224 232 -52 75 -118 224 -142 321 -31 126 -32 332 0 458 94 376 401 663 782
732 103 18 291 11 399 -16z"/>
<path d="M1012 2029 c-212 -27 -415 -133 -527 -276 -96 -123 -156 -285 -157
-428 -1 -86 12 -130 56 -187 31 -42 41 -80 26 -108 -17 -33 -55 -42 -96 -25
-69 28 -97 154 -70 305 16 92 15 117 -3 47 -24 -97 -33 -235 -21 -335 44 -367
262 -616 602 -687 130 -28 199 -17 287 46 59 42 68 45 105 28 62 -29 47 -117
-26 -149 -79 -35 -125 -35 -323 -5 -21 3 -16 0 13 -10 138 -46 366 -39 537 16
124 39 206 90 300 184 115 114 181 251 205 422 14 106 -1 176 -56 248 -45 59
-40 116 12 135 18 7 35 6 58 -4 65 -27 98 -150 77 -281 -21 -126 -21 -131 0
-55 32 115 30 313 -4 442 -72 272 -245 462 -491 537 -173 53 -274 49 -368 -17
-85 -58 -148 -46 -148 28 0 45 33 82 88 102 40 14 160 17 232 6 28 -5 37 -4
24 1 -26 11 -187 31 -234 30 -19 -1 -63 -5 -98 -10z m8 -364 c78 -41 51 -180
-58 -297 -26 -27 -66 -61 -89 -75 -46 -27 -50 -32 -31 -51 41 -41 146 22 163
97 9 41 62 101 90 101 30 0 48 -23 39 -52 -4 -13 -24 -47 -45 -77 -27 -38 -39
-65 -39 -88 l0 -35 38 23 c20 13 69 43 107 68 l70 46 6 85 c7 101 36 167 98
223 88 79 201 46 201 -61 0 -50 -48 -128 -117 -192 -36 -33 -70 -60 -74 -60
-13 0 -10 -12 7 -35 12 -16 24 -19 75 -17 67 4 109 -15 109 -48 0 -29 -30 -40
-107 -40 -59 0 -76 -4 -115 -29 -159 -101 -150 -387 14 -455 126 -52 256 57
232 197 -13 81 -96 125 -144 77 -25 -25 -25 -57 0 -95 25 -38 25 -61 1 -75
-38 -20 -95 22 -111 82 -22 81 31 164 120 188 77 21 150 -10 197 -81 23 -34
28 -56 31 -116 4 -64 1 -80 -22 -128 -29 -58 -65 -93 -130 -127 -59 -31 -173
-30 -239 1 -61 30 -121 98 -148 170 -30 79 -24 196 15 274 25 51 124 157 147
157 11 0 11 11 0 29 -9 13 -59 -16 -254 -144 -11 -7 -19 -41 -26 -110 -12
-117 -38 -200 -86 -272 -103 -156 -305 -176 -367 -36 -33 75 -10 164 63 248
36 41 165 128 257 174 34 17 62 35 62 40 0 5 3 16 6 25 5 14 3 14 -30 1 -79
-33 -159 -10 -186 54 -8 20 -21 32 -41 36 -36 8 -76 39 -94 75 -31 59 -12 178
31 194 30 12 43 -10 32 -57 -12 -53 -3 -99 22 -122 11 -10 22 -16 25 -13 3 2
9 29 15 59 22 115 99 232 174 265 41 17 71 17 106 -1z"/>
<path d="M914 1575 c-30 -31 -80 -135 -90 -189 l-7 -39 31 22 c68 48 150 178
136 215 -9 24 -41 19 -70 -9z"/>
<path d="M1422 1578 c-30 -33 -62 -107 -62 -148 l0 -34 44 43 c52 51 92 121
83 144 -9 24 -40 21 -65 -5z"/>
<path d="M881 1013 c-79 -46 -183 -141 -205 -187 -24 -51 -21 -111 6 -130 30
-21 61 -20 108 4 63 32 109 112 141 246 11 47 19 90 17 95 -2 5 -32 -8 -67
-28z"/>
<path d="M1370 1996 c0 -2 9 -6 20 -9 11 -3 18 -1 14 4 -5 9 -34 13 -34 5z"/>
</g>
</svg>
