<?xml version="1.0" standalone="no"?>
<!DOCTYPE svg PUBLIC "-//W3C//DTD SVG 20010904//EN"
 "http://www.w3.org/TR/2001/REC-SVG-20010904/DTD/svg10.dtd">
<svg version="1.0" xmlns="http://www.w3.org/2000/svg"
 width="1000.000000pt" height="1000.000000pt" viewBox="0 0 1000.000000 1000.000000"
 preserveAspectRatio="xMidYMid meet">
<metadata>
Created by potrace 1.16, written by Peter Selinger 2001-2019
</metadata>
<g transform="translate(0.000000,1000.000000) scale(0.100000,-0.100000)"
fill="#000000" stroke="none">
<path d="M973 7020 c-233 -25 -472 -133 -650 -295 -138 -125 -252 -315 -298
-499 -35 -138 -35 -322 -1 -458 98 -385 447 -674 893 -738 54 -8 330 -10 883
-8 l805 3 61 33 c34 18 75 48 92 65 17 18 82 129 145 247 l114 215 460 3 460
2 104 -232 c115 -256 141 -293 224 -322 42 -14 102 -16 418 -16 297 0 368 3
364 13 -3 7 -177 430 -388 941 -411 994 -399 969 -492 1019 -40 21 -53 22
-349 25 -294 3 -309 2 -356 -18 -95 -41 -103 -54 -538 -870 -223 -421 -421
-780 -438 -799 -17 -18 -53 -44 -81 -57 l-50 -24 -450 0 c-410 0 -457 2 -530
19 -98 24 -160 51 -246 106 -216 139 -349 384 -349 643 0 126 22 217 82 342
45 93 61 115 147 200 104 103 188 155 326 201 69 23 79 24 605 29 l535 5 3
113 3 112 -558 0 c-307 0 -628 2 -713 4 -85 3 -192 1 -237 -4z m2590 -724 c18
-7 44 -26 59 -42 20 -22 150 -289 205 -421 4 -10 -67 -13 -336 -13 -188 0
-341 3 -341 6 0 7 187 357 216 405 25 40 93 79 137 79 15 0 42 -6 60 -14z"/>
<path d="M4870 6926 c0 -52 3 -101 6 -110 5 -14 49 -16 390 -16 371 0 385 -1
404 -20 20 -20 20 -33 20 -890 l0 -870 447 0 446 0 -6 871 c-5 848 -5 871 14
890 18 18 38 19 399 19 l380 0 0 110 0 110 -1250 0 -1250 0 0 -94z"/>
<path d="M7552 6113 l3 -908 22 -40 c28 -53 78 -99 133 -124 44 -20 60 -21
1168 -21 l1122 0 0 115 0 115 -689 0 -690 0 -20 26 c-21 27 -21 32 -21 885 l0
859 -515 0 -515 0 2 -907z"/>
<path d="M2080 4220 l0 -40 -295 0 -295 0 0 -170 0 -170 130 0 130 0 0 90 0
90 418 0 c256 0 431 -4 454 -10 58 -16 68 -33 68 -106 l0 -64 136 0 136 0 -4
119 c-3 133 -13 157 -79 196 -31 18 -55 20 -276 23 l-243 4 0 39 0 39 -140 0
-140 0 0 -40z"/>
<path d="M3307 4232 c-9 -44 -69 -124 -120 -157 l-46 -30 0 -113 c-1 -130 -6
-127 98 -71 30 16 56 28 58 26 6 -6 -79 -88 -118 -114 l-39 -26 0 -114 0 -113
40 20 c21 11 42 20 45 20 3 0 5 -133 5 -295 l0 -295 74 0 c41 0 86 4 100 10
l26 10 0 369 c0 354 1 371 20 404 23 39 54 125 63 175 l7 32 -65 0 -65 0 35
53 c36 54 68 134 80 200 l7 37 -100 0 -99 0 -6 -28z"/>
<path d="M5940 4210 l0 -50 -260 0 -260 0 0 -75 0 -75 244 0 c209 0 247 -2
260 -16 14 -13 16 -66 16 -428 0 -407 0 -413 -21 -432 -19 -17 -41 -19 -195
-22 l-174 -3 0 -59 c0 -50 3 -61 21 -70 14 -8 96 -11 254 -8 257 3 259 4 309
72 20 27 21 41 24 497 l3 469 54 0 55 0 0 75 0 75 -55 0 -55 0 0 50 0 50 -110
0 -110 0 0 -50z"/>
<path d="M6572 4187 c-24 -84 -87 -184 -143 -229 l-39 -31 0 -119 c0 -65 4
-118 9 -118 5 0 25 7 44 15 20 8 39 15 42 15 3 0 5 -169 5 -376 l0 -376 96 4
c81 2 98 6 110 22 12 16 14 97 14 466 0 430 1 448 21 489 30 63 59 186 59 253
l0 58 -98 0 -98 0 -22 -73z"/>
<path d="M7130 4253 c0 -5 7 -64 15 -133 8 -69 15 -133 15 -142 0 -16 -14 -18
-165 -18 l-165 0 0 -80 0 -80 178 0 178 0 186 -412 186 -413 126 -3 c97 -2
126 0 126 10 0 7 -83 193 -183 413 l-184 400 142 5 c156 6 179 13 215 73 26
43 26 119 -1 202 l-22 65 -104 0 c-80 0 -104 -3 -100 -12 2 -7 13 -39 22 -70
18 -56 18 -58 0 -78 -16 -17 -30 -20 -110 -20 l-92 0 -12 128 c-19 191 -4 172
-137 172 -63 0 -114 -3 -114 -7z"/>
<path d="M3970 4225 l0 -25 -225 0 -225 0 0 -65 0 -65 225 0 225 0 0 -35 0
-35 -205 0 -205 0 0 -210 0 -210 506 0 506 0 -4 158 c-4 176 -12 204 -71 241
-31 19 -49 21 -186 21 l-151 0 0 35 0 35 214 0 c211 0 215 0 230 22 9 12 16
42 16 65 l0 43 -230 0 -230 0 0 25 c0 25 0 25 -95 25 -95 0 -95 0 -95 -25z
m-142 -361 c19 -13 22 -24 22 -90 l0 -74 -55 0 -55 0 0 90 0 90 33 0 c18 0 43
-7 55 -16z m270 0 c19 -13 22 -24 22 -90 l0 -74 -55 0 -55 0 0 90 0 90 33 0
c18 0 43 -7 55 -16z m270 0 c19 -13 22 -24 22 -90 l0 -74 -55 0 -55 0 0 90 0
90 33 0 c18 0 43 -7 55 -16z"/>
<path d="M4810 3606 l0 -636 280 0 280 0 -2 584 c-3 573 -3 585 -24 612 -50
68 -53 69 -305 72 l-229 3 0 -635z m355 479 c25 -24 25 -26 25 -205 l0 -180
-95 0 -95 0 0 205 0 205 70 0 c62 0 74 -3 95 -25z m0 -550 c25 -24 25 -25 25
-225 l0 -200 -95 0 -95 0 0 225 0 225 70 0 c62 0 74 -3 95 -25z"/>
<path d="M5490 3817 c0 -2 23 -110 50 -241 28 -131 50 -240 50 -242 0 -2 48
-4 106 -4 96 0 105 2 100 18 -3 9 -23 96 -46 192 -71 303 -57 280 -176 280
-46 0 -84 -1 -84 -3z"/>
<path d="M1470 3665 l0 -75 248 -1 c280 0 332 -6 367 -39 25 -23 25 -24 25
-216 0 -166 -2 -193 -16 -198 -9 -3 -69 -6 -135 -6 l-119 0 0 -75 0 -75 205 0
c227 0 252 5 298 59 l27 33 0 259 0 259 290 0 c331 0 310 -6 310 94 l0 56
-750 0 -750 0 0 -75z"/>
<path d="M3550 3470 l0 -60 503 0 c378 0 506 3 515 12 7 7 12 34 12 60 l0 48
-515 0 -515 0 0 -60z"/>
<path d="M4233 3383 c-23 -4 -30 -19 -35 -74 l-3 -27 -115 34 c-63 19 -118 34
-122 34 -5 0 -8 -27 -8 -60 0 -72 -1 -71 182 -124 193 -55 238 -49 238 33 0
17 3 31 6 31 4 0 60 -20 125 -45 65 -25 121 -45 124 -45 3 0 5 29 5 64 l0 63
-137 51 c-120 45 -217 74 -233 70 -3 0 -15 -3 -27 -5z"/>
<path d="M3520 3165 l0 -185 56 0 c48 0 59 4 85 29 l29 29 0 156 0 156 -85 0
-85 0 0 -185z"/>
<path d="M3732 3195 c3 -154 3 -155 31 -182 l27 -28 372 -3 c371 -3 371 -3
394 19 18 17 24 33 24 66 l0 43 -319 0 c-176 0 -326 3 -335 6 -13 5 -16 25
-16 120 l0 114 -91 0 -91 0 4 -155z"/>
</g>
</svg>
