<?xml version="1.0" standalone="no"?>
<!DOCTYPE svg PUBLIC "-//W3C//DTD SVG 20010904//EN"
 "http://www.w3.org/TR/2001/REC-SVG-20010904/DTD/svg10.dtd">
<svg version="1.0" xmlns="http://www.w3.org/2000/svg"
 width="225.000000pt" height="225.000000pt" viewBox="0 0 225.000000 225.000000"
 preserveAspectRatio="xMidYMid meet">
<metadata>
Created by potrace 1.16, written by Peter Selinger 2001-2019
</metadata>
<g transform="translate(0.000000,225.000000) scale(0.100000,-0.100000)"
fill="#000000" stroke="none">
<path d="M511 1337 c-8 -10 -7 -22 1 -45 34 -89 -103 -276 -160 -218 -13 13
-11 19 15 53 49 62 85 131 81 155 -4 32 -36 34 -78 6 -40 -26 -100 -135 -100
-180 0 -35 -40 -59 -65 -38 -34 28 -11 123 49 205 12 17 25 35 28 40 4 6 -23
9 -75 7 -62 -2 -85 -7 -94 -19 -22 -28 -15 -33 48 -33 l60 0 -20 -28 c-35 -49
-63 -133 -56 -168 8 -44 27 -58 72 -50 48 8 68 8 116 0 51 -9 89 9 141 68 76
84 113 183 90 242 -7 19 -37 21 -53 3z m-111 -90 c0 -16 -54 -102 -70 -112
-20 -12 -19 -1 1 45 29 65 69 104 69 67z"/>
<path d="M920 1302 c-56 -26 -112 -91 -156 -183 -16 -33 -32 -51 -48 -55 -57
-14 -62 36 -9 91 32 33 34 38 19 47 -43 24 -153 -22 -191 -81 -55 -82 -26
-127 48 -76 46 31 47 31 47 0 0 -22 4 -25 33 -25 17 0 45 7 61 15 26 14 31 14
46 0 23 -21 52 -19 83 5 30 24 37 25 37 5 0 -24 25 -28 59 -11 43 23 44 21 20
-26 -37 -75 -65 -96 -71 -55 l-3 22 -22 -22 c-29 -29 -30 -53 -1 -53 35 0 101
45 134 92 36 49 84 141 84 159 0 7 7 20 16 30 15 17 14 18 -18 24 -52 10 -105
-17 -168 -85 -36 -39 -64 -60 -78 -60 -41 0 -33 25 27 87 100 102 129 190 51
155z m0 -50 c0 -13 -54 -83 -89 -116 -47 -45 -40 -10 14 63 39 53 75 78 75 53z
m-253 -99 c5 -14 -43 -61 -75 -74 -47 -19 -58 21 -17 65 19 21 33 26 57 24 17
-2 33 -8 35 -15z m379 5 c10 -15 -72 -90 -94 -86 -28 5 -25 34 8 67 32 31 73
41 86 19z"/>
<path d="M2000 1188 c-52 -60 -115 -108 -142 -108 -31 0 -22 46 17 89 22 25
32 42 25 46 -12 8 -28 -3 -87 -59 -49 -46 -65 -42 -33 8 37 61 17 61 -50 1
-64 -56 -145 -105 -175 -105 -27 0 -16 15 34 42 93 53 111 127 26 111 -28 -6
-108 -77 -136 -122 -12 -20 -26 -25 -72 -29 -31 -2 -57 -1 -57 4 0 5 20 20 45
33 47 25 87 75 78 98 -8 22 -77 16 -109 -9 -40 -32 -63 -59 -70 -86 -8 -29
-50 -47 -70 -31 -21 18 -17 33 21 79 19 23 35 44 35 47 0 3 -19 2 -42 -2 -35
-6 -40 -5 -35 9 4 9 2 16 -3 16 -12 0 -50 -50 -50 -65 0 -7 -19 -34 -42 -60
-23 -26 -34 -43 -23 -37 11 5 34 26 52 46 17 20 39 36 48 36 14 0 14 -4 -4
-29 -25 -35 -27 -79 -4 -88 9 -4 35 0 59 9 35 12 44 12 60 1 23 -17 78 -16
128 2 34 12 42 12 62 -2 32 -21 77 -11 144 31 30 19 56 33 58 31 2 -2 -3 -14
-12 -27 -35 -50 -6 -52 58 -3 26 19 48 35 50 35 2 0 3 -15 2 -32 -1 -30 2 -33
30 -36 26 -3 45 8 107 57 41 34 78 61 81 61 8 0 7 -43 -2 -56 -4 -5 -22 -16
-39 -23 -59 -24 -40 -37 55 -38 75 -1 90 2 110 20 12 11 22 23 22 26 0 3 -21
6 -47 6 -54 0 -51 -7 -35 99 8 48 7 56 -7 56 -9 -1 -36 -24 -61 -52z m-570
-10 c0 -18 -10 -30 -44 -56 -39 -30 -49 -28 -31 7 22 44 75 78 75 49z m200 1
c0 -15 -59 -69 -76 -69 -21 0 -17 15 15 49 29 31 61 41 61 20z"/>
</g>
</svg>
