<?xml version="1.0" standalone="no"?>
<!DOCTYPE svg PUBLIC "-//W3C//DTD SVG 20010904//EN"
 "http://www.w3.org/TR/2001/REC-SVG-20010904/DTD/svg10.dtd">
<svg version="1.0" xmlns="http://www.w3.org/2000/svg"
 width="1024.000000pt" height="1024.000000pt" viewBox="0 0 1024.000000 1024.000000"
 preserveAspectRatio="xMidYMid meet">
<metadata>
Created by potrace 1.16, written by Peter Selinger 2001-2019
</metadata>
<g transform="translate(0.000000,1024.000000) scale(0.100000,-0.100000)"
fill="#000000" stroke="none">
<path d="M4696 7694 c-38 -8 -71 -16 -73 -18 -4 -3 19 -138 122 -716 36 -207
74 -421 106 -610 10 -63 24 -138 29 -165 l10 -51 80 15 c59 11 80 19 80 30 0
9 -16 104 -35 211 -30 168 -108 609 -135 765 -40 229 -83 477 -88 509 -4 22
-12 40 -17 41 -6 2 -41 -4 -79 -11z"/>
<path d="M5535 7687 c-5 -25 -33 -181 -69 -387 -115 -655 -196 -1123 -196
-1130 0 -8 138 -36 144 -29 2 2 58 319 125 704 67 385 128 730 135 767 l13 67
-56 11 c-31 6 -64 12 -74 14 -11 3 -19 -3 -22 -17z"/>
<path d="M3853 7382 c-46 -26 -83 -50 -83 -54 0 -4 14 -31 31 -60 32 -54 630
-1096 702 -1223 22 -38 41 -71 42 -73 1 -1 13 6 26 17 14 11 53 33 87 51 34
17 62 33 62 34 0 1 -102 180 -226 397 -124 217 -299 521 -387 677 -89 155
-164 282 -167 282 -3 0 -42 -21 -87 -48z"/>
<path d="M6344 7313 c-31 -54 -74 -127 -94 -163 -21 -36 -81 -141 -135 -235
-54 -93 -132 -231 -175 -305 -43 -74 -130 -226 -194 -336 -64 -111 -116 -205
-116 -210 0 -7 75 -56 112 -72 3 -2 26 32 50 75 25 43 152 265 283 493 131
228 257 449 280 490 24 41 70 122 104 180 33 58 61 108 61 112 0 6 -102 68
-113 68 -3 0 -31 -44 -63 -97z"/>
<path d="M3168 6805 c-40 -47 -74 -90 -76 -94 -1 -4 91 -86 204 -182 114 -96
381 -321 593 -501 l386 -328 25 33 c14 17 49 58 79 90 54 57 54 58 35 76 -10
10 -269 229 -574 486 -305 257 -565 476 -577 487 l-21 20 -74 -87z"/>
<path d="M7055 6779 c-33 -28 -82 -70 -110 -94 -27 -23 -111 -94 -185 -156
-588 -494 -820 -693 -820 -703 1 -6 16 -29 35 -50 32 -36 36 -38 52 -24 10 8
278 234 596 502 l578 488 -37 41 c-21 23 -40 43 -43 44 -3 2 -33 -20 -66 -48z"/>
<path d="M2745 6103 c-9 -21 -30 -78 -47 -126 -26 -73 -29 -90 -17 -97 7 -5
65 -28 129 -50 180 -66 718 -263 1015 -372 149 -55 276 -101 283 -102 8 0 24
30 41 79 15 44 37 99 49 122 12 23 22 44 22 46 0 3 -46 22 -102 42 -95 35
-280 102 -1062 389 -158 58 -290 106 -292 106 -2 0 -11 -17 -19 -37z"/>
<path d="M6160 5448 c0 -2 9 -30 19 -63 28 -88 44 -245 36 -345 -23 -282 -130
-508 -332 -701 -94 -89 -163 -136 -286 -194 -159 -75 -232 -90 -447 -89 -173
0 -191 2 -275 28 -112 34 -233 90 -316 147 -82 55 -224 197 -276 274 -76 113
-144 269 -159 365 -4 22 -10 43 -14 45 -5 3 -190 -62 -412 -143 -221 -82 -542
-200 -713 -262 -170 -62 -314 -117 -320 -122 -10 -9 50 -200 89 -282 l21 -44
365 134 c460 169 1030 380 1053 389 41 17 10 -18 -95 -106 -62 -52 -187 -158
-277 -234 -90 -77 -226 -192 -301 -255 -75 -63 -214 -180 -308 -259 l-171
-144 32 -45 c18 -25 72 -91 121 -149 89 -104 89 -104 110 -85 12 10 125 106
251 212 127 107 275 233 330 280 56 47 154 130 220 185 65 55 154 131 198 169
43 37 81 66 83 63 3 -3 -153 -283 -348 -623 -194 -340 -354 -624 -356 -630 -4
-17 341 -225 352 -213 2 2 104 180 226 394 373 654 428 749 445 770 16 19 16
19 10 -15 -19 -115 -181 -1030 -204 -1158 -25 -137 -26 -154 -12 -161 43 -23
417 -85 425 -72 3 3 23 114 46 246 22 132 47 274 55 315 8 41 37 210 66 375
28 165 55 304 59 309 5 4 12 -13 16 -39 3 -26 53 -309 109 -629 l102 -581 39
3 c113 8 400 63 416 80 4 4 -8 93 -27 197 -18 105 -63 357 -98 560 -36 204
-67 375 -69 380 -1 6 2 12 7 14 6 2 20 -16 33 -40 13 -24 60 -107 104 -184 45
-77 116 -201 158 -275 101 -175 278 -481 289 -498 11 -18 174 64 338 170 118
77 123 81 110 102 -8 11 -41 68 -74 126 -230 405 -418 729 -434 753 -34 47
-15 53 32 11 60 -55 751 -638 767 -648 17 -10 56 27 156 144 80 93 211 269
205 274 -64 55 -675 569 -700 587 -49 38 -31 45 43 16 35 -14 198 -75 363
-135 165 -60 337 -124 383 -140 l83 -31 23 52 c22 48 59 142 91 227 30 81 76
263 68 270 -10 9 -748 280 -762 280 -6 0 -11 5 -11 10 0 7 145 10 415 10 376
0 416 2 422 16 9 25 9 448 0 537 l-9 77 -789 0 c-434 0 -789 -1 -789 -2z"/>
<path d="M2564 5268 c-10 -16 -16 -178 -10 -241 l8 -67 769 2 770 3 1 153 1
152 -768 3 c-422 1 -769 -1 -771 -5z"/>
</g>
</svg>
