<?xml version="1.0" standalone="no"?>
<!DOCTYPE svg PUBLIC "-//W3C//DTD SVG 20010904//EN"
 "http://www.w3.org/TR/2001/REC-SVG-20010904/DTD/svg10.dtd">
<svg version="1.0" xmlns="http://www.w3.org/2000/svg"
 width="1024.000000pt" height="1024.000000pt" viewBox="0 0 1024.000000 1024.000000"
 preserveAspectRatio="xMidYMid meet">
<metadata>
Created by potrace 1.16, written by Peter Selinger 2001-2019
</metadata>
<g transform="translate(0.000000,1024.000000) scale(0.100000,-0.100000)"
fill="#000000" stroke="none">
<path d="M4510 6781 c-114 -25 -160 -91 -160 -231 l0 -80 -50 0 -50 0 0 -74 0
-75 48 -3 47 -3 3 -267 2 -268 110 0 110 0 0 270 0 270 60 0 60 0 0 75 0 75
-60 0 -60 0 0 55 c0 47 3 57 25 71 15 10 38 15 60 12 l35 -4 0 88 c0 85 -1 88
-22 88 -13 0 -45 2 -73 4 -27 3 -66 1 -85 -3z"/>
<path d="M608 6764 c-5 -4 -8 -227 -8 -496 l0 -488 233 0 c257 0 302 7 373 58
111 81 130 262 38 371 -15 18 -49 45 -75 60 -47 27 -48 28 -26 38 44 20 90 68
113 118 59 126 0 264 -134 316 -51 20 -80 23 -282 27 -124 2 -228 0 -232 -4z
m381 -185 c37 -13 61 -53 61 -101 0 -69 -57 -108 -155 -108 l-55 0 0 110 0
110 59 0 c32 0 72 -5 90 -11z m-1 -384 c45 -18 72 -59 72 -108 0 -89 -46 -127
-152 -127 l-68 0 0 125 0 125 55 0 c30 0 72 -7 93 -15z"/>
<path d="M2797 6764 c-4 -4 -7 -227 -7 -496 l0 -488 115 0 115 0 0 128 c0 121
1 130 23 150 l23 22 54 -150 53 -150 117 0 118 0 -38 98 c-21 53 -63 161 -93
239 l-55 143 89 101 c49 55 89 102 89 105 0 2 -49 4 -108 4 l-109 0 -79 -102
-79 -101 -5 249 -5 249 -106 3 c-58 1 -108 -1 -112 -4z"/>
<path d="M5085 6758 c-3 -7 -54 -224 -115 -483 -61 -258 -113 -476 -115 -482
-3 -10 22 -13 104 -13 l109 0 23 98 24 97 115 0 114 0 9 -45 c4 -25 13 -69 18
-97 l10 -53 120 0 c65 0 119 3 119 8 -1 4 -47 225 -103 492 l-103 485 -162 3
c-125 2 -164 0 -167 -10z m185 -393 c17 -99 33 -188 36 -197 5 -16 -3 -18 -75
-18 -58 0 -81 4 -81 13 0 6 16 86 35 177 44 208 45 213 50 209 2 -2 17 -85 35
-184z"/>
<path d="M7924 6757 c-3 -8 -4 -54 -2 -103 l3 -89 113 -3 112 -3 0 106 0 105
-110 0 c-83 0 -112 -3 -116 -13z"/>
<path d="M1567 6476 c-69 -19 -127 -63 -155 -119 -14 -26 -22 -50 -19 -54 7
-6 161 -42 185 -43 6 0 12 9 12 20 0 27 43 70 70 70 34 0 60 -35 60 -83 l0
-44 -77 -16 c-101 -22 -190 -65 -230 -110 -93 -106 -55 -274 72 -323 59 -22
125 -13 188 26 27 17 50 30 53 30 2 0 4 -11 4 -25 l0 -25 113 0 112 0 -5 272
c-6 293 -10 318 -61 365 -65 60 -220 88 -322 59z m153 -445 c0 -74 -2 -81 -26
-100 -34 -27 -68 -27 -95 0 -17 17 -20 30 -16 66 5 49 27 79 72 99 61 27 65
22 65 -65z"/>
<path d="M2417 6476 c-21 -8 -56 -26 -77 -40 l-40 -26 0 30 0 30 -110 0 -110
0 0 -345 0 -345 110 0 110 0 0 250 0 250 33 20 c38 24 47 24 73 6 18 -13 19
-30 22 -270 l3 -256 109 0 110 0 0 298 c0 326 -3 342 -62 385 -35 26 -120 32
-171 13z"/>
<path d="M3777 6476 c-21 -8 -53 -24 -72 -37 -129 -87 -173 -336 -92 -513 45
-96 123 -151 234 -162 224 -24 365 133 350 391 -8 153 -56 244 -158 300 -45
24 -68 30 -139 32 -56 2 -98 -2 -123 -11z m157 -145 c40 -44 47 -309 10 -386
-18 -39 -51 -53 -84 -35 -39 21 -50 68 -50 219 0 142 8 186 37 209 25 18 67
15 87 -7z"/>
<path d="M6042 6475 c-23 -7 -58 -25 -77 -39 -43 -33 -45 -33 -45 4 l0 30
-110 0 -110 0 0 -345 0 -345 110 0 110 0 0 250 0 250 33 20 c40 25 52 25 77 0
19 -19 20 -33 20 -270 l0 -250 110 0 110 0 0 250 0 250 33 20 c40 25 52 25 77
0 19 -19 20 -33 20 -270 l0 -250 110 0 110 0 0 298 c0 341 -2 349 -80 390 -74
37 -166 23 -242 -38 l-37 -30 -22 31 c-39 56 -110 71 -197 44z"/>
<path d="M6914 6474 c-63 -23 -119 -77 -156 -151 -29 -60 -33 -78 -36 -169 -6
-142 18 -220 88 -298 65 -70 117 -91 225 -90 93 0 160 28 213 88 45 51 66 95
50 101 -7 2 -38 13 -68 25 -71 26 -73 26 -88 -10 -16 -35 -58 -60 -100 -60
-39 0 -78 38 -92 90 -21 78 -28 75 183 78 l187 2 0 53 c0 70 -26 173 -55 224
-32 53 -95 107 -144 121 -52 16 -157 14 -207 -4z m156 -134 c21 -11 40 -60 40
-101 l0 -29 -85 0 c-95 0 -95 0 -75 72 17 58 71 84 120 58z"/>
<path d="M7757 6474 c-29 -9 -63 -30 -87 -54 l-40 -40 0 45 0 45 -110 0 -110
0 0 -345 0 -345 115 0 115 0 0 229 0 229 28 18 c20 15 45 19 105 19 l77 0 0
108 c0 122 2 120 -93 91z"/>
<path d="M8480 6481 c-76 -23 -157 -98 -190 -176 -84 -195 -27 -424 127 -508
96 -52 234 -45 316 16 43 33 90 113 101 173 6 36 6 35 -115 49 l-56 7 -6 -42
c-13 -99 -112 -124 -148 -38 -22 52 -19 303 4 345 44 82 137 37 137 -67 l0
-30 96 0 97 0 -6 50 c-12 98 -78 185 -164 216 -41 14 -152 17 -193 5z"/>
<path d="M9107 6476 c-69 -19 -127 -63 -155 -119 -14 -26 -22 -50 -19 -53 6
-7 153 -43 174 -44 7 0 19 15 27 34 38 90 126 63 126 -39 0 -31 -2 -34 -42
-40 -59 -9 -165 -42 -197 -62 -112 -70 -151 -184 -100 -290 25 -51 59 -78 123
-95 55 -15 119 -1 178 38 46 30 48 30 48 -1 l0 -25 116 0 c90 0 113 3 107 13
-4 6 -10 136 -13 288 l-5 276 -29 38 c-58 76 -220 115 -339 81z m153 -445 c0
-74 -2 -81 -26 -100 -34 -27 -68 -27 -95 0 -17 17 -20 30 -16 66 5 49 27 79
72 99 61 27 65 22 65 -65z"/>
<path d="M7920 6125 l0 -345 115 0 115 0 0 345 0 345 -115 0 -115 0 0 -345z"/>
<path d="M9633 5932 c-28 -22 -45 -66 -37 -98 8 -32 59 -74 90 -74 91 0 133
101 69 166 -29 29 -89 32 -122 6z m116 -28 c55 -69 -18 -151 -97 -110 -47 24
-55 66 -21 110 16 20 29 26 59 26 30 0 43 -6 59 -26z"/>
<path d="M9650 5861 c0 -27 5 -53 10 -56 6 -4 10 5 10 19 0 33 15 33 36 1 19
-30 31 -27 15 4 -9 16 -8 22 5 29 9 5 14 18 12 28 -2 14 -13 20 -46 22 l-42 3
0 -50z m70 24 c0 -9 -9 -15 -25 -15 -16 0 -25 6 -25 15 0 9 9 15 25 15 16 0
25 -6 25 -15z"/>
<path d="M4806 5150 c-70 -16 -137 -32 -149 -36 -15 -5 39 -26 185 -74 225
-75 527 -192 691 -269 l105 -49 161 47 c88 26 163 50 166 53 23 22 -860 335
-995 353 -19 2 -93 -9 -164 -25z"/>
<path d="M4277 5005 c-93 -29 -171 -55 -173 -57 -2 -3 85 -34 194 -70 225 -75
474 -172 677 -264 77 -35 144 -64 150 -64 10 0 317 109 323 115 11 11 -443
202 -683 287 -116 42 -320 110 -320 107 0 0 -76 -25 -168 -54z"/>
<path d="M3940 4751 c-183 -65 -363 -136 -521 -206 -144 -64 -469 -227 -469
-235 0 -4 78 -37 174 -74 l173 -68 114 65 c254 144 605 309 878 413 175 66
178 53 -27 122 -67 23 -130 42 -140 41 -9 0 -91 -26 -182 -58z"/>
<path d="M6085 4758 c-715 -205 -1447 -533 -2067 -928 -79 -51 -147 -95 -152
-100 -5 -5 37 -31 95 -61 96 -48 322 -168 361 -192 13 -9 53 14 200 110 626
411 1345 754 2036 973 75 24 130 46 125 51 -10 10 -314 152 -382 178 l-46 18
-170 -49z"/>
<path d="M4453 4590 c-170 -69 -374 -161 -538 -242 -151 -75 -455 -241 -455
-248 1 -5 360 -181 370 -180 3 0 73 39 155 86 196 112 617 321 823 409 l163
69 -43 22 c-46 23 -200 90 -283 122 l-50 20 -142 -58z"/>
<path d="M6680 4486 c-561 -204 -1063 -441 -1565 -739 -213 -127 -587 -375
-583 -387 2 -5 62 -47 133 -93 72 -46 179 -118 239 -161 60 -43 115 -80 121
-82 6 -3 105 66 220 151 556 416 1194 791 1805 1059 85 37 159 71 163 76 8 7
-95 71 -291 179 -50 28 -93 51 -95 50 -1 0 -67 -24 -147 -53z"/>
<path d="M7118 4129 c-10 -5 -18 -21 -18 -34 0 -20 8 -27 40 -36 50 -15 57
-49 11 -49 -17 0 -33 5 -36 10 -3 6 -11 10 -17 10 -6 0 -3 -9 7 -20 10 -11 30
-20 45 -20 63 0 67 74 5 86 -25 4 -35 11 -35 25 0 22 38 27 58 7 7 -7 12 -8
12 -2 0 29 -40 42 -72 23z"/>
<path d="M7232 4058 l1 -73 6 60 6 60 21 -53 c11 -29 24 -54 29 -55 4 -1 17
23 29 53 l21 55 3 -58 c4 -78 22 -63 22 19 0 56 -2 64 -19 64 -13 0 -22 -12
-31 -45 -7 -25 -16 -47 -19 -50 -4 -2 -16 18 -26 46 -29 73 -45 64 -43 -23z"/>
</g>
</svg>
