<?xml version="1.0" standalone="no"?>
<!DOCTYPE svg PUBLIC "-//W3C//DTD SVG 20010904//EN"
 "http://www.w3.org/TR/2001/REC-SVG-20010904/DTD/svg10.dtd">
<svg version="1.0" xmlns="http://www.w3.org/2000/svg"
 width="325.000000pt" height="325.000000pt" viewBox="0 0 325.000000 325.000000"
 preserveAspectRatio="xMidYMid meet">
<metadata>
Created by potrace 1.16, written by Peter Selinger 2001-2019
</metadata>
<g transform="translate(0.000000,325.000000) scale(0.100000,-0.100000)"
fill="#000000" stroke="none">
<path d="M183 2010 c-32 -13 -56 -55 -48 -82 18 -57 22 -58 229 -58 157 0 196
-3 214 -16 12 -8 22 -22 22 -31 0 -8 -51 -68 -114 -132 -133 -137 -150 -164
-151 -246 0 -79 36 -143 102 -181 39 -24 60 -28 149 -32 l103 -5 30 31 c36 36
39 59 11 95 -18 23 -27 25 -114 29 -75 2 -98 7 -115 22 -41 37 -29 59 103 195
75 76 128 139 133 157 25 94 -11 190 -89 234 -41 24 -50 25 -243 27 -110 1
-210 -2 -222 -7z"/>
<path d="M1130 2013 c-61 -10 -124 -38 -180 -79 -33 -24 -60 -48 -60 -53 0 -5
78 -10 173 -13 162 -3 176 -5 222 -29 134 -68 173 -242 81 -362 -105 -138
-324 -112 -397 48 -13 29 -19 64 -19 128 0 73 -3 90 -20 107 -27 27 -63 25
-97 -4 -27 -24 -28 -27 -28 -128 0 -95 2 -108 32 -170 75 -158 241 -247 405
-218 256 46 394 316 284 555 -67 147 -243 244 -396 218z"/>
<path d="M1785 2015 c-5 -2 -22 -6 -37 -9 -37 -8 -98 -63 -114 -103 -30 -71
-9 -178 43 -226 11 -9 98 -53 193 -97 96 -43 182 -86 192 -94 19 -16 23 -52
10 -73 -16 -26 -69 -33 -242 -33 -173 0 -179 -1 -194 -22 -23 -32 -20 -81 5
-104 19 -17 39 -19 228 -19 194 0 208 1 248 22 68 37 113 113 113 192 0 56
-42 136 -87 165 -21 13 -113 59 -205 101 -176 81 -195 98 -157 136 17 17 35
19 213 19 160 0 197 3 210 15 38 38 31 97 -14 120 -23 12 -67 15 -212 14 -101
0 -187 -2 -193 -4z"/>
<path d="M2420 2009 c-107 -32 -165 -150 -126 -257 22 -63 66 -93 250 -176 97
-44 181 -85 187 -92 6 -7 9 -28 7 -46 -5 -52 -28 -58 -235 -58 -174 0 -183 -1
-203 -22 -25 -27 -26 -69 -1 -99 19 -23 24 -24 198 -27 206 -4 262 5 317 50
99 81 101 246 5 322 -19 15 -108 61 -199 102 -91 42 -171 82 -179 89 -19 19
-6 61 21 69 13 3 107 6 210 6 182 0 187 1 202 22 23 32 20 81 -5 104 -19 17
-40 19 -218 21 -110 1 -211 -3 -231 -8z"/>
<path d="M2978 1984 c-26 -14 -47 -58 -34 -71 3 -4 6 3 6 15 0 25 44 62 75 62
30 0 71 -34 79 -65 8 -33 -12 -76 -44 -92 -15 -8 -19 -13 -9 -13 19 0 54 37
63 67 10 32 -18 91 -49 103 -35 13 -55 12 -87 -6z"/>
<path d="M2990 1910 c0 -27 5 -50 10 -50 6 0 10 7 10 15 0 20 20 19 37 -2 13
-17 14 -16 9 6 -3 14 0 31 7 39 14 18 -15 42 -50 42 -21 0 -23 -4 -23 -50z
m53 15 c1 -5 -6 -11 -15 -13 -11 -2 -18 3 -18 13 0 17 30 18 33 0z"/>
<path d="M2940 1884 c0 -23 39 -64 61 -64 8 1 3 7 -11 15 -14 7 -30 26 -37 42
-10 23 -12 24 -13 7z"/>
<path d="M172 1773 c-35 -14 -42 -58 -42 -273 l0 -212 30 -30 c25 -24 36 -29
58 -24 59 15 62 26 62 276 l0 229 -26 20 c-26 20 -55 25 -82 14z"/>
</g>
</svg>
