<?xml version="1.0" standalone="no"?>
<!DOCTYPE svg PUBLIC "-//W3C//DTD SVG 20010904//EN"
 "http://www.w3.org/TR/2001/REC-SVG-20010904/DTD/svg10.dtd">
<svg version="1.0" xmlns="http://www.w3.org/2000/svg"
 width="1024.000000pt" height="1024.000000pt" viewBox="0 0 1024.000000 1024.000000"
 preserveAspectRatio="xMidYMid meet">
<metadata>
Created by potrace 1.16, written by Peter Selinger 2001-2019
</metadata>
<g transform="translate(0.000000,1024.000000) scale(0.100000,-0.100000)"
fill="#000000" stroke="none">
<path d="M4715 10230 c-623 -21 -1223 -100 -1865 -245 -547 -124 -1149 -323
-1580 -523 l-85 -39 3 -199 c3 -214 16 -1065 32 -2074 6 -344 15 -1047 20
-1563 5 -515 14 -988 20 -1050 43 -459 143 -837 361 -1357 30 -71 191 -395
228 -457 15 -26 52 -88 81 -138 390 -659 986 -1316 1635 -1802 247 -185 550
-375 775 -486 36 -18 67 -34 70 -37 14 -14 323 -148 395 -170 22 -7 45 -16 50
-20 9 -7 28 -12 170 -46 33 -7 96 -15 140 -16 66 -1 95 3 170 29 50 17 110 39
135 50 25 11 70 31 100 44 196 85 581 293 790 427 114 73 344 225 350 232 3 3
23 18 45 35 22 16 45 33 50 37 6 4 57 42 115 85 58 43 119 90 135 105 37 33
61 53 116 98 146 118 569 532 569 556 0 2 14 17 30 32 17 16 30 34 30 40 0 6
3 12 8 14 6 2 54 59 112 131 8 11 21 25 28 32 6 8 12 17 12 21 0 4 18 31 40
60 22 29 40 58 40 64 0 5 5 10 10 10 6 0 10 6 10 13 0 7 9 18 20 25 11 7 20
21 20 32 0 11 5 20 10 20 6 0 10 7 10 15 0 8 4 15 10 15 5 0 12 11 16 25 3 14
9 25 13 25 4 0 13 16 20 35 7 20 21 41 31 47 10 6 16 17 14 23 -3 7 2 18 11
25 8 7 15 18 15 25 0 8 16 34 35 59 19 26 35 50 35 54 0 15 141 276 152 280 4
2 8 13 8 24 0 22 30 78 42 78 4 0 8 6 8 12 0 7 35 94 79 193 86 198 82 187
123 300 79 218 148 448 183 609 52 241 65 363 75 721 14 494 42 2866 52 4345
l3 474 -58 28 c-77 37 -403 148 -612 208 -594 171 -1272 292 -2005 359 -328
30 -512 41 -905 51 -388 10 -418 10 -750 0z m1060 -250 c72 -6 216 -17 320
-25 347 -27 930 -99 1210 -150 314 -57 387 -71 595 -116 115 -25 351 -82 434
-105 160 -44 471 -141 484 -150 4 -3 13 -156 46 -799 9 -159 18 -309 21 -332
l6 -42 -83 35 c-170 72 -427 165 -578 210 -296 88 -497 141 -715 189 -66 14
-138 30 -160 35 -114 27 -501 90 -735 120 -393 50 -726 75 -1147 86 l-263 7 0
-451 0 -452 1840 0 1840 0 0 -65 0 -65 -1837 0 -1838 0 0 -458 0 -457 1833 -3
1832 -2 0 -70 0 -70 -1110 0 -1110 0 0 -405 0 -405 1105 0 1105 0 0 -42 c0
-24 -3 -53 -6 -65 l-6 -23 -1099 0 -1099 0 0 -505 0 -505 1095 0 1095 0 0 -70
0 -70 -1079 0 -1078 0 -7 -31 c-3 -17 -6 -52 -6 -76 0 -96 -53 -311 -126 -508
-7 -19 -7 -19 13 -2 53 46 112 237 139 457 9 69 17 126 18 127 0 0 479 3 1064
5 703 2 1062 0 1062 -7 0 -46 -22 -304 -31 -360 -48 -315 -145 -653 -296
-1030 -106 -264 -382 -800 -504 -977 -11 -15 -19 -30 -19 -34 0 -3 -10 -20
-22 -37 -13 -17 -27 -39 -33 -49 -65 -111 -213 -306 -364 -481 -95 -109 -385
-392 -492 -479 -36 -29 -100 -81 -141 -116 -142 -118 -533 -394 -703 -495 -22
-13 -82 -50 -133 -81 -51 -31 -96 -56 -99 -56 -4 0 -14 -7 -23 -15 -44 -39
-692 -345 -732 -345 -4 0 -8 695 -8 1544 l0 1543 58 6 c31 4 71 9 88 13 27 5
32 3 37 -18 11 -41 46 -78 74 -78 25 0 66 34 75 62 3 8 19 0 48 -25 46 -39
103 -50 128 -25 17 17 15 72 -5 114 -19 38 -21 39 -113 19 -14 -4 18 9 70 28
146 52 265 116 375 202 37 29 97 51 340 125 224 68 473 132 635 162 233 43
507 25 718 -46 151 -52 305 -145 470 -283 34 -29 68 -53 76 -53 15 0 26 22 25
48 0 11 -2 12 -6 5 -9 -23 -35 -14 -87 31 -234 199 -408 289 -650 335 -214 41
-401 37 -643 -14 -115 -25 -342 -82 -433 -110 -328 -100 -422 -133 -434 -154
-4 -5 -36 -29 -74 -54 -184 -121 -437 -206 -707 -237 -55 -7 -101 -13 -102
-14 -1 -1 -5 -709 -9 -1574 l-7 -1573 -61 3 -61 3 -3 712 -2 713 -1103 0
-1102 0 -57 64 c-32 36 -58 67 -58 70 0 3 524 5 1165 3 l1165 -2 0 255 c0 140
-3 353 -7 472 l-6 218 -1511 0 -1512 0 -37 65 c-20 35 -37 67 -37 70 0 3 698
5 1550 5 l1550 0 0 250 0 250 -41 0 c-81 0 -246 32 -363 71 -196 66 -383 169
-543 300 l-71 59 -1248 2 -1248 3 -18 60 c-10 33 -18 63 -18 68 0 4 547 7
1216 7 l1217 0 -27 33 c-178 221 -288 495 -312 775 l-7 82 -1117 0 -1117 0 -6
683 c-9 943 -25 2113 -32 2409 l-7 248 54 24 c324 146 644 263 1023 374 68 20
342 90 515 131 97 23 397 80 575 110 418 70 904 119 1378 138 l157 6 0 -946
c0 -941 0 -947 20 -947 20 0 20 5 18 968 l-3 967 -80 3 c-263 11 -921 -52
-1405 -134 -80 -14 -172 -29 -205 -35 -489 -83 -1207 -271 -1580 -414 -38 -14
-90 -34 -115 -42 -25 -9 -108 -45 -185 -80 -77 -36 -147 -65 -155 -66 -13 -2
-15 45 -11 378 2 209 6 460 10 558 l6 179 70 37 c263 141 835 313 1445 435
543 109 996 172 1570 221 162 14 331 26 375 29 146 7 838 -3 970 -14z"/>
<path d="M4790 9883 c-8 -3 -25 -15 -37 -26 -22 -20 -23 -27 -23 -177 0 -152
1 -157 24 -179 13 -13 41 -27 63 -32 21 -5 163 -9 315 -9 l277 0 20 -26 c25
-32 27 -61 5 -92 -14 -21 -22 -22 -137 -22 -67 0 -220 -5 -339 -12 l-218 -12
0 -59 0 -59 333 6 c386 7 468 13 494 31 16 12 18 32 21 171 2 86 1 167 -2 179
-10 39 -45 43 -296 33 -314 -12 -362 -10 -389 22 -29 35 -27 85 4 116 l25 25
330 -3 330 -3 0 67 0 67 -392 0 c-216 0 -400 -3 -408 -6z"/>
<path d="M5895 9875 c-5 -2 -23 -6 -38 -10 -16 -3 -40 -18 -53 -32 l-24 -26 0
-294 c0 -293 0 -294 23 -317 17 -17 39 -24 92 -29 39 -4 167 -16 285 -27 118
-11 231 -23 250 -25 19 -3 76 -8 126 -11 l91 -7 -3 63 c-2 35 -8 67 -14 70 -6
4 -99 12 -208 19 -297 18 -451 37 -473 57 -17 16 -19 34 -19 208 0 105 4 196
8 202 20 30 52 35 155 25 128 -13 424 -48 500 -59 l57 -9 0 69 c0 58 -3 68
-17 68 -10 0 -83 7 -163 15 -424 41 -565 55 -565 54 0 0 -4 -2 -10 -4z"/>
<path d="M4220 9854 c-63 -7 -189 -22 -280 -34 -91 -11 -191 -23 -222 -27
l-58 -6 0 -101 c0 -56 3 -220 7 -365 l6 -263 53 6 c87 10 84 5 84 121 0 113 6
128 57 139 32 7 344 36 385 36 41 0 93 -53 135 -137 l37 -75 60 6 c32 3 67 6
77 6 11 0 19 7 19 15 0 16 -74 164 -112 223 l-21 34 27 24 c57 54 59 63 52
206 -8 136 -20 178 -55 198 -25 13 -106 11 -251 -6z m101 -147 c59 -45 50
-168 -14 -200 -30 -15 -141 -32 -375 -58 -133 -14 -132 -15 -132 106 0 92 0
93 28 103 15 6 101 20 192 31 275 34 280 34 301 18z"/>
<path d="M4125 9655 c-55 -7 -138 -18 -185 -24 -46 -6 -88 -11 -92 -11 -5 0
-8 -16 -8 -35 0 -41 -8 -40 142 -21 254 33 311 37 320 24 9 -15 11 42 2 66 -7
19 -36 19 -179 1z"/>
<path d="M6780 9440 l0 -370 24 0 c13 0 44 -3 70 -6 l46 -7 0 142 0 143 28 -6
c15 -3 65 -12 112 -21 253 -46 363 -65 381 -65 18 0 19 -8 19 -149 l0 -149 63
-11 c35 -6 71 -11 80 -11 16 0 17 31 17 368 l0 368 -72 17 c-40 10 -76 17 -80
17 -5 0 -8 -70 -8 -156 l0 -156 -27 6 c-53 11 -494 86 -505 86 -4 0 -9 69 -10
152 l-3 152 -45 8 c-25 4 -55 10 -67 13 l-23 5 0 -370z"/>
<path d="M3200 9710 c-74 -15 -218 -44 -320 -64 -225 -45 -240 -49 -272 -84
-57 -61 -60 -77 -48 -260 6 -92 14 -216 17 -277 6 -103 8 -111 35 -138 17 -18
34 -26 45 -23 10 3 63 14 118 25 158 32 431 89 535 113 182 41 184 43 173 398
l-8 270 -30 29 c-43 43 -86 45 -245 11z m85 -162 c26 -23 26 -26 32 -190 7
-201 5 -207 -84 -231 -85 -24 -403 -87 -439 -87 -57 0 -64 19 -70 203 -7 189
0 213 65 237 32 12 411 86 453 89 9 0 29 -9 43 -21z"/>
<path d="M3145 9505 c-33 -7 -116 -22 -185 -34 -157 -28 -186 -40 -195 -81 -8
-38 0 -48 25 -32 10 6 83 23 162 37 79 14 176 33 216 41 57 12 76 13 88 4 12
-10 14 -7 14 18 0 67 -12 71 -125 47z"/>
<path d="M4934 9697 c-14 -60 -27 -58 351 -55 l345 3 0 33 0 32 -238 0 c-132
0 -287 3 -345 6 l-106 7 -7 -26z"/>
<path d="M5978 9694 c-5 -4 -8 -23 -8 -42 0 -27 3 -33 15 -28 9 3 57 1 108 -4
51 -5 154 -16 229 -25 131 -14 307 -39 355 -51 21 -6 23 -3 23 29 0 20 -4 38
-10 42 -8 5 -256 40 -460 65 -139 17 -245 23 -252 14z"/>
<path d="M7810 9247 l0 -374 258 -78 c141 -43 336 -102 432 -131 96 -30 181
-54 188 -54 9 0 12 24 12 88 l0 88 -137 39 c-76 21 -185 51 -243 67 -85 24
-232 65 -332 94 -15 4 -18 17 -18 70 0 42 4 64 12 64 11 0 457 -135 617 -186
40 -13 77 -24 82 -24 5 0 9 39 9 88 l0 87 -67 19 c-38 11 -99 29 -138 41 -38
12 -168 51 -287 86 l-218 64 0 69 c0 50 3 67 13 64 25 -10 144 -47 212 -67
133 -38 380 -113 423 -127 23 -8 47 -14 52 -14 6 0 10 37 10 84 0 84 0 84 -27
89 -29 5 -147 36 -473 125 -102 28 -221 60 -265 72 -44 11 -88 23 -97 26 -17
5 -18 -17 -18 -369z"/>
<path d="M4680 9505 c1 -49 34 -110 75 -135 l38 -24 231 12 c127 7 264 12 304
12 64 0 72 2 72 19 0 10 -7 22 -16 25 -9 3 -143 6 -299 6 -156 0 -294 4 -307
9 -32 12 -65 43 -83 77 l-15 29 0 -30z"/>
<path d="M2210 9485 c-41 -12 -154 -48 -250 -78 -96 -30 -236 -74 -310 -97
-74 -22 -145 -45 -158 -50 l-22 -10 6 -382 c4 -211 8 -384 9 -385 1 -2 43 12
93 30 l91 32 3 129 3 130 120 38 c314 101 367 118 465 148 145 44 156 48 169
73 8 15 11 81 9 210 l-3 189 -28 24 c-36 31 -95 31 -197 -1z m44 -177 c19 -27
21 -125 5 -162 -8 -16 -27 -29 -58 -39 -383 -122 -504 -158 -516 -153 -20 7
-22 188 -2 205 8 6 56 24 108 40 52 16 164 52 249 79 85 28 165 50 177 51 12
1 29 -9 37 -21z"/>
<path d="M2040 9228 c-85 -27 -194 -61 -242 -76 l-88 -27 0 -37 c0 -25 4 -36
13 -33 6 2 122 38 257 81 135 42 246 78 248 79 7 6 -12 65 -22 64 -6 -1 -81
-23 -166 -51z"/>
<path d="M4537 9455 c-26 -31 -27 -36 -14 -55 l14 -21 15 23 c15 23 29 89 19
87 -3 0 -19 -16 -34 -34z"/>
<path d="M8025 9350 c-9 -15 13 -23 370 -129 292 -87 360 -102 329 -71 -5 5
-61 24 -124 43 -63 20 -169 52 -235 72 -153 47 -318 95 -327 95 -4 0 -10 -4
-13 -10z"/>
<path d="M4176 9309 c-27 -4 -104 -13 -172 -18 -67 -6 -129 -13 -138 -17 -10
-4 -16 -18 -16 -41 0 -28 3 -33 18 -29 17 5 96 13 202 21 30 2 86 7 123 11 65
7 69 6 97 -21 34 -32 67 -91 85 -150 9 -29 18 -40 31 -38 122 12 239 25 241
27 2 1 -3 17 -10 35 l-12 32 -85 -7 c-47 -4 -98 -11 -114 -15 -36 -10 -39 -8
-60 55 -23 72 -63 134 -96 151 -16 8 -33 14 -37 14 -4 -1 -30 -5 -57 -10z"/>
<path d="M6960 9247 l0 -33 93 -18 c50 -10 124 -24 162 -31 39 -8 90 -17 115
-20 25 -4 53 -9 63 -11 14 -5 17 1 17 34 0 38 -1 40 -37 45 -21 3 -116 19
-210 36 -95 17 -179 31 -188 31 -10 0 -15 -10 -15 -33z"/>
<path d="M5612 9200 c-21 -34 -73 -50 -164 -50 -46 0 -235 -5 -420 -12 l-338
-12 0 -34 0 -35 313 8 c568 13 546 12 573 29 35 24 56 61 52 96 -3 30 -3 30
-16 10z"/>
<path d="M5731 9197 c-1 -38 21 -87 53 -117 29 -26 22 -25 445 -65 90 -9 223
-22 295 -30 72 -8 137 -15 144 -15 7 0 12 14 12 35 0 31 -3 35 -32 39 -65 10
-471 50 -673 67 -150 12 -202 31 -228 82 l-16 32 0 -28z"/>
<path d="M3512 9068 c-18 -51 -84 -92 -170 -108 -58 -11 -239 -51 -297 -66
-11 -3 -35 -7 -53 -10 -18 -3 -97 -18 -175 -34 -180 -38 -200 -38 -238 -1 -36
36 -40 15 -8 -39 42 -71 57 -73 257 -31 75 16 160 32 187 36 28 3 70 13 95 20
25 7 101 25 169 40 127 27 146 33 193 68 32 24 61 92 56 132 l-3 29 -13 -36z"/>
<path d="M8020 9041 c0 -15 13 -22 63 -34 34 -8 109 -29 167 -46 58 -16 184
-52 280 -80 96 -27 183 -52 193 -56 29 -12 19 9 -10 22 -16 6 -82 27 -148 48
-66 20 -138 42 -160 50 -22 7 -80 25 -130 40 -49 15 -125 38 -168 51 -94 29
-87 28 -87 5z"/>
<path d="M2453 9021 c-17 -22 -48 -35 -160 -69 -76 -24 -176 -56 -223 -73 -47
-17 -103 -35 -125 -40 -22 -5 -82 -23 -132 -40 l-93 -31 0 -34 c0 -19 2 -34 5
-34 6 0 135 40 400 125 110 35 220 69 244 75 62 16 111 67 111 114 0 20 -1 36
-2 35 -2 0 -13 -12 -25 -28z"/>
<path d="M3770 9023 c-117 -19 -120 -21 -120 -48 0 -13 4 -26 8 -29 4 -2 52 0
105 7 102 12 104 13 89 62 -7 20 -10 20 -82 8z"/>
<path d="M6740 8998 l0 -35 78 -12 c42 -7 92 -15 110 -18 31 -5 32 -4 32 30 0
35 -1 36 -52 47 -29 6 -79 14 -110 17 l-58 6 0 -35z"/>
<path d="M7420 8876 c0 -34 1 -35 58 -46 31 -6 85 -17 120 -24 l62 -13 0 38
c0 22 -1 39 -3 39 -1 0 -49 9 -107 20 -58 11 -111 20 -117 20 -8 0 -13 -13
-13 -34z"/>
<path d="M7770 8795 c0 -34 1 -34 73 -55 39 -12 99 -30 132 -40 69 -22 359
-109 485 -146 47 -14 126 -38 177 -54 50 -17 94 -30 97 -30 3 0 6 15 6 34 0
23 -6 36 -17 41 -28 11 -936 285 -945 285 -4 0 -8 -16 -8 -35z"/>
<path d="M1690 8503 c-8 -3 -65 -24 -127 -45 l-112 -40 1 -35 c1 -27 5 -33 17
-29 9 3 63 21 121 40 58 20 111 36 118 36 7 0 12 15 12 40 0 40 -3 43 -30 33z"/>
<path d="M3634 8500 c-107 -22 -211 -107 -260 -210 -33 -70 -42 -96 -59 -194
-8 -43 -17 -82 -20 -85 -4 -3 -103 -29 -221 -57 l-214 -51 0 53 c0 143 51 257
169 372 l84 84 -59 -3 c-252 -11 -373 -166 -362 -464 l3 -95 -240 -80 c-156
-52 -243 -76 -249 -70 -16 16 -12 170 7 230 24 79 82 172 160 256 38 41 63 74
55 74 -8 0 -38 -7 -66 -15 -142 -43 -244 -147 -289 -299 -14 -46 -19 -193 -10
-320 2 -25 -5 -33 -45 -57 -87 -51 -157 -89 -165 -89 -5 0 -15 15 -21 34 -7
19 -29 49 -49 66 -32 29 -41 32 -81 27 -96 -11 -127 -76 -77 -164 14 -25 24
-47 23 -48 -2 -2 -25 -14 -53 -28 -82 -41 -104 -78 -85 -146 21 -78 109 -91
205 -30 l48 30 32 -31 c52 -51 125 -60 183 -24 32 21 30 91 -5 155 -14 27 -24
51 -22 53 8 8 158 80 282 137 589 270 1183 418 1586 395 241 -14 417 -68 570
-175 l64 -44 -7 29 c-30 120 -154 222 -338 275 l-77 23 14 26 c21 41 95 104
158 134 35 17 96 35 158 45 l102 16 -59 30 c-48 23 -76 29 -146 33 -76 4 -92
1 -140 -21 -81 -37 -178 -139 -219 -229 l-12 -28 -131 0 c-72 0 -162 -3 -200
-7 l-69 -6 6 55 c15 149 122 304 259 377 42 23 84 41 95 41 17 1 17 1 1 11
-24 14 -165 20 -214 9z"/>
<path d="M3845 8411 c-44 -21 -96 -52 -115 -69 -19 -18 -38 -32 -41 -32 -15 0
-100 -138 -113 -182 -8 -27 -13 -48 -11 -48 1 0 16 29 34 64 41 84 134 171
232 218 41 20 84 39 97 43 23 7 32 45 10 45 -7 0 -49 -18 -93 -39z"/>
<path d="M3147 8339 c-38 -29 -86 -75 -107 -103 -46 -61 -100 -175 -99 -208 1
-21 1 -21 9 3 30 100 135 232 232 294 28 17 48 38 48 48 0 25 -8 22 -83 -34z"/>
<path d="M2442 8143 c-85 -86 -133 -157 -146 -218 -4 -22 2 -14 24 26 35 68
112 154 192 215 61 48 71 64 38 64 -12 0 -56 -36 -108 -87z"/>
<path d="M4325 8160 c-56 -13 -100 -37 -132 -70 -32 -33 -36 -54 -8 -43 8 3
15 8 15 12 0 15 91 52 152 62 35 6 92 8 128 5 70 -7 97 2 87 28 -5 13 -24 16
-109 15 -57 -1 -116 -4 -133 -9z"/>
<path d="M2281 7874 c0 -11 3 -14 6 -6 3 7 2 16 -1 19 -3 4 -6 -2 -5 -13z"/>
<path d="M3620 7823 c-391 -18 -916 -168 -1413 -406 -125 -59 -146 -73 -134
-84 11 -12 31 -6 123 38 448 212 897 353 1269 399 96 12 365 15 442 5 175 -23
380 -102 487 -190 31 -25 65 -45 75 -45 22 0 51 35 51 62 0 17 -2 16 -20 -2
-11 -11 -26 -20 -33 -20 -14 0 -50 24 -86 56 -47 44 -219 125 -315 149 -87 22
-296 47 -356 43 -14 -1 -54 -3 -90 -5z"/>
<path d="M1982 7655 c0 -16 2 -22 5 -12 2 9 2 23 0 30 -3 6 -5 -1 -5 -18z"/>
<path d="M1530 7430 c0 -11 4 -20 9 -20 5 0 7 9 4 20 -3 11 -7 20 -9 20 -2 0
-4 -9 -4 -20z"/>
<path d="M3251 7290 c-134 -48 -212 -148 -261 -331 l-22 -84 -161 -39 c-89
-21 -166 -37 -172 -35 -23 9 11 162 54 244 33 65 65 110 115 163 l40 42 -35 0
c-91 0 -191 -64 -235 -153 -42 -81 -55 -135 -61 -248 l-6 -106 -41 -19 c-22
-10 -77 -33 -121 -51 -44 -19 -93 -40 -110 -48 -36 -17 -42 -14 -55 33 -26 94
0 259 51 334 11 14 19 30 19 36 0 5 7 15 16 22 8 8 19 22 25 32 9 16 7 17 -18
7 -77 -29 -127 -66 -163 -120 -57 -83 -74 -151 -73 -299 l0 -125 -114 -55
c-63 -30 -118 -56 -121 -57 -4 -2 -16 18 -27 45 -26 64 -56 92 -98 92 -90 0
-116 -89 -52 -173 19 -25 35 -48 35 -50 0 -3 -13 -7 -30 -10 -82 -17 -137 -84
-124 -153 9 -49 36 -68 94 -67 40 1 59 7 101 38 40 29 54 34 60 23 5 -7 9 -18
9 -24 0 -5 14 -25 31 -42 26 -27 39 -32 78 -32 89 0 121 57 82 146 -12 27 -29
56 -37 65 -14 15 -3 22 128 87 129 64 351 162 364 162 3 0 20 6 37 14 50 23
294 102 382 125 266 67 421 86 637 79 l148 -6 0 99 c0 97 0 99 23 99 16 0 31
12 48 37 31 48 103 95 198 129 42 15 80 30 84 34 15 13 -76 42 -144 47 -126
10 -228 -61 -305 -211 -26 -50 -46 -78 -59 -81 -11 -2 -93 -7 -183 -12 -189
-9 -180 -16 -133 104 41 105 108 193 183 242 35 23 73 44 86 47 44 12 21 24
-45 24 -41 -1 -89 -8 -122 -20z"/>
<path d="M3560 7259 c-8 -5 -40 -13 -70 -19 -69 -13 -154 -67 -198 -126 -39
-52 -75 -131 -63 -139 5 -3 12 7 16 22 13 53 85 137 149 172 19 11 63 25 98
32 35 7 69 18 76 25 19 16 12 44 -8 33z"/>
<path d="M2923 7223 c-71 -50 -79 -57 -115 -108 -49 -68 -75 -124 -82 -170
l-6 -40 14 42 c31 96 126 212 202 248 22 10 34 23 34 35 0 25 1 25 -47 -7z"/>
<path d="M1420 7182 c0 -7 9 -35 21 -62 18 -41 28 -51 69 -69 73 -32 169 -23
215 19 20 18 21 18 44 -6 30 -31 55 -37 146 -32 55 2 81 9 102 24 37 27 73 82
72 108 0 21 0 21 -9 1 -13 -32 -64 -75 -101 -85 -82 -24 -199 -5 -222 36 -6
11 -14 9 -45 -10 -95 -62 -238 -32 -278 58 -7 17 -13 25 -14 18z"/>
<path d="M3999 7091 c-110 -39 -162 -66 -194 -101 -27 -30 -12 -34 28 -7 42
28 65 38 179 73 95 29 125 45 114 62 -9 15 -3 17 -127 -27z"/>
<path d="M2366 7055 c-53 -66 -93 -143 -101 -196 -5 -26 -1 -22 16 21 22 55
71 131 117 182 13 14 22 32 20 39 -3 8 -25 -12 -52 -46z"/>
<path d="M3714 6438 c3 -233 6 -727 7 -1098 0 -561 3 -689 16 -759 108 -596
574 -1054 1183 -1163 112 -20 413 -17 523 5 279 56 513 181 712 382 164 164
276 347 344 557 65 205 64 178 66 1203 1 512 -1 1012 -3 1113 l-5 182 -1425 0
-1425 0 7 -422z m2760 -670 c7 -1043 5 -1136 -33 -1286 -129 -502 -504 -864
-1006 -968 -136 -28 -425 -27 -555 3 -278 64 -488 179 -680 372 -156 156 -263
327 -329 526 -61 184 -61 170 -63 1313 l-3 1042 1331 0 1331 0 7 -1002z"/>
<path d="M5642 6689 c-6 -19 -33 -99 -62 -179 -67 -188 -65 -180 -47 -180 8 0
22 -2 30 -6 10 -3 16 4 20 25 6 31 7 31 76 31 68 0 69 0 80 -31 9 -27 12 -29
33 -18 13 6 24 13 25 14 5 3 -128 360 -137 369 -5 5 -13 -6 -18 -25z m41 -188
c9 -27 17 -51 17 -55 0 -3 -18 -6 -41 -6 -32 0 -40 3 -36 14 3 8 11 33 17 55
6 23 14 41 18 41 4 0 15 -22 25 -49z"/>
<path d="M5850 6515 l0 -175 30 0 c29 0 30 2 30 45 0 40 2 45 23 45 17 0 34
-15 62 -55 20 -30 40 -55 44 -55 3 0 14 7 24 15 18 13 18 15 -7 52 -33 48 -32
54 3 78 48 32 56 109 18 166 -27 40 -75 57 -164 58 l-63 1 0 -175z m155 105
c48 -18 56 -96 12 -118 -12 -6 -41 -14 -64 -17 l-43 -7 0 76 0 76 34 0 c19 0
46 -4 61 -10z"/>
<path d="M4240 6650 c0 -23 4 -30 20 -30 19 0 20 -7 20 -145 l0 -145 29 0 28
0 -1 145 c-1 141 0 145 20 145 16 0 21 6 21 30 l0 30 -69 0 -68 0 0 -30z"/>
<path d="M4780 6650 c0 -23 4 -30 20 -30 19 0 20 -7 20 -145 l0 -145 25 0 25
0 0 145 c0 138 1 145 20 145 16 0 20 7 20 30 l0 30 -65 0 -65 0 0 -30z"/>
<path d="M5010 6650 c0 -23 4 -30 20 -30 19 0 20 -7 20 -145 l0 -145 25 0 25
0 0 145 c0 138 1 145 20 145 16 0 20 7 20 30 l0 30 -65 0 -65 0 0 -30z"/>
<path d="M5305 6666 c-60 -27 -85 -81 -85 -183 0 -76 33 -152 75 -171 96 -44
175 30 175 166 l0 42 -55 0 c-54 0 -55 0 -55 -30 0 -26 3 -30 29 -30 29 0 29
0 19 -41 -19 -74 -82 -87 -113 -22 -24 51 -29 98 -15 147 17 60 40 80 83 72
25 -5 38 -2 47 9 29 34 -51 65 -105 41z"/>
<path d="M6170 6650 c0 -23 4 -30 20 -30 19 0 20 -7 20 -145 l0 -145 25 0 25
0 0 145 c0 138 1 145 20 145 16 0 20 7 20 30 l0 30 -65 0 -65 0 0 -30z"/>
<path d="M4000 6656 c-38 -21 -54 -58 -47 -107 7 -55 30 -76 96 -89 66 -12 81
-24 81 -62 0 -24 -6 -32 -37 -45 -34 -14 -40 -14 -69 2 -25 13 -36 15 -53 6
-11 -7 -21 -15 -21 -19 1 -17 56 -45 96 -50 113 -12 180 81 121 169 -19 28
-33 37 -87 50 -63 16 -65 17 -68 51 -3 29 1 36 24 46 20 10 33 10 59 1 28 -11
36 -10 50 5 16 16 16 19 2 33 -22 22 -115 28 -147 9z"/>
<path d="M4460 6510 c0 -98 4 -139 15 -160 31 -60 121 -79 182 -37 18 12 36
29 39 37 4 8 9 77 12 153 l4 137 -31 0 -31 0 0 -133 0 -134 -33 -18 c-30 -16
-37 -16 -63 -4 l-29 14 -3 138 -3 137 -29 0 -30 0 0 -130z"/>
<path d="M5105 6166 c-16 -8 -48 -33 -70 -56 -22 -23 -62 -53 -90 -66 -27 -13
-70 -35 -94 -49 -48 -27 -90 -31 -139 -14 -56 19 -58 5 -9 -48 26 -27 44 -53
40 -56 -3 -4 -27 -7 -52 -7 -34 0 -60 -9 -112 -40 -37 -22 -69 -46 -72 -54 -4
-9 -27 -29 -53 -45 l-47 -29 26 -17 c22 -14 32 -15 59 -6 40 14 62 -1 32 -24
-19 -15 -19 -15 0 -30 18 -13 24 -12 71 14 48 27 56 29 94 19 52 -13 60 -29
32 -64 -12 -15 -21 -35 -21 -45 0 -11 -10 -27 -22 -37 -104 -83 -142 -137
-204 -289 -19 -49 -29 -51 -84 -23 -30 15 -46 34 -67 77 -34 68 -52 81 -87 65
-22 -10 -106 -111 -106 -128 0 -3 -21 -35 -46 -70 -25 -36 -51 -86 -59 -112
-22 -79 -46 -136 -64 -157 -24 -27 -45 -81 -36 -94 9 -16 22 -14 82 14 54 26
64 43 38 65 -23 19 -18 47 14 88 16 20 35 56 41 80 14 54 69 148 109 186 30
28 31 29 50 12 25 -23 101 -138 101 -154 0 -6 7 -30 16 -52 14 -35 21 -41 55
-46 41 -7 69 -34 69 -66 0 -9 -4 -19 -9 -23 -14 -8 -190 -45 -217 -45 -42 0
-44 -14 -33 -231 6 -112 13 -214 15 -227 3 -13 19 -32 37 -42 18 -11 43 -38
56 -60 12 -22 28 -40 35 -40 24 0 103 100 89 113 -3 4 -25 7 -47 7 -55 1 -86
27 -86 73 0 20 -5 48 -11 64 -13 31 -13 214 -1 223 5 3 12 13 15 23 6 16 15
18 65 14 31 -3 91 -14 132 -26 91 -26 139 -21 200 19 45 30 80 39 80 20 0 -16
88 -70 147 -91 45 -15 84 -19 197 -19 78 0 147 -4 155 -9 11 -7 11 -15 1 -45
-18 -54 -5 -96 45 -155 55 -64 58 -95 14 -137 -17 -16 -39 -43 -50 -61 -11
-17 -65 -61 -122 -99 -56 -37 -115 -79 -131 -93 -30 -27 -96 -124 -96 -141 0
-14 47 -11 90 4 31 11 35 17 36 50 1 20 3 38 5 40 14 13 155 99 209 128 102
55 173 99 203 127 27 25 28 29 22 91 -6 61 -5 67 19 89 l25 24 39 -40 c21 -22
70 -55 108 -74 66 -33 69 -36 68 -69 -1 -19 -17 -70 -37 -112 -29 -64 -50 -91
-117 -155 -45 -43 -91 -96 -102 -118 -12 -22 -31 -53 -44 -68 -26 -31 -31 -63
-12 -69 7 -3 35 2 63 10 27 8 56 16 64 18 10 3 12 15 7 42 -3 24 -1 44 7 54
18 22 108 83 143 97 22 9 37 26 53 61 13 28 47 76 77 107 30 32 54 64 54 72 0
8 7 22 16 32 18 20 19 20 -63 139 -36 53 -43 70 -43 112 0 54 20 100 70 163
51 64 70 116 70 189 0 62 2 66 33 90 41 31 52 32 117 6 61 -24 117 -26 148 -4
26 18 21 34 -8 27 -14 -4 -30 3 -45 17 -25 24 -33 50 -15 50 21 0 70 83 70
118 l0 35 -32 -36 c-42 -46 -76 -55 -106 -27 -37 35 -29 56 28 70 49 12 90 46
90 76 0 17 -20 29 -29 17 -3 -5 -20 -13 -37 -16 -29 -5 -35 -2 -57 31 l-25 38
39 42 c30 31 39 49 39 76 0 68 -23 90 -34 31 -8 -38 -50 -95 -72 -95 -16 0
-54 57 -54 81 0 9 7 22 15 29 8 7 27 34 42 61 14 27 37 56 50 65 23 14 53 69
53 94 0 20 -25 9 -41 -18 -10 -18 -33 -33 -67 -45 -28 -10 -67 -32 -86 -50
-29 -27 -35 -42 -41 -92 -7 -54 -17 -74 -37 -75 -13 0 -48 68 -48 94 0 37 -18
32 -36 -11 -27 -64 -9 -112 87 -239 58 -77 99 -162 99 -206 0 -32 -51 -118
-68 -118 -4 0 -27 19 -51 41 -92 84 -92 84 -391 84 l-265 0 -37 25 c-54 36
-68 67 -68 146 0 172 133 257 227 145 l22 -26 1 48 c0 52 -16 91 -49 121 -33
30 -27 46 19 46 32 0 48 -7 79 -35 43 -39 51 -42 51 -20 0 36 -45 108 -82 131
-32 21 -37 28 -28 40 7 8 23 14 36 14 28 0 74 -20 74 -32 0 -4 7 -8 15 -8 8 0
15 7 15 15 0 18 -25 43 -98 98 -28 20 -62 58 -76 84 -25 43 -25 48 -11 70 19
28 53 43 101 43 47 0 43 17 -8 31 -50 13 -142 6 -194 -16 -75 -31 -154 -12
-154 36 0 43 17 78 45 91 14 6 25 15 25 20 0 12 -41 9 -75 -6z m-81 -215 c39
-16 66 -42 94 -96 24 -46 26 -62 29 -190 4 -151 -2 -180 -46 -201 -43 -22 -51
-9 -51 80 0 102 -24 266 -46 309 -9 17 -25 41 -35 53 -37 40 -4 67 55 45z"/>
<path d="M3195 6683 c-314 -38 -620 -135 -995 -315 -90 -43 -166 -81 -169 -84
-3 -2 0 -9 6 -15 9 -9 42 3 125 44 325 159 662 275 925 318 102 17 394 17 453
1 25 -7 53 -15 63 -18 29 -9 20 25 -10 37 -86 32 -273 48 -398 32z"/>
<path d="M1531 6433 c-1 -18 19 -67 25 -61 3 3 -2 21 -10 39 -8 19 -15 29 -15
22z"/>
<path d="M3265 6376 c-182 -45 -296 -205 -320 -448 -6 -60 -9 -67 -33 -76 -43
-17 -259 -82 -271 -82 -18 0 -33 83 -29 161 5 92 49 192 123 283 l47 59 -38
-7 c-21 -4 -55 -16 -76 -27 -151 -77 -204 -238 -162 -491 6 -33 4 -39 -17 -47
-13 -5 -73 -30 -133 -55 -60 -25 -110 -45 -111 -43 -20 25 -29 71 -33 158 -5
117 8 179 58 282 31 63 29 65 -47 42 -65 -19 -125 -76 -147 -140 -24 -72 -21
-191 9 -305 14 -52 25 -102 25 -110 0 -8 -36 -40 -81 -70 l-81 -54 -51 58
c-60 69 -103 91 -144 75 -89 -34 -94 -110 -13 -202 l30 -34 -48 -26 c-61 -33
-104 -79 -104 -110 0 -34 20 -93 37 -107 39 -32 135 2 200 69 l29 31 48 -47
c45 -44 53 -48 96 -47 60 1 108 25 114 58 6 30 -19 89 -55 132 -15 18 -27 36
-27 41 0 18 262 175 411 245 67 32 161 71 269 113 216 84 501 134 738 132
l142 -2 0 188 c0 121 -4 187 -10 187 -23 0 -103 -87 -137 -149 -20 -36 -37
-67 -38 -69 -5 -7 -360 -41 -367 -34 -14 14 11 124 45 196 41 86 114 171 227
265 l25 20 -25 0 c-14 0 -47 -6 -75 -13z"/>
<path d="M3415 6337 c-88 -71 -157 -144 -196 -205 -36 -58 -74 -141 -66 -148
1 -1 18 27 37 64 33 65 174 220 244 269 16 11 27 26 25 36 -3 14 -11 11 -44
-16z"/>
<path d="M2810 6193 c-64 -66 -102 -127 -116 -188 -4 -19 6 -7 25 32 29 56 82
119 154 182 15 13 27 27 27 32 0 23 -29 4 -90 -58z"/>
<path d="M1450 6116 c0 -23 41 -77 72 -96 18 -11 49 -20 68 -20 36 0 120 33
131 52 4 6 23 -8 47 -34 40 -43 41 -43 109 -43 54 0 76 5 107 24 39 25 77 74
75 101 0 13 -1 13 -6 0 -29 -73 -188 -116 -258 -70 -16 10 -37 29 -45 41 l-17
21 -51 -26 c-33 -17 -68 -26 -98 -26 -42 0 -51 5 -90 44 -24 24 -44 38 -44 32z"/>
<path d="M2364 6073 c-31 -33 -72 -116 -79 -164 l-6 -34 14 37 c21 53 61 120
91 147 14 14 26 28 26 33 0 16 -20 8 -46 -19z"/>
<path d="M3280 5703 c-229 -36 -355 -65 -511 -118 -132 -45 -609 -281 -609
-301 0 -23 24 -17 99 26 99 56 362 182 446 213 170 64 294 97 480 128 133 21
357 31 408 16 23 -6 27 -4 27 12 0 10 -7 22 -16 25 -17 6 -282 6 -324 -1z"/>
<path d="M2011 5608 c-1 -21 18 -72 24 -66 3 3 -1 22 -9 44 -8 21 -15 31 -15
22z"/>
<path d="M1610 5386 c0 -17 30 -76 39 -76 6 0 1 17 -11 38 -26 44 -28 47 -28
38z"/>
<path d="M1555 5065 c9 -44 51 -102 87 -121 22 -12 45 -15 79 -11 48 6 142 47
154 68 5 7 16 2 34 -14 41 -38 65 -47 131 -47 91 0 155 38 179 105 l11 30 -21
-28 c-23 -30 -84 -61 -140 -72 -44 -8 -105 7 -152 39 l-35 24 -34 -22 c-46
-31 -93 -46 -145 -46 -66 0 -108 28 -140 95 l-14 30 6 -30z"/>
<path d="M7150 4557 c-149 -39 -244 -154 -293 -356 -18 -71 -28 -96 -43 -101
-10 -4 -86 -24 -169 -45 l-150 -37 -52 -72 c-29 -39 -66 -86 -83 -105 -35 -38
-33 -48 7 -33 15 6 75 25 133 42 58 18 116 36 130 40 40 15 220 58 285 69 33
5 76 13 95 17 19 3 138 9 263 11 252 5 359 -6 506 -53 154 -50 340 -159 449
-263 l32 -31 0 44 c0 94 -62 205 -146 261 -30 20 -54 39 -54 43 0 12 32 54 61
82 59 56 112 86 218 120 l54 17 -49 29 c-66 39 -178 46 -248 16 -64 -29 -118
-75 -168 -143 -23 -33 -45 -59 -49 -59 -3 0 -57 20 -120 44 -63 24 -122 46
-132 50 -43 14 -29 62 48 164 64 85 163 158 240 176 l30 8 -27 14 c-15 8 -55
20 -89 28 -105 25 -196 -4 -282 -89 -57 -56 -104 -127 -142 -218 -15 -37 -32
-70 -36 -72 -8 -5 -268 10 -274 16 -8 8 35 141 61 189 31 56 102 135 153 170
31 21 32 24 15 31 -28 11 -123 9 -174 -4z"/>
<path d="M7417 4529 c-59 -31 -150 -130 -190 -207 -20 -39 -37 -73 -37 -77 0
-15 18 7 41 52 31 61 131 164 189 193 47 24 62 38 54 52 -7 11 -14 10 -57 -13z"/>
<path d="M7985 4435 c-72 -22 -148 -66 -188 -109 -55 -58 -99 -124 -88 -131 6
-3 23 14 39 37 53 77 123 126 230 160 49 16 72 28 70 37 -4 20 -17 21 -63 6z"/>
<path d="M8475 4148 c-136 -34 -239 -80 -275 -123 -26 -32 3 -32 52 1 57 37
113 58 197 74 58 11 81 24 81 46 0 15 1 15 -55 2z"/>
<path d="M6805 3516 c-22 -7 -51 -18 -64 -26 -49 -26 -124 -106 -152 -162 -38
-75 -69 -205 -69 -290 0 -65 -1 -67 -29 -73 -16 -3 -81 -23 -146 -44 l-117
-38 -19 44 c-38 88 -20 234 44 366 18 37 30 67 26 67 -4 0 -30 -12 -59 -27
-145 -75 -214 -231 -177 -401 9 -42 19 -86 22 -97 6 -18 -12 -30 -135 -94 -78
-40 -142 -71 -143 -70 -1 2 -17 33 -34 69 -50 100 -116 134 -187 99 -81 -39
-85 -111 -9 -187 l46 -45 -31 -26 c-49 -42 -82 -99 -82 -143 0 -51 52 -108 97
-108 37 0 88 38 124 91 l27 41 20 -44 c28 -63 85 -118 123 -118 43 0 86 25
105 61 15 29 15 35 -2 73 -10 22 -34 56 -52 75 l-35 35 29 23 c82 65 349 181
550 237 250 70 437 99 617 97 278 -4 471 -72 616 -217 30 -30 56 -53 58 -51 2
3 -1 26 -7 52 -19 87 -75 177 -165 269 -54 55 -56 58 -42 80 28 42 111 108
186 146 l74 38 -39 20 c-63 31 -99 34 -157 12 -65 -25 -128 -78 -179 -153 -39
-58 -40 -58 -81 -53 -23 3 -84 11 -136 17 l-93 12 5 50 c14 113 106 242 219
306 l51 29 -39 11 c-100 28 -201 -1 -264 -76 -44 -54 -106 -185 -127 -271 -13
-58 -21 -73 -38 -76 -124 -24 -195 -36 -220 -38 l-30 -3 -3 89 c-5 140 42 258
146 368 56 60 61 68 41 67 -13 0 -42 -6 -64 -13z"/>
<path d="M6963 3464 c-62 -62 -85 -92 -135 -174 -21 -35 -51 -130 -44 -137 3
-4 6 0 6 8 0 23 65 151 96 189 39 47 81 89 129 128 29 24 36 35 28 43 -9 9
-29 -6 -80 -57z"/>
<path d="M7440 3388 c-30 -18 -80 -57 -111 -88 -53 -53 -109 -143 -96 -156 3
-3 13 9 22 27 36 68 107 132 238 213 15 9 25 21 22 26 -9 14 -15 13 -75 -22z"/>
<path d="M6414 3368 c-33 -38 -73 -105 -94 -158 -32 -81 -23 -81 15 -1 19 40
51 92 71 116 37 46 45 84 8 43z"/>
<path d="M5375 3180 c9 -48 34 -82 80 -104 l39 -19 49 26 49 26 36 -20 c20
-10 51 -22 68 -25 58 -11 154 57 154 110 0 18 -3 16 -22 -12 -41 -58 -145 -73
-212 -29 -21 14 -25 14 -52 -4 -33 -21 -90 -25 -128 -8 -14 7 -35 30 -46 53
l-21 41 6 -35z"/>
<path d="M7884 3151 c-96 -35 -214 -111 -214 -138 0 -19 8 -16 62 23 27 20 86
51 131 68 52 21 83 39 85 49 4 21 1 20 -64 -2z"/>
<path d="M6885 2811 c-129 -24 -300 -65 -395 -95 -187 -59 -440 -176 -440
-202 0 -20 19 -17 70 12 120 69 350 153 560 204 180 43 300 60 427 60 250 0
422 -73 594 -251 47 -49 90 -89 97 -89 14 0 42 40 42 60 -1 12 -3 12 -14 -2
-23 -31 -46 -20 -127 67 -114 120 -212 182 -359 227 -97 29 -322 34 -455 9z"/>
<path d="M5431 2703 c-1 -20 30 -93 40 -93 5 0 1 17 -9 38 -11 20 -22 44 -25
52 -3 9 -6 10 -6 3z"/>
<path d="M7841 2544 c0 -11 3 -14 6 -6 3 7 2 16 -1 19 -3 4 -6 -2 -5 -13z"/>
<path d="M5390 2382 c0 -31 42 -101 84 -140 67 -62 107 -65 208 -17 l47 23 42
-40 c46 -44 75 -58 123 -58 47 0 137 49 163 89 27 40 32 79 6 41 -51 -74 -159
-109 -236 -76 -34 15 -70 45 -85 72 -9 16 -12 16 -36 -4 -15 -11 -52 -26 -81
-33 -47 -10 -61 -10 -98 5 -50 19 -75 42 -111 106 -14 25 -26 39 -26 32z"/>
<path d="M6336 2185 c-69 -28 -136 -90 -168 -154 -20 -40 -22 -60 -21 -151 2
-58 4 -118 5 -135 3 -28 -2 -32 -87 -77 -49 -26 -94 -47 -100 -47 -12 -1 -41
57 -60 123 -19 63 -19 122 0 176 8 24 13 45 10 48 -8 8 -74 -59 -93 -93 -10
-19 -16 -55 -16 -101 0 -63 4 -80 38 -148 l38 -78 -24 -25 c-12 -14 -51 -47
-85 -74 l-62 -48 -21 34 c-32 51 -86 95 -119 95 -34 0 -81 -43 -81 -74 0 -34
36 -83 82 -112 l42 -27 -30 -25 c-52 -45 -74 -83 -74 -126 1 -32 6 -45 27 -60
56 -41 123 -10 178 83 17 28 33 51 38 51 4 0 24 -18 44 -41 45 -50 106 -83
136 -73 58 17 74 72 37 124 -11 16 -43 43 -70 61 -28 18 -50 35 -50 38 1 8 87
74 185 141 237 164 494 239 718 212 140 -17 250 -56 348 -123 32 -21 60 -39
63 -39 4 0 6 15 6 33 0 42 -44 96 -107 132 -27 16 -50 29 -51 31 -2 1 15 35
38 74 48 82 147 186 186 196 l27 7 -24 13 c-13 7 -49 13 -80 14 -44 0 -64 -6
-100 -29 -52 -32 -107 -96 -140 -161 -12 -25 -24 -46 -25 -48 -1 -2 -31 5 -66
16 -34 11 -87 23 -116 27 l-53 7 7 32 c23 105 134 253 220 292 l39 18 -43 4
c-95 7 -210 -52 -272 -143 -36 -53 -100 -183 -100 -205 0 -19 -219 -74 -235
-59 -5 6 -10 54 -10 107 0 84 4 105 26 152 14 30 48 79 75 108 28 28 45 52 40
52 -6 0 -38 -11 -70 -25z"/>
<path d="M6460 2157 c-50 -53 -110 -151 -110 -182 0 -11 10 2 24 31 13 28 49
77 80 109 31 32 56 65 54 73 -2 11 -17 1 -48 -31z"/>
<path d="M6964 2126 c-37 -17 -66 -38 -116 -88 -47 -48 -102 -127 -93 -136 4
-4 16 7 28 23 11 17 49 58 83 92 52 52 72 65 123 79 36 10 61 23 61 31 0 17
-45 16 -86 -1z"/>
<path d="M5997 1979 c-22 -33 -41 -88 -33 -96 3 -4 6 0 6 8 0 8 12 31 26 52
14 21 24 43 21 50 -2 6 -11 1 -20 -14z"/>
<path d="M7332 1970 c-42 -18 -131 -92 -171 -144 -65 -83 -48 -84 32 -2 50 52
91 84 130 101 72 33 80 73 9 45z"/>
<path d="M5730 1659 c0 -20 31 -111 37 -106 2 3 -5 31 -16 63 -11 33 -20 52
-21 43z"/>
<path d="M6550 1619 c-150 -31 -279 -82 -410 -161 -111 -68 -150 -97 -150
-114 0 -8 2 -14 4 -14 2 0 36 22 77 49 332 219 651 270 906 146 50 -25 113
-63 139 -85 25 -23 53 -40 62 -38 19 4 48 51 57 93 5 24 3 22 -14 -12 -26 -56
-47 -55 -117 2 -145 118 -367 172 -554 134z"/>
<path d="M5420 1389 c0 -20 41 -81 58 -87 17 -5 15 25 -3 32 -8 3 -24 20 -35
38 -11 19 -20 26 -20 17z"/>
<path d="M5732 1085 c-38 -55 -85 -85 -131 -85 -45 0 -114 34 -145 71 -32 37
-41 37 -21 -1 34 -65 116 -115 175 -107 51 7 85 31 121 87 l31 48 45 -44 c76
-75 162 -83 220 -21 33 35 53 68 53 89 0 7 -9 -1 -19 -18 -38 -62 -118 -90
-185 -64 -14 5 -45 27 -69 49 l-44 40 -31 -44z"/>
</g>
</svg>
