<?xml version="1.0" standalone="no"?>
<!DOCTYPE svg PUBLIC "-//W3C//DTD SVG 20010904//EN"
 "http://www.w3.org/TR/2001/REC-SVG-20010904/DTD/svg10.dtd">
<svg version="1.0" xmlns="http://www.w3.org/2000/svg"
 width="225.000000pt" height="225.000000pt" viewBox="0 0 225.000000 225.000000"
 preserveAspectRatio="xMidYMid meet">
<metadata>
Created by potrace 1.16, written by Peter Selinger 2001-2019
</metadata>
<g transform="translate(0.000000,225.000000) scale(0.100000,-0.100000)"
fill="#000000" stroke="none">
<path d="M965 1745 l-60 -22 -62 -144 c-34 -79 -77 -183 -95 -230 l-33 -87
-117 -24 c-65 -13 -118 -23 -118 -21 0 2 36 94 81 206 118 296 121 304 103
322 -18 18 -46 7 -68 -28 -16 -25 -206 -499 -206 -515 0 -5 -21 -15 -47 -21
-114 -28 -195 -55 -200 -68 -6 -15 24 -53 41 -53 6 0 28 -18 49 -40 20 -22 44
-40 53 -40 9 0 14 -6 11 -12 -54 -143 -137 -383 -137 -397 0 -28 25 -45 48
-32 21 11 31 34 122 283 41 111 67 169 78 172 50 14 214 47 217 44 2 -1 -17
-61 -42 -133 -60 -173 -93 -284 -93 -310 0 -12 21 -42 50 -70 62 -61 74 -57
107 41 12 38 60 171 105 296 77 216 83 227 110 233 16 4 43 22 61 40 93 96
107 113 107 128 0 24 -26 34 -76 29 l-45 -4 22 53 c164 413 168 430 122 428
-16 -1 -55 -11 -88 -24z"/>
<path d="M1981 1744 c-35 -13 -70 -32 -77 -42 -27 -34 -173 -344 -258 -547
-37 -88 -76 -180 -87 -205 l-20 -45 6 105 c3 58 15 170 26 250 11 80 26 196
35 258 8 63 14 141 12 175 -3 61 -3 62 -32 60 -36 -3 -136 -42 -158 -62 -25
-24 -190 -515 -294 -876 -66 -231 -71 -257 -51 -274 31 -25 55 3 83 97 64 214
166 546 198 642 30 92 34 100 35 65 0 -22 -6 -97 -14 -167 -20 -177 -29 -366
-21 -421 5 -35 19 -60 54 -102 25 -30 54 -55 63 -55 12 0 25 22 44 73 98 260
325 785 325 751 0 -6 -16 -89 -35 -185 -40 -197 -115 -614 -115 -640 0 -24 97
-114 122 -114 19 0 27 32 113 460 51 253 109 536 129 628 21 93 35 175 32 183
-8 20 -42 17 -115 -12z"/>
<path d="M935 1030 c-37 -14 -48 -37 -42 -87 4 -42 2 -50 -34 -96 -32 -40 -39
-57 -39 -92 0 -35 5 -48 26 -64 32 -25 55 -26 94 -6 25 13 29 13 34 0 7 -19
35 -20 42 -2 3 8 1 25 -4 38 -8 19 -5 30 9 48 26 31 25 71 0 71 -11 0 -23 -5
-26 -10 -9 -14 -21 -5 -28 19 -3 13 6 34 24 58 41 55 38 97 -8 122 -25 13 -21
12 -48 1z m22 -77 c-16 -16 -17 -16 -17 3 0 11 3 24 7 28 4 3 11 2 17 -4 7 -7
5 -16 -7 -27z m-33 -183 c-23 -23 -37 1 -17 30 16 22 17 22 24 4 4 -11 1 -25
-7 -34z"/>
</g>
</svg>
