<?xml version="1.0" standalone="no"?>
<!DOCTYPE svg PUBLIC "-//W3C//DTD SVG 20010904//EN"
 "http://www.w3.org/TR/2001/REC-SVG-20010904/DTD/svg10.dtd">
<svg version="1.0" xmlns="http://www.w3.org/2000/svg"
 width="225.000000pt" height="225.000000pt" viewBox="0 0 225.000000 225.000000"
 preserveAspectRatio="xMidYMid meet">
<metadata>
Created by potrace 1.16, written by Peter Selinger 2001-2019
</metadata>
<g transform="translate(0.000000,225.000000) scale(0.100000,-0.100000)"
fill="#000000" stroke="none">
<path d="M511 1336 c-9 -11 -9 -20 -2 -35 17 -30 13 -66 -12 -123 -25 -57 -86
-118 -116 -118 -10 0 -24 7 -31 15 -10 12 -7 21 17 52 79 101 102 175 58 181
-54 8 -137 -96 -153 -189 -13 -79 -74 -80 -80 -1 -3 43 20 99 64 159 13 17 24
34 24 37 0 3 -36 6 -80 6 -68 0 -81 -3 -90 -19 -16 -30 -14 -31 51 -31 l60 0
-19 -27 c-36 -54 -64 -134 -58 -168 9 -45 28 -59 73 -51 48 8 68 8 116 0 51
-9 89 9 141 68 71 78 107 171 92 232 -7 29 -36 35 -55 12z m-111 -89 c0 -17
-51 -98 -73 -116 -20 -16 -20 -14 -6 30 21 61 79 125 79 86z"/>
<path d="M893 1285 c-44 -27 -113 -120 -133 -179 -8 -26 -18 -36 -40 -41 -62
-14 -68 33 -13 90 32 33 34 38 19 47 -43 24 -153 -22 -191 -81 -55 -82 -26
-127 48 -76 46 31 47 31 47 0 0 -22 4 -25 33 -25 17 0 45 7 61 15 26 14 31 14
46 0 23 -21 52 -19 83 5 30 24 37 25 37 5 0 -24 25 -28 59 -11 16 9 32 16 35
16 10 0 -15 -55 -40 -87 -29 -39 -41 -41 -46 -10 l-3 22 -22 -22 c-52 -52 -10
-71 62 -29 50 30 155 183 155 227 0 7 7 20 16 30 15 17 14 18 -18 24 -52 10
-105 -17 -168 -85 -36 -39 -64 -60 -78 -60 -42 0 -34 26 27 89 84 85 121 161
78 161 -7 0 -31 -11 -54 -25z m27 -33 c0 -13 -54 -83 -89 -116 -47 -45 -40
-10 14 63 39 53 75 78 75 53z m-252 -91 c24 -15 -67 -91 -109 -91 -19 0 -8 52
16 75 24 25 68 33 93 16z m378 -3 c10 -15 -72 -90 -94 -86 -29 6 -25 37 8 68
33 31 73 39 86 18z"/>
<path d="M1989 1174 c-64 -66 -104 -94 -134 -94 -26 0 -17 47 15 83 29 34 38
57 22 57 -4 0 -34 -23 -65 -51 -32 -28 -60 -49 -64 -46 -3 3 5 22 17 41 38 62
16 61 -53 -2 -37 -33 -87 -70 -110 -81 -73 -36 -109 -23 -40 14 107 58 129
153 25 109 -43 -17 -85 -55 -113 -101 -15 -24 -30 -34 -62 -41 -42 -8 -77 -5
-77 7 0 3 20 17 45 30 47 25 87 75 78 98 -3 8 -21 13 -43 13 -29 0 -47 -9 -84
-41 -25 -22 -49 -52 -52 -65 -4 -14 -15 -29 -26 -35 -25 -13 -58 -2 -58 19 0
21 36 82 49 82 5 0 12 7 15 16 5 13 0 15 -35 9 -36 -6 -41 -5 -36 9 4 9 2 16
-3 16 -12 0 -50 -50 -50 -67 0 -7 -19 -34 -42 -60 -38 -41 -39 -44 -12 -25 17
12 39 33 48 47 9 14 26 25 37 25 l20 0 -20 -29 c-25 -35 -27 -79 -4 -88 9 -4
35 0 59 9 35 12 44 12 60 1 24 -17 70 -16 127 3 43 14 48 14 63 0 8 -9 24 -16
35 -16 28 0 87 26 125 55 44 34 60 32 35 -4 -12 -16 -21 -32 -21 -35 0 -16 33
-3 74 29 26 19 48 35 50 35 2 0 3 -15 2 -32 -1 -30 2 -33 30 -36 31 -3 36 1
166 106 l28 23 0 -24 c0 -41 -10 -55 -46 -67 -63 -21 -41 -36 54 -37 75 -1 90
2 110 20 12 11 22 23 22 26 0 3 -21 6 -47 6 -54 0 -51 -7 -35 99 12 74 0 73
-79 -10z m-559 -4 c0 -17 -62 -70 -83 -70 -13 0 22 58 45 74 30 21 38 20 38
-4z m200 6 c0 -17 -56 -66 -76 -66 -22 0 -17 19 15 51 31 31 61 38 61 15z"/>
</g>
</svg>
