<?xml version="1.0" standalone="no"?>
<!DOCTYPE svg PUBLIC "-//W3C//DTD SVG 20010904//EN"
 "http://www.w3.org/TR/2001/REC-SVG-20010904/DTD/svg10.dtd">
<svg version="1.0" xmlns="http://www.w3.org/2000/svg"
 width="1024.000000pt" height="1024.000000pt" viewBox="0 0 1024.000000 1024.000000"
 preserveAspectRatio="xMidYMid meet">
<metadata>
Created by potrace 1.16, written by Peter Selinger 2001-2019
</metadata>
<g transform="translate(0.000000,1024.000000) scale(0.100000,-0.100000)"
fill="#000000" stroke="none">
<path d="M6450 8104 c-19 -2 -80 -9 -135 -15 -1004 -107 -1959 -656 -2563
-1474 l-82 -110 430 -3 430 -2 128 116 c246 226 478 387 747 519 334 164 662
258 1029 296 154 15 543 7 686 -16 638 -99 1202 -376 1651 -812 l106 -103 437
0 438 0 -38 53 c-94 131 -239 303 -359 426 -595 612 -1344 988 -2205 1107
-109 15 -614 28 -700 18z"/>
<path d="M6595 6837 l-360 -193 -3 -377 -2 -377 -320 0 -320 0 0 -345 0 -345
320 0 320 0 0 -1084 c0 -712 4 -1111 11 -1163 46 -340 209 -591 464 -713 126
-61 201 -80 345 -87 127 -6 263 7 382 37 88 23 225 79 278 114 l36 24 89 346
c48 190 86 348 84 350 -2 2 -38 -16 -79 -40 -302 -177 -629 -210 -765 -77 -47
46 -81 118 -94 203 -7 42 -11 422 -11 1078 l0 1012 385 0 385 0 0 345 0 345
-385 0 -385 0 0 570 c0 314 -3 570 -7 570 -5 0 -170 -87 -368 -193z"/>
<path d="M2190 5944 c-752 -89 -1310 -492 -1563 -1129 -140 -350 -174 -813
-92 -1223 159 -783 765 -1329 1598 -1437 136 -17 399 -20 514 -5 269 36 514
132 733 288 95 67 350 309 350 332 0 7 -17 33 -38 59 -21 25 -116 140 -211
254 l-173 209 -66 -64 c-237 -227 -505 -350 -794 -365 -704 -36 -1236 524
-1194 1257 25 452 253 813 626 994 447 218 954 129 1343 -234 l87 -82 19 23
c10 13 105 128 210 254 105 127 191 235 191 241 0 18 -162 186 -248 257 -214
177 -446 291 -711 348 -77 17 -140 21 -321 24 -124 2 -241 1 -260 -1z"/>
<path d="M4170 4050 l0 -1840 375 0 375 0 0 1840 0 1840 -375 0 -375 0 0
-1840z"/>
<path d="M8510 4050 l0 -1840 375 0 375 0 0 1840 0 1840 -375 0 -375 0 0
-1840z"/>
</g>
</svg>
