<?xml version="1.0" standalone="no"?>
<!DOCTYPE svg PUBLIC "-//W3C//DTD SVG 20010904//EN"
 "http://www.w3.org/TR/2001/REC-SVG-20010904/DTD/svg10.dtd">
<svg version="1.0" xmlns="http://www.w3.org/2000/svg"
 width="900.000000pt" height="900.000000pt" viewBox="0 0 900.000000 900.000000"
 preserveAspectRatio="xMidYMid meet">
<metadata>
Created by potrace 1.16, written by Peter Selinger 2001-2019
</metadata>
<g transform="translate(0.000000,900.000000) scale(0.100000,-0.100000)"
fill="#000000" stroke="none">
<path d="M10 5201 c0 -5 32 -139 70 -297 39 -159 93 -383 121 -499 67 -275 84
-335 111 -375 42 -62 70 -75 166 -78 48 -1 93 1 100 6 17 12 193 721 226 915
10 54 22 38 30 -39 13 -128 144 -732 169 -781 20 -37 65 -79 100 -92 40 -15
172 -14 184 2 6 6 21 57 36 112 14 55 60 231 102 390 107 403 102 383 146 555
22 85 43 163 45 173 5 16 -6 17 -125 17 -72 0 -131 -2 -131 -5 0 -2 -31 -154
-69 -337 -38 -183 -81 -400 -97 -483 -18 -98 -30 -143 -34 -130 -4 11 -26 119
-48 240 -39 210 -93 474 -131 635 l-17 75 -136 3 -136 3 -37 -158 c-20 -87
-50 -212 -65 -278 -38 -158 -86 -383 -101 -467 -7 -38 -16 -68 -21 -68 -4 0
-8 4 -8 9 0 20 -153 837 -175 939 -5 21 -9 22 -140 22 -74 0 -135 -4 -135 -9z"/>
<path d="M2568 4585 l2 -625 120 0 120 0 0 625 0 625 -122 0 -123 0 3 -625z"/>
<path d="M6170 4703 c0 -525 3 -562 43 -638 19 -37 61 -77 107 -101 27 -15 57
-19 135 -19 55 0 117 4 138 8 l37 8 0 94 0 95 -74 0 c-134 0 -148 35 -144 341
l3 184 113 3 112 3 0 114 0 114 -112 3 -113 3 -3 148 -3 147 -119 0 -120 0 0
-507z"/>
<path d="M1865 4909 c-65 -10 -107 -22 -177 -51 l-46 -20 20 -76 c12 -42 22
-79 24 -80 1 -2 33 8 71 23 97 40 232 47 296 16 48 -23 82 -78 75 -122 -3 -23
-8 -24 -98 -30 -273 -19 -431 -128 -455 -316 -9 -65 14 -147 58 -205 104 -137
345 -145 483 -16 l31 29 26 -39 c35 -53 81 -74 159 -70 l61 3 -2 295 c-3 384
-14 453 -90 549 -75 95 -245 138 -436 110z m273 -559 c4 -90 -4 -125 -40 -166
-42 -48 -77 -64 -142 -64 -68 0 -108 30 -124 90 -18 71 20 144 88 173 32 13
138 32 182 32 l33 0 3 -65z"/>
<path d="M3430 4907 c-62 -17 -112 -50 -154 -99 l-35 -40 -3 63 -3 64 -117 3
-118 3 0 -471 0 -470 125 0 125 0 0 302 c0 286 1 304 21 345 31 64 78 96 149
101 56 4 59 3 98 -36 57 -57 62 -92 62 -427 l0 -285 125 0 125 0 0 308 c0 299
1 309 23 352 30 61 76 90 141 90 59 0 98 -21 127 -69 20 -34 41 -149 39 -216
-1 -22 -1 -136 -1 -252 l1 -213 123 0 122 0 -1 323 c-2 351 -8 405 -60 493
-57 97 -141 140 -270 138 -97 -2 -171 -36 -241 -111 l-51 -55 -15 29 c-22 41
-86 100 -130 118 -53 22 -152 28 -207 12z"/>
<path d="M4815 4910 c-74 -12 -149 -34 -197 -57 l-36 -18 25 -78 c20 -65 27
-77 41 -72 81 33 139 47 209 52 131 9 197 -27 213 -118 8 -45 2 -49 -73 -49
-124 0 -277 -43 -356 -100 -41 -30 -89 -93 -110 -145 -6 -17 -12 -61 -13 -98
-1 -56 4 -77 31 -132 55 -111 154 -162 295 -153 84 6 148 31 205 84 34 30 44
35 52 23 5 -8 9 -17 9 -21 0 -4 14 -20 32 -37 38 -36 89 -50 148 -42 l45 6 -3
320 c-2 185 -8 339 -14 365 -34 138 -98 211 -223 254 -61 20 -199 28 -280 16z
m263 -578 c4 -103 -13 -143 -77 -184 -41 -26 -53 -29 -109 -26 -86 5 -114 33
-120 116 -4 54 -2 61 27 94 38 43 94 67 181 78 100 12 95 16 98 -78z"/>
<path d="M5945 4911 c-73 -18 -149 -82 -180 -151 -10 -22 -22 -40 -26 -40 -5
0 -10 39 -11 88 l-3 87 -107 3 -108 3 0 -471 0 -470 125 0 125 0 0 250 c0 273
7 329 50 388 37 52 89 75 178 80 l73 4 -5 109 c-3 60 -8 114 -11 119 -7 11
-55 12 -100 1z"/>
</g>
</svg>
