<?xml version="1.0" standalone="no"?>
<!DOCTYPE svg PUBLIC "-//W3C//DTD SVG 20010904//EN"
 "http://www.w3.org/TR/2001/REC-SVG-20010904/DTD/svg10.dtd">
<svg version="1.0" xmlns="http://www.w3.org/2000/svg"
 width="225.000000pt" height="225.000000pt" viewBox="0 0 225.000000 225.000000"
 preserveAspectRatio="xMidYMid meet">
<metadata>
Created by potrace 1.16, written by Peter Selinger 2001-2019
</metadata>
<g transform="translate(0.000000,225.000000) scale(0.100000,-0.100000)"
fill="#000000" stroke="none">
<path d="M0 1125 l0 -1125 1125 0 1125 0 0 1125 0 1125 -1125 0 -1125 0 0
-1125z m1048 273 l3 -88 -314 0 c-307 0 -315 0 -357 -23 -56 -29 -80 -74 -80
-148 0 -66 25 -111 80 -143 32 -19 55 -21 238 -24 l202 -3 0 50 0 51 -120 0
-120 0 0 80 0 80 235 0 235 0 0 -215 0 -216 -367 3 -368 3 -55 26 c-184 88
-256 286 -169 465 43 89 148 167 248 184 25 4 195 7 376 6 l330 -1 3 -87z
m935 65 c60 -28 146 -114 177 -178 21 -42 25 -64 25 -145 0 -82 -4 -103 -26
-151 -35 -73 -87 -125 -168 -163 l-66 -31 -375 0 -375 0 -3 348 -2 348 382 -3
c370 -3 385 -4 431 -25z"/>
<path d="M1438 1303 l-28 -4 0 -142 c0 -78 3 -152 6 -164 6 -23 7 -23 212 -23
188 0 209 2 248 21 72 35 107 113 85 192 -14 48 -34 75 -76 103 -26 17 -50 19
-225 21 -107 0 -207 -1 -222 -4z"/>
</g>
</svg>
