<?xml version="1.0" standalone="no"?>
<!DOCTYPE svg PUBLIC "-//W3C//DTD SVG 20010904//EN"
 "http://www.w3.org/TR/2001/REC-SVG-20010904/DTD/svg10.dtd">
<svg version="1.0" xmlns="http://www.w3.org/2000/svg"
 width="1024.000000pt" height="1024.000000pt" viewBox="0 0 1024.000000 1024.000000"
 preserveAspectRatio="xMidYMid meet">
<metadata>
Created by potrace 1.16, written by Peter Selinger 2001-2019
</metadata>
<g transform="translate(0.000000,1024.000000) scale(0.100000,-0.100000)"
fill="#000000" stroke="none">
<path d="M4849 8345 c-520 -72 -995 -341 -1321 -750 -167 -210 -308 -492 -373
-748 -50 -200 -59 -278 -59 -517 0 -243 15 -356 70 -555 181 -643 677 -1159
1315 -1369 429 -141 861 -140 1292 4 635 212 1135 745 1306 1392 54 201 65
291 65 533 0 237 -15 353 -70 550 -220 781 -884 1353 -1695 1460 -136 18 -396
18 -530 0z m426 -305 c591 -53 1121 -419 1385 -955 270 -549 224 -1199 -121
-1715 -161 -241 -396 -444 -664 -575 -253 -124 -491 -180 -760 -179 -450 2
-874 177 -1195 494 -295 291 -456 623 -506 1041 -23 190 -13 349 33 559 45
206 124 387 249 577 106 160 303 359 458 462 346 230 720 327 1121 291z"/>
<path d="M4030 6955 l0 -465 310 0 310 0 0 -155 0 -155 -310 0 -310 0 0 -470
0 -470 508 0 507 0 0 152 0 153 -350 5 -350 5 -3 153 -3 152 316 0 315 0 0
470 0 470 -315 0 -315 0 0 155 0 155 351 2 350 3 2 153 2 152 -507 0 -508 0 0
-465z"/>
<path d="M5200 7265 l0 -155 350 0 350 0 0 -155 0 -155 -310 0 -310 0 0 -470
0 -470 310 0 310 0 0 -155 0 -155 -350 0 -350 0 0 -155 0 -155 510 0 510 0 -2
468 -3 467 -312 3 -313 2 0 155 0 155 315 0 315 0 0 465 0 465 -510 0 -510 0
0 -155z"/>
<path d="M2527 3484 c-4 -4 -7 -369 -7 -811 l0 -803 163 2 162 3 0 805 0 805
-156 3 c-85 1 -158 -1 -162 -4z"/>
<path d="M4740 2680 l0 -810 471 0 c280 0 499 4 542 11 261 38 403 169 423
389 7 76 -8 185 -36 247 -24 54 -103 139 -154 165 l-39 20 50 43 c61 54 93
121 104 224 31 272 -123 465 -403 507 -68 10 -207 14 -525 14 l-433 0 0 -810z
m955 491 c104 -43 136 -187 59 -265 -50 -49 -100 -56 -416 -56 l-288 0 0 171
0 171 308 -4 c217 -3 316 -8 337 -17z m68 -650 c72 -36 102 -86 102 -172 0
-72 -15 -103 -66 -141 -42 -31 -123 -38 -440 -38 l-309 0 0 191 0 190 333 -3
c327 -3 333 -3 380 -27z"/>
<path d="M7165 3483 c-204 -17 -355 -59 -458 -126 -116 -75 -219 -202 -275
-339 -41 -103 -53 -157 -59 -278 -14 -282 59 -494 226 -660 120 -119 255 -174
483 -199 54 -6 219 -11 368 -11 l270 0 0 155 0 155 -262 1 c-299 0 -324 2
-430 31 -96 25 -180 73 -236 136 -81 90 -112 184 -112 345 0 117 19 193 64
266 34 54 116 124 182 155 110 52 155 58 487 63 l308 5 -3 151 -3 152 -255 1
c-140 0 -273 -1 -295 -3z"/>
<path d="M3785 3463 c-86 -12 -209 -48 -283 -84 -178 -86 -325 -274 -375 -479
-37 -153 -30 -357 18 -508 70 -222 269 -401 523 -470 94 -25 108 -26 430 -30
l332 -3 0 149 0 150 -282 5 c-315 5 -374 14 -493 71 -165 78 -245 218 -245
429 0 228 106 371 325 440 91 29 191 37 444 37 l251 0 0 150 0 150 -307 -1
c-170 -1 -321 -4 -338 -6z"/>
</g>
</svg>
