<?xml version="1.0" standalone="no"?>
<!DOCTYPE svg PUBLIC "-//W3C//DTD SVG 20010904//EN"
 "http://www.w3.org/TR/2001/REC-SVG-20010904/DTD/svg10.dtd">
<svg version="1.0" xmlns="http://www.w3.org/2000/svg"
 width="1024.000000pt" height="1024.000000pt" viewBox="0 0 1024.000000 1024.000000"
 preserveAspectRatio="xMidYMid meet">
<metadata>
Created by potrace 1.16, written by Peter Selinger 2001-2019
</metadata>
<g transform="translate(0.000000,1024.000000) scale(0.100000,-0.100000)"
fill="#000000" stroke="none">
<path d="M4795 9298 c-333 -26 -722 -115 -1040 -235 -1136 -432 -2003 -1371
-2341 -2532 -225 -773 -202 -1592 65 -2361 57 -166 103 -273 201 -465 181
-358 395 -656 680 -949 605 -620 1379 -1010 2247 -1130 169 -24 438 -39 461
-27 13 7 22 7 30 -1 9 -9 15 -9 24 0 7 7 8 12 4 12 -5 0 -3 7 4 15 10 13 9 15
-9 15 -11 0 -21 -4 -21 -8 0 -5 -7 -9 -15 -9 -10 0 -12 4 -5 12 8 9 -23 14
-127 19 -272 14 -475 43 -740 107 -807 195 -1534 659 -2059 1314 -447 559
-717 1202 -810 1930 -26 198 -26 681 -1 885 20 159 57 361 89 485 11 44 24 98
29 120 9 51 103 309 158 440 288 677 780 1270 1396 1682 558 372 1233 597
1890 628 149 7 178 12 170 26 -4 5 -1 16 5 24 11 13 0 15 -81 14 -52 -1 -143
-6 -204 -11z"/>
<path d="M5103 9296 c1 -6 -4 -10 -11 -8 -10 2 -10 -2 -2 -18 11 -20 35 -23
35 -4 0 5 4 14 8 20 4 7 -1 14 -13 17 -11 3 -18 0 -17 -7z"/>
<path d="M5147 9289 c-3 -13 -2 -26 4 -30 6 -3 79 -9 162 -12 686 -29 1378
-263 1962 -665 343 -235 672 -556 919 -896 127 -174 206 -303 307 -501 100
-195 143 -295 210 -485 39 -113 50 -136 70 -140 12 -3 25 -12 27 -19 3 -10 0
-11 -9 -5 -11 6 -12 5 -2 -7 7 -8 12 -45 12 -84 -1 -39 8 -108 19 -155 24 -99
56 -291 74 -440 17 -138 17 -649 0 -795 -52 -452 -166 -851 -351 -1240 -513
-1073 -1498 -1846 -2659 -2086 -172 -35 -352 -59 -549 -71 -188 -12 -191 -12
-196 -35 -6 -34 19 -37 211 -24 776 55 1452 302 2070 759 209 154 510 441 674
642 485 595 771 1281 859 2060 20 173 18 651 -4 822 -82 656 -289 1215 -644
1737 -233 342 -541 666 -868 913 -624 471 -1370 740 -2146 774 l-146 7 -6 -24z"/>
<path d="M4500 9015 c-94 -21 -174 -53 -238 -95 -105 -68 -108 -43 33 -303
l123 -227 -33 -50 c-53 -79 -75 -149 -75 -238 1 -42 7 -93 14 -113 l13 -37
-171 -56 c-198 -66 -296 -109 -349 -155 -36 -32 -47 -63 -27 -76 6 -3 7 1 4 9
-3 9 -1 16 6 16 6 0 26 11 43 24 59 45 221 110 427 171 69 20 126 38 128 40 2
1 -7 20 -20 41 -20 33 -23 53 -23 134 0 87 3 101 32 161 43 86 100 142 198
190 157 78 319 74 491 -10 141 -70 235 -182 269 -322 16 -64 16 -74 0 -151
-32 -161 -113 -297 -265 -448 -137 -136 -195 -256 -236 -483 -23 -127 -23
-392 1 -560 16 -114 16 -129 2 -145 -29 -33 -75 -139 -86 -197 -14 -74 -14
-167 -1 -274 12 -91 54 -237 76 -262 8 -9 21 -36 30 -62 16 -47 47 -75 37 -34
-4 15 3 9 21 -16 32 -46 33 -56 4 -31 -15 14 -13 6 10 -28 24 -34 37 -46 52
-43 11 2 20 -1 20 -7 0 -6 3 -8 6 -5 6 5 -8 25 -69 97 -68 79 -139 297 -152
465 -12 145 26 307 87 372 24 26 91 31 149 12 19 -7 210 -97 424 -202 368
-179 831 -398 903 -427 55 -22 29 -22 -49 0 -40 11 -77 20 -82 20 -5 0 10 -21
32 -47 22 -26 39 -49 37 -50 -4 -5 -383 115 -456 144 -36 15 -150 66 -255 115
-201 93 -277 115 -362 102 -126 -19 -178 -142 -120 -284 26 -64 95 -125 129
-114 14 4 18 2 13 -5 -3 -6 4 -20 17 -31 30 -25 38 -25 38 0 0 15 -7 20 -27
20 -22 0 -25 2 -13 10 10 6 11 10 3 10 -22 0 -93 71 -115 114 -11 22 -22 65
-25 95 -4 47 -1 61 19 91 48 71 182 74 316 6 108 -54 372 -172 437 -194 33
-12 157 -51 275 -87 l215 -66 50 -53 c28 -29 79 -84 113 -124 l64 -72 -119 56
c-213 101 -347 155 -398 161 l-50 6 60 -50 c33 -28 76 -70 95 -94 62 -77 90
-119 80 -119 -5 0 -70 16 -142 35 -73 18 -168 40 -210 48 -75 14 -78 14 -84
-5 -3 -11 -4 -21 -2 -22 1 -2 37 -27 78 -58 107 -78 112 -86 47 -77 -29 4 -74
8 -102 9 -49 0 -52 2 -165 106 -147 136 -182 163 -188 146 -2 -6 -9 -9 -15 -5
-26 14 34 -45 156 -155 70 -63 127 -122 127 -131 0 -10 37 -43 88 -78 213
-148 416 -328 532 -472 88 -108 163 -252 158 -301 l-3 -35 -44 75 c-202 340
-488 602 -811 741 -49 21 -153 56 -232 79 -164 46 -278 98 -369 169 -41 32
-66 46 -71 38 -4 -7 -12 -7 -24 4 -16 13 -16 12 -4 -6 17 -27 103 -96 165
-132 73 -43 186 -86 305 -118 203 -55 356 -129 532 -260 62 -45 109 -92 172
-171 130 -163 195 -248 193 -251 -1 -1 -20 2 -42 7 -22 5 -65 7 -95 5 -31 -2
-49 -1 -41 4 17 11 -9 17 -124 31 -115 13 -209 12 -260 -3 -31 -10 -44 -21
-58 -50 -18 -36 -18 -41 -3 -111 20 -90 102 -258 191 -391 91 -136 98 -203 32
-280 l-32 -37 -105 11 c-149 16 -415 15 -465 -1 -33 -11 -42 -20 -54 -53 -34
-99 -24 -443 25 -874 13 -117 24 -217 24 -221 0 -4 55 -10 123 -13 181 -8 329
-52 412 -123 l30 -25 -125 7 c-416 22 -837 -110 -1145 -359 -38 -31 -74 -57
-78 -57 -13 0 4 71 28 120 33 64 108 162 165 213 l50 45 -44 11 c-70 17 -324
33 -416 26 -76 -6 -83 -6 -71 9 22 26 118 66 219 92 192 49 453 68 601 43 51
-8 66 -7 72 3 22 33 6 337 -41 798 -24 228 -27 250 -41 229 -7 -12 -9 -11 -9
3 0 9 5 18 10 20 6 2 8 21 4 48 l-6 46 -112 2 c-128 3 -373 19 -494 32 -136
15 -210 -7 -283 -82 -55 -57 -84 -110 -125 -225 -19 -54 -37 -105 -40 -113
-14 -40 -49 75 -72 242 l-18 123 -32 -55 c-43 -74 -79 -186 -95 -295 l-14 -90
-12 40 c-6 22 -17 81 -23 130 -13 111 -14 115 -31 115 -9 0 -37 -53 -72 -133
-31 -72 -61 -136 -66 -142 -12 -12 -12 188 0 251 26 135 97 241 193 290 28 14
109 40 182 57 l131 32 345 -1 c315 -1 581 -14 623 -30 13 -5 21 4 34 32 14 32
17 69 17 209 -1 94 -7 226 -14 295 l-13 124 -155 151 c-142 138 -161 153 -236
185 -183 80 -297 162 -483 347 -135 134 -144 140 -155 120 -11 -21 -13 -19
-60 33 -185 206 -288 468 -288 733 0 366 171 751 504 1135 52 59 105 118 120
131 14 14 26 31 26 38 0 7 12 18 28 25 121 49 147 66 180 125 27 45 32 64 27
90 -7 40 -51 92 -122 145 -29 21 -53 45 -53 53 0 19 -14 19 -119 0 -46 -8
-160 -22 -255 -30 -94 -9 -189 -21 -211 -27 l-40 -11 50 -10 c53 -9 256 4 398
27 42 7 77 11 77 9 0 -1 -16 -24 -37 -50 -50 -66 -75 -128 -75 -185 0 -57 18
-88 72 -124 l40 -27 -83 -91 c-300 -328 -496 -684 -553 -1004 -18 -103 -20
-298 -4 -397 32 -203 146 -428 305 -603 52 -57 59 -62 74 -48 16 14 27 6 137
-102 180 -177 355 -299 503 -350 40 -14 76 -44 199 -164 l151 -147 11 -138
c12 -134 11 -436 -1 -447 -3 -3 -57 -1 -120 6 -63 6 -280 11 -484 12 -367 1
-371 0 -485 -26 -63 -15 -134 -34 -156 -42 -131 -46 -223 -157 -260 -313 -13
-54 -15 -100 -10 -223 3 -85 9 -173 14 -195 l8 -40 69 163 c38 89 73 162 77
162 5 0 8 -15 8 -33 0 -41 26 -131 48 -166 20 -33 64 -81 73 -81 4 0 5 24 2
53 -7 68 12 208 39 295 24 75 20 80 52 -61 28 -125 67 -177 106 -142 11 10 31
54 46 99 58 175 130 277 220 312 47 18 60 18 369 -6 66 -5 175 -9 242 -9 78
-1 124 -5 129 -12 4 -8 9 -7 15 2 6 10 9 5 9 -16 0 -20 -3 -26 -9 -17 -11 17
-7 -42 24 -348 30 -297 45 -500 45 -600 l0 -75 -213 0 c-236 -1 -343 -15 -504
-66 -108 -35 -181 -81 -205 -129 l-18 -35 248 -6 c136 -3 253 -7 260 -8 6 0
-15 -33 -48 -73 -75 -89 -116 -159 -131 -226 -10 -43 -10 -57 5 -96 l18 -46
61 56 c220 199 541 344 852 384 109 14 297 16 429 6 l109 -8 -23 32 c-90 126
-245 193 -477 207 l-111 6 -11 76 c-41 285 -71 882 -48 963 12 44 61 52 277
44 102 -3 218 -9 258 -12 l73 -7 39 42 c45 47 76 133 66 184 -3 18 -40 84 -81
147 -79 120 -166 287 -184 355 -18 65 -14 123 8 134 54 29 214 22 461 -20 185
-31 179 -28 227 -111 23 -40 46 -86 52 -101 8 -21 16 -27 29 -23 17 6 18 2 11
-48 -4 -29 -16 -75 -28 -101 -16 -36 -18 -51 -10 -61 17 -21 26 -18 81 34 64
59 121 145 138 209 23 86 33 75 26 -30 -20 -283 -133 -453 -412 -623 -16 -10
-14 -14 26 -39 25 -16 47 -31 49 -32 3 -2 -14 -22 -37 -46 -33 -34 -39 -45
-31 -59 15 -27 53 -22 164 21 55 21 101 37 103 36 2 -1 -5 -19 -15 -39 -16
-34 -16 -38 -1 -53 20 -20 63 -19 112 1 20 8 36 12 36 9 0 -3 -13 -22 -29 -42
-44 -56 -91 -136 -91 -156 0 -47 183 19 305 110 92 69 195 173 188 191 -3 8
-2 14 3 12 13 -4 64 32 64 45 0 6 7 19 17 29 10 12 12 18 4 18 -7 0 -9 5 -6
10 4 6 9 8 13 6 12 -7 38 17 56 53 10 18 13 30 7 27 -14 -9 -14 0 -1 25 6 10
19 19 29 19 37 0 166 274 210 445 159 620 -145 1138 -834 1421 -57 23 -101 48
-120 69 -21 22 -58 42 -120 65 -127 46 -371 159 -890 412 -548 268 -554 270
-627 272 -32 0 -58 3 -58 6 0 3 -7 59 -15 125 -19 155 -19 394 0 515 32 215
89 334 221 466 109 108 163 180 214 283 49 98 71 173 75 264 l4 72 48 11 c26
6 110 26 185 43 75 18 141 38 147 45 12 15 -7 114 -39 198 -24 64 -95 176
-161 255 -24 28 -52 64 -62 78 -65 92 -278 215 -452 261 -89 24 -122 27 -300
30 -149 3 -216 0 -265 -11z m186 -87 c-3 -35 -8 -130 -11 -213 -4 -82 -9 -157
-11 -167 -3 -9 -39 -32 -80 -52 -42 -20 -88 -45 -104 -56 l-29 -20 -35 62
c-19 35 -70 130 -114 211 l-81 148 41 29 c93 68 252 118 377 119 l53 1 -6 -62z
m260 47 c212 -37 379 -112 496 -223 l36 -34 -55 -87 c-119 -184 -165 -251
-171 -251 -4 0 -34 20 -67 45 -115 86 -279 134 -412 121 -61 -6 -63 -6 -63 16
0 36 19 306 26 371 l6 57 58 0 c31 0 97 -7 146 -15z m597 -341 c88 -100 156
-222 183 -329 14 -57 15 -68 3 -76 -15 -9 -244 -65 -308 -75 -37 -6 -38 -5
-55 41 -10 25 -33 68 -51 94 l-32 49 106 166 c58 91 110 166 114 166 4 0 22
-16 40 -36z m-1070 -1011 c102 -78 114 -105 79 -174 -26 -51 -62 -75 -149
-103 -58 -19 -77 -14 -112 30 -27 35 -27 93 0 147 26 52 98 147 111 147 5 0
37 -21 71 -47z m2172 -2085 c751 -294 1053 -833 834 -1492 -35 -105 -113 -268
-168 -351 -22 -33 -41 -72 -41 -87 0 -15 -4 -30 -10 -33 -6 -4 -7 1 -4 12 4
14 1 12 -15 -6 -12 -12 -18 -28 -14 -34 3 -5 1 -7 -5 -3 -12 7 -44 -33 -36
-46 7 -12 -16 -39 -27 -33 -4 3 -45 -29 -91 -71 -120 -112 -301 -225 -338
-212 -12 4 45 87 130 192 30 38 54 75 52 83 -2 8 1 12 6 9 5 -3 15 1 21 8 9
10 9 16 1 21 -6 4 -9 3 -8 -2 2 -4 -1 -8 -7 -8 -5 0 -9 4 -7 9 2 5 -13 -3 -32
-17 -85 -63 -103 -76 -143 -96 -45 -22 -73 -27 -73 -12 0 6 25 37 55 69 48 52
53 61 40 72 -13 11 -33 5 -120 -34 -110 -49 -186 -78 -191 -73 -2 2 21 28 51
57 30 30 55 57 55 61 0 4 -16 3 -36 -3 -36 -10 -84 -4 -84 10 0 4 21 20 48 37
26 16 83 66 127 110 123 122 181 248 205 439 18 143 -21 411 -59 404 -14 -3
-15 -17 -13 -93 6 -144 -43 -299 -115 -367 l-25 -23 8 30 c5 17 8 66 8 110 -2
216 -169 471 -480 729 -67 56 -160 128 -207 161 -48 33 -86 63 -87 66 0 8 111
1 173 -11 75 -15 78 -14 65 18 -6 15 -32 48 -57 74 -39 41 -42 48 -26 54 10 4
89 -12 188 -40 93 -25 172 -44 174 -42 8 8 -55 112 -104 172 -25 30 -43 58
-39 61 3 3 109 -43 236 -102 198 -93 233 -106 245 -94 12 12 -6 36 -123 167
-75 84 -158 171 -184 193 -27 22 -48 44 -48 49 0 10 169 -43 295 -92z m-1420
52 c3 -5 2 -10 -4 -10 -5 0 -13 5 -16 10 -3 6 -2 10 4 10 5 0 13 -4 16 -10z
m-241 -179 c17 -19 17 -19 -1 -17 -10 2 -19 10 -21 19 -4 22 1 21 22 -2z"/>
<path d="M7167 3493 c-4 -3 -7 -11 -7 -17 0 -6 5 -5 12 2 6 6 9 14 7 17 -3 3
-9 2 -12 -2z"/>
<path d="M5014 8207 c0 -197 -43 -297 -152 -355 -106 -57 -135 -99 -112 -166
21 -66 76 -81 176 -51 152 46 284 251 272 423 -8 105 -56 183 -153 250 l-31
20 0 -121z m132 -95 c21 -73 11 -153 -31 -239 -60 -125 -145 -194 -257 -209
-45 -6 -47 -5 -63 26 -25 48 -10 70 82 123 122 70 168 156 180 335 l6 96 34
-39 c18 -22 41 -63 49 -93z"/>
<path d="M4605 8060 c-31 -12 -48 -38 -48 -72 0 -60 80 -91 123 -48 52 52 -8
148 -75 120z"/>
<path d="M4679 7421 c-8 -10 -50 -65 -94 -122 -100 -131 -217 -316 -293 -467
-192 -378 -251 -722 -172 -1007 24 -88 87 -225 94 -205 4 13 26 149 26 165 0
3 20 -6 45 -20 24 -15 49 -24 55 -20 14 9 12 50 -4 113 -8 28 -13 52 -13 52 1
0 27 -7 57 -15 30 -8 59 -15 63 -15 5 0 -8 30 -28 66 l-38 67 82 -7 c44 -4 81
-5 81 -2 0 2 -4 15 -9 29 -5 13 -16 48 -25 77 l-16 53 81 -6 c44 -4 79 -3 77
1 -107 205 -141 364 -119 548 15 123 39 210 132 483 61 179 76 236 67 243 -20
12 -35 9 -49 -11z m-88 -308 c-88 -261 -106 -350 -105 -523 1 -116 5 -147 28
-223 14 -49 36 -107 47 -129 l20 -40 -53 2 c-29 1 -59 2 -65 1 -17 -1 -16 -49
2 -101 8 -24 13 -45 10 -48 -2 -3 -41 -1 -85 4 -44 6 -80 6 -80 2 0 -5 14 -33
31 -63 17 -30 29 -55 27 -55 -1 0 -27 7 -55 14 -29 8 -53 11 -53 7 0 -4 9 -34
20 -67 28 -80 24 -94 -18 -59 -44 36 -62 28 -62 -30 0 -87 -26 -42 -55 93 -19
94 -19 282 0 392 45 255 170 540 362 828 82 122 144 205 149 199 2 -1 -28 -93
-65 -204z"/>
<path d="M8781 6510 c0 -8 4 -24 9 -35 5 -13 9 -14 9 -5 0 8 -4 24 -9 35 -5
13 -9 14 -9 5z"/>
<path d="M5313 5526 c-1 -11 1 -15 4 -8 7 19 23 14 17 -5 -5 -15 -4 -16 5 -3
9 13 11 12 11 -6 0 -13 8 -24 19 -27 14 -3 18 -1 14 10 -5 13 -3 14 18 2 15
-8 19 -14 11 -17 -10 -3 -8 -8 5 -18 24 -18 40 -17 47 1 4 12 -7 21 -41 36
-26 11 -50 23 -53 27 -3 4 -16 12 -30 19 -23 10 -26 8 -27 -11z"/>
<path d="M5475 5449 c-4 -6 -4 -13 -1 -16 3 -4 6 -1 6 6 0 7 5 9 10 6 6 -3 10
-1 10 4 0 14 -17 14 -25 0z"/>
<path d="M4924 5198 c-27 -122 -25 -285 5 -361 18 -46 26 -57 39 -51 146 61
275 76 341 40 29 -15 35 -16 48 -3 13 12 4 22 -64 79 -99 83 -214 203 -288
301 -31 42 -58 77 -60 77 -1 0 -10 -37 -21 -82z m211 -205 l101 -103 -36 0
c-31 0 -112 -18 -207 -46 -19 -5 -23 0 -34 38 -14 53 -17 163 -5 243 l8 60 36
-45 c20 -25 82 -91 137 -147z"/>
<path d="M330 330 l0 -330 4790 0 4790 0 0 330 0 330 -4790 0 -4790 0 0 -330z
m578 38 l3 -148 -26 0 -25 0 0 151 c0 150 0 150 23 147 22 -3 22 -6 25 -150z
m-78 73 c5 -11 10 -65 10 -120 0 -91 -2 -101 -18 -101 -10 0 -23 5 -30 12 -9
9 -12 9 -12 -1 0 -8 -11 -11 -32 -9 -25 2 -35 9 -42 29 -14 42 0 76 45 105 25
15 39 31 37 41 -5 25 -25 27 -31 3 -3 -12 -13 -20 -25 -20 -29 0 -32 10 -17
48 13 29 18 32 59 32 35 0 48 -5 56 -19z m212 2 c15 -14 18 -32 18 -120 0 -95
-1 -103 -19 -103 -11 0 -23 5 -27 11 -4 8 -9 8 -17 0 -15 -15 -50 -14 -65 1
-7 7 -12 27 -12 45 0 35 20 62 69 94 17 10 22 21 18 32 -9 23 -24 21 -32 -3
-4 -13 -15 -20 -32 -20 -22 0 -24 3 -18 27 4 16 11 34 17 40 15 18 78 16 100
-4z m82 5 c-6 -10 -4 -10 7 0 7 6 22 12 34 12 12 0 27 -6 34 -12 11 -10 14
-10 18 0 7 18 60 15 67 -4 3 -9 6 -63 6 -120 0 -104 0 -104 -25 -104 -24 0
-24 1 -27 95 -2 55 -7 95 -13 95 -6 0 -11 -40 -13 -95 -3 -93 -3 -95 -27 -95
-24 0 -24 2 -27 97 -2 66 -7 98 -15 101 -10 3 -13 -21 -13 -97 l0 -101 -25 0
-25 0 0 120 0 120 26 0 c17 0 23 -4 18 -12z m238 -85 c2 -57 7 -98 13 -98 6 0
11 41 13 98 3 96 3 97 27 97 l25 0 0 -143 c0 -98 -4 -147 -12 -155 -7 -7 -34
-12 -60 -12 -41 0 -48 3 -48 19 0 15 8 21 33 23 26 2 33 8 35 28 2 17 0 21 -6
12 -5 -8 -22 -12 -38 -10 l-29 3 -3 118 -3 117 25 0 c25 0 25 -1 28 -97z
m7238 62 c0 -19 -3 -35 -7 -35 -5 0 -8 16 -8 35 0 19 3 35 8 35 4 0 7 -16 7
-35z m345 0 c0 -19 -3 -35 -7 -35 -5 0 -8 16 -8 35 0 19 3 35 8 35 4 0 7 -16
7 -35z m50 -25 c22 0 28 33 9 47 -16 12 -16 13 -2 13 22 0 33 -37 18 -55 -7
-8 -21 -15 -31 -15 -16 0 -19 7 -17 38 1 36 1 36 5 5 3 -19 10 -33 18 -33z
m131 21 c-17 -18 -17 -19 1 -24 14 -4 14 -5 -4 -6 -27 -1 -30 11 -8 29 9 7 13
20 10 29 -5 13 -4 13 6 4 10 -10 9 -17 -5 -32z m58 28 c4 6 12 11 18 11 7 0 6
-5 -1 -14 -10 -11 -10 -20 0 -38 12 -23 12 -23 -9 -5 -20 18 -20 18 -25 0 -3
-10 -5 0 -6 22 0 26 2 35 8 26 6 -9 11 -10 15 -2z m116 1 c-13 -9 -13 -10 0
-10 10 0 11 -3 4 -8 -7 -4 -14 -16 -17 -27 -3 -12 -5 -4 -6 18 -1 29 3 37 17
37 14 0 15 -2 2 -10z m40 -18 c1 -12 5 -10 15 8 l14 25 9 -25 10 -25 11 25 12
25 -6 -25 c-2 -14 -5 -31 -5 -37 0 -24 -18 -13 -25 15 l-7 27 -12 -30 -12 -30
-12 34 c-15 41 -15 44 -2 36 6 -3 10 -14 10 -23z m125 17 c12 -19 -4 -61 -23
-57 -30 6 -28 68 2 68 8 0 18 -5 21 -11z m30 1 c-3 -5 1 -10 10 -10 9 0 13 5
10 10 -3 6 -2 10 3 10 14 0 21 -47 9 -59 -6 -6 -19 -11 -29 -11 -14 0 -18 8
-18 35 0 19 5 35 11 35 5 0 7 -4 4 -10z m-799 -33 c1 -25 1 -25 -3 -2 -6 33
-23 32 -23 -2 0 -14 -3 -23 -7 -19 -4 4 -8 15 -8 23 0 29 -23 25 -28 -4 -4
-27 -4 -26 -6 5 -1 31 0 32 37 30 33 -3 37 -6 38 -31z m62 0 c3 -25 0 -28 -19
-25 -31 4 -35 25 -7 34 22 7 22 7 3 15 l-20 9 20 -3 c14 -1 21 -11 23 -30z
m60 -9 c-2 -34 -7 -43 -23 -45 -16 -1 -16 -1 -2 3 23 7 22 20 -3 27 -11 3 -20
14 -20 24 0 25 8 33 32 33 16 0 19 -6 16 -42z m66 27 c4 -10 -1 -15 -14 -15
-25 0 -26 -17 -2 -23 16 -4 16 -5 -1 -6 -20 -1 -32 21 -23 44 3 8 12 15 20 15
7 0 16 -7 20 -15z m370 -3 c-7 -4 -14 -16 -17 -27 -4 -15 -5 -14 -6 8 -1 20 4
27 17 27 11 0 13 -3 6 -8z m-264 -178 c0 -27 -4 -43 -10 -39 -5 3 -10 24 -10
46 0 21 5 39 10 39 6 0 10 -21 10 -46z m-420 9 c1 -17 1 -17 11 0 14 24 29 21
30 -5 l0 -23 9 23 c5 12 12 22 15 22 10 0 5 -37 -9 -56 -14 -18 -15 -18 -24 5
l-9 25 -6 -25 c-7 -28 -22 -17 -32 24 -5 17 -3 27 4 27 6 0 11 -8 11 -17z
m100 0 c1 -17 1 -17 14 0 16 21 26 22 26 2 0 -8 5 -15 10 -15 6 0 10 7 10 15
0 21 30 19 46 -2 13 -17 13 -17 14 0 0 9 4 17 10 17 5 0 14 -8 19 -17 10 -17
10 -17 11 0 0 9 5 17 11 17 7 0 9 -10 4 -27 -10 -41 -23 -50 -33 -22 l-9 24
-7 -23 c-10 -31 -23 -28 -31 8 -4 17 -10 30 -15 30 -4 0 -10 -13 -13 -30 -8
-36 -22 -39 -31 -7 l-7 22 -10 -24 c-11 -28 -23 -20 -33 22 -4 16 -2 27 4 27
5 0 10 -8 10 -17z m281 -15 c5 -21 3 -27 -14 -32 -11 -3 -24 -3 -29 0 -14 9
-9 34 8 41 13 5 13 8 2 15 -10 7 -8 8 6 6 11 -2 23 -14 27 -30z m110 22 c5
-45 2 -53 -19 -57 -29 -4 -42 25 -18 42 13 10 14 14 4 18 -7 3 -3 6 10 6 12 1
23 -3 23 -9z m119 -27 c0 -20 -4 -32 -10 -28 -5 3 -10 17 -10 31 0 34 -20 20
-21 -14 l-1 -27 -7 29 c-8 39 -24 39 -32 1 -7 -34 -9 -33 -15 11 l-5 30 51 1
50 0 0 -34z m41 9 c0 -13 3 -12 11 6 6 12 15 22 20 22 11 0 10 -3 -8 -49 -14
-36 -44 -64 -44 -41 0 6 5 10 11 10 6 0 9 8 6 18 -19 60 -20 65 -9 58 7 -4 12
-15 13 -24z m129 18 c0 -5 -5 -9 -12 -7 -6 1 -14 -6 -16 -15 -2 -12 3 -18 14
-18 14 0 15 -3 6 -12 -8 -8 -15 -8 -27 2 -18 15 -19 32 -3 48 15 15 38 16 38
2z m68 -21 c2 -18 -3 -29 -14 -33 -25 -9 -48 16 -39 43 10 32 49 24 53 -10z
m118 5 c4 -14 1 -31 -5 -37 -8 -8 -11 -4 -11 15 0 15 -4 30 -10 33 -6 3 -10
-5 -10 -19 0 -14 -4 -28 -10 -31 -6 -3 -10 5 -10 19 0 14 -4 28 -10 31 -6 3
-10 -5 -10 -19 0 -14 -4 -28 -10 -31 -6 -4 -10 8 -10 27 0 33 1 34 45 35 40 1
46 -1 51 -23z m-656 -34 c0 -5 -2 -10 -4 -10 -3 0 -8 5 -11 10 -3 6 -1 10 4
10 6 0 11 -4 11 -10z m410 6 c0 -3 -4 -8 -10 -11 -5 -3 -10 -1 -10 4 0 6 5 11
10 11 6 0 10 -2 10 -4z"/>
<path d="M768 316 c-20 -20 -23 -42 -7 -52 17 -10 31 11 27 42 -3 26 -4 27
-20 10z"/>
<path d="M980 315 c-15 -18 -9 -50 10 -50 10 0 16 12 18 33 3 34 -8 41 -28 17z"/>
<path d="M9430 425 c0 -17 5 -25 13 -22 6 2 12 12 12 22 0 10 -6 20 -12 23 -8
2 -13 -6 -13 -23z"/>
<path d="M9496 423 c-11 -11 -6 -23 9 -23 8 0 15 4 15 9 0 13 -16 22 -24 14z"/>
<path d="M8725 410 c-3 -5 -2 -10 4 -10 5 0 13 5 16 10 3 6 2 10 -4 10 -5 0
-13 -4 -16 -10z"/>
<path d="M8785 430 c-7 -12 2 -30 16 -30 5 0 9 9 9 20 0 21 -15 27 -25 10z"/>
<path d="M8915 240 c-3 -5 -2 -10 4 -10 5 0 13 5 16 10 3 6 2 10 -4 10 -5 0
-13 -4 -16 -10z"/>
<path d="M9025 240 c-3 -5 1 -10 9 -10 9 0 16 5 16 10 0 6 -4 10 -9 10 -6 0
-13 -4 -16 -10z"/>
<path d="M9384 257 c-8 -21 2 -35 16 -21 5 5 6 15 0 24 -8 12 -10 12 -16 -3z"/>
</g>
</svg>
