<?xml version="1.0" standalone="no"?>
<!DOCTYPE svg PUBLIC "-//W3C//DTD SVG 20010904//EN"
 "http://www.w3.org/TR/2001/REC-SVG-20010904/DTD/svg10.dtd">
<svg version="1.0" xmlns="http://www.w3.org/2000/svg"
 width="297.000000pt" height="297.000000pt" viewBox="0 0 297.000000 297.000000"
 preserveAspectRatio="xMidYMid meet">
<metadata>
Created by potrace 1.16, written by Peter Selinger 2001-2019
</metadata>
<g transform="translate(0.000000,297.000000) scale(0.100000,-0.100000)"
fill="#000000" stroke="none">
<path d="M1025 2026 c-41 -18 -83 -69 -90 -109 -3 -18 -5 -224 -3 -459 3 -413
4 -427 24 -454 11 -15 33 -37 48 -48 27 -20 39 -21 481 -21 442 0 454 1 481
21 15 11 37 33 48 48 20 27 21 41 24 475 l3 447 -23 34 c-13 18 -36 43 -51 54
-28 20 -39 21 -470 23 -352 2 -448 0 -472 -11z m468 -154 c97 -46 166 -126
182 -214 l7 -35 -52 -7 c-116 -15 -226 -100 -254 -197 -9 -29 -16 -70 -16 -91
0 -33 -3 -39 -17 -35 -74 21 -108 17 -163 -17 -30 -19 -56 -33 -59 -31 -2 2 2
25 8 50 l12 47 -55 53 c-98 96 -121 217 -63 331 82 161 297 228 470 146z m319
-300 c124 -55 191 -180 158 -296 -7 -25 -32 -67 -56 -97 -39 -45 -44 -55 -38
-85 7 -39 6 -39 -32 -19 -23 11 -50 13 -125 8 -151 -9 -236 30 -299 141 -82
143 7 321 185 367 47 13 160 2 207 -19z"/>
<path d="M1192 1688 c-16 -16 -15 -33 3 -48 21 -18 55 -3 55 25 0 32 -35 46
-58 23z"/>
<path d="M1452 1688 c-26 -26 1 -65 38 -53 16 5 20 14 18 33 -3 30 -35 41 -56
20z"/>
<path d="M1526 1425 c-3 -8 2 -22 11 -30 14 -15 18 -15 31 -1 8 8 12 22 9 30
-8 20 -43 21 -51 1z"/>
<path d="M1747 1433 c-12 -12 -7 -41 7 -46 19 -7 40 18 32 38 -6 15 -28 20
-39 8z"/>
</g>
</svg>
