<?xml version="1.0" standalone="no"?>
<!DOCTYPE svg PUBLIC "-//W3C//DTD SVG 20010904//EN"
 "http://www.w3.org/TR/2001/REC-SVG-20010904/DTD/svg10.dtd">
<svg version="1.0" xmlns="http://www.w3.org/2000/svg"
 width="541.000000pt" height="541.000000pt" viewBox="0 0 541.000000 541.000000"
 preserveAspectRatio="xMidYMid meet">
<metadata>
Created by potrace 1.16, written by Peter Selinger 2001-2019
</metadata>
<g transform="translate(0.000000,541.000000) scale(0.100000,-0.100000)"
fill="#000000" stroke="none">
<path d="M2587 4109 c-420 -32 -818 -266 -1052 -620 -144 -218 -219 -449 -231
-709 -27 -570 271 -1075 783 -1329 187 -93 337 -130 563 -138 196 -7 327 10
486 62 462 151 806 519 929 990 131 505 -45 1071 -439 1404 -235 199 -505 315
-781 336 -44 3 -96 7 -115 9 -19 1 -84 -1 -143 -5z m-575 -996 c36 -33 9 -127
-40 -140 -54 -13 -51 54 3 79 28 12 28 31 1 36 -58 12 -225 -134 -311 -272
-92 -149 -124 -291 -79 -353 55 -74 124 -78 369 -17 123 30 170 37 260 38 106
1 113 0 177 -32 37 -18 88 -53 115 -77 l48 -45 -53 26 c-56 27 -143 41 -186
30 -15 -4 -36 -16 -47 -27 l-20 -20 -32 31 c-17 16 -49 35 -72 41 -57 16 -182
5 -305 -27 -129 -33 -249 -38 -297 -11 -18 9 -45 34 -60 54 -24 31 -29 48 -31
112 -6 124 41 239 153 373 132 159 340 262 407 201z m1238 8 c131 9 152 5 243
-44 48 -27 87 -51 87 -56 0 -4 -13 -20 -30 -36 l-30 -28 -52 33 c-102 64 -136
80 -174 83 -38 2 -39 1 -44 -38 -19 -127 -163 -268 -218 -213 -34 34 11 132
100 213 56 51 60 57 34 51 -118 -28 -338 -273 -408 -454 -41 -104 -47 -163
-19 -191 11 -11 34 -21 49 -21 77 0 201 153 202 248 0 25 -4 32 -19 32 -23 0
-66 -53 -76 -93 -4 -15 -19 -34 -34 -42 -14 -7 -39 -26 -54 -40 -16 -15 -30
-25 -32 -23 -7 7 16 81 41 129 54 107 173 154 203 80 32 -75 -72 -261 -182
-326 -88 -51 -175 -39 -212 29 -26 47 -17 161 19 239 108 242 390 492 531 472
22 -3 56 -5 75 -4z m696 -49 c-68 -93 -172 -152 -268 -152 -32 0 -58 4 -58 8
0 5 14 21 30 37 23 22 42 30 78 32 57 4 153 48 207 96 22 19 42 33 44 31 2 -1
-13 -25 -33 -52z m-138 21 c4 -28 -24 -83 -43 -83 -16 0 -20 16 -6 24 5 3 11
15 14 26 10 40 -26 20 -102 -57 -71 -73 -148 -178 -217 -298 l-29 -50 31 22
c35 25 186 177 209 211 16 22 45 30 45 13 0 -16 -200 -220 -261 -267 -47 -36
-62 -55 -78 -99 -19 -50 -28 -105 -17 -105 21 0 44 24 93 94 84 119 123 164
172 197 50 33 76 36 103 12 11 -9 18 -11 18 -5 0 7 18 12 45 12 25 0 45 -2 45
-4 0 -2 -38 -68 -85 -147 -47 -78 -85 -146 -85 -151 0 -24 70 39 105 95 17 26
45 37 45 18 0 -20 -109 -145 -151 -173 -57 -38 -82 -33 -105 20 -1 2 -19 -8
-39 -23 -21 -14 -46 -25 -56 -25 -24 0 -49 27 -49 53 0 19 -3 19 -32 -10 -91
-88 -159 -23 -113 107 19 53 19 60 1 60 -8 0 -28 -22 -46 -50 -45 -70 -133
-148 -176 -156 -118 -22 -87 160 51 302 95 97 165 120 192 63 11 -22 10 -35
-2 -75 -18 -59 -18 -54 -2 -54 7 0 28 28 46 63 95 176 281 396 376 446 52 27
99 24 103 -6z m-1780 -165 c15 -15 16 -77 2 -114 l-11 -27 28 18 c16 10 53 40
83 65 30 26 65 53 77 59 50 26 113 2 113 -43 0 -27 -35 -85 -56 -93 -23 -8
-37 12 -30 42 4 15 17 30 33 36 21 8 24 12 13 19 -18 11 -36 1 -87 -52 -76
-78 -130 -217 -90 -231 35 -12 89 29 170 133 69 88 115 137 161 171 37 27 84
38 100 22 3 -4 29 -6 56 -4 l50 2 -77 -128 c-42 -70 -81 -136 -87 -145 -5 -9
-7 -21 -2 -25 4 -4 32 18 62 50 62 67 104 81 59 20 -42 -57 -106 -122 -143
-145 -38 -23 -77 -18 -87 11 -6 19 -7 19 -42 -5 -62 -42 -103 -28 -103 34 l0
34 -37 -32 c-76 -67 -137 -76 -178 -28 -30 35 -29 68 5 146 29 66 0 53 -48
-22 -55 -84 -142 -156 -191 -156 -11 0 -30 10 -41 23 -43 44 -4 163 87 266 80
92 174 136 211 99z m725 -30 c-15 -27 -27 -34 -61 -39 -47 -6 -51 1 -21 42 17
24 28 29 61 29 l40 0 -19 -32z m1035 -490 c30 -30 -4 -77 -41 -57 -29 17 -15
69 18 69 6 0 16 -5 23 -12z"/>
<path d="M3153 3016 c-109 -98 -138 -234 -31 -146 54 44 122 190 89 190 -5 0
-31 -20 -58 -44z"/>
<path d="M3210 2692 c-28 -22 -30 -70 -4 -89 10 -7 21 -13 25 -13 11 0 31 67
27 92 -4 29 -20 33 -48 10z"/>
<path d="M3643 2658 c-55 -57 -113 -151 -120 -194 -11 -70 36 -26 126 118 34
54 61 102 61 108 0 22 -28 8 -67 -32z"/>
<path d="M3119 2567 c-42 -69 -54 -104 -39 -122 11 -14 16 -14 38 1 29 19 65
59 83 91 10 19 8 25 -17 47 -16 14 -31 26 -34 26 -3 0 -17 -19 -31 -43z"/>
<path d="M1952 2877 c-28 -30 -28 -52 0 -71 32 -23 36 -21 49 23 20 67 -7 93
-49 48z"/>
<path d="M2481 2875 c-72 -62 -174 -226 -153 -247 17 -17 70 45 141 162 62
102 66 130 12 85z"/>
<path d="M1862 2757 c-58 -96 -52 -160 10 -116 24 17 88 99 88 112 0 3 -15 16
-33 30 l-34 25 -31 -51z"/>
</g>
</svg>
