<?xml version="1.0" standalone="no"?>
<!DOCTYPE svg PUBLIC "-//W3C//DTD SVG 20010904//EN"
 "http://www.w3.org/TR/2001/REC-SVG-20010904/DTD/svg10.dtd">
<svg version="1.0" xmlns="http://www.w3.org/2000/svg"
 width="1024.000000pt" height="1024.000000pt" viewBox="0 0 1024.000000 1024.000000"
 preserveAspectRatio="xMidYMid meet">
<metadata>
Created by potrace 1.16, written by Peter Selinger 2001-2019
</metadata>
<g transform="translate(0.000000,1024.000000) scale(0.100000,-0.100000)"
fill="#000000" stroke="none">
<path d="M2980 7926 c0 -8 13 -24 30 -36 41 -29 76 -93 94 -170 14 -57 16
-336 16 -2365 0 -2029 -2 -2308 -16 -2365 -18 -77 -54 -142 -94 -172 -65 -47
-59 -48 370 -48 253 0 400 4 400 10 0 5 -20 29 -44 53 -55 55 -83 129 -96 250
-5 51 -10 460 -10 925 0 801 1 832 18 832 37 0 333 30 443 45 317 43 615 109
831 184 65 23 122 41 127 41 16 0 213 -403 278 -570 180 -457 265 -864 250
-1185 -7 -139 -25 -222 -68 -312 -35 -73 -120 -169 -190 -215 -92 -59 -101
-58 466 -58 417 0 515 2 515 13 0 7 -16 29 -36 48 -49 46 -70 91 -88 185 -8
43 -31 165 -51 269 -140 734 -362 1318 -717 1883 -32 51 -58 96 -58 100 0 4
31 27 67 52 176 119 383 320 489 475 450 659 324 1517 -282 1925 -137 93 -291
152 -499 192 -107 21 -142 22 -1127 25 -894 4 -1018 2 -1018 -11z m1886 -286
c372 -33 595 -241 670 -625 23 -118 24 -381 1 -515 -84 -493 -364 -857 -842
-1090 -277 -136 -643 -225 -950 -232 l-110 -3 -3 1225 c-1 674 0 1231 3 1238
6 15 1058 17 1231 2z"/>
<path d="M4005 7359 c-4 -5 11 -27 33 -47 44 -41 67 -82 91 -157 13 -43 15
-174 18 -947 3 -722 6 -898 17 -898 39 0 284 78 409 130 l77 32 0 804 0 804
395 0 c217 0 395 2 395 3 0 2 -8 28 -19 58 -24 70 -55 132 -94 187 l-30 42
-643 0 c-443 0 -645 -3 -649 -11z"/>
<path d="M6116 7268 c35 -70 104 -264 104 -294 0 -8 27 -40 61 -71 167 -155
248 -382 248 -693 1 -420 -159 -799 -446 -1058 -92 -83 -233 -181 -335 -233
-43 -22 -78 -41 -78 -43 0 -4 161 -340 166 -345 3 -3 116 36 185 63 12 6 35
-31 106 -171 200 -391 331 -770 395 -1138 18 -107 22 -168 22 -340 0 -202 -1
-213 -27 -291 -44 -131 -125 -238 -229 -303 -84 -51 -81 -51 467 -51 552 0
544 -1 471 55 -55 42 -73 95 -117 331 -89 486 -177 808 -314 1154 -101 257
-265 579 -418 822 l-55 87 95 68 c389 276 626 627 699 1038 26 149 24 379 -4
512 -57 266 -174 478 -363 659 -162 154 -321 239 -554 295 -123 29 -121 31
-79 -53z"/>
<path d="M4490 4874 c-58 -12 -158 -31 -222 -41 l-118 -18 0 -1075 c0 -636 -5
-1106 -10 -1150 -15 -116 -36 -167 -91 -222 -27 -27 -49 -53 -49 -58 0 -6 152
-10 395 -10 261 0 395 3 395 10 0 6 -20 29 -44 53 -27 26 -52 64 -67 102 l-24
60 -3 901 -3 901 178 16 c179 17 454 54 462 63 5 4 -56 163 -97 252 -20 45
-28 53 -46 48 -44 -11 -213 -35 -283 -41 -40 -3 -104 -8 -143 -11 l-70 -5 0
125 0 126 -27 -1 c-16 -1 -75 -12 -133 -25z"/>
</g>
</svg>
