<?xml version="1.0" standalone="no"?>
<!DOCTYPE svg PUBLIC "-//W3C//DTD SVG 20010904//EN"
 "http://www.w3.org/TR/2001/REC-SVG-20010904/DTD/svg10.dtd">
<svg version="1.0" xmlns="http://www.w3.org/2000/svg"
 width="297.000000pt" height="297.000000pt" viewBox="0 0 297.000000 297.000000"
 preserveAspectRatio="xMidYMid meet">
<metadata>
Created by potrace 1.16, written by Peter Selinger 2001-2019
</metadata>
<g transform="translate(0.000000,297.000000) scale(0.100000,-0.100000)"
fill="#000000" stroke="none">
<path d="M1024 2030 c-11 -4 -34 -22 -52 -39 -50 -51 -54 -90 -50 -536 3 -444
4 -445 71 -496 l32 -24 449 -3 448 -3 43 25 c81 48 80 42 80 531 0 478 0 475
-68 526 l-32 24 -450 2 c-247 1 -459 -2 -471 -7z m456 -153 c78 -29 163 -115
184 -187 9 -29 13 -56 10 -61 -3 -5 -18 -9 -34 -9 -50 0 -141 -41 -188 -84
-56 -51 -92 -125 -92 -190 l0 -49 -60 7 c-56 7 -65 5 -116 -25 -30 -17 -57
-30 -59 -28 -2 2 1 25 7 51 l11 47 -50 45 c-68 61 -96 122 -97 206 0 224 247
366 484 277z m329 -308 c68 -30 104 -61 136 -120 53 -96 38 -197 -42 -281 -31
-32 -35 -41 -29 -72 l7 -35 -44 19 c-36 16 -50 18 -83 9 -21 -6 -68 -9 -104
-7 -220 16 -337 251 -203 408 88 102 236 134 362 79z"/>
<path d="M1184 1686 c-12 -31 0 -51 31 -51 27 0 30 3 30 30 0 25 -4 30 -28 33
-17 2 -29 -2 -33 -12z"/>
<path d="M1444 1686 c-12 -31 0 -51 31 -51 27 0 30 3 30 30 0 25 -4 30 -28 33
-17 2 -29 -2 -33 -12z"/>
<path d="M1524 1425 c-4 -9 0 -23 9 -32 21 -21 49 -9 45 19 -4 28 -45 38 -54
13z"/>
<path d="M1736 1424 c-9 -22 17 -49 39 -40 10 3 15 15 13 28 -4 29 -42 37 -52
12z"/>
</g>
</svg>
