<?xml version="1.0" standalone="no"?>
<!DOCTYPE svg PUBLIC "-//W3C//DTD SVG 20010904//EN"
 "http://www.w3.org/TR/2001/REC-SVG-20010904/DTD/svg10.dtd">
<svg version="1.0" xmlns="http://www.w3.org/2000/svg"
 width="800.000000pt" height="800.000000pt" viewBox="0 0 800.000000 800.000000"
 preserveAspectRatio="xMidYMid meet">
<metadata>
Created by potrace 1.16, written by Peter Selinger 2001-2019
</metadata>
<g transform="translate(0.000000,800.000000) scale(0.100000,-0.100000)"
fill="#000000" stroke="none">
<path d="M3750 7994 c-1229 -89 -2313 -697 -3021 -1696 -393 -553 -637 -1213
-710 -1918 -17 -158 -17 -609 0 -760 57 -524 190 -984 413 -1423 566 -1116
1621 -1906 2848 -2131 652 -119 1342 -73 1968 133 1088 358 1985 1181 2432
2231 150 351 244 705 297 1115 25 199 25 711 0 910 -119 922 -486 1691 -1117
2339 -647 664 -1472 1068 -2415 1182 -125 15 -575 26 -695 18z m106 -576 c-3
-18 -114 -708 -246 -1533 -132 -825 -242 -1505 -244 -1510 -3 -9 -2383 -1951
-2413 -1969 -35 -20 -219 439 -296 739 -79 305 -102 502 -102 855 0 279 8 381
46 600 241 1387 1329 2504 2711 2784 157 32 379 60 502 64 l48 2 -6 -32z m499
17 c336 -36 649 -114 947 -236 284 -117 626 -317 848 -495 731 -591 1189
-1423 1285 -2336 20 -194 20 -555 -1 -741 -29 -273 -94 -549 -189 -811 -49
-136 -159 -383 -179 -404 -9 -10 -52 21 -211 151 -224 182 -836 681 -1660
1351 -305 247 -553 457 -558 469 -4 12 -115 697 -247 1522 -132 825 -242 1510
-245 1523 -5 20 -2 22 32 22 21 0 101 -7 178 -15z m1111 -4727 c1375 -524
1451 -554 1441 -573 -21 -42 -174 -250 -251 -343 -180 -218 -478 -488 -705
-641 -509 -342 -1043 -534 -1646 -591 -161 -15 -484 -12 -651 5 -924 97 -1767
553 -2338 1266 -100 125 -226 302 -226 318 0 9 2877 1108 2905 1110 11 1 673
-247 1471 -551z"/>
</g>
</svg>
