<?xml version="1.0" standalone="no"?>
<!DOCTYPE svg PUBLIC "-//W3C//DTD SVG 20010904//EN"
 "http://www.w3.org/TR/2001/REC-SVG-20010904/DTD/svg10.dtd">
<svg version="1.0" xmlns="http://www.w3.org/2000/svg"
 width="1024.000000pt" height="1024.000000pt" viewBox="0 0 1024.000000 1024.000000"
 preserveAspectRatio="xMidYMid meet">
<metadata>
Created by potrace 1.16, written by Peter Selinger 2001-2019
</metadata>
<g transform="translate(0.000000,1024.000000) scale(0.100000,-0.100000)"
fill="#000000" stroke="none">
<path d="M4965 9213 c-712 -33 -1372 -228 -1954 -577 -1569 -940 -2332 -2768
-1897 -4542 73 -298 174 -568 321 -859 215 -427 467 -771 811 -1105 314 -306
633 -532 1024 -729 531 -266 1044 -401 1667 -436 l113 -7 11 26 c7 15 20 26
32 26 16 0 17 -2 7 -15 -14 -17 0 -42 18 -31 7 4 24 55 18 56 0 0 -59 3 -131
6 -633 25 -1175 162 -1705 430 -408 205 -712 424 -1038 747 -402 397 -703 849
-910 1362 -221 552 -314 1094 -290 1705 10 260 50 549 112 800 13 52 27 113
31 135 4 22 10 45 14 50 4 6 32 80 61 165 148 432 376 844 676 1220 138 173
441 475 614 614 646 516 1404 817 2225 886 66 5 150 10 187 10 65 0 68 1 83
30 20 39 19 40 -12 38 -16 -1 -55 -3 -88 -5z"/>
<path d="M5139 9212 c-28 -2 -38 -8 -43 -25 -3 -12 -1 -26 3 -30 14 -14 30 1
26 23 -3 14 2 20 16 20 11 0 19 -7 19 -17 0 -15 -2 -16 -10 -3 -8 13 -10 13
-10 -2 0 -23 16 -26 190 -32 519 -19 1081 -165 1585 -411 957 -468 1707 -1321
2052 -2332 41 -121 47 -133 69 -133 23 0 24 -2 24 -86 0 -54 9 -124 24 -192
105 -466 126 -984 61 -1469 -58 -429 -180 -821 -380 -1228 -401 -813 -1027
-1440 -1844 -1849 -458 -230 -1014 -381 -1506 -410 -271 -17 -266 -16 -259
-38 4 -14 2 -18 -5 -14 -6 4 -11 3 -11 -3 0 -21 54 -23 233 -11 574 38 1095
178 1594 428 409 206 736 443 1069 776 578 578 951 1263 1123 2066 60 275 85
534 84 860 0 295 -15 459 -64 730 -293 1619 -1531 2914 -3139 3284 -265 61
-735 112 -901 98z"/>
<path d="M4498 8905 c-122 -21 -229 -61 -308 -116 -39 -28 -74 -57 -76 -64 -3
-8 53 -122 125 -254 l131 -241 -34 -50 c-75 -108 -105 -260 -72 -364 16 -52
14 -66 -9 -66 -30 0 -324 -104 -410 -144 -129 -61 -179 -109 -154 -147 7 -11
9 -11 9 1 0 8 8 20 19 25 10 6 36 22 57 36 72 48 297 132 517 194 32 9 56 20
55 23 -46 84 -53 111 -53 187 0 71 4 88 37 158 151 318 619 366 893 92 145
-144 179 -305 106 -504 -45 -124 -111 -221 -241 -356 -155 -160 -207 -256
-251 -457 -43 -197 -45 -501 -6 -729 13 -72 12 -77 -6 -100 -11 -13 -36 -58
-56 -99 l-36 -75 0 -185 c1 -160 4 -196 23 -267 24 -89 39 -129 57 -153 7 -8
20 -35 29 -60 10 -25 26 -54 36 -65 10 -11 30 -38 44 -59 23 -35 26 -36 26
-15 1 23 1 23 13 4 6 -11 12 -23 12 -27 0 -5 3 -8 8 -8 11 0 7 11 -22 55 -19
30 -26 36 -29 23 -6 -32 -49 32 -54 82 -3 25 -17 73 -32 108 -63 147 -91 358
-67 510 12 78 56 177 93 212 27 25 88 27 155 4 26 -9 154 -68 283 -131 678
-331 1148 -553 1172 -553 6 0 9 -3 6 -6 -3 -3 -48 6 -99 20 -51 14 -94 25 -95
23 -2 -1 20 -27 47 -56 27 -30 48 -55 47 -56 -2 -1 -111 33 -243 75 -224 72
-301 103 -655 266 -102 47 -108 49 -200 49 -78 0 -101 -4 -130 -21 -74 -43
-101 -127 -74 -230 22 -86 47 -119 138 -178 113 -74 120 -77 136 -63 10 10 12
9 7 -5 -3 -9 1 -22 9 -28 12 -10 14 -7 14 18 0 21 -6 31 -20 35 -10 3 -18 2
-17 -2 1 -3 -2 -7 -8 -8 -5 -1 -9 6 -8 15 1 10 0 11 -3 5 -3 -7 -11 -13 -16
-13 -6 0 -8 3 -5 7 9 8 -32 53 -48 53 -7 0 -35 22 -63 49 -75 72 -102 180 -66
257 43 91 178 93 362 8 318 -149 418 -189 691 -274 l286 -90 55 -58 c74 -78
183 -202 178 -202 -3 0 -72 32 -154 71 -209 100 -357 159 -398 159 l-36 0 84
-80 c68 -66 178 -200 163 -200 -2 0 -84 21 -183 46 -194 49 -286 60 -291 34
-3 -10 25 -37 74 -72 43 -31 87 -66 98 -78 l20 -23 -20 6 c-11 3 -63 9 -115
12 l-95 7 -80 77 c-44 42 -114 105 -155 141 -71 60 -75 63 -78 40 -4 -26 -2
-28 191 -203 53 -49 95 -92 92 -97 -7 -12 10 -28 117 -103 244 -173 457 -367
576 -525 72 -96 142 -234 142 -280 0 -35 -15 -43 -25 -12 -14 44 -190 292
-276 389 -250 280 -524 445 -929 556 -120 33 -235 88 -327 158 -49 38 -74 52
-82 44 -7 -7 -16 -6 -28 3 -10 7 10 -14 44 -47 81 -78 200 -144 337 -187 61
-19 156 -48 211 -66 257 -80 516 -246 650 -417 36 -46 73 -91 81 -101 47 -52
134 -177 126 -180 -5 -1 -27 1 -48 6 -21 5 -63 7 -92 6 -29 -2 -51 0 -48 5 9
15 -19 20 -164 33 -170 14 -252 4 -287 -37 -65 -74 8 -284 198 -577 65 -99 73
-116 72 -157 -1 -51 -28 -114 -62 -145 -19 -18 -27 -18 -147 -6 -69 6 -196 12
-282 12 -177 1 -229 -10 -249 -53 -48 -100 -40 -452 22 -999 9 -74 18 -150 21
-167 l6 -33 77 0 c86 0 188 -13 276 -35 70 -18 194 -76 218 -103 17 -19 13
-19 -175 -19 -258 1 -435 -27 -653 -102 -182 -64 -404 -190 -528 -301 l-57
-52 0 39 c0 76 82 209 199 320 30 29 52 55 49 59 -17 17 -211 36 -382 37
l-188 1 28 23 c40 31 174 79 291 102 200 40 347 47 617 28 27 -2 31 2 39 38
12 53 -6 352 -43 730 -30 299 -39 361 -47 338 -2 -7 -11 -9 -20 -6 -14 5 -15
-1 -10 -43 34 -264 77 -775 77 -918 l0 -98 -36 6 c-56 11 -300 8 -415 -4 -129
-14 -218 -33 -334 -71 -123 -41 -191 -90 -209 -154 -6 -20 -1 -20 222 -20 125
0 248 -4 274 -8 l48 -8 -64 -75 c-118 -138 -164 -258 -131 -342 10 -23 19 -42
22 -42 3 0 36 28 73 63 198 183 509 332 815 388 97 19 158 23 320 23 110 1
231 -3 268 -7 l69 -8 -19 31 c-68 118 -252 208 -458 225 -176 15 -173 14 -179
43 -8 36 -43 386 -56 549 -14 181 -14 484 0 527 6 19 19 37 28 41 35 15 247
17 405 4 89 -7 175 -13 190 -12 61 1 137 115 137 206 0 57 -2 60 -92 196 -126
190 -222 415 -204 484 9 38 39 47 164 47 112 0 241 -16 430 -51 129 -24 121
-18 196 -167 37 -74 44 -80 64 -60 9 9 12 9 12 -4 0 -38 -22 -127 -42 -171
-20 -44 -20 -49 -6 -64 15 -14 19 -14 47 6 81 58 166 182 197 288 13 47 14 45
10 -67 -5 -130 -22 -203 -70 -300 -66 -134 -199 -271 -327 -336 -27 -13 -49
-29 -49 -34 0 -5 19 -22 43 -37 23 -15 44 -29 46 -30 3 -2 -15 -24 -39 -48
-37 -38 -43 -48 -33 -63 17 -27 80 -18 190 26 54 22 100 38 102 36 1 -1 -4
-13 -13 -26 -26 -36 -21 -77 11 -89 26 -10 60 -3 125 25 9 4 -15 -40 -54 -98
-80 -121 -83 -143 -17 -132 107 17 269 113 407 241 67 63 81 81 77 99 -5 17
-4 18 4 6 12 -17 12 -16 17 22 2 25 -4 21 -74 -46 -135 -129 -221 -193 -323
-240 -89 -42 -96 -36 -48 37 23 34 71 96 105 138 54 65 62 80 56 103 l-7 26
-70 -51 c-74 -54 -138 -88 -168 -89 -15 0 -16 3 -6 22 7 12 34 45 60 74 42 44
47 53 36 68 -11 16 -21 13 -117 -32 -119 -56 -220 -95 -220 -85 0 4 28 36 63
71 57 58 59 63 32 55 -39 -10 -84 -8 -96 4 -6 6 11 23 48 48 149 97 275 268
323 435 52 179 27 575 -36 575 -18 0 -19 -8 -16 -110 4 -125 -10 -191 -58
-283 -30 -59 -98 -144 -85 -107 4 11 9 58 12 105 4 68 1 101 -16 165 -68 248
-310 526 -709 815 l-104 75 49 3 c26 1 84 -4 128 -11 44 -8 81 -13 83 -12 12
10 -19 65 -59 105 -84 84 -48 82 279 -13 71 -21 82 -22 77 -8 -12 33 -72 125
-118 183 -27 33 -47 62 -44 64 4 5 213 -90 386 -175 112 -55 123 -58 140 -38
8 10 -26 54 -150 193 -89 98 -169 182 -178 185 -17 7 -65 59 -59 64 7 7 328
-105 427 -149 378 -168 646 -410 773 -696 149 -339 99 -771 -137 -1178 l-37
-64 28 4 c23 3 35 17 80 103 72 134 119 254 155 394 40 152 51 376 25 514 -18
94 -64 233 -102 308 -140 278 -441 525 -832 684 -71 29 -97 45 -107 66 -11 19
-30 32 -67 45 -133 43 -479 203 -1135 522 -440 215 -520 248 -579 239 -41 -7
-38 -13 -60 173 -32 278 -6 572 66 759 41 104 89 172 196 277 101 98 192 228
236 336 32 80 62 228 55 273 l-5 32 65 13 c124 24 334 79 347 89 11 9 10 26
-5 91 -42 178 -107 288 -306 509 -122 136 -342 239 -585 275 -125 19 -322 19
-430 1z m412 -46 c181 -25 374 -100 495 -191 112 -85 112 -65 0 -240 -54 -84
-109 -168 -123 -185 l-24 -33 -47 41 c-49 43 -176 109 -251 130 -25 7 -98 13
-162 13 -65 1 -118 4 -118 8 0 32 31 455 34 464 5 12 77 10 196 -7z m-254 -46
c-3 -32 -8 -132 -12 -222 -3 -90 -9 -174 -13 -188 -5 -18 -23 -31 -72 -52 -36
-15 -86 -41 -110 -58 l-45 -31 -121 222 -121 221 20 22 c23 24 116 76 180 99
66 24 166 42 236 43 l64 1 -6 -57z m954 -370 c36 -45 82 -114 102 -155 42 -82
77 -213 62 -227 -8 -8 -340 -91 -363 -91 -4 0 -16 21 -26 48 -9 26 -33 71 -52
99 -19 29 -33 59 -30 66 14 37 223 347 232 344 5 -2 39 -40 75 -84z m-366
-3219 c4 -11 2 -12 -14 -1 -11 6 -20 15 -20 19 0 12 28 -3 34 -18z m41 -14 c3
-5 -1 -10 -9 -10 -9 0 -16 5 -16 10 0 6 4 10 9 10 6 0 13 -4 16 -10z"/>
<path d="M5005 8028 c0 -219 -36 -297 -175 -382 -102 -62 -126 -96 -111 -154
6 -21 22 -49 36 -62 22 -20 31 -22 88 -18 115 10 204 68 278 181 107 165 110
355 7 472 -33 37 -106 95 -120 95 -2 0 -3 -60 -3 -132z m140 -84 c33 -105 3
-241 -76 -346 -72 -96 -146 -139 -244 -142 -34 -1 -41 3 -53 27 -24 49 -9 72
76 121 91 53 122 83 155 151 29 59 43 119 53 235 l7 84 32 -37 c18 -20 40 -62
50 -93z"/>
<path d="M4540 7860 c-12 -12 -20 -33 -20 -55 0 -22 8 -43 20 -55 12 -12 33
-20 55 -20 45 0 75 29 75 73 0 66 -84 103 -130 57z"/>
<path d="M4290 7514 c-86 -17 -315 -44 -382 -44 -49 -1 -164 -22 -175 -34 -11
-11 116 -18 206 -12 101 8 303 33 335 42 13 5 7 -9 -23 -48 -112 -148 -115
-265 -10 -336 19 -13 36 -28 37 -33 2 -6 -30 -45 -71 -87 -232 -237 -458 -598
-546 -872 -60 -186 -66 -229 -66 -440 1 -172 3 -205 24 -280 56 -207 161 -397
315 -567 50 -55 69 -64 84 -38 6 13 21 2 73 -52 216 -226 394 -356 591 -432
60 -23 82 -41 224 -181 l158 -155 13 -140 c13 -129 15 -477 3 -488 -3 -3 -50
0 -105 6 -55 6 -293 11 -530 11 l-430 1 -133 -32 c-78 -19 -157 -45 -192 -64
-161 -85 -240 -248 -240 -490 0 -94 18 -279 29 -291 3 -3 40 72 81 169 l75
175 8 -53 c15 -111 62 -210 113 -244 l24 -15 0 104 c0 107 18 217 47 295 l17
45 18 -95 c21 -108 59 -195 90 -205 31 -9 51 19 88 126 67 191 120 269 217
316 51 26 59 27 156 21 56 -4 146 -11 199 -17 53 -5 174 -10 270 -11 113 -1
176 -6 181 -13 5 -8 10 -6 17 4 7 11 10 8 10 -17 0 -17 5 -35 12 -39 8 -5 9 2
5 26 -4 18 -7 42 -7 54 0 21 -4 22 -132 24 -152 3 -394 18 -517 33 -99 12
-160 5 -222 -27 -96 -48 -160 -141 -229 -332 l-38 -107 -21 45 c-19 42 -40
152 -58 300 l-8 65 -37 -65 c-47 -82 -84 -200 -101 -315 l-14 -90 -17 55 c-9
30 -20 96 -23 147 -5 78 -9 92 -25 96 -22 6 -24 1 -99 -173 l-53 -124 -9 39
c-10 46 -1 208 15 274 29 123 102 222 199 272 52 26 71 32 219 66 114 27 119
27 480 27 327 0 631 -13 674 -30 12 -5 21 4 33 32 15 33 18 69 17 219 0 99 -6
242 -13 318 l-13 138 -52 47 c-28 25 -101 97 -162 160 -105 109 -115 117 -186
142 -168 59 -340 181 -547 388 -142 142 -148 146 -165 107 -13 -29 -177 197
-246 340 -144 298 -157 589 -39 942 87 264 300 597 536 844 46 47 83 93 83
101 0 10 23 24 62 38 89 32 122 57 157 118 59 102 33 161 -112 262 -35 25 -46
38 -41 52 6 22 -10 22 -106 2z m146 -110 c51 -38 81 -68 91 -91 13 -33 13 -39
-9 -80 -13 -24 -33 -53 -44 -64 -22 -20 -145 -68 -176 -69 -9 0 -33 15 -52 34
-31 28 -36 40 -36 77 0 25 10 65 24 94 25 54 102 155 117 155 5 0 43 -25 85
-56z"/>
<path d="M4648 7193 c-94 -102 -273 -368 -377 -558 -170 -312 -254 -596 -255
-860 0 -183 22 -285 92 -438 39 -85 46 -85 56 3 4 30 9 67 12 82 l5 27 49 -27
c63 -35 75 -26 61 49 -5 30 -12 66 -16 81 l-7 27 54 -15 c82 -22 83 -21 44 53
-20 37 -34 68 -32 70 2 2 39 -1 82 -6 43 -5 80 -8 82 -6 2 2 -8 39 -22 82 -14
43 -26 81 -26 85 0 4 38 4 83 1 l84 -6 -43 89 c-68 141 -88 234 -88 394 0 177
14 240 132 593 81 242 94 290 82 297 -21 14 -24 13 -52 -17z m-93 -328 c-91
-271 -105 -334 -112 -506 -6 -159 9 -253 61 -386 l33 -83 -64 0 c-77 0 -82 -8
-59 -91 9 -32 16 -62 16 -67 0 -5 -24 -5 -52 -1 -29 4 -70 8 -91 8 l-39 1 31
-57 c17 -31 31 -60 31 -64 0 -4 -23 -1 -52 7 -29 7 -54 11 -56 9 -2 -2 3 -23
12 -47 22 -63 35 -118 27 -118 -3 0 -24 14 -45 32 -43 35 -51 30 -62 -32 -3
-19 -6 -42 -8 -50 -4 -24 -45 115 -57 194 -7 42 -9 128 -6 211 4 115 12 165
40 275 72 283 235 607 454 903 36 48 67 86 69 85 1 -2 -31 -102 -71 -223z"/>
<path d="M9020 6260 c0 -3 7 -25 15 -50 l14 -45 -1 50 c-1 27 -3 44 -6 36 -4
-11 -6 -11 -13 0 -5 8 -9 12 -9 9z"/>
<path d="M4890 5164 c0 -6 7 -19 16 -30 14 -18 14 -18 3 6 -14 31 -19 36 -19
24z"/>
<path d="M5425 5125 c22 -18 25 -23 10 -19 -13 4 -9 -2 10 -15 38 -26 47 -26
43 1 -2 14 -17 27 -48 40 l-45 19 30 -26z"/>
<path d="M5500 5091 c0 -6 6 -11 13 -11 9 0 9 -2 -1 -9 -11 -7 -10 -9 3 -15
13 -4 16 -1 13 16 -3 22 -28 39 -28 19z"/>
<path d="M4926 4883 c-37 -126 -47 -318 -21 -417 27 -102 22 -99 117 -64 115
42 225 49 293 19 38 -17 50 -19 57 -9 13 21 11 24 -69 91 -104 87 -225 213
-302 315 -34 45 -64 82 -66 82 -2 0 -6 -8 -9 -17z m137 -211 c39 -46 95 -105
125 -130 l54 -47 -78 -12 c-44 -7 -106 -21 -138 -33 -33 -11 -61 -18 -64 -15
-10 10 -32 123 -32 167 0 26 5 82 11 124 l12 78 19 -25 c11 -13 52 -62 91
-107z"/>
<path d="M7438 3170 c-19 -25 -25 -80 -9 -80 13 0 33 55 29 82 l-3 23 -17 -25z"/>
<path d="M7389 3094 c-11 -15 -12 -16 0 -10 9 6 12 5 10 -3 -3 -7 -7 -11 -11
-9 -13 6 -58 -46 -58 -69 0 -13 4 -23 8 -23 17 0 32 25 32 55 0 16 4 25 8 19
10 -16 43 29 33 45 -6 9 -11 7 -22 -5z"/>
<path d="M5071 3024 c0 -11 3 -14 6 -6 3 7 2 16 -1 19 -3 4 -6 -2 -5 -13z"/>
<path d="M7060 2995 c11 -14 7 -19 -12 -16 -5 0 -8 -6 -8 -16 0 -14 2 -14 20
2 15 14 17 21 9 32 -6 7 -14 13 -16 13 -3 0 0 -7 7 -15z"/>
<path d="M5075 989 c-4 -6 -5 -12 -2 -15 2 -3 7 2 10 11 7 17 1 20 -8 4z"/>
</g>
</svg>
