<?xml version="1.0" standalone="no"?>
<!DOCTYPE svg PUBLIC "-//W3C//DTD SVG 20010904//EN"
 "http://www.w3.org/TR/2001/REC-SVG-20010904/DTD/svg10.dtd">
<svg version="1.0" xmlns="http://www.w3.org/2000/svg"
 width="1024.000000pt" height="1024.000000pt" viewBox="0 0 1024.000000 1024.000000"
 preserveAspectRatio="xMidYMid meet">
<metadata>
Created by potrace 1.16, written by Peter Selinger 2001-2019
</metadata>
<g transform="translate(0.000000,1024.000000) scale(0.100000,-0.100000)"
fill="#000000" stroke="none">
<path d="M970 6670 l0 -170 -210 0 -210 0 0 -215 0 -215 -140 0 -140 0 0 -135
0 -135 65 0 c36 0 65 -1 65 -2 0 -2 -16 -48 -36 -103 -77 -216 -86 -275 -91
-617 -4 -276 -3 -308 11 -308 9 0 18 -12 21 -27 4 -16 22 -77 41 -138 58 -186
164 -387 278 -529 l56 -70 0 -133 0 -133 145 0 145 0 67 -46 c94 -64 309 -166
424 -203 203 -64 282 -75 534 -75 182 -1 249 3 320 17 217 43 458 139 630 251
47 31 89 56 94 56 4 0 39 -20 77 -45 220 -145 499 -247 754 -276 148 -17 426
-6 555 21 210 44 427 133 599 244 49 31 94 55 100 53 7 -3 48 -28 92 -57 166
-109 377 -194 599 -241 98 -21 135 -24 345 -24 205 1 248 4 340 24 216 46 448
141 610 250 41 28 79 51 83 51 5 0 43 -23 85 -51 167 -110 397 -205 607 -249
128 -27 416 -38 562 -21 623 73 1172 493 1402 1073 27 68 57 156 68 197 13 54
23 75 36 79 18 5 19 19 15 291 -4 245 -8 301 -27 389 -23 111 -61 236 -91 308
l-19 44 69 0 70 0 0 115 0 115 -130 0 c-123 0 -130 1 -130 20 0 11 -6 20 -13
20 -7 0 -41 39 -77 86 -129 171 -325 340 -523 454 l-97 55 0 48 0 47 -121 0
c-96 0 -141 5 -219 25 -160 41 -323 54 -625 52 l-270 -2 -3 -31 c-3 -29 -8
-33 -85 -58 -113 -38 -291 -124 -394 -192 -69 -44 -90 -54 -103 -45 -8 6 -38
25 -67 43 l-52 33 -1 93 0 92 -135 0 -135 0 0 -25 0 -24 -42 15 c-204 72 -425
104 -716 104 -191 0 -204 -1 -209 -19 -3 -14 -20 -22 -65 -31 -154 -30 -408
-139 -558 -238 l-75 -50 -5 151 -5 152 -130 0 -130 0 -3 -72 -3 -72 -79 34
c-160 68 -305 107 -492 130 -139 17 -384 20 -393 5 -3 -5 -21 -10 -38 -10
-109 -1 -389 -87 -554 -171 l-113 -57 0 119 0 119 -135 0 -135 0 0 -120 c0
-66 -2 -120 -4 -120 -2 0 -42 20 -88 45 -46 24 -117 58 -158 75 -98 41 -306
98 -386 106 -36 4 -67 11 -70 15 -9 14 -270 10 -402 -6 -181 -23 -358 -69
-497 -130 -30 -14 -58 -25 -60 -25 -2 0 -5 37 -7 83 l-3 82 -132 3 -133 3 0
-171z m5411 -215 c108 -16 266 -63 352 -106 l57 -29 0 -125 0 -125 -150 0
-151 0 3 -132 3 -133 69 -3 c59 -3 67 -5 63 -20 -3 -9 -17 -48 -32 -86 -75
-199 -105 -403 -105 -709 0 -198 1 -209 19 -214 14 -3 23 -20 32 -56 50 -214
172 -461 315 -639 l54 -67 -57 -3 -58 -3 -3 -41 c-3 -41 -4 -42 -74 -73 -166
-75 -315 -110 -500 -118 l-128 -6 0 76 0 77 -135 0 -135 0 0 -55 c0 -30 -1
-55 -3 -55 -2 0 -43 13 -92 30 -85 29 -270 115 -309 145 -20 15 -20 15 2 43
131 165 223 318 282 469 224 573 131 1207 -246 1673 -30 37 -54 70 -54 72 0
26 356 188 412 188 4 0 8 -81 8 -180 l0 -180 135 0 135 0 0 199 c0 181 2 200
18 205 24 6 159 -3 273 -19z m1965 14 c112 -10 286 -47 348 -73 l35 -15 3
-153 3 -153 132 -3 132 -3 3 87 3 86 60 -45 c33 -25 81 -64 108 -87 l47 -42 0
-134 0 -134 103 0 104 0 50 -107 c86 -182 120 -320 130 -520 l6 -133 -296 0
-297 0 0 -135 0 -135 271 0 271 0 -7 -27 c-3 -16 -18 -57 -32 -93 -90 -231
-249 -444 -439 -588 l-70 -54 -139 -1 -140 -2 -1 -70 c-1 -83 1 -81 -145 -119
-157 -42 -339 -56 -498 -40 l-61 7 0 39 0 39 -144 -2 c-138 -1 -147 0 -208 27
-85 38 -198 104 -198 115 0 5 21 35 47 67 141 173 294 483 329 667 4 21 13 35
25 38 18 5 19 22 19 506 l0 501 -65 0 -65 0 -44 88 c-47 93 -138 234 -207 320
l-43 54 24 18 c14 10 72 42 129 70 l105 52 148 -1 148 -2 0 40 0 40 53 5 c28
3 66 8 82 9 58 7 72 7 181 -4z m-6406 -199 l0 -200 135 0 135 0 0 195 0 195
33 -6 c73 -13 227 -59 298 -90 75 -33 196 -97 212 -114 5 -4 -22 -47 -59 -94
l-67 -86 -144 0 -144 0 3 -132 3 -133 68 -3 c60 -3 68 -5 61 -20 -32 -73 -87
-260 -105 -353 -17 -91 -22 -168 -26 -382 -6 -264 -5 -268 15 -274 15 -3 24
-19 33 -56 50 -214 150 -423 296 -619 87 -117 94 -100 -72 -181 -110 -54 -185
-82 -301 -112 -108 -27 -103 -31 -106 93 l-3 107 -132 3 -133 3 0 -122 0 -121
-67 7 c-211 21 -442 99 -605 204 l-48 31 0 110 0 110 -127 0 -128 1 -50 64
c-76 98 -148 224 -194 339 -22 57 -41 111 -41 120 0 14 18 16 145 16 l145 0 0
135 0 135 -171 0 -172 0 6 143 c7 200 48 359 138 540 l39 77 80 0 80 0 0 110
0 110 25 0 c20 0 25 5 25 25 l0 25 110 0 110 0 0 89 0 89 46 27 c193 113 426
187 612 194 l42 1 0 -200z m2365 185 c191 -31 370 -101 524 -204 11 -7 5 -20
-31 -63 -24 -29 -55 -68 -67 -85 l-22 -33 -150 0 -150 0 3 -132 3 -133 71 -3
71 -3 -28 -70 c-36 -89 -74 -228 -93 -344 -16 -101 -21 -226 -18 -457 2 -131
5 -158 17 -158 8 0 18 -17 25 -42 60 -242 171 -467 327 -662 44 -53 53 -70 42
-77 -8 -5 -62 -34 -120 -64 -161 -82 -323 -131 -496 -149 l-63 -7 0 121 0 120
-135 0 -134 0 -3 -113 -3 -114 -68 14 c-141 29 -392 129 -471 188 -18 14 -18
15 0 38 138 177 216 308 278 463 150 373 163 795 36 1176 -58 176 -179 396
-293 532 -39 46 -40 49 -22 62 38 28 212 112 284 138 59 21 233 66 256 66 3 0
5 -88 5 -195 l0 -195 135 0 135 0 0 200 0 200 33 0 c17 0 73 -7 122 -15z
m3007 -605 c307 -464 288 -1069 -49 -1525 l-66 -89 -24 30 c-54 66 -144 209
-182 288 -32 67 -81 196 -81 213 0 1 34 3 75 3 l75 0 0 135 0 135 -102 0 -101
0 6 123 c15 298 99 532 275 766 l55 75 35 -40 c18 -21 56 -73 84 -114z m-2090
16 c115 -172 185 -349 214 -538 23 -150 14 -378 -20 -517 -46 -183 -137 -371
-251 -514 l-46 -58 -34 41 c-88 106 -204 317 -239 438 l-15 52 145 0 144 0 0
135 0 135 -172 0 -171 0 6 118 c11 204 57 388 140 552 l43 85 74 5 75 5 3 94
3 93 20 -18 c12 -11 48 -59 81 -108z m-1988 -154 c43 -85 91 -222 118 -332 9
-37 13 -124 13 -270 -1 -200 -3 -222 -27 -311 -47 -174 -125 -332 -238 -484
l-55 -73 -23 21 c-34 32 -135 183 -175 262 -19 39 -49 109 -65 157 l-31 88
212 2 212 3 3 133 3 132 -234 0 -234 0 -6 35 c-8 47 8 232 27 320 22 103 63
219 112 317 l44 87 142 3 c79 2 147 2 151 0 4 -2 27 -43 51 -90z"/>
</g>
</svg>
