<?xml version="1.0" standalone="no"?>
<!DOCTYPE svg PUBLIC "-//W3C//DTD SVG 20010904//EN"
 "http://www.w3.org/TR/2001/REC-SVG-20010904/DTD/svg10.dtd">
<svg version="1.0" xmlns="http://www.w3.org/2000/svg"
 width="1024.000000pt" height="1024.000000pt" viewBox="0 0 1024.000000 1024.000000"
 preserveAspectRatio="xMidYMid meet">
<metadata>
Created by potrace 1.16, written by Peter Selinger 2001-2019
</metadata>
<g transform="translate(0.000000,1024.000000) scale(0.100000,-0.100000)"
fill="#000000" stroke="none">
<path d="M1120 5565 l0 -405 400 0 400 0 0 405 0 405 -400 0 -400 0 0 -405z"/>
<path d="M2010 5565 l0 -405 405 0 405 0 0 405 0 405 -405 0 -405 0 0 -405z"/>
<path d="M8522 5681 c-112 -39 -159 -112 -169 -261 l-6 -90 -58 0 -59 0 0 -65
0 -65 60 0 60 0 0 -295 0 -295 85 0 85 0 0 295 0 295 134 0 135 0 3 -237 c3
-223 4 -241 25 -279 31 -58 80 -86 161 -92 37 -2 86 1 110 7 l42 12 0 65 c0
64 -1 65 -22 57 -47 -17 -99 -8 -124 20 -29 34 -36 92 -32 287 l3 155 88 3 87
3 0 64 0 64 -87 3 -88 3 -5 107 -5 106 -77 -24 -78 -25 0 -84 0 -85 -135 0
-135 0 0 65 c0 72 16 120 48 149 17 15 33 18 82 14 l60 -4 0 67 0 67 -31 6
c-52 10 -101 6 -157 -13z"/>
<path d="M4660 5632 c-42 -21 -62 -57 -55 -96 11 -59 67 -92 128 -75 44 12 67
42 67 87 0 46 -16 71 -55 88 -43 18 -43 18 -85 -4z"/>
<path d="M3340 5115 l0 -505 80 0 80 0 0 390 c0 215 3 390 8 390 4 0 77 -175
163 -388 l156 -387 63 0 64 0 152 385 c84 211 158 386 163 388 8 3 11 -118 11
-387 l0 -391 80 0 80 0 0 505 0 505 -118 0 -117 0 -152 -372 c-83 -205 -155
-373 -160 -375 -4 -1 -74 165 -154 370 l-147 372 -126 3 -126 3 0 -506z"/>
<path d="M5180 5335 c-71 -20 -152 -74 -190 -126 -53 -74 -73 -142 -74 -254
-1 -92 1 -105 30 -166 61 -128 157 -190 306 -197 69 -4 101 0 157 17 l71 22 0
74 0 74 -52 -24 c-138 -64 -260 -28 -324 95 -13 25 -18 57 -18 115 -1 70 3 87
29 134 64 116 194 148 326 81 l39 -20 0 78 0 79 -37 12 c-62 20 -200 23 -263
6z"/>
<path d="M6325 5336 c-110 -27 -184 -89 -232 -191 -26 -55 -28 -69 -28 -180 0
-111 2 -125 28 -181 56 -121 158 -185 309 -192 69 -4 101 0 159 18 63 19 81
30 135 84 54 54 65 72 84 135 31 102 26 251 -11 331 -29 61 -86 123 -139 150
-77 39 -208 50 -305 26z m160 -127 c98 -27 145 -103 145 -235 0 -100 -20 -163
-66 -203 -91 -81 -244 -55 -304 50 -32 58 -40 184 -16 257 19 57 78 118 123
128 16 3 33 7 38 9 19 6 40 5 80 -6z"/>
<path d="M7077 5340 c-53 -14 -87 -33 -124 -72 -41 -42 -53 -76 -53 -144 0
-107 37 -150 186 -219 125 -58 154 -106 98 -162 -24 -24 -30 -25 -102 -21 -57
4 -91 12 -129 31 l-51 27 -4 -76 c-3 -73 -2 -77 22 -86 93 -35 243 -36 320 -1
55 25 106 75 121 121 6 19 9 62 7 97 -6 93 -32 121 -172 190 -93 46 -116 62
-126 86 -16 37 -3 70 35 95 34 22 135 15 193 -15 l42 -21 0 74 0 74 -32 12
c-44 16 -184 22 -231 10z"/>
<path d="M7720 5335 c-113 -32 -191 -101 -232 -204 -18 -46 -22 -76 -22 -166
0 -90 4 -120 22 -166 32 -79 81 -132 160 -171 64 -32 72 -33 182 -33 103 0
121 3 171 26 150 70 228 237 200 425 -20 134 -73 214 -176 265 -56 27 -78 32
-158 35 -62 3 -110 -1 -147 -11z m210 -140 c71 -37 103 -108 104 -226 0 -73
-4 -93 -27 -140 -33 -65 -60 -87 -130 -101 -93 -19 -174 19 -220 106 -32 59
-31 212 0 272 26 49 74 92 111 100 15 3 32 7 37 9 17 7 99 -6 125 -20z"/>
<path d="M5885 5321 c-37 -22 -85 -77 -85 -97 0 -8 -4 -14 -10 -14 -6 0 -10
27 -10 60 l0 60 -80 0 -80 0 0 -360 0 -360 79 0 79 0 4 223 c3 209 4 225 26
269 40 81 110 112 190 85 l42 -15 0 84 0 84 -62 0 c-44 0 -72 -6 -93 -19z"/>
<path d="M4620 4970 l0 -360 80 0 80 0 0 360 0 360 -80 0 -80 0 0 -360z"/>
</g>
</svg>
