<?xml version="1.0" standalone="no"?>
<!DOCTYPE svg PUBLIC "-//W3C//DTD SVG 20010904//EN"
 "http://www.w3.org/TR/2001/REC-SVG-20010904/DTD/svg10.dtd">
<svg version="1.0" xmlns="http://www.w3.org/2000/svg"
 width="1024.000000pt" height="1024.000000pt" viewBox="0 0 1024.000000 1024.000000"
 preserveAspectRatio="xMidYMid meet">
<metadata>
Created by potrace 1.16, written by Peter Selinger 2001-2019
</metadata>
<g transform="translate(0.000000,1024.000000) scale(0.100000,-0.100000)"
fill="#000000" stroke="none">
<path d="M0 5120 l0 -5120 5120 0 5120 0 0 5120 0 5120 -5120 0 -5120 0 0
-5120z m9630 0 l0 -2990 -4510 0 -4510 0 0 2990 0 2990 4510 0 4510 0 0 -2990z"/>
<path d="M835 7808 c-8 -21 -1 -1128 8 -1128 4 0 1929 0 4277 0 l4270 0 0 570
0 570 -4275 0 c-3411 0 -4277 -3 -4280 -12z"/>
<path d="M5687 6104 c-286 -52 -464 -195 -544 -439 -35 -108 -37 -242 -4 -328
47 -121 170 -245 364 -369 207 -132 248 -161 275 -196 58 -76 20 -180 -87
-234 -49 -25 -65 -28 -153 -28 -171 0 -298 37 -461 134 -43 25 -82 46 -85 46
-9 0 -242 -355 -242 -369 0 -15 177 -102 283 -140 173 -61 269 -75 497 -75
236 1 303 13 448 85 257 126 423 438 354 666 -52 171 -174 291 -515 507 -71
45 -144 111 -163 147 -32 64 -1 142 73 186 45 26 55 28 163 28 112 0 117 -1
194 -38 44 -21 108 -58 144 -84 37 -26 67 -41 71 -36 3 6 65 79 136 162 72 84
131 155 132 159 7 20 -210 135 -332 176 -165 55 -378 71 -548 40z"/>
<path d="M1986 6064 c-11 -28 -7 -31 52 -37 118 -12 201 -56 260 -139 64 -91
67 -109 158 -917 46 -416 87 -771 90 -788 l5 -33 267 0 267 0 440 777 c242
427 488 861 547 965 l107 188 -272 -2 -272 -3 -267 -465 c-281 -488 -388 -687
-409 -757 -7 -24 -15 -43 -19 -43 -4 0 -8 57 -9 128 -1 70 -6 199 -11 287 -23
385 -52 812 -56 833 l-4 22 -434 0 c-386 0 -435 -2 -440 -16z"/>
<path d="M4457 6073 c-8 -14 -577 -1898 -577 -1911 0 -9 58 -12 254 -12 l254
0 16 48 c34 105 566 1865 566 1873 0 11 -507 12 -513 2z"/>
<path d="M6855 5124 c-281 -525 -511 -959 -513 -965 -2 -5 105 -9 275 -9 l280
0 68 145 68 145 327 0 327 0 6 -97 c4 -54 7 -119 7 -145 l0 -48 266 0 267 0
-6 48 c-4 26 -43 454 -87 952 -45 498 -83 911 -85 918 -3 9 -82 12 -347 12
l-343 0 -510 -956z m804 -139 c6 -88 11 -168 11 -177 0 -17 -18 -18 -230 -18
-126 0 -230 3 -230 6 0 3 47 108 104 232 85 186 257 570 308 689 10 23 13 -26
19 -272 4 -165 12 -372 18 -460z"/>
<path d="M8344 5991 c-90 -55 -54 -204 53 -218 82 -11 140 50 130 136 -10 88
-104 130 -183 82z m140 -32 c25 -28 28 -37 23 -78 -6 -58 -41 -91 -96 -91 -98
0 -132 138 -47 191 41 26 83 18 120 -22z"/>
<path d="M8370 5889 c0 -44 4 -68 10 -64 6 3 10 17 10 31 0 32 14 30 40 -7 26
-36 40 -31 16 6 -15 22 -15 26 -1 31 25 10 19 61 -7 68 -63 16 -68 12 -68 -65z
m75 31 c0 -9 -11 -16 -27 -18 -23 -3 -28 1 -28 18 0 17 5 21 28 18 16 -2 27
-9 27 -18z"/>
<path d="M9154 2661 c-85 -52 -64 -193 33 -220 77 -21 153 35 153 112 0 103
-99 161 -186 108z m129 -26 c30 -30 38 -66 25 -111 -11 -42 -42 -64 -91 -64
-57 0 -87 34 -87 99 0 43 4 53 31 75 40 34 88 35 122 1z"/>
<path d="M9176 2623 c-3 -3 -6 -35 -6 -70 0 -49 3 -63 15 -63 10 0 15 10 15
30 0 17 4 30 8 30 4 0 16 -13 25 -30 10 -16 22 -30 28 -30 13 0 11 7 -7 35
-10 15 -12 25 -6 25 6 0 16 10 23 21 8 17 8 24 -3 35 -15 16 -81 28 -92 17z
m72 -35 c3 -13 -3 -18 -22 -18 -20 0 -26 5 -26 21 0 15 5 20 22 17 13 -2 24
-11 26 -20z"/>
</g>
</svg>
