<?xml version="1.0" standalone="no"?>
<!DOCTYPE svg PUBLIC "-//W3C//DTD SVG 20010904//EN"
 "http://www.w3.org/TR/2001/REC-SVG-20010904/DTD/svg10.dtd">
<svg version="1.0" xmlns="http://www.w3.org/2000/svg"
 width="225.000000pt" height="225.000000pt" viewBox="0 0 225.000000 225.000000"
 preserveAspectRatio="xMidYMid meet">
<metadata>
Created by potrace 1.16, written by Peter Selinger 2001-2019
</metadata>
<g transform="translate(0.000000,225.000000) scale(0.100000,-0.100000)"
fill="#000000" stroke="none">
<path d="M965 1745 l-60 -22 -62 -144 c-34 -79 -77 -183 -95 -230 l-33 -87
-117 -24 c-65 -13 -118 -23 -118 -21 0 2 36 94 81 206 118 296 121 304 103
322 -18 18 -46 7 -68 -28 -16 -25 -206 -499 -206 -515 0 -5 -21 -15 -47 -21
-114 -28 -195 -55 -200 -68 -6 -15 24 -53 41 -53 6 0 28 -18 49 -40 20 -22 44
-40 53 -40 9 0 14 -6 11 -12 -54 -143 -137 -383 -137 -397 0 -28 25 -45 48
-32 21 11 31 34 122 283 41 111 67 169 78 172 50 14 214 47 217 44 2 -1 -17
-61 -42 -133 -60 -173 -93 -284 -93 -310 0 -12 21 -42 50 -70 62 -61 74 -57
107 41 12 38 60 171 105 296 77 216 83 227 110 233 16 4 43 22 61 40 93 96
107 113 107 128 0 24 -18 31 -72 28 l-48 -2 21 53 c164 412 168 429 122 427
-16 -1 -55 -11 -88 -24z"/>
<path d="M1981 1744 c-72 -27 -79 -34 -120 -119 -115 -236 -167 -353 -301
-670 l-21 -50 6 105 c4 58 15 170 26 250 45 329 50 374 47 433 -3 61 -3 62
-32 60 -29 -2 -131 -40 -155 -57 -17 -13 -19 -18 -113 -296 -84 -251 -217
-687 -239 -783 -11 -50 -10 -60 3 -73 30 -30 55 -2 84 94 64 214 166 546 198
642 30 92 34 100 35 65 0 -22 -6 -97 -14 -167 -20 -177 -29 -366 -21 -421 5
-35 19 -60 54 -102 25 -30 54 -55 63 -55 12 0 25 22 44 73 85 226 314 761 323
752 2 -2 -17 -106 -42 -232 -48 -242 -106 -566 -106 -595 0 -23 97 -113 122
-113 19 0 27 32 113 460 51 253 109 536 129 628 21 93 35 175 32 183 -8 20
-42 17 -115 -12z"/>
<path d="M934 1030 c-36 -14 -47 -37 -41 -87 4 -42 2 -50 -34 -96 -32 -40 -39
-57 -39 -92 0 -35 5 -48 26 -64 32 -25 55 -26 94 -6 25 13 29 13 34 0 7 -19
35 -20 42 -2 3 8 1 25 -4 38 -8 19 -5 30 9 48 26 31 25 71 0 71 -11 0 -23 -5
-26 -10 -9 -14 -21 -5 -28 19 -3 13 6 34 24 58 30 40 38 93 17 110 -20 15 -52
21 -74 13z m23 -77 c-16 -16 -17 -16 -17 3 0 11 3 24 7 28 4 3 11 2 17 -4 7
-7 5 -16 -7 -27z m-33 -183 c-23 -23 -37 1 -17 30 16 22 17 22 24 4 4 -11 1
-25 -7 -34z"/>
</g>
</svg>
