<?xml version="1.0" standalone="no"?>
<!DOCTYPE svg PUBLIC "-//W3C//DTD SVG 20010904//EN"
 "http://www.w3.org/TR/2001/REC-SVG-20010904/DTD/svg10.dtd">
<svg version="1.0" xmlns="http://www.w3.org/2000/svg"
 width="768.000000pt" height="768.000000pt" viewBox="0 0 768.000000 768.000000"
 preserveAspectRatio="xMidYMid meet">
<metadata>
Created by potrace 1.16, written by Peter Selinger 2001-2019
</metadata>
<g transform="translate(0.000000,768.000000) scale(0.100000,-0.100000)"
fill="#000000" stroke="none">
<path d="M2190 6243 c-78 -7 -281 -43 -382 -69 -305 -77 -643 -244 -892 -442
-91 -72 -281 -257 -353 -344 -325 -390 -515 -867 -554 -1395 -35 -468 86 -980
331 -1394 105 -176 209 -310 364 -465 219 -219 391 -343 651 -469 231 -112
411 -170 681 -217 l129 -23 1675 0 1675 0 129 23 c270 47 450 105 681 217 244
118 423 245 623 439 125 122 196 204 288 333 311 435 475 1023 435 1556 -39
528 -229 1005 -554 1395 -72 87 -262 272 -353 344 -123 98 -284 198 -439 273
-225 109 -394 164 -670 217 l-120 23 -1650 1 c-907 0 -1670 -1 -1695 -3z
m3230 -858 c556 -91 1017 -452 1217 -955 79 -199 114 -380 114 -595 0 -424
-161 -814 -460 -1113 -232 -232 -512 -374 -849 -433 -110 -18 -172 -19 -1595
-19 -1245 0 -1497 2 -1577 15 -610 93 -1112 533 -1283 1125 -97 334 -73 717
64 1039 211 494 643 836 1179 931 99 17 187 18 1600 19 1301 1 1507 -1 1590
-14z"/>
</g>
</svg>
