<?xml version="1.0" standalone="no"?>
<!DOCTYPE svg PUBLIC "-//W3C//DTD SVG 20010904//EN"
 "http://www.w3.org/TR/2001/REC-SVG-20010904/DTD/svg10.dtd">
<svg version="1.0" xmlns="http://www.w3.org/2000/svg"
 width="612.000000pt" height="612.000000pt" viewBox="0 0 612.000000 612.000000"
 preserveAspectRatio="xMidYMid meet">
<metadata>
Created by potrace 1.16, written by Peter Selinger 2001-2019
</metadata>
<g transform="translate(0.000000,612.000000) scale(0.100000,-0.100000)"
fill="#000000" stroke="none">
<path d="M3016 5511 c-48 -66 -110 -199 -131 -286 -22 -87 -22 -185 1 -785 21
-536 22 -850 5 -985 -46 -358 -145 -666 -316 -985 -32 -58 -63 -115 -71 -127
l-13 -21 -92 23 c-50 13 -106 34 -124 47 -126 90 -152 252 -59 374 43 55 104
86 185 92 64 4 68 6 64 26 -2 11 -39 302 -80 646 -69 574 -79 634 -111 735
-42 133 -120 292 -205 417 -91 133 -285 325 -422 416 -59 40 -112 72 -118 72
-5 0 -9 -697 -9 -1860 l0 -1860 429 0 428 0 7 -40 c22 -136 128 -380 227 -520
69 -98 206 -239 296 -306 39 -29 91 -78 114 -109 l41 -55 31 46 c17 25 57 67
91 93 179 138 335 321 428 504 49 96 112 272 124 345 l7 42 428 0 429 0 0
1860 c0 1051 -4 1860 -9 1860 -15 0 -163 -100 -236 -160 -148 -121 -296 -298
-393 -470 -40 -72 -116 -260 -136 -335 -8 -33 -49 -337 -90 -675 -42 -338 -78
-627 -80 -641 -5 -26 -4 -26 64 -31 50 -4 81 -12 114 -32 159 -93 168 -326 17
-430 -29 -20 -222 -82 -226 -73 0 1 -13 25 -28 52 -188 341 -284 600 -341 915
-52 293 -53 392 -7 1551 12 299 -3 409 -78 559 -31 62 -99 160 -111 160 -5 0
-25 -22 -44 -49z m-1142 -1006 c67 -100 94 -154 141 -280 36 -96 40 -120 101
-610 35 -280 64 -519 64 -531 0 -14 -16 -31 -49 -53 -70 -45 -138 -124 -177
-206 -19 -38 -34 -75 -34 -83 0 -10 -18 -12 -72 -10 l-73 3 -2 955 -2 955 25
-30 c14 -16 49 -66 78 -110z m2471 -1762 c-6 -18 -145 -18 -145 0 0 7 -15 44
-34 82 -39 82 -107 161 -177 206 -28 19 -49 40 -49 50 0 10 29 248 64 531 66
524 73 559 135 701 31 71 97 183 155 262 l51 69 3 -944 c1 -520 0 -951 -3
-957z m-1252 134 c47 -151 114 -313 193 -465 41 -79 74 -145 74 -148 0 -2 -6
-4 -14 -4 -33 0 -179 -85 -230 -133 l-56 -53 -56 53 c-51 48 -197 133 -230
133 -8 0 -14 2 -14 6 0 3 29 60 64 127 83 157 144 301 192 454 22 68 41 123
44 123 3 0 18 -42 33 -93z m-1161 -445 c25 -70 87 -161 144 -211 63 -55 141
-95 238 -120 43 -10 80 -21 82 -24 2 -2 -2 -33 -11 -68 -8 -35 -20 -119 -26
-187 l-12 -123 -286 3 -286 3 -3 388 -2 387 73 0 72 0 17 -48z m2416 -339 l-3
-388 -286 -3 -287 -3 -7 93 c-3 51 -15 136 -25 188 -11 52 -18 96 -15 98 2 2
38 13 81 23 169 44 295 142 359 283 19 41 35 79 35 85 0 7 29 11 75 11 l75 0
-2 -387z m-1625 -89 c98 -33 192 -150 204 -255 l6 -49 -162 0 -161 0 0 43 c1
95 36 277 54 277 7 0 33 -7 59 -16z m756 -36 c20 -97 31 -173 31 -220 l0 -48
-160 0 -160 0 0 30 c0 105 111 248 218 280 54 17 60 13 71 -42z m-549 -790 l0
-273 -35 40 c-58 66 -143 197 -179 277 -32 69 -76 197 -76 219 0 5 65 9 145 9
l145 0 0 -272z m550 263 c0 -21 -44 -149 -75 -217 -38 -83 -124 -217 -179
-279 l-35 -40 -1 273 0 272 145 0 c80 0 145 -4 145 -9z"/>
</g>
</svg>
