<?xml version="1.0" standalone="no"?>
<!DOCTYPE svg PUBLIC "-//W3C//DTD SVG 20010904//EN"
 "http://www.w3.org/TR/2001/REC-SVG-20010904/DTD/svg10.dtd">
<svg version="1.0" xmlns="http://www.w3.org/2000/svg"
 width="1024.000000pt" height="1024.000000pt" viewBox="0 0 1024.000000 1024.000000"
 preserveAspectRatio="xMidYMid meet">
<metadata>
Created by potrace 1.16, written by Peter Selinger 2001-2019
</metadata>
<g transform="translate(0.000000,1024.000000) scale(0.100000,-0.100000)"
fill="#000000" stroke="none">
<path d="M4170 8495 l0 -1375 -195 0 -195 0 0 -185 0 -185 -320 0 -320 0 0
-755 0 -755 -175 0 -175 0 0 -625 0 -625 -1075 0 -1075 0 0 -1560 0 -1560 35
0 35 0 0 -70 0 -70 1215 0 1215 0 0 -180 0 -180 3093 0 c1700 0 3156 3 3235 7
l142 6 0 109 0 108 -95 0 -95 0 0 900 0 900 95 0 95 0 0 105 0 105 -95 0 -95
0 0 690 0 690 -980 0 -980 0 0 1380 0 1380 -270 0 -270 0 0 105 0 105 -320 0
-320 0 0 80 0 80 -75 0 -75 0 0 1375 0 1375 -980 0 -980 0 0 -1375z"/>
</g>
</svg>
