<?xml version="1.0" standalone="no"?>
<!DOCTYPE svg PUBLIC "-//W3C//DTD SVG 20010904//EN"
 "http://www.w3.org/TR/2001/REC-SVG-20010904/DTD/svg10.dtd">
<svg version="1.0" xmlns="http://www.w3.org/2000/svg"
 width="900.000000pt" height="900.000000pt" viewBox="0 0 900.000000 900.000000"
 preserveAspectRatio="xMidYMid meet">
<metadata>
Created by potrace 1.16, written by Peter Selinger 2001-2019
</metadata>
<g transform="translate(0.000000,900.000000) scale(0.100000,-0.100000)"
fill="#000000" stroke="none">
<path d="M2134 6118 c-59 -19 -127 -80 -159 -143 l-30 -59 0 -1370 0 -1371 27
-51 c15 -28 48 -70 73 -92 90 -79 -132 -72 2470 -70 l2330 3 55 31 c61 34 121
105 139 164 8 27 11 415 11 1396 0 1345 -1 1359 -21 1404 -27 60 -83 117 -144
146 l-50 24 -2335 -1 c-1538 -1 -2346 -4 -2366 -11z m1641 -398 c131 -13 239
-40 357 -90 80 -35 199 -103 257 -149 l25 -19 -62 -72 c-104 -120 -179 -241
-231 -373 -41 -103 -41 -107 13 -107 43 0 44 1 61 48 49 130 121 250 221 366
l68 80 70 -76 c86 -93 168 -221 212 -331 l32 -82 47 -3 47 -3 -7 33 c-12 54
-98 228 -155 314 -30 43 -80 107 -113 141 l-60 63 24 20 c50 42 173 114 257
150 650 276 1401 -79 1597 -755 62 -213 61 -448 -1 -663 -116 -398 -440 -708
-854 -813 -84 -21 -116 -24 -285 -24 -165 1 -201 4 -274 24 -163 43 -335 127
-432 208 l-30 25 54 57 c67 70 133 164 186 261 38 72 91 199 91 221 0 6 -19 9
-45 7 l-46 -3 -36 -85 c-61 -142 -144 -268 -236 -358 l-44 -43 -41 46 c-108
122 -191 254 -238 377 l-26 68 -45 0 c-45 0 -45 0 -40 -29 21 -105 156 -339
269 -464 l52 -58 -29 -24 c-101 -81 -283 -167 -435 -206 -83 -21 -118 -24
-275 -24 -138 0 -197 4 -253 18 -244 59 -440 172 -605 347 -134 142 -231 316
-284 506 -26 93 -28 111 -28 299 0 189 2 205 29 300 61 215 155 376 310 531
200 201 442 317 712 343 49 4 94 9 99 10 6 0 60 -4 120 -9z"/>
<path d="M4035 4808 c-10 -34 -85 -431 -85 -453 0 -16 12 -39 30 -57 29 -28
35 -30 86 -26 33 3 60 11 65 19 12 19 12 92 -1 84 -5 -3 -19 -1 -31 6 -20 10
-21 16 -14 72 3 34 11 83 17 110 9 43 12 47 38 47 25 0 31 5 39 38 15 50 15
50 -16 54 -30 3 -30 6 -19 76 l8 42 -56 0 c-37 0 -58 -4 -61 -12z"/>
<path d="M5033 4804 c-62 -23 -126 -84 -156 -151 -104 -236 36 -430 269 -372
49 13 51 20 28 79 -16 39 -17 40 -54 34 -86 -14 -150 39 -150 124 0 58 20 101
65 141 38 33 40 33 111 29 72 -5 73 -5 106 29 l33 34 -28 24 c-51 45 -145 57
-224 29z"/>
<path d="M6246 4793 c-3 -16 -8 -48 -12 -73 -9 -61 -12 -65 -40 -39 -57 54
-186 28 -242 -50 -38 -52 -66 -152 -58 -204 10 -57 42 -115 79 -137 39 -24 66
-25 115 -5 33 14 38 14 48 0 9 -12 26 -15 75 -13 l63 3 18 95 c10 52 33 175
51 273 l34 177 -63 0 c-60 0 -63 -1 -68 -27z m-90 -198 c63 -44 8 -205 -70
-205 -30 0 -66 42 -66 78 0 39 36 105 67 124 34 21 43 22 69 3z"/>
<path d="M2686 4718 c-9 -40 -30 -147 -47 -238 -17 -91 -33 -175 -36 -187 -5
-22 -2 -23 54 -23 l60 0 18 98 c20 108 53 260 54 252 3 -10 31 -316 31 -332 0
-15 9 -18 58 -18 l57 0 50 113 c52 118 120 255 110 223 -3 -10 -12 -57 -20
-105 -18 -105 -35 -190 -41 -213 -5 -16 2 -18 56 -18 39 0 62 4 65 13 2 6 13
62 24 122 25 140 58 310 67 353 l7 33 -99 -3 -99 -3 -70 -154 -70 -153 -7 43
c-3 24 -7 71 -7 104 -1 33 -4 84 -7 113 l-7 52 -93 0 -93 0 -15 -72z"/>
<path d="M3327 4701 c-46 -10 -45 -8 -52 -56 l-7 -40 102 3 c107 4 119 0 120
-40 0 -15 -9 -18 -58 -18 -148 0 -247 -93 -215 -203 18 -63 112 -96 189 -67
19 8 30 8 38 0 5 -5 34 -10 63 -10 47 0 53 3 57 23 52 250 56 298 31 347 -9
16 -30 37 -48 47 -36 18 -159 27 -220 14z m135 -266 c-4 -38 -28 -63 -67 -70
-42 -9 -70 14 -61 48 8 33 51 57 96 54 33 -2 35 -4 32 -32z"/>
<path d="M3746 4696 c-58 -22 -87 -56 -93 -107 -7 -69 7 -92 81 -130 69 -35
87 -59 65 -86 -11 -13 -29 -15 -96 -10 -91 5 -86 8 -95 -57 -4 -25 25 -34 116
-35 131 -2 195 38 204 127 2 27 -1 59 -7 70 -6 12 -41 38 -77 58 -52 29 -64
41 -62 58 3 19 10 21 74 24 l70 3 11 40 c7 27 7 41 0 46 -23 14 -153 13 -191
-1z"/>
<path d="M4316 4696 c-47 -18 -91 -58 -119 -111 -17 -31 -22 -58 -22 -121 0
-74 2 -84 29 -118 39 -51 95 -76 176 -76 98 0 136 14 144 51 11 55 13 54 -93
51 -91 -3 -102 -1 -121 18 -14 14 -20 31 -18 48 l3 27 125 3 c84 2 127 7 132
15 14 22 8 111 -10 147 -9 19 -31 43 -49 53 -43 25 -128 31 -177 13z m124 -90
c6 -8 10 -25 8 -38 -3 -21 -8 -23 -72 -23 -41 0 -71 4 -73 11 -2 6 8 23 21 37
19 20 35 27 64 27 22 0 45 -6 52 -14z"/>
<path d="M5337 4701 c-46 -10 -43 -7 -51 -56 l-7 -40 99 3 c80 3 101 1 111
-12 24 -29 6 -46 -51 -46 -132 0 -218 -68 -218 -172 0 -83 102 -133 197 -97
19 7 29 7 31 0 3 -10 122 -17 122 -8 0 2 11 60 25 128 38 192 31 250 -38 286
-36 18 -159 27 -220 14z m135 -237 c9 -8 -9 -65 -25 -81 -20 -20 -70 -26 -91
-10 -26 19 -14 62 22 81 27 15 84 21 94 10z"/>
<path d="M5885 4700 c-16 -4 -40 -12 -53 -19 -18 -10 -23 -9 -28 4 -4 11 -20
15 -58 15 l-51 0 -18 -97 c-9 -54 -26 -147 -37 -208 -11 -60 -20 -113 -20
-117 0 -5 26 -8 59 -8 l58 0 12 78 c25 162 55 225 114 240 27 7 33 15 44 57 7
28 12 53 10 56 -1 3 -15 2 -32 -1z"/>
<path d="M4621 4628 c-7 -40 -23 -130 -37 -201 -13 -70 -24 -134 -24 -143 0
-12 11 -14 57 -12 l57 3 17 95 c26 146 55 203 110 215 23 5 31 14 39 48 6 23
13 48 15 55 6 17 -28 15 -72 -3 -19 -8 -37 -15 -39 -15 -2 0 -4 7 -4 15 0 11
-13 15 -53 15 l-54 0 -12 -72z"/>
</g>
</svg>
