<?xml version="1.0" standalone="no"?>
<!DOCTYPE svg PUBLIC "-//W3C//DTD SVG 20010904//EN"
 "http://www.w3.org/TR/2001/REC-SVG-20010904/DTD/svg10.dtd">
<svg version="1.0" xmlns="http://www.w3.org/2000/svg"
 width="1000.000000pt" height="1000.000000pt" viewBox="0 0 1000.000000 1000.000000"
 preserveAspectRatio="xMidYMid meet">
<metadata>
Created by potrace 1.16, written by Peter Selinger 2001-2019
</metadata>
<g transform="translate(0.000000,1000.000000) scale(0.100000,-0.100000)"
fill="#000000" stroke="none">
<path d="M0 5000 l0 -2110 640 0 640 0 0 680 0 680 580 0 580 0 0 575 0 575
-580 0 -580 0 0 280 0 280 710 0 710 0 0 28 c0 15 -16 259 -35 542 -19 283
-35 530 -35 548 l0 32 -1315 0 -1315 0 0 -2110z"/>
<path d="M4540 7099 c-325 -34 -670 -156 -945 -336 -637 -417 -999 -1149 -945
-1909 79 -1115 989 -1964 2105 -1964 1389 0 2389 1300 2040 2652 -70 272 -221
568 -403 792 -442 544 -1152 836 -1852 765z m362 -891 c72 -33 142 -103 176
-176 l27 -57 0 -980 0 -980 -34 -63 c-43 -78 -115 -144 -187 -171 -74 -28
-184 -28 -259 0 -72 27 -153 101 -190 176 l-30 58 -3 967 c-2 961 -2 967 19
1022 39 105 125 188 228 221 70 22 183 15 253 -17z"/>
<path d="M6240 7104 c0 -3 268 -478 596 -1055 l595 -1050 -37 -67 c-21 -37
-289 -510 -596 -1051 -307 -541 -558 -985 -558 -987 0 -2 307 -4 683 -4 l682
0 255 449 c140 247 257 448 259 445 2 -2 117 -203 255 -446 l251 -443 684 -3
c589 -2 682 0 678 12 -6 14 -1129 1998 -1168 2062 l-19 31 576 1014 c316 558
586 1033 600 1057 l25 42 -687 -2 -686 -3 -243 -428 c-134 -236 -250 -438
-257 -449 -12 -18 -34 17 -268 431 l-255 450 -682 1 c-376 0 -683 -3 -683 -6z"/>
</g>
</svg>
