<?xml version="1.0" standalone="no"?>
<!DOCTYPE svg PUBLIC "-//W3C//DTD SVG 20010904//EN"
 "http://www.w3.org/TR/2001/REC-SVG-20010904/DTD/svg10.dtd">
<svg version="1.0" xmlns="http://www.w3.org/2000/svg"
 width="259.000000pt" height="259.000000pt" viewBox="0 0 259.000000 259.000000"
 preserveAspectRatio="xMidYMid meet">
<metadata>
Created by potrace 1.16, written by Peter Selinger 2001-2019
</metadata>
<g transform="translate(0.000000,259.000000) scale(0.100000,-0.100000)"
fill="#000000" stroke="none">
<path d="M1125 1809 c-72 -23 -134 -57 -149 -82 -18 -30 30 -63 120 -83 129
-28 358 -10 443 35 31 17 51 40 45 55 -7 18 -100 64 -165 81 -78 21 -221 18
-294 -6z"/>
<path d="M881 1653 c-17 -21 -31 -48 -31 -61 0 -100 334 -192 593 -163 125 14
192 37 239 82 52 49 52 85 -2 142 -25 27 -40 36 -40 26 0 -38 -105 -98 -228
-131 -108 -28 -336 -31 -404 -5 -63 24 -101 70 -96 114 2 18 3 33 2 33 -2 0
-16 -17 -33 -37z"/>
<path d="M1760 1509 c0 -27 -63 -77 -140 -112 -92 -42 -211 -72 -350 -87 -215
-24 -426 44 -471 153 l-13 30 -12 -34 c-18 -50 -17 -55 18 -94 41 -48 110 -81
227 -112 78 -20 128 -26 271 -30 205 -6 307 8 408 58 93 46 120 102 91 190
-14 40 -29 60 -29 38z"/>
<path d="M1784 1276 c-63 -66 -216 -133 -395 -172 -95 -21 -305 -24 -379 -5
-101 25 -196 82 -236 141 -26 37 -30 27 -14 -32 12 -43 56 -81 147 -127 218
-111 641 -106 815 9 55 36 84 90 91 168 2 28 4 52 3 51 -1 0 -15 -15 -32 -33z"/>
<path d="M1739 1054 c-33 -35 -150 -90 -245 -114 -116 -30 -315 -38 -422 -16
-96 19 -172 51 -222 91 l-35 29 39 -41 c88 -93 247 -144 450 -145 95 0 139 4
204 22 90 24 187 80 215 123 9 15 24 38 33 52 21 32 14 32 -17 -1z"/>
<path d="M1512 840 c-116 -41 -329 -44 -456 -6 -70 21 -41 -1 40 -31 93 -34
224 -42 313 -18 61 15 161 59 161 70 0 3 -1 5 -2 4 -2 0 -27 -9 -56 -19z"/>
</g>
</svg>
