<?xml version="1.0" standalone="no"?>
<!DOCTYPE svg PUBLIC "-//W3C//DTD SVG 20010904//EN"
 "http://www.w3.org/TR/2001/REC-SVG-20010904/DTD/svg10.dtd">
<svg version="1.0" xmlns="http://www.w3.org/2000/svg"
 width="728.000000pt" height="728.000000pt" viewBox="0 0 728.000000 728.000000"
 preserveAspectRatio="xMidYMid meet">
<metadata>
Created by potrace 1.16, written by Peter Selinger 2001-2019
</metadata>
<g transform="translate(0.000000,728.000000) scale(0.100000,-0.100000)"
fill="#000000" stroke="none">
<path d="M1210 4858 c1 -2093 1 -2132 20 -2095 10 20 51 117 90 215 40 97 87
211 105 252 18 41 56 131 84 200 29 69 69 166 91 215 21 50 84 198 138 330 87
210 141 339 349 835 25 58 68 164 98 235 47 117 114 276 310 740 35 83 91 218
125 300 34 83 72 175 85 205 12 30 39 93 60 140 20 47 43 102 50 122 8 20 50
122 94 226 45 105 81 195 81 201 0 8 -253 11 -890 11 l-890 0 0 -2132z"/>
<path d="M4260 6985 c0 -5 50 -127 285 -690 48 -115 97 -235 110 -265 24 -60
119 -287 140 -335 7 -16 50 -118 95 -225 45 -107 88 -210 96 -227 8 -18 21
-50 28 -70 8 -21 48 -119 91 -218 42 -99 87 -207 100 -240 13 -33 45 -109 70
-170 26 -60 85 -202 132 -315 47 -113 105 -252 130 -310 24 -58 68 -163 97
-235 30 -71 74 -177 99 -235 24 -58 73 -172 107 -255 111 -267 192 -460 196
-464 2 -2 4 955 4 2127 l0 2132 -890 0 c-489 0 -890 -2 -890 -5z"/>
<path d="M3611 5378 c-5 -13 -54 -129 -109 -258 -171 -400 -252 -590 -312
-735 -32 -77 -70 -167 -85 -200 -15 -33 -67 -154 -115 -270 -49 -115 -100
-236 -114 -268 -14 -32 -26 -62 -26 -67 0 -6 153 -10 415 -10 387 0 416 -1
422 -17 7 -21 236 -603 293 -743 l38 -95 371 -3 c204 -1 371 1 371 5 0 4 -33
86 -74 182 -83 196 -236 559 -316 751 -70 167 -136 323 -165 390 -27 62 -89
209 -242 575 -58 138 -130 309 -160 380 -30 72 -70 166 -88 210 -52 126 -83
195 -90 195 -3 0 -9 -10 -14 -22z"/>
<path d="M2857 1953 c-4 -3 -7 -98 -7 -210 l0 -203 -57 -1 c-222 -2 -414 -164
-478 -404 -36 -134 -29 -343 16 -482 90 -278 366 -387 698 -277 44 15 86 32
93 38 10 9 12 168 10 779 l-3 767 -133 0 c-73 0 -136 -3 -139 -7z m-29 -659
l22 -6 0 -349 0 -349 -49 0 c-67 0 -93 12 -145 64 -54 54 -74 113 -83 243 -13
197 54 353 167 388 53 16 58 17 88 9z"/>
<path d="M4290 1170 l0 -789 52 -16 c91 -27 216 -37 309 -26 210 26 374 175
439 401 34 115 39 326 12 441 -33 136 -93 231 -185 292 -79 53 -153 71 -262
64 l-91 -5 1 201 c1 111 -1 208 -3 215 -3 9 -40 12 -138 12 l-134 0 0 -790z
m435 106 c44 -19 90 -83 106 -149 7 -28 12 -101 12 -162 -1 -150 -32 -251 -99
-318 -48 -49 -99 -71 -149 -65 l-29 3 -2 347 c-1 390 -9 355 79 357 26 0 63
-5 82 -13z"/>
<path d="M1530 1827 c0 -24 -11 -94 -25 -155 -60 -268 -75 -333 -99 -432 -14
-58 -42 -177 -61 -265 -48 -213 -91 -393 -115 -486 -11 -41 -20 -90 -20 -107
l0 -33 127 3 128 3 18 85 c10 47 29 132 41 190 l21 105 167 3 167 2 10 -37 c5
-21 22 -94 37 -163 14 -69 29 -138 33 -155 l7 -30 137 -3 c107 -2 139 0 143
11 2 7 -33 166 -80 353 -47 186 -110 443 -141 569 -54 224 -116 472 -136 548
l-10 37 -174 0 -175 0 0 -43z m221 -452 c27 -133 59 -287 74 -352 5 -23 5 -23
-110 -23 -114 0 -115 0 -110 23 4 20 26 135 70 367 7 41 17 98 21 125 8 62 18
80 22 40 2 -16 17 -97 33 -180z"/>
<path d="M3602 1529 c-67 -16 -160 -86 -209 -157 -168 -246 -142 -753 48 -934
64 -60 121 -87 211 -100 120 -16 246 22 325 98 175 169 217 637 80 897 -35 67
-115 145 -184 178 -38 18 -68 24 -138 26 -49 1 -109 -3 -133 -8z m174 -254
c52 -33 84 -160 84 -335 0 -132 -14 -219 -45 -280 -30 -60 -58 -80 -108 -80
-54 0 -99 46 -124 126 -14 47 -18 93 -18 229 0 233 25 315 107 350 35 15 69
11 104 -10z"/>
<path d="M5528 1517 c-122 -52 -208 -156 -261 -317 -41 -123 -47 -385 -13
-510 69 -248 251 -375 511 -355 92 7 174 28 187 49 4 6 8 62 8 125 0 104 -1
113 -17 106 -38 -14 -140 -35 -175 -35 -121 0 -213 57 -241 152 -8 29 -18 72
-21 95 l-6 41 255 4 c208 2 257 6 265 17 19 32 23 199 6 296 -19 114 -51 186
-111 253 -61 68 -124 94 -240 99 -78 3 -98 1 -147 -20z m180 -227 c35 -22 56
-61 66 -125 10 -65 3 -69 -133 -72 -72 -1 -123 2 -127 8 -9 16 16 111 40 146
22 35 67 62 101 63 11 0 35 -9 53 -20z"/>
</g>
</svg>
