<?xml version="1.0" standalone="no"?>
<!DOCTYPE svg PUBLIC "-//W3C//DTD SVG 20010904//EN"
 "http://www.w3.org/TR/2001/REC-SVG-20010904/DTD/svg10.dtd">
<svg version="1.0" xmlns="http://www.w3.org/2000/svg"
 width="225.000000pt" height="225.000000pt" viewBox="0 0 225.000000 225.000000"
 preserveAspectRatio="xMidYMid meet">
<metadata>
Created by potrace 1.16, written by Peter Selinger 2001-2019
</metadata>
<g transform="translate(0.000000,225.000000) scale(0.100000,-0.100000)"
fill="#000000" stroke="none">
<path d="M0 1125 l0 -1125 1125 0 1125 0 0 1125 0 1125 -1125 0 -1125 0 0
-1125z m1985 335 c64 -31 144 -111 175 -175 21 -42 25 -64 25 -145 0 -82 -4
-103 -26 -150 -49 -102 -135 -167 -254 -190 -40 -7 -174 -10 -395 -8 l-335 3
-3 349 -2 349 383 -5 c379 -4 383 -4 432 -28z m-935 -65 l0 -85 -317 0 c-314
0 -318 0 -356 -23 -56 -34 -77 -71 -77 -140 0 -62 14 -100 52 -133 41 -37 83
-44 279 -44 l189 0 0 50 0 50 -120 0 -120 0 0 80 0 80 233 -2 232 -3 3 -213 2
-213 -367 3 c-358 3 -369 4 -417 26 -113 52 -185 143 -205 257 -29 167 75 336
239 386 14 4 188 8 388 8 l362 1 0 -85z"/>
<path d="M1410 1156 c0 -85 3 -161 6 -170 5 -14 34 -16 213 -16 198 0 210 1
251 23 112 59 117 223 10 290 -33 21 -48 22 -257 24 l-223 3 0 -154z"/>
</g>
</svg>
