<?xml version="1.0" standalone="no"?>
<!DOCTYPE svg PUBLIC "-//W3C//DTD SVG 20010904//EN"
 "http://www.w3.org/TR/2001/REC-SVG-20010904/DTD/svg10.dtd">
<svg version="1.0" xmlns="http://www.w3.org/2000/svg"
 width="242.000000pt" height="242.000000pt" viewBox="0 0 242.000000 242.000000"
 preserveAspectRatio="xMidYMid meet">
<metadata>
Created by potrace 1.16, written by Peter Selinger 2001-2019
</metadata>
<g transform="translate(0.000000,242.000000) scale(0.100000,-0.100000)"
fill="#000000" stroke="none">
<path d="M280 1210 l0 -920 930 0 930 0 0 920 0 920 -930 0 -930 0 0 -920z
m1516 212 l-34 -131 148 -3 148 -3 -173 -89 -173 -89 -32 -116 c-38 -140 -39
-145 -45 -139 -3 3 6 56 19 119 14 62 23 115 22 117 -2 1 -108 -49 -236 -113
-128 -64 -234 -114 -237 -112 -2 3 106 65 241 138 l245 133 12 54 c6 29 9 55
7 56 -1 2 -33 6 -70 8 -62 5 -69 4 -90 -19 -38 -41 -164 -150 -149 -128 8 11
44 50 79 86 l64 67 -508 7 c-280 4 -549 11 -599 15 -50 4 179 8 522 9 l611 1
128 135 c70 74 129 134 131 131 2 -2 -12 -62 -31 -134z"/>
<path d="M1678 1354 l-67 -65 57 3 56 3 12 60 c7 33 11 61 10 62 -1 1 -31 -28
-68 -63z"/>
<path d="M1740 1209 c-6 -23 -9 -43 -7 -45 3 -4 144 70 156 81 2 3 -28 5 -67
5 l-71 0 -11 -41z"/>
</g>
</svg>
