<?xml version="1.0" standalone="no"?>
<!DOCTYPE svg PUBLIC "-//W3C//DTD SVG 20010904//EN"
 "http://www.w3.org/TR/2001/REC-SVG-20010904/DTD/svg10.dtd">
<svg version="1.0" xmlns="http://www.w3.org/2000/svg"
 width="400.000000pt" height="400.000000pt" viewBox="0 0 400.000000 400.000000"
 preserveAspectRatio="xMidYMid meet">
<metadata>
Created by potrace 1.16, written by Peter Selinger 2001-2019
</metadata>
<g transform="translate(0.000000,400.000000) scale(0.100000,-0.100000)"
fill="#000000" stroke="none">
<path d="M2947 2313 c-4 -3 -7 -14 -7 -24 0 -21 44 -32 125 -33 43 -1 50 2 50
19 0 17 -11 22 -65 32 -77 14 -94 15 -103 6z"/>
<path d="M250 2216 c-17 -22 -8 -60 18 -71 22 -10 22 -13 22 -183 0 -156 -2
-173 -17 -178 -35 -11 -48 -21 -51 -40 -5 -39 13 -49 100 -52 105 -5 138 7
138 48 0 24 -5 31 -27 36 -55 12 -54 10 -51 76 l3 63 100 0 100 0 0 -65 c0
-63 -1 -65 -27 -68 -14 -2 -32 -10 -38 -17 -18 -21 -4 -62 22 -69 36 -9 154
-7 183 4 22 8 26 15 23 42 -3 28 -8 34 -33 38 l-30 5 -3 171 -2 171 25 17 c27
18 33 54 13 74 -15 15 -161 16 -189 2 -21 -12 -25 -50 -7 -68 7 -7 25 -12 40
-12 28 0 28 0 28 -65 l0 -65 -105 0 -106 0 3 63 c3 58 5 62 28 65 34 5 50 20
50 46 0 38 -19 46 -111 46 -63 0 -90 -4 -99 -14z"/>
<path d="M1451 2206 c-22 -26 -9 -60 27 -71 l32 -9 0 -173 0 -173 -24 0 c-31
0 -50 -24 -42 -54 7 -29 30 -36 123 -36 90 0 123 12 123 43 0 32 -18 47 -57
47 l-34 0 3 73 3 72 62 -1 c34 0 69 -6 77 -13 18 -15 36 -95 36 -160 l0 -48
76 -6 c85 -8 114 2 114 36 0 30 -18 47 -51 47 -25 0 -27 4 -34 57 -7 61 -24
101 -49 122 -14 12 -12 16 17 35 29 19 32 27 35 76 4 67 -11 96 -63 123 -35
19 -60 22 -201 25 -134 3 -162 1 -173 -12z m323 -97 c17 -14 26 -29 24 -43 -4
-30 -69 -59 -137 -60 l-56 -1 -3 63 -3 62 74 0 c61 0 79 -4 101 -21z"/>
<path d="M2066 2204 c-9 -8 -16 -21 -16 -28 0 -16 32 -46 49 -46 8 0 11 -44 9
-172 l-3 -172 -25 -6 c-19 -4 -26 -13 -28 -38 -3 -27 1 -34 25 -43 15 -6 68
-9 116 -7 74 2 91 6 103 22 8 11 14 22 14 25 -1 20 -24 35 -62 40 l-43 6 -3
123 c-1 68 1 121 5 119 4 -3 31 -57 58 -121 l50 -116 45 0 46 0 48 113 c26 61
52 116 57 122 6 6 9 -38 7 -115 l-3 -125 -25 -3 c-62 -7 -70 -11 -70 -42 0
-24 6 -33 26 -40 32 -13 165 -13 197 -1 47 18 45 63 -4 80 l-29 10 0 170 c0
137 3 171 13 171 16 0 47 32 47 48 0 29 -32 42 -106 42 l-75 0 -63 -132 -63
-133 -67 133 -66 132 -74 0 c-54 0 -79 -4 -90 -16z"/>
<path d="M3480 2209 c-84 -35 -121 -126 -83 -206 22 -48 60 -68 169 -93 56
-13 99 -29 109 -40 26 -28 15 -62 -25 -82 -71 -36 -168 -13 -200 47 -20 36
-58 45 -77 19 -14 -19 -18 -122 -5 -140 12 -17 44 -25 57 -14 10 8 29 6 71 -6
105 -30 215 -3 262 66 43 64 20 157 -48 199 -17 10 -68 26 -113 36 -98 20
-127 37 -127 70 0 54 81 89 147 64 37 -14 46 -25 63 -71 7 -20 16 -28 33 -28
37 0 47 19 47 91 0 75 -9 89 -61 89 -19 0 -70 2 -114 5 -45 3 -91 0 -105 -6z"/>
<path d="M880 2195 c-20 -24 -4 -63 30 -70 l30 -7 0 -169 0 -169 -23 0 c-50 0
-67 -63 -21 -80 14 -6 117 -10 230 -10 l204 0 0 84 c0 64 -4 88 -16 100 -34
35 -74 6 -74 -55 l0 -40 -107 3 -108 3 0 60 0 60 88 3 87 3 0 44 0 45 -90 0
-90 0 0 60 0 60 100 0 c97 0 100 -1 100 -22 0 -45 12 -68 38 -75 39 -9 52 18
52 109 l0 78 -209 0 c-172 0 -211 -3 -221 -15z"/>
<path d="M2814 2196 c-13 -33 1 -60 34 -70 l32 -9 -2 -165 -3 -166 -32 -8
c-28 -7 -33 -13 -33 -38 0 -19 7 -33 19 -40 12 -6 103 -10 226 -10 l206 0 -3
91 c-2 75 -6 94 -21 103 -29 19 -52 -4 -55 -58 l-3 -46 -110 0 -109 0 0 65 0
65 84 0 c47 0 87 4 90 8 3 5 3 25 -1 45 l-6 37 -83 0 -84 0 0 60 0 60 100 0
100 0 0 -39 c0 -45 19 -66 54 -57 29 7 36 30 36 119 l0 67 -215 0 c-178 0
-217 -3 -221 -14z"/>
</g>
</svg>
