<?xml version="1.0" standalone="no"?>
<!DOCTYPE svg PUBLIC "-//W3C//DTD SVG 20010904//EN"
 "http://www.w3.org/TR/2001/REC-SVG-20010904/DTD/svg10.dtd">
<svg version="1.0" xmlns="http://www.w3.org/2000/svg"
 width="512.000000pt" height="512.000000pt" viewBox="0 0 512.000000 512.000000"
 preserveAspectRatio="xMidYMid meet">
<metadata>
Created by potrace 1.16, written by Peter Selinger 2001-2019
</metadata>
<g transform="translate(0.000000,512.000000) scale(0.100000,-0.100000)"
fill="#000000" stroke="none">
<path d="M1 3863 l1 -678 19 80 c10 44 23 102 29 128 5 27 19 69 30 94 11 25
20 50 20 56 0 12 38 94 93 200 12 23 27 48 34 55 6 7 22 30 34 52 13 22 26 40
31 40 4 0 8 5 8 11 0 33 305 339 338 339 6 0 12 4 14 8 5 15 119 84 218 133
106 53 213 93 310 116 36 8 90 21 120 28 47 11 -43 13 -622 14 l-678 1 1 -677z"/>
<path d="M1885 4519 c44 -10 100 -23 125 -28 53 -11 193 -61 241 -86 19 -10
42 -22 52 -27 69 -34 103 -53 107 -58 3 -4 15 -12 28 -19 32 -17 28 -33 -19
-72 -23 -19 -58 -50 -78 -70 -57 -57 -110 -120 -208 -248 -13 -16 -23 -34 -23
-39 0 -6 -7 -17 -15 -26 -16 -15 -135 -248 -135 -263 0 -4 -11 -35 -24 -68
-38 -95 -74 -269 -86 -415 -17 -206 10 -444 71 -625 32 -95 47 -130 92 -225
28 -58 60 -118 72 -135 12 -16 25 -40 29 -52 4 -13 11 -23 15 -23 4 0 22 -22
39 -49 18 -27 46 -63 62 -81 17 -18 30 -35 30 -38 0 -9 183 -182 192 -182 4 0
8 -9 8 -20 0 -13 -9 -22 -25 -26 -14 -3 -25 -9 -25 -13 0 -12 -267 -141 -292
-141 -6 0 -45 -11 -87 -24 -139 -45 -260 -61 -451 -61 -135 1 -201 6 -290 22
-120 23 -289 73 -327 99 -12 7 -29 14 -38 14 -8 0 -33 11 -55 25 -22 14 -46
25 -54 25 -8 0 -16 4 -18 9 -2 4 -22 19 -44 32 -75 43 -186 123 -198 141 -6
10 -15 18 -20 18 -8 0 -150 141 -187 187 -36 44 -99 133 -99 139 0 4 -6 15
-14 23 -17 19 -58 91 -81 141 -9 19 -25 53 -36 76 -10 22 -19 45 -19 51 0 6
-9 31 -20 56 -11 25 -25 67 -30 94 -6 26 -19 84 -29 128 l-19 80 -1 -1087 -1
-1088 1078 0 c930 1 1073 3 1047 15 -16 7 -41 23 -55 34 -24 19 -25 24 -28
160 l-4 141 -44 0 -44 0 0 50 0 50 45 0 45 0 0 65 0 65 50 0 50 0 0 -65 0 -65
75 0 75 0 0 -50 0 -50 -70 0 -70 0 0 -101 c0 -119 8 -139 55 -139 18 0 37 5
40 10 13 22 41 9 53 -23 7 -18 12 -39 12 -45 0 -14 -34 -33 -75 -43 -16 -4
588 -7 1342 -8 l1373 -1 -12 25 c-9 19 -8 29 6 50 34 52 95 18 82 -46 -5 -29
-5 -29 44 -29 l50 0 -1 1088 -1 1087 -19 -80 c-10 -44 -23 -102 -29 -128 -5
-27 -19 -69 -30 -94 -11 -25 -20 -51 -20 -57 0 -6 -11 -33 -24 -61 -13 -27
-29 -61 -35 -75 -18 -37 -45 -85 -67 -117 -10 -15 -23 -35 -29 -44 -61 -97
-257 -319 -282 -319 -4 0 -13 -8 -19 -18 -12 -18 -123 -98 -198 -141 -22 -13
-42 -28 -44 -32 -2 -5 -10 -9 -18 -9 -8 0 -32 -11 -54 -25 -22 -14 -46 -25
-53 -25 -8 0 -36 -11 -63 -25 -27 -14 -56 -25 -64 -25 -8 0 -39 -9 -69 -20
-106 -41 -272 -64 -461 -65 -191 0 -312 16 -451 61 -42 13 -81 24 -87 24 -25
0 -292 129 -292 141 0 4 -11 10 -25 13 -14 4 -25 13 -25 20 0 13 55 76 67 76
6 0 133 126 133 133 0 3 13 19 29 36 27 29 92 118 116 161 6 10 16 25 23 33
17 20 132 248 132 261 0 6 11 40 24 76 48 129 67 218 82 371 24 259 -8 503
-96 744 -27 75 -125 272 -145 292 -8 8 -15 19 -15 25 0 5 -10 23 -22 39 -133
171 -185 229 -288 319 -22 19 -40 40 -40 46 0 17 45 46 157 102 10 5 33 17 52
27 48 25 188 75 241 86 25 5 81 18 125 28 l80 19 -755 0 -755 0 80 -19z m700
-323 c15 -8 33 -23 41 -35 9 -12 19 -21 23 -21 12 0 121 -110 121 -121 0 -5
11 -16 25 -25 14 -9 25 -22 25 -30 0 -7 6 -17 14 -21 20 -11 120 -163 161
-242 77 -152 103 -226 147 -416 20 -88 23 -126 23 -310 0 -227 -16 -337 -71
-485 -13 -36 -24 -72 -24 -79 0 -7 -9 -30 -19 -50 -11 -20 -29 -56 -40 -81
-31 -67 -71 -135 -81 -138 -6 -2 -10 -10 -10 -17 0 -8 -6 -20 -13 -27 -7 -7
-34 -44 -61 -81 -26 -38 -54 -71 -62 -74 -8 -3 -14 -10 -14 -17 0 -10 -43 -53
-159 -156 -19 -16 -42 -30 -51 -30 -23 0 -117 84 -234 210 -69 74 -170 228
-217 330 -11 25 -29 61 -40 81 -10 20 -19 43 -19 50 0 7 -11 43 -24 79 -55
148 -71 258 -71 485 0 184 3 222 23 310 43 186 73 270 147 416 41 80 141 231
161 242 8 4 14 14 14 21 0 8 11 21 25 30 14 9 25 20 25 25 0 11 109 121 121
121 4 0 15 10 23 21 8 12 25 27 38 34 13 7 24 13 24 14 1 1 14 -5 29 -13z
m2404 -2143 c9 -17 10 -17 16 0 4 9 13 17 21 17 10 0 14 -14 14 -49 l0 -48
-40 1 c-38 1 -40 2 -40 33 0 18 -4 33 -10 33 -5 0 -10 -16 -10 -35 0 -24 -5
-35 -15 -35 -10 0 -15 11 -15 35 0 19 -4 35 -10 35 -5 0 -10 7 -10 15 0 23 86
21 99 -2z m-149 -1148 l0 -295 -50 0 c-38 0 -50 4 -50 15 0 19 -3 19 -42 -5
-96 -58 -260 14 -295 129 -16 55 -16 94 0 146 19 62 34 82 84 116 42 29 54 33
123 33 57 1 83 -4 103 -17 l27 -17 0 95 0 95 50 0 50 0 0 -295z m-4308 139
c21 -4 50 -18 64 -31 l26 -24 30 28 c27 26 35 28 112 28 91 0 101 -4 148 -69
l28 -39 0 -164 0 -163 -55 0 -55 0 0 136 c0 170 -10 194 -79 194 -32 0 -51 -6
-68 -22 -22 -21 -23 -28 -23 -165 l0 -143 -55 0 -55 0 0 136 c0 121 -2 139
-21 165 -17 25 -27 29 -65 29 -36 0 -50 -5 -69 -27 -23 -27 -24 -35 -25 -165
l0 -138 -55 0 -55 0 0 215 0 215 55 0 c45 0 55 -3 55 -17 0 -15 2 -15 18 0 26
23 81 31 144 21z m795 -26 l23 -21 0 21 c0 20 5 22 50 22 l50 0 0 -215 0 -215
-50 0 c-38 0 -50 4 -50 15 0 20 -9 19 -45 -5 -39 -26 -122 -27 -173 -2 -58 29
-82 46 -82 59 0 7 -3 13 -7 13 -5 0 -16 14 -25 31 -13 22 -18 53 -18 107 0 66
3 81 27 116 16 23 33 44 40 49 7 4 19 14 27 23 39 38 193 40 233 2z m538 5
c17 -9 32 -17 34 -19 1 -1 -7 -21 -20 -44 -19 -33 -27 -40 -44 -35 -61 21
-135 28 -160 17 -49 -23 -28 -45 60 -62 97 -20 140 -41 160 -80 72 -139 -120
-250 -310 -179 -62 23 -75 41 -53 67 8 9 18 25 21 35 8 23 17 22 73 -8 61 -32
114 -33 150 -1 l28 23 -27 17 c-14 10 -58 23 -97 29 -51 8 -79 18 -103 38 -30
25 -32 30 -32 93 0 64 2 68 35 94 19 15 50 30 70 34 52 9 181 -2 215 -19z
m816 -4 c14 -10 39 -35 55 -56 24 -31 29 -50 32 -105 l4 -68 -156 0 c-107 0
-156 -3 -156 -11 0 -19 65 -77 94 -85 31 -7 100 12 117 33 19 22 46 15 53 -12
4 -14 11 -25 16 -25 6 0 10 -9 10 -21 0 -15 -14 -26 -55 -45 -118 -52 -252
-21 -314 72 -29 44 -31 54 -31 134 0 74 3 91 21 111 11 13 24 29 27 34 19 28
66 59 99 66 56 11 154 0 184 -22z m423 25 c18 -7 21 -40 6 -78 -8 -23 -14 -26
-61 -25 -80 2 -83 -5 -87 -181 l-3 -150 -55 0 -54 0 0 215 0 215 80 -1 c44 -2
83 1 87 4 8 9 66 9 87 1z m383 -16 c35 -16 40 -54 13 -87 -18 -21 -23 -22 -51
-11 -40 17 -107 17 -137 1 -13 -7 -32 -32 -42 -55 -17 -36 -17 -47 -7 -83 23
-79 93 -109 171 -73 26 13 48 21 49 19 23 -32 37 -62 37 -76 0 -30 -58 -55
-136 -61 -61 -4 -79 -1 -120 19 -84 41 -124 109 -124 209 0 99 62 190 142 211
45 11 171 4 205 -13z m389 -4 c22 -15 24 -15 24 0 0 13 11 16 50 16 l50 0 0
-215 0 -215 -50 0 c-38 0 -50 4 -50 15 0 19 -3 19 -42 -5 -86 -52 -232 -1
-290 103 -7 13 -12 57 -12 107 0 74 3 89 24 118 34 46 87 84 129 93 51 11 138
2 167 -17z m493 17 c7 -5 11 -17 8 -27 -3 -11 -8 -31 -11 -46 -6 -26 -9 -27
-62 -26 -81 2 -84 -4 -84 -184 l0 -148 -55 0 -55 0 0 215 0 215 50 0 c28 0 50
-4 50 -9 0 -5 17 -3 38 5 43 15 101 18 121 5z"/>
<path d="M4563 911 c-44 -32 -58 -72 -47 -129 8 -37 66 -82 108 -82 50 0 116
65 116 115 0 53 -68 125 -117 125 -11 0 -38 -13 -60 -29z"/>
<path d="M1195 929 c-67 -39 -99 -103 -74 -150 30 -58 83 -88 134 -75 32 8 83
58 91 90 19 78 -86 172 -151 135z"/>
<path d="M2514 940 c-18 -7 -54 -50 -54 -65 0 -3 45 -5 100 -5 65 0 100 4 100
11 0 6 -13 24 -29 40 -31 30 -73 37 -117 19z"/>
<path d="M3745 928 c-11 -6 -32 -22 -47 -36 -23 -21 -28 -34 -28 -74 0 -43 4
-53 33 -79 55 -51 107 -51 158 0 48 48 51 104 7 153 -41 46 -83 58 -123 36z"/>
<path d="M3820 4525 c30 -7 84 -20 120 -28 91 -22 209 -66 315 -118 94 -47
208 -116 213 -131 2 -4 8 -8 14 -8 33 0 338 -306 338 -339 0 -6 4 -11 8 -11 5
0 18 -18 31 -40 12 -22 28 -45 34 -52 11 -11 27 -39 65 -115 50 -98 62 -125
62 -137 0 -7 9 -34 20 -59 11 -25 25 -67 30 -94 6 -26 19 -84 29 -128 l19 -80
1 678 1 677 -677 -1 c-580 -1 -670 -3 -623 -14z"/>
</g>
</svg>
