<?xml version="1.0" standalone="no"?>
<!DOCTYPE svg PUBLIC "-//W3C//DTD SVG 20010904//EN"
 "http://www.w3.org/TR/2001/REC-SVG-20010904/DTD/svg10.dtd">
<svg version="1.0" xmlns="http://www.w3.org/2000/svg"
 width="728.000000pt" height="728.000000pt" viewBox="0 0 728.000000 728.000000"
 preserveAspectRatio="xMidYMid meet">
<metadata>
Created by potrace 1.16, written by Peter Selinger 2001-2019
</metadata>
<g transform="translate(0.000000,728.000000) scale(0.100000,-0.100000)"
fill="#000000" stroke="none">
<path d="M1210 4858 l1 -2133 20 40 c11 22 47 108 80 190 34 83 88 213 121
290 33 77 73 174 90 215 17 41 50 120 74 175 24 55 88 208 142 340 55 132 148
355 207 495 134 319 168 400 239 575 32 77 83 199 113 270 31 72 89 209 129
305 39 96 114 274 164 395 51 121 103 245 115 275 12 30 41 100 65 155 23 55
58 138 77 185 20 47 60 142 89 211 30 69 54 131 54 138 0 8 -227 11 -890 11
l-890 0 0 -2132z"/>
<path d="M4260 6985 c0 -5 79 -199 222 -540 55 -132 115 -276 133 -320 144
-346 350 -837 370 -880 7 -16 25 -59 38 -95 14 -36 49 -119 77 -185 28 -66 71
-167 94 -225 24 -58 62 -148 84 -200 22 -52 79 -189 127 -305 48 -115 105
-250 125 -300 21 -49 60 -144 88 -210 27 -66 86 -208 131 -315 46 -107 97
-231 116 -275 98 -237 168 -400 171 -404 2 -2 4 955 4 2127 l0 2132 -890 0
c-489 0 -890 -2 -890 -5z"/>
<path d="M3610 5376 c-6 -16 -55 -132 -109 -260 -183 -426 -252 -590 -311
-731 -31 -77 -72 -171 -89 -210 -18 -38 -57 -131 -88 -205 -30 -74 -80 -190
-109 -258 -30 -67 -54 -127 -54 -132 0 -6 154 -10 415 -10 387 0 416 -1 422
-17 8 -24 244 -625 292 -743 l39 -95 371 -3 c204 -1 371 1 371 5 0 4 -36 92
-81 197 -110 260 -246 585 -309 736 -29 69 -71 170 -95 225 -23 55 -58 138
-78 185 -19 47 -74 175 -120 285 -47 110 -109 256 -137 325 -29 69 -72 170
-95 225 -23 55 -60 141 -80 190 -82 197 -127 300 -136 309 -5 5 -13 -2 -19
-18z"/>
<path d="M2857 1953 c-4 -3 -7 -98 -7 -210 l0 -203 -57 -1 c-335 -3 -554 -338
-492 -752 47 -321 254 -486 564 -448 83 10 234 54 257 75 10 9 12 168 10 779
l-3 767 -133 0 c-73 0 -136 -3 -139 -7z m-29 -659 l22 -6 0 -349 0 -349 -39 0
c-74 0 -104 12 -152 60 -56 56 -75 110 -85 239 -15 200 52 361 166 396 53 16
58 17 88 9z"/>
<path d="M4290 1170 l0 -789 52 -16 c92 -27 221 -38 311 -26 210 28 372 176
437 401 32 108 39 319 15 426 -36 165 -118 278 -242 337 -64 30 -74 32 -183
32 l-115 0 0 200 c1 110 -1 206 -3 213 -3 9 -40 12 -138 12 l-134 0 0 -790z
m463 87 c48 -37 76 -99 87 -198 12 -105 4 -192 -26 -290 -37 -120 -129 -198
-219 -187 l-29 3 -2 347 c-1 394 -10 358 92 354 49 -1 69 -7 97 -29z"/>
<path d="M1530 1827 c0 -24 -11 -93 -24 -153 -25 -112 -29 -130 -90 -389 -19
-82 -52 -222 -72 -310 -67 -293 -104 -449 -119 -505 -8 -30 -15 -70 -15 -88
l0 -33 127 3 128 3 40 190 41 190 167 3 166 2 11 -38 c5 -21 21 -92 35 -158
14 -65 29 -135 33 -154 l8 -35 137 -3 c108 -2 139 0 143 11 2 7 -29 148 -70
313 -41 164 -105 421 -141 569 -59 244 -120 488 -146 588 l-10 37 -174 0 -175
0 0 -43z m241 -547 c28 -135 52 -253 55 -262 5 -16 -5 -18 -111 -18 -115 0
-115 0 -110 23 2 12 16 81 29 152 14 72 34 179 45 239 12 59 21 118 21 130 0
34 15 42 18 9 2 -15 25 -138 53 -273z"/>
<path d="M3602 1529 c-67 -16 -160 -86 -209 -157 -169 -247 -143 -752 48 -934
64 -60 121 -87 211 -100 97 -13 179 3 261 52 168 101 255 378 216 690 -21 170
-68 280 -155 359 -81 74 -132 95 -239 98 -49 1 -109 -3 -133 -8z m174 -254
c52 -33 84 -160 84 -335 0 -132 -14 -219 -45 -280 -62 -122 -176 -105 -227 35
-20 53 -23 79 -23 235 0 238 24 319 107 355 35 15 69 11 104 -10z"/>
<path d="M5528 1517 c-123 -52 -203 -148 -257 -309 -46 -133 -53 -386 -16
-523 66 -242 252 -370 510 -350 92 7 174 28 187 49 4 6 8 62 8 125 0 104 -1
113 -17 106 -38 -14 -140 -35 -175 -35 -121 0 -213 57 -241 152 -8 29 -18 72
-21 95 l-6 41 255 4 c206 2 257 6 264 17 20 31 23 204 7 300 -19 111 -51 182
-111 249 -61 68 -124 94 -240 99 -78 3 -98 1 -147 -20z m180 -227 c47 -29 87
-143 63 -180 -13 -20 -249 -26 -257 -6 -8 21 16 109 39 143 23 35 69 62 102
63 11 0 35 -9 53 -20z"/>
</g>
</svg>
