<?xml version="1.0" standalone="no"?>
<!DOCTYPE svg PUBLIC "-//W3C//DTD SVG 20010904//EN"
 "http://www.w3.org/TR/2001/REC-SVG-20010904/DTD/svg10.dtd">
<svg version="1.0" xmlns="http://www.w3.org/2000/svg"
 width="1024.000000pt" height="1024.000000pt" viewBox="0 0 1024.000000 1024.000000"
 preserveAspectRatio="xMidYMid meet">
<metadata>
Created by potrace 1.16, written by Peter Selinger 2001-2019
</metadata>
<g transform="translate(0.000000,1024.000000) scale(0.100000,-0.100000)"
fill="#000000" stroke="none">
<path d="M7798 5901 c-108 -35 -188 -106 -235 -206 -25 -54 -28 -71 -28 -165
0 -93 3 -111 27 -162 15 -32 40 -77 57 -102 17 -25 31 -47 31 -49 0 -2 -26
-20 -59 -40 -82 -51 -174 -152 -202 -224 -20 -50 -24 -76 -24 -184 0 -125 0
-125 38 -201 81 -166 238 -252 457 -252 171 0 294 49 404 161 l62 62 79 -89
c44 -50 89 -93 100 -96 11 -2 85 -3 165 -2 120 3 145 6 148 18 1 9 -74 98
-167 199 -94 102 -169 187 -167 190 2 3 51 88 110 188 58 100 106 191 106 201
0 28 -18 32 -134 32 -128 0 -131 -2 -211 -144 -46 -81 -63 -103 -72 -93 -6 7
-54 59 -106 116 l-96 105 74 48 c83 54 143 118 177 186 20 40 23 62 23 157 0
106 -1 112 -34 173 -41 76 -84 115 -170 156 -59 27 -77 30 -181 33 -91 3 -127
-1 -172 -16z m232 -234 c67 -34 92 -141 47 -208 -12 -19 -56 -56 -96 -84 l-73
-50 -30 35 c-57 68 -81 118 -82 174 0 61 19 97 67 126 37 23 128 27 167 7z
m-69 -759 c73 -79 143 -155 156 -169 l24 -26 -46 -51 c-65 -72 -130 -102 -221
-102 -59 0 -81 5 -125 28 -119 62 -156 219 -79 334 25 36 131 127 151 128 4 0
66 -64 140 -142z"/>
<path d="M5488 5873 c-22 -25 -540 -1472 -536 -1497 3 -20 10 -21 124 -24 105
-2 122 0 136 15 8 10 39 88 68 173 29 85 58 161 63 168 8 9 78 12 315 10 l306
-3 58 -169 c33 -94 64 -176 70 -183 8 -9 46 -13 140 -13 107 0 130 3 135 16 9
23 -526 1503 -548 1515 -10 5 -85 9 -167 9 -129 0 -151 -2 -164 -17z m288
-621 c53 -151 94 -276 91 -278 -2 -2 -101 -3 -220 -2 l-215 3 74 210 c40 116
90 257 111 314 l36 105 14 -40 c8 -21 57 -162 109 -312z"/>
<path d="M6192 5878 c-8 -8 -12 -49 -12 -120 0 -96 2 -108 19 -118 12 -6 104
-10 230 -10 l211 0 0 -623 c0 -486 3 -627 13 -640 11 -15 28 -17 137 -15 l125
3 3 638 2 637 219 0 c186 0 222 2 235 16 20 20 23 213 4 232 -17 17 -1169 17
-1186 0z"/>
<path d="M8616 5874 c-12 -12 -16 -37 -16 -107 0 -144 -14 -137 251 -137 l219
0 0 -628 c0 -475 3 -631 12 -640 8 -8 51 -12 128 -12 77 0 120 4 128 12 9 9
12 165 12 640 l0 628 211 0 c126 0 218 4 230 10 17 10 19 22 19 118 0 71 -4
112 -12 120 -9 9 -154 12 -589 12 -512 0 -579 -2 -593 -16z"/>
</g>
</svg>
