<?xml version="1.0" standalone="no"?>
<!DOCTYPE svg PUBLIC "-//W3C//DTD SVG 20010904//EN"
 "http://www.w3.org/TR/2001/REC-SVG-20010904/DTD/svg10.dtd">
<svg version="1.0" xmlns="http://www.w3.org/2000/svg"
 width="735.000000pt" height="735.000000pt" viewBox="0 0 735.000000 735.000000"
 preserveAspectRatio="xMidYMid meet">
<metadata>
Created by potrace 1.16, written by Peter Selinger 2001-2019
</metadata>
<g transform="translate(0.000000,735.000000) scale(0.100000,-0.100000)"
fill="#000000" stroke="none">
<path d="M3500 6004 c-14 -2 -68 -12 -120 -20 -204 -35 -433 -130 -625 -259
-358 -240 -606 -606 -701 -1036 -26 -114 -28 -141 -28 -344 -1 -191 2 -235 22
-332 137 -678 647 -1188 1326 -1325 95 -20 142 -23 326 -23 241 0 335 14 532
81 577 194 1005 692 1114 1297 22 120 29 343 15 472 -70 649 -516 1205 -1130
1410 -192 64 -272 76 -501 80 -113 2 -216 2 -230 -1z m475 -589 c305 -80 574
-298 714 -581 190 -383 149 -829 -107 -1169 -454 -602 -1362 -588 -1801 29
-65 91 -139 252 -169 368 -24 94 -27 119 -26 278 1 155 4 186 27 273 86 324
307 589 610 732 170 81 296 106 507 100 116 -3 165 -9 245 -30z"/>
<path d="M3625 4920 c-228 -25 -431 -202 -490 -426 -17 -66 -20 -217 -4 -284
21 -94 78 -191 158 -271 125 -125 256 -175 436 -167 79 4 115 11 170 33 225
90 359 274 373 510 19 359 -284 643 -643 605z"/>
<path d="M4005 2485 c-184 -34 -301 -122 -381 -289 -50 -103 -68 -199 -61
-320 10 -187 60 -310 166 -417 148 -148 334 -176 530 -82 l74 35 20 -26 c18
-25 23 -26 108 -26 l89 0 0 305 0 305 -235 0 -235 0 0 -105 0 -104 108 -3 107
-3 3 -35 c8 -109 -133 -200 -264 -171 -140 32 -227 173 -227 366 1 224 113
370 283 370 100 -1 152 -36 197 -132 l24 -53 119 0 118 0 -10 42 c-39 177
-189 319 -368 347 -77 13 -76 13 -165 -4z"/>
<path d="M1020 2340 l0 -110 150 0 150 0 0 -435 0 -435 135 0 135 0 0 435 0
435 145 0 145 0 0 110 0 110 -430 0 -430 0 0 -110z"/>
<path d="M2007 2443 c-11 -18 -347 -1057 -347 -1072 0 -8 41 -11 133 -11 l133
0 35 108 35 107 161 3 160 2 16 -42 c9 -24 26 -73 39 -110 l23 -68 137 0 137
0 -33 98 c-27 79 -303 865 -338 965 l-10 27 -138 0 c-77 0 -141 -3 -143 -7z
m196 -526 l45 -127 -89 0 c-49 0 -89 3 -89 7 0 14 82 254 86 251 1 -2 23 -61
47 -131z"/>
<path d="M2680 1905 l0 -545 130 0 130 0 0 200 0 200 126 0 c125 0 126 0 155
-29 l29 -29 0 -141 c0 -133 1 -141 24 -168 24 -28 26 -28 150 -31 69 -2 126
-1 126 3 0 3 -10 19 -22 36 -21 28 -23 45 -28 187 -6 179 -18 216 -80 261
l-37 27 49 47 c91 86 118 198 79 327 -30 97 -82 150 -176 179 -61 19 -92 21
-361 21 l-294 0 0 -545z m550 312 c14 -7 33 -29 44 -50 16 -34 17 -42 4 -75
-23 -61 -61 -76 -210 -80 l-128 -4 0 111 0 111 133 0 c85 0 141 -5 157 -13z"/>
<path d="M4640 1905 l0 -545 390 0 391 0 -3 113 -3 112 -257 3 -258 2 0 120 0
120 223 0 222 0 -2 88 c-1 48 -2 95 -2 105 -1 16 -19 17 -226 17 l-226 0 3 93
3 92 263 3 262 2 0 110 0 110 -390 0 -390 0 0 -545z"/>
<path d="M5459 2443 c-2 -14 -2 -67 0 -140 l1 -72 153 -3 152 -3 3 -432 2
-433 130 0 130 0 0 435 0 435 155 0 155 0 0 110 0 110 -440 0 c-242 0 -440 -3
-441 -7z"/>
<path d="M6105 1475 c-30 -29 -32 -64 -5 -93 26 -28 80 -29 103 -4 24 26 21
77 -5 102 -29 27 -64 25 -93 -5z m93 -13 c41 -53 -28 -119 -82 -79 -26 19 -24
67 4 89 25 20 57 16 78 -10z"/>
<path d="M6120 1431 c0 -23 5 -41 10 -41 6 0 10 7 10 17 0 15 1 15 19 -1 17
-16 18 -15 17 21 -1 34 -4 38 -28 41 -27 3 -28 1 -28 -37z m42 14 c0 -5 -5
-11 -11 -13 -6 -2 -11 4 -11 13 0 9 5 15 11 13 6 -2 11 -8 11 -13z"/>
</g>
</svg>
