<?xml version="1.0" standalone="no"?>
<!DOCTYPE svg PUBLIC "-//W3C//DTD SVG 20010904//EN"
 "http://www.w3.org/TR/2001/REC-SVG-20010904/DTD/svg10.dtd">
<svg version="1.0" xmlns="http://www.w3.org/2000/svg"
 width="1024.000000pt" height="1024.000000pt" viewBox="0 0 1024.000000 1024.000000"
 preserveAspectRatio="xMidYMid meet">
<metadata>
Created by potrace 1.16, written by Peter Selinger 2001-2019
</metadata>
<g transform="translate(0.000000,1024.000000) scale(0.100000,-0.100000)"
fill="#000000" stroke="none">
<path d="M1045 6119 c-212 -21 -391 -169 -467 -389 -23 -64 -23 -70 -23 -605
0 -537 0 -540 23 -614 59 -186 206 -328 393 -378 58 -15 153 -17 1044 -17 893
0 986 2 1044 17 189 51 344 205 398 397 16 59 18 112 18 595 0 412 -3 540 -13
575 -28 95 -81 187 -144 252 -72 74 -128 109 -231 146 l-72 25 -950 1 c-522 1
-981 -2 -1020 -5z m1135 -758 c206 -126 375 -234 375 -241 0 -11 -739 -469
-757 -470 -5 0 -8 212 -8 470 0 259 3 470 8 470 4 0 176 -103 382 -229z"/>
<path d="M8002 5153 l3 -898 130 0 130 0 3 43 c3 45 13 52 34 24 7 -10 28 -29
46 -43 31 -22 42 -24 152 -24 138 0 151 6 212 96 71 105 72 110 76 539 3 338
1 393 -13 448 -33 121 -117 195 -224 196 -73 1 -134 -29 -217 -107 l-64 -59 0
341 0 341 -135 0 -135 0 2 -897z m485 132 c23 -26 23 -28 23 -323 -1 -333 -9
-432 -37 -470 -29 -38 -64 -62 -104 -68 -28 -5 -41 -1 -67 21 l-32 27 0 379 0
378 32 37 c40 46 62 55 118 50 33 -3 50 -11 67 -31z"/>
<path d="M3790 5977 c0 -7 15 -69 34 -138 19 -68 86 -308 148 -534 l113 -410
5 -320 5 -320 138 -3 137 -3 0 285 0 285 56 203 c177 640 261 954 257 961 -6
10 -261 9 -268 -2 -3 -5 -43 -199 -89 -431 -47 -232 -86 -424 -88 -426 -3 -2
-42 184 -87 414 -46 229 -87 425 -92 435 -9 15 -26 17 -139 17 -100 0 -130 -3
-130 -13z"/>
<path d="M6307 5983 c-4 -3 -7 -53 -7 -110 l0 -103 135 0 135 0 2 -757 3 -758
129 -3 c97 -2 131 1 138 10 4 7 8 349 8 760 l0 747 133 3 132 3 0 105 0 105
-401 3 c-220 1 -403 -1 -407 -5z"/>
<path d="M4913 5526 c-125 -41 -238 -159 -267 -279 -4 -15 -7 -173 -7 -350 0
-355 2 -376 62 -468 94 -148 292 -212 458 -150 86 33 170 111 213 199 l33 67
0 355 0 355 -32 66 c-39 79 -111 150 -190 186 -68 32 -203 41 -270 19z m179
-176 c48 -37 49 -50 46 -467 l-3 -391 -24 -26 c-37 -39 -92 -51 -137 -30 -64
31 -64 30 -64 470 l0 396 34 34 c29 29 41 34 79 34 29 0 53 -7 69 -20z"/>
<path d="M9213 5526 c-93 -30 -185 -115 -230 -211 l-28 -60 -3 -327 c-4 -373
2 -414 66 -508 179 -262 565 -198 656 110 25 84 24 86 -41 94 -31 4 -89 4
-130 0 l-73 -7 0 -54 c0 -82 -25 -118 -97 -138 -33 -9 -90 19 -107 54 -12 23
-16 63 -16 171 l0 140 58 1 c31 1 139 1 240 1 l184 -1 -4 232 -3 232 -31 65
c-39 82 -103 148 -178 185 -70 34 -193 44 -263 21z m183 -190 l34 -34 0 -186
0 -186 -110 0 -110 0 0 186 0 186 34 34 c28 28 42 34 76 34 34 0 48 -6 76 -34z"/>
<path d="M5590 4982 c0 -582 1 -597 60 -660 53 -56 85 -67 185 -65 110 1 189
28 251 85 l43 40 3 -64 3 -63 102 -3 102 -3 6 33 c3 18 4 301 3 628 l-3 595
-142 3 -143 3 0 -521 0 -521 -25 -24 c-19 -20 -34 -25 -77 -25 -29 0 -58 4
-64 8 -32 21 -34 52 -34 566 l0 516 -135 0 -135 0 0 -528z"/>
<path d="M7070 5000 c0 -321 4 -527 11 -559 14 -68 60 -136 106 -159 55 -28
108 -34 192 -22 90 13 146 36 199 85 l41 36 3 -63 3 -63 103 -3 102 -3 0 631
0 630 -140 0 -139 0 -3 -525 c-3 -604 5 -556 -102 -563 -107 -7 -100 -42 -104
570 l-3 518 -134 0 -135 0 0 -510z"/>
</g>
</svg>
