<?xml version="1.0" standalone="no"?>
<!DOCTYPE svg PUBLIC "-//W3C//DTD SVG 20010904//EN"
 "http://www.w3.org/TR/2001/REC-SVG-20010904/DTD/svg10.dtd">
<svg version="1.0" xmlns="http://www.w3.org/2000/svg"
 width="800.000000pt" height="800.000000pt" viewBox="0 0 800.000000 800.000000"
 preserveAspectRatio="xMidYMid meet">
<metadata>
Created by potrace 1.16, written by Peter Selinger 2001-2019
</metadata>
<g transform="translate(0.000000,800.000000) scale(0.100000,-0.100000)"
fill="#000000" stroke="none">
<path d="M3765 7744 c-22 -2 -92 -9 -155 -15 -885 -84 -1773 -531 -2373 -1194
-552 -611 -874 -1324 -969 -2150 -17 -144 -17 -626 0 -770 119 -1029 607
-1919 1402 -2552 840 -670 1926 -942 3000 -752 880 155 1697 643 2261 1351
656 822 934 1872 773 2915 -161 1047 -758 1973 -1649 2558 -489 322 -1028 518
-1625 591 -118 15 -575 27 -665 18z m3123 -1771 c78 -117 162 -255 202 -333
l20 -40 -3110 0 -3110 0 25 50 c37 72 128 220 207 338 l70 102 2808 0 2808 0
80 -117z m-4334 -648 c424 -96 763 -364 947 -749 170 -357 172 -789 4 -1143
-197 -418 -565 -694 -1025 -769 -125 -21 -368 -13 -490 15 -296 68 -572 237
-751 459 -207 257 -309 541 -309 862 0 456 223 873 602 1126 146 98 347 178
508 204 41 6 82 13 90 15 39 10 361 -5 424 -20z m4536 -2965 c-40 -78 -124
-216 -202 -333 l-80 -117 -2808 0 -2808 0 -80 118 c-78 116 -162 254 -202 332
l-20 40 3110 0 3110 0 -20 -40z"/>
<path d="M2160 4645 l-114 -365 -70 -1 c-39 -1 -205 -5 -370 -8 l-299 -6 297
-228 c223 -172 296 -233 292 -245 -3 -9 -51 -165 -106 -347 -55 -181 -105
-343 -110 -359 -8 -22 -7 -26 3 -19 6 5 116 88 242 183 127 95 258 195 291
222 l62 48 297 -225 c164 -124 299 -224 302 -222 2 3 -46 167 -107 366 -61
199 -108 365 -105 370 2 5 136 110 296 232 l292 224 -368 7 c-217 4 -371 11
-374 17 -3 5 -55 169 -116 365 -60 196 -112 356 -115 356 -3 0 -57 -164 -120
-365z"/>
</g>
</svg>
