<?xml version="1.0" standalone="no"?>
<!DOCTYPE svg PUBLIC "-//W3C//DTD SVG 20010904//EN"
 "http://www.w3.org/TR/2001/REC-SVG-20010904/DTD/svg10.dtd">
<svg version="1.0" xmlns="http://www.w3.org/2000/svg"
 width="225.000000pt" height="225.000000pt" viewBox="0 0 225.000000 225.000000"
 preserveAspectRatio="xMidYMid meet">
<metadata>
Created by potrace 1.16, written by Peter Selinger 2001-2019
</metadata>
<g transform="translate(0.000000,225.000000) scale(0.100000,-0.100000)"
fill="#000000" stroke="none">
<path d="M1002 2080 c-220 -31 -412 -129 -563 -287 -176 -184 -262 -399 -261
-653 1 -217 67 -411 196 -579 196 -255 536 -400 849 -362 431 53 759 359 832
780 86 488 -224 962 -705 1080 -98 24 -257 34 -348 21z m353 -171 c369 -114
607 -475 564 -856 -38 -345 -297 -626 -643 -700 -100 -21 -286 -13 -381 17
-221 69 -403 227 -499 430 -57 122 -71 186 -71 345 0 119 3 151 23 215 87 276
288 477 556 555 125 37 323 34 451 -6z"/>
<path d="M620 1435 l0 -215 145 0 145 0 0 -75 0 -75 -145 0 -145 0 0 -220 0
-220 235 0 236 0 -3 73 -3 72 -162 3 -163 2 0 76 0 75 145 -3 145 -3 0 218 0
217 -145 0 -145 0 0 75 0 75 165 0 165 0 0 70 0 70 -235 0 -235 0 0 -215z"/>
<path d="M1160 1580 l0 -70 165 0 165 0 0 -75 0 -75 -145 0 -145 0 0 -215 0
-215 145 0 145 0 0 -75 0 -75 -162 -2 -163 -3 0 -70 0 -70 233 -3 232 -2 0
220 0 220 -145 0 -145 0 0 75 0 75 145 0 145 0 0 215 0 215 -235 0 -235 0 0
-70z"/>
</g>
</svg>
