<?xml version="1.0" standalone="no"?>
<!DOCTYPE svg PUBLIC "-//W3C//DTD SVG 20010904//EN"
 "http://www.w3.org/TR/2001/REC-SVG-20010904/DTD/svg10.dtd">
<svg version="1.0" xmlns="http://www.w3.org/2000/svg"
 width="900.000000pt" height="900.000000pt" viewBox="0 0 900.000000 900.000000"
 preserveAspectRatio="xMidYMid meet">
<metadata>
Created by potrace 1.16, written by Peter Selinger 2001-2019
</metadata>
<g transform="translate(0.000000,900.000000) scale(0.100000,-0.100000)"
fill="#000000" stroke="none">
<path d="M4324 6305 c-333 -60 -603 -262 -753 -561 -43 -87 -85 -218 -96 -299
-3 -28 -8 -60 -11 -73 l-4 -22 371 2 372 3 -2 90 c-1 50 1 98 5 108 6 16 30
17 284 17 212 0 281 -3 287 -12 8 -14 15 -522 7 -550 -5 -17 -27 -18 -289 -18
-249 0 -284 2 -289 16 -3 9 -6 58 -6 110 l0 94 -371 0 -371 0 7 -57 c41 -344
254 -647 565 -803 509 -256 1133 -50 1390 460 162 320 144 712 -47 1018 -59
97 -202 245 -294 307 -221 148 -513 214 -755 170z"/>
<path d="M2010 3722 c-6 -2 -10 -132 -10 -346 0 -362 5 -407 50 -496 65 -127
228 -200 450 -200 284 0 450 108 490 320 5 29 10 203 10 386 l0 333 -100 3
c-55 2 -105 2 -110 0 -6 -2 -10 -132 -11 -345 0 -236 -4 -351 -12 -372 -41
-104 -110 -148 -244 -153 -147 -7 -234 35 -279 133 -24 49 -24 54 -24 392 l0
342 -100 3 c-55 2 -105 2 -110 0z"/>
<path d="M3463 3718 c-54 -15 -53 -5 -53 -513 0 -444 1 -473 18 -488 17 -15
56 -17 361 -17 316 0 346 1 398 20 73 26 121 64 156 126 26 46 28 55 24 144
-2 73 -8 105 -25 137 -22 42 -86 103 -109 103 -21 0 -15 17 13 35 40 26 77
116 76 189 0 139 -46 207 -167 246 -66 22 -88 23 -367 24 -163 1 -310 -2 -325
-6z m587 -173 c56 -29 78 -121 45 -185 -28 -55 -53 -60 -275 -60 l-200 0 0 33
c0 17 3 76 7 130 l6 97 194 0 c154 0 200 -3 223 -15z m42 -414 c66 -25 91
-144 46 -211 -36 -52 -68 -58 -300 -59 l-208 -1 0 118 c0 169 -2 168 268 165
92 -1 179 -6 194 -12z"/>
<path d="M6073 3718 c-18 -5 -37 -17 -43 -28 -7 -12 -9 -184 -8 -502 l3 -483
108 -3 107 -3 0 166 c0 92 4 175 10 185 16 29 66 40 189 40 l117 0 108 -195
108 -195 114 0 c63 0 114 2 114 5 0 3 -47 86 -104 183 -56 97 -108 187 -115
199 -11 21 -8 24 39 44 100 43 150 134 150 274 0 179 -61 258 -234 306 -49 14
-614 20 -663 7z m612 -175 c44 -21 65 -65 65 -138 0 -77 -16 -112 -61 -135
-34 -18 -59 -20 -244 -20 l-205 0 0 155 0 155 205 0 c173 0 210 -3 240 -17z"/>
<path d="M4790 3700 c-19 -19 -20 -33 -20 -493 0 -448 1 -475 18 -491 17 -15
57 -16 412 -14 l393 3 29 69 c15 38 28 75 28 83 0 11 -61 13 -335 13 l-335 0
0 94 c0 52 4 106 10 120 17 45 42 51 243 56 l189 5 29 68 c16 38 29 73 29 78
0 5 -108 9 -250 9 l-251 0 3 128 3 127 304 5 304 5 29 69 c15 38 28 73 28 78
0 4 -189 8 -420 8 -407 0 -421 -1 -440 -20z"/>
</g>
</svg>
