<?xml version="1.0" standalone="no"?>
<!DOCTYPE svg PUBLIC "-//W3C//DTD SVG 20010904//EN"
 "http://www.w3.org/TR/2001/REC-SVG-20010904/DTD/svg10.dtd">
<svg version="1.0" xmlns="http://www.w3.org/2000/svg"
 width="1024.000000pt" height="1024.000000pt" viewBox="0 0 1024.000000 1024.000000"
 preserveAspectRatio="xMidYMid meet">
<metadata>
Created by potrace 1.16, written by Peter Selinger 2001-2019
</metadata>
<g transform="translate(0.000000,1024.000000) scale(0.100000,-0.100000)"
fill="#000000" stroke="none">
<path d="M2765 6908 c-717 -81 -1322 -592 -1524 -1288 -44 -151 -62 -264 -68
-440 -28 -801 481 -1522 1248 -1768 178 -57 277 -73 489 -79 326 -9 559 39
835 172 504 243 865 707 981 1259 31 150 43 412 25 562 -118 984 -1007 1693
-1986 1582z m145 -888 c159 -46 328 -150 417 -258 51 -63 120 -199 129 -254
l6 -35 -113 -5 c-431 -20 -741 -367 -655 -732 l14 -59 -102 5 c-55 3 -133 13
-171 23 l-70 17 -143 -97 c-78 -53 -142 -93 -142 -88 0 4 20 67 46 139 l46
132 -104 103 c-117 117 -157 182 -188 305 -90 350 153 701 555 802 115 30 127
31 270 27 95 -3 150 -9 205 -25z m693 -611 c378 -105 570 -468 412 -780 -33
-65 -98 -143 -150 -181 -24 -18 -44 -39 -45 -46 0 -8 21 -52 46 -99 25 -46 45
-86 43 -87 -2 -2 -60 21 -129 51 l-124 55 -89 -18 c-118 -23 -302 -16 -402 16
-295 93 -480 345 -444 606 35 256 268 462 571 504 87 12 225 2 311 -21z"/>
<path d="M2321 5684 c-62 -52 -48 -150 26 -181 98 -41 191 65 136 157 -32 56
-111 67 -162 24z"/>
<path d="M2881 5694 c-13 -9 -29 -32 -37 -50 -37 -89 60 -184 144 -140 43 22
62 54 62 104 0 62 -40 102 -102 102 -24 0 -54 -7 -67 -16z"/>
<path d="M3130 5105 c-73 -78 34 -193 114 -122 40 34 43 77 11 115 -35 42 -90
45 -125 7z"/>
<path d="M3570 5105 c-34 -37 -33 -90 4 -121 38 -33 80 -31 117 5 31 31 36 59
17 94 -28 54 -98 65 -138 22z"/>
<path d="M7023 6904 c-684 -99 -1251 -579 -1461 -1235 -66 -206 -76 -279 -76
-549 0 -217 2 -257 22 -348 101 -460 355 -850 727 -1117 182 -131 450 -247
680 -296 366 -77 777 -27 1120 135 210 100 353 202 520 371 215 217 363 471
450 770 50 174 60 253 60 490 0 248 -15 351 -80 553 -46 139 -157 362 -242
482 -88 124 -311 346 -433 432 -236 167 -515 276 -800 314 -130 17 -364 16
-487 -2z m182 -884 c206 -55 381 -176 480 -333 32 -52 85 -173 85 -196 0 -5
-44 -12 -97 -16 -474 -35 -775 -383 -667 -772 6 -22 4 -23 -57 -23 -35 1 -100
8 -144 16 -44 9 -93 18 -108 21 -24 5 -51 -10 -163 -87 -75 -51 -137 -90 -139
-88 -2 2 17 63 42 135 l45 131 -104 104 c-84 83 -111 117 -141 178 -88 181
-90 351 -7 525 109 227 305 364 604 421 97 19 269 11 371 -16z m687 -609 c331
-85 540 -373 474 -654 -26 -112 -62 -173 -159 -271 l-88 -88 50 -89 c27 -49
46 -89 41 -89 -4 0 -59 23 -121 50 -62 28 -122 50 -134 50 -11 0 -52 -7 -90
-15 -314 -66 -649 73 -779 325 -53 102 -71 239 -45 350 47 203 249 381 494
435 93 21 268 19 357 -4z"/>
<path d="M6654 5706 c-43 -19 -64 -53 -64 -102 0 -80 78 -134 151 -104 89 37
93 162 5 204 -41 19 -51 19 -92 2z"/>
<path d="M7225 5712 c-74 -25 -105 -95 -70 -162 44 -85 163 -75 201 16 33 78
-52 172 -131 146z"/>
<path d="M7463 5125 c-89 -38 -62 -165 36 -165 32 0 44 6 65 31 14 17 26 39
26 50 0 36 -29 77 -61 88 -18 6 -32 11 -33 11 -1 -1 -15 -7 -33 -15z"/>
<path d="M7900 5122 c-83 -41 -55 -162 38 -162 97 0 125 129 36 166 -40 17
-32 17 -74 -4z"/>
</g>
</svg>
