<?xml version="1.0" standalone="no"?>
<!DOCTYPE svg PUBLIC "-//W3C//DTD SVG 20010904//EN"
 "http://www.w3.org/TR/2001/REC-SVG-20010904/DTD/svg10.dtd">
<svg version="1.0" xmlns="http://www.w3.org/2000/svg"
 width="1024.000000pt" height="1024.000000pt" viewBox="0 0 1024.000000 1024.000000"
 preserveAspectRatio="xMidYMid meet">
<metadata>
Created by potrace 1.16, written by Peter Selinger 2001-2019
</metadata>
<g transform="translate(0.000000,1024.000000) scale(0.100000,-0.100000)"
fill="#000000" stroke="none">
<path d="M0 5125 l0 -2775 5120 0 5120 0 0 2775 0 2775 -5120 0 -5120 0 0
-2775z m3189 1785 c41 -6 79 -14 85 -20 5 -5 -8 -4 -30 3 -53 16 -518 16 -556
-1 -16 -6 -28 -7 -28 -2 0 5 19 11 43 14 23 3 53 7 67 10 53 8 349 5 419 -4z
m-609 -36 c-30 -7 -59 -12 -65 -10 -12 4 71 24 100 24 11 0 -5 -6 -35 -14z
m824 -5 c14 -6 8 -6 -19 -2 -22 4 -52 8 -67 8 -16 0 -28 4 -28 9 0 9 81 -1
114 -15z m-919 -19 c-27 -12 -43 -12 -25 0 8 5 22 9 30 9 10 0 8 -3 -5 -9z
m865 -5 c0 -11 12 -15 45 -15 25 0 45 -4 45 -10 0 -5 -25 -10 -55 -10 -52 0
-55 1 -55 25 0 14 5 25 10 25 6 0 10 -7 10 -15z m107 9 c-3 -3 -12 -4 -19 -1
-8 3 -5 6 6 6 11 1 17 -2 13 -5z m63 -19 c19 -7 28 -14 20 -14 -8 0 -28 6 -45
14 -39 17 -21 18 25 0z m-1037 -5 c15 0 27 -4 27 -10 0 -13 -77 -13 -82 1 -2
7 -25 3 -63 -11 -148 -53 -165 -70 -69 -70 30 0 54 -4 54 -10 0 -6 -28 -10
-65 -10 -50 0 -65 3 -65 15 0 9 -6 12 -15 9 -8 -4 -12 -10 -9 -15 3 -5 -1 -7
-8 -4 -18 7 -48 -15 -30 -22 6 -2 12 -20 12 -39 0 -34 0 -34 -45 -34 -41 0
-45 2 -45 25 0 17 -4 23 -15 19 -8 -4 -12 -11 -8 -17 3 -6 1 -7 -6 -3 -15 10
-43 -13 -34 -27 3 -6 1 -7 -5 -3 -6 4 -23 -1 -37 -10 -14 -9 -25 -14 -25 -10
0 3 27 23 61 45 51 33 65 38 86 30 31 -12 30 -12 36 11 4 16 2 18 -13 10 -10
-6 -22 -10 -27 -9 -16 0 173 93 247 120 41 16 84 26 95 24 11 -3 32 -5 48 -5z
m1107 -20 c8 -5 11 -10 5 -10 -5 0 -17 5 -25 10 -8 5 -10 10 -5 10 6 0 17 -5
25 -10z m-13 -27 c11 -28 30 -43 53 -43 16 0 20 4 16 16 -5 13 -1 15 21 9 38
-9 25 2 -23 19 -21 8 -33 15 -26 15 7 1 28 -5 46 -13 29 -12 33 -18 29 -40 -5
-25 -8 -26 -74 -26 l-69 0 0 40 c0 41 15 54 27 23z m158 -33 c3 -5 2 -10 -4
-10 -5 0 -13 5 -16 10 -3 6 -2 10 4 10 5 0 13 -4 16 -10z m58 -27 c3 -5 -6 -9
-20 -10 -19 -1 -22 1 -12 8 17 11 26 11 32 2z m42 -31 c-3 -3 -11 0 -18 7 -9
10 -8 11 6 5 10 -3 15 -9 12 -12z m70 -37 l20 -16 -20 10 c-11 5 -29 17 -40
26 l-20 16 20 -10 c11 -5 29 -17 40 -26z m71 -46 c3 -6 -5 -3 -20 6 -14 10
-26 19 -26 22 0 7 39 -17 46 -28z m-2041 -17 c-6 -5 -29 -23 -53 -42 -31 -24
-40 -35 -31 -41 8 -4 10 -11 6 -16 -5 -4 -12 -1 -17 7 -8 12 -21 4 -67 -42
l-58 -58 48 0 c40 0 47 -3 47 -20 0 -17 -7 -20 -45 -20 l-45 0 0 -45 c0 -45 0
-45 -35 -45 -27 0 -35 4 -35 18 0 32 -13 33 -45 5 -17 -16 -12 -9 11 14 23 23
40 44 38 46 -9 8 265 247 284 247 3 0 2 -4 -3 -8z m2140 -51 c73 -54 229 -205
257 -246 11 -16 -1 -7 -26 20 -25 28 -50 49 -56 48 -5 -2 -9 1 -7 5 3 11 -60
78 -98 104 -16 12 -24 15 -17 8 17 -20 15 -30 -7 -30 -12 0 -20 9 -23 24 -4
19 -1 23 11 19 9 -3 3 6 -14 20 -16 14 -33 23 -37 20 -5 -2 -8 1 -8 7 0 6 -5
8 -12 4 -6 -4 -8 -3 -4 4 3 5 -6 20 -21 32 -50 39 1 8 62 -39z m317 -323 c19
-24 43 -56 52 -73 17 -30 17 -30 -1 -5 -35 47 -63 76 -57 58 4 -11 1 -18 -6
-18 -8 0 -11 9 -7 26 3 20 0 28 -14 31 -11 3 -19 9 -19 14 0 19 19 7 52 -33z
m-2834 10 c-7 -13 -11 -26 -10 -30 1 -5 -4 -7 -10 -5 -8 1 -12 -6 -10 -18 15
-92 19 -83 -32 -90 -30 -5 -50 -14 -56 -26 -13 -23 -13 -52 0 -44 6 4 10 -17
10 -54 0 -58 -1 -61 -25 -61 -15 0 -25 6 -25 14 0 8 -6 16 -14 19 -16 6 -38
-36 -30 -58 6 -15 -7 -21 -18 -9 -7 6 39 113 55 129 5 6 4 0 -2 -12 -19 -36
-12 -40 9 -5 22 36 25 46 11 37 -5 -3 7 24 27 59 20 35 38 63 40 61 2 -2 -1
-13 -8 -24 -12 -24 -8 -26 23 -10 31 16 31 16 13 35 -18 17 -17 18 47 102 15
20 19 14 5 -10z m2932 -150 c18 -27 18 -29 2 -11 -11 12 -22 20 -24 18 -3 -3
-5 2 -5 10 0 21 3 19 27 -17z m-1940 -13 c-7 -8 -27 -15 -44 -14 l-31 1 33 8
c18 4 36 10 39 14 13 12 15 5 3 -9z m185 -5 c-4 -6 9 -10 33 -10 49 0 168 -30
252 -64 36 -14 56 -19 46 -11 -11 8 -16 15 -10 15 17 -1 44 -27 36 -35 -4 -5
1 -5 11 -2 10 4 16 3 12 -3 -3 -5 3 -14 14 -19 26 -14 34 -14 25 2 -5 8 -2 8
9 -2 19 -15 23 -26 5 -15 -7 5 -8 3 -4 -5 5 -7 15 -10 23 -7 8 3 11 2 8 -4 -3
-5 4 -14 15 -20 11 -6 20 -8 20 -4 0 3 7 1 15 -6 8 -7 13 -16 10 -20 -2 -4 5
-16 17 -26 12 -11 18 -14 15 -7 -4 6 -4 14 1 17 4 2 9 -5 9 -16 1 -12 14 -33
29 -47 15 -14 24 -20 20 -13 -5 9 6 12 43 12 l51 0 0 -35 c0 -32 -14 -48 -22
-25 -1 5 -18 14 -35 19 l-33 10 24 -36 c13 -19 33 -41 45 -49 12 -9 21 -23 20
-32 0 -12 -3 -9 -10 7 -5 13 -12 21 -15 18 -3 -3 4 -22 16 -44 11 -21 18 -28
15 -15 -6 20 -3 22 39 22 l46 0 0 -80 0 -80 135 0 135 0 0 -39 c0 -30 -5 -41
-18 -45 -22 -7 -85 22 -76 35 3 5 -7 9 -23 8 -15 -1 -64 8 -107 20 -44 12 -93
21 -110 22 -29 0 -29 1 -8 9 25 11 27 32 6 75 -8 17 -12 21 -8 10 3 -11 8 -32
11 -47 l6 -28 -60 0 c-33 0 -65 -5 -72 -12 -11 -10 -13 -10 -7 0 4 6 2 12 -3
12 -6 0 -11 -4 -11 -9 0 -5 -9 -7 -20 -4 -47 12 -275 -60 -275 -88 0 -7 -6
-14 -14 -17 -9 -3 -11 0 -6 8 4 7 -4 6 -23 -4 -17 -9 -34 -22 -38 -28 -6 -10
-4 -11 7 0 22 21 33 13 13 -10 -14 -16 -8 -14 26 9 45 30 167 83 192 83 10 0
9 3 -2 11 -11 8 -8 9 15 5 17 -3 46 -2 65 3 19 5 26 9 16 10 -11 1 -17 3 -15
5 2 3 68 0 147 -5 156 -9 279 -42 364 -95 24 -15 48 -27 55 -27 7 0 11 -3 9
-6 -2 -3 19 -23 48 -44 29 -22 37 -26 19 -10 -18 16 -33 33 -33 38 0 5 18 -8
39 -30 22 -21 39 -43 38 -49 -1 -6 4 -10 12 -8 8 2 11 -3 8 -12 -3 -8 2 -20
11 -28 11 -9 14 -10 8 0 -5 9 6 12 44 12 l51 0 -3 -224 c-2 -129 -7 -222 -12
-219 -5 4 -6 -7 -3 -23 3 -16 4 -23 0 -16 -3 9 -12 -2 -24 -28 -22 -48 -18
-60 17 -60 20 0 24 -5 24 -30 0 -28 -2 -30 -39 -30 -47 0 -56 -11 -52 -62 2
-37 2 -38 -33 -38 -19 0 -37 4 -40 8 -2 4 17 30 43 58 26 28 50 60 53 72 8 30
4 28 -20 -10 -12 -18 -49 -62 -84 -98 -35 -35 -52 -55 -38 -43 l25 22 0 -88
c0 -74 -2 -85 -13 -72 -7 9 -4 -3 8 -27 11 -23 25 -40 30 -37 6 3 7 -1 4 -9
-7 -19 -14 -19 -49 -6 -17 7 -24 7 -20 0 3 -6 13 -10 21 -10 14 0 14 -2 0 -15
-8 -8 -32 -15 -54 -15 -38 0 -40 1 -44 36 -4 37 -6 37 47 20 11 -4 -9 7 -45
24 -38 18 -66 27 -68 21 -5 -16 -39 -13 -45 3 -3 8 -1 17 6 20 7 3 1 3 -12 0
-15 -4 -21 -2 -17 4 4 6 -17 5 -51 -4 -32 -7 -71 -14 -88 -14 -20 0 -26 -3
-17 -9 21 -13 -22 -21 -103 -19 l-70 2 80 6 80 6 -65 2 c-67 2 -164 15 -212
27 -24 6 -28 4 -28 -14 0 -16 -6 -21 -25 -21 -18 0 -25 5 -25 19 0 11 -12 23
-30 31 -17 7 -29 14 -27 16 2 3 20 -3 40 -11 20 -8 42 -15 49 -15 7 0 -18 14
-56 30 -38 16 -74 27 -80 23 -6 -3 -8 -3 -4 2 4 4 -14 22 -40 39 -26 17 -71
56 -101 86 -30 30 -48 46 -40 35 13 -18 13 -19 -3 -7 -9 8 -15 19 -12 26 3 7
-2 19 -11 26 -8 7 -15 9 -15 5 0 -4 -9 4 -20 18 -26 33 -26 46 0 16 l21 -24
-16 33 c-9 18 -20 30 -24 27 -5 -3 -9 5 -8 18 0 12 -7 49 -17 82 -17 60 -20
267 -4 242 5 -8 8 -6 8 5 0 9 9 37 19 61 16 37 17 46 6 51 -18 7 -56 -93 -58
-154 -1 -25 -6 -48 -11 -52 -9 -6 3 -123 20 -200 6 -28 6 -28 -52 -30 l-59 -2
55 -3 c30 -2 60 -9 65 -15 7 -8 3 -9 -15 -4 -14 3 -46 6 -72 6 -31 0 -47 4
-45 12 1 7 -26 16 -73 24 -41 7 -90 17 -108 23 -23 7 -30 7 -26 -1 5 -7 2 -9
-8 -5 -9 3 -36 -9 -64 -27 -47 -32 -48 -34 -45 -79 3 -47 -15 -67 -21 -24 -2
12 -9 21 -16 19 -8 -1 -11 2 -7 8 3 5 13 10 21 10 8 0 14 5 14 10 0 14 -12 12
-38 -6 -12 -8 -20 -19 -17 -24 3 -4 -2 -11 -11 -14 -9 -3 -12 -2 -8 5 3 6 -19
-6 -50 -27 -45 -29 -59 -35 -69 -25 -9 10 -9 12 2 9 12 -3 42 68 65 154 6 20
5 19 -9 -4 -20 -35 -28 -36 -15 -2 6 14 10 57 10 96 0 70 0 71 20 53 11 -10
20 -28 20 -39 1 -20 1 -20 11 -3 9 16 5 24 -22 47 -19 15 -39 26 -45 23 -7 -2
-15 1 -20 8 -4 8 -3 10 4 5 23 -14 12 0 -34 44 -26 25 -44 38 -40 30 4 -8 -6
0 -23 19 -17 19 -28 38 -25 42 2 4 -11 36 -30 71 -34 63 -65 160 -67 214 -2
28 -2 27 -10 -6 -7 -30 -7 -28 -4 15 13 154 14 179 6 145 -7 -31 -9 -32 -10
-8 -1 33 8 60 19 53 5 -3 12 9 15 27 4 18 23 65 42 103 23 48 28 62 13 45
l-21 -25 18 36 c10 20 21 32 24 27 4 -7 9 -6 13 1 4 6 5 15 2 20 -3 4 4 17 17
27 21 19 21 19 7 -1 -11 -15 -7 -14 13 4 30 27 38 51 10 30 -10 -7 0 6 22 30
22 23 54 52 70 63 l30 20 -24 -21 c-13 -12 -19 -21 -15 -21 5 0 23 12 39 26
17 14 24 23 18 19 -9 -4 -11 -1 -6 10 4 12 8 13 13 5 4 -7 13 -9 20 -5 9 6 9
10 -1 17 -10 6 -7 7 10 3 17 -5 22 -4 16 5 -5 9 -4 11 3 6 6 -4 31 3 54 15 98
50 232 82 428 102 19 2 39 5 43 5 5 1 5 -2 2 -8z m58 3 c-7 -2 -21 -2 -30 0
-10 3 -4 5 12 5 17 0 24 -2 18 -5z m60 -10 c-7 -2 -19 -2 -25 0 -7 3 -2 5 12
5 14 0 19 -2 13 -5z m-386 -9 c-3 -3 -12 -4 -19 -1 -8 3 -5 6 6 6 11 1 17 -2
13 -5z m528 -19 c5 -7 19 -18 30 -25 l20 -12 -20 8 c-11 3 -38 13 -60 22 -22
8 -53 18 -70 23 -19 5 -9 6 30 2 33 -3 64 -11 70 -18z m4140 10 c285 -50 512
-224 609 -468 15 -38 26 -73 24 -78 -2 -6 -42 -12 -88 -15 -265 -14 -491 -133
-611 -322 -81 -127 -105 -298 -63 -449 6 -22 4 -23 -57 -23 -35 1 -100 8 -144
16 -44 9 -93 18 -108 21 -24 5 -51 -10 -163 -87 -75 -51 -137 -90 -139 -88 -2
2 17 63 42 135 l45 131 -104 104 c-85 84 -111 117 -141 179 -106 216 -86 433
57 634 170 237 519 366 841 310z m-4708 -1 c-3 -3 -12 -4 -19 -1 -8 3 -5 6 6
6 11 1 17 -2 13 -5z m2164 -136 c51 -100 31 -77 -26 30 -30 57 -55 106 -55
110 0 9 43 -65 81 -140z m-2204 126 c-3 -3 -12 -4 -19 -1 -8 3 -5 6 6 6 11 1
17 -2 13 -5z m-42 -14 c-3 -5 -12 -10 -18 -10 -7 0 -6 4 3 10 19 12 23 12 15
0z m-55 -19 c0 -5 -8 -11 -17 -15 -10 -3 -25 -9 -33 -12 -8 -3 -1 4 15 15 34
24 35 24 35 12z m-973 -173 c-1 -17 4 -24 21 -26 18 -3 22 -10 22 -38 0 -29
-3 -34 -24 -34 -19 0 -26 6 -28 28 -4 27 -5 26 -22 -12 -10 -22 -18 -54 -19
-72 -1 -17 -5 -30 -9 -27 -13 7 -9 -12 4 -25 10 -10 10 -15 -2 -22 -32 -20
-32 11 -1 102 51 150 64 177 58 126z m3357 -130 c19 -59 37 -117 40 -130 2
-13 11 -61 20 -108 9 -46 19 -116 22 -155 3 -38 8 -74 11 -80 4 -7 2 -7 -5 0
-6 6 -13 40 -16 76 -8 109 -28 203 -45 217 -9 8 -10 11 -3 7 7 -4 12 0 12 9 0
12 -10 16 -36 16 l-35 0 2 108 c1 63 -4 119 -10 137 -7 17 -8 26 -3 20 6 -5
26 -58 46 -117z m-3423 -133 c18 6 19 0 19 -94 l0 -101 -25 0 c-24 0 -25 2
-26 73 0 53 -3 66 -9 50 -5 -13 -12 -23 -14 -23 -3 0 -2 10 3 23 5 12 9 25 10
29 11 58 16 71 19 55 3 -12 9 -16 23 -12z m616 -27 c-3 -8 -6 -5 -6 6 -1 11 2
17 5 13 3 -3 4 -12 1 -19z m1526 -75 c-7 -2 -21 -2 -30 0 -10 3 -4 5 12 5 17
0 24 -2 18 -5z m-2196 -50 c-3 -10 -5 -2 -5 17 0 19 2 27 5 18 2 -10 2 -26 0
-35z m6695 8 c303 -78 506 -324 484 -588 -11 -137 -69 -248 -188 -358 l-70
-65 50 -90 c28 -49 47 -90 42 -90 -4 0 -59 23 -121 50 -62 28 -122 50 -133 50
-10 0 -55 -7 -99 -16 -97 -20 -268 -14 -362 11 -156 43 -288 134 -372 258 -74
108 -97 190 -91 316 6 113 28 176 93 267 93 130 236 221 410 259 93 21 268 19
357 -4z m-4747 -1 c-27 -12 -43 -12 -25 0 8 5 22 9 30 9 10 0 8 -3 -5 -9z
m-80 -30 c-3 -5 -12 -10 -18 -10 -7 0 -6 4 3 10 19 12 23 12 15 0z m-1880 -90
c-4 -45 -9 -79 -12 -76 -2 2 -1 41 3 85 3 45 9 80 11 77 3 -3 2 -41 -2 -86z
m672 -72 c-3 -7 -5 -2 -5 12 0 14 2 19 5 13 2 -7 2 -19 0 -25z m-666 -313 c6
-60 22 -153 34 -205 13 -52 22 -96 20 -98 -2 -2 -8 13 -14 34 -46 180 -62 302
-59 459 l2 110 3 -95 c1 -52 8 -144 14 -205z m3576 173 c-2 -24 -4 -5 -4 42 0
47 2 66 4 43 2 -24 2 -62 0 -85z m-2857 7 c0 -5 -5 -3 -10 5 -5 8 -10 20 -10
25 0 6 5 3 10 -5 5 -8 10 -19 10 -25z m20 -30 c7 -9 8 -15 2 -15 -5 0 -12 7
-16 15 -3 8 -4 15 -2 15 2 0 9 -7 16 -15z m801 -22 c-12 -20 -14 -14 -5 12 4
9 9 14 11 11 3 -2 0 -13 -6 -23z m2030 -45 c-4 -35 -6 -38 -9 -15 -3 26 3 57
10 57 2 0 1 -19 -1 -42z m-2054 -50 c-3 -7 -5 -2 -5 12 0 14 2 19 5 13 2 -7 2
-19 0 -25z m1380 -10 c-3 -8 -6 -5 -6 6 -1 11 2 17 5 13 3 -3 4 -12 1 -19z
m665 -38 c-6 -43 -12 -37 -12 13 0 25 4 37 8 29 5 -7 7 -26 4 -42z m-2711 23
c12 -14 12 -16 0 -8 -11 6 -13 4 -8 -9 4 -10 7 -22 7 -27 0 -5 7 -9 15 -9 8 0
15 -2 15 -4 0 -2 3 -11 6 -20 5 -12 -1 -16 -24 -16 -29 0 -30 2 -34 51 -3 44
-1 59 7 59 2 0 9 -8 16 -17z m2056 -80 c-2 -16 -4 -3 -4 27 0 30 2 43 4 28 2
-16 2 -40 0 -55z m-1400 15 c-3 -8 -6 -5 -6 6 -1 11 2 17 5 13 3 -3 4 -12 1
-19z m-1427 -69 c0 -70 -2 -80 -17 -77 -18 3 -28 35 -36 111 -4 46 -4 47 24
47 l29 0 0 -81z m3465 19 c-4 -29 -12 -62 -16 -73 -8 -17 -9 -17 -5 5 3 14 8
46 11 73 4 26 9 47 12 47 3 0 2 -24 -2 -52z m-2028 -40 c-3 -7 -5 -2 -5 12 0
14 2 19 5 13 2 -7 2 -19 0 -25z m1380 10 c-3 -8 -6 -5 -6 6 -1 11 2 17 5 13 3
-3 4 -12 1 -19z m-1370 -50 c-3 -8 -6 -5 -6 6 -1 11 2 17 5 13 3 -3 4 -12 1
-19z m1990 -64 c-6 -20 -13 -32 -14 -27 -4 11 14 63 21 63 2 0 -1 -16 -7 -36z
m-2214 6 c-3 -11 -14 -20 -24 -20 -21 0 -22 1 -13 24 9 25 43 21 37 -4z m1552
-22 c-10 -13 -14 -16 -11 -8 3 8 9 24 13 35 4 11 8 14 11 7 2 -6 -4 -22 -13
-34z m-1738 17 c0 -8 -9 -15 -21 -15 -20 0 -20 0 0 15 10 8 19 15 20 15 0 0 1
-7 1 -15z m253 0 c0 -9 -9 -15 -25 -15 -16 0 -25 6 -25 15 0 9 9 15 25 15 16
0 25 -6 25 -15z m-471 -44 c-6 -18 -13 -30 -15 -28 -2 2 1 18 7 36 6 18 13 30
15 28 2 -2 -1 -18 -7 -36z m2591 -38 c-11 -17 -11 -17 -6 0 3 10 6 24 7 30 0
9 2 9 5 0 3 -7 0 -20 -6 -30z m-3411 -23 c0 -10 -3 -8 -9 5 -12 27 -12 43 0
25 5 -8 9 -22 9 -30z m3390 -39 c-6 -18 -13 -30 -15 -28 -2 2 1 18 7 36 6 18
13 30 15 28 2 -2 -1 -18 -7 -36z m-2530 22 c-4 -23 3 -33 21 -33 15 0 20 -7
20 -25 0 -23 -4 -25 -45 -25 -44 0 -45 1 -45 31 0 19 7 37 18 45 19 15 33 18
31 7z m-758 -228 c15 -33 24 -44 27 -33 2 10 -4 25 -12 34 -25 25 -19 34 25
34 l40 0 -2 -84 c-1 -72 2 -90 21 -120 12 -21 27 -33 33 -30 8 5 8 2 0 -6 -7
-8 -14 -12 -16 -9 -47 57 -200 358 -212 416 -4 16 11 -12 33 -62 22 -49 50
-112 63 -140z m1490 178 c13 -16 12 -17 -3 -4 -17 13 -22 21 -14 21 2 0 10 -8
17 -17z m1738 -112 c-23 -50 -44 -90 -45 -88 -2 2 15 45 38 95 23 50 44 89 46
87 2 -2 -15 -44 -39 -94z m-1629 7 c0 -10 -7 -18 -15 -18 -9 0 -15 9 -15 22 0
12 -8 30 -17 41 -15 17 -12 16 15 -3 17 -13 32 -32 32 -42z m1560 -146 c0 -5
-7 -17 -15 -28 -14 -18 -14 -17 -4 9 12 27 19 34 19 19z m-30 -56 c0 -3 -4 -8
-10 -11 -5 -3 -10 -1 -10 4 0 6 5 11 10 11 6 0 10 -2 10 -4z m-26 -41 c-4 -8
-11 -15 -16 -15 -6 0 -5 6 2 15 7 8 14 15 16 15 2 0 1 -7 -2 -15z m-34 -45
c-6 -11 -13 -20 -16 -20 -2 0 0 9 6 20 6 11 13 20 16 20 2 0 0 -9 -6 -20z
m-2876 -66 c6 0 23 -2 39 -2 23 -2 27 -6 27 -31 0 -61 -39 -40 -105 54 l-27
40 27 -30 c16 -16 33 -30 39 -31z m2824 -5 c-58 -73 -151 -173 -208 -224 -32
-29 -41 -35 -22 -14 18 19 29 39 25 44 -5 4 -3 5 3 2 14 -8 66 41 58 55 -4 6
-3 8 3 5 13 -8 66 47 56 58 -5 4 -3 5 4 1 14 -8 65 62 56 77 -3 6 -2 7 4 4 5
-3 17 3 26 14 32 37 28 19 -5 -22z m-2724 -112 c4 4 4 -1 0 -10 -3 -10 -7 -17
-8 -15 0 2 -12 17 -26 33 l-25 30 26 -23 c14 -12 29 -19 33 -15z m21 -37 c3
-5 1 -10 -4 -10 -6 0 -11 5 -11 10 0 6 2 10 4 10 3 0 8 -4 11 -10z m52 -50
c13 -17 30 -27 35 -23 6 3 8 2 5 -4 -7 -11 52 -59 68 -56 6 2 15 -9 22 -22
l11 -25 -26 19 c-51 37 -163 141 -152 141 6 0 23 -14 37 -30z m2383 -73 c0 -5
-121 -102 -154 -123 l-29 -18 14 21 c7 12 15 20 19 18 6 -4 76 44 73 50 -2 3
0 6 5 6 4 1 21 12 37 25 30 24 35 27 35 21z m-2210 -72 c11 -13 10 -14 -4 -9
-9 3 -16 10 -16 15 0 13 6 11 20 -6z m37 -12 c-4 -3 -1 -13 6 -22 11 -14 10
-14 -5 -2 -21 15 -23 31 -6 31 6 0 8 -3 5 -7z m68 -45 c5 4 5 1 1 -5 -4 -8 -2
-14 6 -15 7 0 18 -2 23 -3 6 -2 17 -3 25 -4 11 -1 12 -3 3 -9 -17 -10 83 -65
100 -56 7 4 9 4 5 -1 -10 -11 61 -48 79 -41 8 3 12 2 9 -3 -3 -5 30 -21 74
-37 44 -15 78 -29 76 -32 -15 -14 -301 115 -404 183 -43 28 -57 44 -23 26 10
-6 22 -7 26 -3z m1896 -27 c-61 -47 -385 -192 -425 -191 -6 1 25 14 69 31 122
46 155 61 155 71 0 4 10 8 23 9 12 0 60 22 107 49 92 53 109 60 71 31z m-1651
-75 c0 -8 -10 -13 -25 -13 -13 0 -30 6 -36 13 -9 11 -5 14 25 14 24 0 36 -5
36 -14z m233 -120 c21 -8 37 -9 37 -4 0 5 6 3 14 -4 7 -8 54 -20 105 -27 50
-7 93 -16 95 -20 7 -11 -208 28 -266 49 -29 10 -46 19 -38 19 8 0 32 -6 53
-13z m975 -2 c-10 -9 -111 -34 -138 -33 -14 0 4 7 39 14 35 8 66 17 69 20 3 3
12 5 20 5 9 0 13 -3 10 -6z m-208 -45 c-103 -21 -306 -32 -405 -23 -94 8 -87
9 110 10 116 1 224 6 240 12 17 6 46 10 65 10 33 0 32 -1 -10 -9z"/>
<path d="M1680 6375 c-13 -14 -19 -25 -14 -25 12 0 42 20 30 20 -5 0 -3 7 4
15 20 25 5 17 -20 -10z"/>
<path d="M2054 5827 l-29 -32 30 25 c17 14 32 26 34 28 2 1 2 4 -1 7 -2 3 -18
-10 -34 -28z"/>
<path d="M2333 5689 c-18 -11 -33 -25 -33 -31 0 -5 7 -2 16 6 20 20 34 20 34
1 0 -11 12 -15 50 -15 51 0 60 6 38 29 -11 10 -9 11 5 5 10 -3 24 -18 32 -33
8 -14 14 -21 15 -14 0 7 -10 24 -23 38 -31 37 -91 43 -134 14z"/>
<path d="M2915 5703 c-11 -2 -25 -13 -30 -25 -6 -11 -14 -20 -19 -19 -13 4
-26 -21 -26 -52 0 -27 25 -87 36 -87 3 0 2 5 -1 10 -4 6 17 10 54 10 l61 0 0
45 c0 25 -4 45 -10 45 -5 0 -10 14 -10 30 0 38 21 39 49 4 12 -15 21 -22 21
-17 0 5 -11 20 -24 32 -18 17 -30 20 -52 16 -22 -5 -25 -4 -14 4 13 10 13 11
0 9 -8 0 -24 -3 -35 -5z"/>
<path d="M2292 5602 c-5 -111 141 -143 193 -42 8 16 15 35 15 42 0 7 -9 -7
-20 -31 -24 -52 -35 -47 -31 14 l2 45 -51 0 c-50 0 -50 0 -50 -32 0 -18 -3
-43 -6 -56 -5 -18 -9 -20 -21 -11 -11 10 -11 14 -1 20 10 7 9 9 -4 9 -13 0
-18 11 -21 43 l-4 42 -1 -43z m128 -88 c0 -2 -16 -4 -35 -4 -19 0 -35 4 -35 8
0 4 16 6 35 4 19 -2 35 -6 35 -8z"/>
<path d="M3036 5592 c-10 -55 -38 -82 -90 -84 l-41 -1 37 -4 c62 -7 116 48
106 109 -3 17 -6 12 -12 -20z"/>
<path d="M2902 5297 c-12 -13 -19 -27 -15 -32 5 -4 0 -5 -9 -2 -12 4 -29 -8
-58 -43 -23 -27 -39 -53 -36 -58 2 -4 0 -14 -6 -22 -8 -12 -9 -12 -4 3 8 24
-1 21 -15 -4 -6 -13 -7 -19 -1 -15 6 3 12 0 15 -6 2 -8 11 0 19 17 9 17 37 51
62 78 25 26 46 55 46 65 0 13 2 14 9 4 6 -10 10 -10 21 3 11 13 10 14 -6 8
-17 -6 -17 -5 -5 10 20 25 8 21 -17 -6z m-51 -70 l-24 -22 19 27 c10 14 21 24
23 22 3 -3 -6 -15 -18 -27z m-21 -31 c0 -3 -4 -8 -10 -11 -5 -3 -10 -1 -10 4
0 6 5 11 10 11 6 0 10 -2 10 -4z"/>
<path d="M4000 5130 c6 -11 13 -20 16 -20 2 0 0 9 -6 20 -6 11 -13 20 -16 20
-2 0 0 -9 6 -20z"/>
<path d="M3155 5119 c-41 -24 -56 -68 -39 -114 7 -17 55 -45 76 -44 7 0 4 5
-7 10 -16 7 -13 8 13 4 92 -14 99 134 7 150 -16 3 -39 0 -50 -6z m17 -24 c-4
-24 -22 -36 -22 -14 0 5 -4 7 -10 4 -5 -3 -10 -2 -10 3 0 5 10 14 23 20 12 6
23 11 23 11 1 1 -1 -10 -4 -24z m43 15 c3 -6 -1 -7 -9 -4 -18 7 -21 14 -7 14
6 0 13 -4 16 -10z m45 -64 c0 -22 -8 -39 -22 -52 l-23 -19 19 22 c12 15 17 33
14 57 -2 19 0 32 4 30 4 -3 8 -20 8 -38z m-119 -43 c13 -16 12 -17 -3 -4 -17
13 -22 21 -14 21 2 0 10 -8 17 -17z"/>
<path d="M3588 5114 c-51 -27 -49 -98 4 -137 29 -21 59 -19 93 8 18 15 17 15
-12 0 -18 -8 -43 -13 -55 -10 -21 5 -23 11 -20 67 3 46 1 59 -9 53 -8 -5 -10
-4 -5 3 8 13 37 17 35 5 -5 -29 3 -35 41 -31 38 3 39 3 43 -32 l4 -35 1 38 c2
28 -4 44 -23 62 -27 28 -57 31 -97 9z m97 -14 c3 -6 -1 -7 -9 -4 -18 7 -21 14
-7 14 6 0 13 -4 16 -10z"/>
<path d="M4044 5036 c11 -35 22 -60 24 -55 5 12 -27 107 -38 114 -4 3 2 -24
14 -59z"/>
<path d="M1975 4987 c10 -15 20 -25 23 -22 3 3 -5 16 -17 28 l-23 22 17 -28z"/>
<path d="M2136 4755 c-3 -9 -6 -22 -5 -28 0 -7 5 -1 10 12 5 13 8 26 5 28 -2
2 -6 -3 -10 -12z"/>
<path d="M3825 4410 c-6 -9 21 -70 31 -70 2 0 0 9 -6 20 -6 11 -8 26 -4 32 5
7 3 8 -6 3 -10 -6 -12 -4 -7 8 7 18 2 23 -8 7z"/>
<path d="M6654 5706 c-70 -31 -87 -120 -35 -178 26 -29 35 -33 81 -33 46 0 55
4 81 33 80 89 -18 226 -127 178z"/>
<path d="M7225 5712 c-77 -26 -107 -101 -66 -168 49 -81 165 -65 200 28 28 74
-59 165 -134 140z"/>
<path d="M1241 5604 c0 -11 3 -14 6 -6 3 7 2 16 -1 19 -3 4 -6 -2 -5 -13z"/>
<path d="M4652 5705 c0 -5 6 -26 13 -45 7 -19 14 -28 14 -20 0 8 -6 29 -14 45
-7 17 -13 26 -13 20z"/>
<path d="M4681 5610 c0 -8 4 -22 9 -30 12 -18 12 -2 0 25 -6 13 -9 15 -9 5z"/>
<path d="M1216 5523 c-6 -14 -5 -15 5 -6 7 7 10 15 7 18 -3 3 -9 -2 -12 -12z"/>
<path d="M7463 5125 c-89 -38 -62 -165 36 -165 32 0 44 6 65 31 14 17 26 39
26 50 0 36 -29 77 -61 88 -18 6 -32 11 -33 11 -1 -1 -15 -7 -33 -15z"/>
<path d="M7900 5122 c-84 -42 -55 -162 40 -162 96 0 122 129 34 166 -40 17
-32 17 -74 -4z"/>
<path d="M1400 4251 c0 -5 7 -14 15 -21 12 -10 15 -10 15 3 0 8 -7 17 -15 21
-8 3 -15 2 -15 -3z"/>
<path d="M1585 3980 c10 -11 20 -20 23 -20 3 0 -3 9 -13 20 -10 11 -20 20 -23
20 -3 0 3 -9 13 -20z"/>
</g>
</svg>
