<?xml version="1.0" standalone="no"?>
<!DOCTYPE svg PUBLIC "-//W3C//DTD SVG 20010904//EN"
 "http://www.w3.org/TR/2001/REC-SVG-20010904/DTD/svg10.dtd">
<svg version="1.0" xmlns="http://www.w3.org/2000/svg"
 width="1024.000000pt" height="1024.000000pt" viewBox="0 0 1024.000000 1024.000000"
 preserveAspectRatio="xMidYMid meet">
<metadata>
Created by potrace 1.16, written by Peter Selinger 2001-2019
</metadata>
<g transform="translate(0.000000,1024.000000) scale(0.100000,-0.100000)"
fill="#000000" stroke="none">
<path d="M4715 10230 c-1000 -33 -2026 -229 -2935 -560 -175 -64 -479 -189
-563 -231 l-38 -20 5 -57 c3 -31 8 -277 11 -547 3 -269 8 -605 11 -745 9 -478
24 -1553 34 -2487 5 -513 14 -983 20 -1045 43 -461 145 -845 361 -1358 38 -90
162 -336 232 -461 538 -961 1412 -1832 2367 -2359 191 -106 467 -233 585 -270
22 -7 45 -16 50 -20 9 -7 28 -12 170 -46 33 -7 96 -15 140 -16 67 -1 95 3 170
29 255 87 707 317 1025 521 115 73 341 224 360 239 8 7 80 61 160 120 80 59
159 119 175 134 37 33 60 53 116 99 146 118 569 532 569 556 0 2 14 17 30 32
17 16 30 34 30 40 0 6 3 12 8 14 6 2 54 59 112 131 8 11 21 25 28 32 6 8 12
17 12 21 0 4 18 31 40 60 22 29 40 58 40 64 0 5 5 10 10 10 6 0 10 6 10 13 0
7 9 18 20 25 11 7 20 21 20 32 0 11 5 20 10 20 6 0 10 7 10 15 0 8 4 15 10 15
5 0 12 11 16 25 3 14 9 25 13 25 4 0 13 16 20 35 7 20 21 41 31 47 10 6 16 17
14 23 -3 7 2 18 11 25 8 7 15 18 15 25 0 8 15 33 34 58 19 24 37 55 41 68 4
13 11 29 15 34 4 6 34 60 66 120 32 61 61 112 65 115 3 3 10 19 13 36 4 17 16
41 26 52 11 12 20 27 20 34 0 7 7 27 16 43 14 28 131 295 149 340 87 224 181
527 220 709 52 241 65 363 75 721 14 491 42 2864 52 4350 l3 469 -58 28 c-77
37 -403 148 -612 208 -594 171 -1272 292 -2005 359 -325 30 -511 40 -900 51
-383 10 -422 10 -755 0z m1050 -249 c61 -5 182 -15 270 -21 508 -35 1255 -140
1750 -247 66 -14 139 -29 162 -34 126 -25 404 -98 578 -150 102 -31 287 -91
293 -95 4 -2 9 -94 46 -794 9 -157 18 -306 22 -332 l6 -46 -154 62 c-341 140
-801 279 -1223 371 -66 14 -138 30 -160 35 -22 6 -94 19 -160 31 -652 112
-1115 160 -1722 175 l-263 7 0 -451 0 -452 1840 0 1840 0 0 -65 0 -65 -1837 0
-1838 0 0 -460 0 -460 1832 0 1833 0 0 -70 0 -70 -1110 0 -1110 0 0 -405 0
-405 1105 0 1105 0 0 -42 c0 -24 -3 -53 -6 -65 l-6 -23 -1099 0 -1099 0 0
-505 0 -505 1095 0 1095 0 0 -70 0 -70 -1079 0 -1080 0 -5 -42 c-3 -24 -8 -74
-11 -113 -8 -92 -45 -247 -89 -370 -20 -55 -36 -102 -36 -104 0 -2 8 4 19 13
50 45 110 244 137 456 9 69 17 126 18 127 0 0 479 3 1064 5 703 2 1062 0 1062
-7 0 -46 -22 -304 -31 -360 -54 -352 -201 -835 -359 -1180 -47 -104 -214 -439
-220 -445 -4 -3 -24 -39 -46 -81 -40 -78 -141 -252 -175 -301 -11 -15 -19 -30
-19 -34 0 -3 -10 -20 -22 -37 -13 -17 -27 -39 -33 -48 -95 -152 -215 -311
-372 -491 -91 -105 -380 -385 -484 -470 -36 -29 -100 -81 -141 -116 -107 -89
-433 -324 -581 -418 -186 -118 -345 -214 -355 -214 -3 0 -13 -7 -22 -15 -50
-45 -721 -358 -736 -343 -2 3 -4 181 -4 397 0 215 0 908 0 1540 l0 1148 58 6
c31 4 71 9 88 13 27 5 32 3 37 -18 10 -39 46 -78 71 -78 24 0 70 36 78 60 3
11 16 4 48 -23 46 -39 103 -50 128 -25 17 17 15 72 -5 114 -19 38 -21 39 -113
19 -14 -4 18 9 70 28 147 52 267 117 375 202 38 30 79 45 340 125 219 67 472
131 638 162 229 43 505 25 715 -46 151 -52 305 -145 470 -283 34 -29 68 -53
76 -53 14 0 26 21 26 46 0 11 -4 12 -19 2 -17 -10 -27 -5 -77 38 -228 195
-409 288 -648 333 -214 41 -401 37 -643 -14 -115 -25 -342 -82 -433 -110 -328
-100 -422 -133 -434 -154 -4 -5 -36 -29 -74 -54 -184 -121 -443 -208 -706
-237 -55 -6 -101 -12 -102 -13 -2 -1 -6 -710 -10 -1575 l-7 -1573 -61 3 -61 3
-3 712 -2 713 -1103 0 -1102 0 -57 64 c-32 36 -58 67 -58 70 0 3 524 5 1165 3
l1165 -2 0 255 c0 140 -3 353 -7 472 l-6 218 -1513 0 -1512 0 -36 65 c-20 36
-36 68 -36 70 0 3 698 5 1550 5 l1550 0 0 250 0 250 -41 0 c-81 0 -246 32
-363 71 -196 66 -383 169 -543 300 l-71 59 -1248 2 -1248 3 -18 60 c-10 33
-18 63 -18 68 0 4 547 7 1216 7 l1217 0 -27 33 c-178 221 -288 495 -312 775
l-7 82 -1117 0 -1117 0 -6 678 c-9 939 -25 2119 -32 2414 l-7 247 66 31 c37
16 68 30 71 30 2 0 32 13 67 29 131 61 443 176 663 244 258 81 378 113 725
196 271 64 791 150 1130 186 80 8 159 18 175 20 44 7 474 35 653 42 l152 6 0
-946 c0 -940 0 -947 20 -947 20 0 20 7 20 965 l0 965 -26 6 c-56 14 -452 -6
-794 -41 -271 -27 -774 -102 -1005 -150 -353 -73 -407 -85 -670 -151 -257 -64
-595 -168 -780 -239 -38 -14 -90 -34 -115 -42 -25 -9 -108 -45 -185 -80 -77
-36 -147 -65 -155 -66 -13 -2 -15 45 -11 378 2 209 6 461 10 559 l6 180 95 47
c367 185 1218 410 1980 524 207 30 446 64 505 70 33 4 112 13 175 20 130 16
449 43 650 55 167 10 866 4 1015 -9z"/>
<path d="M4790 9883 c-8 -3 -25 -15 -37 -26 -22 -20 -23 -27 -23 -177 0 -152
1 -157 24 -179 13 -13 41 -27 63 -32 21 -5 163 -9 315 -9 l277 0 20 -26 c25
-32 27 -61 5 -92 -14 -21 -22 -22 -137 -22 -67 0 -220 -5 -339 -12 l-218 -12
0 -59 0 -59 333 6 c386 7 468 13 494 31 16 12 18 32 21 171 2 86 1 167 -2 179
-10 39 -44 42 -333 32 -150 -5 -287 -7 -306 -3 -63 12 -88 96 -42 142 l25 25
330 -3 330 -3 0 67 0 66 -392 1 c-216 0 -400 -3 -408 -6z"/>
<path d="M5895 9875 c-5 -2 -23 -6 -38 -10 -16 -3 -40 -18 -53 -32 l-24 -26 0
-292 c0 -270 1 -295 19 -316 20 -26 14 -25 379 -59 123 -12 237 -23 255 -25
18 -3 73 -8 123 -11 l91 -7 -3 63 c-2 35 -7 67 -11 70 -5 4 -98 13 -208 19
-296 18 -454 37 -476 57 -17 16 -19 34 -19 208 0 105 4 196 8 202 20 30 52 35
155 25 128 -13 424 -48 500 -59 l57 -9 0 69 c0 58 -3 68 -17 68 -10 0 -83 7
-163 15 -424 41 -565 55 -565 54 0 0 -4 -2 -10 -4z"/>
<path d="M4220 9854 c-63 -7 -191 -22 -285 -34 -93 -11 -194 -23 -222 -27
l-53 -6 0 -101 c0 -56 3 -219 7 -363 l6 -263 24 0 c13 0 44 5 69 11 l44 11 0
103 c0 113 6 128 57 139 32 7 344 36 385 36 41 0 93 -53 135 -137 l37 -75 60
6 c32 3 67 6 77 6 11 0 19 7 19 15 0 16 -74 164 -111 223 l-21 32 42 47 43 46
-7 135 c-8 140 -19 182 -55 202 -25 13 -106 11 -251 -6z m108 -154 c43 -40 42
-134 -2 -178 -27 -28 -70 -36 -354 -68 -112 -12 -146 -13 -157 -4 -11 9 -15
36 -15 105 0 92 0 93 28 103 27 11 347 54 453 60 14 1 35 -7 47 -18z"/>
<path d="M4125 9655 c-55 -7 -138 -18 -185 -24 -46 -6 -88 -11 -92 -11 -5 0
-8 -16 -8 -35 0 -41 -8 -40 142 -21 254 33 311 37 320 24 9 -15 11 42 2 66 -7
19 -36 19 -179 1z"/>
<path d="M6780 9442 c0 -288 3 -369 13 -369 6 0 38 -4 70 -8 l57 -7 0 142 0
142 28 -6 c15 -3 65 -12 112 -21 253 -46 363 -65 381 -65 18 0 19 -8 19 -149
l0 -149 63 -11 c35 -6 71 -11 80 -11 16 0 17 31 17 368 l0 367 -73 18 c-39 9
-75 17 -79 17 -5 0 -8 -70 -8 -155 0 -85 -1 -155 -2 -155 -2 0 -55 9 -118 20
-229 40 -404 70 -412 70 -4 0 -9 69 -10 152 l-3 152 -45 8 c-25 4 -55 10 -67
13 l-23 5 0 -368z"/>
<path d="M3045 9680 c-159 -33 -314 -65 -343 -71 -61 -12 -105 -46 -133 -101
-19 -38 -20 -47 -9 -206 6 -92 14 -216 17 -277 6 -103 8 -111 35 -138 17 -18
34 -26 45 -23 10 3 63 14 118 25 158 32 431 89 535 113 182 41 184 43 173 398
l-8 270 -30 29 c-48 48 -78 47 -400 -19z m240 -132 c25 -23 26 -26 32 -191 6
-200 4 -206 -84 -230 -90 -26 -404 -87 -443 -87 -54 0 -60 18 -66 205 -7 181
0 209 55 233 24 11 418 88 463 91 9 0 29 -9 43 -21z"/>
<path d="M3145 9505 c-33 -7 -116 -22 -185 -34 -157 -28 -186 -40 -195 -81 -8
-38 0 -48 25 -33 10 7 94 26 187 43 92 17 189 35 216 41 36 9 51 8 62 -1 13
-11 15 -8 15 18 0 67 -12 71 -125 47z"/>
<path d="M4934 9697 c-14 -60 -27 -58 351 -55 l345 3 0 33 0 32 -238 0 c-132
0 -287 3 -345 6 l-106 7 -7 -26z"/>
<path d="M5977 9693 c-4 -3 -7 -22 -7 -41 0 -27 3 -33 15 -28 9 3 55 2 103 -4
48 -5 152 -16 232 -25 138 -15 309 -39 357 -51 21 -6 23 -3 23 29 0 20 -4 38
-9 41 -11 7 -184 33 -346 52 -329 38 -356 40 -368 27z"/>
<path d="M7810 9247 l0 -374 68 -20 c490 -150 803 -243 811 -243 7 0 11 33 11
88 l0 88 -137 38 c-76 21 -185 52 -243 68 -86 24 -234 66 -332 94 -15 4 -18
17 -18 70 0 44 4 64 12 64 7 0 87 -23 178 -51 91 -28 210 -64 265 -81 55 -17
133 -41 174 -54 40 -13 77 -24 82 -24 5 0 9 39 9 88 l0 87 -67 19 c-38 11 -99
29 -138 41 -38 12 -168 51 -287 86 l-218 64 0 68 c0 37 1 67 3 67 1 0 36 -11
77 -24 41 -13 107 -33 145 -44 39 -12 159 -48 269 -81 109 -34 202 -61 207
-61 5 0 9 37 9 83 l0 83 -162 42 c-90 23 -228 60 -308 82 -80 22 -197 54 -260
70 -63 17 -123 33 -132 36 -17 5 -18 -17 -18 -369z"/>
<path d="M4680 9505 c0 -49 34 -110 75 -135 l38 -24 231 12 c127 7 264 12 304
12 65 0 72 2 72 20 0 11 -1 21 -2 22 -2 1 -143 4 -313 8 l-311 5 -31 25 c-18
14 -39 39 -47 55 l-16 30 0 -30z"/>
<path d="M2210 9485 c-41 -13 -156 -49 -255 -80 -99 -31 -216 -68 -260 -82
-44 -13 -113 -34 -153 -46 l-72 -22 6 -385 c4 -212 7 -386 8 -387 1 -1 43 12
94 30 l91 32 3 129 3 130 120 38 c313 101 367 118 465 148 58 17 113 34 123
37 10 2 26 14 36 24 17 19 19 38 17 216 l-2 196 -28 23 c-35 31 -95 31 -196
-1z m44 -177 c19 -27 21 -125 5 -162 -8 -16 -27 -29 -58 -39 -340 -109 -505
-158 -516 -153 -21 8 -21 188 -1 205 7 6 55 24 107 40 52 16 164 51 249 79 85
27 165 50 177 51 12 1 29 -9 37 -21z"/>
<path d="M2040 9228 c-85 -27 -194 -62 -242 -76 l-88 -27 0 -37 c0 -25 4 -36
13 -33 92 29 406 128 450 141 50 16 58 21 53 39 -3 11 -6 26 -6 33 0 17 -7 16
-180 -40z"/>
<path d="M4537 9455 c-26 -31 -27 -36 -14 -55 l14 -21 15 23 c15 23 29 89 19
87 -3 0 -19 -16 -34 -34z"/>
<path d="M8025 9351 c-3 -6 2 -14 12 -19 14 -8 423 -132 666 -203 21 -6 27 -4
27 7 0 8 -12 19 -27 25 -41 16 -651 199 -662 199 -6 0 -12 -4 -16 -9z"/>
<path d="M4176 9309 c-27 -4 -104 -13 -172 -18 -67 -6 -129 -13 -138 -17 -10
-4 -16 -18 -16 -41 0 -28 3 -33 18 -29 17 5 105 14 202 20 30 2 86 7 123 11
62 7 70 6 93 -15 32 -31 74 -103 90 -155 8 -29 17 -40 30 -38 122 12 239 25
241 27 2 1 -3 17 -10 35 l-12 32 -85 -7 c-47 -4 -98 -11 -114 -15 -36 -10 -39
-8 -60 55 -23 72 -63 134 -96 151 -16 8 -33 14 -37 14 -4 -1 -30 -5 -57 -10z"/>
<path d="M6960 9247 l0 -33 93 -18 c50 -10 124 -24 162 -31 39 -8 90 -17 115
-20 25 -4 53 -9 63 -11 14 -5 17 1 17 34 0 38 -1 40 -37 45 -21 3 -116 19
-210 36 -95 17 -179 31 -188 31 -10 0 -15 -10 -15 -33z"/>
<path d="M5612 9200 c-21 -35 -73 -50 -169 -50 -48 0 -238 -5 -420 -12 l-333
-12 0 -35 0 -34 293 7 c160 5 354 10 431 12 147 4 170 10 202 58 8 14 14 39
12 56 -3 30 -3 30 -16 10z"/>
<path d="M5730 9197 c0 -38 22 -87 54 -117 29 -26 22 -25 445 -65 90 -9 223
-22 295 -30 72 -8 137 -15 144 -15 7 0 12 14 12 35 0 31 -3 35 -32 39 -62 9
-458 49 -673 67 -154 13 -199 29 -225 78 -19 36 -19 36 -20 8z"/>
<path d="M3512 9068 c-18 -51 -84 -92 -170 -108 -58 -11 -239 -51 -297 -66
-11 -3 -35 -7 -53 -10 -18 -3 -97 -18 -175 -34 -181 -38 -200 -38 -239 1 l-31
30 6 -30 c9 -43 46 -90 76 -98 14 -3 80 4 146 17 66 13 163 31 215 41 52 9
113 22 135 28 22 6 94 22 160 37 122 26 140 33 187 67 32 24 61 92 56 132 l-3
29 -13 -36z"/>
<path d="M8020 9041 c0 -16 12 -22 63 -35 34 -8 85 -22 112 -30 28 -7 154 -43
280 -79 127 -36 238 -68 248 -72 9 -4 17 -3 17 1 0 12 -42 30 -121 53 -35 10
-102 31 -149 45 -47 15 -105 33 -130 40 -25 8 -99 30 -165 50 -66 20 -128 39
-137 42 -13 4 -18 0 -18 -15z"/>
<path d="M2453 9021 c-16 -20 -43 -34 -100 -51 -43 -13 -143 -45 -223 -72 -80
-27 -163 -53 -185 -59 -22 -5 -82 -23 -132 -40 l-93 -31 0 -34 c0 -19 2 -34 5
-34 6 0 128 38 415 130 118 37 228 71 244 75 47 10 96 66 96 109 0 20 -1 36
-2 35 -2 0 -13 -13 -25 -28z"/>
<path d="M3770 9023 c-117 -19 -120 -21 -120 -48 0 -13 4 -26 8 -29 4 -2 52 0
105 7 102 12 104 13 89 62 -7 20 -10 20 -82 8z"/>
<path d="M6740 8998 l0 -35 78 -12 c42 -7 92 -15 110 -18 31 -5 32 -4 32 30 0
35 -1 36 -52 47 -29 6 -79 14 -110 17 l-58 6 0 -35z"/>
<path d="M7420 8875 c0 -21 5 -35 13 -36 6 0 60 -10 120 -23 l107 -22 0 38 c0
21 -1 38 -3 38 -1 0 -49 9 -107 20 -58 11 -111 20 -117 20 -8 0 -13 -14 -13
-35z"/>
<path d="M7770 8795 c0 -34 1 -34 73 -55 39 -12 99 -30 132 -40 75 -24 362
-110 520 -156 66 -19 145 -44 176 -55 30 -10 58 -19 62 -19 4 0 7 15 7 34 0
27 -5 36 -27 44 -16 6 -194 61 -398 122 -203 62 -405 123 -448 136 -43 13 -82
24 -88 24 -5 0 -9 -16 -9 -35z"/>
<path d="M1690 8503 c-8 -3 -66 -24 -127 -45 l-113 -40 0 -35 c0 -29 3 -34 18
-30 9 3 64 22 122 41 58 20 111 36 118 36 7 0 12 15 12 40 0 40 -3 43 -30 33z"/>
<path d="M3634 8500 c-107 -22 -211 -107 -260 -210 -33 -70 -42 -96 -59 -194
-8 -43 -17 -82 -20 -85 -4 -3 -103 -29 -221 -57 l-214 -51 0 53 c0 142 56 264
172 377 l80 77 -53 0 c-106 0 -219 -46 -273 -111 -71 -84 -100 -195 -94 -354
l3 -95 -240 -80 c-160 -53 -242 -77 -249 -70 -6 6 -10 50 -10 98 1 142 52 253
177 388 38 41 63 74 55 74 -26 0 -118 -31 -156 -52 -45 -26 -127 -102 -152
-143 -51 -84 -74 -221 -60 -366 10 -106 12 -102 -62 -143 -27 -14 -68 -37 -92
-51 -25 -14 -49 -25 -53 -25 -5 0 -15 15 -21 34 -7 19 -29 49 -49 66 -32 29
-41 32 -81 27 -97 -11 -130 -83 -77 -167 15 -23 25 -43 23 -45 -2 -1 -25 -14
-53 -28 -70 -35 -90 -60 -89 -111 0 -23 6 -52 13 -64 28 -52 115 -52 196 -1
l48 30 32 -31 c52 -51 125 -60 183 -24 32 21 30 91 -5 155 -14 27 -24 51 -22
53 8 8 158 80 282 137 430 197 844 325 1237 381 125 18 430 15 535 -6 162 -31
290 -84 399 -164 l49 -36 -7 29 c-7 29 -43 95 -68 125 -48 57 -158 119 -268
150 l-79 23 14 27 c22 42 102 110 162 137 31 14 101 33 157 42 l101 17 -60 29
c-48 23 -78 29 -147 33 -76 4 -92 1 -140 -21 -81 -36 -178 -139 -218 -228
l-12 -26 -196 -5 c-109 -3 -200 -4 -203 -2 -12 7 13 109 43 183 41 98 137 202
231 249 36 17 74 32 84 32 17 1 17 1 1 11 -24 14 -165 20 -214 9z"/>
<path d="M3835 8405 c-102 -51 -156 -97 -210 -178 -30 -45 -72 -147 -61 -147
2 0 17 29 35 64 41 84 134 171 232 218 41 20 84 39 97 43 23 7 32 45 9 45 -7
0 -53 -20 -102 -45z"/>
<path d="M3147 8339 c-37 -28 -83 -72 -103 -97 -44 -58 -92 -157 -99 -202 -4
-30 -4 -31 4 -9 35 105 137 233 234 293 28 18 47 37 47 48 0 26 -8 23 -83 -33z"/>
<path d="M2442 8143 c-85 -86 -133 -157 -146 -218 -4 -22 2 -14 24 26 35 68
112 154 192 215 61 48 71 64 38 64 -12 0 -56 -36 -108 -87z"/>
<path d="M4325 8160 c-56 -13 -100 -37 -132 -70 -32 -33 -36 -54 -8 -43 8 3
15 8 15 12 0 15 91 52 152 62 35 6 92 8 128 5 70 -7 97 2 87 28 -5 13 -24 16
-109 15 -57 -1 -116 -4 -133 -9z"/>
<path d="M2281 7874 c0 -11 3 -14 6 -6 3 7 2 16 -1 19 -3 4 -6 -2 -5 -13z"/>
<path d="M3620 7823 c-366 -17 -833 -144 -1315 -360 -198 -89 -249 -118 -232
-131 11 -10 35 -2 123 39 729 344 1411 484 1848 378 112 -27 276 -104 350
-164 31 -25 65 -45 75 -45 22 0 51 35 51 62 0 17 -2 16 -20 -2 -27 -27 -41
-25 -86 11 -105 84 -236 148 -364 178 -81 20 -287 43 -340 39 -14 -1 -54 -3
-90 -5z"/>
<path d="M1982 7655 c0 -16 2 -22 5 -12 2 9 2 23 0 30 -3 6 -5 -1 -5 -18z"/>
<path d="M1530 7430 c0 -11 4 -20 9 -20 5 0 7 9 4 20 -3 11 -7 20 -9 20 -2 0
-4 -9 -4 -20z"/>
<path d="M3250 7290 c-79 -29 -129 -68 -178 -141 -38 -56 -76 -155 -96 -249
-5 -23 -16 -28 -168 -64 -90 -21 -167 -37 -173 -35 -23 9 11 162 54 244 33 65
65 110 115 163 l40 42 -35 0 c-91 0 -191 -64 -235 -153 -42 -81 -55 -135 -61
-249 -6 -104 -7 -107 -32 -117 -29 -11 -199 -84 -246 -106 -36 -17 -42 -14
-55 33 -26 94 0 259 51 334 11 14 19 30 19 36 0 5 7 15 16 22 8 8 19 22 25 32
9 16 7 17 -18 7 -77 -29 -127 -66 -163 -120 -57 -83 -74 -151 -73 -299 l0
-125 -114 -55 c-63 -30 -118 -56 -121 -57 -4 -2 -16 18 -27 45 -26 64 -56 92
-98 92 -90 0 -117 -90 -52 -174 19 -26 35 -48 35 -50 0 -2 -13 -6 -30 -9 -82
-17 -137 -84 -124 -153 9 -49 36 -68 94 -67 40 1 59 7 101 38 40 29 54 34 60
23 5 -7 9 -18 9 -24 0 -5 14 -25 31 -42 26 -27 39 -32 78 -32 54 0 86 19 95
55 9 34 -8 93 -38 138 l-24 36 131 65 c418 206 841 343 1169 377 63 7 176 10
260 7 l148 -6 0 99 c0 97 0 99 23 99 16 0 31 12 48 37 31 48 103 95 198 129
42 15 80 30 84 34 15 13 -76 42 -144 47 -113 9 -205 -45 -277 -161 -21 -34
-44 -76 -51 -94 -16 -39 -14 -39 -219 -49 -188 -9 -178 -16 -137 94 53 139
133 232 246 285 26 13 48 26 49 31 0 15 -136 6 -190 -13z"/>
<path d="M3560 7259 c-8 -5 -40 -13 -70 -19 -69 -13 -154 -67 -198 -126 -35
-47 -76 -134 -64 -134 5 0 16 17 25 38 21 48 92 125 139 151 20 11 65 25 100
32 35 7 69 18 76 25 19 16 12 44 -8 33z"/>
<path d="M2923 7223 c-71 -50 -79 -57 -115 -108 -49 -68 -75 -124 -82 -170
l-6 -40 14 42 c31 96 126 212 202 248 22 10 34 23 34 35 0 25 1 25 -47 -7z"/>
<path d="M1420 7182 c0 -7 9 -35 21 -62 18 -41 28 -51 69 -69 27 -12 63 -21
80 -21 49 0 117 20 136 41 16 18 18 18 52 -12 34 -30 37 -31 123 -27 70 2 93
7 116 24 36 27 73 81 73 107 0 16 -4 14 -22 -13 -37 -54 -69 -72 -141 -77 -84
-7 -130 2 -158 31 l-23 24 -36 -24 c-92 -61 -237 -30 -276 60 -7 17 -13 25
-14 18z"/>
<path d="M4010 7094 c-109 -36 -172 -68 -204 -103 -28 -31 -14 -36 27 -8 42
28 65 38 179 73 96 29 129 47 113 62 -7 7 -46 -1 -115 -24z"/>
<path d="M2366 7055 c-52 -65 -91 -140 -100 -195 -5 -27 -1 -22 15 20 22 55
71 131 117 182 13 14 22 32 20 39 -3 8 -25 -12 -52 -46z"/>
<path d="M3714 6438 c3 -233 7 -729 7 -1103 1 -785 1 -784 93 -1030 6 -16 32
-70 57 -120 262 -510 785 -809 1368 -782 365 17 664 148 916 402 207 208 337
454 391 742 15 79 17 207 18 1200 l1 1113 -1429 0 -1429 0 7 -422z m2760 -670
c7 -1043 5 -1136 -33 -1286 -129 -502 -504 -864 -1006 -968 -136 -28 -425 -27
-555 3 -278 64 -488 179 -680 372 -157 157 -262 326 -329 526 -61 184 -61 170
-63 1313 l-3 1042 1331 0 1331 0 7 -1002z"/>
<path d="M5612 6597 c-24 -67 -55 -151 -68 -187 -25 -66 -24 -73 12 -84 18 -5
22 -1 27 24 6 30 7 30 76 30 68 0 69 -1 80 -30 9 -28 12 -29 35 -19 21 10 24
17 19 38 -3 14 -9 31 -13 36 -4 6 -31 79 -61 162 -30 84 -56 153 -59 153 -3 0
-25 -55 -48 -123z m70 -95 c10 -26 18 -50 18 -54 0 -5 -18 -8 -41 -8 -34 0
-40 3 -35 16 4 9 11 36 17 61 13 50 17 49 41 -15z"/>
<path d="M5850 6515 l0 -175 30 0 c29 0 30 2 30 45 0 40 2 45 23 45 17 0 34
-15 62 -55 20 -30 40 -55 44 -55 3 0 14 7 24 15 18 13 18 15 -7 52 -33 48 -32
54 3 78 48 32 56 109 18 166 -27 40 -75 57 -164 58 l-63 1 0 -175z m155 105
c48 -18 56 -96 12 -118 -12 -6 -41 -14 -64 -17 l-43 -7 0 76 0 76 34 0 c19 0
46 -4 61 -10z"/>
<path d="M4240 6650 c0 -23 4 -30 20 -30 19 0 20 -7 20 -145 l0 -145 29 0 c28
0 29 1 26 43 -2 23 -1 88 2 145 5 87 8 102 23 102 12 0 17 9 17 30 l0 30 -69
0 -68 0 0 -30z"/>
<path d="M4780 6650 c0 -23 4 -30 20 -30 19 0 20 -7 20 -145 l0 -145 25 0 25
0 0 145 c0 138 1 145 20 145 16 0 20 7 20 30 l0 30 -65 0 -65 0 0 -30z"/>
<path d="M5010 6650 c0 -23 4 -30 20 -30 19 0 20 -7 20 -145 l0 -145 25 0 25
0 0 145 c0 138 1 145 20 145 16 0 20 7 20 30 l0 30 -65 0 -65 0 0 -30z"/>
<path d="M5305 6666 c-60 -27 -85 -81 -85 -183 0 -76 33 -152 75 -171 96 -44
175 30 175 166 l0 42 -55 0 c-54 0 -55 0 -55 -30 0 -26 3 -30 29 -30 29 0 29
0 19 -41 -22 -85 -93 -87 -122 -3 -19 56 -20 89 -5 135 19 55 39 72 78 65 42
-6 73 17 50 39 -22 20 -71 26 -104 11z"/>
<path d="M6170 6650 c0 -23 4 -30 20 -30 19 0 20 -7 20 -145 l0 -145 25 0 25
0 0 145 c0 138 1 145 20 145 16 0 20 7 20 30 l0 30 -65 0 -65 0 0 -30z"/>
<path d="M4000 6656 c-38 -21 -54 -58 -47 -107 7 -55 30 -76 96 -89 66 -12 81
-24 81 -62 0 -24 -6 -32 -37 -45 -34 -14 -40 -14 -69 2 -25 13 -36 15 -53 6
-11 -7 -21 -15 -21 -19 1 -17 56 -45 96 -50 107 -12 174 71 129 158 -18 35
-43 50 -110 65 -47 11 -50 13 -53 46 -3 30 1 37 24 47 20 10 33 10 59 1 28
-11 36 -10 50 5 16 16 16 19 2 33 -22 22 -115 28 -147 9z"/>
<path d="M4460 6510 c0 -98 4 -139 15 -160 31 -60 121 -79 182 -37 18 12 36
29 39 37 4 8 9 77 12 153 l4 137 -31 0 -31 0 0 -129 c0 -129 0 -130 -27 -151
-19 -15 -35 -19 -53 -15 -48 12 -50 19 -50 161 l0 134 -30 0 -30 0 0 -130z"/>
<path d="M5110 6169 c-14 -6 -45 -30 -70 -54 -25 -24 -70 -57 -100 -73 -30
-16 -73 -39 -95 -50 -43 -24 -86 -28 -133 -11 -56 19 -58 5 -9 -48 26 -27 44
-53 40 -56 -3 -4 -27 -7 -52 -7 -34 0 -60 -9 -112 -40 -37 -22 -69 -46 -72
-54 -4 -9 -27 -29 -53 -45 l-47 -29 26 -17 c22 -14 32 -15 59 -6 40 14 62 -1
32 -24 -19 -15 -19 -15 0 -30 18 -13 24 -12 72 15 52 29 53 29 98 14 48 -16
57 -33 31 -54 -8 -7 -20 -30 -25 -51 -6 -22 -15 -39 -20 -39 -4 0 -33 -23 -63
-50 -53 -49 -93 -115 -143 -237 -19 -49 -29 -51 -84 -23 -30 15 -46 34 -67 77
-34 68 -52 81 -87 65 -40 -18 -191 -241 -211 -311 -22 -78 -46 -135 -64 -156
-24 -27 -45 -81 -36 -94 9 -16 22 -14 82 14 54 26 64 43 38 65 -23 19 -18 47
14 88 16 20 35 56 41 80 14 54 69 148 109 186 35 34 44 30 94 -43 17 -25 34
-48 38 -51 4 -3 12 -25 19 -48 21 -79 30 -92 72 -98 40 -7 68 -34 68 -66 0 -9
-4 -19 -9 -23 -14 -8 -190 -45 -217 -45 -42 0 -44 -14 -33 -231 6 -112 13
-214 15 -227 3 -13 19 -32 37 -42 18 -11 43 -38 56 -60 12 -22 28 -40 35 -40
24 0 103 100 89 113 -3 4 -25 7 -47 7 -55 1 -86 27 -86 73 0 20 -5 48 -11 64
-13 31 -13 214 -1 223 5 3 12 13 15 23 6 16 15 18 65 14 31 -3 91 -14 132 -26
91 -26 139 -21 200 19 45 30 80 39 80 20 0 -16 88 -70 147 -91 45 -15 84 -19
197 -19 78 0 147 -4 155 -9 11 -7 11 -15 1 -45 -18 -54 -5 -96 45 -155 55 -64
58 -95 14 -137 -17 -16 -39 -43 -50 -61 -11 -17 -65 -61 -122 -99 -56 -37
-115 -79 -131 -93 -30 -27 -96 -124 -96 -141 0 -13 30 -13 84 2 43 11 45 13
43 50 -1 27 4 42 18 53 25 18 221 135 229 135 11 0 142 85 169 109 27 25 28
29 22 91 -6 61 -5 67 19 89 l25 24 39 -40 c21 -22 70 -55 108 -74 66 -33 69
-36 68 -69 -1 -19 -17 -70 -37 -112 -29 -64 -50 -91 -117 -155 -45 -43 -91
-95 -102 -117 -11 -21 -29 -48 -39 -60 -26 -27 -35 -66 -19 -76 7 -4 35 -1 64
8 28 8 57 16 65 18 10 3 12 15 7 42 -3 24 -1 44 7 54 18 22 108 83 143 97 22
9 37 26 53 61 13 28 47 76 77 107 30 32 54 64 54 72 0 8 7 22 16 32 18 20 11
40 -41 104 -89 111 -88 194 5 310 51 64 70 116 70 189 0 62 2 66 33 90 41 31
61 32 118 6 53 -24 116 -26 147 -4 26 18 21 34 -8 27 -14 -4 -30 3 -45 17 -25
24 -33 50 -15 50 21 0 70 83 70 119 l0 36 -26 -33 c-33 -42 -68 -56 -97 -41
-56 30 -50 64 13 79 49 12 90 46 90 76 0 17 -20 29 -29 17 -3 -5 -20 -13 -37
-16 -29 -5 -35 -2 -57 31 l-25 38 39 42 c30 31 39 49 39 76 0 68 -23 90 -34
31 -8 -38 -50 -95 -72 -95 -16 0 -54 57 -54 81 0 9 7 22 15 29 8 7 27 34 42
61 14 27 37 56 50 65 23 14 53 69 53 94 0 18 -29 10 -35 -10 -4 -13 -34 -34
-80 -55 -90 -43 -112 -69 -121 -143 -6 -51 -16 -71 -36 -72 -13 0 -48 68 -48
94 0 36 -15 32 -35 -10 -22 -47 -13 -98 28 -158 140 -203 157 -234 157 -291 0
-32 -50 -115 -69 -115 -5 0 -28 18 -51 40 -88 84 -91 85 -390 85 l-265 0 -37
25 c-54 36 -68 67 -68 146 0 172 133 257 227 145 l22 -26 1 48 c0 52 -16 91
-49 121 -33 30 -27 46 19 46 32 0 48 -7 79 -35 43 -39 51 -42 51 -20 0 50 -62
130 -115 148 -6 2 -4 11 4 20 19 24 62 21 101 -8 18 -14 36 -23 38 -20 11 11
-11 57 -36 72 -62 40 -113 88 -137 130 -24 43 -24 48 -10 70 19 28 53 43 101
43 47 0 43 17 -8 31 -50 13 -142 6 -194 -16 -75 -31 -154 -12 -154 36 0 43 17
78 45 91 51 23 11 39 -45 17z m-86 -218 c39 -16 66 -42 94 -96 24 -46 26 -62
29 -190 4 -151 -2 -180 -46 -201 -43 -22 -51 -9 -51 80 0 102 -24 266 -46 309
-9 17 -25 41 -35 53 -37 40 -4 67 55 45z"/>
<path d="M3125 6674 c-282 -43 -585 -143 -925 -306 -90 -43 -166 -81 -169 -84
-2 -2 0 -9 6 -15 9 -9 42 3 125 44 532 260 1019 379 1334 323 50 -8 98 -18
108 -22 11 -4 16 -1 16 10 0 54 -283 83 -495 50z"/>
<path d="M1531 6433 c-1 -18 19 -67 25 -61 3 3 -2 21 -10 39 -8 19 -15 29 -15
22z"/>
<path d="M3265 6376 c-185 -46 -289 -194 -322 -460 l-8 -59 -140 -43 c-77 -24
-145 -43 -152 -44 -20 0 -35 80 -31 160 7 106 59 217 147 314 l26 29 -40 -8
c-182 -32 -276 -201 -247 -446 7 -57 9 -106 5 -109 -5 -4 -26 -14 -48 -23 -22
-9 -78 -32 -124 -51 -47 -20 -85 -35 -86 -33 -20 24 -29 71 -33 158 -5 117 8
179 58 282 l28 58 -37 -7 c-91 -16 -158 -70 -185 -150 -24 -72 -21 -191 9
-302 14 -51 25 -101 25 -110 0 -10 -34 -40 -80 -71 l-81 -54 -51 58 c-61 68
-104 90 -145 74 -89 -34 -94 -110 -13 -202 l30 -34 -48 -26 c-61 -33 -104 -79
-104 -110 0 -34 20 -93 37 -107 39 -32 135 2 200 69 l29 31 48 -47 c45 -44 53
-48 96 -47 57 1 109 28 115 61 5 28 -32 111 -62 137 -38 35 -37 36 129 136
161 98 322 175 530 255 216 84 501 134 738 132 l142 -2 0 188 c0 123 -4 187
-10 187 -23 0 -109 -94 -140 -153 -18 -34 -34 -63 -35 -65 -6 -7 -360 -41
-367 -34 -14 14 10 122 42 190 40 85 108 168 210 255 39 33 41 37 19 36 -13 0
-46 -6 -74 -13z"/>
<path d="M3415 6337 c-129 -105 -210 -203 -247 -300 -10 -27 -17 -51 -16 -53
2 -1 19 27 38 64 33 65 174 220 244 269 16 11 27 26 25 36 -3 14 -11 11 -44
-16z"/>
<path d="M2809 6191 c-65 -67 -101 -126 -115 -186 -4 -19 6 -7 25 32 29 56 82
119 154 182 15 13 27 27 27 32 0 23 -30 3 -91 -60z"/>
<path d="M1450 6116 c0 -23 41 -77 72 -96 18 -11 49 -20 68 -20 36 0 120 33
131 52 4 6 23 -8 47 -34 40 -43 41 -43 109 -43 50 0 77 5 103 21 37 22 80 77
80 103 0 10 -8 4 -20 -15 -42 -65 -182 -96 -245 -54 -16 10 -36 29 -45 40
l-16 21 -49 -26 c-33 -16 -66 -25 -99 -25 -44 0 -53 4 -92 44 -24 24 -44 38
-44 32z"/>
<path d="M2365 6073 c-33 -35 -85 -143 -85 -174 1 -19 4 -16 14 13 18 51 60
119 90 147 14 14 26 28 26 33 0 16 -20 8 -45 -19z"/>
<path d="M3280 5703 c-228 -35 -352 -64 -510 -118 -131 -45 -610 -281 -610
-301 0 -23 24 -17 99 26 224 127 516 249 716 299 197 49 484 80 588 63 51 -8
57 -7 57 8 0 10 -7 21 -16 24 -17 6 -282 6 -324 -1z"/>
<path d="M1992 5680 c0 -14 2 -19 5 -12 2 6 2 18 0 25 -3 6 -5 1 -5 -13z"/>
<path d="M2006 5620 c8 -44 23 -84 29 -78 3 2 -4 29 -15 59 -14 39 -18 44 -14
19z"/>
<path d="M1610 5386 c0 -18 30 -76 40 -76 7 0 2 16 -11 38 -27 45 -29 47 -29
38z"/>
<path d="M1555 5065 c9 -44 51 -102 87 -121 44 -23 114 -13 189 27 l59 32 23
-20 c37 -34 63 -43 127 -43 90 0 154 37 179 103 11 28 11 28 -22 -6 -40 -43
-129 -73 -185 -62 -39 7 -107 39 -116 54 -4 5 -36 -6 -72 -25 -114 -59 -202
-44 -249 44 -21 39 -25 42 -20 17z"/>
<path d="M7150 4557 c-150 -39 -244 -153 -293 -356 -18 -71 -28 -96 -43 -101
-10 -4 -86 -24 -169 -45 l-150 -37 -52 -72 c-29 -39 -66 -86 -83 -105 -35 -38
-33 -48 7 -33 15 6 75 25 133 42 58 18 116 36 130 40 63 23 242 62 361 80 167
25 481 28 615 5 232 -40 445 -143 607 -293 l47 -45 0 45 c0 96 -62 207 -146
263 -30 20 -54 39 -54 43 0 12 32 54 61 82 59 56 112 86 218 120 l54 17 -49
29 c-40 24 -63 30 -126 33 -65 3 -85 -1 -130 -22 -61 -28 -131 -91 -177 -160
-23 -33 -36 -45 -44 -39 -10 8 -179 75 -240 96 -43 14 -29 62 48 164 64 85
163 158 240 176 l30 8 -27 14 c-15 8 -55 20 -89 28 -171 40 -324 -71 -424
-307 -15 -37 -32 -70 -36 -72 -8 -5 -268 10 -274 16 -8 9 33 137 60 187 31 58
102 137 154 172 31 21 32 24 15 31 -28 11 -123 9 -174 -4z"/>
<path d="M7417 4529 c-59 -31 -150 -130 -190 -207 -20 -39 -37 -73 -37 -77 0
-15 18 7 41 52 31 61 131 164 189 193 47 24 62 38 54 52 -7 11 -14 10 -57 -13z"/>
<path d="M7990 4435 c-67 -18 -148 -62 -189 -103 -50 -50 -103 -129 -92 -137
6 -3 23 14 39 37 53 77 123 126 230 160 39 12 72 28 72 35 0 19 -12 21 -60 8z"/>
<path d="M8475 4148 c-136 -34 -239 -80 -275 -123 -25 -30 2 -33 43 -5 55 37
128 65 202 79 61 11 85 25 85 47 0 15 1 15 -55 2z"/>
<path d="M6805 3516 c-22 -7 -51 -18 -64 -26 -49 -26 -124 -106 -152 -162 -38
-75 -69 -205 -69 -290 0 -65 -1 -67 -29 -73 -16 -3 -81 -23 -146 -44 l-117
-38 -19 44 c-38 88 -20 234 44 366 18 37 30 67 26 67 -10 0 -100 -48 -119 -63
-45 -36 -92 -107 -110 -165 -25 -81 -25 -136 0 -236 16 -63 18 -81 8 -88 -31
-19 -270 -140 -271 -136 -1 1 -17 32 -34 68 -50 100 -116 134 -187 99 -81 -39
-85 -111 -9 -187 l46 -45 -31 -26 c-49 -42 -82 -99 -82 -143 0 -51 52 -108 97
-108 37 0 88 38 123 90 l27 41 27 -55 c48 -99 112 -129 182 -87 17 10 36 32
43 49 11 26 10 36 -5 69 -10 21 -33 53 -52 72 l-35 35 29 23 c82 65 349 181
550 237 250 70 437 99 617 97 278 -4 471 -72 616 -217 30 -30 56 -52 59 -49 7
7 -18 94 -41 140 -31 64 -75 122 -134 181 -52 53 -54 56 -40 78 28 42 111 108
186 146 l74 38 -39 20 c-63 31 -99 34 -157 12 -65 -25 -128 -78 -179 -153 -39
-58 -40 -58 -81 -53 -23 3 -84 11 -136 17 l-93 12 5 50 c14 112 106 242 218
306 l49 28 -39 11 c-96 29 -198 0 -261 -75 -44 -54 -106 -185 -127 -271 -13
-58 -21 -73 -38 -76 -138 -27 -195 -36 -220 -38 l-30 -3 -3 89 c-5 140 42 258
146 368 56 60 61 68 41 67 -13 0 -42 -6 -64 -13z"/>
<path d="M6970 3474 c-65 -61 -135 -160 -163 -232 -29 -74 -18 -67 23 14 39
78 107 160 185 222 28 23 36 35 28 43 -7 7 -28 -6 -73 -47z"/>
<path d="M7440 3388 c-30 -18 -80 -57 -111 -88 -53 -53 -109 -143 -96 -156 3
-3 13 9 22 27 36 68 107 132 238 213 15 9 25 21 22 26 -9 14 -15 13 -75 -22z"/>
<path d="M6414 3368 c-51 -57 -126 -210 -110 -225 3 -3 6 -1 6 7 0 13 58 132
69 140 3 3 19 22 34 43 32 42 33 71 1 35z"/>
<path d="M5375 3180 c9 -48 34 -82 80 -104 l39 -19 50 26 c49 27 49 27 80 8
51 -32 98 -36 144 -12 45 23 82 64 82 93 0 15 -6 12 -30 -15 -49 -56 -139 -66
-204 -24 -21 14 -25 14 -52 -4 -33 -21 -90 -25 -128 -8 -14 7 -35 30 -46 53
l-21 41 6 -35z"/>
<path d="M7884 3151 c-96 -35 -214 -111 -214 -138 0 -19 8 -16 62 23 27 20 86
51 131 68 52 21 83 39 85 49 4 21 1 20 -64 -2z"/>
<path d="M6885 2811 c-227 -43 -388 -87 -555 -153 -155 -62 -280 -126 -280
-144 0 -20 19 -17 70 12 234 135 713 264 982 264 255 0 426 -71 599 -251 47
-49 90 -89 97 -89 16 0 39 39 46 80 l6 35 -16 -37 c-11 -26 -23 -38 -36 -38
-11 0 -52 35 -99 85 -114 120 -212 182 -359 227 -97 29 -322 34 -455 9z"/>
<path d="M5431 2703 c-1 -20 30 -93 40 -93 5 0 1 17 -9 38 -11 20 -22 44 -25
52 -3 9 -6 10 -6 3z"/>
<path d="M5387 2385 c39 -127 144 -215 225 -190 12 4 45 18 71 31 l49 23 31
-36 c36 -41 81 -63 130 -63 48 0 138 49 164 89 34 50 28 67 -8 26 -38 -43
-104 -75 -154 -75 -59 0 -126 37 -153 86 -9 16 -12 15 -40 -5 -17 -12 -56 -27
-85 -33 -50 -11 -58 -10 -103 13 -33 16 -59 39 -79 70 -16 25 -35 55 -42 65
-12 18 -12 18 -6 -1z"/>
<path d="M6336 2185 c-70 -29 -128 -81 -164 -150 -25 -46 -27 -59 -25 -155 1
-58 4 -118 5 -134 3 -28 -2 -33 -87 -77 -49 -27 -94 -48 -100 -48 -12 -1 -41
57 -60 123 -19 63 -19 122 0 176 8 24 13 45 10 48 -8 8 -74 -59 -93 -93 -10
-19 -16 -55 -16 -101 0 -63 4 -80 38 -148 l38 -78 -24 -25 c-12 -14 -51 -47
-85 -74 l-62 -48 -21 34 c-32 51 -86 95 -119 95 -34 0 -81 -43 -81 -74 0 -34
36 -83 82 -112 l42 -27 -25 -21 c-56 -49 -79 -87 -79 -129 0 -37 5 -45 34 -65
25 -17 42 -22 58 -17 40 12 82 51 113 104 17 28 33 51 38 51 4 0 24 -18 44
-41 45 -50 106 -83 136 -73 58 17 74 72 37 124 -11 16 -43 44 -71 62 l-51 33
43 38 c72 64 197 147 304 202 323 165 650 163 907 -7 31 -21 59 -38 62 -38 4
0 6 15 6 33 0 42 -44 96 -107 132 -27 16 -50 29 -51 31 -2 1 15 34 38 73 47
82 134 175 181 195 l31 13 -32 12 c-18 6 -54 11 -80 11 -80 0 -174 -77 -231
-190 -12 -25 -24 -46 -25 -48 -1 -2 -31 5 -66 16 -34 11 -87 23 -116 27 l-53
7 7 32 c23 107 132 252 220 292 l39 18 -43 4 c-95 7 -210 -52 -272 -143 -36
-53 -100 -183 -100 -205 0 -19 -219 -74 -235 -59 -5 6 -12 46 -14 91 -4 107
27 190 102 271 29 32 48 57 42 57 -5 0 -37 -11 -69 -25z"/>
<path d="M6458 2154 c-53 -54 -102 -140 -112 -194 -5 -27 -2 -23 17 21 25 60
83 137 124 167 15 11 24 26 22 37 -3 14 -13 8 -51 -31z"/>
<path d="M6964 2126 c-37 -17 -66 -38 -116 -88 -47 -48 -102 -127 -93 -136 4
-4 16 7 28 23 11 17 49 58 83 92 52 52 72 65 123 79 36 10 61 23 61 31 0 17
-45 16 -86 -1z"/>
<path d="M5997 1979 c-22 -33 -41 -88 -33 -96 3 -4 6 0 6 8 0 8 12 31 26 52
14 21 24 43 21 50 -2 6 -11 1 -20 -14z"/>
<path d="M7332 1970 c-42 -18 -131 -92 -171 -144 -65 -83 -48 -84 32 -2 50 52
91 84 130 101 72 33 80 73 9 45z"/>
<path d="M5730 1659 c0 -20 31 -111 37 -106 2 3 -5 31 -16 63 -11 33 -20 52
-21 43z"/>
<path d="M6495 1605 c-121 -28 -241 -78 -355 -147 -111 -68 -150 -97 -150
-114 0 -8 2 -14 4 -14 2 0 36 22 77 49 205 135 431 213 614 213 152 0 320 -60
432 -153 27 -22 55 -38 62 -37 18 4 47 52 56 93 5 24 3 22 -14 -12 -26 -56
-47 -55 -117 2 -163 132 -376 175 -609 120z"/>
<path d="M5420 1389 c0 -20 41 -81 58 -87 17 -5 15 25 -3 32 -8 3 -24 20 -35
38 -11 19 -20 26 -20 17z"/>
<path d="M5732 1085 c-58 -82 -125 -104 -208 -66 -22 10 -55 36 -72 57 -37 44
-42 36 -11 -16 25 -40 39 -53 93 -81 72 -39 152 -8 202 78 l25 41 45 -44 c77
-75 163 -83 221 -21 33 35 53 68 53 89 0 7 -9 -1 -19 -18 -38 -62 -118 -90
-185 -64 -14 5 -45 27 -69 49 l-44 40 -31 -44z"/>
</g>
</svg>
