<?xml version="1.0" standalone="no"?>
<!DOCTYPE svg PUBLIC "-//W3C//DTD SVG 20010904//EN"
 "http://www.w3.org/TR/2001/REC-SVG-20010904/DTD/svg10.dtd">
<svg version="1.0" xmlns="http://www.w3.org/2000/svg"
 width="900.000000pt" height="900.000000pt" viewBox="0 0 900.000000 900.000000"
 preserveAspectRatio="xMidYMid meet">
<metadata>
Created by potrace 1.16, written by Peter Selinger 2001-2019
</metadata>
<g transform="translate(0.000000,900.000000) scale(0.100000,-0.100000)"
fill="#000000" stroke="none">
<path d="M2122 6113 c-61 -21 -135 -99 -161 -168 -21 -55 -21 -62 -21 -1394 0
-1506 -5 -1399 76 -1490 23 -25 63 -57 90 -71 l49 -25 2345 0 2345 0 55 31
c61 34 121 105 139 164 8 27 11 415 11 1396 0 1345 -1 1359 -21 1404 -27 60
-83 117 -144 146 l-50 24 -2335 -1 c-2064 0 -2340 -2 -2378 -16z m1653 -393
c202 -19 382 -83 551 -196 46 -30 84 -58 84 -61 0 -3 -27 -36 -60 -75 -101
-117 -168 -224 -224 -360 -47 -113 -47 -118 8 -118 43 0 44 1 61 48 50 132
145 286 242 392 l49 53 69 -76 c85 -92 167 -221 211 -330 l33 -82 46 -3 c26
-2 45 1 45 7 0 19 -47 135 -83 206 -47 94 -130 211 -196 280 -62 64 -67 53 54
132 210 139 474 204 736 182 508 -43 928 -402 1050 -899 26 -109 36 -326 20
-440 -45 -307 -210 -587 -452 -770 -141 -106 -272 -169 -439 -211 -84 -21
-117 -24 -285 -24 -176 0 -197 2 -287 27 -162 45 -322 124 -418 205 l-30 25
54 59 c71 76 134 165 185 259 38 72 91 199 91 221 0 6 -19 9 -46 7 l-46 -3
-31 -75 c-59 -141 -150 -281 -240 -368 l-44 -43 -41 46 c-108 122 -191 254
-238 377 l-26 68 -45 0 c-45 0 -45 0 -40 -29 21 -104 158 -340 269 -464 l52
-59 -24 -19 c-109 -86 -265 -161 -427 -207 -91 -25 -111 -27 -288 -27 -166 1
-202 4 -280 24 -422 109 -746 428 -862 847 -26 93 -28 112 -28 299 0 187 2
206 27 297 135 484 545 834 1024 877 54 4 101 9 104 10 3 0 55 -4 115 -9z"/>
<path d="M4035 4808 c-10 -34 -85 -431 -85 -453 0 -16 12 -39 30 -57 29 -28
35 -30 86 -26 63 5 74 16 74 70 0 26 -4 36 -13 32 -7 -2 -21 2 -32 10 -18 13
-18 18 -6 97 19 128 19 129 52 129 24 0 30 5 38 38 15 50 15 50 -16 54 -30 3
-30 6 -19 76 l8 42 -56 0 c-37 0 -58 -4 -61 -12z"/>
<path d="M5033 4804 c-62 -23 -126 -84 -156 -151 -104 -236 36 -430 269 -372
49 13 51 20 28 78 -16 40 -17 40 -57 35 -60 -7 -99 7 -124 46 -41 60 -28 147
30 208 39 41 81 52 143 41 47 -9 49 -8 84 26 l35 36 -28 24 c-51 45 -145 57
-224 29z"/>
<path d="M6246 4793 c-3 -16 -8 -48 -12 -73 -9 -61 -12 -65 -39 -40 -29 27
-99 37 -149 20 -55 -18 -90 -53 -122 -122 -52 -114 -30 -240 49 -288 39 -24
66 -25 115 -5 33 14 38 14 48 0 9 -12 26 -15 75 -13 l63 3 13 65 c56 296 83
448 83 463 0 14 -10 17 -59 17 -57 0 -60 -1 -65 -27z m-90 -198 c63 -44 8
-205 -70 -205 -30 0 -66 42 -66 78 0 44 40 113 74 128 39 17 38 17 62 -1z"/>
<path d="M2686 4718 c-9 -40 -30 -147 -47 -238 -17 -91 -33 -175 -36 -187 -5
-22 -2 -23 54 -23 l60 0 18 98 c22 122 53 260 54 247 8 -68 30 -305 31 -322 0
-21 5 -23 58 -23 l58 0 49 113 c51 115 120 256 110 224 -3 -10 -14 -71 -25
-135 -12 -65 -25 -133 -30 -152 -6 -19 -10 -38 -10 -42 0 -14 120 -9 125 5 2
6 13 62 24 122 25 140 58 310 67 353 l7 33 -99 -3 -99 -3 -70 -154 -70 -155
-7 45 c-3 24 -7 74 -7 110 -1 36 -4 87 -7 113 l-7 46 -93 0 -93 0 -15 -72z"/>
<path d="M3327 4701 c-46 -10 -45 -8 -52 -56 l-7 -40 102 3 c107 4 119 0 120
-40 0 -15 -9 -18 -57 -18 -83 0 -132 -17 -174 -59 -64 -64 -64 -155 0 -198 37
-25 100 -30 147 -13 19 8 30 8 38 0 5 -5 34 -10 63 -10 47 0 53 3 57 23 52
250 56 298 31 347 -9 16 -30 37 -48 47 -36 18 -159 27 -220 14z m135 -266 c-2
-16 -11 -38 -20 -47 -51 -52 -142 -13 -99 43 20 26 50 39 87 36 32 -2 35 -4
32 -32z"/>
<path d="M3747 4696 c-65 -24 -97 -67 -97 -128 1 -51 21 -77 91 -113 110 -56
87 -102 -48 -92 -79 6 -76 8 -85 -57 -4 -25 25 -34 116 -35 131 -2 195 38 204
127 2 27 0 58 -6 68 -6 11 -40 37 -77 58 -52 31 -65 44 -63 60 3 19 11 21 74
24 l70 3 11 40 c7 27 7 41 0 46 -22 14 -152 13 -190 -1z"/>
<path d="M4316 4696 c-47 -18 -91 -58 -119 -111 -17 -31 -22 -58 -22 -121 0
-73 3 -84 28 -117 15 -20 42 -44 60 -54 40 -21 159 -29 213 -14 35 9 43 16 48
42 11 55 13 54 -93 51 -91 -3 -102 -1 -121 18 -14 14 -20 31 -18 48 l3 27 125
3 c84 2 127 7 132 15 14 22 8 111 -10 147 -9 19 -31 43 -49 53 -43 25 -128 31
-177 13z m126 -100 c20 -46 6 -57 -69 -54 -76 3 -87 15 -49 53 35 35 102 36
118 1z"/>
<path d="M5337 4701 c-46 -10 -43 -7 -51 -56 l-7 -41 102 4 c106 5 118 0 119
-40 0 -15 -9 -18 -57 -18 -75 0 -125 -14 -164 -47 -55 -47 -76 -134 -43 -181
33 -48 120 -67 180 -40 22 10 28 10 32 0 2 -8 25 -12 63 -12 32 0 59 1 59 3 0
2 11 60 25 128 38 192 31 250 -38 286 -36 18 -159 27 -220 14z m135 -237 c4
-3 2 -20 -3 -37 -16 -58 -72 -84 -114 -53 -16 12 -18 19 -10 42 6 16 22 34 35
41 26 13 82 17 92 7z"/>
<path d="M5885 4700 c-16 -4 -40 -12 -53 -19 -18 -10 -23 -9 -28 4 -4 11 -20
15 -58 15 l-51 0 -18 -97 c-9 -54 -23 -134 -32 -178 -8 -44 -17 -97 -21 -117
l-7 -38 60 0 60 0 13 78 c26 165 61 237 117 244 23 3 29 10 40 53 7 28 12 53
10 56 -1 3 -15 2 -32 -1z"/>
<path d="M4621 4628 c-7 -40 -23 -130 -37 -201 -13 -70 -24 -134 -24 -143 0
-12 11 -14 57 -12 l57 3 18 103 c25 141 53 195 109 207 23 5 31 14 39 48 6 23
13 48 15 55 6 17 -28 15 -72 -3 -19 -8 -37 -15 -39 -15 -2 0 -4 7 -4 15 0 11
-13 15 -53 15 l-54 0 -12 -72z"/>
</g>
</svg>
