<?xml version="1.0" standalone="no"?>
<!DOCTYPE svg PUBLIC "-//W3C//DTD SVG 20010904//EN"
 "http://www.w3.org/TR/2001/REC-SVG-20010904/DTD/svg10.dtd">
<svg version="1.0" xmlns="http://www.w3.org/2000/svg"
 width="900.000000pt" height="900.000000pt" viewBox="0 0 900.000000 900.000000"
 preserveAspectRatio="xMidYMid meet">
<metadata>
Created by potrace 1.16, written by Peter Selinger 2001-2019
</metadata>
<g transform="translate(0.000000,900.000000) scale(0.100000,-0.100000)"
fill="#000000" stroke="none">
<path d="M4890 6794 c-455 -40 -807 -109 -1235 -241 -1050 -324 -1916 -824
-2586 -1493 -269 -269 -473 -519 -682 -838 -215 -328 -281 -464 -345 -721 -22
-91 -26 -128 -26 -256 -1 -175 14 -245 76 -372 122 -251 397 -427 768 -492
193 -34 359 -44 537 -31 741 52 1277 200 2003 553 164 80 204 103 160 93 -484
-119 -811 -184 -1160 -230 -389 -51 -812 -55 -1052 -10 -184 35 -344 103 -420
178 -60 60 -83 115 -83 207 0 69 4 83 40 155 53 106 223 279 375 380 107 71
279 163 382 204 l58 22 0 275 0 275 23 -5 c12 -3 75 -19 140 -36 352 -95 745
-95 1104 -1 219 57 461 166 656 297 54 36 99 64 100 62 16 -23 30 -76 34 -132
l6 -68 51 3 51 3 -1 70 c-3 132 -72 253 -184 321 -50 31 -159 67 -169 57 -3
-2 25 -31 62 -64 37 -33 67 -67 67 -75 0 -21 -156 -118 -305 -190 -195 -94
-371 -149 -573 -180 -144 -22 -412 -22 -562 0 -103 15 -256 48 -266 58 -2 3
95 103 216 223 121 121 220 226 220 233 0 8 -25 82 -56 165 -43 118 -53 152
-42 158 18 11 829 278 998 328 522 155 1099 292 1689 401 118 22 216 41 218
43 1 2 -58 54 -133 117 -102 84 -133 115 -123 121 8 5 40 25 71 45 l58 35 97
-26 c338 -92 682 -214 819 -291 266 -149 354 -319 278 -540 -95 -279 -361
-642 -1037 -1417 -535 -613 -653 -769 -749 -991 -68 -156 -84 -279 -53 -401
42 -161 172 -263 381 -300 138 -25 404 -17 614 20 706 122 1865 569 2940 1135
266 140 626 347 618 356 -3 2 -85 -30 -184 -72 -1172 -494 -2072 -761 -2924
-868 -500 -63 -627 -59 -691 23 -18 21 -20 35 -16 81 12 134 111 276 607 870
489 586 713 898 859 1195 115 232 143 340 144 545 1 266 -76 453 -256 629
-214 209 -520 329 -987 387 -111 14 -528 26 -620 18z"/>
</g>
</svg>
