<?xml version="1.0" standalone="no"?>
<!DOCTYPE svg PUBLIC "-//W3C//DTD SVG 20010904//EN"
 "http://www.w3.org/TR/2001/REC-SVG-20010904/DTD/svg10.dtd">
<svg version="1.0" xmlns="http://www.w3.org/2000/svg"
 width="700.000000pt" height="700.000000pt" viewBox="0 0 700.000000 700.000000"
 preserveAspectRatio="xMidYMid meet">
<metadata>
Created by potrace 1.16, written by Peter Selinger 2001-2019
</metadata>
<g transform="translate(0.000000,700.000000) scale(0.100000,-0.100000)"
fill="#000000" stroke="none">
<path d="M3330 5559 c-506 -57 -832 -299 -959 -713 -43 -140 -19 -199 83 -211
493 -55 506 -56 532 -38 29 18 48 53 59 103 19 93 107 205 196 250 168 86 396
58 504 -63 65 -71 78 -120 83 -314 l4 -162 -24 -5 c-12 -3 -97 -12 -188 -21
-585 -58 -865 -148 -1079 -349 -187 -176 -281 -410 -281 -696 0 -429 224 -727
606 -806 97 -20 403 -15 505 9 162 38 333 135 482 277 48 45 89 81 91 79 2 -2
27 -40 56 -84 29 -44 96 -123 149 -176 135 -135 164 -138 282 -31 30 27 122
106 204 177 83 70 156 135 163 143 15 20 16 76 1 105 -7 12 -38 59 -71 104
-65 91 -108 179 -129 263 -11 43 -14 201 -16 723 -2 562 -4 681 -18 755 -28
155 -60 232 -138 339 -189 256 -632 394 -1097 342z m497 -1801 c-4 -191 -7
-234 -26 -298 -65 -219 -209 -372 -376 -398 -227 -37 -386 121 -385 381 1 345
245 522 739 536 l53 1 -5 -222z"/>
<path d="M5178 2393 c7 -3 16 -2 19 1 4 3 -2 6 -13 5 -11 0 -14 -3 -6 -6z"/>
<path d="M4710 1660 c0 -5 5 -10 11 -10 5 0 7 5 4 10 -3 6 -8 10 -11 10 -2 0
-4 -4 -4 -10z"/>
</g>
</svg>
