<?xml version="1.0" standalone="no"?>
<!DOCTYPE svg PUBLIC "-//W3C//DTD SVG 20010904//EN"
 "http://www.w3.org/TR/2001/REC-SVG-20010904/DTD/svg10.dtd">
<svg version="1.0" xmlns="http://www.w3.org/2000/svg"
 width="466.000000pt" height="466.000000pt" viewBox="0 0 466.000000 466.000000"
 preserveAspectRatio="xMidYMid meet">
<metadata>
Created by potrace 1.16, written by Peter Selinger 2001-2019
</metadata>
<g transform="translate(0.000000,466.000000) scale(0.100000,-0.100000)"
fill="#000000" stroke="none">
<path d="M666 2768 l-99 -71 -48 17 c-69 25 -180 23 -254 -5 -83 -31 -173
-121 -205 -204 -42 -110 -28 -236 37 -335 l23 -35 -27 -75 c-16 -47 -26 -98
-27 -137 -1 -52 3 -65 24 -88 21 -23 31 -26 65 -22 23 2 58 12 78 22 39 18
137 101 137 115 0 5 -26 -7 -57 -26 -62 -37 -121 -45 -143 -19 -16 19 -16 92
-1 138 l11 33 60 -29 c115 -57 260 -47 367 27 31 21 54 31 60 25 5 -5 84 -5
203 1 107 5 249 10 315 11 l120 2 -75 8 c-246 29 -327 42 -406 65 -49 14 -90
26 -91 28 -2 1 4 24 13 50 12 34 15 70 12 129 -6 101 -40 177 -109 242 l-47
44 84 81 c47 44 84 80 82 80 -2 0 -48 -32 -102 -72z m-168 -90 l33 -10 -93
-97 c-102 -105 -196 -227 -255 -327 -20 -35 -40 -64 -43 -64 -3 0 -16 21 -29
47 -125 258 114 536 387 451z m129 -80 c58 -61 85 -120 91 -200 5 -68 -12
-158 -30 -158 -14 0 -70 30 -107 58 -18 14 -32 21 -30 16 3 -5 22 -44 44 -86
38 -76 39 -77 20 -98 -10 -11 -43 -32 -74 -48 -48 -23 -69 -27 -141 -27 -73 0
-93 4 -143 28 -67 34 -67 32 -4 142 81 141 293 415 321 415 7 0 30 -19 53 -42z"/>
<path d="M1263 2448 c-76 -101 -139 -185 -141 -188 -1 -3 109 -3 245 0 176 4
255 9 271 18 22 13 102 107 102 120 0 4 -4 13 -9 21 -7 11 -1 19 28 32 41 18
111 100 111 130 0 10 -7 25 -16 33 -13 14 -49 16 -235 16 l-219 0 -137 -182z
m377 90 c0 -6 -10 -22 -22 -35 -17 -18 -32 -23 -70 -23 -26 0 -48 2 -48 5 0 3
10 19 22 35 19 26 28 30 70 30 30 0 48 -4 48 -12z m-113 -144 c2 -7 -6 -24
-19 -39 -20 -23 -29 -26 -76 -23 l-53 3 32 38 c28 34 35 38 72 35 22 -2 42 -8
44 -14z"/>
<path d="M2042 2608 c-31 -17 -69 -59 -142 -156 -99 -131 -111 -157 -88 -180
19 -19 410 -17 446 2 36 19 74 61 166 183 79 107 92 144 57 163 -12 6 -98 10
-209 10 -177 0 -191 -1 -230 -22z m232 -66 c4 -7 -94 -144 -136 -189 -16 -17
-33 -23 -65 -23 -25 0 -43 5 -43 11 0 13 54 89 113 162 36 43 43 47 82 47 24
0 46 -3 49 -8z"/>
<path d="M2538 2447 l-138 -182 203 -3 202 -2 27 32 27 33 -100 3 c-54 1 -99
5 -99 8 0 3 12 21 26 40 l26 34 103 0 104 0 25 33 26 32 -100 5 -100 5 22 32
23 33 106 0 107 0 26 34 c14 19 26 37 26 40 0 3 -91 6 -202 6 l-203 0 -137
-183z"/>
<path d="M3163 2568 c-28 -35 -91 -118 -142 -185 l-92 -123 103 0 103 1 108
143 c59 79 122 162 138 185 l31 41 -100 0 -100 0 -49 -62z"/>
<path d="M3407 2445 l-137 -185 67 0 68 1 65 89 c36 49 68 89 71 90 3 0 14
-39 25 -87 l19 -88 85 -3 85 -2 110 146 c61 81 123 164 138 185 l29 39 -66 0
-66 0 -71 -95 c-39 -52 -73 -95 -74 -95 -2 0 -13 43 -25 95 l-22 95 -81 0 -82
-1 -138 -184z"/>
<path d="M4175 2616 c-16 -8 -42 -26 -56 -42 -44 -49 -199 -256 -199 -266 0
-5 5 -18 10 -29 10 -18 23 -19 216 -19 236 0 255 5 307 76 23 31 39 43 58 44
16 0 33 10 45 28 40 54 44 52 -89 52 l-125 0 -43 -57 c-23 -32 -47 -61 -53
-65 -19 -13 -96 -9 -96 5 0 6 33 55 73 107 l72 95 53 3 c48 3 67 -8 42 -23
-28 -17 -1 -25 88 -25 97 0 98 0 120 30 24 32 28 70 10 88 -18 18 -392 16
-433 -2z"/>
</g>
</svg>
