<?xml version="1.0" standalone="no"?>
<!DOCTYPE svg PUBLIC "-//W3C//DTD SVG 20010904//EN"
 "http://www.w3.org/TR/2001/REC-SVG-20010904/DTD/svg10.dtd">
<svg version="1.0" xmlns="http://www.w3.org/2000/svg"
 width="1000.000000pt" height="1000.000000pt" viewBox="0 0 1000.000000 1000.000000"
 preserveAspectRatio="xMidYMid meet">
<metadata>
Created by potrace 1.16, written by Peter Selinger 2001-2019
</metadata>
<g transform="translate(0.000000,1000.000000) scale(0.100000,-0.100000)"
fill="#000000" stroke="none">
<path d="M905 7004 c-318 -56 -613 -256 -768 -519 -156 -265 -178 -594 -58
-859 149 -330 488 -554 899 -596 70 -8 361 -10 852 -8 l745 3 57 23 c95 38
145 93 220 239 36 70 88 169 115 218 l50 90 462 0 463 0 108 -238 c59 -131
116 -247 125 -258 10 -10 43 -31 74 -47 l56 -27 369 -3 c352 -3 368 -2 363 15
-13 45 -759 1840 -777 1869 -25 40 -100 91 -149 101 -20 5 -164 8 -321 8 -329
0 -341 -3 -419 -91 -30 -34 -167 -282 -447 -809 -444 -835 -440 -828 -547
-860 -74 -22 -834 -22 -961 0 -443 77 -728 516 -620 953 36 146 109 267 226
377 88 83 161 128 268 166 124 44 195 49 706 49 l474 0 0 110 0 110 -742 -1
c-593 -1 -759 -4 -823 -15z m2673 -708 c50 -26 73 -63 168 -270 51 -113 94
-208 94 -211 0 -3 -158 -5 -351 -5 -285 0 -350 2 -347 13 2 7 54 109 117 225
101 190 118 215 155 237 47 29 121 33 164 11z"/>
<path d="M4880 6916 c0 -85 3 -105 16 -110 9 -3 186 -6 394 -6 304 0 380 -3
389 -13 8 -10 12 -262 13 -888 l3 -874 429 -3 c280 -1 433 1 441 8 10 8 11
199 8 873 -4 715 -3 865 8 879 13 16 51 18 397 24 l382 7 0 104 0 103 -1240 0
-1240 0 0 -104z"/>
<path d="M7555 6968 c-3 -29 -5 -433 -3 -898 3 -834 3 -846 24 -890 26 -55 97
-123 150 -141 32 -12 231 -14 1154 -14 l1115 0 3 108 3 107 -684 0 c-677 0
-685 0 -711 21 l-26 20 -2 867 -3 867 -507 3 -507 2 -6 -52z"/>
<path d="M3307 4216 c-27 -65 -74 -123 -123 -152 l-44 -26 0 -104 c0 -65 4
-104 10 -104 15 0 132 60 153 78 28 25 19 -1 -15 -43 -37 -45 -78 -82 -120
-107 -28 -18 -28 -18 -28 -123 l0 -105 40 20 c21 11 44 20 50 20 7 0 10 -97
10 -295 l0 -295 79 0 c59 0 84 4 95 16 14 13 16 62 16 379 l0 363 26 53 c23
45 53 137 54 162 0 4 -32 7 -71 7 l-71 0 31 39 c43 53 89 157 97 214 l7 47
-89 0 -89 0 -18 -44z"/>
<path d="M5950 4210 l0 -50 -265 0 -265 0 0 -70 0 -70 240 0 241 0 24 -25 25
-24 0 -404 c0 -394 -1 -405 -21 -431 l-20 -26 -180 0 -179 0 0 -53 c0 -29 5
-58 12 -65 9 -9 77 -12 245 -12 252 0 264 2 313 55 l25 27 5 476 5 477 58 3
57 3 0 69 0 70 -60 0 -60 0 0 50 0 50 -100 0 -100 0 0 -50z"/>
<path d="M6596 4248 c-2 -7 -12 -41 -21 -76 -22 -75 -83 -171 -136 -214 l-39
-31 0 -114 c0 -121 2 -125 50 -98 14 8 28 14 33 15 4 0 7 -169 7 -375 l0 -375
93 0 c59 0 97 4 105 12 9 9 12 125 12 460 0 421 1 451 19 486 33 65 61 174 64
247 l2 70 -93 3 c-69 2 -93 -1 -96 -10z"/>
<path d="M7140 4233 c0 -27 13 -152 25 -235 l5 -38 -165 0 -165 0 0 -80 0 -80
178 0 177 -1 184 -409 184 -410 123 0 123 0 -63 138 c-260 568 -306 669 -306
675 0 3 63 7 139 9 152 3 168 9 215 72 28 37 27 130 -3 209 l-22 57 -98 0 -98
0 25 -70 c24 -68 24 -71 7 -90 -16 -17 -31 -20 -116 -20 l-98 0 -6 43 c-3 23
-11 89 -18 147 l-12 105 -107 3 -108 3 0 -28z"/>
<path d="M2080 4210 l0 -40 -295 0 -295 0 0 -165 0 -165 130 0 130 0 0 90 0
90 434 0 c446 0 486 -3 506 -40 6 -10 10 -46 10 -79 l0 -61 131 0 132 0 -5
108 c-5 119 -18 157 -71 196 -27 20 -43 21 -278 24 l-249 3 0 40 0 39 -140 0
-140 0 0 -40z"/>
<path d="M3980 4225 l0 -25 -230 0 -230 0 0 -60 0 -60 230 0 230 0 0 -40 0
-40 -205 0 -205 0 0 -210 0 -210 495 0 495 0 0 153 c0 180 -9 208 -80 245 -40
20 -59 22 -187 22 l-143 0 0 40 0 40 218 0 c156 0 221 3 230 12 7 7 12 34 12
60 l0 48 -230 0 -230 0 0 25 c0 25 -1 25 -85 25 -84 0 -85 0 -85 -25z m-138
-362 c14 -13 18 -31 18 -90 l0 -73 -65 0 -65 0 0 90 0 90 47 0 c29 0 53 -6 65
-17z m272 -5 c11 -15 16 -45 16 -90 l0 -68 -65 0 -65 0 0 90 0 90 49 0 c40 0
53 -4 65 -22z m270 0 c11 -15 16 -45 16 -90 l0 -68 -65 0 -65 0 0 90 0 90 49
0 c40 0 53 -4 65 -22z"/>
<path d="M4820 3610 l0 -630 270 0 270 0 -2 584 -3 585 -34 35 c-47 48 -90 56
-310 56 l-191 0 0 -630z m352 483 c16 -14 18 -35 18 -210 l0 -193 -100 0 -100
0 0 210 0 210 82 0 c62 0 86 -4 100 -17z m2 -549 c14 -13 16 -48 16 -225 l0
-209 -100 0 -100 0 0 225 0 225 84 0 c64 0 88 -4 100 -16z"/>
<path d="M5500 3813 c0 -5 21 -113 47 -240 l48 -233 97 0 c54 0 98 2 98 4 0 2
-22 98 -50 212 -27 115 -50 212 -50 217 0 4 -9 16 -20 27 -16 16 -33 20 -95
20 -41 0 -75 -3 -75 -7z"/>
<path d="M1480 3666 l0 -75 291 -3 291 -3 29 -33 29 -32 0 -179 c0 -99 -3
-186 -6 -195 -5 -14 -27 -16 -141 -16 l-134 0 3 -72 3 -73 183 -3 c208 -3 247
4 300 53 l37 33 3 261 3 261 282 0 c207 0 286 3 295 12 7 7 12 39 12 75 l0 63
-740 0 -740 0 0 -74z"/>
<path d="M3560 3465 l0 -55 493 0 c370 0 496 3 505 12 7 7 12 31 12 55 l0 43
-505 0 -505 0 0 -55z"/>
<path d="M4222 3372 c-8 -5 -16 -28 -19 -51 -3 -22 -10 -41 -15 -41 -5 0 -54
14 -110 30 -55 17 -107 30 -114 30 -18 0 -19 -80 -1 -104 14 -19 297 -106 345
-106 39 0 52 17 52 67 0 24 4 43 8 43 4 0 65 -22 135 -49 l128 -49 -3 60 -3
60 -145 55 c-143 54 -232 73 -258 55z"/>
<path d="M3530 3165 l0 -175 53 0 c45 0 58 4 78 26 23 24 24 33 27 175 l3 149
-80 0 -81 0 0 -175z"/>
<path d="M3740 3194 l0 -146 29 -29 29 -29 370 0 c418 0 402 -3 402 78 l0 42
-323 0 c-238 0 -326 3 -335 12 -8 8 -12 48 -12 115 l0 103 -80 0 -80 0 0 -146z"/>
</g>
</svg>
