<?xml version="1.0" standalone="no"?>
<!DOCTYPE svg PUBLIC "-//W3C//DTD SVG 20010904//EN"
 "http://www.w3.org/TR/2001/REC-SVG-20010904/DTD/svg10.dtd">
<svg version="1.0" xmlns="http://www.w3.org/2000/svg"
 width="1024.000000pt" height="1024.000000pt" viewBox="0 0 1024.000000 1024.000000"
 preserveAspectRatio="xMidYMid meet">
<metadata>
Created by potrace 1.16, written by Peter Selinger 2001-2019
</metadata>
<g transform="translate(0.000000,1024.000000) scale(0.100000,-0.100000)"
fill="#000000" stroke="none">
<path d="M3805 10083 c-10 -35 -19 -107 -22 -179 -6 -147 14 -244 79 -374 33
-67 61 -103 128 -170 147 -147 287 -209 492 -218 87 -3 135 0 193 13 145 32
334 149 410 253 17 23 32 41 35 41 3 0 25 -24 49 -54 85 -108 252 -208 398
-241 56 -12 105 -15 191 -12 203 9 345 71 487 213 91 91 144 175 182 290 24
71 27 96 27 220 1 107 -3 156 -18 208 -18 65 -36 89 -36 46 0 -31 -48 -147
-87 -209 -185 -294 -581 -405 -891 -250 -100 50 -185 119 -246 200 -27 36 -52
65 -56 65 -4 0 -29 -29 -56 -65 -93 -122 -249 -222 -400 -255 -110 -25 -263
-17 -369 19 -198 68 -351 213 -428 408 -15 36 -27 76 -27 87 0 39 -17 21 -35
-36z"/>
<path d="M5065 9164 c-107 -140 -333 -327 -496 -410 l-49 -24 0 -1573 0 -1572
74 -1835 c41 -1009 73 -1836 71 -1838 -5 -5 -148 104 -285 217 -149 123 -488
463 -616 616 -276 332 -473 634 -665 1016 -282 565 -450 1152 -515 1801 -22
212 -24 707 -5 908 79 842 320 1566 752 2268 48 78 83 142 79 142 -18 0 -400
-390 -498 -508 -604 -727 -955 -1549 -1069 -2507 -25 -214 -25 -788 0 -995 96
-785 347 -1472 766 -2100 398 -595 922 -1083 1559 -1450 78 -45 141 -84 140
-85 -23 -23 -450 -150 -653 -193 -388 -84 -892 -134 -1200 -118 -75 4 -114 3
-105 -3 26 -16 305 -89 459 -121 342 -70 594 -94 956 -94 307 1 477 15 770 64
94 16 172 27 174 24 2 -2 6 -39 9 -81 l5 -78 195 -267 c107 -148 198 -268 202
-268 4 0 95 120 202 268 l196 267 3 77 c3 42 6 79 9 81 3 3 82 -7 175 -23 297
-50 463 -63 775 -64 370 0 641 28 975 99 168 36 409 101 435 116 9 6 -31 7
-105 3 -327 -17 -861 39 -1260 131 -198 46 -595 166 -595 181 0 1 26 17 58 35
354 199 647 408 912 651 846 775 1361 1792 1497 2953 22 189 25 756 5 940
-107 982 -459 1817 -1081 2565 -94 114 -473 500 -490 500 -5 0 30 -64 78 -142
357 -579 582 -1172 695 -1833 63 -366 86 -736 68 -1088 -43 -847 -255 -1582
-669 -2317 -85 -150 -289 -456 -396 -593 -268 -343 -605 -677 -945 -937 -45
-34 -84 -61 -86 -59 -3 2 29 830 70 1839 l74 1835 0 1572 0 1573 -49 24 c-163
83 -389 270 -496 410 -27 36 -52 65 -55 65 -3 0 -27 -29 -55 -65z"/>
<path d="M2805 8955 c-897 -275 -1628 -816 -2142 -1585 -348 -522 -565 -1134
-635 -1790 -16 -150 -16 -604 0 -745 93 -817 386 -1518 894 -2133 104 -126
406 -424 532 -524 126 -101 284 -213 406 -288 91 -57 93 -54 20 40 -115 149
-289 438 -411 681 -290 580 -457 1154 -525 1804 -22 210 -25 742 -6 940 62
622 202 1148 453 1698 315 689 805 1325 1390 1804 53 43 113 92 135 110 21 18
37 32 34 32 -3 0 -68 -20 -145 -44z"/>
<path d="M7290 8995 c0 -1 39 -33 88 -71 1253 -990 1979 -2533 1939 -4124 -20
-776 -190 -1467 -533 -2160 -132 -267 -270 -499 -424 -710 -60 -83 -67 -96
-49 -85 70 42 265 173 355 240 307 228 606 534 833 853 390 546 623 1158 707
1852 21 175 25 614 6 790 -79 742 -342 1416 -779 1993 -425 562 -1025 1017
-1673 1270 -160 62 -470 163 -470 152z"/>
</g>
</svg>
