<?xml version="1.0" standalone="no"?>
<!DOCTYPE svg PUBLIC "-//W3C//DTD SVG 20010904//EN"
 "http://www.w3.org/TR/2001/REC-SVG-20010904/DTD/svg10.dtd">
<svg version="1.0" xmlns="http://www.w3.org/2000/svg"
 width="1024.000000pt" height="1024.000000pt" viewBox="0 0 1024.000000 1024.000000"
 preserveAspectRatio="xMidYMid meet">
<metadata>
Created by potrace 1.16, written by Peter Selinger 2001-2019
</metadata>
<g transform="translate(0.000000,1024.000000) scale(0.100000,-0.100000)"
fill="#000000" stroke="none">
<path d="M72 7852 c0 -1313 5 -2326 9 -2252 4 74 17 189 28 255 11 66 21 134
21 152 0 17 12 80 26 140 14 59 27 124 30 143 5 43 55 222 61 217 2 -2 -12
-69 -31 -148 -41 -168 -78 -380 -100 -565 -18 -148 -38 -465 -30 -473 3 -3 65
-5 137 -5 227 2 321 31 683 212 320 160 410 191 605 212 77 8 283 -1 295 -12
1 -2 -34 -77 -79 -168 -45 -91 -90 -185 -99 -210 l-18 -45 -107 0 c-192 -1
-303 -37 -608 -195 -340 -176 -456 -213 -674 -214 l-133 -1 6 -100 c8 -112 25
-247 33 -255 2 -3 64 -5 136 -4 193 1 261 26 606 218 170 94 273 137 384 160
75 16 213 23 223 13 4 -3 -8 -63 -24 -134 -17 -70 -34 -146 -37 -168 -12 -74
-10 -72 -83 -78 -146 -12 -262 -57 -479 -186 -147 -87 -287 -154 -368 -176
-33 -9 -114 -19 -181 -22 l-121 -6 13 -61 c11 -51 55 -223 80 -314 6 -20 12
-22 71 -22 129 0 232 40 428 166 225 144 376 204 518 204 l57 0 -2 -167 -3
-168 -76 -7 c-114 -10 -213 -53 -380 -164 -221 -147 -328 -193 -446 -194 -24
0 -43 -4 -43 -10 0 -11 58 -155 118 -295 l39 -90 39 3 c60 4 148 53 274 152
179 140 273 183 432 196 75 7 77 6 82 -17 11 -53 46 -247 46 -257 0 -8 -19
-12 -53 -12 -70 0 -159 -24 -221 -60 -28 -16 -103 -72 -166 -125 -114 -96
-195 -146 -257 -159 l-31 -7 54 -97 c86 -152 158 -262 171 -262 13 0 41 22
179 145 56 50 128 106 160 125 68 41 175 79 222 80 17 0 32 4 32 9 0 5 -16 66
-35 137 -19 70 -35 133 -35 139 0 8 30 14 84 18 235 19 507 131 694 286 l60
50 -5 58 c-3 36 1 84 11 126 38 161 121 305 337 582 326 418 348 474 299 757
-11 62 -40 183 -65 268 -86 297 -110 455 -102 678 7 216 48 380 148 591 83
175 168 299 298 434 72 74 168 154 175 146 2 -2 -23 -40 -56 -84 -177 -237
-300 -499 -355 -755 -14 -67 -18 -129 -18 -290 1 -240 9 -288 105 -605 76
-251 100 -369 107 -515 10 -214 -41 -332 -289 -660 -245 -326 -293 -403 -338
-545 -43 -136 -25 -321 49 -508 17 -42 62 -140 101 -218 l71 -141 -38 -34
c-288 -259 -654 -426 -901 -412 -98 5 -117 21 -168 142 -23 53 -43 99 -46 101
-3 3 -29 1 -59 -5 -95 -18 -174 -66 -294 -180 -60 -58 -125 -118 -144 -133
l-34 -28 64 -82 c34 -45 90 -113 123 -152 33 -38 62 -72 63 -74 2 -3 20 15 40
40 78 92 160 173 219 215 61 43 138 83 161 84 7 0 26 -26 42 -57 17 -32 42
-77 56 -100 l25 -41 -62 -29 c-75 -35 -157 -108 -246 -218 l-65 -80 143 -137
c79 -76 146 -138 151 -138 4 0 27 28 52 63 66 93 218 242 230 226 2 -2 31 -41
66 -85 l62 -82 -65 -62 c-36 -34 -88 -96 -116 -137 -45 -64 -50 -76 -38 -90
21 -27 -127 92 -248 198 -130 115 -328 318 -434 444 -41 50 -98 119 -128 154
-62 74 -177 232 -244 334 -25 40 -50 77 -55 82 -46 53 -319 552 -358 655 -7
19 -36 86 -63 148 -28 61 -49 112 -46 112 2 0 -6 21 -17 48 -22 49 -92 257
-127 377 -89 304 -169 739 -182 995 -4 69 -7 -974 -8 -2317 l-2 -2443 5055 0
5055 0 0 2448 0 2447 -93 -3 c-210 -8 -351 34 -682 203 -340 174 -438 205
-639 205 l-102 0 -28 68 c-16 37 -60 130 -98 206 -40 83 -65 143 -59 149 5 5
64 11 131 14 242 12 400 -32 728 -199 263 -134 378 -181 510 -208 96 -19 280
-28 316 -14 14 5 15 254 16 2465 l0 2459 -5055 0 -5055 0 2 -2388z m5465 2372
c-3 -3 -12 -4 -19 -1 -8 3 -5 6 6 6 11 1 17 -2 13 -5z m-272 -599 c102 -239
134 -306 150 -309 11 -3 135 -12 275 -21 302 -19 372 -25 368 -34 -2 -5 -371
-336 -481 -431 -6 -6 204 -575 218 -589 3 -2 31 20 62 50 241 228 575 381 967
444 54 9 105 15 112 13 10 -2 1 -23 -29 -68 -110 -164 -255 -443 -330 -635
-57 -148 -58 -143 20 -87 229 166 505 269 803 301 49 5 69 4 67 -3 -3 -6 -35
-51 -72 -101 -165 -221 -329 -487 -437 -712 -42 -86 -68 -128 -84 -135 -20 -9
-41 -3 -133 40 -392 184 -820 301 -1256 343 -185 18 -566 16 -753 -5 -423 -46
-789 -146 -1179 -322 -77 -35 -148 -64 -156 -64 -23 0 -41 27 -110 166 -118
236 -255 458 -413 672 -46 61 -84 116 -84 120 0 5 33 5 73 0 286 -33 541 -126
771 -282 l94 -64 -18 52 c-79 220 -236 532 -362 719 -22 32 -37 61 -34 64 9
10 210 -25 332 -57 286 -75 519 -196 727 -375 49 -42 90 -75 91 -73 8 11 216
565 216 575 0 6 -110 110 -245 230 l-245 218 54 6 c29 3 177 14 327 24 161 11
279 23 285 29 7 6 69 145 139 309 71 163 131 297 134 297 3 0 65 -137 136
-305z m1680 285 c3 -6 -1 -7 -9 -4 -18 7 -21 14 -7 14 6 0 13 -4 16 -10z m72
-26 c-3 -3 -12 -4 -19 -1 -8 3 -5 6 6 6 11 1 17 -2 13 -5z m98 -44 c3 -6 -1
-7 -9 -4 -18 7 -21 14 -7 14 6 0 13 -4 16 -10z m80 -38 c-3 -3 -11 0 -18 7 -9
10 -8 11 6 5 10 -3 15 -9 12 -12z m239 -111 c3 -4 -10 -1 -29 8 -19 9 -34 19
-35 24 0 9 56 -19 64 -32z m106 -57 c0 -2 -9 0 -20 6 -11 6 -20 13 -20 16 0 2
9 0 20 -6 11 -6 20 -13 20 -16z m35 -22 c-3 -3 -11 0 -18 7 -9 10 -8 11 6 5
10 -3 15 -9 12 -12z m60 -30 c-3 -3 -11 0 -18 7 -9 10 -8 11 6 5 10 -3 15 -9
12 -12z m60 -32 c3 -6 -1 -7 -9 -4 -18 7 -21 14 -7 14 6 0 13 -4 16 -10z m40
-28 c-3 -3 -11 0 -18 7 -9 10 -8 11 6 5 10 -3 15 -9 12 -12z m45 -22 c0 -5 -7
-7 -15 -4 -8 4 -15 8 -15 10 0 2 7 4 15 4 8 0 15 -4 15 -10z m65 -48 c-3 -3
-11 0 -18 7 -9 10 -8 11 6 5 10 -3 15 -9 12 -12z m49 -31 c-2 -3 -12 3 -22 13
-16 17 -16 18 5 5 12 -7 20 -15 17 -18z m216 -144 c0 -9 -88 51 -97 66 -3 5
18 -6 46 -25 28 -18 51 -37 51 -41z m71 -54 c13 -16 12 -17 -3 -4 -10 7 -18
15 -18 17 0 8 8 3 21 -13z m119 -90 c0 -2 -8 1 -17 6 -28 17 -53 38 -53 45 0
4 16 -5 35 -20 19 -14 35 -28 35 -31z m35 -24 c11 -17 -1 -21 -15 -4 -8 9 -8
15 -2 15 6 0 14 -5 17 -11z m46 -41 c11 -21 11 -22 -4 -9 -10 7 -17 17 -17 22
0 15 9 10 21 -13z m156 -142 c4 -6 -23 15 -60 48 -37 32 -67 61 -67 63 0 7
118 -96 127 -111z m336 -331 c45 -49 -9 2 -120 115 -111 113 -202 207 -203
210 0 8 239 -233 323 -325z m107 -120 c13 -14 21 -25 18 -25 -2 0 -15 11 -28
25 -13 14 -21 25 -18 25 2 0 15 -11 28 -25z m60 -67 c0 -12 -6 -9 -26 13 -19
22 -19 22 4 8 12 -8 22 -17 22 -21z m36 -45 c-7 -7 -26 7 -26 19 0 6 6 6 15
-2 9 -7 13 -15 11 -17z m59 -76 l36 -52 -36 40 c-38 43 -64 82 -47 71 6 -3 27
-30 47 -59z m65 -87 c12 -16 19 -30 16 -30 -2 0 -14 14 -26 30 -12 17 -19 30
-16 30 2 0 14 -13 26 -30z m82 -110 c45 -73 31 -63 -27 19 -21 30 -33 52 -26
50 7 -3 31 -34 53 -69z m123 -181 c61 -97 96 -159 91 -159 -2 0 -17 21 -34 48
-16 26 -55 88 -86 137 -31 50 -47 78 -34 64 13 -14 41 -55 63 -90z m-8147
-184 c211 -158 391 -443 462 -730 12 -49 23 -91 24 -92 2 -2 50 22 107 51 123
65 279 119 404 141 121 21 345 21 454 0 82 -16 241 -62 241 -70 0 -2 -46 -38
-102 -81 -290 -219 -580 -512 -796 -805 l-85 -116 -91 25 c-73 20 -115 24
-216 24 -205 1 -335 -35 -659 -181 -262 -119 -308 -137 -421 -168 -106 -29
-261 -35 -338 -14 l-43 12 116 130 c455 511 693 935 786 1398 16 78 23 157 26
301 3 109 10 201 15 208 19 23 56 12 116 -33z m7859 33 c4 -7 8 -85 9 -173 3
-311 62 -555 204 -852 144 -300 345 -587 634 -906 68 -76 86 -101 77 -110 -8
-8 -60 -12 -164 -12 -139 1 -159 3 -237 29 -98 33 -214 80 -390 161 -247 113
-387 157 -555 176 -113 12 -247 0 -348 -31 l-58 -18 -98 131 c-222 300 -513
595 -787 798 l-96 72 33 14 c19 8 79 26 134 40 136 34 385 43 525 19 129 -23
284 -76 409 -142 57 -29 106 -52 108 -50 2 2 12 39 23 82 69 292 231 553 448
726 72 57 112 71 129 46z m403 -39 c0 -6 -4 -7 -10 -4 -5 3 -10 11 -10 16 0 6
5 7 10 4 6 -3 10 -11 10 -16z m69 -121 c29 -57 62 -119 72 -138 40 -74 130
-273 127 -282 -2 -5 -21 31 -42 79 -38 85 -145 297 -200 396 -15 26 -23 47
-18 47 4 0 32 -46 61 -102z m-8968 -125 c-12 -20 -14 -14 -5 12 4 9 9 14 11
11 3 -2 0 -13 -6 -23z m4794 -26 c110 -28 146 -42 250 -94 194 -98 361 -276
421 -450 26 -73 15 -82 -66 -54 -194 67 -440 44 -596 -57 -120 -78 -139 -131
-139 -387 0 -138 3 -170 23 -232 17 -55 27 -73 41 -73 24 0 53 34 86 100 54
110 77 118 204 74 66 -23 87 -26 162 -22 74 5 95 10 147 38 l60 33 33 -19 c58
-34 73 -74 77 -199 14 -422 -290 -956 -666 -1173 -132 -75 -307 -107 -439 -79
-304 65 -628 391 -786 792 -89 224 -120 486 -72 601 28 69 100 83 188 37 47
-25 62 -28 152 -27 79 0 111 5 153 22 79 33 131 29 213 -15 80 -44 82 -43 98
52 15 84 13 214 -4 310 -13 75 -17 82 -60 122 -60 55 -167 108 -261 129 -111
24 -283 16 -384 -19 -99 -33 -107 -27 -74 61 101 270 387 479 749 546 124 24
361 15 490 -17z m-1166 -100 c8 -11 -6 -36 -60 -113 -187 -261 -268 -472 -298
-773 -34 -325 8 -516 212 -971 94 -211 152 -362 184 -480 25 -97 28 -119 27
-280 0 -165 -2 -180 -28 -260 -51 -154 -107 -247 -281 -470 -127 -164 -169
-226 -210 -313 -48 -100 -65 -176 -65 -283 0 -189 72 -359 298 -700 270 -406
334 -555 336 -774 1 -181 -34 -287 -234 -700 -155 -321 -197 -422 -237 -566
-24 -87 -27 -117 -28 -246 0 -157 0 -157 -50 -138 -14 5 -40 12 -56 15 -17 3
-56 14 -87 24 -31 10 -90 29 -129 41 l-73 23 -1 51 c-4 260 43 397 321 936
156 303 200 433 201 586 0 195 -57 328 -303 709 -204 316 -268 446 -298 609
-19 101 -9 253 23 344 45 129 91 199 360 549 92 120 155 229 190 330 25 73 31
108 35 205 8 217 -27 354 -181 713 -158 367 -187 478 -195 722 -5 196 11 312
68 484 69 209 181 397 325 548 77 81 202 191 216 191 3 0 12 -6 18 -13z m1858
-33 c276 -221 465 -538 530 -891 23 -123 23 -369 -1 -488 -27 -136 -78 -285
-181 -524 -150 -350 -193 -517 -182 -715 12 -215 75 -337 355 -693 255 -324
316 -533 236 -812 -35 -120 -107 -261 -230 -451 -240 -370 -296 -475 -334
-626 -39 -152 -20 -300 64 -495 24 -57 111 -237 193 -399 188 -372 235 -506
250 -710 8 -114 2 -124 -90 -151 -39 -12 -102 -32 -139 -45 -38 -13 -68 -22
-68 -19 0 2 -10 1 -22 -4 -13 -4 -35 -11 -51 -15 l-27 -6 6 83 c11 143 -26
331 -103 517 -19 47 -97 213 -173 370 -199 409 -237 531 -228 729 10 199 71
337 320 714 246 372 312 525 312 722 0 192 -56 316 -264 580 -242 308 -314
463 -327 705 -10 205 41 398 210 780 114 259 158 375 194 512 26 97 28 116 28
313 0 179 -3 226 -23 323 -48 237 -143 441 -313 669 -30 39 -34 73 -10 73 6 0
36 -21 68 -46z m-5579 -36 c-6 -18 -13 -27 -15 -21 -4 11 13 53 22 53 2 0 -1
-15 -7 -32z m3252 -120 c-144 -177 -257 -376 -320 -567 -55 -164 -73 -283 -74
-486 -1 -247 20 -341 164 -730 112 -304 150 -466 150 -641 0 -185 -72 -360
-235 -574 -290 -381 -312 -413 -358 -530 -67 -171 -59 -338 27 -537 42 -97
103 -202 236 -408 128 -197 229 -392 260 -505 18 -65 24 -110 24 -190 0 -183
-44 -304 -249 -684 -191 -357 -259 -530 -272 -699 -3 -43 -9 -80 -13 -82 -6
-4 -19 2 -181 81 l-97 47 5 41 c19 174 77 325 274 713 183 362 221 469 222
618 0 170 -55 302 -263 635 -238 380 -310 571 -297 780 13 194 83 333 327 650
282 367 328 467 317 690 -7 143 -35 258 -121 497 -116 323 -146 470 -146 711
-1 209 30 369 109 567 72 179 207 380 347 516 73 70 202 165 211 155 3 -2 -19
-33 -47 -68z m2747 23 c313 -220 543 -638 585 -1061 24 -248 -15 -478 -140
-831 -128 -361 -155 -526 -113 -691 35 -135 86 -222 291 -488 266 -345 329
-471 338 -677 9 -228 -46 -373 -308 -798 -206 -333 -257 -466 -248 -640 8
-135 50 -246 220 -581 197 -390 255 -538 274 -702 l6 -58 -131 -62 c-72 -34
-135 -62 -140 -62 -5 0 -12 28 -16 63 -20 188 -85 359 -268 697 -204 376 -247
490 -255 671 -9 224 43 353 307 764 209 326 270 467 278 645 11 211 -43 330
-299 658 -237 303 -301 423 -329 612 -9 61 -9 107 0 192 18 170 50 291 141
533 141 374 170 499 170 730 0 397 -109 694 -387 1053 -35 45 -60 82 -55 82 5
0 40 -22 79 -49z m-6034 24 c-3 -9 -8 -14 -10 -11 -3 3 -2 9 2 15 9 16 15 13
8 -4z m-26 -67 c-3 -8 -6 -5 -6 6 -1 11 2 17 5 13 3 -3 4 -12 1 -19z m9341 -3
c-3 -3 -9 2 -12 12 -6 14 -5 15 5 6 7 -7 10 -15 7 -18z m-9355 -30 c-3 -9 -8
-14 -10 -11 -3 3 -2 9 2 15 9 16 15 13 8 -4z m9401 -85 c3 -14 -2 -7 -13 15
-10 22 -21 51 -24 65 -4 14 2 7 12 -15 10 -22 22 -51 25 -65z m-9414 52 c0 -5
-7 -17 -15 -28 -14 -18 -14 -17 -4 9 12 27 19 34 19 19z m6509 -86 c50 -37
171 -157 222 -221 110 -137 219 -342 278 -521 59 -179 74 -290 68 -502 -5
-201 -22 -300 -91 -543 -88 -311 -111 -472 -81 -574 33 -114 83 -194 290 -460
73 -93 158 -208 189 -253 119 -175 179 -334 175 -463 -1 -36 1 -71 5 -77 11
-18 147 -116 222 -161 152 -89 356 -155 522 -168 l84 -6 -7 -36 c-3 -20 -19
-81 -36 -135 -16 -55 -29 -105 -29 -113 0 -8 12 -13 29 -13 97 0 243 -81 391
-215 109 -99 161 -137 177 -131 18 7 -1 -26 -79 -139 -35 -49 -70 -91 -79 -93
-10 -2 -65 44 -137 115 -153 150 -231 199 -347 217 l-40 7 -45 -102 c-55 -124
-74 -141 -166 -147 -249 -16 -644 163 -896 405 l-46 45 73 147 c174 349 208
538 136 749 -40 115 -98 206 -301 477 -189 250 -247 343 -288 457 -24 66 -26
86 -26 208 1 161 20 258 98 517 30 98 64 214 75 258 71 288 62 565 -30 848
-56 175 -194 427 -326 600 -24 31 -41 57 -37 57 3 0 27 -15 53 -34z m-6548
-13 c-12 -20 -14 -14 -5 12 4 9 9 14 11 11 3 -2 0 -13 -6 -23z m9487 -25 c6
-16 8 -28 3 -28 -8 0 -31 52 -31 68 0 11 16 -13 28 -40z m-9510 -41 c-6 -20
-15 -37 -20 -37 -4 0 -1 16 7 36 8 20 15 39 15 42 0 3 2 3 5 1 2 -3 -1 -22 -7
-42z m9536 -47 c5 -17 4 -20 -2 -10 -5 8 -13 26 -16 40 -5 17 -4 20 2 10 5 -8
13 -26 16 -40z m-9560 -22 c-10 -34 -27 -59 -18 -28 4 14 7 31 7 38 0 6 4 12
9 12 5 0 6 -10 2 -22z m9591 -58 c3 -5 1 -10 -4 -10 -6 0 -11 5 -11 10 0 6 2
10 4 10 3 0 8 -4 11 -10z m-9622 -32 c-3 -16 -9 -28 -14 -28 -4 0 -3 14 3 31
12 36 18 35 11 -3z m4252 -53 c85 -35 175 -116 175 -158 0 -15 -1 -27 -3 -27
-1 0 -47 11 -101 25 -161 41 -307 31 -388 -26 -14 -11 -29 -19 -32 -19 -3 0
-17 20 -31 43 -35 60 -34 115 3 149 42 40 77 48 197 45 94 -3 120 -8 180 -32z
m1442 11 c72 -37 91 -90 57 -162 -26 -54 -37 -58 -79 -30 -21 14 -54 30 -74
36 -59 16 -177 11 -273 -11 -101 -24 -113 -19 -103 36 9 52 91 108 205 140 71
20 222 15 267 -9z m3968 -64 c-5 -5 -18 26 -29 68 -3 14 3 5 14 -19 11 -24 18
-46 15 -49z m-9689 22 c-8 -21 -15 -34 -15 -28 -1 15 20 76 25 71 2 -2 -2 -21
-10 -43z m9699 -44 c3 -5 1 -10 -4 -10 -6 0 -11 5 -11 10 0 6 2 10 4 10 3 0 8
-4 11 -10z m-9727 -54 c-7 -25 -16 -46 -20 -46 -10 0 -11 -1 8 54 20 59 29 54
12 -8z m9751 -36 c12 -38 24 -76 27 -85 3 -8 2 -15 -3 -15 -5 0 -17 33 -27 73
-10 39 -21 78 -23 85 -3 6 -3 12 0 12 3 0 15 -31 26 -70z m36 -119 c3 -5 1
-12 -5 -16 -5 -3 -10 1 -10 9 0 18 6 21 15 7z m13 -86 c0 -16 -2 -15 -8 5 -11
34 -11 60 0 35 5 -11 8 -29 8 -40z m21 -75 c1 -13 0 -13 -9 0 -5 8 -9 24 -9
35 l0 20 9 -20 c5 -11 9 -27 9 -35z m11 -30 c0 -5 -2 -10 -4 -10 -3 0 -8 5
-11 10 -3 6 -1 10 4 10 6 0 11 -4 11 -10z m10 -41 c0 -5 -4 -9 -10 -9 -5 0
-10 7 -10 16 0 8 5 12 10 9 6 -3 10 -10 10 -16z m-3 -61 c-3 -7 -5 -2 -5 12 0
14 2 19 5 13 2 -7 2 -19 0 -25z m39 -168 c4 -25 4 -42 0 -39 -7 6 -37 166 -35
184 2 14 27 -91 35 -145z m14 -76 c0 -8 -4 -12 -10 -9 -5 3 -10 10 -10 16 0 5
5 9 10 9 6 0 10 -7 10 -16z m3 -64 c-3 -11 -7 -20 -9 -20 -2 0 -4 9 -4 20 0
11 4 20 9 20 5 0 7 -9 4 -20z m4 -92 c-2 -13 -4 -5 -4 17 -1 22 1 32 4 23 2
-10 2 -28 0 -40z m-1087 -818 c91 -26 241 -96 408 -191 241 -138 348 -173 540
-173 l132 -1 0 -27 c0 -16 -11 -85 -25 -155 -13 -71 -26 -137 -28 -148 -6 -41
-16 -45 -103 -45 -173 0 -312 45 -529 171 -273 158 -373 199 -529 216 l-69 8
-22 110 c-13 61 -32 145 -43 189 l-19 79 106 -6 c61 -3 138 -15 181 -27z
m-4240 -300 c237 -66 376 -65 609 5 103 31 159 32 193 5 30 -23 40 -48 63
-155 24 -114 98 -259 197 -388 223 -292 269 -366 304 -497 23 -86 23 -233 0
-325 -28 -111 -133 -313 -270 -518 -225 -337 -283 -440 -333 -588 -26 -77 -28
-96 -28 -224 1 -134 2 -145 37 -246 20 -58 86 -209 146 -335 213 -446 265
-592 292 -829 16 -130 4 -334 -19 -321 -3 2 -67 -7 -141 -20 -373 -67 -1063
-71 -1460 -8 -85 14 -164 26 -175 27 -29 3 -33 25 -34 184 -2 284 50 459 281
937 188 391 228 540 194 725 -33 180 -88 289 -337 664 -240 361 -309 521 -309
711 0 185 51 306 220 526 201 262 263 369 295 506 30 129 35 142 66 168 40 34
77 33 209 -4z m4260 -485 c109 -23 206 -68 373 -173 232 -145 324 -182 459
-182 40 0 68 -4 68 -10 0 -6 -12 -43 -26 -83 -14 -39 -27 -81 -30 -92 -2 -11
-15 -49 -28 -84 l-23 -65 -54 3 c-129 6 -223 45 -412 170 -216 143 -296 178
-430 190 l-68 6 -2 168 -2 167 52 0 c28 0 84 -7 123 -15z m774 -742 c-9 -21
-22 -54 -29 -73 -23 -62 -54 -130 -59 -130 -3 0 3 21 13 48 11 26 32 80 48
119 15 40 31 73 36 73 4 0 0 -17 -9 -37z m-763 -9 c88 -26 156 -66 299 -175
135 -103 204 -142 271 -153 l37 -6 28 65 c16 36 32 65 37 65 4 0 6 -3 4 -7 -3
-5 -46 -93 -97 -198 -51 -104 -96 -195 -101 -201 -7 -8 -25 -6 -65 7 -77 25
-111 48 -239 155 -60 50 -135 105 -165 122 -65 37 -156 62 -222 62 -31 0 -48
4 -48 12 0 16 40 249 46 267 6 18 135 9 215 -15z m445 -672 c-9 -17 -20 -34
-26 -37 -6 -4 -1 12 11 35 12 22 23 39 26 36 2 -2 -3 -18 -11 -34z m-84 -142
c-15 -27 -30 -50 -34 -50 -4 0 6 23 23 50 40 65 47 65 11 0z m-57 -91 c-9 -17
-19 -29 -22 -26 -5 5 25 57 33 57 3 0 -3 -14 -11 -31z m-6416 -206 c41 -96 55
-178 48 -282 -10 -152 -77 -311 -252 -591 -145 -232 -235 -431 -235 -518 0
-17 -4 -33 -10 -37 -10 -6 -147 71 -192 108 l-26 22 19 75 c27 106 104 254
208 400 264 369 326 475 363 622 17 68 19 100 15 187 -3 59 -9 120 -12 136 -6
28 -5 27 19 -12 15 -23 39 -72 55 -110z m4356 120 c-31 -121 -22 -265 25 -395
46 -126 95 -206 290 -478 112 -155 171 -250 206 -327 28 -65 64 -178 64 -203
0 -11 -33 -39 -92 -77 -51 -33 -100 -62 -109 -65 -12 -5 -20 12 -37 90 -28
120 -78 226 -214 452 -139 231 -163 275 -197 358 -60 145 -77 305 -46 427 16
61 99 245 111 245 3 0 3 -12 -1 -27z m1249 -223 c33 -17 84 -50 115 -73 55
-42 221 -221 221 -238 0 -13 -151 -180 -160 -177 -4 2 -41 45 -84 95 -86 104
-156 165 -233 200 -60 28 -62 13 14 146 25 42 50 77 56 77 7 0 39 -14 71 -30z
m-304 -556 c33 -31 88 -93 121 -137 l60 -80 -48 -49 c-48 -49 -121 -104 -126
-97 -2 2 -24 36 -49 74 -26 39 -76 99 -112 134 -39 37 -63 68 -59 74 3 7 31
44 62 84 63 83 57 83 151 -3z m-6280 -409 c7 -9 8 -15 2 -15 -5 0 -12 7 -16
15 -3 8 -4 15 -2 15 2 0 9 -7 16 -15z m80 -65 c0 -5 -2 -10 -4 -10 -3 0 -8 5
-11 10 -3 6 -1 10 4 10 6 0 11 -4 11 -10z m215 -150 c3 -6 -1 -7 -9 -4 -18 7
-21 14 -7 14 6 0 13 -4 16 -10z"/>
<path d="M4865 8280 c-143 -110 -260 -205 -260 -212 0 -7 9 -12 20 -11 11 1
83 9 160 18 232 26 630 19 815 -15 48 -9 60 -6 59 13 0 12 -503 400 -524 404
-5 2 -127 -87 -270 -197z"/>
<path d="M4930 5848 c-52 -26 -63 -53 -28 -67 13 -5 53 -20 91 -35 94 -36 165
-35 284 6 122 41 131 68 37 104 -34 13 -57 15 -97 9 -66 -10 -106 -10 -182 -1
-52 6 -66 4 -105 -16z"/>
<path d="M4742 5527 c-10 -12 6 -33 89 -120 128 -135 177 -162 294 -162 122 0
174 28 302 163 127 133 126 139 -27 117 -167 -23 -460 -18 -616 11 -20 4 -34
1 -42 -9z"/>
</g>
</svg>
