<?xml version="1.0" standalone="no"?>
<!DOCTYPE svg PUBLIC "-//W3C//DTD SVG 20010904//EN"
 "http://www.w3.org/TR/2001/REC-SVG-20010904/DTD/svg10.dtd">
<svg version="1.0" xmlns="http://www.w3.org/2000/svg"
 width="512.000000pt" height="512.000000pt" viewBox="0 0 512.000000 512.000000"
 preserveAspectRatio="xMidYMid meet">
<metadata>
Created by potrace 1.16, written by Peter Selinger 2001-2019
</metadata>
<g transform="translate(0.000000,512.000000) scale(0.100000,-0.100000)"
fill="#000000" stroke="none">
<path d="M621 3323 c-351 -350 -620 -841 -621 -1134 -1 -229 119 -383 354
-458 191 -61 339 -64 553 -11 173 42 251 72 1263 487 509 209 1369 561 1912
783 543 222 986 405 984 407 -7 7 -2218 -543 -2941 -732 -429 -112 -820 -211
-870 -221 -110 -20 -281 -22 -355 -5 -240 58 -377 270 -340 524 19 133 63 258
138 395 22 39 38 72 36 72 -3 0 -53 -48 -113 -107z"/>
</g>
</svg>
