<?xml version="1.0" standalone="no"?>
<!DOCTYPE svg PUBLIC "-//W3C//DTD SVG 20010904//EN"
 "http://www.w3.org/TR/2001/REC-SVG-20010904/DTD/svg10.dtd">
<svg version="1.0" xmlns="http://www.w3.org/2000/svg"
 width="1024.000000pt" height="1024.000000pt" viewBox="0 0 1024.000000 1024.000000"
 preserveAspectRatio="xMidYMid meet">
<metadata>
Created by potrace 1.16, written by Peter Selinger 2001-2019
</metadata>
<g transform="translate(0.000000,1024.000000) scale(0.100000,-0.100000)"
fill="#000000" stroke="none">
<path d="M7932 5298 l3 -1153 162 0 163 0 0 1153 0 1152 -165 0 -165 0 2
-1152z"/>
<path d="M3375 5644 c-341 -76 -573 -328 -615 -667 -47 -381 171 -725 535
-843 99 -32 279 -44 389 -24 323 56 575 311 626 633 15 94 8 267 -15 352 -69
255 -276 461 -537 535 -100 29 -287 36 -383 14z m268 -299 c112 -29 203 -96
268 -196 97 -151 97 -388 1 -540 -190 -298 -620 -273 -771 45 -57 119 -65 281
-20 403 83 222 304 345 522 288z"/>
<path d="M9005 5645 c-146 -33 -252 -91 -355 -194 -90 -91 -140 -174 -182
-301 -26 -80 -31 -116 -36 -224 -6 -150 7 -235 50 -349 57 -150 177 -294 306
-370 143 -83 267 -113 448 -105 181 8 322 62 457 174 69 57 150 151 142 164
-5 9 -231 159 -248 165 -7 3 -25 -14 -41 -36 -43 -61 -137 -126 -218 -150 -55
-17 -88 -21 -161 -17 -116 5 -198 40 -273 116 -45 46 -93 118 -83 126 2 1 236
99 519 215 283 117 517 215 519 217 9 8 -31 109 -75 189 -138 257 -364 397
-633 394 -42 0 -103 -7 -136 -14z m280 -300 c28 -8 69 -28 92 -45 46 -34 91
-97 77 -109 -5 -4 -70 -33 -144 -63 -74 -31 -228 -95 -341 -142 -114 -47 -210
-86 -213 -86 -10 0 -7 64 5 122 25 120 122 244 235 299 98 48 175 55 289 24z"/>
</g>
</svg>
