<?xml version="1.0" standalone="no"?>
<!DOCTYPE svg PUBLIC "-//W3C//DTD SVG 20010904//EN"
 "http://www.w3.org/TR/2001/REC-SVG-20010904/DTD/svg10.dtd">
<svg version="1.0" xmlns="http://www.w3.org/2000/svg"
 width="1024.000000pt" height="1024.000000pt" viewBox="0 0 1024.000000 1024.000000"
 preserveAspectRatio="xMidYMid meet">
<metadata>
Created by potrace 1.16, written by Peter Selinger 2001-2019
</metadata>
<g transform="translate(0.000000,1024.000000) scale(0.100000,-0.100000)"
fill="#000000" stroke="none">
<path d="M4840 9156 c-183 -203 -307 -383 -445 -650 -283 -543 -478 -1196
-527 -1756 -14 -160 -18 -902 -5 -962 7 -34 10 -36 55 -41 73 -8 2111 -32
2118 -25 18 19 34 223 34 453 0 439 -33 810 -100 1105 -90 396 -242 813 -435
1195 -175 348 -329 569 -516 743 l-66 62 -113 -124z"/>
<path d="M695 7558 c3 -40 10 -152 16 -248 18 -305 55 -516 140 -797 88 -293
227 -636 311 -767 l32 -49 1121 6 c990 6 1325 14 1342 31 28 28 -125 233 -394
529 -351 385 -783 711 -1278 962 -291 148 -663 285 -935 343 -77 17 -337 62
-355 62 -3 0 -3 -33 0 -72z"/>
<path d="M9037 7604 c-273 -42 -710 -188 -1035 -345 -482 -232 -811 -467
-1202 -859 -278 -278 -567 -637 -536 -667 16 -16 301 -22 1366 -29 l1095 -7
38 54 c62 90 212 459 319 784 58 177 91 334 114 540 17 158 24 484 10 523 -9
26 -34 27 -169 6z"/>
<path d="M2128 5391 c-427 -4 -779 -9 -783 -12 -8 -9 17 -49 122 -196 l88
-122 3404 2 3405 2 73 100 c40 55 89 130 108 168 l36 67 -2838 -2 c-1561 -1
-3188 -4 -3615 -7z"/>
<path d="M1974 4575 l159 -155 2808 0 2807 0 124 99 c68 54 139 116 158 137
l34 39 -40 7 c-76 15 -1888 27 -4034 27 l-2175 0 159 -154z"/>
<path d="M2746 4081 l-98 -6 48 -41 c284 -237 1054 -556 1533 -634 68 -11 127
-17 132 -14 20 12 1 536 -24 644 l-12 55 -740 1 c-407 0 -784 -2 -839 -5z"/>
<path d="M4455 4023 c118 -213 423 -630 487 -664 18 -10 27 -4 82 53 63 64
168 199 268 343 50 72 198 319 198 330 0 3 -241 5 -536 5 l-536 0 37 -67z"/>
<path d="M5591 4067 c-6 -15 -15 -63 -20 -107 -12 -96 -27 -541 -18 -562 12
-32 368 39 640 128 305 100 540 208 853 395 161 96 224 142 212 154 -4 5 -379
10 -832 13 l-825 5 -10 -26z"/>
<path d="M3510 2659 c0 -237 -3 -300 -12 -296 -7 2 -71 24 -143 47 -113 37
-145 44 -240 48 -322 13 -593 -157 -737 -464 -59 -125 -68 -203 -47 -379 22
-188 87 -315 227 -445 223 -209 502 -264 802 -158 108 38 144 41 148 11 6 -44
25 -48 201 -48 l166 0 0 990 0 990 -182 3 -183 2 0 -301z m-247 -577 c116 -58
191 -149 223 -272 45 -175 -37 -365 -194 -448 -204 -109 -476 -26 -578 175
-26 53 -29 67 -29 163 0 103 1 108 38 182 77 157 216 241 388 235 74 -3 96 -8
152 -35z"/>
<path d="M4060 2776 l0 -186 185 0 186 0 -6 123 c-3 67 -8 145 -11 174 l-5 51
-57 6 c-31 3 -110 8 -174 12 l-118 6 0 -186z"/>
<path d="M5818 2951 c-27 -4 -54 -13 -60 -19 -10 -10 -14 -86 -16 -292 -2
-154 -6 -280 -9 -280 -2 0 -57 18 -121 40 -258 87 -441 78 -657 -33 -111 -57
-235 -181 -292 -292 -71 -137 -88 -209 -88 -365 0 -113 4 -147 23 -210 75
-239 250 -431 457 -500 150 -50 400 -43 568 15 l101 35 31 -34 c37 -41 83 -49
245 -44 l105 3 0 990 0 990 -120 1 c-66 1 -141 -1 -167 -5z m-393 -845 c159
-42 279 -173 304 -331 27 -179 -81 -370 -245 -434 -211 -82 -432 4 -526 204
-73 158 -36 330 101 458 106 99 240 137 366 103z"/>
<path d="M8916 2920 c-54 -27 -82 -55 -107 -107 -57 -118 55 -236 212 -221 28
3 62 14 77 25 36 26 66 114 57 170 -17 118 -138 185 -239 133z m130 -39 c63
-38 83 -139 41 -202 -54 -80 -198 -65 -241 26 -31 64 -11 136 49 175 39 26
110 26 151 1z"/>
<path d="M8944 2860 c-27 -11 -39 -82 -26 -150 l8 -45 21 40 21 39 22 -44 23
-45 15 35 c21 52 28 143 11 157 -21 16 -71 23 -95 13z m54 -56 c2 -12 -4 -24
-12 -27 -20 -8 -47 19 -39 39 8 22 47 13 51 -12z"/>
<path d="M6884 2450 c-393 -43 -672 -377 -651 -780 14 -279 164 -504 421 -630
202 -100 399 -106 639 -20 49 17 96 30 105 28 10 -2 19 -16 22 -33 4 -24 11
-30 40 -36 35 -7 297 5 306 14 3 3 8 330 11 727 l6 722 -164 -4 c-90 -3 -172
-8 -181 -12 -11 -5 -18 -19 -18 -37 0 -16 -6 -32 -14 -35 -8 -3 -45 10 -82 29
-113 57 -289 84 -440 67z m244 -350 c135 -52 202 -129 247 -285 40 -137 -6
-295 -116 -400 -71 -68 -132 -96 -219 -103 -173 -12 -349 84 -411 224 -69 155
-29 360 93 469 129 116 268 149 406 95z"/>
<path d="M8344 2440 c-92 -24 -208 -79 -260 -124 -53 -46 -97 -114 -124 -196
-32 -94 -25 -202 21 -300 68 -149 189 -213 531 -280 82 -16 181 -39 219 -50
62 -19 69 -24 77 -53 19 -71 -16 -137 -93 -177 -41 -21 -62 -25 -139 -24 -81
0 -98 3 -157 31 -74 35 -105 70 -115 132 -5 33 -13 45 -31 52 -39 15 -373 12
-373 -3 0 -7 9 -49 20 -93 48 -188 175 -306 397 -367 107 -29 412 -32 512 -4
97 26 173 69 246 138 109 101 136 170 139 347 1 91 -1 100 -28 140 -105 160
-204 211 -560 291 -240 53 -316 89 -316 151 0 91 164 152 309 115 94 -24 129
-50 157 -113 16 -36 32 -57 50 -63 14 -6 82 -10 152 -10 184 0 207 19 158 125
-82 179 -230 302 -411 340 -100 21 -292 19 -381 -5z"/>
<path d="M1195 2431 c-225 -56 -421 -248 -508 -499 -36 -103 -47 -244 -27
-344 44 -229 214 -457 415 -556 79 -39 131 -53 240 -62 144 -12 278 3 397 45
l103 35 26 -31 c32 -39 75 -48 237 -49 l122 0 0 736 0 736 -168 -3 c-176 -4
-202 -10 -202 -50 0 -30 -15 -30 -81 0 -102 46 -190 61 -346 60 -95 0 -160 -6
-208 -18z m296 -317 c187 -56 299 -173 331 -344 14 -72 1 -154 -36 -235 -114
-249 -477 -304 -664 -101 -84 91 -120 213 -101 338 21 139 93 235 232 309 97
52 150 59 238 33z"/>
<path d="M4060 1704 l0 -736 138 6 c75 4 153 9 173 12 l37 5 6 202 c3 111 7
437 9 725 l4 522 -184 0 -183 0 0 -736z"/>
</g>
</svg>
