<?xml version="1.0" standalone="no"?>
<!DOCTYPE svg PUBLIC "-//W3C//DTD SVG 20010904//EN"
 "http://www.w3.org/TR/2001/REC-SVG-20010904/DTD/svg10.dtd">
<svg version="1.0" xmlns="http://www.w3.org/2000/svg"
 width="1024.000000pt" height="1024.000000pt" viewBox="0 0 1024.000000 1024.000000"
 preserveAspectRatio="xMidYMid meet">
<metadata>
Created by potrace 1.16, written by Peter Selinger 2001-2019
</metadata>
<g transform="translate(0.000000,1024.000000) scale(0.100000,-0.100000)"
fill="#000000" stroke="none">
<path d="M50 5798 c0 -1090 5 -1271 39 -1427 59 -271 182 -494 370 -674 170
-163 369 -264 624 -319 137 -29 400 -32 527 -5 238 51 441 151 608 302 l52 47
0 -156 0 -156 260 0 260 0 0 1725 0 1725 -260 0 -259 0 -3 -1147 -3 -1148 -27
-96 c-85 -309 -271 -517 -543 -608 -202 -67 -444 -56 -631 29 -267 121 -447
386 -483 713 -7 62 -11 476 -11 1177 l0 1080 -260 0 -260 0 0 -1062z"/>
<path d="M3170 5135 l0 -1725 248 2 247 3 0 153 c0 83 1 152 3 152 2 0 23 -19
48 -42 151 -142 348 -244 568 -296 95 -22 134 -26 276 -26 179 0 274 13 417
60 199 65 367 168 519 319 200 199 324 438 369 714 25 150 17 388 -19 529
-145 574 -626 968 -1222 999 -326 17 -657 -101 -901 -322 l-53 -47 0 626 0
626 -250 0 -250 0 0 -1725z m1558 374 c149 -34 274 -102 391 -213 328 -313
361 -828 77 -1182 -154 -190 -378 -307 -621 -321 -412 -23 -777 243 -887 649
-19 69 -23 107 -22 228 1 127 4 156 27 233 140 458 573 712 1035 606z"/>
<path d="M7136 5954 c-104 -19 -236 -64 -338 -115 -255 -128 -449 -325 -578
-584 -133 -269 -171 -565 -111 -862 112 -546 543 -944 1110 -1024 135 -19 403
-6 528 25 188 47 333 115 482 226 73 53 274 256 269 271 -2 5 -82 67 -178 138
l-175 129 -69 -75 c-128 -138 -258 -219 -428 -265 -110 -30 -326 -32 -433 -4
-164 42 -341 154 -443 280 -85 104 -182 311 -182 387 0 19 26 19 1021 19
l1022 0 -6 188 c-6 200 -23 304 -73 449 -148 431 -507 741 -949 817 -113 20
-360 20 -469 0z m464 -454 c252 -84 434 -278 513 -547 l16 -53 -766 0 -765 0
6 34 c4 18 18 62 31 97 99 252 311 435 570 493 114 26 278 16 395 -24z"/>
<path d="M9914 5940 c-158 -17 -290 -78 -394 -180 -37 -36 -78 -81 -93 -100
l-26 -35 -1 153 0 152 -245 0 -245 0 0 -1260 0 -1260 244 0 245 0 3 778 c4
761 5 779 26 855 61 220 210 376 403 422 41 9 114 15 202 15 l137 0 0 234 0
233 -92 1 c-51 0 -125 -4 -164 -8z"/>
</g>
</svg>
